<?xml version="1.0" encoding="UTF-8" standalone="no"?>
<!-- Created with Inkscape (http://www.inkscape.org/) -->

<svg
   xmlns:dc="http://purl.org/dc/elements/1.1/"
   xmlns:cc="http://creativecommons.org/ns#"
   xmlns:rdf="http://www.w3.org/1999/02/22-rdf-syntax-ns#"
   xmlns:svg="http://www.w3.org/2000/svg"
   xmlns="http://www.w3.org/2000/svg"
   xmlns:sodipodi="http://sodipodi.sourceforge.net/DTD/sodipodi-0.dtd"
   xmlns:inkscape="http://www.inkscape.org/namespaces/inkscape"
   width="619.11377"
   height="300.00003"
   id="svg2"
   version="1.1"
   inkscape:version="0.48.2 r9819"
   sodipodi:docname="Nouveau document 1">
  <defs
     id="defs4" />
  <sodipodi:namedview
     id="base"
     pagecolor="#ffffff"
     bordercolor="#666666"
     borderopacity="1.0"
     inkscape:pageopacity="0.0"
     inkscape:pageshadow="2"
     inkscape:zoom="0.35"
     inkscape:cx="1786.3037"
     inkscape:cy="472.85711"
     inkscape:document-units="px"
     inkscape:current-layer="layer1"
     showgrid="false"
     fit-margin-top="0"
     fit-margin-left="0"
     fit-margin-right="0"
     fit-margin-bottom="0"
     inkscape:window-width="1600"
     inkscape:window-height="838"
     inkscape:window-x="-8"
     inkscape:window-y="-8"
     inkscape:window-maximized="1" />
  <metadata
     id="metadata7">
    <rdf:RDF>
      <cc:Work
         rdf:about="">
        <dc:format>image/svg+xml</dc:format>
        <dc:type
           rdf:resource="http://purl.org/dc/dcmitype/StillImage" />
        <dc:title></dc:title>
      </cc:Work>
    </rdf:RDF>
  </metadata>
  <g
     inkscape:label="Calque 1"
     inkscape:groupmode="layer"
     id="layer1"
     transform="translate(3199.6942,-2369.4363)">
    <path
       style="fill:#000000"
       d="m -3125.5953,2669.3766 c -0.1376,-0.022 -0.3627,-0.067 -0.5002,-0.1013 -0.2336,-0.058 -0.2237,-0.07 0.15,-0.1894 0.7854,-0.2501 3.9516,-0.1289 3.9516,0.1513 0,0.1653 -2.7589,0.2721 -3.6014,0.1394 z m 2.0515,-2.0366 c -2.6296,-0.1935 -3.9676,-0.5199 -5.9031,-1.4398 -3.3038,-1.5703 -6.4672,-4.3119 -7.6414,-6.6225 -1.3861,-2.7278 -11.5109,-36.5192 -17.8313,-59.5122 -2.1792,-7.9278 -4.0374,-14.4608 -5.8953,-20.7274 -1.5624,-5.27 -3.1198,-10.69 -3.9469,-13.7363 -1.6599,-6.1129 -6.9029,-24.4136 -10.5042,-36.6646 -4.6601,-15.8529 -7.3524,-26.1276 -8.2573,-31.5125 -0.6163,-3.6678 0.2941,-7.7145 2.4715,-10.9852 0.7957,-1.1952 2.2742,-2.761 3.417,-3.6187 1.3805,-1.036 3.2884,-1.9388 4.877,-2.3077 2.0381,-0.4733 10.8649,-1.0343 21.1521,-1.3444 8.5014,-0.2562 10.2767,-0.3145 13.8055,-0.4537 5.2882,-0.2086 8.8662,-0.4216 10.9314,-0.6508 2.1418,-0.2377 2.5552,-0.243 3.3283,-0.043 0.8184,0.2118 1.4897,0.6392 2.6647,1.6965 3.2603,2.9336 4.0143,3.2779 5.8347,2.6649 3.606,-1.2144 7.941,-1.199 11.7284,0.042 2.5837,0.8464 4.7923,2.1885 6.4301,3.9075 1.3186,1.3839 2.0339,2.6452 2.5938,4.5733 0.6679,2.3001 3.2146,11.9656 8.3468,31.6797 4.8816,18.7512 7.572,28.9303 9.9815,37.765 2.8027,10.2768 3.0884,11.235 3.7882,12.7051 0.8851,1.8595 1.3825,1.6361 2.2274,-1.0004 0.8939,-2.7893 1.9367,-7.3358 9.6369,-42.0167 3.384,-15.2411 6.4634,-28.9817 6.8432,-30.5347 3.1417,-12.8475 5.6056,-17.4234 10.9857,-20.4026 5.0591,-2.8015 12.8749,-3.0662 17.9176,-0.6069 4.3433,2.1181 6.5467,5.6703 8.6093,13.8792 0.2143,0.8528 0.9578,4.1166 1.6521,7.2529 1.4824,6.6951 2.6371,11.7343 4.9632,21.6586 2.0276,8.6514 3.0273,13.0172 4.0889,17.8571 1.447,6.5969 3.6578,15.9811 5.6565,24.0095 1.2662,5.0863 1.547,6.0763 1.804,6.3604 0.8209,0.907 2.144,-1.5668 3.8566,-7.2107 0.7623,-2.5123 8.2336,-30.6051 16.2827,-61.2243 1.7053,-6.487 2.3395,-8.7034 3.4064,-11.9048 2.0184,-6.0564 3.7738,-9.1053 6.3653,-11.0557 2.7336,-2.0574 4.7662,-2.4141 15.6501,-2.7468 14.792,-0.4522 38.0735,-0.6696 43.5674,-0.4069 4.6191,0.2208 5.3607,0.4262 7.6017,2.1046 1.388,1.0396 2.2327,1.8985 3.9414,4.0077 1.4079,1.738 1.7121,2.1697 1.7122,2.4293 0,1.1229 0.5149,26.0165 0.6002,29.0271 0.2949,10.402 0.6553,15.2505 1.2215,16.4318 0.1795,0.3746 0.5601,0.4805 2.3891,0.6647 5.155,0.5192 15.6477,0.7975 30.1528,0.7996 12.4377,0 17.8717,-0.1471 20.1425,-0.5522 0.7859,-0.1402 0.933,-0.3409 1.1551,-1.576 0.4331,-2.4082 0.5495,-6.7179 0.6625,-24.5214 0.052,-8.1667 0.1392,-15.2759 0.1973,-16.0564 0.266,-3.5761 0.6269,-4.8823 1.8704,-6.7699 2.3207,-3.5225 6.2579,-5.7081 10.7861,-5.9874 3.1635,-0.1951 17.0633,-0.099 29.0615,0.2021 2.2284,0.056 5.8298,0.1463 8.0032,0.201 6.3941,0.1611 22.4851,0.4872 31.8627,0.6458 13.3132,0.2252 15.031,0.2516 23.2592,0.3581 31.3258,0.4052 37.1462,1.1424 47.3032,5.9907 3.8054,1.8165 6.692,3.4425 9.6609,5.4418 12.1398,8.1756 20.8536,19.9244 26.2337,35.3706 1.1868,3.4071 2.4763,7.936 2.8375,9.9653 0.8716,4.8971 1.4934,15.4683 1.3653,23.2092 -0.063,3.8175 -0.1466,5.2746 -0.4721,8.2533 -0.9779,8.9469 -2.5199,14.725 -5.9329,22.2323 -5.3974,11.8717 -11.0225,19.4549 -18.7208,25.2371 -5.4059,4.0604 -11.7292,7.0981 -20.008,9.6117 -6.283,1.9077 -9.8835,2.3717 -18.4573,2.3789 -4.7658,0 -6.8774,-0.086 -10.4041,-0.4428 -12.0559,-1.2203 -22.4754,-4.8161 -31.6626,-10.927 -7.4743,-4.9715 -14.2685,-11.7542 -19.0107,-18.9786 -6.8342,-10.4115 -11.1139,-23.1212 -12.3963,-36.8146 -0.2921,-3.1186 -0.3823,-5.7836 -0.3265,-9.645 0.055,-3.8228 0.1958,-6.0617 0.5755,-9.1625 1.3562,-11.0767 4.7048,-21.2822 9.7913,-29.8404 2.8198,-4.7445 7.0734,-9.9932 13.2768,-16.3827 4.102,-4.2252 5.7527,-6.4083 5.7794,-7.6438 0.018,-0.8388 -0.6193,-1.1908 -2.1413,-1.1826 -1.1107,0.01 -2.0156,0.2362 -3.2845,0.8355 -2.1242,1.0032 -3.9442,2.4492 -7.6565,6.0828 -3.7534,3.6738 -5.8016,5.4075 -7.1162,6.0236 -0.6204,0.2908 -2.003,0.6077 -3.4078,0.7813 -3.4643,0.4279 -10.4424,0.3875 -16.4001,-0.095 -1.6742,-0.1356 -8.4891,-0.7981 -8.5192,-0.8283 -0.013,-0.013 -0.2731,-1.5523 -0.5787,-3.4215 -0.8354,-5.1099 -1.4198,-7.2203 -2.6765,-9.6665 -1.0008,-1.948 -2.1634,-3.2159 -3.5355,-3.8559 -0.5162,-0.2408 -0.7175,-0.2777 -1.4968,-0.2747 -0.7513,0 -0.9928,0.046 -1.4596,0.2612 -1.4594,0.6724 -1.5377,2.1572 -0.2578,4.889 0.7607,1.6235 1.5746,4.9724 1.7618,7.2491 0.364,4.4278 0.6421,37.427 0.7625,90.486 l 0.064,28.0611 -1.12,1.8007 c -1.4115,2.2694 -1.9171,2.9508 -2.8419,3.8292 -1.8437,1.7513 -4.1912,2.8681 -6.9126,3.2886 -1.3126,0.2029 -3.612,0.1285 -4.9719,-0.1607 -4.2077,-0.8949 -7.8749,-3.6253 -9.8202,-7.3113 -1.3899,-2.6336 -1.6026,-5.4825 -1.964,-26.3064 -0.3711,-21.3846 -0.6953,-28.4234 -1.4087,-30.5851 -0.1384,-0.4193 -0.4399,-0.5741 -1.5005,-0.77 -2.3836,-0.4403 -9.5019,-0.6005 -22.9517,-0.5166 -17.3236,0.1081 -28.9406,0.3935 -29.2594,0.7189 -0.1275,0.1302 -0.2841,1.7719 -0.4,4.1921 -0.2171,4.5342 -0.3158,10.7397 -0.4144,26.0604 -0.056,8.776 -0.1217,16.2489 -0.145,16.6066 -0.023,0.3576 -0.09,1.5056 -0.1489,2.551 -0.3089,5.5082 -1.0523,8.3159 -2.6625,10.0551 -1.3468,1.4547 -5.0348,3.3732 -7.9235,4.1218 -0.9823,0.2546 -1.4143,0.3095 -2.7801,0.3529 -2.6979,0.086 -4.2884,-0.2574 -7.3865,-1.5943 -2.9413,-1.2692 -3.7962,-1.8631 -4.5046,-3.1299 -1.6112,-2.8811 -2.1881,-9.4892 -2.5463,-29.1633 -0.1564,-8.589 -0.4578,-31.634 -0.8014,-61.2744 -0.1271,-10.9615 -0.1275,-28.436 0,-31.3625 0.1952,-4.5051 0.3465,-5.4662 1.3099,-8.3184 1.0406,-3.0808 1.0365,-3.5026 -0.041,-4.1988 -1.6849,-1.089 -2.4142,-0.8712 -4.6842,1.3991 -1.6746,1.6749 -2.6415,3.18 -3.5426,5.5146 -0.8053,2.0863 -1.1461,3.7782 -1.3406,6.654 -0.1029,1.522 -0.3184,2.2102 -0.8984,2.8692 -1.0334,1.1739 -2.5275,1.4679 -5.7595,1.1332 -0.7703,-0.08 -1.4762,-0.1463 -1.5685,-0.1479 -0.1548,0 -0.1711,-0.4591 -0.2087,-5.8303 -0.038,-5.4466 -0.054,-5.8873 -0.2479,-6.7454 -0.3214,-1.4241 -0.7727,-2.1829 -2.0747,-3.4886 -1.1021,-1.1052 -1.9316,-1.7358 -2.6596,-2.0218 -0.8776,-0.3447 -1.9322,0.3492 -2.3982,1.5778 -0.2157,0.5688 -0.2453,0.8036 -0.2394,1.8995 0.01,1.0387 0.054,1.4283 0.2869,2.3009 0.2497,0.9358 0.2856,1.2686 0.329,3.0512 0.055,2.2442 -0.073,3.7117 -0.5772,6.6256 -0.6743,3.8995 -1.6107,7.6208 -4.198,16.6837 -0.9267,3.2463 -2.4119,8.4909 -3.3003,11.6546 -2.7241,9.7007 -3.8921,13.7608 -7.655,26.6106 -2.9068,9.9264 -4.5713,15.7377 -5.9027,20.6082 -3.1063,11.3639 -7.7809,26.933 -11.1735,37.2148 -1.9054,5.7745 -2.3344,6.8066 -3.5407,8.5184 -2.4593,3.4897 -6.4766,6.0492 -10.888,6.937 -3.8999,0.785 -7.6787,0.4168 -11.2704,-1.098 -3.167,-1.3357 -6.2962,-4.1549 -7.5525,-6.8044 -0.9155,-1.9306 -2.2894,-6.5867 -4.8411,-16.4065 -1.1513,-4.4308 -6.8321,-27.2135 -9.6036,-38.5153 -3.848,-15.6918 -4.9608,-19.8243 -6.2769,-23.3093 -1.1862,-3.141 -2.0653,-4.123 -2.944,-3.2888 -0.3876,0.3679 -0.6816,0.9496 -1.0809,2.1383 -0.526,1.5663 -0.9158,3.3566 -2.6467,12.1549 -8.8342,44.9071 -13.2577,64.5819 -15.6545,69.6277 -2.6091,5.4925 -6.8992,8.4996 -13.2946,9.3187 -1.9691,0.2522 -6.3223,0.2565 -7.5445,0.01 -1.2723,-0.2592 -2.2653,-0.611 -3.7305,-1.3217 -3.8308,-1.858 -6.0715,-4.1393 -8.1859,-8.334 -1.5845,-3.1434 -2.5155,-5.8757 -5.0183,-14.7265 -2.0232,-7.155 -4.6921,-16.4517 -9.5059,-33.1132 -3.6227,-12.5386 -12.5021,-43.5609 -14.3887,-50.27 -3.3301,-11.8428 -4.6821,-17.2408 -5.2242,-20.8583 -0.2042,-1.3631 -0.2331,-3.7709 -0.056,-4.7018 0.068,-0.3577 0.2839,-1.3706 0.48,-2.2509 0.6059,-2.7207 0.4967,-3.6153 -0.5681,-4.6524 -0.3772,-0.3675 -0.6551,-0.5393 -1.0649,-0.6584 -1.1167,-0.3247 -2.0601,0.053 -3.336,1.3373 -1.0669,1.0735 -1.5859,1.9081 -2.8112,4.5207 -0.7024,1.4976 -0.9912,2.0158 -1.1406,2.0467 -0.1101,0.023 -3.5089,0.1825 -7.553,0.3551 -15.4849,0.6608 -19.5595,0.9279 -23.1033,1.5144 -4.1355,0.6844 -5.7332,1.8927 -5.7387,4.3401 0,1.1474 0.5079,3.6706 1.7407,8.6034 0.8574,3.4304 1.3283,5.1415 3.841,13.9555 2.779,9.7482 4.7116,16.6416 7.0535,25.16 4.237,15.4118 6.625,23.8035 13.9065,48.8695 5.4258,18.6779 7.5363,26.0371 10.6155,37.0147 0.9337,3.3288 1.9861,6.9978 2.3386,8.1533 2.4231,7.9432 3.8693,10.3792 6.6462,11.1949 1.1693,0.3434 12.0813,0.1385 23.4162,-0.4397 1.0729,-0.055 3.3013,-0.1682 4.9519,-0.2521 9.8334,-0.4998 21.2865,-1.2198 31.8127,-1.9998 1.8157,-0.1345 4.5168,-0.3346 6.0024,-0.4445 17.1441,-1.2682 43.9986,-2.8682 67.2267,-4.0052 2.2559,-0.1104 5.002,-0.2459 6.1025,-0.301 15.1883,-0.7603 37.2803,-1.6162 51.6705,-2.0019 23.1043,-0.6192 37.395,-0.8272 57.1728,-0.8319 32.1736,-0.01 57.3236,0.696 104.7916,2.9323 2.3385,0.1102 7.1329,0.3353 10.6543,0.5002 7.2392,0.3392 12.5151,0.5878 20.208,0.9524 9.0638,0.4295 17.6057,0.9618 30.4621,1.8981 1.128,0.082 3.1313,0.218 4.4518,0.3019 1.3205,0.084 3.4139,0.2185 4.6519,0.2992 7.7431,0.5047 16.8229,0.9721 24.6098,1.2667 7.0793,0.2679 17.6828,0.1337 21.2084,-0.2684 2.6521,-0.3025 3.6239,-0.8118 4.7677,-2.4987 1.6802,-2.478 2.7112,-5.961 8.6768,-29.3117 9.2953,-36.3833 13.4696,-52.9484 17.7223,-70.328 1.4137,-5.7773 5.171,-20.9258 8.3497,-33.6634 6.7501,-27.0485 8.4347,-34.0355 10.2875,-42.6669 1.2791,-5.959 1.4472,-7.1552 1.1763,-8.3728 -0.4123,-1.8533 -1.547,-2.7694 -4.0657,-3.2827 -2.3192,-0.4726 -6.3019,-0.6977 -12.4009,-0.7007 -21.2314,-0.011 -46.3544,-1.4865 -49.0863,-2.8834 -0.6005,-0.3071 -1.2827,-0.9632 -1.7814,-1.7134 -1.7187,-2.5852 -2.3512,-7.0534 -2.3529,-16.6209 0,-5.0422 -0.1991,-6.7492 -0.9277,-7.9888 -0.4251,-0.7231 -2.5534,-2.8701 -3.36,-3.3895 -1.3814,-0.8895 -2.0049,-1.0022 -6.167,-1.115 -1.7607,-0.048 -3.5614,-0.1379 -4.0016,-0.2006 -2.0546,-0.2923 -3.4802,-0.8613 -4.3415,-1.7326 -0.6461,-0.6535 -0.8517,-0.9936 -1.1804,-1.9525 -0.2252,-0.6571 -0.2695,-0.9832 -0.3083,-2.2704 -0.036,-1.1851 -0.01,-1.6401 0.1202,-2.1508 0.4577,-1.7926 1.4845,-2.8092 3.529,-3.4942 1.7234,-0.5774 3.6145,-0.7977 8.6047,-1.0025 2.757,-0.1131 3.6722,-0.2607 4.6966,-0.7576 1.148,-0.5569 3.0581,-2.5176 4.0636,-4.1713 0.8156,-1.3414 1.1394,-3.2031 1.0466,-6.0179 -0.086,-2.5984 -0.453,-3.8421 -1.5833,-5.3614 -0.4217,-0.5668 -2.4234,-2.8805 -3.489,-4.0327 -0.073,-0.079 -7.4967,-0.2908 -14.8597,-0.425 -5.5251,-0.1006 -9.4495,0.1431 -10.3028,0.6399 -0.3473,0.2022 -0.476,0.6029 -0.6407,1.9941 -0.4149,3.5065 -0.5183,9.6691 -0.5804,34.6026 l -0.057,22.9259 -1.7639,1.7542 c -2.5397,2.5254 -2.3629,2.4688 -7.9134,2.5357 -3.8033,0.046 -6.7084,-0.024 -19.8079,-0.4733 -18.333,-0.6294 -27.177,-1.1689 -30.4502,-1.8574 -2.2852,-0.4807 -4.1341,-2.6503 -4.7185,-5.5369 -0.223,-1.1016 -0.1569,-3.0088 0.1442,-4.159 0.6101,-2.3309 1.9678,-4.0001 5.6652,-6.9649 2.0365,-1.633 3.3049,-2.7765 4.2663,-3.8461 2.8527,-3.174 4.4223,-6.6112 5.0825,-11.1306 0.8618,-5.8984 0.2452,-13.1481 -1.5593,-18.3351 -1.3068,-3.7564 -2.8683,-6.3202 -5.3893,-8.849 -1.7131,-1.7182 -2.961,-2.6299 -4.7901,-3.4993 -6.9525,-3.3048 -16.873,-1.7094 -21.8799,3.5187 -3.5441,3.7005 -5.9736,10.466 -6.6029,18.3873 -0.1472,1.8521 -0.063,6.5595 0.1451,8.11 0.5517,4.1123 1.5193,7.4703 2.7366,9.4981 1.2759,2.1252 3.5009,4.4309 8.781,9.0996 2.1358,1.8884 2.7644,2.5574 3.2995,3.5111 1.2329,2.1976 1.1705,4.9281 -0.1645,7.1993 -0.2472,0.4207 -0.7812,1.0699 -1.327,1.6134 -0.7409,0.7378 -1.0733,0.9874 -1.7608,1.3223 -1.7625,0.8584 -3.1157,0.9413 -12.8523,0.7869 -10.2344,-0.1623 -134.4731,-0.149 -159.3634,0.017 -20.7711,0.1385 -26.9781,0.2319 -31.4125,0.4722 -1.6507,0.09 -4.2842,0.1684 -5.8523,0.1753 -3.9361,0.017 -4.5594,-0.137 -6.2589,-1.5515 -1.3956,-1.1616 -1.9537,-1.8879 -2.4041,-3.1288 -0.3029,-0.8344 -0.4772,-2.4424 -0.4174,-3.8501 0.1075,-2.5291 0.6713,-3.3447 5.8827,-8.5082 2.5499,-2.5266 3.4546,-3.5276 4.747,-5.2521 2.0367,-2.7179 3.2828,-5.39 3.9888,-8.5534 0.369,-1.6532 0.5436,-3.1336 0.6799,-5.7659 0.183,-3.5311 -0.066,-7.0543 -0.7191,-10.1602 -1.8602,-8.8522 -6.8246,-14.7827 -13.8433,-16.5375 -1.7942,-0.4486 -3.3538,-0.5937 -5.5904,-0.5202 -4.0062,0.1316 -7.2104,1.0578 -9.9748,2.883 -1.1551,0.7628 -3.4643,3.0352 -4.342,4.273 -1.7031,2.4017 -3.2955,5.6063 -4.0106,8.0707 -0.68,2.3438 -0.8503,4.4793 -0.8498,10.6543 0,4.8894 0.069,6.2669 0.4016,8.0259 0.6985,3.6996 3.7401,9.256 6.6414,12.133 0.4999,0.4957 1.5711,1.4573 2.3804,2.1367 0.8093,0.6795 2.0486,1.8271 2.7541,2.5501 2.9726,3.0467 3.6581,5.1047 2.6755,8.0319 -0.3425,1.0201 -0.8672,2.1008 -1.2871,2.6507 -0.9689,1.269 -3.0889,1.9991 -7.0645,2.4329 -4.3048,0.4698 -6.9505,0.5903 -35.2641,1.6064 -11.6811,0.4192 -18.5701,0.6784 -25.4637,0.9579 -3.2038,0.1299 -10.9812,0.067 -12.4513,-0.1006 -6.6983,-0.7641 -9.0499,-2.6083 -9.068,-7.1117 -0.01,-2.4568 0.5277,-4.0002 1.8418,-5.2878 1.4046,-1.3762 3.2378,-2.0952 6.4139,-2.5155 2.0446,-0.2706 2.9015,-0.4517 4.2923,-0.9068 2.0752,-0.6792 4.1165,-1.7994 5.8237,-3.1959 1.0079,-0.8245 2.7842,-2.6937 3.6275,-3.8172 1.3881,-1.8492 2.722,-4.1615 3.2522,-5.6374 0.718,-1.999 1.0564,-5.2349 1.2342,-11.8026 0.1305,-4.8212 -0.249,-6.5366 -2.4567,-11.1044 -0.9289,-1.922 -1.8207,-3.446 -2.7599,-4.7168 -0.9064,-1.2263 -3.0308,-3.2765 -4.2163,-4.0691 -1.6316,-1.0908 -3.6865,-2.0368 -5.3394,-2.458 -2.3512,-0.5991 -8.1485,-0.9338 -12.4468,-0.7186 -3.7619,0.1883 -4.9791,0.3966 -7.0803,1.2119 l -1.0754,0.4173 0,17.9717 c 0,9.8845 -0.045,21.7533 -0.095,26.3751 -0.1443,13.4114 -0.2909,14.6166 -2.0054,16.4925 -0.8274,0.9053 -1.6891,1.2143 -4.1971,1.5051 -2.481,0.2877 -4.7234,0.3931 -19.4077,0.9119 -13.0395,0.4608 -24.7406,0.9616 -38.5154,1.6485 -12.8692,0.6417 -17.2402,0.6285 -20.258,-0.061 -1.8356,-0.4196 -3.0507,-1.3576 -3.8252,-2.9528 -1.3751,-2.8323 -1.4662,-5.8208 -0.2524,-8.2844 0.4611,-0.936 1.6039,-2.1285 2.4299,-2.5358 0.9907,-0.4884 1.5741,-0.5434 7.0498,-0.6654 27.6855,-0.6169 51.0922,-1.5703 57.914,-2.359 0.9235,-0.1068 1.4464,-0.2323 2.3259,-0.5582 l 1.1346,-0.4205 0,-21.1682 c 10e-4,-11.6425 0.045,-22.9013 0.099,-25.0197 0.3034,-11.881 1.0048,-14.194 4.7538,-15.6754 1.5012,-0.5931 3.0796,-0.7745 8.2006,-0.9421 3.5952,-0.1176 7.3569,-0.091 23.8766,0.1667 l 9.5709,0.1495 2.5339,1.4074 c 3.0168,1.6756 3.3895,1.8963 4.8849,2.8932 4.1677,2.7782 8.0024,6.6121 10.8025,10.8002 1.1342,1.6963 1.8267,2.9133 2.9603,5.2021 1.5801,3.1901 2.1012,4.6494 2.4066,6.7395 0.1308,0.895 0.172,2.282 0.2098,7.066 0.076,9.6499 -0.1785,12.7773 -1.3259,16.2763 -0.9174,2.7978 -2.12,4.9591 -6.1676,11.0846 -3.0393,4.5995 -4.3839,6.8632 -4.3839,7.3802 0,0.3061 0.3893,0.773 0.6446,0.773 0.2995,0 1.1251,-0.3716 1.7142,-0.7717 1.1272,-0.7655 2.4962,-2.097 4.844,-4.7115 l 2.351,-2.6179 9.4732,0 9.4733,0 0.3922,0.4252 c 0.2157,0.2338 1.2895,1.4381 2.3861,2.676 3.1086,3.5091 4.8241,4.902 6.0372,4.902 0.7386,0 1.018,-0.777 0.5859,-1.6296 -0.3332,-0.6577 -1.3096,-2.0343 -2.1435,-3.0223 -1.0121,-1.199 -2.772,-3.8544 -4.1438,-6.2524 -0.6138,-1.073 -2.0807,-3.9008 -3.26,-6.2841 l -2.144,-4.3332 0,-10.2726 c 0,-11.6825 0.051,-12.926 0.614,-15.2245 0.2934,-1.1972 0.7548,-2.334 1.9286,-4.7519 2.5541,-5.2613 5.1831,-8.9963 8.8759,-12.6099 2.5943,-2.5388 5.0086,-4.2655 8.0388,-5.7496 4.5779,-2.242 7.2657,-2.8409 14.3557,-3.1988 9.1136,-0.4599 16.1809,0.5082 21.4824,2.9429 3.1514,1.4472 5.4298,3.0556 8.0849,5.7071 3.8696,3.8644 7.0267,8.6603 8.742,13.2798 1.6455,4.4316 2.4577,8.9669 2.5761,14.3844 0.17,7.7733 -1.3085,15.1623 -4.3637,21.8086 -1.1715,2.5483 -2.4333,4.6116 -4.5295,7.4066 -1.3086,1.7448 -2.191,3.1195 -2.4211,3.7715 -0.1678,0.4755 -0.1056,0.8975 0.1785,1.2114 0.5669,0.6263 2.2427,-0.2495 4.0194,-2.1004 0.3882,-0.4044 1.4378,-1.6469 2.3325,-2.7611 l 1.6267,-2.0258 8.6219,6e-4 8.6218,6e-4 1.4774,1.9361 c 2.6782,3.5098 4.9812,5.7097 7.1234,6.8048 0.9463,0.4838 1.6208,0.6197 2.0941,0.422 1.2439,-0.5198 0.4843,-1.9133 -3.4768,-6.3776 -5.669,-6.3892 -7.771,-11.9148 -8.4623,-22.2442 -0.5445,-8.1368 0.1101,-14.6094 2.0481,-20.2507 1.7211,-5.0098 4.422,-9.3356 8.718,-13.9629 6.5581,-7.0638 12.8697,-9.9406 24.2916,-11.0722 1.754,-0.1738 7.7229,-0.174 9.3037,-4e-4 4.2404,0.4658 7.4729,1.3435 10.6115,2.8814 6.0046,2.9422 10.6659,8.6243 11.8107,14.3973 0.2196,1.1075 0.251,3.8911 0.054,4.7983 -0.4219,1.9439 -1.0562,3.1925 -2.2156,4.3613 -1.4957,1.5079 -2.7676,1.9559 -5.2937,1.8646 -2.6117,-0.094 -4.2131,-0.7678 -5.8994,-2.4811 -0.8878,-0.902 -1.6132,-1.8953 -2.8922,-3.9606 -1.342,-2.1669 -2.1917,-3.2839 -3.338,-4.3875 -1.7722,-1.7062 -3.4395,-2.5375 -6.0387,-3.0108 -0.8076,-0.1471 -1.5307,-0.1826 -3.7515,-0.1843 -2.4496,0 -2.8936,0.023 -4.0516,0.2312 -5.4873,0.9847 -9.6313,3.7714 -12.5255,8.4228 -3.4739,5.5833 -4.9746,14.6945 -3.7806,22.9538 0.9573,6.6217 3.6711,12.2803 7.5448,15.7318 2.5331,2.2569 4.1504,2.9825 7.8794,3.535 2.001,0.2964 5.5262,0.3734 6.9343,0.1515 2.0064,-0.3162 3.5798,-0.924 5.1991,-2.0081 2.2315,-1.494 4.0708,-3.4586 7.3083,-7.8064 2.455,-3.2969 4.3906,-4.8308 6.8934,-5.4626 1.2388,-0.3128 2.8365,-0.2388 3.9692,0.1837 1.3928,0.5196 2.7272,1.5049 3.6029,2.6602 2.4464,3.2277 2.3596,8.815 -0.2138,13.7565 -0.7066,1.3568 -1.56,2.5478 -2.8339,3.9551 -1.5054,1.6632 -1.9165,2.2985 -1.9165,2.9626 0,0.5768 1.0227,0.9367 1.9972,0.7029 0.7305,-0.1753 1.6283,-0.7967 2.6556,-1.8382 1.0827,-1.0976 2.1435,-2.4865 4.4419,-5.8157 0.9497,-1.3756 1.8016,-2.5717 1.8932,-2.658 0.1514,-0.1426 1.1448,-0.1363 10.8708,0.07 5.8874,0.1246 11.2878,0.2402 12.0009,0.257 l 1.2965,0.031 0.1743,0.9003 c 0.096,0.4952 0.3618,1.8683 0.591,3.0512 0.653,3.3715 1.2614,5.1208 1.9958,5.7387 0.9815,0.8259 1.3112,-0.1207 1.4995,-4.3046 0.1233,-2.7403 0.1232,-14.752 0,-27.0943 -0.1975,-19.7329 -0.4116,-23.5576 -1.445,-25.8103 -0.568,-1.2381 -1.3161,-1.6499 -3.0006,-1.6514 -2.1102,0 -3.4143,-0.3122 -4.2112,-1.0019 -0.3137,-0.2716 -0.5857,-0.4092 -0.9215,-0.4666 -0.7694,-0.1314 -4.1466,-0.067 -5.8785,0.1115 -2.3472,0.2423 -4.7963,0.3139 -5.5675,0.1628 -0.9482,-0.1859 -1.6427,-0.5594 -2.344,-1.2606 -1.0637,-1.0637 -1.5839,-2.4286 -1.5806,-4.147 0,-1.1009 0.1438,-1.8508 0.548,-2.9012 0.4287,-1.1142 0.9359,-1.7966 2.5157,-3.3847 l 1.4265,-1.4339 2.7511,0.058 c 1.5131,0.032 13.938,0.1505 27.611,0.2632 13.6729,0.1127 25.2224,0.2285 25.6654,0.2575 l 0.8056,0.053 1.0858,1.3682 c 1.7167,2.1633 2.2018,3.3733 2.1925,5.4698 0,1.0801 -0.037,1.2953 -0.3262,2.1455 -0.8013,2.3598 -2.3653,3.825 -4.5632,4.2749 -0.8488,0.1737 -1.1539,0.1547 -3.4014,-0.2122 -4.023,-0.6568 -11.9768,-0.2537 -13.3759,0.6779 -0.4559,0.3035 -0.6555,0.7684 -0.8266,1.9254 -0.3455,2.3355 -0.4012,4.7404 -0.3882,16.7487 0.022,20.2477 0.4606,41.0752 0.8738,41.4884 0.029,0.029 0.1781,0.021 0.3319,-0.017 0.4401,-0.1082 1.2582,-1.0522 1.713,-1.9767 0.8293,-1.6855 1.1902,-3.1951 1.5737,-6.5819 0.1464,-1.293 0.2951,-2.379 0.3303,-2.4133 0.035,-0.034 4.9261,-0.1585 10.8684,-0.2759 5.9424,-0.1175 11.1085,-0.2298 11.4802,-0.2495 l 0.6759,-0.036 1.8197,2.1125 c 4.246,4.9295 5.8697,6.5253 7.5461,7.4166 0.8932,0.475 2.3467,0.2524 2.4187,-0.3704 0.068,-0.5864 -0.4001,-1.1962 -2.7868,-3.6331 -0.9701,-0.9904 -2.1199,-2.2509 -2.5553,-2.8011 -3.7945,-4.7953 -6.3826,-11.0888 -7.494,-18.223 -0.4232,-2.7165 -0.56,-4.5237 -0.6199,-8.188 -0.1199,-7.3429 0.3643,-10.2374 2.7195,-16.256 4.6901,-11.9849 13.3153,-20.1932 23.3331,-22.2052 4.7953,-0.9631 11.3096,-1.4844 17.1342,-1.3711 4.1745,0.081 5.518,0.2585 7.6837,1.0144 4.5485,1.5876 9.5722,4.8236 13.4378,8.6559 5.9508,5.8997 9.3845,13.9609 10.7812,25.3105 0.6573,5.3417 0.5656,7.7504 -0.5032,13.2053 -1.9182,9.7902 -3.5663,13.8347 -8.1726,20.0547 -1.3041,1.761 -2.2087,3.3038 -2.5637,4.3726 -0.3278,0.9868 -0.3314,1.4832 -0.014,1.8526 0.2056,0.239 0.3099,0.2781 0.7031,0.2632 0.7229,-0.027 1.2327,-0.347 2.324,-1.457 1.5706,-1.5974 1.9649,-2.0837 4.4818,-5.5283 0.9247,-1.2655 1.7135,-2.3372 1.7528,-2.3814 0.058,-0.065 12.6076,0.392 12.6665,0.461 0.01,0.011 0.1357,1.055 0.2811,2.3205 0.1454,1.2655 0.3579,2.7727 0.4723,3.3494 0.4012,2.0226 1.1609,3.761 2.0346,4.656 0.5202,0.5328 1.1835,0.8574 1.3702,0.6706 0.2005,-0.2004 0.282,-1.5853 0.3813,-6.4751 0.1106,-5.4488 0.012,-18.422 -0.2485,-32.813 -0.082,-4.5118 -0.1772,-11.8272 -0.212,-16.2565 -0.077,-9.7564 0.041,-13.1086 0.5286,-15.0516 0.1893,-0.7542 0.2786,-0.9285 1.2697,-2.4801 l 0.8145,-1.2752 15.8563,9e-4 c 24.5424,0 33.8794,0.284 36.3207,1.0992 3.5295,1.1785 7.3363,4.3513 9.6068,8.0068 2.5697,4.1374 3.4612,10.8408 2.2412,16.8539 -0.7583,3.7379 -2.3666,7.0947 -4.448,9.2838 -0.9441,0.993 -1.5731,1.5003 -2.7544,2.2213 -1.8497,1.129 -2.6511,1.8821 -2.6511,2.4912 0,0.5689 0.361,0.9861 1.7643,2.0398 1.7746,1.3324 3.1136,3.3905 4.0346,6.2015 0.8207,2.505 1.1036,4.6133 1.1038,8.2261 0,3.7004 0.1886,4.7199 1.0496,5.6775 1.1074,1.2317 3.4428,1.8737 8.0541,2.2139 3.6261,0.2676 6.0713,0.3557 16.9067,0.6091 21.471,0.5022 32.377,1.0043 36.1144,1.6629 2.7613,0.4866 5.8079,3.2577 7.0108,6.3768 1.4122,3.6621 1.0795,8.8256 -1.2193,18.9213 -0.2756,1.2104 -1.7554,7.1978 -3.2883,13.3053 -1.5329,6.1074 -3.1986,12.8601 -3.7015,15.0059 -1.0328,4.4069 -4.9128,19.9734 -7.8545,31.5126 -10.2878,40.3551 -14.2819,55.8629 -16.2577,63.1251 -1.6945,6.2279 -2.8643,10.7925 -6.3583,24.8098 -3.4573,13.8703 -4.4123,17.6133 -6.3846,25.0243 -0.6862,2.5781 -1.608,6.0606 -2.0486,7.7388 -0.8913,3.3954 -1.2154,4.4188 -1.9323,6.1024 -1.7796,4.179 -4.7115,7.3974 -7.6648,8.4134 -0.7852,0.2702 -2.3468,0.4685 -4.2724,0.5427 -2.1967,0.085 -9.0978,-0.1378 -17.1568,-0.5528 -1.0729,-0.055 -4.2467,-0.2137 -7.0528,-0.352 -2.8061,-0.1384 -6.7677,-0.3404 -8.8035,-0.4489 -2.0358,-0.1086 -4.5793,-0.2436 -5.6522,-0.3 -1.073,-0.056 -2.7161,-0.1477 -3.6515,-0.2027 -0.9354,-0.055 -3.659,-0.2128 -6.0524,-0.3504 -9.8693,-0.5676 -17.5267,-1.0927 -19.6578,-1.3479 -1.4061,-0.1685 -5.5907,-0.3911 -9.3537,-0.4977 -3.7747,-0.1069 -6.5596,-0.2294 -9.1537,-0.4027 -0.8253,-0.055 -1.9057,-0.125 -2.4009,-0.1554 -0.4952,-0.03 -1.9808,-0.1417 -3.3014,-0.2473 -2.9683,-0.2374 -6.2196,-0.4602 -8.6534,-0.5931 -11.6125,-0.634 -15.797,-0.8489 -24.3597,-1.2511 -2.9161,-0.137 -6.27,-0.2956 -7.453,-0.3525 -1.1829,-0.057 -5.167,-0.2373 -8.8535,-0.4009 -5.9107,-0.2622 -8.9705,-0.3935 -18.6574,-0.8005 -1.293,-0.054 -4.6919,-0.1886 -7.553,-0.2983 -2.8611,-0.1098 -6.395,-0.2458 -7.8531,-0.3023 -9.0777,-0.3518 -35.9512,-0.5486 -62.5249,-0.4578 -26.4653,0.09 -34.5336,0.2023 -39.9659,0.5544 -3.2817,0.2128 -13.7109,0.6494 -21.6086,0.9047 -11.4182,0.3691 -21.2272,0.7169 -25.4601,0.9028 -9.3162,0.409 -12.1943,0.5474 -17.7071,0.8514 -5.1585,0.2844 -10.6483,0.6482 -15.0059,0.9943 -12.3193,0.9785 -18.9893,1.4435 -25.8603,1.8031 -1.5957,0.084 -3.6665,0.1968 -4.6019,0.2518 -9.6288,0.566 -15.6369,0.9387 -22.6089,1.4026 -6.1817,0.4112 -10.5783,0.7235 -17.507,1.2435 -6.8471,0.5138 -10.423,0.7713 -14.6058,1.0518 -3.3581,0.2253 -4.48,0.2968 -15.7563,1.0046 -4.3742,0.2746 -9.2812,0.5904 -10.9043,0.7018 -3.5674,0.2448 -6.3397,0.3123 -7.9525,0.1936 z m 358.8825,-12.1991 c 0.458,-0.2563 -1.6521,-0.5189 -2.9081,-0.362 -0.9954,0.1244 -1.0461,0.363 -0.1008,0.4745 0.6765,0.08 2.8078,0 3.0089,-0.1125 z m -364.5254,-5.4009 c 0.099,-0.4383 -0.01,-1.6528 -0.2166,-2.4378 -0.061,-0.2299 -0.4644,-1.5884 -0.8971,-3.0189 -1.5091,-4.9892 -4.6444,-15.8356 -9.861,-34.1136 -5.8178,-20.3846 -6.8646,-24.0176 -10.0455,-34.8639 -3.3385,-11.3835 -4.7794,-16.4945 -6.0498,-21.4585 -3.5313,-13.7987 -5.8071,-21.5554 -6.895,-23.5006 -0.4447,-0.7952 -0.8429,-1.281 -0.9805,-1.1959 -0.1496,0.092 -0.023,1.1506 0.3288,2.7377 0.4501,2.0334 1.3174,5.1734 3.4126,12.3549 3.1304,10.7299 3.9252,13.5873 6.7342,24.2097 3.835,14.5023 7.3997,27.1244 11.5586,40.9271 2.0423,6.7782 3.2811,11.1203 4.0988,14.367 1.0383,4.1223 3.2138,11.4095 5.6677,18.9854 2.0179,6.2298 2.6481,7.8295 2.9613,7.5164 0.049,-0.049 0.1317,-0.2781 0.1835,-0.509 z m 63.015,-29.5794 c 1.9998,-0.9664 3.1431,-1.7648 4.5555,-3.1812 2.0758,-2.0816 3.538,-4.6187 4.3539,-7.5538 0.9651,-3.4725 4.988,-22.3427 10.1104,-47.4251 2.9354,-14.3736 7.9796,-39.5857 8.1434,-40.7022 0.2034,-1.387 0.1685,-2.8128 -0.081,-3.3197 -0.3172,-0.644 -1.1566,-0.9112 -1.5685,-0.4992 -0.6718,0.6717 -1.4727,3.3082 -2.7666,9.107 -0.9554,4.2816 -2.4969,11.8113 -7.6905,37.565 -6.423,31.8494 -6.8815,34.0662 -8.05,38.9155 -1.1254,4.6707 -2.1984,7.8903 -3.2453,9.7382 -1.065,1.8798 -2.0457,2.8059 -4.3028,4.0633 -2.2508,1.2539 -2.8595,1.8414 -2.7136,2.6193 0.071,0.3791 0.5465,0.9726 1.0043,1.2539 0.411,0.2525 0.6586,0.1886 2.2509,-0.581 z m 360.9936,-0.2958 c 7.0913,-0.527 12.4544,-1.7006 18.2573,-3.9952 16.946,-6.7009 28.4497,-20.4639 33.9465,-40.6138 1.1477,-4.2074 2.4983,-11.0281 2.9613,-14.956 0.4245,-3.6002 0.4251,-9.315 0,-14.2556 -0.7102,-8.2864 -2.6964,-17.8084 -5.1041,-24.4699 -5.4092,-14.9656 -17.1362,-28.3244 -30.905,-35.2052 -2.8578,-1.4282 -4.9999,-2.2878 -8.0532,-3.2318 -4.3114,-1.3331 -6.5897,-1.8669 -7.9734,-1.8681 -1.004,0 -1.3185,0.1087 -1.4883,0.5187 -0.1051,0.2536 -0.095,0.3295 0.075,0.5573 0.5748,0.7698 2.4855,1.6682 6.3352,2.9786 4.2968,1.4626 6.6163,2.4049 9.7036,3.9422 1.9035,0.9478 2.1277,1.0695 3.8518,2.0912 10.5694,6.2631 18.2478,15.3073 24.0104,28.281 4.4318,9.9776 5.9494,18.4483 5.9496,33.2087 0,14.9946 -1.6059,22.0719 -7.9004,34.8138 -2.9982,6.0693 -4.7577,8.427 -10.6143,14.2234 -3.1965,3.1638 -5.0726,4.7859 -7.7606,6.7104 -6.0117,4.304 -12.5005,6.6971 -21.3417,7.871 -1.9656,0.261 -3.6987,0.4306 -7.7831,0.7617 -3.8207,0.3098 -5.4972,0.6299 -5.9085,1.1282 -0.3463,0.4195 0.2441,1.163 1.1275,1.4198 1.2122,0.3524 4.6023,0.3876 8.6125,0.09 z m -290.1088,-1.9471 c 2.3551,-0.417 5.5586,-2.1307 7.4434,-3.9817 2.4268,-2.3833 4.0423,-6.1562 7.4168,-17.3217 0.7747,-2.5631 4.0342,-13.7686 16.6455,-57.2228 6.125,-21.1045 10.4322,-35.9018 11.8374,-40.6662 0.4381,-1.4855 0.8685,-3.1287 0.9563,-3.6514 0.6513,-3.8745 0.2988,-7.3602 -0.8689,-8.5903 -0.4577,-0.4823 -0.9025,-0.6567 -1.2499,-0.4904 -0.6407,0.3068 -1.0676,1.7668 -1.1779,4.0287 -0.032,0.6602 -0.1252,1.5831 -0.2067,2.0508 -1.1229,6.4486 -10.1588,39.3715 -17.4622,63.6253 -2.5959,8.6206 -3.2335,10.7922 -5.3462,18.2073 -1.0739,3.769 -2.9144,10.229 -4.0901,14.3557 -2.1686,7.612 -4.2936,14.7836 -5.054,17.0568 -0.8987,2.6867 -2.2715,5.0405 -3.9745,6.8148 -1.6724,1.7424 -2.974,2.5584 -4.9283,3.0898 -1.8945,0.5151 -2.5438,1.0059 -2.3017,1.7396 0.1324,0.4011 0.5752,0.8405 0.9643,0.9569 0.4033,0.1207 0.7098,0.1204 1.3967,0 z m 174.6417,-4.1912 c 1.4454,-0.3696 2.9778,-1.2208 3.9522,-2.1953 1.3513,-1.3512 2.5148,-3.8377 2.7395,-5.8539 0.2455,-2.2044 0.1156,-35.5307 -0.2692,-69.0369 -0.4634,-40.3521 -0.7074,-47.7782 -1.6613,-50.5554 -0.544,-1.584 -2.4553,-3.416 -3.5637,-3.416 -0.2224,0 -0.4177,0.083 -0.5806,0.2455 -0.3241,0.3241 -0.3241,0.886 0,2.0919 1.0704,3.9804 1.549,13.1334 1.8573,35.5221 0.1208,8.7661 0.2898,48.7451 0.3014,71.2839 l 0.01,15.9563 -1.6815,1.4758 c -2.4629,2.1614 -3.6324,3.4396 -3.6324,3.9699 0,0.2699 0.2014,0.5259 0.5002,0.6358 0.3279,0.1206 1.3083,0.061 2.0297,-0.1237 z m -83.8266,-0.9637 c 0.7707,-0.198 2.0479,-0.8298 2.7517,-1.3612 0.2956,-0.2232 0.9157,-0.7798 1.378,-1.2369 1.2847,-1.2702 1.6056,-2.108 1.857,-4.8469 0.1397,-1.5217 0.1535,-7.3491 0.078,-32.613 -0.048,-15.9118 0.014,-20.1179 0.3142,-21.5191 0.1483,-0.6918 0.5675,-1.1498 1.2245,-1.3378 1.8149,-0.5192 3.3267,-0.5579 25.4745,-0.6517 22.3513,-0.095 26.7673,-0.1913 29.8118,-0.6519 1.2436,-0.1882 1.6421,-0.3083 1.9757,-0.5959 l 0.2752,-0.2373 -0.2092,-0.2832 c -0.2941,-0.398 -0.7648,-0.6958 -1.2108,-0.7661 -4.4996,-0.709 -48.8016,-0.8311 -57.6985,-0.159 -1.1926,0.09 -1.562,0.162 -2.5385,0.4944 -0.6285,0.214 -1.1672,0.4134 -1.1969,0.4431 -0.03,0.03 0,5.3326 0.068,11.784 0.2771,26.6264 0.2463,42.3264 -0.091,46.1625 -0.082,0.932 -0.134,1.1316 -0.4211,1.614 -0.4242,0.7127 -1.4884,1.7742 -2.2243,2.2185 -1.651,0.997 -2.5095,1.9018 -2.4905,2.6248 0.011,0.4054 0.3022,0.8226 0.6858,0.9812 0.3357,0.1389 1.5362,0.1046 2.1864,-0.062 z m 195.3009,-14.2981 c 5.6353,-0.5832 10.847,-2.3611 14.9472,-5.0989 1.8982,-1.2674 3.2664,-2.4148 5.3092,-4.4523 4.2799,-4.2687 6.9989,-8.34 9.0857,-13.6043 1.9494,-4.9179 2.9837,-9.9465 3.5298,-17.1602 0.1903,-2.5141 0.1603,-9.4817 -0.052,-11.9548 -0.7608,-8.8846 -2.7488,-17.4499 -5.2625,-22.6739 -2.8984,-6.0235 -8.8584,-13.29 -13.3897,-16.3249 -6.4735,-4.3359 -15.7507,-6.8473 -24.331,-6.5867 -8.3589,0.2539 -14.3417,2.0336 -19.7024,5.8609 -2.8137,2.0089 -6.2302,5.3615 -8.4196,8.2621 -5.0381,6.6748 -7.8914,14.6668 -8.84,24.7599 -0.5301,5.6407 -0.3949,12.6023 0.3552,18.2875 2.4651,18.6828 11.7628,32.0506 26.3027,37.8167 6.2343,2.4724 13.9066,3.5478 20.4669,2.8689 z m -32.7774,-3.3454 c 0.344,-0.344 0.3613,-0.8268 0.05,-1.3985 -0.5427,-0.9971 -2.4913,-3.4821 -5.1835,-6.6103 -6.2925,-7.3117 -10.428,-16.2804 -12.2101,-26.4803 -0.8993,-5.1471 -1.2209,-9.9744 -1.1248,-16.887 0.1003,-7.21 0.4055,-9.3448 2.104,-14.7152 1.2586,-3.9794 2.2237,-6.3959 3.7718,-9.4444 4.3644,-8.5943 10.7791,-15.5631 17.5234,-19.0369 0.5741,-0.2957 1.7603,-0.8199 2.636,-1.165 2.2649,-0.8923 3.3026,-1.5638 3.6579,-2.3672 0.3681,-0.8322 -0.099,-1.1965 -1.5154,-1.181 -1.481,0.016 -3.6982,0.6813 -5.8309,1.7489 -2.3528,1.1779 -5.0652,3.0496 -7.7424,5.3428 -1.6703,1.4306 -4.8999,4.6608 -6.2886,6.2898 -5.8695,6.8848 -9.1118,13.9858 -10.6952,23.4238 -1.1146,6.6433 -1.3597,16.6284 -0.5981,24.3597 1.0927,11.0925 4.3336,19.9355 10.229,27.9111 2.8896,3.9092 6.962,8.2182 9.1275,9.6578 1.0987,0.7304 1.7411,0.9001 2.0893,0.5519 z m -331.7527,-7.1667 c 0.3654,-0.2363 0.6466,-0.903 0.6466,-1.5331 0,-1.1218 -1.44,-6.9449 -4.0752,-16.4793 -3.7502,-13.5692 -5.6224,-20.5085 -11.5883,-42.9536 -4.9693,-18.6958 -5.9723,-22.5402 -6.9706,-26.7175 -1.0206,-4.2711 -1.5254,-5.9265 -2.442,-8.0093 -1.419,-3.2242 -3.4565,-5.4203 -5.4561,-5.8808 -0.6547,-0.1508 -1.8881,-0.1313 -2.4612,0.039 -0.6487,0.1927 -0.9401,0.4684 -0.9401,0.8897 0,0.6485 0.735,1.4821 2.7778,3.1502 0.5631,0.4599 1.2513,1.1352 1.5291,1.5006 0.679,0.893 1.3791,2.3695 1.9279,4.0659 0.2492,0.7703 2.0132,7.2529 3.9201,14.4057 1.9068,7.1528 4.7042,17.6195 6.2164,23.2592 1.5122,5.6398 4.0774,15.2061 5.7005,21.2585 6.524,24.3282 7.8147,28.8199 9.078,31.5919 0.3487,0.7652 0.86,1.4332 1.2076,1.5776 0.2447,0.1017 0.6208,0.035 0.9295,-0.1646 z m 72.9268,-7.9118 c 0.1936,-0.092 0.4845,-0.35 0.6465,-0.5737 0.3332,-0.46 0.3335,-0.433 -0.026,-2.5879 -0.7398,-4.4411 -2.2806,-11.3162 -6.3838,-28.4841 -3.7716,-15.781 -4.8319,-20.3452 -7.9243,-34.1136 -1.1555,-5.1445 -2.4395,-10.7856 -2.8532,-12.5357 -2.8729,-12.1511 -4.6314,-16.5614 -7.3878,-18.5282 -1.3677,-0.976 -3.2938,-1.6491 -4.7192,-1.6491 -0.9522,0 -1.3981,0.143 -1.7195,0.5516 -0.6802,0.8648 0.3123,2.2298 2.5843,3.554 0.9635,0.5616 2.2406,1.8263 2.7742,2.7471 0.5754,0.9932 1.2249,2.5598 1.8088,4.3631 1.2638,3.9032 2.474,8.6852 8.1119,32.0514 3.959,16.4082 8.0932,33.4207 10.5995,43.6174 2.8753,11.6978 2.6796,11.0361 3.4084,11.5272 0.4024,0.2712 0.611,0.2829 1.0797,0.061 z m 388.1495,-18.2717 c 0.3287,-0.6341 0.1843,-1.7694 -0.2251,-1.7694 -0.1995,0 -0.3717,0.7777 -0.3025,1.367 0.1073,0.9153 0.218,0.9997 0.5276,0.4024 z m 2.8328,-10.0593 c 0.4864,-1.1224 0.8068,-2.5101 0.8729,-3.7803 0.032,-0.6137 0.027,-1.1954 -0.01,-1.2928 -0.064,-0.1661 -0.076,-0.1651 -0.1955,0.015 -0.775,1.1676 -1.4598,4.0472 -1.3025,5.4771 0.078,0.7118 0.1716,0.6502 0.635,-0.4194 z m -289.8983,-23.6728 c 0.472,-1.4281 0.5949,-4.7687 0.5922,-16.1064 0,-20.0291 -0.4153,-26.2167 -1.9299,-29.0826 -0.6159,-1.1655 -2.2038,-2.2988 -3.2515,-2.3206 -0.3749,-0.01 -0.4854,0.037 -0.6989,0.2855 -0.2294,0.2666 -0.2487,0.3554 -0.2026,0.9304 0.041,0.5146 0.1553,0.8394 0.5987,1.706 0.3013,0.5887 0.6202,1.363 0.7087,1.7207 0.6375,2.5755 0.9831,7.8393 1.4187,21.6085 0.2911,9.2036 0.6408,17.3141 0.8519,19.7579 0.052,0.6052 0.095,1.2038 0.096,1.3301 0,0.1263 0.1136,0.3424 0.2514,0.4801 0.2187,0.2187 0.3236,0.2468 0.8254,0.2206 l 0.5748,-0.03 0.1653,-0.5002 z m -264.773,-1.7432 c 0.1224,-0.3855 -0.4156,-2.9473 -1.451,-6.9102 -1.3339,-5.1052 -5.4317,-19.0299 -5.9174,-20.108 -0.1773,-0.3936 -0.2133,-0.425 -0.2855,-0.2501 -0.3653,0.8839 0.2053,4.1304 1.8989,10.8043 2.1118,8.3216 4.0191,14.5523 4.8801,15.9419 0.4232,0.683 0.7601,0.884 0.8749,0.5221 z m 560.7141,-0.1337 c 0.9272,-1.2157 2.2719,-5.2063 1.8848,-5.5934 -0.2008,-0.2007 -0.5042,0.1846 -1.0772,1.3679 -0.9947,2.054 -1.6228,4.5518 -1.1447,4.5518 0.049,0 0.2002,-0.1469 0.3371,-0.3263 z m 5.3237,-19.3405 c 0.2029,-0.4856 0.1816,-1.3678 -0.039,-1.6409 -0.1695,-0.2094 -0.1872,-0.2119 -0.3251,-0.046 -0.1013,0.122 -0.1458,0.4232 -0.1458,0.9857 0,1.2022 0.1912,1.4648 0.5104,0.7009 z m -182.4328,-13.6412 c 3.3679,-0.24 4.2791,-0.4744 3.3512,-0.8621 -1.6741,-0.6995 -9.0407,-1.4329 -16.1063,-1.6036 -4.8301,-0.1166 -6.5526,0.2067 -6.5526,1.23 0,0.8482 0.9566,1.1612 4.0588,1.3283 2.0562,0.1108 13.3579,0.042 15.2489,-0.093 z m 185.9351,-0.4667 c 0.3373,-0.8072 0.2426,-1.7379 -0.1851,-1.8202 -0.217,-0.042 -0.3287,0.3454 -0.3152,1.0921 0.02,1.0877 0.2252,1.3866 0.5003,0.7281 z m 5.2423,-22.0225 c 0.3162,-0.7129 0.8543,-2.3639 1.1525,-3.5361 0.3976,-1.5633 0.9424,-4.2275 0.8442,-4.1287 -0.1599,0.1608 -1.4757,3.0804 -1.7824,3.9549 -0.1673,0.4768 -0.3742,1.2064 -0.46,1.6214 -0.1714,0.8299 -0.2123,2.5637 -0.06,2.5637 0.052,0 0.1902,-0.2139 0.3061,-0.4752 z m -586.7348,-13.3257 c 1.9859,-0.2191 8.7605,-0.4263 21.3585,-0.6535 10.0755,-0.1817 16.1115,-0.3234 19.3077,-0.4535 7.7299,-0.3145 11.8216,-0.7492 13.0552,-1.3872 0.2781,-0.1438 0.3502,-0.2408 0.3502,-0.4714 0,-0.2318 -0.071,-0.3256 -0.3502,-0.4652 -0.3895,-0.1946 -1.4737,-0.2341 -2.1508,-0.078 -1.7905,0.412 -8.295,0.7439 -20.6583,1.0543 -20.7806,0.5217 -35.1303,1.2893 -36.2958,1.9416 -0.147,0.082 -0.135,0.1072 0.094,0.1941 0.2399,0.091 1.3239,0.2637 2.1887,0.3483 0.7598,0.074 2.2939,0.06 3.1012,-0.029 z m 65.6602,-3.7942 c 0.8117,-0.3696 0.7424,-0.014 0.8607,-4.4137 0.1399,-5.1995 0.2723,-11.6435 0.4555,-22.1588 0.2715,-15.587 0.5167,-23.8391 0.9052,-30.4621 0.1864,-3.1777 0.2954,-4.1133 0.5558,-4.767 0.1128,-0.2834 0.1905,-0.6436 0.1725,-0.8003 -0.032,-0.2839 -0.035,-0.285 -0.7111,-0.2694 -0.4318,0.01 -0.7678,0.074 -0.9241,0.1765 -0.5083,0.3331 -0.7623,1.1553 -0.9449,3.0592 -0.2666,2.7787 -0.3343,6.1831 -0.6061,30.5121 -0.1331,11.9148 -0.3127,18.8161 -0.6038,23.2092 -0.1907,2.8772 -0.3189,3.5485 -0.7451,3.9022 -0.4488,0.3725 -0.6878,1.3547 -0.4416,1.8148 0.2655,0.4961 1.1763,0.5847 2.027,0.1973 z m 385.5256,-2.079 c 0.183,-0.183 -0.3412,-0.4621 -0.9654,-0.5138 -0.8741,-0.073 -1.5091,0.3306 -0.9166,0.582 0.3026,0.1284 1.7374,0.076 1.882,-0.068 z m -7.3842,-0.098 c 0.4428,-0.073 0.4843,-0.2015 0.1,-0.309 -0.3656,-0.1023 -4.0479,-0.099 -4.6518,0 -0.527,0.09 -0.6234,0.2333 -0.2001,0.2974 0.4515,0.068 4.3462,0.075 4.7519,0.01 z m -219.0621,-1.0248 c 0.888,-0.1712 -1.5123,-0.2615 -6.9528,-0.2615 -5.2531,0 -7.4724,0.086 -6.6026,0.2555 0.4877,0.095 13.0641,0.1007 13.5554,0.01 z m 247.7411,-0.5749 c 0.4201,-0.5341 0.7192,-1.778 0.8267,-3.4381 0.2473,-3.8184 -0.2135,-23.0699 -0.7244,-30.262 -0.2752,-3.8749 -0.5397,-4.798 -0.7863,-2.744 -0.3599,2.9987 -0.5447,10.2565 -0.5523,21.7015 -0.01,10.242 0.034,11.6653 0.3938,13.7375 0.1303,0.7503 0.3529,1.2685 0.5448,1.2685 0.05,0 0.1837,-0.1185 0.2977,-0.2634 z m -159.1559,0.061 c 3.2764,-0.1339 4.4798,-0.2845 4.0766,-0.5101 -0.9431,-0.5278 -19.2591,-0.4057 -20.5781,0.1371 -0.2454,0.101 -0.2379,0.1084 0.195,0.1915 1.2685,0.2435 11.8958,0.3619 16.3065,0.1815 z m 43.1666,-0.2717 c 0.1565,-0.088 0.1287,-0.119 -0.2096,-0.2365 -0.8178,-0.2842 -4.3108,-0.1258 -4.0035,0.1815 0.2252,0.2252 3.825,0.2722 4.2131,0.055 z m 72.4467,-4.3897 c 1.6405,-1.229 4.3669,-4.4733 6.1679,-7.3396 0.9329,-1.4847 2.3521,-4.3319 2.7144,-5.4457 0.2797,-0.8598 0.5207,-2.1257 0.4233,-2.2231 -0.2365,-0.2365 -0.8019,0.5736 -2.0696,2.9653 -1.5413,2.9078 -3.1429,5.3615 -5.3838,8.2482 -1.871,2.4101 -2.7396,3.782 -2.5691,4.0578 0.098,0.1593 0.2062,0.1197 0.7169,-0.2629 z m -319.8264,-0.7672 c 0.3961,-0.2206 1.9227,-1.5985 2.5666,-2.3168 1.4255,-1.5901 2.557,-3.3386 4.0174,-6.208 2.5144,-4.9405 4.4446,-10.6909 5.0706,-15.1061 0.1946,-1.3719 0.1629,-5.7634 -0.054,-7.553 -0.5918,-4.8733 -2.0196,-9.8254 -3.9324,-13.6395 -0.9673,-1.9286 -2.5926,-4.2129 -4.9942,-7.0187 -2.8241,-3.2993 -5.6423,-5.8863 -6.0109,-5.5177 -0.1518,0.1519 0.7545,1.3022 2.6119,3.3154 2.7173,2.9449 4.6478,5.7322 6.4176,9.2655 2.4466,4.8845 3.6919,8.9811 4.1861,13.771 0.1804,1.7478 0.2088,5.2873 0.055,6.8412 -0.4236,4.2798 -1.6833,8.4907 -3.7995,12.7018 -1.2399,2.4673 -2.2281,4.0654 -4.9843,8.0603 -1.1333,1.6428 -1.9207,3.1859 -1.7591,3.4474 0.074,0.1202 0.3517,0.1008 0.6096,-0.043 z m 230.6789,-1.5471 c 0.1239,-1.4787 -0.032,-17.9903 -0.2577,-27.2858 -0.2562,-10.558 -0.3111,-21.5789 -0.1171,-23.5094 0.2007,-1.9965 0.3499,-2.5293 0.9268,-3.3109 0.2712,-0.3674 0.4931,-0.7069 0.4931,-0.7544 0,-0.1346 -0.4701,-0.1016 -0.8576,0.06 -1.071,0.4474 -1.3291,3.3821 -1.5398,17.5103 -0.3564,23.8999 -0.1794,34.7349 0.6105,37.3713 0.1155,0.3856 0.4145,0.7939 0.5814,0.7939 0.048,0 0.1201,-0.3939 0.1604,-0.8754 z m -142.7301,0.1575 c 0.2575,-0.1748 1.076,-0.929 1.8188,-1.6762 4.9991,-5.0281 8.0685,-10.5384 9.4492,-16.9636 0.7046,-3.2787 0.9884,-6.1515 0.9884,-10.004 0,-5.3459 -0.6768,-9.9203 -2.087,-14.1056 -1.8684,-5.5454 -5.953,-11.7337 -9.9513,-15.0764 -1.2133,-1.0144 -2.0685,-1.5786 -3.4887,-2.3015 -1.157,-0.589 -1.7133,-0.7242 -1.7133,-0.4162 0,0.2715 1.2757,1.4372 2.9084,2.6577 0.8488,0.6346 1.8382,1.4209 2.1985,1.7475 5.3009,4.8041 9.5117,13.6604 10.7658,22.6426 0.1311,0.9392 0.1755,1.9478 0.1782,4.0516 0,2.6309 -0.013,2.8983 -0.2769,4.4017 -1.5452,8.8145 -4.3048,16.0938 -7.8126,20.6082 -0.2565,0.3302 -0.9749,1.1188 -1.5964,1.7525 -1.1583,1.181 -1.7978,2.0223 -1.9557,2.5727 -0.079,0.2767 -0.056,0.4267 0.066,0.4267 0.022,0 0.251,-0.143 0.5085,-0.3177 z m -35.2887,-2.197 c 0.3092,-0.5777 -0.1671,-1.3435 -1.9447,-3.1267 -1.7884,-1.794 -2.9123,-3.4197 -4.2543,-6.1538 -1.773,-3.612 -2.839,-7.2334 -3.6252,-12.3144 -0.3156,-2.0399 -0.315,-5.0366 0,-7.1028 0.3065,-2.0017 1.0387,-5.6455 1.475,-7.3414 0.9511,-3.6962 2.2774,-6.4936 4.1797,-8.815 0.3156,-0.3852 1.7331,-1.8708 3.1501,-3.3013 3.0996,-3.1293 3.6503,-3.8517 2.9364,-3.8515 -1.0275,3e-4 -3.5101,1.9983 -5.7615,4.6371 -2.1642,2.5365 -3.7293,4.8462 -5.0601,7.4676 -2.5966,5.1147 -2.9074,6.6821 -2.9064,14.6559 0,5.2951 0.2018,7.9874 0.7571,10.1341 0.8807,3.4042 3.6076,8.2394 6.8043,12.065 2.1956,2.6275 3.8411,3.8079 4.2482,3.0472 z m 86.9896,0.068 c 0.1586,-0.4135 -0.5648,-1.4947 -2.3132,-3.4575 -1.7622,-1.9783 -2.8407,-3.5969 -3.9465,-5.9229 -4.4939,-9.4525 -4.673,-23.475 -0.419,-32.7905 1.0381,-2.2731 2.0481,-3.8101 3.8284,-5.8255 1.122,-1.2702 1.7065,-2.1924 1.6657,-2.6279 -0.093,-0.9902 -1.8424,0.2955 -3.7001,2.7189 -2.2184,2.8942 -4.4577,6.9828 -5.3175,9.7087 -0.7162,2.271 -0.8647,3.7961 -0.933,9.5812 -0.076,6.447 0.1035,9.7565 0.6788,12.5049 1.046,4.9972 4.4693,11.6446 7.5581,14.6762 0.9037,0.8869 1.1336,1.0726 1.6855,1.3618 0.4734,0.248 1.1304,0.2873 1.2128,0.073 z m 40.6469,-2.4189 c 0.5531,-0.7032 0.9511,-2.9525 0.8738,-4.9382 -0.075,-1.9314 -0.278,-2.4904 -0.718,-1.9789 -0.4533,0.5271 -0.7611,2.5001 -0.7843,5.0288 -0.015,1.6791 0.046,2.1522 0.28,2.1522 0.077,0 0.2343,-0.1188 0.3485,-0.2639 z m 99.7882,-2.0009 c 0.1053,-0.2745 -0.3009,-0.9526 -1.0269,-1.714 -0.813,-0.8526 -1.075,-0.9354 -0.9747,-0.3083 0.1095,0.6844 0.456,1.3573 0.9187,1.7838 0.4729,0.4358 0.9655,0.5443 1.0829,0.2385 z m 49.9703,-9.5008 c 0.7692,-1.8588 1.0334,-3.0004 1.3514,-5.8414 0.4057,-3.6243 0.452,-8.6492 0.1106,-12.0048 -0.7553,-7.4252 -2.9766,-14.0635 -6.31,-18.8575 -1.2759,-1.8349 -2.2025,-2.8217 -5.5376,-5.897 l -0.4398,-0.4055 0.3025,0.4502 c 0.1664,0.2476 1.1563,1.6716 2.1998,3.1644 4.3442,6.2147 6.5023,10.619 7.7876,15.8932 0.8285,3.3991 1.0818,5.774 1.0886,10.204 0.01,4.1939 -0.1987,6.8135 -0.9479,12.1048 -0.4359,3.079 -0.4142,3.1443 0.3948,1.1896 z m -56.1014,-5.1661 c 0.2067,-0.4899 0.1806,-1.5257 -0.044,-1.7472 -0.174,-0.1715 -0.1869,-0.1709 -0.3251,0.016 -0.1472,0.1985 -0.2075,1.5746 -0.083,1.8984 0.099,0.2577 0.3053,0.1815 0.4523,-0.1668 z m 0.091,-12.6875 c 1.3227,-4.4616 2.9043,-10.6232 2.763,-10.7645 -0.056,-0.056 -1.2762,2.1401 -1.613,2.9016 -0.6904,1.5611 -1.2369,4.0959 -1.5459,7.17 -0.1134,1.128 -0.2311,2.2292 -0.2617,2.4472 -0.031,0.2181 -0.032,0.3723 0,0.3427 0.03,-0.03 0.3263,-0.9732 0.6595,-2.097 z m 139.1281,-5.985 c 0.125,-0.3506 0.2954,-1.0253 0.3788,-1.4992 0.2319,-1.3191 0.03,-2.0015 -0.4602,-1.5577 -0.457,0.4136 -0.8489,2.6292 -0.5989,3.3865 0.1807,0.5476 0.4067,0.4381 0.6803,-0.3296 z m -235.1599,-3.4165 c 1.815,-0.9126 2.9965,-2.7663 2.9892,-4.6901 0,-0.6833 -0.2634,-1.7854 -0.5623,-2.3762 -0.2804,-0.5541 -0.6899,-1.0116 -0.8037,-0.8978 -0.037,0.037 -0.1044,0.6416 -0.1488,1.3426 -0.1018,1.6056 -0.235,2.3547 -0.6093,3.4254 -0.3705,1.0601 -0.4554,1.2254 -1.2399,2.4136 -0.8985,1.3608 -0.8746,1.4107 0.3748,0.7825 z m 99.7558,-2.4828 c 0.5819,-0.6441 1.7412,-2.7637 1.6542,-3.0246 -0.05,-0.1511 -1.1761,0.7158 -1.7406,1.3406 -0.7284,0.806 -0.9567,1.4859 -0.6705,1.9961 0.102,0.1819 0.4344,0.045 0.7569,-0.3121 z m 135.1876,-3.5734 c 0.3308,-0.7917 0.073,-1.9289 -0.7149,-3.1554 -0.3647,-0.5675 -0.6458,-0.8987 -0.6458,-0.7607 0,0.021 0.115,0.4176 0.2555,0.8812 0.3009,0.993 0.6411,2.5319 0.6433,2.9106 0,0.6442 0.2203,0.7025 0.4619,0.1243 z m -130.8716,-1.6223 c 0.7031,-0.5241 1.9098,-2.1039 1.7382,-2.2755 -0.1336,-0.1336 -0.4662,0.081 -1.0567,0.6816 -0.3375,0.3433 -0.6991,0.7367 -0.8038,0.8742 -0.1945,0.2558 -0.5186,0.8466 -0.5186,0.9454 0,0.1358 0.2959,0.032 0.6409,-0.2257 z m 81.51,-1.3449 c 0.6702,-0.721 1.9023,-2.3998 2.1447,-2.9226 0.2131,-0.4592 0.2182,-0.51 0.069,-0.6752 -0.3667,-0.4052 -1.3143,-0.1054 -2.0442,0.6467 -0.7392,0.7617 -1.047,1.6701 -0.9315,2.7487 0.082,0.7657 0.2077,0.7991 0.7624,0.2024 z m 47.73,-2.201 c -0.1311,-0.5669 -0.8677,-1.9013 -1.3269,-2.4037 -0.518,-0.5667 -1.1102,-0.9297 -1.3604,-0.8336 -0.2002,0.077 -0.1776,0.5535 0.044,0.916 0.4768,0.7819 2.4227,2.7151 2.6139,2.5969 0.045,-0.028 0.059,-0.1519 0.03,-0.2756 z m -232.8218,-0.4079 c 0,-0.1281 -0.1321,-0.4324 -0.2936,-0.6761 -0.3438,-0.5191 -1.9841,-2.1488 -2.0731,-2.0598 -0.109,0.109 0.902,1.7652 1.4497,2.3748 0.5672,0.6314 0.917,0.7691 0.917,0.3611 z m 72.2184,-0.3712 c 0.8727,-0.3959 2.296,-2.1289 2.1929,-2.6698 -0.052,-0.2727 -0.4436,-0.2689 -0.9175,0.01 -0.5583,0.3272 -1.7167,1.5592 -1.9847,2.1108 -0.3569,0.7346 -0.1135,0.9235 0.7093,0.5502 z m 235.4708,74.1637 c -0.1893,-0.6823 -0.1437,-1.7882 0.083,-2.0139 0.037,-0.037 0.1537,0.039 0.259,0.1689 0.2143,0.2643 0.2507,0.8473 0.089,1.4287 -0.1267,0.456 -0.3581,0.6795 -0.4311,0.4163 z m -618.516,-8.9397 c -0.1555,-0.2906 -0.027,-0.7564 0.2744,-0.9933 0.3235,-0.2545 0.9294,-0.2642 1.2314,-0.02 l 0.2243,0.1816 -0.3281,0.3737 c -0.5653,0.6438 -1.1928,0.8486 -1.402,0.4577 z m 288.687,-83.5021 c 0.7257,-0.017 1.9412,-0.017 2.7011,-10e-5 0.7598,0.017 0.166,0.031 -1.3196,0.031 -1.4856,0 -2.1073,-0.014 -1.3815,-0.031 z"
       id="path2998"
       inkscape:connector-curvature="0" />
  </g>
</svg>
