<?xml version="1.0" encoding="UTF-8" standalone="no"?>
<!-- Created with Inkscape (http://www.inkscape.org/) -->

<svg
   xmlns:dc="http://purl.org/dc/elements/1.1/"
   xmlns:cc="http://creativecommons.org/ns#"
   xmlns:rdf="http://www.w3.org/1999/02/22-rdf-syntax-ns#"
   xmlns:svg="http://www.w3.org/2000/svg"
   xmlns="http://www.w3.org/2000/svg"
   xmlns:sodipodi="http://sodipodi.sourceforge.net/DTD/sodipodi-0.dtd"
   xmlns:inkscape="http://www.inkscape.org/namespaces/inkscape"
   width="744.09448819"
   height="1052.3622047"
   id="svg2"
   version="1.1"
   inkscape:version="0.48.4 r9939"
   sodipodi:docname="edgarcollage.svg">
  <defs
     id="defs4" />
  <sodipodi:namedview
     id="base"
     pagecolor="#ffffff"
     bordercolor="#666666"
     borderopacity="1.0"
     inkscape:pageopacity="0.0"
     inkscape:pageshadow="2"
     inkscape:zoom="0.35"
     inkscape:cx="-70.714286"
     inkscape:cy="520"
     inkscape:document-units="px"
     inkscape:current-layer="layer1"
     showgrid="false"
     inkscape:window-width="1366"
     inkscape:window-height="706"
     inkscape:window-x="-8"
     inkscape:window-y="-8"
     inkscape:window-maximized="1" />
  <metadata
     id="metadata7">
    <rdf:RDF>
      <cc:Work
         rdf:about="">
        <dc:format>image/svg+xml</dc:format>
        <dc:type
           rdf:resource="http://purl.org/dc/dcmitype/StillImage" />
        <dc:title></dc:title>
      </cc:Work>
    </rdf:RDF>
  </metadata>
  <g
     inkscape:label="Layer 1"
     inkscape:groupmode="layer"
     id="layer1">
    <g
       id="g3958"
       transform="translate(-5.7142857,0)">
      <g
         style="fill:none;stroke:#000000;stroke-opacity:1"
         transform="matrix(0.85606331,0,0,0.85606331,-64.518553,68.01627)"
         id="g3004">
        <title
           id="title3006">Layer 1</title>
        <path
           style="fill:none;stroke:#000000;stroke-opacity:1"
           inkscape:connector-curvature="0"
           id="path2161"
           d="m 126.23552,577.27112 c 0.27299,-3.28998 0.96699,-4.16394 5.87099,-7.40198 5.24801,-3.466 6.638,-5.15198 15.82601,-19.20801 5.61399,-8.58697 27.46599,-26.46997 35.678,-29.19598 8.088,-2.685 19.48299,-8.732 21.92599,-11.63501 1.25501,-1.49103 2.83699,-5.10101 3.51601,-8.01996 0.67799,-2.92004 2.53,-7.453 4.114,-10.07404 1.584,-2.62103 2.87999,-5.39599 2.87999,-6.16803 0,-0.77203 1.49099,-2.32495 3.313,-3.45092 1.82201,-1.12604 3.92301,-3.18805 4.66901,-4.58203 1.227,-2.292 1.946,-2.534 7.532,-2.534 8.341,0 10.02499,-1.75202 9.117,-9.48297 -0.41602,-3.53604 -0.232,-6.18204 0.509,-7.37006 0.95801,-1.53299 0.638,-2.61499 -1.84399,-6.25 -1.651,-2.418 -3.78101,-6.19699 -4.73201,-8.39599 -0.95201,-2.19999 -2.381,-5.50501 -3.17601,-7.34598 -1.022,-2.36502 -1.90698,-3.16901 -3.01799,-2.74301 -0.864,0.332 -3.72402,-0.568 -6.355,-2 l -4.78399,-2.60401 -3.88302,2.23502 -3.88301,2.23398 -6.10998,-2.228 c -7.731,-2.819 -10.73801,-6.48599 -10.49899,-12.806 0.092,-2.42899 0.62698,-5.27701 1.18998,-6.32999 1.315,-2.45801 -0.84599,-2.58502 -5.248,-0.30902 -2.7,1.39603 -3.881,1.43903 -9.11,0.33002 -8.93199,-1.896 -15.89299,-8.914 -20.12999,-20.297 -1.97601,-5.30801 -1.662,-13.60202 0.61899,-16.35101 1.36401,-1.64401 0.86301,-2.185 -5.04599,-5.457 -3.67401,-2.034 -8.132,-10.392 -8.132,-15.24701 0,-9.22296 3.64599,-17.047 9.46099,-20.30097 1.678,-0.93902 1.74001,-1.38201 0.58701,-4.16601 -1.019,-2.461 -1.03801,-3.72601 -0.089,-6.017 1.56399,-3.77701 5.43499,-7.366 8.28299,-7.68201 1.242,-0.138 2.55401,-0.28799 2.915,-0.33297 0.361,-0.045 0.965,-2.33301 1.344,-5.08301 0.378,-2.75 1.095,-5.25101 1.59401,-5.55902 0.49901,-0.30802 0.907,-1.09601 0.907,-1.75098 0,-0.89502 -5.24001,-1.10602 -21.042,-0.85101 -21.83001,0.354 -25.24301,0.04 -23.068,-2.12299 0.87999,-0.875 6.854,-1.21701 21.25199,-1.21701 l 20.028,0 0.30901,-4.84402 c 0.17,-2.664 0.80699,-5.34198 1.41499,-5.94999 0.60801,-0.608 1.10601,-1.669 1.10601,-2.35699 0,-0.95102 -2.042,-1.10703 -8.5,-0.651 -5.79001,0.409 -8.5,0.25497 -8.5,-0.48001 0,-0.67099 3.50599,-1.20999 9.25,-1.42401 5.087,-0.18897 9.877,-0.55799 10.645,-0.81897 0.912,-0.31 1.704,0.66299 2.28899,2.815 1.00401,3.69299 5.09901,6.32898 6.95201,4.47598 1.429,-1.42999 -0.474,-7.225 -4.138,-12.59799 l -2.747,-4.02899 -11.375,0.18597 c -6.25601,0.10303 -17.78801,0.469 -25.625,0.815 l -14.25,0.62903 0,-2.70801 0,-2.708 14.75,0.29199 c 19.48999,0.38598 37.251,-0.062 37.245,-0.939 -0.003,-0.388 -0.487,-2.43802 -1.075,-4.557 l -1.07001,-3.853 -9.175,0.565 c -5.04599,0.31101 -16.26199,0.867 -24.92499,1.23599 l -15.75,0.67099 0,-2.99597 0,-2.996 9.75,0.11099 c 5.36299,0.062 16.646,-10e-4 25.073,-0.138 13.98799,-0.228 15.29199,-0.40301 14.97099,-2 -0.31599,-1.565 -1.61698,-1.72601 -12.32399,-1.522 -6.583,0.125 -17.708,0.483 -24.72,0.794 l -12.75,0.56699 0,-7.89099 0,-7.89002 12.75,-0.64999 c 7.013,-0.357 18.71199,-0.65198 26,-0.65399 8.164,-0.002 13.25,-0.388 13.25,-1.004 0,-0.54999 -0.563,-1.021 -1.25,-1.047 -6.69101,-0.254 -33.315,0.20099 -41,0.70001 l -9.75,0.633 0,-4.453 0,-4.45301 16.75,0.29999 c 18.74399,0.336 41.25,-0.54999 41.25,-1.62399 0,-0.38699 -13.05,-0.67001 -29,-0.63001 l -29,0.074 0,-41.75 0,-41.75 188,0 188,0 0,51 0,51 -7.25,0.16 c -3.987,0.088 -12.04101,0.037 -17.897,-0.113 -15.40399,-0.39499 -26.853,0.755 -26.853,2.69702 0,1.27899 0.875,1.41198 5.25,0.79498 2.888,-0.40698 14.58799,-0.931 26,-1.16299 l 20.75,-0.42301 0,3.52399 0,3.52402 -11.25,0.12399 c -6.18802,0.068 -16.22601,0.10101 -22.307,0.072 -11.081,-0.053 -14.297,0.61401 -13.01001,2.69601 0.483,0.78299 7.52401,1.02201 23.62802,0.805 l 22.93795,-0.31101 0,2.80701 0,2.80701 -19.93997,0 c -20.36801,0 -23.66501,0.62198 -19.488,3.67599 1.29202,0.94501 3.60101,1.21399 7.40301,0.86301 3.039,-0.28 11.48801,-0.73502 18.77499,-1.01199 l 13.24997,-0.50202 0,4.13901 0,4.13901 -15.41797,-0.68802 c -15.76501,-0.703 -18.18301,-0.24802 -15.54599,2.93002 0.96,1.15598 4.28901,1.456 16.15598,1.456 14.88202,0 14.94501,0.01 14.62701,2.22598 -0.39996,2.79202 -6.46502,4.12301 -15.41101,3.38302 -8.44198,-0.69903 -10.59298,-0.01 -10.21197,3.27198 l 0.30398,2.61902 12.75,0.27996 c 11.73496,0.258 15.19602,1.06702 11.168,2.61304 -0.86999,0.33399 -6.04498,0.607 -11.5,0.607 l -9.918,0 0,3.5 0,3.5 8.375,0 c 10.30399,0 14.62497,0.79498 14.62497,2.69198 0,0.92099 -0.63598,1.241 -1.75793,0.88401 -2.73902,-0.86902 -19.69702,-1.03101 -21.04105,-0.20099 -0.673,0.41598 -1.20099,2.91699 -1.20099,5.68399 l 0,4.94101 12,0 c 9.99997,0 11.99997,0.25 11.99997,1.5 0,1.25 -2.00696,1.5 -12.06497,1.5 -12.884,0 -14.82501,0.52798 -18.64899,5.07299 -1.306,1.551 -3.22201,3.08899 -4.26001,3.41797 -1.60501,0.51001 -1.89001,1.62702 -1.90799,7.51102 -0.026,8.51999 -1.47302,11.491 -7.76901,15.95602 -6.03601,4.28098 -6.31399,4.68897 -6.33301,9.279 -0.014,3.255 0.48001,4.05096 3.831,6.16598 4.518,2.85202 7.216,9.74399 5.251,13.41501 -1.384,2.58499 -1.401,4.18201 -0.047,4.18201 0.578,0 1.70901,-1.57501 2.51401,-3.5 0.815,-1.95203 2.177,-3.5 3.07699,-3.5 2.716,0 1.34799,14.04999 -2.05798,21.13397 -3.20401,6.66602 -5.23401,8.65503 -12.58402,12.33401 -3.02499,1.51401 -6.17498,3.155 -7,3.64499 -0.82501,0.49002 -2.39999,1.30802 -3.5,1.81702 -1.1,0.509 -3.72601,2.49399 -5.83499,4.41098 -2.108,1.91702 -5.259,4.06003 -7,4.76202 -1.74099,0.70099 -5.10101,2.95499 -7.466,5.00699 -2.633,2.28501 -5.73502,3.95099 -8,4.297 -4.121,0.63 -13.37302,0.83899 -17.173,0.38699 -2.042,-0.24298 -2.922,0.52903 -5.042,4.42002 -1.41299,2.59298 -3.651,5.867 -4.97601,7.277 -2.28,2.42701 -2.33701,2.78501 -1.07599,6.78598 2.121,6.72602 1.42899,16.31202 -1.63699,22.659 -1.444,2.98999 -2.83301,7.60303 -3.08801,10.25 l -0.46201,4.81403 3.56201,0 c 5.27399,0 8.168,1.445 10.35599,5.169 3.143,5.35096 9.13202,23.57495 10.95401,33.331 l 1.681,9 8.10098,8.026 c 11.138,11.03399 18.88901,15.25995 30.34201,16.54303 9.831,1.10095 16.887,3.59692 25.86701,9.15198 3.35901,2.078 6.41598,3.77795 6.79199,3.77795 0.37601,0 1.228,0.46704 1.892,1.03601 0.66501,0.56897 2.75799,2.14502 4.652,3.5 l 3.444,2.46399 -180.25601,0 -180.254,0 0.31002,-3.729 z m 183.58101,-9.01996 c 7.927,-5.354 10.43799,-8.42804 15.44897,-18.91901 2.74604,-5.74798 4.73502,-10.70996 4.41901,-11.026 -1.077,-1.07702 -6.36798,1.82105 -7.32501,4.01099 -5.57498,12.75702 -10.88599,20.26599 -17.71601,25.04797 -1.05197,0.73706 -1.58398,1.84803 -1.19098,2.48401 1.029,1.66602 1.827,1.46607 6.36402,-1.59796 z m -6.98102,-4.15802 c 2.04102,-1.04999 4.89801,-3.18701 6.34998,-4.75 2.75604,-2.96594 11.86001,-17.21802 11.86001,-18.56494 0,-1.14905 -2.90298,-0.94702 -8.95797,0.62292 -5.04603,1.31006 -5.56904,1.27106 -8.10102,-0.60192 -1.63299,-1.20704 -4.76202,-2.14704 -7.89001,-2.37 -2.85102,-0.20404 -6.84101,-0.83105 -8.86701,-1.39307 -5.17499,-1.43798 -5.18298,-1.43396 -5.18298,2.55304 0,3.37397 8.465,22.41199 9.96399,22.41199 0.341,0 1.81299,-2.58697 3.272,-5.75 2.677,-5.80298 6.763,-9.88598 6.763,-6.758 0,0.82898 -0.96298,2.47205 -2.13998,3.64801 -2.85303,2.85297 -5.09702,10.22297 -3.57703,11.74299 1.51001,1.50903 2.19702,1.42602 6.50702,-0.79102 z m -24.97299,-27.81 c -0.32001,-2.75 -5,-6.43097 -6.39902,-5.03198 -0.83499,0.83502 4.25,7.75 5.70001,7.75 0.55799,0 0.87299,-1.22296 0.69901,-2.71802 z m 42.99899,-0.19 c 5.01599,-1.04999 10.44501,-2.85297 12.06601,-4.00696 4.048,-2.88202 6.95902,-9.37903 8.03201,-17.92297 0.50498,-4.02307 1.823,-8.74402 2.99399,-10.72901 1.151,-1.95007 2.09201,-3.97003 2.09201,-4.48901 0,-1.40906 -3.11902,-1.13702 -4.92102,0.42798 -0.86798,0.75403 -4.27801,2.34802 -7.57898,3.54199 -3.30002,1.19397 -8.96701,4.177 -12.59399,6.62903 -3.62702,2.45196 -7.11402,4.45801 -7.75,4.45801 -2.11002,0 -1.18503,-1.47608 2.09399,-3.34302 l 3.23798,-1.84399 -2.482,-2.01001 c -2.01001,-1.62702 -3.33999,-1.888 -6.99402,-1.37098 -2.48095,0.35096 -7.21099,0.76599 -10.51196,0.922 -8.875,0.41992 -11.45001,2.04797 -15.25802,9.646 -1.79203,3.57495 -3.36701,8.27099 -3.5,10.43493 -0.22901,3.72107 -0.061,3.97303 3.10098,4.64307 1.83801,0.38898 3.841,1.20697 4.45001,1.81494 1.60999,1.60999 3.53601,1.36603 6.63702,-0.84198 1.56897,-1.11798 3.60798,-1.72296 4.77497,-1.41699 1.34002,0.35101 3.19403,-0.45099 5.41702,-2.34003 3.08402,-2.62195 7.95798,-5.29297 9.65799,-5.29297 0.37701,0 -0.99499,1.14099 -3.047,2.53601 -4.76001,3.23401 -4.793,5.12098 -0.10101,5.66895 3.177,0.37103 4.07202,-0.053 7.159,-3.38898 3.48602,-3.768 11.948,-9.41199 12.81402,-8.54596 0.24598,0.24597 -1.647,2.16297 -4.207,4.26001 -2.55899,2.09699 -6.41699,5.64795 -8.57101,7.89099 l -3.91699,4.07703 -4.11902,-2.25604 c -3.78797,-2.07502 -4.30698,-2.133 -6.45398,-0.72602 -2.94299,1.92798 -2.92401,2.10102 0.41498,3.91199 3.64904,1.97901 6.23703,1.92798 17.06402,-0.33801 z m 42.68402,-7.09198 c -0.80002,-1.29401 -2.5,-1.29401 -2.5,0 0,0.54999 0.70197,1 1.55899,1 0.85703,0 1.28098,-0.45001 0.94101,-1 z m -87.604,-0.914 c 2.55798,-1.62 0.419,-3.79004 -4.25403,-4.31604 -5.51398,-0.62195 -10.87698,-4.60498 -16.98398,-12.61597 -5.229,-6.85901 -7.134,-11.16699 -2.94198,-6.65295 1.53295,1.64996 3.91098,4.68194 5.28497,6.73694 2.92801,4.37805 10.63202,9.66601 15.77301,10.82501 4.40399,0.99298 5.22497,0.56201 5.22497,-2.74604 0,-2.33898 -0.27496,-2.51098 -3.11798,-1.94195 -2.55499,0.51098 -4,-0.023 -8,-2.96002 -2.686,-1.97095 -4.88202,-3.77399 -4.88202,-4.00696 0,-0.23297 2.39902,0.93097 5.33103,2.58496 6.29397,3.552 10.59701,3.85101 13.25101,0.91803 1.815,-2.00604 1.81897,-2.14301 0.094,-3.40503 -0.98901,-0.72296 -5.03302,-1.638 -8.987,-2.03302 -8.819,-0.88196 -10.38599,-1.45196 -14.466,-5.26398 -2.13001,-1.98999 -3.23801,-3.97699 -3.267,-5.85998 -0.024,-1.56702 -0.64102,-4.521 -1.371,-6.56598 -1.57801,-4.42102 -8.78,-16.73999 -9.79999,-16.76502 -1.482,-0.037 -2.92902,4.27198 -2.29202,6.82599 0.36401,1.461 2.371,4.90705 4.45901,7.65705 2.08801,2.75 4.34198,6.125 5.008,7.5 1.66,3.427 -8.37601,-7.67304 -10.624,-11.75 -1.944,-3.52808 -4.246,-4.297 -4.487,-1.5 -0.60901,7.07196 2.32401,16.57397 6.56,21.25 1.74399,1.92492 4.228,5.52496 5.521,8 3.379,6.46795 7.694,10.65594 14.46298,14.03894 5.875,2.93402 11.784,3.768 14.50403,2.04602 z m 72.03998,-0.72205 c 11.35504,-2.83197 17.91101,-8.82092 24.26101,-22.16797 2.27298,-4.776 3.13401,-8.268 3.55503,-14.40399 0.40197,-5.86999 0.24499,-7.90704 -0.57102,-7.40301 -1.337,0.82702 -5.181,12.815 -5.181,16.16003 0,2.88898 -3.47101,5.45197 -7.38501,5.45197 -4.98999,0 -13.61499,6.04699 -13.61499,9.54498 0,0.37305 1.57501,0.38202 3.5,0.021 4.68598,-0.87897 4.414,-0.006 -0.755,2.42407 -4.22,1.98395 -12.745,9.42492 -12.745,11.125 0,1.23901 1.43399,1.11798 8.93598,-0.75208 z m 0.44201,-16.18695 c 3.08802,-4.45697 9.14701,-8.17596 13.31702,-8.17596 4.896,0 6.547,-2.00305 7.02997,-8.52704 0.36999,-4.99603 1.255,-7.14996 6.12903,-14.90601 7.70498,-12.26202 9.61599,-17.53 8.18698,-22.56698 -0.594,-2.09101 -0.832,-1.655 -1.45798,2.67001 -1.173,8.10101 -4.10501,12.31 -19.211,27.57794 -13.875,14.02307 -18.37201,20.19507 -18.37201,25.21106 0,3.54999 1.29099,3.17096 4.37799,-1.28302 z m -65.37799,-3.57403 c 0,-0.60401 -5.07702,-6.48999 -8.909,-10.32898 -1.875,-1.87903 -5.92501,-5.00403 -9,-6.94599 -7.53802,-4.76001 -12.40002,-10.354 -16.78002,-19.307 -3.86899,-7.909 -5.39301,-8 -3.23899,-0.19501 1.039,3.76501 6.624,13.88501 8.92499,16.17401 0.79401,0.78998 4.00302,10.60901 4.00302,12.25 0,0.81403 0.93298,2.66699 2.073,4.11603 1.883,2.39398 2.729,2.64099 9.25,2.70495 3.94699,0.039 8.07696,0.45703 9.177,0.93006 2.16297,0.92895 4.5,1.24097 4.5,0.60193 z m 49.263,-29.14099 c 6.59796,-2.10096 20.75501,-12.66102 23.13001,-17.25397 1.55398,-3.00501 4.61999,-6.065 4.58899,-4.57999 -0.01,0.47998 -1.36002,3.30698 -3,6.28198 -1.64002,2.97605 -2.982,5.56296 -2.982,5.74997 0,1.11005 3.604,-0.016 7.08398,-2.21295 10.14899,-6.40701 24.753,-25.30002 29.95301,-38.75 2.98498,-7.72101 6.65799,-24.33502 5.60998,-25.38202 -0.86599,-0.866 -4.64798,2.66699 -4.64798,4.34 0,0.74002 -0.45001,1.345 -1,1.345 -2.27002,0 -0.74402,-5.51099 2.956,-10.67798 l 3.95599,-5.52402 0.71301,2.84101 c 0.87799,3.501 2.38498,5.074 5.642,5.89199 2.10599,0.52802 2.76199,0.11899 4.099,-2.561 1.953,-3.91501 2.284,-12.02701 0.72299,-17.72 -1.35101,-4.92499 -4.08801,-5.887 -4.08801,-1.43701 0,1.833 -1.06699,3.83502 -3.064,5.74801 -3.56298,3.413 -3.28598,1.828 0.97202,-5.561 2.29199,-3.978 2.539,-5.31299 2.13199,-11.5 -0.82199,-12.495 -0.198,-29.39002 1.52701,-41.31098 0.94699,-6.54501 1.48498,-14.737 1.22799,-18.67502 -0.25299,-3.858 -0.138,-8.36398 0.25501,-10.014 0.68799,-2.88599 0.72198,-2.848 0.89599,1 0.17002,3.74798 0.24601,3.84201 1.20499,1.5 2.92102,-7.13398 6.85001,-22.53998 6.85001,-26.86298 0,-6.29401 -3.22299,-16.89603 -7.565,-24.88702 -1.86799,-3.43799 -3.18,-6.25 -2.91599,-6.25 0.51099,0 -1.39502,-2.14801 -7.34799,-8.28299 -3.47202,-3.577 -5.01703,-4.73001 -14.67102,-10.94602 -13.09198,-8.42999 -26.38199,-11.48099 -38.16498,-8.76098 -2.29102,0.52899 -9.49002,3.38598 -16,6.34799 -16.74802,7.62301 -30.625,10.13299 -51.24802,9.272 -16.259,-0.67801 -22.02401,0.23999 -31.94,5.08701 -6.54501,3.19998 -15.62199,11.323 -18.084,16.185 -5.89999,11.64498 -6.955,16.08599 -7.14999,30.09701 -0.10401,7.42499 0.27699,16.44598 0.84599,20.047 0.578,3.65997 0.85101,15.34799 0.619,26.5 -0.29399,14.14898 0.027,23.432 1.10401,31.91498 0.835,6.57901 1.51899,14.58001 1.51899,17.77899 0,5.00403 4.33899,29.88101 5.555,31.84903 0.23201,0.37597 1.132,5.79699 1.99901,12.04699 1.746,12.58201 5.47398,24.616 9.188,29.65699 6.056,8.22 14.11801,14.04699 23.12601,16.71402 2.86898,0.84997 2.84399,0.78601 -3.20801,-8.17301 -2.66501,-3.944 -4.677,-7.98901 -4.478,-9 0.25601,-1.298 1.36801,-0.079 3.79599,4.16498 4.543,7.93903 12.18402,15.254 18.99701,18.18802 3.039,1.30902 6.42401,2.78998 7.52399,3.29199 1.09997,0.50202 5.375,1.65704 9.5,2.56598 4.125,0.91003 7.95001,1.82703 8.5,2.03906 2.626,1.01197 20.561,-0.46704 25.76202,-2.12207 z m -59.73901,-36.71198 c -3.79901,-3.45801 -4.77503,-5.052 -5.23499,-8.55099 -0.49502,-3.76102 -0.211,-4.67002 2.25998,-7.25 1.55399,-1.62201 3.647,-2.94901 4.65201,-2.94901 3.953,0 11.651,-5.89099 16.367,-12.52402 3.75299,-5.27899 3.637,-6.09997 -1.73602,-12.28598 -2.59601,-2.988 -2.99597,-5.19 -0.94199,-5.19 0.42399,0 2.99698,2.203 5.71702,4.89499 3.59497,3.55701 6.42401,5.33301 10.35199,6.5 9.25701,2.74899 14.509,1.771 23.71301,-4.41699 5.35797,-3.603 7.25897,-2.50998 3.39197,1.95001 -2.35599,2.71698 -1.83298,4.45999 3.117,10.38199 2.19904,2.63101 5.89902,5.43899 9.26502,7.03299 6.199,2.935 8.372,6.297 6.875,10.638 -1.318,3.824 -5.44501,4.79001 -11.10199,2.59802 -7.12903,-2.763 -12.43903,-3.45502 -27.03101,-3.52002 -12.18799,-0.055 -13.75702,0.151 -18.591,2.43802 -2.90302,1.37399 -7.48801,2.78598 -10.18799,3.138 -2.69998,0.35202 -5.47202,1.08398 -6.159,1.625 -1.69501,1.33499 -1.57501,4.271 0.25,6.09598 1.66699,1.66702 1.99097,3.643 0.59699,3.643 -0.49701,10e-4 -3.004,-1.91101 -5.573,-4.24899 z m 43.927,-18.862 c 1.62402,-1.518 -0.966,-3.05499 -4.565,-2.70999 -2.17899,0.20898 -3.47998,0.91098 -3.68399,1.98798 -0.50702,2.67901 5.58398,3.21099 8.24899,0.72201 z m -22.70099,21.396 c -3.27801,-0.49701 -3.534,-1.793 -0.659,-3.33301 5.11896,-2.73898 26.71299,-2.038 27.69199,0.89999 0.36499,1.095 -1.12698,1.21601 -7.95801,0.64701 -6.647,-0.55399 -9.20901,-0.36499 -12.23801,0.90002 -2.10699,0.88098 -3.88897,1.534 -3.95898,1.45099 -0.07,-0.083 -1.36499,-0.336 -2.87799,-0.565 z m 53.349,-41.42301 c -0.76404,-1.72699 -3.56302,-6.01199 -6.22101,-9.522 -6.17999,-8.16498 -7.31601,-10.29999 -6.11902,-11.49799 0.59201,-0.59201 1.62201,0.10102 2.763,1.857 1,1.54101 3.65503,4.725 5.89902,7.07699 4.57199,4.79203 6.46799,8.41098 6.535,12.47501 0.059,3.647 -1.143,3.483 -2.85699,-0.38901 z m 13.224,-28.55697 c -1.198,-0.23304 -2.77204,-1.15003 -3.5,-2.03702 -1.17603,-1.435 -1.04501,-1.51801 1.177,-0.74802 1.375,0.47602 5.08698,0.86304 8.25,0.86103 6.263,-0.005 7.58899,1.00299 2.625,1.99597 -3.25903,0.651 -4.90802,0.63702 -8.552,-0.072 z m 4.42297,-20.55402 c -0.23199,-0.68799 0.49103,-2.48801 1.60602,-4.00101 2.00201,-2.71798 2.00299,-2.76999 0.088,-4.21798 -2.49902,-1.89002 -6.06903,-1.93702 -6.77902,-0.088 -0.30398,0.793 -1.66,2.167 -3.01199,3.05301 -2.22901,1.45999 -2.80301,1.46799 -6.134,0.076 -2.443,-1.02099 -4.05701,-2.547 -4.814,-4.55301 -1.367,-3.62097 -4.37299,-4.00897 -5.621,-0.72699 -1.64401,4.32401 -3.73401,5.24402 -7.66202,3.371 -4.51196,-2.151 -5.41797,-2.095 -5.41797,0.33799 0,2.30902 -0.032,2.31903 -3.435,1.02502 -1.48803,-0.56601 -2.565,-1.759 -2.565,-2.84003 0,-1.02496 -0.90002,-5.38397 -2,-9.685 -3.091,-12.08697 -2.935,-12.83697 3.25,-15.58996 6.5,-2.89401 13.91297,-2.888 19.60297,0.015 2.20703,1.125 4.31103,2.53101 4.677,3.12302 0.99103,1.604 4.92602,2.88199 15.28702,4.966 l 9.32199,1.875 6.43402,6.49799 c 7.155,7.22497 9.19498,10.98498 7.23898,13.34198 -0.89401,1.07702 -2.38901,1.32702 -5.43197,0.91003 -3.29401,-0.45102 -5.20002,-0.043 -8.84204,1.89298 -5.40299,2.871 -5.24598,2.83801 -5.792,1.21701 z m -10.74597,-13.75 c 0,-1.10001 -0.45001,-2 -1,-2 -0.55002,0 -1,0.89999 -1,2 0,1.10001 0.44998,2 1,2 0.55096,0 1,-0.90002 1,-2 z M 236.5115,352.98615 c -4.737,-1.771 -6.84198,-7.72199 -5.40799,-15.28699 1.459,-7.69501 8.431,-14.094 17.943,-16.469 6.85699,-1.712 32.875,-2.54101 38.14203,-1.21398 5.13397,1.29296 11.43597,6.72998 13.48596,11.63696 1.927,4.61304 1.73001,5.86401 -1.12799,7.16702 -1.848,0.84201 -2.5,1.91202 -2.5,4.10199 0,4.37302 -1.91901,4.85202 -4.901,1.224 -1.42899,-1.73898 -2.88099,-3.15799 -3.22699,-3.15299 -0.34601,0.005 -1.18799,1.35901 -1.87201,3.00898 -1.444,3.487 -2.60498,3.81903 -3.5,0.99902 -1.18399,-3.73001 -6.5,-5.01099 -6.5,-1.56601 0,0.724 -1.49701,2.949 -3.32502,4.94601 -3.18698,3.47901 -3.53097,3.60401 -8.25,2.99701 -3.26995,-0.42102 -5.84399,-1.48901 -7.66098,-3.17901 l -2.73599,-2.54499 -6.26401,3.26398 c -8.63699,4.49902 -9.96701,4.93903 -12.29901,4.06799 z m 31.53403,-13.48499 c 0,-0.82501 -0.67502,-1.5 -1.5,-1.5 -0.82501,0 -1.5,0.67499 -1.5,1.5 0,0.82501 0.67499,1.5 1.5,1.5 0.82599,0 1.5,-0.67499 1.5,-1.5 z m 111.50897,123.116 c 1.06803,-2.797 1.47202,-5.55701 1.05503,-7.21701 -0.84101,-3.35099 -1.89801,-2.30698 -3.98002,3.92901 -0.88699,2.655 -2.29901,6.15601 -3.139,7.779 -0.84,1.62402 -1.211,3.46203 -0.82499,4.08599 1.008,1.63202 4.788,-3.07299 6.88898,-8.57699 z M 225.62552,397.65515 c 0.28399,-0.741 -0.215,-3.328 -1.11,-5.75 -0.89501,-2.422 -1.984,-6.10901 -2.42101,-8.19299 -0.437,-2.08399 -1.065,-4.06101 -1.397,-4.39301 -0.857,-0.85601 -3.73999,1.72901 -3.094,2.77503 0.935,1.51196 -1.55,4.90698 -3.59201,4.90698 -3.57998,0 -2.01898,6.647 2.40201,10.22796 2.54501,2.06202 8.47901,2.33704 9.21201,0.42603 z m -44.456,-20.26599 c 2.017,-1.82501 2.596,-7.388 0.771,-7.388 -0.608,0 -2.42101,1.107 -4.02901,2.45999 -1.608,1.353 -4.567,2.76801 -6.575,3.14499 l -3.64999,0.685 2.407,1.94903 c 2.81399,2.279 8.06399,1.87598 11.076,-0.85101 z m 277.78299,-44.638 c 0.46302,-1.23801 0.47,-2.48901 0.014,-2.78101 -1.51901,-0.97299 -8.92001,0.21802 -8.92001,1.43601 -10e-4,3.93802 7.51101,5.07199 8.906,1.345 z m -280.488,-0.35699 c 2.268,-0.87003 1.973,-2.18302 -1.335,-5.95102 -1.604,-1.827 -3.37899,-4.13602 -3.94299,-5.13199 -0.97101,-1.71201 -1.121,-1.71701 -2.767,-0.091 -2.444,2.41498 -0.861,8.73298 2.62699,10.491 2.884,1.45499 3.27801,1.504 5.418,0.68302 z m -2,-86.26001 c 0.247,-0.4 0.119,-1.26401 -0.28699,-1.91901 -0.869,-1.40601 -46.771,0.026 -48.25101,1.50601 -0.5,0.5 9.619,0.93198 23.606,1.008 13.46601,0.072 24.68401,-0.19501 24.932,-0.595 z m 289.08099,-12.133 c 2.95999,-0.75299 2.94601,-0.76801 -1,-1.077 -9.62299,-0.75399 -12.19101,-0.80999 -15.27701,-0.33102 -1.80298,0.28003 -3.01398,0.93603 -2.69098,1.45801 0.68302,1.10699 14.57001,1.069 18.96799,-0.05 z m 21,0 c 0.371,-0.60101 -0.90299,-0.99402 -3.19,-0.98499 -2.82801,0.012 -3.42301,0.26499 -2.31,0.98499 1.95602,1.26401 4.71902,1.26401 5.5,0 z m 12.50003,0 c 0,-0.54999 -1.23706,-0.99301 -2.75,-0.98499 -2.14307,0.012 -2.41907,0.22898 -1.25,0.98499 1.95697,1.26401 4,1.26401 4,0 z m -20.00003,-11.052 c 0,-0.521 -2.69998,-0.948 -6,-0.948 -3.30002,0 -6,0.414 -6,0.91901 0,0.50598 2.70001,0.932 6,0.94799 3.30002,0.016 6,-0.397 6,-0.919 z m 12.746,0.46301 c -1.20099,-1.20102 -11.74499,-1.67602 -11.74499,-0.52902 0,0.703 2.28799,1.11801 6.16699,1.11801 3.39102,0 5.901,-0.26502 5.578,-0.58899 z m 5.50403,-0.073 c -0.68799,-0.27701 -1.81299,-0.27701 -2.5,0 -0.68799,0.27799 -0.125,0.50498 1.25,0.50498 1.375,0 1.93799,-0.22699 1.25,-0.50498 z m -39.73901,-1.32 c -0.71601,-1.159 -14.87,-1.04102 -16.73002,0.13998 -0.70999,0.45001 2.86701,0.819 8.02903,0.828 5.84497,0.008 9.08297,-0.35098 8.70099,-0.96798 z m -307.51101,-3.86103 c 0,-0.50897 -4.82499,-0.91198 -10.75,-0.89697 -6.486,0.016 -9.164,0.27197 -6.75,0.64499 6.88601,1.065 17.5,1.21701 17.5,0.25198 z m 333.58001,-9.40698 c 0.414,-0.41299 -3.39801,-0.75 -8.473,-0.75 -5.07498,0 -9.01699,0.33701 -8.76101,0.75 0.60699,0.978 16.25299,0.978 17.23401,0 z m -294.58001,-2.634 c 0,-0.81101 -12.95799,-0.32901 -13.917,0.517 -0.22899,0.20199 2.80801,0.36799 6.75,0.36799 3.942,-9.9e-4 7.167,-0.399 7.167,-0.88499 z m 0.73101,-10.80901 c -0.97301,-0.254 -2.323,-0.237 -3,0.037 -0.67701,0.27301 0.11898,0.48101 1.76899,0.461 1.65001,-0.02 2.204,-0.24398 1.23101,-0.498 z m 245.457,0.01 c -0.72202,-0.289 -1.58402,-0.253 -1.91699,0.079 -0.33201,0.332 0.25897,0.56799 1.31298,0.52499 1.164,-0.048 1.40201,-0.284 0.60401,-0.60399 z m -287.18801,-9.317 c 1.083,-0.70001 0.165,-0.974 -3.309,-0.985 -2.95499,-0.009 -4.571,0.371 -4.191,0.985 0.78701,1.272 5.53301,1.272 7.5,0 z m 11.25,-0.662 c -0.688,-0.278 -1.813,-0.278 -2.5,0 -0.688,0.27699 -0.125,0.504 1.25,0.504 1.375,0 1.93801,-0.226 1.25,-0.504 z m 315.99901,145.412 c 0.297,-0.896 4.14301,-1.32901 13.58301,-1.52899 11.27103,-0.23902 13.168,-0.059 13.168,1.25 0,1.297 -2.06201,1.52899 -13.58301,1.52899 -10.42102,0 -13.487,-0.29102 -13.168,-1.25 z m -343.74901,-13.427 c -4.02501,-1.25598 -4.61,-1.698 -3,-2.26502 1.09999,-0.388 4.16201,-0.51199 6.803,-0.276 3.776,0.336 4.73601,0.77701 4.488,2.06201 -0.425,2.21302 -2.37399,2.32599 -8.291,0.47901 z m 15.72899,-0.49402 c -2.22499,-2.22598 -1.30499,-2.66498 5.20201,-2.48099 7.02001,0.19699 9.344,1.14902 4.89101,2.00199 -1.552,0.29702 -4.181,0.80304 -5.84302,1.12402 -1.80199,0.349 -3.51599,0.089 -4.25,-0.64502 z m -18.47899,-30.54498 c -1.51201,-0.22901 -2.75,-0.83701 -2.75,-1.35001 0,-1.19601 19.69701,-1.233 20.43599,-0.039 0.30402,0.49301 -0.15599,1.16702 -1.02299,1.5 -1.68599,0.647 -12.11699,0.577 -16.663,-0.11099 z" />
      </g>
      <g
         style="fill:none;stroke:#000000;stroke-opacity:1"
         transform="matrix(0.06642819,0,0,-0.06642819,364.61536,559.8897)"
         id="g3900">
        <path
           style="fill:none;stroke:#000000;stroke-opacity:1"
           inkscape:connector-curvature="0"
           d="m 2820,5513 c -23,-27 -50,-64 -60,-84 -22,-43 -31,-50 -100,-87 -38,-19 -56,-35 -58,-51 -2,-12 -11,-25 -20,-28 -9,-4 -40,-28 -69,-55 -28,-26 -59,-48 -68,-48 -12,0 -15,-5 -11,-16 3,-9 6,-24 6,-35 0,-29 11,-24 70,34 71,69 98,85 106,60 23,-71 50,-83 59,-25 4,20 8,42 10,47 1,6 29,19 61,29 125,39 259,124 369,236 69,69 69,70 39,70 -23,0 -41,-12 -79,-51 -28,-28 -77,-71 -110,-96 -74,-56 -228,-133 -268,-133 -38,0 -31,22 11,31 42,9 59,24 87,79 30,60 68,105 119,141 l 39,29 -46,0 c -42,0 -49,-4 -87,-47 z"
           id="path3902" />
        <path
           style="fill:none;stroke:#000000;stroke-opacity:1"
           inkscape:connector-curvature="0"
           d="m 3350,5553 c 0,-5 63,-77 132,-150 32,-33 10,-76 -59,-115 -29,-17 -60,-42 -67,-57 -19,-36 -63,-75 -113,-100 -24,-12 -43,-25 -43,-29 0,-4 -22,-33 -50,-64 -27,-31 -50,-60 -50,-65 0,-28 -120,-113 -202,-142 -17,-6 -33,-24 -42,-45 -8,-19 -26,-42 -40,-51 -24,-16 -26,-15 -78,24 -75,56 -172,99 -251,110 -88,13 -136,37 -227,117 -41,36 -127,101 -190,143 -152,102 -251,136 -395,136 -97,0 -104,-2 -220,-49 -171,-69 -183,-76 -255,-152 -77,-81 -159,-132 -340,-214 -152,-68 -238,-121 -309,-191 -72,-71 -86,-136 -19,-86 28,21 51,26 158,35 226,21 400,25 480,13 41,-7 90,-14 107,-16 18,-2 47,-12 65,-22 39,-23 47,-53 48,-188 1,-150 17,-254 59,-376 22,-63 44,-150 51,-194 14,-100 31,-163 76,-273 75,-187 185,-366 267,-435 78,-66 129,-89 107,-48 -24,46 -6,42 37,-9 26,-30 71,-80 100,-111 29,-31 53,-59 53,-62 0,-4 -15,-7 -33,-7 -35,0 -66,30 -81,77 -7,23 -39,39 -56,28 -5,-3 -13,-20 -18,-36 l -7,-31 -27,21 c -37,29 -81,28 -98,-4 -7,-14 -17,-25 -21,-25 -11,0 -39,30 -39,41 0,5 -6,9 -14,9 -7,0 -18,6 -24,13 -31,37 -162,-22 -162,-74 0,-23 -66,-66 -119,-78 -35,-8 -49,-6 -67,6 -28,18 -39,68 -25,106 6,16 9,33 5,38 -10,17 -34,9 -34,-11 0,-10 -6,-23 -14,-27 -7,-4 -19,-19 -26,-32 -11,-21 -10,-26 3,-36 9,-6 21,-23 26,-38 11,-28 3,-39 -28,-41 -9,-1 -61,-16 -116,-33 -55,-17 -127,-37 -160,-43 -33,-7 -67,-15 -75,-18 -8,-3 -49,-13 -90,-23 -151,-35 -215,-51 -235,-60 -11,-4 -72,-18 -135,-29 -101,-19 -214,-27 -412,-29 l -58,-1 0,-155 0,-154 119,6 c 187,9 192,5 165,-137 -23,-121 -24,-184 -2,-188 10,-2 24,8 34,24 21,31 54,155 54,202 0,23 5,32 17,32 36,0 79,24 108,61 31,39 69,59 113,59 26,0 70,12 227,61 80,25 140,40 170,44 6,1 17,4 25,7 8,3 51,15 95,27 338,87 484,115 611,115 60,0 124,-18 124,-35 0,-17 24,-9 49,15 31,29 44,32 94,22 39,-9 43,-16 26,-47 -7,-15 -7,-29 0,-52 l 11,-31 -30,29 c -16,16 -33,26 -36,22 -10,-10 37,-84 62,-98 48,-25 97,29 98,107 1,19 4,34 8,34 26,0 305,-59 480,-101 l 206,-51 114,-78 c 174,-121 365,-260 426,-311 30,-25 80,-61 111,-80 31,-18 99,-70 152,-116 78,-67 113,-107 180,-205 46,-68 96,-136 110,-153 14,-16 50,-64 80,-106 64,-91 136,-153 203,-177 l 49,-17 -7,-106 c -3,-58 -14,-130 -23,-160 -9,-30 -15,-66 -14,-80 1,-14 -5,-69 -13,-122 -9,-53 -16,-150 -16,-216 0,-97 -5,-138 -26,-218 -14,-54 -31,-104 -37,-111 -7,-9 -6,-20 2,-38 6,-14 11,-36 11,-49 0,-25 1,-25 94,-25 l 93,0 6,83 c 7,92 19,134 54,186 18,26 22,43 17,61 -17,61 -15,227 6,355 48,300 60,382 60,411 0,17 3,33 6,36 3,3 35,-10 72,-29 66,-35 69,-35 156,-30 93,6 119,18 137,64 7,18 16,23 44,23 29,0 39,6 57,35 19,30 27,35 50,31 45,-9 94,18 102,55 11,57 6,109 -14,149 -11,22 -18,40 -14,40 3,0 61,-25 129,-55 67,-30 125,-55 129,-55 3,0 6,25 6,55 0,54 -1,55 -40,75 -23,11 -76,34 -120,50 -43,16 -87,33 -97,38 -10,6 -58,27 -108,48 -120,50 -191,116 -152,141 14,9 114,162 139,213 10,19 28,60 41,90 13,30 49,85 80,121 57,66 97,88 222,126 l 30,8 3,203 c 1,111 -1,202 -5,202 -5,0 -24,-4 -43,-10 -19,-5 -46,-11 -60,-14 -14,-2 -86,-22 -161,-45 -102,-31 -152,-41 -205,-41 -38,0 -88,-7 -112,-15 -51,-18 -317,-25 -432,-11 -129,15 -180,53 -252,186 -74,138 -191,339 -265,459 -36,57 -116,202 -179,323 -121,231 -281,487 -420,673 -171,227 -260,343 -301,390 -24,26 -43,54 -43,61 0,21 92,107 142,134 38,20 52,23 65,14 10,-6 18,-17 19,-25 2,-32 5,-36 28,-47 20,-9 25,-20 28,-54 2,-35 7,-43 23,-43 16,0 19,6 17,27 -1,14 2,29 8,33 18,11 11,42 -15,59 -37,24 -58,62 -51,90 8,32 132,185 159,196 12,5 33,11 47,15 14,3 48,33 75,67 62,75 162,132 234,133 39,1 46,4 46,21 0,12 -8,20 -22,22 -12,2 -27,10 -34,18 -24,29 39,74 161,113 36,11 100,38 144,61 l 78,40 -94,0 c -79,0 -109,-5 -181,-30 -52,-18 -107,-30 -137,-30 -46,0 -53,3 -68,30 -16,29 -19,30 -89,30 -40,0 -73,-3 -73,-7 z M 4541,2227 c 86,-2 91,-4 114,-32 14,-17 35,-40 46,-53 l 22,-22 -23,-62 c -12,-34 -36,-83 -52,-110 -36,-57 -19,-66 -167,82 -88,88 -166,193 -156,210 2,4 32,3 65,-2 33,-4 101,-9 151,-11 z"
           id="path3904" />
        <path
           style="fill:none;stroke:#000000;stroke-opacity:1"
           inkscape:connector-curvature="0"
           d="m 0,556 0,-44 45,-6 c 24,-4 74,-23 110,-41 36,-19 92,-42 123,-51 31,-9 68,-25 81,-35 13,-11 30,-19 38,-19 7,0 40,-14 73,-30 45,-23 61,-37 66,-58 9,-36 22,-52 44,-52 35,0 41,60 8,75 -13,6 -24,18 -26,28 -3,17 4,18 85,16 48,-1 118,3 155,9 37,6 76,8 87,5 30,-8 71,5 71,22 0,19 -37,38 -58,30 -30,-12 -122,-17 -122,-7 0,13 73,42 104,42 35,0 56,10 56,26 0,10 -11,12 -46,7 -46,-6 -47,-6 -42,20 6,33 -2,46 -32,49 -21,3 -25,-1 -25,-23 0,-30 -54,-81 -110,-105 -31,-13 -43,-13 -67,-3 -22,9 -35,9 -54,0 -38,-17 -66,-14 -135,18 -35,16 -91,36 -124,46 -65,18 -150,58 -178,83 -15,14 -91,40 -119,42 -5,0 -8,-20 -8,-44 z"
           id="path3906" />
        <path
           style="fill:none;stroke:#000000;stroke-opacity:1"
           inkscape:connector-curvature="0"
           d="m 2696,525 c -7,-18 3,-39 45,-102 19,-26 29,-55 29,-77 0,-31 5,-38 46,-62 44,-26 45,-28 39,-64 -5,-32 -3,-40 17,-54 12,-9 29,-16 38,-16 27,0 74,-46 84,-85 9,-31 18,-39 51,-51 46,-16 175,-19 175,-4 0,6 -11,10 -25,10 -36,0 -104,72 -126,133 -7,20 -20,37 -29,38 -8,1 -26,2 -40,2 -19,2 -36,19 -75,77 -27,41 -60,79 -73,85 -12,5 -22,15 -22,21 0,18 32,42 69,51 38,10 54,33 23,33 -11,0 -25,7 -32,15 -18,21 -34,19 -69,-11 -39,-33 -55,-27 -73,28 -15,45 -41,61 -52,33 z"
           id="path3908" />
      </g>
    </g>
    <g
       id="g3830"
       transform="translate(64.847923,600.47395)"
       style="fill:none;stroke:#000000;stroke-opacity:1">
      <path
         id="path3810"
         d="m 145.006,22.975 c 5.286,0.621 11.239,-0.372 14.977,-4.41 4.154,-4.488 1.833,-10.214 -3.313,-11.93 -6.321,-2.108 -13.798,-0.922 -20.167,0.255 -8.177,1.51 -16.468,4.403 -23.523,8.846 -7.24,4.56 -11.323,10.117 -13.465,18.408 -1.963,7.6 0.882,13.965 8.568,16.113 6.264,1.75 18.118,2.783 23.202,-2.167 6.152,-5.99 -7.731,-8.002 -10.811,-8.041 -8.588,-0.109 -18.211,2.841 -26.187,5.803 -8.245,3.063 -16.101,7.392 -21.828,14.206 -5.29,6.294 -7.829,15.58 -5.871,23.635 1.407,5.787 6.725,8.669 12.145,9.736 12.508,2.463 28.275,-3.221 38.311,-10.534 2.904,-2.116 6.708,-5.691 4.768,-9.563 -3.177,-6.34 -14.9,-4.835 -19.999,-2.818 -6.127,2.423 -11.733,8.407 -5.042,13.762 2.054,1.644 7.093,-1.277 4.456,-3.387 -6.548,-5.24 11.015,-11.314 15.285,-4.982 1.623,2.407 -8.402,7.375 -9.604,7.966 -8.611,4.239 -31.214,11.883 -34.7,-2.455 -2.35,-9.664 3.391,-19.3 10.776,-24.946 7.25,-5.542 16.466,-8.316 25.235,-10.338 4.823,-1.113 9.755,-2.127 14.72,-1.56 0.575,0.065 3.984,1.195 3.864,1.372 -1.014,1.492 -6.077,1.003 -7.641,1.026 -3.892,0.058 -8.328,-0.133 -11.661,-2.366 -4.147,-2.778 -2.698,-9.083 -1.527,-12.982 4.288,-14.277 22.423,-19.625 35.646,-21.301 3.598,-0.456 11.161,-1.638 14.008,1.505 2.261,2.496 -1.08,5.915 -3.391,6.571 -1.649,0.468 -3.545,0.491 -5.245,0.291 -2.889,-0.339 -5.898,3.825 -1.986,4.285 l 0,0 z"
         inkscape:connector-curvature="0"
         style="fill:none;stroke:#000000;stroke-opacity:1" />
      <path
         id="path3812"
         d="m 190.897,53.535 c -4.354,-4.35 -10.06,-7.438 -16.004,-8.931 -11.199,-2.811 -21.351,2.128 -29.736,9.291 -7.469,6.38 -13.437,15.032 -15.815,24.615 -1.021,4.112 -1.385,11.529 4.224,12.146 4.962,0.546 10.473,-2.361 14.787,-4.403 7.523,-3.562 14.667,-7.967 21.62,-12.524 13.146,-8.617 28.65,-19.023 37.039,-32.711 2.285,-3.729 5.646,-10.822 1.333,-14.327 -4.39,-3.567 -11.879,1.21 -15.442,3.724 -8.483,5.985 -14.773,15.062 -19.52,24.138 -4.02,7.686 -8.675,17.737 -7.974,26.686 1.442,18.405 28.388,4.692 36.374,0.465 6.587,-3.487 16.616,-7.689 20.939,-14.234 2.47,-3.74 -1.213,-5.419 -4.532,-5.429 -6.833,-0.019 -12.984,4.257 -15.345,10.638 -2.786,7.532 3.283,13.104 10.492,12.602 1.954,-0.136 15.662,-4.629 16.373,-3.101 1.267,2.725 -1.87,7.605 -3.069,9.94 -1.574,3.065 -3.401,6.005 -5.265,8.901 -9.786,15.208 -21.142,29.54 -32.973,43.196 -5.059,5.838 -10.273,11.625 -16.026,16.793 -1.64,1.473 -3.37,2.995 -5.281,4.11 -1.858,1.084 0.056,0.992 0.012,0.197 -0.307,-5.576 4.082,-12.114 6.642,-16.737 5.156,-9.311 11.297,-18.083 17.667,-26.594 15.372,-20.541 33.027,-38.424 53.221,-54.208 3.855,-3.014 7.754,-5.977 11.75,-8.804 1.533,-1.084 4.409,-3.136 5.49,-3.45 -4.781,1.389 -2.104,-3.28 -3.005,-1.554 0.165,-0.315 -0.463,0.631 -0.381,0.521 -0.592,0.794 -1.263,1.532 -1.924,2.267 -2.368,2.632 -4.935,5.092 -7.504,7.524 -6.403,6.062 -15.186,14.937 -12.764,24.761 1.845,7.485 11.088,6.099 16.006,3.073 7.848,-4.829 14.675,-12.136 20.34,-19.315 3.22,-4.08 9.817,-12.317 6.078,-17.776 -3.545,-5.174 -10.31,-1.09 -12.152,3.16 -2.687,6.197 -2.097,14.722 -0.002,20.985 5.538,16.562 26.05,-2.146 31.069,-9.687 2.786,-4.186 5.234,-12.193 -1.413,-14.485 -5.599,-1.931 -7.756,3.825 -5.466,8.056 4.347,8.035 13.461,6.444 21.058,5.813 4.808,-0.399 9.947,-0.645 14.556,1.006 5.07,1.816 4.5,7.146 3.288,11.381 -1.153,4.031 -3.671,8.498 -3.718,12.751 -0.053,4.783 5.87,3.155 8.479,1.904 9.015,-4.321 17.246,-11.293 25.106,-17.348 8.735,-6.729 17.072,-13.976 25.331,-21.275 13.116,-11.593 25.556,-24.792 39.874,-34.926 0.587,-0.415 1.18,-0.778 1.831,-1.081 -1.837,0.854 -2.376,-1.974 -2.805,-0.603 -0.888,2.844 -2.776,5.511 -4.322,8.018 -5.204,8.439 -11.235,16.392 -17.1,24.375 -5.934,8.079 -11.936,16.12 -17.48,24.475 -3.438,5.179 -7.503,10.883 -8.732,17.098 -0.96,4.854 3.549,6.956 7.553,5.055 5.838,-2.772 9.621,-10.836 12.407,-16.219 5.838,-11.28 15.875,-37.757 -3.456,-42.522 -7.504,-1.85 -13.505,3.219 -14.922,10.373 -1.111,5.609 1.804,10.775 6.174,14.067 5.972,4.499 14.214,5.298 21.42,5.238 12.109,-0.1 24.089,-3.95 35.193,-8.455 10.331,-4.191 20.497,-9.338 29.983,-15.207 1,-0.619 1.994,-1.247 2.979,-1.889 0.234,-0.152 1.848,-1.179 1.093,-0.725 -1.329,0.797 -3.412,-2.745 -3.918,-2.028 -0.481,0.682 -0.958,1.365 -1.418,2.061 -3.676,5.566 -5.382,11.751 -8.122,17.751 -3.982,8.724 -10.347,16.472 -16.868,23.417 -2.998,3.194 -6.213,6.278 -9.816,8.788 -0.482,0.336 -0.997,0.602 -1.532,0.845 2.07,-0.941 2.104,2.105 2.468,0.243 0.353,-1.805 1.766,-3.696 2.691,-5.233 1.703,-2.826 -4.205,-2.998 -5.563,-0.744 -1.301,2.157 -3.684,5.417 -2.998,8.146 0.66,2.628 4.278,1.816 6.01,1.16 7.383,-2.802 13.961,-11.452 18.827,-17.244 7.172,-8.534 11.669,-17.429 15.82,-27.639 1.191,-2.93 2.679,-5.766 4.445,-8.389 0.764,-1.133 2.059,-2.336 1.86,-3.804 -0.076,-0.57 -0.737,-1.075 -1.24,-1.233 -3.367,-1.062 -8.117,3.463 -10.734,4.999 -11.29,6.625 -23.395,12.469 -35.829,16.559 -10.35,3.403 -21.76,5.569 -32.577,3.296 -5.916,-1.243 -11.712,-4.923 -12.622,-11.28 -0.479,-3.345 0.978,-8.581 4.875,-9.031 4.889,-0.565 8.22,5.018 9.349,8.909 2.393,8.251 -2.298,18.472 -5.657,25.799 -1.8,3.923 -3.898,7.734 -6.348,11.289 -0.92,1.334 -1.937,2.596 -3.03,3.792 -0.409,0.448 -0.867,0.822 -1.344,1.195 -0.719,0.563 1.108,0.533 0.834,0.179 -2.311,-2.987 5.063,-12.818 6.495,-15.056 10.694,-16.721 23.569,-31.942 34.422,-48.561 2.079,-3.183 7.555,-9.47 6.606,-13.732 -0.956,-4.292 -7.54,-0.112 -9.221,1.077 -14.522,10.279 -27.15,23.757 -40.453,35.516 -8.229,7.273 -16.581,14.419 -25.283,21.122 -4.822,3.714 -9.768,7.284 -14.767,10.756 -2.827,1.964 -5.91,4.419 -9.208,5.561 -0.926,0.321 1.059,-0.106 1.122,0.765 -0.05,-0.685 0.151,-1.407 0.31,-2.065 0.563,-2.35 1.521,-4.633 2.276,-6.926 2.142,-6.504 3.931,-14.229 -3.318,-18.097 -8.802,-4.697 -18.853,-0.733 -28.095,-1.315 -3.453,-0.217 -6.385,-2.637 -7.322,-5.919 -0.133,-0.465 -0.133,-0.865 -0.089,-1.337 -0.938,0.335 -1.876,0.67 -2.814,1.005 0.403,0.258 0.764,0.566 1.083,0.926 1.192,1.241 0.951,3.034 0.476,4.531 -2.224,7.007 -10.505,14.317 -17.337,16.64 -6.427,2.185 -6.275,-12.893 -6.041,-16.292 0.12,-1.737 0.41,-3.489 0.933,-5.151 0.207,-0.658 0.506,-1.274 0.819,-1.886 0.441,-0.861 0.921,-0.483 -0.03,-0.552 3.214,0.232 -0.411,7.024 -0.966,8.042 -4.679,8.58 -12.617,16.18 -20.297,22.064 -2.671,2.046 -6.617,4.829 -9.003,1.047 -2.854,-4.523 2.03,-11.669 4.571,-15.009 4.676,-6.147 11.265,-10.661 16.14,-16.676 2.198,-2.711 2.021,-6.514 -2.56,-5.184 -5.91,1.717 -11.561,7.22 -16.305,10.838 -20.043,15.286 -37.689,32.371 -53.329,52.163 -6.758,8.553 -13.059,17.469 -18.815,26.726 -3.922,6.306 -7.91,12.991 -10.083,20.141 -0.854,2.81 -1.872,8.18 2.447,8.649 4.094,0.445 7.842,-2.811 10.741,-5.267 12.539,-10.624 23.041,-24.095 33.112,-36.985 9.569,-12.246 20.53,-25.476 26.246,-40.109 2.192,-5.613 0.965,-10.46 -5.787,-10.049 -5.28,0.321 -13.375,5.489 -18.326,2.748 -7.308,-4.046 2.129,-15.609 7.692,-13.822 -0.686,-0.22 -0.085,-1.185 -0.517,-0.531 -0.61,0.924 -1.528,1.629 -2.374,2.32 -4.376,3.573 -9.51,6.275 -14.445,8.973 -5.192,2.839 -10.502,5.552 -16.125,7.436 -3.208,1.075 -7.133,2.207 -10.444,0.96 -6.54,-2.462 -1.473,-15.585 -0.046,-19.515 4.107,-11.31 10.351,-22.221 19.354,-30.337 2.384,-2.149 12.212,-10.164 10.691,-1.979 -1.255,6.754 -7.305,12.481 -12.049,16.975 -6.618,6.269 -13.953,11.795 -21.426,16.996 -8.188,5.698 -16.757,10.983 -25.783,15.256 -2.751,1.302 -5.581,2.503 -8.563,3.154 -0.403,0.088 -1.371,-0.042 -0.985,0.181 -0.712,-0.411 -0.784,-3.591 -0.75,-4.646 0.408,-12.836 12.172,-24.985 22.569,-30.944 6.587,-3.776 14.041,-2.981 20.669,0.095 1.958,0.909 3.774,2.156 5.499,3.444 0.49,0.366 2.688,2.316 2.177,1.806 1.917,1.919 7.389,-0.5 5.29,-2.597 l 0,0 z"
         inkscape:connector-curvature="0"
         style="fill:none;stroke:#000000;stroke-opacity:1" />
      <path
         id="path3814"
         d="m 457.656,41.308 c 0.884,-0.298 -1.853,0.382 -2.514,0.445 -2.346,0.224 -4.537,-0.389 -6.239,-2.04 -3.918,-3.8 -1.605,-11.558 1.723,-14.953 7.596,-7.749 21.944,-8.888 31.966,-6.954 5.052,0.975 10.096,3.261 13.272,7.443 4.343,5.719 2.861,13.208 1.266,19.607 -1.643,6.583 -6.82,19.829 -15.735,15.48 -1.544,-0.753 -6.185,1.637 -5.455,1.993 7.63,3.722 17.071,-0.418 21.809,-6.723 4.998,-6.652 7.949,-17.77 6.469,-26.021 -1.077,-6.001 -5.88,-10.146 -11.263,-12.375 -12.104,-5.009 -27.469,-2.677 -39.13,2.455 -4.593,2.021 -9.549,5.188 -11.577,9.985 -2.494,5.895 -0.653,13.22 6.112,14.373 3.716,0.633 7.782,-0.138 11.318,-1.332 3.918,-1.321 0.209,-2.136 -2.022,-1.383 l 0,0 z"
         inkscape:connector-curvature="0"
         style="fill:none;stroke:#000000;stroke-opacity:1" />
      <path
         id="path3816"
         d="m 526.079,72.906 c 2.555,-6.532 1.114,-13.343 -6.805,-14.133 -14.078,-1.405 -28.519,10.055 -31.146,23.582 -0.931,4.794 -0.21,10.513 3.205,14.207 3.561,3.852 9.817,1.649 13.631,-0.486 8.844,-4.952 16.75,-13.813 18.736,-23.777 -1.322,0.739 -2.646,1.479 -3.968,2.218 0.002,0 0.005,0.001 0.008,0.001 -0.618,-0.391 -1.235,-0.782 -1.853,-1.172 2.186,8.701 7.855,13.551 17.329,13.176 11.369,-0.45 22.38,-6.16 32.432,-10.987 5.704,-2.739 12.976,-5.954 16.727,-11.352 1.902,-2.738 1.549,-5.414 -0.031,-8.175 -2.615,-4.568 -9.776,-1.742 -13.285,-0.034 -13.515,6.577 -27.74,26.413 -17.388,41.025 4.992,7.047 15.164,9.036 23.168,9.698 7.493,0.62 15.985,0.287 23.063,-2.498 3.726,-1.466 0.391,-4.191 -2.473,-3.064 -5.588,2.199 -12.634,2.054 -18.5,1.665 -7.754,-0.514 -16.504,-2.682 -20.875,-9.681 -5.156,-8.254 0.123,-19.785 5.694,-26.278 1.67,-1.947 12.75,-12.586 15.263,-8.377 1.686,2.825 0.457,5.006 -1.903,6.979 -7.958,6.648 -19.034,10.502 -28.51,14.291 -6.577,2.63 -16.45,5.352 -21.961,-0.79 -1.896,-2.114 -2.297,-4.534 -2.955,-7.151 -0.207,-0.825 -1.134,-1.066 -1.852,-1.172 -0.003,0 -0.006,-10e-4 -0.008,-10e-4 -1.427,-0.211 -3.655,0.647 -3.969,2.218 -1.367,6.862 -5.517,11.874 -10.662,16.604 -1.91,1.756 -7.728,7.093 -10.527,4.664 -2.813,-2.439 -3.166,-7.076 -2.929,-10.489 0.809,-11.631 11.179,-19.858 22.273,-20.935 6.086,-0.591 6.092,5.872 4.576,9.746 -1.16,2.974 4.646,2.648 5.495,0.478 l 0,0 z"
         inkscape:connector-curvature="0"
         style="fill:none;stroke:#000000;stroke-opacity:1" />
      <path
         id="path3818"
         d="m 27.034,138.676 c -5.781,-0.201 -12.251,-0.093 -17.57,2.411 -3.815,1.796 -5.262,6.358 -0.875,8.227 4.77,2.032 10.942,1.43 15.979,1.438 11.998,0.018 23.991,-0.271 35.989,-0.168 33.871,0.291 67.557,-8.311 100.734,-14.234 54.417,-9.717 109.219,-17.368 164.495,-19.748 30.815,-1.327 61.701,-0.752 92.489,0.998 19.363,1.101 38.878,2.618 57.946,6.305 5.092,0.985 10.203,2.204 15.061,4.045 2.149,0.814 4.81,1.867 5.972,3.833 0.381,0.644 -0.311,1.312 -1.362,1.879 -2.895,1.562 -6.266,2.229 -9.551,2.876 -18.374,3.618 -37.887,2.949 -56.486,3.448 -21.302,0.572 -43.802,2.058 -64.927,-1.588 -1.754,-0.303 -3.756,-0.676 -5.242,-1.714 -0.357,-0.25 -0.005,0.116 -0.53,0.526 0.127,-0.099 1.422,-0.358 1.966,-0.441 6.802,-1.035 14.031,-0.191 20.773,0.857 8.224,1.279 24.937,4.712 24.595,14.876 -0.306,9.063 -6.4,17.354 -12.775,23.496 -14.13,13.612 -34.185,20.283 -52.884,24.542 -38.072,8.67 -78.274,7.732 -116.942,4.733 -23.726,-1.84 -47.351,-4.893 -70.854,-8.597 -2.701,-0.425 -5.96,3.368 -2.068,3.981 48.821,7.695 98.7,12.956 148.159,9.58 26.75,-1.826 54.643,-6.245 78.804,-18.486 12.314,-6.239 24.374,-15.165 30.855,-27.677 1.794,-3.465 3.151,-7.323 3.503,-11.228 0.806,-8.923 -7.409,-13.327 -14.813,-15.96 -7.281,-2.59 -15.174,-3.757 -22.854,-4.298 -5.602,-0.394 -11.996,-0.728 -17.361,1.247 -3.183,1.171 -5.021,4.307 -1.535,6.408 4.532,2.732 11.173,2.805 16.258,3.23 24.429,2.039 49.286,0.853 73.738,-0.022 14.931,-0.534 30.425,-0.414 45.057,-3.963 4.018,-0.975 12.806,-3.171 12.361,-8.762 -0.434,-5.464 -11.982,-7.782 -15.774,-8.782 -15.678,-4.136 -32.128,-5.662 -48.232,-7.017 -28.09,-2.364 -56.387,-3.226 -84.567,-3.025 -57.353,0.409 -114.439,7.208 -170.938,16.69 -21.442,3.598 -42.807,7.633 -64.208,11.462 -14.895,2.665 -29.921,5.494 -45.046,6.445 -8.715,0.548 -17.508,0.038 -26.236,0.071 -8.919,0.034 -17.846,0.322 -26.765,0.157 -1.725,-0.032 -8.887,0.378 -9.687,-1.462 -1.051,-2.418 11.442,-2.672 13.283,-2.608 2.646,0.092 5.993,-3.844 2.065,-3.981 l 0,0 z"
         inkscape:connector-curvature="0"
         style="fill:none;stroke:#000000;stroke-opacity:1" />
      <path
         id="path3820"
         d="m 261.302,203.11 c 3.778,4.889 7.556,9.777 11.333,14.667 1.149,1.487 6.735,-0.486 5.396,-2.22 -3.778,-4.889 -7.556,-9.777 -11.333,-14.667 -1.149,-1.487 -6.735,0.486 -5.396,2.22 l 0,0 z"
         inkscape:connector-curvature="0"
         style="fill:none;stroke:#000000;stroke-opacity:1" />
      <path
         id="path3822"
         d="m 271.781,201.727 c 1.948,1.736 3.832,3.548 5.657,5.412 2.15,2.194 5.628,5.174 6.331,8.304 0.634,2.823 6.436,1.298 5.796,-1.553 -0.814,-3.629 -4.365,-6.808 -6.836,-9.362 -2.091,-2.161 -4.265,-4.254 -6.509,-6.255 -2.034,-1.812 -7.007,1.166 -4.439,3.454 l 0,0 z"
         inkscape:connector-curvature="0"
         style="fill:none;stroke:#000000;stroke-opacity:1" />
    </g>
  </g>
</svg>
