<?xml version="1.0" encoding="UTF-8" standalone="no"?><!DOCTYPE svg PUBLIC "-//W3C//DTD SVG 1.0//EN"
	"http://www.w3.org/TR/2001/REC-SVG-20010904/DTD/svg10.dtd">
<svg
   xmlns:svg="http://www.w3.org/2000/svg"
   xmlns="http://www.w3.org/2000/svg"
   version="1.0"
   width="600"
   height="600"
   id="svg2">
  <defs
     id="defs4" />
  <g
     transform="translate(-63.088473,-194.41656)"
     id="layer1">
    <g
       transform="matrix(3.1419221,0,0,3.1419221,-610.90739,-606.39413)"
       id="g3613">
      <path
         d="M 329.64285 342.71933 A 25 25 0 1 1  279.64285,342.71933 A 25 25 0 1 1  329.64285 342.71933 z"
         transform="matrix(3.7393181,0,0,3.7393181,-829.15653,-931.17441)"
         style="opacity:1;fill:#d2b48c;fill-opacity:1;stroke:#000000;stroke-width:1.06971371;stroke-miterlimit:4;stroke-dasharray:none;stroke-opacity:1"
         id="path2382" />
      <path
         d="M 284.125,268.375 C 259.91565,275.95485 240.8142,293.85156 232.875,316.4375 L 242.1875,323.625 L 228.875,340.125 C 228.9447,361.21126 238.40244,380.19498 253.5,393.84375 L 283.65625,388.90625 L 271.53125,406.21875 C 280.64225,410.80327 290.77355,413.89014 301.5625,414.9375 L 310,400.40625 L 318.4375,414.9375 C 329.22645,413.89014 339.35775,410.80327 348.46875,406.21875 L 336.34375,388.90625 L 366.5,393.84375 C 381.59756,380.19498 391.0553,361.21126 391.125,340.125 L 377.8125,323.625 L 387.125,316.4375 C 379.1858,293.85156 360.08435,275.95485 335.875,268.375 C 349.73886,277.36722 358.96874,293.41126 358.96875,311.625 C 358.96875,331.26956 341.70769,352.29997 326,360.78125 C 326.9982,370.76324 322.21804,385.74111 310,390.03125 C 297.78196,385.74111 293.0018,370.76324 294,360.78125 C 278.29231,352.29997 261.03125,331.26956 261.03125,311.625 C 261.03126,293.41126 270.26114,277.36722 284.125,268.375 z M 309.34375,269.875 C 306.35596,272.96115 298.9375,282.46875 298.9375,282.46875 C 298.66455,282.799 298.66454,283.32601 298.9375,283.65625 L 309.34375,296.25 C 309.76325,296.59667 310.3012,296.58604 310.65625,296.25 C 313.72118,293.34917 321.0625,283.65625 321.0625,283.65625 C 321.33546,283.32601 321.33545,282.799 321.0625,282.46875 C 321.0625,282.46875 313.62706,272.98126 310.65625,269.875 C 310.16961,269.36617 309.83029,269.37244 309.34375,269.875 z M 293,289.78125 L 285,298.78125 C 313,316.78125 308,344.78125 299,354.78125 C 300.87243,364.99329 303.94922,374.01269 310,380.78125 C 316.05078,374.01269 319.12757,364.99329 321,354.78125 C 312,344.78125 307,316.78125 335,298.78125 L 327,289.78125 L 315,298.78125 C 312.67187,300.64375 311.43188,301.62557 310,302.09375 C 308.56812,301.62557 307.32813,300.64375 305,298.78125 L 293,289.78125 z M 255.5,403.5 C 252.47162,403.50001 250.09379,406.00281 250.09375,409.03125 C 250.09374,412.05963 252.47157,414.46871 255.5,414.46875 C 258.52841,414.46874 261.03121,412.05956 261.03125,409.03125 C 261.03126,406.00284 258.52832,403.50004 255.5,403.5 z M 364.5,403.5 C 361.47168,403.50004 358.96874,406.00284 358.96875,409.03125 C 358.96879,412.05956 361.47159,414.46874 364.5,414.46875 C 367.52843,414.46871 369.90626,412.05963 369.90625,409.03125 C 369.90621,406.00281 367.52838,403.50001 364.5,403.5 z M 277.40625,417.0625 C 274.37787,417.06251 271.99996,419.56532 272,422.59375 C 271.99999,425.62213 274.37786,427.99996 277.40625,428 C 280.43466,427.99999 282.96875,425.62207 282.96875,422.59375 C 282.96874,419.56534 280.43465,417.06254 277.40625,417.0625 z M 342.59375,417.0625 C 339.56535,417.06254 337.03126,419.56534 337.03125,422.59375 C 337.03125,425.62207 339.56534,427.99999 342.59375,428 C 345.62214,427.99996 348.00001,425.62213 348,422.59375 C 348.00004,419.56532 345.62213,417.06251 342.59375,417.0625 z M 309.8125,421.65625 C 305.53938,421.65623 302.15625,425.16433 302.15625,429.4375 C 302.15622,433.71068 305.53933,437.09375 309.8125,437.09375 C 309.8765,437.09375 309.93636,437.09526 310,437.09375 C 310.06364,437.09526 310.1235,437.09375 310.1875,437.09375 C 314.46067,437.09375 317.84378,433.71068 317.84375,429.4375 C 317.84375,425.16433 314.46062,421.65623 310.1875,421.65625 C 310.1235,421.65625 310.06364,421.65469 310,421.65625 C 309.93636,421.65469 309.8765,421.65625 309.8125,421.65625 z "
         style="opacity:1;fill:#000000;fill-opacity:1;stroke:none;stroke-width:0.5;stroke-miterlimit:4;stroke-dasharray:none;stroke-opacity:1"
         id="path2384" />
    </g>
  </g>
</svg>
