<?xml version="1.0" encoding="UTF-8" standalone="no"?>
<!-- Created with Inkscape (http://www.inkscape.org/) -->
<svg xmlns:dc="http://purl.org/dc/elements/1.1/" xmlns:cc="http://creativecommons.org/ns#" xmlns:rdf="http://www.w3.org/1999/02/22-rdf-syntax-ns#" xmlns:svg="http://www.w3.org/2000/svg" xmlns="http://www.w3.org/2000/svg" xmlns:sodipodi="http://sodipodi.sourceforge.net/DTD/sodipodi-0.dtd" xmlns:inkscape="http://www.inkscape.org/namespaces/inkscape" width="1550.0206" height="411.02893" id="svg4022" version="1.1" inkscape:version="0.48.4 r9939" sodipodi:docname="Kraken_afsnitdeler02.svg">
  <defs id="defs4024"/>
  <sodipodi:namedview id="base" pagecolor="#ffffff" bordercolor="#666666" borderopacity="1.0" inkscape:pageopacity="0.0" inkscape:pageshadow="2" inkscape:zoom="0.84433705" inkscape:cx="714.11101" inkscape:cy="-52.519817" inkscape:document-units="px" inkscape:current-layer="layer1" showgrid="false" fit-margin-top="0" fit-margin-left="0" fit-margin-right="0" fit-margin-bottom="0" inkscape:window-width="2560" inkscape:window-height="1356" inkscape:window-x="-7" inkscape:window-y="-10" inkscape:window-maximized="1"/>
  <metadata id="metadata4027">
    <rdf:RDF>
      <cc:Work rdf:about="">
        <dc:format>image/svg+xml</dc:format>
        <dc:type rdf:resource="http://purl.org/dc/dcmitype/StillImage"/>
        <dc:title/>
      </cc:Work>
    </rdf:RDF>
  </metadata>
  <g inkscape:label="Layer 1" inkscape:groupmode="layer" id="layer1" transform="translate(412.79198,-32.150802)">
    <path style="fill:#000000" d="m 200.10548,289.65036 c -8.94081,29.25745 -11.9278,51.69174 -15.70017,80 -14.36496,-25.2946 -25.83551,-44.96693 -43.20982,-69.52318 -0.003,0.99866 -10.27047,36.93045 -12.36625,43.42609 -27.43816,-30.16744 -45.477012,-49.72793 -80.607234,-77.78433 -25.383082,12.21525 -45.278728,16.71857 -71.32703,16.84131 -11.801354,8.17147 -30.917999,20.69185 -40.907799,23.12846 -30.115407,-19.24354 -57.504287,-34.91521 -91.681087,-52.03761 -33.67218,19.9162 -66.729,30.74978 -96.72811,30.94336 -29.66725,0.19144 -48.69805,-9.5706 -63.58334,-32.03489 l -4.99668,-7.54079 c -3.82461,5.23589 -11.24504,13.35665 -18.58479,16.83392 -10.34948,4.90315 -20.80523,-0.16431 -29.38455,-13.5198 l -3.06253,-4.76747 -7.14876,6.76747 c -10.70755,10.13645 -16.93319,11.44544 -25.36957,5.33416 -5.57334,-4.03731 -8.25077,-10.01865 -8.25077,-18.43208 0,-3.96143 0.60378,-7.90152 1.46647,-9.56978 3.39514,-6.56548 17.62962,-16.08855 23.97987,-16.04288 4.80789,0.0346 10.77754,3.28942 15.15584,8.26344 l 4.02477,4.57238 7.15902,-7.82637 c 4.14486,-4.53123 8.98765,-8.71159 11.50225,-9.92889 5.00893,-2.42478 12.24881,-2.74436 16.9939,-0.75014 8.02323,4.15562 11.43094,11.77257 15.69529,17.586 22.17335,-27.37659 35.41652,-42.69786 69.52259,-42.16842 40.1048,0.62256 67.868,17.36462 97.51453,32.89084 24.3542,-14.12079 42.29591,-25.5735 61.051446,-43.13112 13.269467,4.69329 22.081499,8.41565 33.78417,13.41415 50.191871,-20.39639 91.529687,2.12827 104.233254,8.66348 12.025654,-15.44962 24.558902,-38.47564 33.019686,-52.60731 6.247915,15.88072 15.937417,38.79211 34.899294,64 26.16753,-27.55318 50.34225,-66.64809 68.50532,-97.90546 5.80437,25.0121 11.36866,50.33787 19.83759,74.25691 C 260.22176,53.804987 321.32212,30.627587 367.95106,31.198187 c 78.62965,0.9622 127.58508,82.834223 154.82246,144.710153 6.57143,-24.17241 12.60026,-48.90525 18.90536,-73.1405 23.21674,42.44858 40.24144,68.91436 71.84971,102.72488 16.67945,-22.32568 30.1445,-51.99902 34.91985,-64.91607 11.21833,20.41687 19.75917,34.74573 32.90935,52.86203 42.93861,-21.9384 72.28447,-20.38067 104.3707,-8.69117 10.15236,-3.49579 18.72958,-8.96968 33.4877,-13.09715 20.81508,16.41159 39.14655,29.54457 60.6672,43.06866 25.57453,-14.28844 58.83959,-32.48135 95.77548,-33.25455 40.31763,-0.84399 52.51603,17.8052 69.24613,42.12556 5.5756,-6.32484 10.4081,-13.17731 17.5021,-17.01849 4.6466,-2.51601 12.0336,-2.45107 17.2898,-0.0502 8.9801,4.85547 12.3827,10.92974 17.5215,19.12129 12.5273,-13.06469 18.8344,-17.52702 31.1578,-10.09353 8.2289,4.96367 11.1635,16.37281 6.9508,25.60123 -1.0043,2.2 -5.0036,6.99105 -8.8874,10.64678 -8.4658,7.96874 -12.6241,9.53453 -19.4255,6.035 -7.5828,-3.90158 -10.0126,-7.62525 -14.96,-13.50497 -6.1385,5.46652 -11.3613,13.99228 -18.9602,17.28433 -17.2243,6.9523 -22.1394,-2.38055 -32.187,-16.86434 -16.6823,27.38837 -38.5351,38.75176 -64.20991,39.58359 -45.16579,1.46331 -83.45582,-18.50049 -98.46598,-28.47423 -27.48309,11.94118 -67.10798,37.06036 -89.21402,49.79384 -15.65474,-6.56219 -27.31891,-14.41968 -41.2532,-23.5 -26.26129,0.47053 -48.34503,-2.52757 -73.20107,-14.08046 -30.90163,23.9926 -52.54406,47.78637 -78.13853,75.99331 -5.1537,-19.50373 -9.02776,-32.58138 -14.15283,-48.35894 -16.55456,19.32604 -31.91656,46.55951 -43.72528,63.62851 -4.83825,-20.15575 -6.71338,-41.42088 -14.18062,-63.68242 -38.21743,79.11864 -78.10514,148.3268 -160.66847,148.49189 -92.85932,0.18568 -131.87733,-93.14723 -163.59151,-154.49186 z m 320.95158,-5.94844 c -4.7577,-12.39909 -8.02258,-25.44037 -13.15919,-37.68401 -33.69874,97.68565 -71.08674,167.40195 -144.38809,168.71162 -63.39334,-0.16122 -94.1358,-46.52007 -113.50732,-84.45351 -6.30711,-12.52485 -21.74187,-48.26108 -28.88137,-66.86928 -3.53325,-9.20899 -6.6491,-16.74512 -6.9241,-16.74694 -3.74302,8.78665 -5.86212,15.77732 -9.1626,25.49056 l 3.66025,8.69969 c 49.45286,104.48679 93.25679,149.95315 154.79885,151.13872 88.87252,1.71207 119.75109,-73.43029 157.56357,-148.28685 z M 364.97676,403.59995 C 444.16411,404.11996 470.99814,323.6782 502.49465,235.46611 475.30727,157.67686 438.61784,67.460647 367.95106,67.709377 301.41914,67.943547 257.99438,128.31237 222.15284,229.84887 c 0.52795,1.26582 4.42326,11.30149 8.65625,22.30149 28.63089,74.08205 55.99433,150.93624 134.16767,151.44959 z M 262.20519,235.62413 c 0.68215,-84.04911 41.48936,-155.841693 107.74587,-154.207883 70.24121,1.73207 96.96029,97.703563 95.93414,155.215263 -1.0819,60.63602 -39.64542,148.73651 -103.48356,148.4395 -76.11402,-0.35413 -100.01621,-87.42048 -100.19645,-149.44688 z m 194.10463,-0.0299 C 452.61839,155.78472 421.87831,92.038407 369.95106,91.067617 c -71.48692,-1.33646 -96.90502,69.486693 -96.72433,149.082743 0.17889,78.80082 40.68794,132.50989 89.20606,131.34701 56.86759,-1.363 96.31447,-58.56136 93.87703,-135.90314 z M 345.49289,341.64416 c -3.8485,-4.412 -7.47316,-17.09282 -5.78657,-20.24424 0.58122,-1.08602 4.87094,-3.82075 9.53271,-6.07718 9.58074,-4.63734 10.12655,-5.52114 8.99632,-14.56721 l -0.69997,-5.60238 -4.66299,7.62258 c -4.9269,8.05399 -8.33261,10.55636 -16.35271,12.01526 -4.36846,0.79465 -8.03234,4.71554 -11.54342,12.35317 -2.61162,5.68103 -2.96425,5.92298 -5.70824,3.91652 -1.60705,-1.1751 -1.68061,-1.76687 -0.61934,-4.98255 1.87459,-5.68004 8.67745,-12.24582 17.56072,-16.9487 l 8,-4.23527 4.92574,-9.84663 c 5.92632,-11.84681 6.47071,-16.00677 4.0883,-31.24065 -1.56506,-10.00747 -3.94266,-18.31743 -4.95208,-17.30801 -0.22648,0.22648 0.27244,3.10807 1.10871,6.40354 0.91613,3.61015 1.55224,10.83006 1.60035,18.16423 0.0778,11.85732 -0.007,12.3484 -3.26518,18.96722 -6.27111,12.73844 -12.70741,17.28408 -27.25502,19.24885 -3.16204,0.42706 -6.01145,1.03875 -6.33201,1.35931 -0.32056,0.32056 -1.13771,2.7579 -1.81587,5.41632 -1.65064,6.47049 -4.60294,7.3537 -4.60294,1.37703 0,-4.2289 2.02759,-10.32219 3.7991,-11.41705 0.55174,-0.34099 4.42065,-1.27386 8.59757,-2.07304 10.62266,-2.03245 14.05293,-3.93621 18.64355,-10.34694 3.81014,-5.32079 3.95978,-5.82753 3.95978,-13.40913 0,-10.64323 -2.47255,-21.89076 -6.30512,-28.6817 -4.55379,-8.06888 -4.60414,-4.30671 -0.11561,8.6386 4.62567,13.34082 5.31293,24.21535 1.82782,28.92173 -4.87266,6.58017 -16.58619,12.91733 -25.97602,14.05334 -5.12899,0.62052 -7.07091,-1.14253 -7.98698,-7.25126 -0.78351,-5.22483 -1.89837,-6.36396 -3.4291,-3.50377 -1.40906,2.63286 -4.01499,2.61881 -4.01499,-0.0217 0,-3.05026 2.82986,-7.95034 4.59142,-7.95034 4.16578,0 8.40858,5.27304 8.40858,10.45034 0,2.22472 0.4263,2.54966 3.34496,2.54966 4.37308,0 14.61566,-6.58218 17.49679,-11.24394 3.43612,-5.55976 2.81077,-9.16352 -3.96843,-22.86941 -5.16785,-10.44815 -6.20615,-13.44336 -6.63452,-19.13879 -0.45941,-6.10821 -0.2566,-7.11467 2.12668,-10.55375 1.44899,-2.09088 2.63452,-4.56492 2.63452,-5.49786 0,-0.93294 1.70759,-3.40384 3.79465,-5.4909 l 3.79465,-3.79465 c -1.78579,-2.9213 -5.87548,-6.34566 -5.45963,-9.73698 0.31628,-2.57926 2.40221,-2.8702 4.60136,-3.8722 l -3.34772,-7.93775 c -8.82568,-20.92649 -8.39384,-31.0047 2.23886,-52.25077 10.94442,-21.86892 25.96219,-37.613 35.87783,-37.613 9.76817,0 24.68305,15.64456 35.52659,37.26467 6.88116,13.71982 9.36252,22.539 8.64766,30.73533 -0.59645,6.83872 -3.88011,17.56288 -7.6257,24.90483 -1.7991,3.52653 -1.96993,4.5298 -0.88808,5.21551 0.73674,0.46697 1.62889,0.85593 1.98254,0.86435 1.29137,0.0308 1.77695,3.09563 0.86887,5.48406 -0.51261,1.34826 -1.88399,3.40336 -3.04753,4.5669 l -2.11551,2.11551 3.56636,3.46361 c 1.9615,1.90498 3.86396,4.68347 4.22768,6.17442 0.36372,1.49094 1.77132,4.04636 3.12799,5.67869 2.22465,2.67668 2.41931,3.63 1.98388,9.71579 -0.40483,5.65803 -1.47386,8.81288 -6.61878,19.53302 -6.4224,13.38192 -7.23674,17.25397 -4.67189,22.21385 2.84437,5.50041 12.83958,12.06946 18.36441,12.06946 2.64841,0 2.95727,-0.36607 3.45787,-4.09829 0.63882,-4.76274 4.06201,-8.90171 7.36227,-8.90171 2.48237,0 5.35137,4.26237 5.35137,7.95034 0,2.62738 -2.60315,2.6597 -4,0.0497 -1.64841,-3.08008 -2.68026,-2.40178 -3.42273,2.25 -1.44316,9.04169 -4.47607,10.39735 -15.09081,6.74534 -11.91983,-4.10102 -19.77468,-10.68429 -21.08561,-17.67216 -0.95454,-5.08811 1.0361,-16.97726 4.1086,-24.53872 1.39837,-3.44141 2.79081,-8.06327 3.0943,-10.27079 l 0.5518,-4.01367 -3.08466,5 c -3.91278,6.34231 -5.76869,12.67011 -7.02966,23.96799 -1.20197,10.76931 -0.40749,14.45507 4.50179,20.88456 4.41367,5.78041 6.92651,7.09037 17.41939,9.08084 4.59505,0.87166 8.95059,2.07945 9.67899,2.68396 1.64725,1.36709 3.34562,7.29642 3.35302,11.70597 0.009,5.25805 -3.07464,3.80991 -4.59736,-2.15914 -0.67816,-2.65842 -1.43534,-5.0358 -1.68262,-5.28307 -0.24727,-0.24727 -3.32168,-0.89928 -6.83201,-1.44891 -15.03814,-2.35457 -20.91686,-6.65112 -27.27207,-19.9322 -2.96174,-6.18942 -3.10759,-7.07337 -3.05244,-18.5 0.0394,-8.17174 0.61561,-14.02918 1.80604,-18.36062 0.96147,-3.49835 1.56832,-6.54043 1.34856,-6.7602 -0.98722,-0.98721 -3.76369,7.97029 -5.1982,16.77052 -2.7879,17.10283 -2.58589,18.87965 3.56542,31.35635 l 5.42026,10.99391 7.9324,4.24704 c 8.84617,4.73627 11.7724,7.12228 15.02727,12.25296 3.41043,5.37589 3.95105,8.70982 1.61508,9.95999 -2.8195,1.50895 -2.77909,1.54113 -5.62843,-4.48187 -4.06464,-8.59195 -6.72193,-11.18594 -12.7384,-12.43496 -7.44292,-1.54514 -10.35213,-3.85358 -15.23508,-12.08896 l -4.30447,-7.25975 -0.66422,4.42928 c -0.36532,2.43609 -0.51569,5.99234 -0.33418,7.90277 0.31139,3.27734 0.81447,3.71211 8.9082,7.69866 10.89312,5.36538 11.64155,6.73021 8.77953,16.01033 -2.29535,7.44266 -5.21483,12.26451 -7.42579,12.26451 -2.1476,0 -1.75221,-3.86693 1.11751,-10.92934 1.40218,-3.45078 2.40878,-6.69607 2.23689,-7.21174 -0.17189,-0.51566 -4.35663,-3.10124 -9.29942,-5.74572 -11.52348,-6.16526 -12.2211,-7.69222 -10.55964,-23.1132 0.78811,-7.31485 0.81905,-11.55971 0.10201,-13.9934 -1.29416,-4.39247 -1.29361,-16.40401 0.001,-25.36031 0.70643,-4.8866 0.66062,-8.04375 -0.15962,-11 l -1.15043,-4.14629 -1.3941,3.32608 c -1.16722,2.78479 -1.19467,5.33661 -0.16865,15.68 0.9675,9.75337 0.96734,14.00005 -7.2e-4,20.17392 -0.81336,5.18717 -0.94129,10.06549 -0.38,14.48953 1.15946,9.13862 0.15739,17.42362 -2.32906,19.2565 -1.07132,0.78972 -5.43535,3.29842 -9.69785,5.57489 -4.2625,2.27647 -7.75,4.6589 -7.75,5.2943 0,0.63539 1.18449,4.17433 2.6322,7.86431 3.25144,8.28737 2.22838,12.76454 -1.84871,8.09047 z m 12.22678,-123.22965 c -4.01889,-7.96139 -6.26915,-9.2875 -16.68775,-9.83433 -10.34019,-0.54272 -11.99607,0.45774 -7.87574,4.75843 4.05846,4.23612 7.34023,5.14191 12.11994,3.34518 8.05332,-3.02729 8.65785,-2.88949 11.68299,2.66322 3.83913,7.04681 4.42556,6.32782 0.76056,-0.9325 z m 19.04083,-1.14371 c 1.39912,-3.37779 2.75423,-3.4544 10.38218,-0.58701 4.77971,1.79673 8.06148,0.89094 12.11994,-3.34518 4.12033,-4.30069 2.46445,-5.30115 -7.87574,-4.75843 -10.2208,0.53645 -12.67431,1.9008 -16.3059,9.06741 -1.59364,3.14488 -2.03668,4.71352 -1.11532,3.94886 0.84071,-0.69773 2.09839,-2.64428 2.79484,-4.32565 z m 203.43649,69.87306 c -1.29543,-5.25144 -2.58094,-9.18022 -4.24186,-14.64843 -9.07249,11.91388 -15.80865,26.71403 -23.29051,36.94732 -2.8024,-22.23513 -6.8462,-37.42122 -12.52033,-58.72434 -3.42495,7.98631 -5.64407,14.26818 -8.97943,23.11828 5.97912,17.68227 11.03692,43.09043 16.02879,62.1265 9.24461,-14.74498 23.13653,-32.96874 33.00334,-48.81933 z M 194.75076,275.18991 c -2.975,-8.24267 -5.95,-16.48534 -8.925,-24.72801 -8.13294,27.78818 -9.47656,44.7499 -11.10324,61.25995 -9.25676,-13.80683 -16.40924,-26.13771 -24.97913,-39.45427 -1.19839,3.93629 -2.39677,7.87259 -3.59515,11.80889 14.03857,19.09455 22.89603,33.37383 33.11177,48.31595 5.44774,-22.28037 9.45825,-37.15916 15.49075,-57.20251 z m -57.30007,20.29631 C 121.50758,274.62 107.2397,258.22438 88.277176,239.29232 c -8.846726,7.12292 -19.002361,14.00288 -27.06186,19.40662 19.169693,16.27708 56.924064,51.43882 67.713904,66.08953 5.0227,-16.61267 5.92071,-19.32346 8.52147,-29.30225 z m 526.33879,-32.12608 c -13.10913,-8.60924 -22.11381,-14.9349 -34.09179,-23.96895 -14.30323,14.39081 -27.10228,29.62861 -39.7716,45.28734 3.79656,13.38677 7.68629,26.74746 11.415,40.15338 19.28182,-22.65963 40.47328,-41.28168 62.44839,-61.47177 z m -703.444884,17.01367 c -36.348904,-7.78789 -66.908576,-25.29214 -93.798596,-40.72345 -3.09937,1.67283 -5.29133,3.2423 -8.40666,5.30392 31.09732,15.92413 53.297384,28.99628 80.836166,46.63356 7.119607,-3.09719 14.123954,-6.9995 21.36909,-11.21403 z M 865.01069,248.18375 c -4.8152,-3.10936 -8.52929,-5.40393 -13.7036,-8.64313 -24.71969,14.89797 -54.25741,30.85259 -84.3006,38.8248 7.90593,3.07365 15.37967,11.40269 23.80225,12.48851 20.88788,-13.52831 54.17092,-30.01456 74.20195,-42.67018 z m -291.84308,14.60048 c -5.36213,-17.27501 -13.15149,-39.89817 -19.92657,-54.13387 -2.27094,10.1344 -5.28129,15.94456 -8.12072,25.76957 6.08923,19.39808 9.16432,34.3267 13.14253,51.22086 5.50179,-8.11755 9.55136,-14.86582 14.90476,-22.85656 z M 182.96603,242.96435 c -3.87612,-8.23941 -8.53827,-25.63238 -10.89876,-34.51763 -7.53864,17.50738 -11.95473,31.36473 -17.91315,49.20641 5.58427,8.01055 11.89663,17.99597 17.62664,27.47338 4.07087,-16.28602 6.97916,-27.74144 11.18527,-42.16216 z m -36.90806,24.22466 c -11.54624,-16.15522 -23.04364,-32.34541 -34.60196,-48.49198 -4.85611,3.64398 -7.96514,7.17945 -12.598557,11.81286 17.035217,17.19555 30.038647,31.57607 43.586437,48.66265 1.37785,-5.06855 2.39555,-7.6056 3.61408,-11.98353 z m 479.74582,-31.03865 c -4.78367,-4.50363 -9.56733,-9.00725 -14.351,-13.51088 -6.97082,9.98768 -22.76127,30.28785 -27.63659,39.37896 -0.18078,1.71653 3.68579,15.64087 4.32359,15.57001 11.89497,-13.78044 24.39903,-27.5024 37.664,-41.43809 z m -789.43302,14.11651 c -4.56969,-2.44283 -9.15287,-4.84146 -14.06696,-6.88219 -27.12612,11.22923 -48.0808,17.28766 -74.10682,17.63618 -20.57474,0.18035 -42.04466,-4.95163 -42.89617,-25.68832 -0.86111,-20.97051 24.28233,-28.00539 43.18601,-28.1093 31.07563,-0.17083 51.11747,10.80136 75.82243,21.39924 3.24516,-2.02663 9.81802,-3.92849 11.26107,-6.9628 -25.3087,-14.57236 -55.14976,-27.73139 -83.22035,-28.90434 -34.12768,-1.42605 -48.74348,7.81653 -65.34414,38.80241 14.84975,28.43812 31.55949,39.87306 60.5617,41.70375 34.33445,2.06632 60.74746,-9.83343 88.80323,-22.99463 z M 1037.2489,237.61419 c -18.6012,-28.71887 -31.3477,-43.774 -61.55191,-44.72727 -28.70026,-0.9058 -57.04,8.77779 -86.8628,25.54148 5.67296,4.50845 11.02726,6.56489 18.0202,10.03864 24.53392,-10.73949 50.1534,-20.47509 71.77758,-21.3701 14.9635,-0.31256 33.49183,3.10833 41.77983,15.49107 4.2375,6.59211 3.6845,13.36546 -1.8102,22.17114 -7.7524,12.42364 -17.4705,15.32651 -42.40461,16.2383 -24.2119,0.88537 -53.59169,-10.90907 -72.61976,-17.24471 -3.78737,1.00676 -7.35465,2.08644 -10.38024,4.88038 25.9618,13.25793 55.855,26.42811 82.83968,24.8185 26.58433,-1.58573 50.39053,-14.50863 61.21223,-35.83743 z M 41.051576,260.19954 c -2.36374,-2.17758 -21.10551,-15.54918 -21.79389,-15.54918 -8.569236,9.2269 -16.7728864,16.99212 -27.3955208,26.16905 10.2959627,0.76256 38.6305428,-5.49699 49.1894108,-10.61987 z M 705.93189,244.63876 c -4.79356,3.17487 -18.7349,13.32957 -18.7349,14.1257 10.376,4.39387 33.96661,12.08871 44.60031,11.47799 -7.2195,-6.8717 -19.58573,-20.17197 -25.86541,-25.60369 z M 11.434872,238.56269 c -23.823623,-17.17647 -48.463021,-29.01915 -74.249046,-41.92904 -20.998136,10.29131 -38.924766,21.80171 -58.075146,34.30925 28.890476,17.47726 61.064176,34.24101 95.96062,39.3259 14.9692406,-10.75556 24.82562418,-19.01277 36.363572,-31.70611 z m 832.762118,-3.50612 c -18.9633,-13.57937 -39.54988,-26.83739 -59.53202,-36.50209 -25.38564,12.47297 -45.82762,23.94075 -67.95168,38.3675 13.41802,12.90614 20.27117,20.19834 37.35206,32.63884 17.82804,1.02708 60.31605,-14.92266 90.13164,-34.50425 z m -307.19519,7.40716 c -4.30904,-13.34457 -9.68648,-27.53441 -14.18146,-38.91209 -2.77206,7.83662 -5.54412,15.67323 -8.31619,23.50984 4.70714,11.51432 9.21982,24.42105 13.66689,37.75361 3.09804,-7.69645 5.76401,-14.02649 8.83076,-22.35136 z m -327.11758,-8.96135 c -3.01306,-8.3515 -5.98952,-16.71617 -8.9727,-25.07838 -3.69602,8.86534 -6.5075,16.57653 -9.85674,25.51871 2.69152,9.90256 5.72149,16.9454 9.14619,24.70765 3.39105,-8.21984 6.17868,-15.47668 9.68325,-25.14798 z M 83.144526,235.97065 C 71.5861,224.28016 62.149936,218.36622 48.696986,208.61504 c -4.197006,5.99547 -16.067311,20.80103 -19.773051,25.26055 2.614965,1.70158 25.323971,19.56646 26.151321,19.70941 9.220722,-4.90531 19.385209,-10.55809 28.06927,-17.61435 z m 615.804664,0.0519 c -8.84799,-10.52525 -15.58182,-19.4714 -24.0117,-30.35433 -11.89235,7.31471 -23.52358,15.4306 -34.34648,24.26128 3.601,4.339 33.12488,23.92683 35.14518,23.27877 8.45785,-5.76311 14.57682,-10.62211 23.213,-17.18572 z m -1032.2522,14.17327 c 1.1,-0.71863 3.50516,-3.8151 5.3448,-6.88103 l 3.34479,-5.57444 -4.84479,-8.17305 c -5.63789,-9.51098 -9.61474,-12.9676 -15.70961,-13.65458 -6.4642,-0.72861 -10.4265,1.59459 -14.88519,8.72756 -2.0625,3.29958 -3.75,6.25136 -3.75,6.55953 4.51774,6.86125 10.08572,16.77009 18.58575,20.43837 3.32158,1.43346 9.11705,0.38505 11.91425,-1.44236 z M 175.6443,185.22075 c 4.19647,11.6706 8.89256,27.49942 12.88296,41.20565 4.30348,-11.93823 7.40639,-18.89026 9.97616,-25.57295 -7.24871,-23.41251 -15.2328,-48.68339 -19.85006,-69.57031 -17.36162,30.10963 -39.6763,56.87286 -58.66585,78.40137 12.10624,16.7619 19.36859,27.3882 30.50606,42.53547 9.7579,-29.35228 15.53089,-48.72628 25.15073,-66.99923 z m 903.1674,64.94637 c 4.4618,-3.40917 6.4874,-7.72596 9.6062,-12.42311 -5.2386,-9.03161 -9.3191,-16.37584 -16.621,-20.04522 -4.9257,-2.47531 -10.3089,-2.64103 -13.2349,-0.59159 -1.7837,1.24933 -9.3651,12.7365 -9.3651,14.18974 0,1.28904 9.0612,14.16321 11.7194,16.65095 5.1451,4.81516 12.8031,6.11021 17.8954,2.21923 z M 605.19699,217.15647 c -27.29711,-29.53715 -46.39964,-57.49992 -61.38321,-82.66747 -5.09347,18.37412 -11.06583,38.06947 -15.81621,53.66136 4.93843,11.85633 9.18616,24.72553 14.07234,36.69965 5.4372,-12.32232 9.47679,-28.17954 12.774,-39.84561 7.1746,13.30695 16.76622,40.36266 25.37269,67.43557 7.02881,-10.77147 12.23926,-17.0445 24.98039,-35.2835 z m -981.64623,20.58528 c -1.08688,-1.94391 -1.79742,-3.69958 -6.69695,-8.82832 -4.55579,-4.76891 -9.22463,-6.73654 -13.6686,-5.76048 -3.6557,0.80292 -4.80664,3.06693 -4.98822,8.46379 -0.28715,8.53471 6.33184,16.44327 14.15181,15.78468 5.48372,-0.46183 9.05238,-3.70453 11.20196,-9.65967 z m 181.20341,-1.80901 c -9.8772,-4.43045 -36.33257,-15.17856 -55.91341,-15.01236 -18.1505,0.15406 -35.28313,6.14774 -36.02292,11.57325 -1.15783,8.49142 17.18843,14.5094 34.81358,14.78769 22.57313,0.35642 40.85286,-5.21885 57.12275,-11.34858 z m 1208.98923,-1.13572 c -7.1784,-11.66547 -22.61898,-12.11339 -34.175,-12.4524 -20.8283,-0.54094 -38.77592,4.66017 -57.15531,12.81337 17.62533,7.39528 37.42897,11.44962 56.2839,12.3479 9.12913,0.1353 35.73421,-2.05454 35.04641,-12.70887 z m 110.8968,10.63083 c 2.1975,-3.13733 1.9732,-10.58211 -0.4379,-14.53663 -2.1733,-3.56447 -6.7832,-7.40331 -11.1794,-7.77908 -6.6347,-0.56711 -9.3459,3.64901 -12.8285,8.20912 3.5982,4.7552 6.8687,10.42818 11.7915,13.83172 4.7701,3.29799 10.4775,3.38274 12.6543,0.27487 z M 873.38279,227.31221 c -2.89338,1.53522 -5.643,2.75804 -8.5357,4.52155 4.94995,3.17032 9.89992,6.34059 14.8499,9.51086 3.47847,-1.69307 6.95693,-3.38613 10.4354,-5.0792 -5.59011,-1.91965 -12.43353,-6.18183 -16.7496,-8.95321 z m -1013.73835,8.33802 c -2.08878,-1.2418 -10.08496,-5.74851 -11.54244,-6.50259 -3.46142,2.00762 -6.55869,3.73169 -10.30374,5.92643 4.23668,1.89077 9.00137,4.20938 12.78433,5.95543 3.38507,-1.48729 5.85368,-3.58654 9.06185,-5.37927 z M 40.704137,204.77222 c -35.5413277,-19.78061 -61.389444,-19.41919 -83.352403,-14.38009 24.210633,12.61296 42.60249398,23.26678 64.050992,38.07053 6.49662,-8.17464 13.632213,-15.46944 19.301411,-23.69044 z M 768.19599,192.5832 c -23.86307,-9.57295 -56.90294,-5.27948 -81.9026,7.34429 7.53238,10.09486 15.09452,19.1292 23.0653,28.65913 18.48446,-12.99794 40.32687,-24.8973 58.8373,-36.00342 z m -841.535995,0.0198 c -7.395898,-3.80541 -11.44457,-4.91714 -17.663784,-6.43658 -14.945001,13.86187 -30.142041,23.94193 -46.784401,34.90904 3.42069,2.10992 6.84137,4.21984 10.26206,6.32977 17.80571,-11.88095 35.543531,-23.68679 54.186125,-34.80223 z m 181.466035,21.52538 c -12.296721,-18.4378 -25.458677,-42.07025 -29.223044,-53.41842 -7.999137,13.90222 -14.328919,24.42452 -22.73687,36.89584 14.808682,9.84202 25.940814,18.18285 38.29502,29.00343 5.012177,-3.73676 9.376844,-8.01312 13.664894,-12.48085 z m 561.87736,-14.51226 c -9.89727,-14.36615 -15.97381,-23.36001 -23.5835,-38.83784 -6.71307,18.21629 -16.79954,35.5842 -26.5466,49.54033 5.49474,7.2651 9.69998,10.41519 16.4326,16.40531 10.64377,-9.95704 22.74646,-17.24229 33.6975,-27.1078 z m 195.1709,23.06865 c -18.61104,-13.77907 -33.99673,-22.85167 -49.4988,-36.78953 -6.36976,2.00215 -7.39246,1.8329 -13.8501,5.63784 12.91557,6.55794 38.10604,24.34886 56.2173,35.05716 2.95594,-1.7402 4.48378,-2.63297 7.1316,-3.90547 z M 367.95106,57.508337 c 87.29925,1.95928 113.75636,97.415763 141.77144,156.955023 0.42229,0.49476 7.47449,-21.135 7.47449,-22.92498 C 498.67981,145.36775 456.61892,44.852177 367.95106,43.788187 280.96168,42.744337 245.06686,113.58145 208.401,189.85128 c 3.0078,7.82226 5.39954,17.85797 8.86725,25.4917 C 266.44427,95.911287 320.06598,56.433637 367.95106,57.508337 z" id="path4099-6" inkscape:connector-curvature="0" sodipodi:nodetypes="ccccccccsscsscsssssscssccsccccccccsccccccccscsccsssscccsccccccccscccccscccscscsccscsssccsssccssscsssssscssssscsssssssssssssssssssssssscscssssssscsscsssssssssssssssscssssscscsssscsscsssssscsssssssssscscssssssssccssssssssssssscccccccccccccccccccccccccccccccccccccccccccccccccccccccccssccsccccsccccssccscccccccccccccccccccccccccccccccccccccccsscssscsscccccccscsssssccccccccssssccsssccccccccscscccccccccccccccccccccccccccccccccccccccsccsccs"/>
  </g>
</svg>