<?xml version="1.0" encoding="UTF-8" standalone="no"?>
<!-- Created with Inkscape (http://www.inkscape.org/) -->

<svg
   xmlns:dc="http://purl.org/dc/elements/1.1/"
   xmlns:cc="http://creativecommons.org/ns#"
   xmlns:rdf="http://www.w3.org/1999/02/22-rdf-syntax-ns#"
   xmlns:svg="http://www.w3.org/2000/svg"
   xmlns="http://www.w3.org/2000/svg"
   xmlns:sodipodi="http://sodipodi.sourceforge.net/DTD/sodipodi-0.dtd"
   xmlns:inkscape="http://www.inkscape.org/namespaces/inkscape"
   width="744.09448819"
   height="1052.3622047"
   id="svg2"
   version="1.1"
   inkscape:version="0.48.4 r9939"
   sodipodi:docname="muselogo.svg">
  <defs
     id="defs4" />
  <sodipodi:namedview
     id="base"
     pagecolor="#ffffff"
     bordercolor="#666666"
     borderopacity="1.0"
     inkscape:pageopacity="0.0"
     inkscape:pageshadow="2"
     inkscape:zoom="0.98994949"
     inkscape:cx="454.93575"
     inkscape:cy="808.244"
     inkscape:document-units="px"
     inkscape:current-layer="layer1"
     showgrid="false"
     inkscape:window-width="1366"
     inkscape:window-height="706"
     inkscape:window-x="-8"
     inkscape:window-y="-8"
     inkscape:window-maximized="1" />
  <metadata
     id="metadata7">
    <rdf:RDF>
      <cc:Work
         rdf:about="">
        <dc:format>image/svg+xml</dc:format>
        <dc:type
           rdf:resource="http://purl.org/dc/dcmitype/StillImage" />
        <dc:title></dc:title>
      </cc:Work>
    </rdf:RDF>
  </metadata>
  <g
     inkscape:label="Layer 1"
     inkscape:groupmode="layer"
     id="layer1">
    <path
       style="fill:none;stroke:#000000;stroke-width:1;stroke-miterlimit:4;stroke-opacity:1;stroke-dasharray:none"
       d="m 252.59371,249.2356 c -79.76419,0.0691 -145.06361,0.0878 -145.10982,0.0416 -0.0462,-0.0462 -1.89169,-0.11773 -4.10106,-0.15891 l -4.017037,-0.0749 -0.47176,-0.56843 c -0.259465,-0.31264 -0.708448,-0.56843 -0.997744,-0.56843 l -0.525983,0 -0.336452,-0.72446 -0.336452,-0.72447 -0.09269,-35.80905 -0.09269,-35.80905 0.239378,-3.41568 0.239379,-3.41568 1.283909,-0.7241 1.283914,-0.72409 77.645928,-0.0728 77.64594,-0.0728 0.5958,0.37699 0.59581,0.37699 -0.62097,0.0554 c -0.34153,0.0305 -0.76068,0.0333 -0.93145,0.006 -0.17077,-0.0269 -0.31048,0.15719 -0.31048,0.40924 l 0,0.45827 -0.62097,-0.23829 -0.62097,-0.23828 0,0.68207 c 0,0.37515 -0.22343,1.29998 -0.49652,2.0552 l -0.49653,1.37312 -0.74541,0.23658 -0.7454,0.23659 -0.034,0.69656 c -0.0187,0.38311 -0.12403,1.25207 -0.23401,1.93102 -0.10998,0.67895 -0.28443,1.31892 -0.38766,1.42215 -0.10324,0.10324 -0.88281,0.4298 -1.73239,0.72571 -0.84957,0.2959 -1.84788,0.54081 -2.21846,0.54424 l -0.67377,0.006 -0.54461,-0.65622 -0.54461,-0.65622 -1.26548,0.18595 -1.26548,0.18595 -0.88101,-0.40115 -0.881,-0.40115 -4.05169,0.44027 -4.05168,0.44028 -0.24203,0.36904 -0.24203,0.36903 -4.10371,0.28219 -4.10372,0.2822 -0.45004,0.6142 -0.45004,0.6142 -2.58735,0.48071 -2.58736,0.48072 0,0.34091 0,0.34091 -0.62097,0 -0.62097,0 0,0.41397 0,0.41398 -1.17777,0 -1.17777,0 -0.74929,0.82796 -0.74929,0.82795 -0.98103,0 -0.98102,0 -0.38002,0.99952 -0.38002,0.99952 -0.80697,0.25612 -0.80697,0.25613 -0.21293,0.81424 -0.21293,0.81425 -0.65972,0 -0.65973,0 0,0.57047 0,0.57047 -0.82564,0.56797 -0.82564,0.56796 -0.0413,5.09112 -0.0413,5.09113 1.07393,0.99527 c 0.59064,0.5474 1.07391,1.18202 1.07391,1.41026 l 0,0.41498 1.55241,0.27819 1.55242,0.27818 0.7196,0.62829 0.71961,0.6283 3.81756,-0.28819 3.81755,-0.28819 0.43057,-0.33846 0.43057,-0.33847 3.70121,-0.28906 3.70121,-0.28906 1.12344,-0.79996 1.12343,-0.79996 1.67417,0 1.67417,0 1.05896,-0.98141 1.05895,-0.98141 1.87702,-0.21156 1.87701,-0.21157 0.70767,-0.62385 0.70766,-0.62385 1.4489,-0.30868 1.4489,-0.30868 0.47993,-0.6852 0.47993,-0.68519 1.48648,-0.10011 1.48648,-0.10011 0,0.6233 0,0.62331 1.24194,0.64222 c 0.68306,0.35323 1.24193,0.81118 1.24193,1.01768 l 0,0.37545 0.76903,0.24408 c 0.42297,0.13425 1.58728,1.00668 2.58736,1.93874 l 1.81833,1.69465 1.13844,0.40653 1.13843,0.40654 0,0.78746 0,0.78746 1.05301,0 1.05302,0 1.11614,1.03494 1.11614,1.03495 0.93973,0 0.93973,0 0.69755,0.81468 0.69756,0.81468 1.76863,0.26522 1.76863,0.26523 0.23425,0.73803 0.23424,0.73803 1.84819,0.27716 1.8482,0.27715 0.42962,0.80275 0.42962,0.80275 2.23274,0 2.23274,0 0.70175,0.70175 0.70176,0.70176 2.12216,0.30297 c 1.16719,0.16663 3.07156,0.31657 4.23194,0.33319 l 2.10978,0.0302 1.34402,0.67048 1.34401,0.67048 8.55155,0.40169 8.55156,0.40169 10.34944,-0.21084 10.34943,-0.21084 1.8629,-0.81154 1.8629,-0.81153 3.31182,-0.25738 3.31182,-0.25738 0.45857,-0.61894 0.45857,-0.61894 1.40432,-0.26287 c 0.77239,-0.14458 2.05635,-0.58553 2.85326,-0.97989 0.7969,-0.39436 2.10093,-1.03125 2.89784,-1.41533 0.79691,-0.38407 2.00779,-0.99953 2.69085,-1.36768 0.68307,-0.36815 1.42823,-0.8841 1.65591,-1.14654 0.22769,-0.26245 0.92628,-0.79445 1.55242,-1.18222 l 1.13844,-0.70504 0,-0.61142 0,-0.61142 0.41397,0 0.41398,0 0,-0.80006 0,-0.80006 0.82796,-0.26278 0.82795,-0.26279 0.0885,-1.93849 c 0.0487,-1.06617 0.0359,-3.24252 -0.0284,-4.83634 l -0.11686,-2.89784 -0.68372,-1.03494 c -0.37604,-0.56922 -1.03032,-1.72458 -1.45395,-2.56746 l -0.77023,-1.5325 -1.11753,-0.49466 -1.11752,-0.49467 -0.66983,-1.56847 -0.66983,-1.56847 -1.47694,-0.27707 -1.47693,-0.27708 -0.249,-0.78453 -0.24901,-0.78453 -0.90355,-0.007 -0.90355,-0.007 -0.9749,-1.0278 -0.9749,-1.02779 -0.76103,0 -0.76103,0 -0.55503,-0.79242 -0.55504,-0.79243 -1.53832,-0.28859 -1.53833,-0.28859 0,-0.52661 0,-0.52661 -0.93145,-0.24962 c -0.5123,-0.13729 -1.34184,-0.25217 -1.84342,-0.25528 -0.50159,-0.003 -1.38646,-0.22184 -1.9664,-0.48608 l -1.0544,-0.4804 0,-0.51204 0,-0.51203 -3.47564,-0.14598 -3.47565,-0.14597 -0.80022,-0.72446 -0.80023,-0.72446 -5.36507,0 -5.36507,0 -1.62399,0.82795 -1.62398,0.82796 -3.24236,0 -3.24235,0 -1.11615,1.03494 -1.11613,1.03494 -1.10881,0 c -0.60985,0 -1.40348,0.11308 -1.76364,0.25128 l -0.65482,0.25128 0,0.53783 0,0.53783 -2.17338,0.29594 c -1.19536,0.16277 -2.26653,0.41311 -2.38037,0.55632 -0.11385,0.14321 -0.59174,0.47333 -1.06198,0.7336 l -0.85498,0.47323 -0.69743,-0.3903 -0.69743,-0.3903 0,-2.29507 0,-2.29506 -0.80192,-0.2097 -0.80192,-0.20971 -0.42525,-1.21989 c -0.23389,-0.67094 -0.80448,-1.702 -1.26797,-2.29123 l -0.84272,-1.07134 0,-0.97123 0,-0.97123 0.93145,-0.18848 c 0.5123,-0.10367 1.30403,-0.22989 1.7594,-0.28047 0.45538,-0.0506 34.48887,-0.15068 75.62997,-0.22241 l 74.80202,-0.13042 0.25207,0.79419 0.25206,0.79418 1.71119,0.12629 1.71119,0.12629 0.33427,1.24193 0.33428,1.24194 -0.46267,2.37321 -0.46267,2.37321 -0.56851,0.47182 c -0.31269,0.25951 -0.56852,0.70852 -0.56852,0.99782 l 0,0.52598 -0.65482,0.25128 c -0.36015,0.13821 -1.18886,0.25128 -1.84157,0.25128 l -1.18675,0 -1.05627,0.97892 -1.05627,0.97892 0,4.01324 0,4.01324 0.39321,-0.24301 0.3932,-0.24302 0.44932,0.83955 0.44931,0.83955 1.86133,0 1.86132,0 0.2157,0.72446 c 0.11864,0.39846 0.60736,1.52176 1.08604,2.49624 l 0.87034,1.77178 0.0314,1.74703 c 0.0173,0.96087 -0.0989,2.07304 -0.25808,2.47149 l -0.28945,0.72446 -1.56932,0 -1.56932,0 -0.56996,0.91265 -0.56996,0.91265 0.47038,0.15679 0.47038,0.1568 0,0.74517 0,0.74518 0.72449,0.18945 0.72449,0.18946 0.51585,1.92871 0.51585,1.92872 0.39615,0 0.39614,0 0.69149,1.4572 0.69149,1.4572 0.46637,-0.37922 c 0.25651,-0.20857 1.1725,-0.57194 2.03554,-0.80749 l 1.56916,-0.42827 1.46506,0.23774 1.46503,0.23774 0.37084,0.97545 0.37088,0.97544 0.39543,0 0.39543,0 0.13231,0.93145 0.13226,0.93145 0.93145,0.13229 0.93145,0.13228 0,1.42013 0,1.42013 -0.4242,0 -0.42424,0 -0.40686,1.07013 -0.40686,1.07014 0.85925,1.20674 0.8593,1.20674 0.96187,0 0.96188,0 0.25344,1.00982 0.25343,1.00982 1.86133,0.27912 1.86133,0.27912 0,0.57396 0,0.57396 0.55079,0 0.5508,0 1.33781,-1.8629 1.33785,-1.8629 1.15545,0 c 0.63554,0 2.30056,0.11969 3.70009,0.26597 l 2.5446,0.26596 0,0.57224 0,0.57224 0.97355,0.37015 0.97359,0.37014 0.23733,2.29982 c 0.13057,1.2649 0.37051,2.51525 0.53325,2.77856 l 0.29587,0.47874 3.58968,-0.20468 3.58968,-0.20467 0.9062,-0.48498 0.90619,-0.48498 0,-2.05532 0,-2.05532 0.80738,0 0.80738,0 0.33106,-0.56768 0.33106,-0.56768 2.34059,-0.67425 c 1.2873,-0.37084 2.88248,-0.67426 3.54485,-0.67426 l 1.20426,0 1.07211,1.13844 1.07217,1.13844 0.14849,0.8232 0.14849,0.8232 0.69424,0.1337 0.69428,0.13371 0.81123,-0.81126 0.81128,-0.81126 1.30212,-0.28599 1.30213,-0.286 0.9981,-0.99808 0.99805,-0.9981 0.84679,0 0.84675,0 0,-1.32987 0,-1.32988 -1.03486,-0.84351 -1.03486,-0.8435 0.26106,-1.55241 0.26109,-1.55242 0.70737,0 0.70732,0 0.47156,-1.03494 0.47156,-1.03495 0.4331,0 0.43307,0 0.35328,-0.93145 0.35325,-0.93145 2.74132,0.13882 2.74136,0.13882 0,0.56121 c 0,0.30867 0.16948,0.66595 0.37659,0.79398 l 0.37664,0.23276 0.65831,-0.25262 0.65835,-0.25263 0,-0.76753 0,-0.76754 0.77658,-0.74059 c 0.42714,-0.40732 0.91124,-1.17813 1.0758,-1.7129 0.1646,-0.53478 0.65338,-1.32651 1.08632,-1.75941 l 0.78709,-0.78708 0,-1.22061 0,-1.2206 -0.97893,-1.05628 -0.97889,-1.05627 -0.88401,0 -0.88396,0 0.006,-1.13844 c 0.004,-0.62614 0.11794,-1.55759 0.25526,-2.06988 l 0.24963,-0.93145 0.57265,0 0.57266,0 0.049,-1.55242 c 0.0269,-0.85383 0.17035,-2.11128 0.31881,-2.79435 l 0.26979,-1.24193 1.64758,-0.0276 c 0.90624,-0.0152 2.07283,-0.0618 2.59262,-0.10349 l 0.94499,-0.0759 -0.11703,-4.65725 -0.11708,-4.65724 -1.48435,0 -1.48444,0 -1.06066,-0.5648 -1.06065,-0.5648 -0.24929,-1.24635 c -0.1372,-0.68549 -0.24938,-1.73712 -0.24938,-2.33696 l 0,-1.0906 -0.73577,-0.45951 -0.7358,-0.45949 -0.10151,-1.33231 -0.10151,-1.3323 0.80221,-0.20979 0.80225,-0.20979 0.24996,-0.99583 0.24992,-0.99583 1.00261,0 1.00265,0 0.21212,-0.34323 c 0.11666,-0.18877 1.19884,-0.57558 2.4048,-0.85956 l 2.19267,-0.51634 23.43001,0.13511 23.43001,0.1351 0.69718,0.57894 0.69713,0.57894 4.02329,0.1791 4.02328,0.17911 0.91158,1.00136 0.91162,1.00136 1.67573,0 1.67579,0 0.76805,0.76804 0.76801,0.76804 1.10863,0.27824 1.10863,0.27825 0.69925,0.81661 0.69921,0.81662 0.95591,0 0.95592,0 0.24503,0.6386 0.24508,0.6386 1.55382,0.79268 1.55378,0.79269 0.24508,0.6386 0.24503,0.6386 0.7428,0 0.74276,0 0.40868,0.93145 0.40863,0.93145 0.62097,0 0.62097,0 0.12717,0.89252 0.12722,0.89251 1.01122,0.25381 1.01126,0.25381 0,0.61308 0,0.61308 0.63124,0 0.63119,0 0.37262,0.98003 c 0.20492,0.53902 0.85234,1.49767 1.43865,2.13034 l 1.06608,1.15031 0,0.71922 0,0.71922 0.82795,0.21651 0.82796,0.21652 0,0.67648 0,0.67649 0.83896,1.13478 0.83901,1.13477 0.22218,1.22883 0.22219,1.22883 0.80175,0.85464 0.80171,0.85464 0,0.64728 0,0.64729 0.90921,0.60369 0.90922,0.6037 0.27219,2.96963 0.27219,2.96963 0.68149,0.75303 0.68149,0.75304 0,20.91177 0,20.91176 -7.55509,0.21388 c -4.1553,0.11763 -17.52159,0.15394 -29.70288,0.0807 -12.18129,-0.0733 -23.8244,-0.17217 -25.87359,-0.21981 -2.04919,-0.0477 -3.95759,-0.16738 -4.24091,-0.26607 l -0.51507,-0.17944 0.22905,-0.37059 0.22901,-0.3706 1.01052,0 1.01052,0 0,-0.60641 0,-0.6064 0.80076,-0.42854 c 0.44039,-0.2357 1.20297,-0.42854 1.69466,-0.42854 l 0.8939,0 0.21825,-0.83459 0.21825,-0.83459 1.81289,-0.45649 1.81289,-0.45649 0,-0.57182 0,-0.57182 0.46282,0 c 0.25456,0 1.09932,-0.55887 1.87731,-1.24193 l 1.41448,-1.24193 0.76527,0 0.76524,0 0.21651,-0.82796 0.21655,-0.82795 0.64713,0 c 0.3559,0 1.31045,-0.37258 2.12122,-0.82796 0.81078,-0.45537 1.7739,-0.82795 2.14035,-0.82795 l 0.66621,0 0.51036,0.69793 0.51035,0.69794 3.88203,0.15121 3.88207,0.1512 1.8629,0.91026 1.8629,0.91026 11.38438,-0.002 11.38438,-0.002 1.15537,-0.32036 1.15537,-0.32035 -0.22156,-0.35847 -0.22152,-0.35846 0.65243,-0.25037 c 0.35888,-0.1377 0.94138,-0.25036 1.29451,-0.25036 l 0.64204,0 0.77302,-0.8913 0.77302,-0.8913 0,-1.38558 0,-1.38558 0.38106,0 0.38107,0 0.28887,-1.31517 0.28883,-1.31516 -0.66994,-0.48988 -0.66994,-0.48987 0,-0.60137 0,-0.60137 -1.13843,-1.08835 -1.13844,-1.08834 -1.81964,-0.40756 -1.81964,-0.40755 -0.3212,-0.51973 -0.32121,-0.51973 -5.31075,-0.29505 c -2.9209,-0.16227 -5.35732,-0.31469 -5.41425,-0.3387 -0.0569,-0.024 -0.10349,-0.67238 -0.10349,-1.44082 0,-0.76845 -0.11641,-1.97933 -0.25874,-2.69086 l -0.25873,-1.29368 -0.46573,-0.003 -0.46572,-0.003 -0.51747,-1.11425 c -0.28461,-0.61283 -0.51747,-1.3478 -0.51747,-1.63326 l 0,-0.51901 -1.41688,-0.67236 -1.41692,-0.67236 -0.22604,-0.589 -0.22599,-0.58899 -0.82638,0 -0.82638,0 -0.41361,-0.77279 -0.41356,-0.77279 -2.60234,-0.28923 -2.60231,-0.28923 -1.37461,-0.80412 -1.37457,-0.80413 -10.99793,-0.0157 -10.9979,-0.0156 -0.87477,0.79455 -0.87478,0.79454 -2.19056,0.27586 -2.19056,0.27585 -1.32825,0.80987 -1.32824,0.80987 -0.94445,0.002 -0.94445,0.002 -0.21837,0.56909 -0.21838,0.56909 -1.73502,0.75787 -1.73502,0.75787 -1.36534,1.36389 c -0.75095,0.75015 -1.47359,1.3639 -1.60582,1.3639 -0.13226,0 -1.24106,1.04134 -2.46395,2.31409 l -2.22347,2.31409 0,0.79074 0,0.79074 -0.85516,0 c -0.47036,0 -1.23551,0.20355 -1.70037,0.45233 l -0.84517,0.45233 -0.45236,-0.45233 -0.45231,-0.45281 -11.88869,0 -11.88868,0 -0.65483,0.25128 -0.65479,0.25128 0,0.57667 0,0.57668 -1.59547,0 -1.59547,0 -1.11298,1.03147 -1.11298,1.03147 -0.97823,0.24552 -0.97827,0.24553 -0.20732,0.79289 -0.20736,0.79289 -0.66555,0 -0.66555,0 -1.22397,1.34543 -1.22396,1.34543 -0.012,0.72446 -0.012,0.72446 -0.58458,0 -0.58458,0 -0.28539,1.6892 -0.2854,1.6892 0.27331,1.82265 0.27335,1.82265 0.50186,0.31744 c 0.276,0.1746 0.72678,0.82974 1.00174,1.45588 l 0.49988,1.13844 0.42284,0 0.42288,0 0,0.57667 0,0.57668 0.72446,0.31902 c 0.39841,0.17546 0.90818,0.33511 1.13276,0.35477 l 0.40831,0.0358 0.14406,0.82795 0.14411,0.82796 0.59567,0.46667 0.59567,0.46666 -0.77331,0.20223 c -0.42532,0.11123 -3.82945,0.26926 -7.56473,0.35117 -3.73528,0.0819 -19.45909,0.12568 -34.94189,0.0972 -15.48274,-0.0284 -31.15041,-0.0892 -34.81703,-0.13501 l -6.66658,-0.0833 -0.37104,-0.26885 -0.37104,-0.26886 0,-2.06989 0,-2.06988 0.41398,-0.30415 0.41398,-0.30414 2.5976,-0.006 2.59761,-0.006 0.39349,1.03495 0.39348,1.03494 1.65159,0 1.65159,0 0.40413,-0.75511 0.40412,-0.75511 1.68033,-0.50344 1.68033,-0.50344 0,-0.58978 0,-0.58979 0.82795,-0.4431 0.82796,-0.44311 0,-0.50682 0,-0.50682 -0.82796,-0.51707 -0.82795,-0.51707 0,-0.63627 0,-0.63628 1.02527,-1.02527 c 0.5639,-0.5639 1.23535,-1.41779 1.4921,-1.89754 l 0.46682,-0.87227 2.1403,0.2209 2.14029,0.2209 1.13279,-0.21655 1.13278,-0.21654 0.24744,-0.98584 0.24743,-0.98584 0.55947,0 0.55947,0 0.46735,-1.5599 0.46736,-1.55989 -0.14026,-1.23445 -0.14025,-1.23446 -0.93145,-0.40865 -0.93145,-0.40865 0,-2.7548 0,-2.7548 1.03494,-0.25975 1.03494,-0.25976 0,-0.3697 0,-0.3697 1.60546,-0.27124 1.60546,-0.27125 0.18389,-3.50356 c 0.10114,-1.92695 0.1027,-4.05675 0.003,-4.73287 l -0.18028,-1.22932 -1.16109,0 c -0.63859,0 -1.45576,-0.11307 -1.81591,-0.25128 l -0.65482,-0.25128 0,-0.54877 0,-0.54878 -0.82796,-0.26279 -0.82795,-0.26278 0,-2.04199 0,-2.04199 0.83683,0 0.83683,0 0.47144,-1.0347 0.47144,-1.03471 -0.56081,-1.69926 -0.5608,-1.69927 -0.85096,-0.31479 c -0.46803,-0.17313 -0.78721,-0.38659 -0.70929,-0.47435 0.0779,-0.0878 0.008,-0.87059 -0.15475,-1.73963 l -0.29642,-1.58005 -2.12213,0.091 -2.12212,0.0909 -1.34543,-0.30319 -1.34543,-0.30319 0,-0.38109 c 0,-0.20959 -0.37923,-0.76032 -0.84274,-1.22382 l -0.84274,-0.84274 0.63576,-0.63575 c 0.34966,-0.34967 0.63574,-0.78545 0.63574,-0.96842 0,-0.18296 -0.10871,-0.87623 -0.24158,-1.54059 l -0.24159,-1.20794 -1.31083,-0.57321 -1.31083,-0.57321 -0.54094,-0.75447 -0.54095,-0.75446 -0.8317,0 c -0.45743,0 -1.14545,-0.15898 -1.52894,-0.35329 l -0.69724,-0.35328 -1.31912,0.35831 -1.31913,0.3583 -0.26119,0.82294 c -0.14365,0.45261 -0.39553,0.82293 -0.55974,0.82293 -0.1642,0 -1.02933,-0.37258 -1.92253,-0.82796 -0.89319,-0.45537 -1.9106,-0.8313 -2.26091,-0.83539 l -0.63693,-0.007 -1.34861,-2.06245 -1.34861,-2.06245 -1.96321,0.005 c -1.07977,0.002 -2.62849,0.11462 -3.44162,0.24915 l -1.4784,0.24458 -0.79848,1.71725 -0.79846,1.71727 -1.28252,0.41457 c -0.70538,0.22801 -1.54936,0.63604 -1.87551,0.90672 l -0.593,0.49214 -1.33282,-0.84387 -1.3328,-0.84388 0,-0.58031 0,-0.58031 -1.60523,0 -1.60521,0 -0.47942,0.57766 -0.47942,0.57766 -1.48008,0.27766 -1.48009,0.27767 -0.20936,0.80058 c -0.11514,0.44032 -0.33831,0.80059 -0.49592,0.80059 -0.15762,0 -0.64572,0.26261 -1.08467,0.58357 l -0.79808,0.58358 0.73957,0.81722 0.73957,0.81721 -0.1439,1.07458 -0.14391,1.07458 -1.29029,1.45741 -1.2903,1.45742 -3.14016,0 -3.14016,0 0,1.05471 0,1.05471 -1.03494,0.95915 -1.03495,0.95916 0,0.85954 0,0.85955 -0.41397,0.25585 c -0.22769,0.14072 -0.41398,0.49572 -0.41398,0.78889 l 0,0.53302 1.41002,1.45185 1.41001,1.45185 -0.1047,2.44095 -0.1047,2.44095 -2.65074,0.42598 -2.65074,0.42599 -0.12215,3.5068 c -0.0672,1.92874 -0.0204,3.91279 0.10404,4.40901 l 0.22619,0.90222 2.19789,0.45627 2.19789,0.45629 0.49241,1.36175 c 0.27084,0.74896 0.49242,1.93441 0.49242,2.63433 l 0,1.27259 -0.93145,0.87261 c -0.51229,0.47993 -1.30155,1.13467 -1.7539,1.45498 l -0.82247,0.58237 0.71897,0.79445 0.71896,0.79445 0,0.67304 0,0.67305 1.03495,1.03494 1.03494,1.03495 0,0.82801 0,0.82801 1.41656,0.26575 1.41656,0.26575 1.24551,-0.27356 1.24551,-0.27356 0.45503,0.85024 0.45504,0.85024 1.22526,0.63361 1.22526,0.63361 -0.13522,1.23521 c -0.0744,0.67936 -0.25869,1.35866 -0.40958,1.50956 -0.1509,0.15089 -0.27436,0.71487 -0.27436,1.25329 l 0,0.97894 0.72446,0.26027 c 0.39846,0.14316 1.05773,0.60303 1.46505,1.02195 l 0.74059,0.76168 1.05757,0 1.05758,0 0.21651,0.82796 0.21652,0.82795 1.40063,0 1.40064,0 0,-0.48297 0,-0.48298 0.27504,0.27504 0.27504,0.27504 0.91546,-1.51686 0.91546,-1.51686 0.47998,0.89684 0.47998,0.89684 1.79706,0 1.79708,0 0.21084,2.38037 0.21085,2.38037 -0.26452,0.29122 -0.2645,0.29122 -145.02581,0.12563 z"
       id="path4036"
       inkscape:connector-curvature="0" />
    <path
       style="fill:none;stroke:#000000;stroke-width:1;stroke-miterlimit:4;stroke-opacity:1;stroke-dasharray:none"
       d="m 509.44461,257.15379 c -0.29285,0 -0.65669,-0.12419 -0.80845,-0.27599 l -0.276,-0.27598 0,-2.23745 0,-2.23745 -0.59141,-0.59139 c -0.32526,-0.32527 -0.79099,-0.5914 -1.03495,-0.5914 l -0.44353,0 0,-1.01051 0,-1.01051 -0.4151,-0.25655 -0.41509,-0.25654 0.41696,-0.77912 0.417,-0.77912 1.72293,-0.1272 1.72289,-0.12721 0.44859,-1.32718 c 0.24673,-0.72995 0.63487,-1.50206 0.86256,-1.71579 0.22769,-0.21374 1.00882,-0.51387 1.73597,-0.66696 l 1.322,-0.27835 0.43405,1.6119 0.43402,1.6119 0.93484,0.47462 0.93481,0.4746 1.65247,0.11462 1.65247,0.11462 0.15193,0.80059 0.15197,0.80059 -0.59836,0.44134 c -0.32911,0.24274 -0.81508,0.84825 -1.07998,1.34558 l -0.48158,0.90423 0,2.48665 0,2.48664 -0.42917,0.26524 -0.42917,0.26525 -1.64072,-0.2772 -1.64072,-0.2772 0,-0.58458 0,-0.58458 -0.60039,0 -0.60039,0 -0.33106,0.52619 c -0.18207,0.28941 -0.85213,0.75513 -1.48899,1.03495 -0.63683,0.27981 -1.39751,0.50875 -1.6904,0.50875 z"
       id="path3918" />
    <path
       style="fill:none;stroke:#000000;stroke-width:1;stroke-miterlimit:4;stroke-opacity:1;stroke-dasharray:none"
       d="m 509.60209,256.32584 0.82795,0 0,-0.82796 0,-0.82795 2.87516,0 2.87516,0 0.12618,-1.96639 0.12618,-1.9664 0.93145,-0.13228 0.93145,-0.13229 0,-1.23757 0,-1.23757 -0.4401,0.27197 -0.44006,0.27197 -0.69838,-0.61878 c -0.38409,-0.34033 -1.06877,-0.68672 -1.52158,-0.76977 l -0.82319,-0.15098 -0.15611,-0.8232 c -0.0859,-0.45276 -0.32522,-0.93002 -0.53184,-1.06057 l -0.37572,-0.23738 -1.20124,0.1763 -1.2012,0.1763 -0.35412,1.49744 -0.35415,1.49743 -1.53983,0.36417 -1.53988,0.36416 0,0.6186 0,0.6186 0.82796,0.21651 0.82795,0.21652 0,2.84956 0,2.84956 0.82796,0 z"
       id="path3880" />
    <path
       inkscape:connector-curvature="0"
       id="path3878"
       d="m 402.8178,245.39469 c -0.5806,-0.0154 -1.47479,-0.23016 -1.98709,-0.47723 l -0.93145,-0.44923 0,-1.13438 0,-1.13438 -0.65483,-0.25128 c -0.36015,-0.1382 -1.04407,-0.25128 -1.51981,-0.25128 l -0.865,0 -0.77257,-0.69916 -0.77257,-0.69917 -2.40819,-0.17419 -2.4082,-0.1742 -0.22839,0.87336 -0.22839,0.87336 -0.83976,0 c -0.46187,0 -1.31761,-0.18167 -1.90165,-0.40373 l -1.0619,-0.40373 0,-2.25922 0,-2.25923 -0.82795,-0.26278 -0.82796,-0.26279 0,-0.60194 0,-0.60195 -1.03494,-0.47154 -1.03494,-0.47156 0,-0.49312 c 0,-0.27121 -0.56049,-1.07961 -1.24554,-1.79645 l -1.24553,-1.30333 -1.82973,0 -1.82973,0 -0.59759,-0.59759 -0.5976,-0.5976 0.19989,-1.04567 0.1999,-1.04567 0.58022,-0.48155 0.58023,-0.48154 -0.27911,-3.34683 -0.27911,-3.34681 -0.77786,-1.31836 -0.77785,-1.31837 -0.97123,-0.24376 -0.97123,-0.24376 -0.27146,-1.44698 -0.27145,-1.44698 0.44621,-0.83376 0.44622,-0.83375 0.5029,-0.0138 c 0.2766,-0.008 0.88216,-0.33358 1.34569,-0.72446 l 0.84278,-0.71069 0.55439,-3.43059 0.55439,-3.43059 -0.28291,-2.50054 -0.2829,-2.50054 0.48884,-0.58901 0.48884,-0.58902 1.51296,0 1.51296,0 1.35974,-1.24193 c 0.74786,-0.68306 1.53453,-1.24193 1.74817,-1.24193 l 0.38843,0 0,-0.45538 c 0,-0.25045 0.63934,-1.09471 1.42075,-1.87612 l 1.42074,-1.42075 -0.23241,-1.43219 -0.23241,-1.43219 0.49618,-0.59786 0.49618,-0.59786 1.27444,-0.27992 1.27445,-0.27991 0.37343,0.66728 0.37343,0.66728 2.82144,0 2.82144,0 1.03503,-0.81415 1.03502,-0.81415 1.71166,-0.2737 1.71166,-0.27371 0,-1.15945 0,-1.15945 0.65054,-0.65054 0.65053,-0.65053 0.71926,0 c 0.3956,0 1.02271,0.23286 1.3936,0.51747 l 0.67433,0.51747 0.12925,1.23038 0.12925,1.23037 1.9664,0.55309 1.96639,0.55309 0,0.35353 0,0.35353 1.72383,0.29124 c 0.94812,0.16018 2.47938,0.28081 3.40282,0.26807 l 1.67897,-0.0232 0.53515,-0.73186 0.53515,-0.73186 1.34025,0.77948 c 0.73714,0.42872 1.46258,0.96265 1.61208,1.18652 l 0.27182,0.40703 -0.43232,0.94884 -0.43232,0.94885 0.67399,1.42032 0.67398,1.42033 0.83194,0.21755 0.83194,0.21756 0,0.65184 0,0.65184 1.03494,0.25975 1.03495,0.25975 0,0.58634 0,0.58633 1.06189,0.40373 1.06189,0.40373 1.83595,0 1.83595,0 0,1.8629 0,1.8629 -0.82795,0 -0.82796,0 -0.0411,0.31048 c -0.0226,0.17077 -0.0891,0.86366 -0.14791,1.53976 l -0.10684,1.22928 0.56744,1.35808 0.56744,1.35808 0.40842,0 0.40843,0 0,1.63493 0,1.63493 1.34542,1.261 1.34543,1.261 0.51747,0.002 0.51747,0.002 0,1.64135 0,1.64134 -0.80074,0.42854 c -0.4404,0.23541 -1.16563,0.42825 -1.61161,0.42825 l -0.81088,0 -0.25128,0.65483 c -0.13821,0.36015 -0.25224,1.15188 -0.2534,1.7594 l -0.002,1.10458 -1.0199,1.65591 -1.0199,1.65591 -0.0129,1.11787 -0.0129,1.11787 0.51747,0.33105 c 0.28461,0.18208 0.75033,0.74768 1.03494,1.25689 0.28461,0.50921 0.51747,1.28838 0.51747,1.7315 l 0,0.80568 -0.72446,0.19641 c -0.39845,0.10802 -1.22534,0.30755 -1.83752,0.44339 l -1.11307,0.24699 -0.25748,-0.41662 -0.25749,-0.41662 -0.80283,0.42967 -0.80283,0.42966 0,0.56152 0,0.56152 -1.03495,0.25976 -1.03494,0.25975 0,0.65184 0,0.65183 -0.82795,0.21652 -0.82796,0.21651 0,0.75524 0,0.75525 -0.38776,0.23964 c -0.21327,0.13181 -0.68112,0.82769 -1.03966,1.54641 l -0.65189,1.30675 0.2459,0.77477 0.24591,0.77477 -0.49888,0.6011 -0.49886,0.6011 -1.38367,0 -1.38366,0 -0.44311,-0.82795 -0.44311,-0.82796 -1.3566,0 -1.3566,0 -1.63017,0.77395 c -0.8966,0.42567 -2.35553,0.90485 -3.24208,1.06486 l -1.6119,0.29092 -0.56148,0.56147 c -0.30881,0.30882 -0.56148,0.81697 -0.56148,1.12922 0,0.31226 -0.22355,0.79129 -0.49677,1.06452 l -0.49677,0.49677 -1.05565,-0.028 z m 2.24165,-21.28576 1.64139,-0.15813 0.47414,-0.64843 0.47414,-0.64842 0.64698,0 0.64697,0 1.27378,-1.27378 1.27378,-1.27378 0,-0.58911 0,-0.58913 0.82795,-0.82795 0.82796,-0.82796 0,-3.28225 0,-3.28225 -0.60053,-0.60052 c -0.33029,-0.3303 -0.72917,-1.11308 -0.8864,-1.73953 l -0.28586,-1.13898 -0.71822,-0.18783 -0.71823,-0.18781 -0.51397,-0.96038 -0.51398,-0.96037 -1.80925,-0.27131 -1.80924,-0.27132 -0.59634,-0.59634 -0.59634,-0.59634 -0.91539,0 -0.91538,0 -0.47414,0.64842 -0.47414,0.64843 -1.83559,0.2462 -1.8356,0.24621 -0.71429,0.86477 c -0.39287,0.47563 -1.32112,1.58424 -2.06278,2.46357 l -1.34849,1.5988 -0.0199,3.79156 -0.0199,3.79154 0.87649,1.11576 0.87649,1.11576 0.23525,-0.23525 0.23525,-0.23525 0.27976,1.49122 0.27975,1.49122 0.88538,0.002 c 0.48696,0.001 1.44256,0.29307 2.12355,0.64815 0.68099,0.35509 1.89187,0.81003 2.69085,1.01099 l 1.45269,0.36539 1.64138,-0.15813 z m -6.58468,-3.93885 -0.6454,0 0,-0.41397 c 0,-0.22769 0.1753,-0.41398 0.38955,-0.41398 0.21425,0 0.50468,0.18629 0.6454,0.41398 l 0.25585,0.41397 -0.6454,0 z m -0.20699,-1.65591 -0.43841,0 0,-0.41397 c 0,-0.22769 0.0822,-0.41398 0.18256,-0.41398 0.1004,0 0.29769,0.18629 0.43841,0.41398 l 0.25585,0.41397 -0.43841,0 z m 5.97824,-11.17739 c -0.11384,0 -0.20699,-0.0931 -0.20699,-0.20699 0,-0.11384 0.0931,-0.20698 0.20699,-0.20698 0.11385,0 0.20699,0.0931 0.20699,0.20698 0,0.11385 -0.0931,0.20699 -0.20699,0.20699 z m 0.82796,0 c -0.11385,0 -0.20699,-0.0931 -0.20699,-0.20699 0,-0.11384 0.0931,-0.20698 0.20699,-0.20698 0.11384,0 0.20699,0.0931 0.20699,0.20698 0,0.11385 -0.0932,0.20699 -0.20699,0.20699 z m 0.0405,-1.52173 -0.5805,0.22275 -0.24746,-0.24746 c -0.13612,-0.1361 -0.24748,-0.4027 -0.24748,-0.59244 l 0,-0.34498 0.82796,0 0.82795,0 0,0.36968 c 0,0.20333 -0.26122,0.46993 -0.58049,0.59245 z m -211.58298,35.86713 -2.48387,-0.005 -2.4677,-1.0144 c -1.35724,-0.55792 -3.18823,-1.53635 -4.06888,-2.17428 l -1.60117,-1.15988 -0.55321,-1.02422 c -0.30426,-0.56332 -0.83201,-1.67623 -1.17276,-2.47314 -0.34076,-0.79691 -0.94073,-2.95581 -1.33328,-4.79757 l -0.71371,-3.34865 1.9332,-4.00098 1.93319,-4.00099 2.09294,-1.65437 2.09295,-1.65438 0.85789,0 c 0.47183,0 1.82194,-0.3039 3.00023,-0.67532 l 2.14235,-0.67531 4.01913,0.8839 4.01913,0.8839 1.26516,0.92986 1.26516,0.92984 0.99279,1.95264 0.99279,1.95262 0,3.70952 0,3.70951 -1.06967,0.8414 -1.06967,0.84141 -2.75962,-0.15178 c -1.51779,-0.0835 -3.088,-0.28314 -3.48935,-0.44369 l -0.72974,-0.29192 -0.60704,0.5038 -0.60705,0.50381 -1.31235,-0.45749 c -0.7218,-0.25162 -1.79686,-0.45203 -2.38902,-0.44536 l -1.07667,0.0121 -1.35739,1.23465 -1.35739,1.23466 0.49394,0.92294 c 0.27167,0.50762 1.02036,1.44936 1.66375,2.09275 l 1.1698,1.1698 1.16231,0.33334 1.1623,0.33335 1.95776,-0.29711 1.95775,-0.29712 0.51558,-0.70509 0.51557,-0.70509 2.26767,-0.20771 2.26768,-0.20772 0.55689,0.38019 0.5569,0.38018 0.0421,1.48446 0.0421,1.48446 -0.80499,0.88949 c -0.44274,0.48923 -1.36429,1.17889 -2.04789,1.53257 -0.68361,0.35369 -2.17436,0.89128 -3.3128,1.19464 l -2.06989,0.55156 -2.48386,-0.005 z m -0.51277,-16.41894 c 1.19277,-0.0914 2.97737,-0.37221 3.96577,-0.6241 l 1.79709,-0.45799 0.1862,-0.48522 0.1862,-0.48522 -0.40552,-1.06658 c -0.22303,-0.58662 -0.82463,-1.45705 -1.33689,-1.93429 l -0.93137,-0.86771 -2.71629,0.002 -2.71629,0.002 -1.3878,0.84609 -1.38781,0.8461 0.28629,1.53273 c 0.15746,0.843 0.31625,1.54793 0.35286,1.5665 0.0366,0.0186 0.48785,0.31704 1.00273,0.66324 l 0.93616,0.62946 2.16867,-0.16611 z m -77.02805,15.87574 -1.94286,0.14397 -1.81083,-0.72447 -1.81083,-0.72447 -0.76906,-1.96498 -0.76906,-1.96498 0.0253,-3.44458 c 0.0139,-1.89452 -0.10966,-5.45899 -0.27458,-7.92105 l -0.29986,-4.47646 -1.28461,-1.49836 c -0.70653,-0.82409 -1.47121,-1.63806 -1.69929,-1.80883 l -0.41468,-0.31048 0.62097,-0.40764 0.62097,-0.40764 -0.41398,-0.0175 -0.41398,-0.0175 1.39569,-1.15766 1.3957,-1.15766 0.35018,-2.24652 0.35019,-2.24651 1.07156,-0.93145 1.07155,-0.93145 0.5836,0 0.58361,0 1.25621,1.22798 1.2562,1.22798 0,1.17467 0,1.17468 1.34543,1.2458 c 0.73999,0.68519 1.85773,1.4629 2.48387,1.72824 l 1.13843,0.48245 0,0.83289 0,0.83291 -1.89386,1.76333 -1.89386,1.76334 -0.67369,1.24193 -0.6737,1.24193 -0.0198,4.13978 -0.0198,4.13977 1.35308,2.34064 1.35308,2.34064 1.44127,1.14912 1.44127,1.14912 0,0.74397 0,0.74396 -1.05847,0.69354 -1.05848,0.69354 -1.94286,0.14397 z m 45.55781,-0.684 -0.76996,0 -0.80358,-0.58651 -0.80358,-0.58651 -0.21285,-8.00352 -0.21285,-8.00352 -0.7387,-1.36374 -0.7387,-1.36373 -1.32533,-0.8081 -1.32533,-0.8081 -1.24193,0.0101 -1.24193,0.0101 -1.8629,0.95024 -1.8629,0.95024 -1.1048,2.29463 -1.1048,2.29463 -0.22943,6.04476 c -0.12618,3.32463 -0.35022,6.52604 -0.49785,7.11426 l -0.26842,1.06949 -1.66896,-0.12484 -1.66896,-0.12485 -0.80904,-2.89784 -0.80904,-2.89784 -0.0591,-10.55643 c -0.0325,-5.80603 0.0131,-12.88505 0.10132,-15.73114 l 0.16044,-5.17472 0.65816,-1.34543 c 0.36198,-0.73998 0.80208,-1.34542 0.97799,-1.34542 0.17591,0 0.32269,0.23286 0.32618,0.51747 l 0.006,0.51747 0.3632,-0.5735 0.36321,-0.5735 1.03359,0.25941 1.03359,0.25942 0.22804,0.93505 c 0.12542,0.51428 0.43648,3.26368 0.69124,6.10977 l 0.46321,5.17472 0.7963,0.80929 0.7963,0.80929 5.07839,0.28206 c 2.79311,0.15513 5.60634,0.42052 6.25161,0.58974 l 1.17324,0.3077 0.96149,0.96149 0.9615,0.9615 0.43364,1.36526 0.43364,1.36526 0.48597,5.88117 0.48597,5.88116 -0.46614,3.13415 -0.46615,3.13414 -0.60068,1.43762 -0.60068,1.43763 -0.76995,0 z m 315.29737,-16.97308 -1.54355,0 -0.62341,-0.62341 c -0.3429,-0.34288 -0.75054,-1.04147 -0.90591,-1.55242 l -0.2825,-0.929 -1.09004,-0.91656 -1.09004,-0.91656 -1.56277,-0.0149 -1.56276,-0.0149 -2.3557,-0.82796 -2.35566,-0.82795 -1.35627,0 -1.35627,0 -0.51706,0.82795 -0.51706,0.82796 -1.36911,0 -1.3691,0 -1.0152,-1.0954 c -0.55833,-0.60244 -1.0152,-1.33429 -1.0152,-1.62631 0,-0.29202 0.29794,-0.82888 0.66212,-1.19302 l 0.66207,-0.66208 -0.50579,-0.60943 c -0.27816,-0.33518 -0.76238,-0.60942 -1.07606,-0.60942 l -0.57029,0 0,-0.73744 0,-0.73744 -2.03271,-2.13118 -2.03272,-2.13118 -0.26531,-0.836 -0.26536,-0.836 -0.8569,-0.27198 c -0.47131,-0.14958 -1.90549,-0.33192 -3.18715,-0.40519 -1.28162,-0.0733 -2.46995,-0.14671 -2.64072,-0.16318 -0.17076,-0.0165 -0.31048,-0.31524 -0.31048,-0.66392 l 0,-0.63396 -0.62097,-0.23828 -0.62096,-0.23829 0,-0.78367 0,-0.78366 0.38608,0 0.38608,0 0.2883,-0.90834 0.28829,-0.90834 0.86462,-0.70012 0.8646,-0.70012 -0.49234,-0.59324 -0.49234,-0.59324 -0.64027,-4.26281 -0.64026,-4.2628 -0.84258,-1.09059 -0.84258,-1.09058 -1.73718,-0.63424 -1.73719,-0.63424 0.0517,-1.12516 c 0.0285,-0.61884 0.075,-1.31146 0.1035,-1.53914 l 0.0517,-0.41398 0.98773,0 0.98774,0 1.4484,-1.49121 1.44842,-1.49121 0.26324,-2.1311 c 0.14478,-1.1721 0.65307,-3.34921 1.12951,-4.83802 l 0.86627,-2.70694 -1.11283,-1.63983 -1.11283,-1.63982 0.23803,-1.19019 c 0.13092,-0.6546 0.23803,-1.44633 0.23803,-1.7594 l 0,-0.56922 2.89784,0 2.89782,0 0,-0.63121 0,-0.63122 0.93145,-0.36345 c 0.5123,-0.1999 1.53694,-0.96256 2.27688,-1.69479 0.74003,-0.73223 1.34543,-1.48296 1.34543,-1.66829 0,-0.18532 0.36777,-0.45367 0.81723,-0.59632 l 0.81719,-0.25937 0.89833,-1.26162 0.89837,-1.26162 -0.41621,-1.81873 -0.41617,-1.81873 0.35656,0 0.35656,0 -0.10354,-0.49203 -0.10349,-0.49204 1.63769,-0.79329 1.63766,-0.79329 0.74255,0.97484 c 0.40843,0.53616 0.93625,1.20771 1.173,1.49232 l 0.43046,0.51747 1.95008,-0.002 1.95008,-0.002 1.24193,-0.75695 1.24194,-0.75694 2.69085,-0.2732 2.69085,-0.2732 0.92938,-1.14169 0.92938,-1.14169 0,-0.63235 c 0,-0.34779 0.29206,-1.04638 0.64651,-1.55241 l 0.64444,-0.91986 0.92868,0 0.92867,0 0.49677,0.49678 0.49678,0.49677 0.006,1.26263 c 0.004,0.69445 0.14319,1.4676 0.31048,1.71813 0.16725,0.25052 0.71105,0.66968 1.20836,0.93145 0.49731,0.26177 1.33561,0.47988 1.8629,0.48468 0.52728,0.005 2.26267,0.46972 3.85649,1.03314 l 2.89784,1.02441 1.96639,0.002 1.9664,0.002 0,-0.40335 0,-0.40334 1.13843,-0.55151 1.13844,-0.55151 1.44892,0.2304 1.44892,0.23039 0.12055,3.43485 0.1206,3.43485 0.70736,0.26017 c 0.3891,0.1431 1.31285,0.89273 2.05283,1.66585 0.73999,0.77312 1.34543,1.56615 1.34543,1.76228 0,0.19614 0.37258,0.47486 0.82795,0.61939 l 0.82796,0.26279 0,0.77215 0,0.77216 0.72446,0.22703 c 0.39845,0.12486 1.8162,0.19711 3.15049,0.16054 l 2.42599,-0.0665 0.7731,1.00579 0.77311,1.0058 0.009,0.93144 0.009,0.93145 -0.41397,0 c -0.22769,0 -0.41398,0.18629 -0.41398,0.41398 0,0.22769 -0.35921,0.7732 -0.79828,1.21226 l -0.79827,0.79827 0.24301,3.21292 0.24296,3.21291 0.96929,1.42829 0.96924,1.42828 0,1.40003 0,1.40003 1.13844,0.44932 c 0.62614,0.24713 1.41787,0.59025 1.75941,0.76249 l 0.62096,0.31316 -0.12498,1.19503 -0.12498,1.19503 -1.63442,1.56737 -1.63443,1.56737 0,0.67313 c 0,0.37023 -0.44627,1.43467 -0.99172,2.36542 l -0.99173,1.69228 -0.2334,3.82882 -0.23344,3.82881 0.89059,0.82969 0.89055,0.82968 0.11409,0.72321 c 0.0628,0.39776 0.0145,1.04922 -0.1073,1.44767 l -0.2214,0.72446 -0.4439,0 c -0.24417,0 -0.67864,0.32094 -0.96544,0.71319 l -0.52153,0.71319 -0.97301,-0.48851 c -0.53519,-0.26869 -1.52837,-0.54305 -2.20704,-0.6097 l -1.23399,-0.12118 -0.54802,1.13844 -0.54802,1.13843 -0.39138,0 c -0.21526,0 -0.73915,0.30428 -1.16414,0.67617 -0.42503,0.37189 -1.42115,1.28107 -2.21362,2.02041 -0.79244,0.73933 -1.5566,1.64594 -1.6981,2.01469 l -0.25708,0.67074 -0.63396,0 -0.63393,0 -0.042,0.51747 c -0.0232,0.28461 -0.005,1.16949 0.0406,1.96639 l 0.0823,1.44893 0.47711,0.29551 0.47706,0.29551 -0.6915,0.69167 -0.69147,0.69168 -1.66278,0.11843 -1.66278,0.11844 -0.65661,-1.00213 -0.65661,-1.00213 -1.33591,0.0182 -1.33586,0.0182 -1.65591,0.59674 c -0.91075,0.32821 -2.77365,0.8005 -4.13978,1.04954 l -2.48386,0.45279 -0.93145,0.86735 -0.93145,0.86736 0,0.87998 0,0.87999 -0.49677,0.49678 -0.49678,0.49677 -1.54355,0 z m 0.26023,-27.56589 c 0.45538,-0.0759 1.91506,-0.34815 3.2438,-0.605 l 2.41585,-0.46699 0.67748,-0.79124 0.67747,-0.79123 0.54198,0 0.54194,0 0.23224,-0.60521 0.23224,-0.60521 0.7897,-0.25064 0.78975,-0.25065 0,-0.99248 0,-0.99248 0.82795,-0.44311 0.82796,-0.44311 0,-4.37178 0,-4.37179 -0.77964,-1.09885 c -0.4288,-0.60436 -0.84986,-1.47143 -0.93568,-1.9268 l -0.15607,-0.82796 -0.885,-0.12675 -0.88504,-0.12676 -0.20405,-0.78028 -0.20405,-0.78027 -1.58305,-0.66144 c -0.87068,-0.36379 -1.72277,-0.88708 -1.89353,-1.16286 l -0.31044,-0.50141 -4.3791,0.0445 -4.37905,0.0445 -0.8263,0.88692 -0.8263,0.88692 -0.80229,0 -0.80225,0 -0.70695,1.13843 c -0.3888,0.62615 -1.02066,1.51102 -1.40412,1.9664 -0.38347,0.45537 -0.82841,1.38036 -0.98879,2.05552 -0.16037,0.67517 -0.65052,2.01555 -1.08926,2.97863 -0.43873,0.96308 -0.79769,2.11104 -0.79769,2.55103 l 0,0.79998 0.61637,0.51157 0.61641,0.51157 -0.20918,0.33847 -0.20918,0.33846 0.37382,0.23103 c 0.20558,0.12706 0.49607,0.88283 0.64551,1.67948 l 0.27174,1.44846 0.78213,0.41857 0.78208,0.41857 0.24789,0.781 0.24789,0.78101 1.64565,1.14044 1.64564,1.14044 2.37776,0.51017 2.37776,0.51018 0.82796,-0.13801 z m 0.82796,-4.51016 -2.89785,0.1777 -1.35006,-0.41597 -1.35006,-0.41597 -0.50895,-0.81492 c -0.27989,-0.4482 -0.69805,-0.81492 -0.92925,-0.81492 l -0.42031,0 -0.59775,-1.34542 -0.59774,-1.34543 0.0562,-3.03352 0.0562,-3.03351 0.63235,-0.96512 c 0.34782,-0.53081 1.1179,-1.489 1.7113,-2.1293 l 1.07895,-1.16418 2.86633,-0.16197 2.86634,-0.16196 1.45157,0.27232 1.45157,0.27231 0,0.57431 0,0.57431 0.82796,0.26278 0.82795,0.26279 0,0.49697 c 0,0.27333 0.45091,1.16057 1.00204,1.97164 l 1.00207,1.47467 -0.23162,2.55421 -0.23158,2.55422 -0.37804,0 -0.37801,0 -0.43293,1.24193 -0.43294,1.24193 -0.52998,0 -0.52997,0 -0.56798,0.8462 -0.56797,0.8462 -2.89785,0.1777 z m 51.27467,-50.71944 -0.58297,0 -0.40375,-1.0619 c -0.22201,-0.58403 -0.40371,-1.14494 -0.40371,-1.24644 0,-0.1015 -0.36832,-0.97425 -0.81843,-1.93944 -0.45016,-0.96519 -0.96772,-2.4852 -1.15012,-3.3778 l -0.33167,-1.62291 -1.35446,-0.45603 c -0.74495,-0.25083 -1.48485,-0.65615 -1.64423,-0.90072 -0.15938,-0.24457 -0.78966,-0.56693 -1.40061,-0.71636 l -1.11087,-0.2717 -0.25033,-0.78874 -0.25033,-0.78875 -0.60524,-0.23224 -0.60519,-0.23224 0,-0.64695 0,-0.64696 0.72446,-0.27659 c 0.39845,-0.15212 1.08561,-0.612 1.527,-1.02195 l 0.80249,-0.74536 0.72045,0 0.7204,0 1.42342,-1.34543 1.42346,-1.34542 0.47587,-2.27688 c 0.26176,-1.25228 0.89191,-3.25172 1.4004,-4.44319 l 0.9245,-2.16632 0.48957,-0.007 0.48957,-0.007 0.26279,0.82796 0.26279,0.82795 0.78548,0 0.78548,0 0.44313,0.82796 0.44312,0.82795 0.61939,0 0.61939,0 0.26731,0.72446 c 0.14704,0.39846 0.46717,0.86133 0.71146,1.02861 l 0.44416,0.30414 5.07122,0.006 5.07122,0.006 0,1.64134 0,1.64135 -0.82795,0.44311 -0.82796,0.4431 0,1.80404 0,1.80405 -0.62096,0.23829 -0.62097,0.23828 0.0132,1.15144 0.0132,1.15142 0.6078,0.80359 0.6078,0.80358 0,1.30564 0,1.30563 0.82796,0.74929 0.82795,0.74929 0,1.38476 0,1.38476 -0.5703,0 -0.57025,0 -0.51536,-0.62096 -0.51536,-0.62097 -3.88613,0 -3.88617,0 -0.7089,0.82795 -0.70893,0.82796 -0.51942,0 -0.51942,0 -0.67814,1.03494 -0.67809,1.03495 -0.61207,0 -0.6121,0 -0.2166,0.82795 -0.21647,0.82796 -0.58296,0 z m -29.5926,-9.52148 -0.77621,0 0,-0.63122 0,-0.63121 -1.08905,-0.41404 c -0.59894,-0.22772 -1.65604,-0.81781 -2.34908,-1.3113 l -1.26006,-0.89725 -1.97964,0 -1.97964,0 -1.15649,0.54188 c -0.63603,0.29804 -1.49707,0.71714 -1.91336,0.93134 l -0.75692,0.38944 -0.58851,-0.48843 -0.58851,-0.48843 0,-1.74887 0,-1.74887 0.82796,-0.95464 0.82795,-0.95464 0,-1.37101 0,-1.37101 -0.82795,-0.44311 -0.82796,-0.44311 0,-0.78163 0,-0.78163 -1.03755,-1.23305 -1.03755,-1.23306 0.25389,-0.6616 0.25385,-0.66161 2.41262,0 2.41262,0 1.06819,-0.40611 1.06814,-0.40612 1.13219,-1.21813 c 0.6227,-0.66997 1.76441,-2.07727 2.53718,-3.12733 l 1.405,-1.9092 0.4579,0.15082 c 0.25182,0.083 0.67392,0.58043 0.93791,1.10551 0.26403,0.52508 0.72235,1.10443 1.01847,1.28746 l 0.53846,0.33278 0.43045,1.74492 0.43045,1.74492 0.82796,0.44449 c 0.45533,0.24446 1.29368,0.72671 1.8629,1.07166 0.56922,0.34496 1.77845,0.81484 2.68717,1.0442 l 1.65222,0.41701 0.14382,0.7572 c 0.0791,0.41647 0.0306,1.2082 -0.10768,1.7594 l -0.25153,1.00221 -0.83309,0 -0.83304,0 -0.22604,0.58899 -0.22599,0.58899 -1.36405,0.64727 -1.36402,0.64727 -0.25985,1.29935 c -0.14295,0.71465 -0.25985,2.18423 -0.25985,3.26574 0,1.08152 -0.11646,2.54855 -0.25874,3.26008 l -0.25874,1.29368 -0.7762,0 z"
       style="fill:none;stroke:#000000;stroke-width:1;stroke-miterlimit:4;stroke-opacity:1;stroke-dasharray:none" />
    <path
       inkscape:connector-curvature="0"
       id="path3876"
       d="m 339.25155,381.47199 -7.4516,0.0966 -1.39886,-0.34629 c -0.76937,-0.19045 -1.79397,-0.55671 -2.27687,-0.8139 l -0.87802,-0.46762 -4.34676,-0.50519 -4.34676,-0.50518 0.20698,-0.32558 0.20699,-0.32559 -0.62096,-0.39254 -0.62097,-0.39253 -1.38418,-0.006 -1.38419,-0.006 -0.21651,-0.82796 -0.21652,-0.82795 -0.80688,0 c -0.44379,0 -1.2138,-0.21348 -1.71113,-0.47441 -0.49732,-0.26093 -1.0532,-0.72666 -1.23528,-1.03494 l -0.33106,-0.56055 -0.77948,0 -0.77949,0 -0.24972,-0.7868 -0.24972,-0.7868 -0.97064,-0.24362 -0.97065,-0.24361 -0.22001,-0.84131 -0.22,-0.84132 -1.29821,-0.45255 -1.29822,-0.45256 -0.24604,-1.23023 -0.24605,-1.23023 -0.94421,-0.43021 -0.94422,-0.43022 -0.24671,-0.983 -0.24672,-0.983 -0.59712,0 -0.59712,0 -0.4459,-1.65591 -0.44589,-1.65591 -0.605,0 -0.60502,0 0,-0.85558 0,-0.85557 -0.99055,-1.31781 -0.99056,-1.3178 -0.30404,-1.85578 -0.30405,-1.85577 -0.65571,-0.47947 -0.65571,-0.47946 -0.16394,-3.04647 -0.16394,-3.04647 -0.6801,-0.76751 -0.68009,-0.76752 -0.26647,-13.10073 c -0.14656,-7.2054 -0.30913,-23.88043 -0.36125,-37.05561 l -0.0948,-23.95489 0.56824,-0.35995 0.56824,-0.35995 12.48896,-0.006 12.48896,-0.006 0.65482,0.25128 0.65483,0.25128 0.006,35.86825 0.006,35.86826 0.4013,0.62097 0.4013,0.62096 0.0127,-0.41398 0.0127,-0.41397 0.4013,0.62096 0.4013,0.62097 0.006,1.31586 0.006,1.31585 0.65053,0.65054 c 0.3578,0.3578 0.80023,0.65054 0.9832,0.65054 l 0.33266,0 0.2458,1.22899 0.2458,1.229 1.66884,1.66884 1.6689,1.66884 0.7615,0 0.76151,0 0.47156,1.03494 0.47154,1.03495 1.25487,0 1.25485,0 0.70892,0.82795 0.70892,0.82796 6.31008,0 6.31008,0 0.44311,-0.82796 0.44311,-0.82795 1.80346,0 1.80345,0 0.24075,-0.95922 0.24075,-0.95922 1.5298,-0.38621 1.52981,-0.38621 0.44771,-1.25839 c 0.24623,-0.69212 0.84357,-1.69342 1.3274,-2.22513 0.48384,-0.5317 1.16576,-1.29936 1.51538,-1.70591 l 0.63567,-0.73916 0.48628,-2.41741 0.48628,-2.41741 0.6892,-0.53516 0.6892,-0.53515 0.20699,-35.48089 0.20699,-35.48088 12.27285,-0.10959 12.27285,-0.10959 1.08974,0.41432 1.08973,0.41431 -0.11531,33.36018 -0.11531,33.36017 -0.68261,0.3819 -0.68261,0.38189 -0.28799,5.28107 -0.28799,5.28106 -0.99579,2.14774 -0.99579,2.14775 0,1.20341 0,1.2034 -0.82796,0.74929 -0.82795,0.74929 0,0.79101 c 0,0.43505 -0.21571,1.19407 -0.47936,1.6867 -0.26365,0.49263 -0.72937,1.14571 -1.03495,1.45127 -0.30557,0.30558 -0.55558,0.81325 -0.55558,1.12817 l 0,0.57258 -1.03494,1.03494 -1.03495,1.03495 0,0.88553 0,0.88552 -0.82795,0.21652 -0.82796,0.21651 0,0.77179 0,0.77178 -1.03494,0.25976 -1.03494,0.25975 0,0.78308 0,0.78307 -0.67965,0 -0.67964,0 -1.18685,1.24194 -1.18686,1.24193 -0.6028,0 -0.6028,0 -0.44311,0.82795 -0.44311,0.82796 -0.8055,0 -0.80551,0 -0.25975,1.03494 -0.25975,1.03495 -1.1632,0 c -0.63976,0 -1.45787,0.11307 -1.81802,0.25128 l -0.65482,0.25128 0,0.5204 0,0.52041 -1.92077,0.26327 -1.92076,0.26327 -0.45961,0.62193 -0.4596,0.62193 -3.51881,0.43683 -3.51881,0.43683 -1.24193,0.68115 -1.24194,0.68115 -7.45159,0.0966 z m 105.2874,0.009 c -3.94611,0.0367 -7.64046,-0.0268 -8.20968,-0.14124 -0.56922,-0.11442 -1.31438,-0.45521 -1.65591,-0.75731 l -0.62097,-0.54929 -3.28741,-0.45475 -3.28742,-0.45475 -0.76499,-0.82112 -0.76499,-0.82112 -1.33322,0 -1.33321,0 -0.51707,-0.82795 -0.51706,-0.82796 -1.16847,0 -1.16847,0 -0.53429,-0.99832 -0.53428,-0.99831 -1.42033,-0.26646 -1.42032,-0.26645 -0.24169,-0.62984 -0.2417,-0.62984 -0.97848,-0.37202 -0.97848,-0.37201 0,-0.62333 0,-0.62333 -0.99583,-0.24993 -0.99583,-0.24994 -0.20735,-0.79289 -0.20734,-0.7929 -0.63183,0 -0.63182,0 -0.25607,-0.80678 -0.25606,-0.80678 -0.76562,-0.24299 -0.76563,-0.243 -0.24361,-0.97064 -0.24362,-0.97065 -0.83419,-0.21814 -0.83419,-0.21815 0.25299,-0.65927 0.25299,-0.65928 0.57667,0 0.57667,0 0,-0.41398 c 0,-0.22768 0.74516,-1.15913 1.65591,-2.06988 0.91075,-0.91076 1.82147,-1.65591 2.02382,-1.65591 l 0.36791,0 0.27181,-1.44893 0.27183,-1.44892 0.53886,0 c 0.29638,0 0.93995,-0.34785 1.43016,-0.77302 0.49022,-0.42516 0.8913,-0.9658 0.8913,-1.20143 l 0,-0.42842 1.24193,-0.43294 1.24193,-0.43294 0,-0.62302 c 0,-0.34266 0.2162,-1.09751 0.48043,-1.67745 l 0.48043,-1.05442 0.59327,0 0.59327,0 0.21652,-0.82795 0.21651,-0.82796 0.61144,0 0.61144,0 0.21652,-0.82795 0.21651,-0.82796 0.77968,0 0.77967,0 0,0.82796 0,0.82795 1.03494,0 1.03495,0 0,0.82796 0,0.82795 0.78307,0 0.78308,0 0.25975,1.03495 0.25976,1.03494 0.77178,0 0.77179,0 0.20476,0.78304 0.20477,0.78303 1.68914,0.28538 1.68914,0.28538 0.23798,0.74979 0.23797,0.74978 0.91774,0.24603 c 0.50475,0.13533 1.32434,0.24859 1.82129,0.25169 l 0.90355,0.006 0.26278,0.82796 0.26279,0.82795 2.23897,0 2.23897,0 1.35544,0.82641 1.35543,0.82641 0.95201,0.002 0.95202,0.002 1.32485,-0.68629 1.32485,-0.68629 1.65591,-0.18661 1.65591,-0.1866 0.75617,-0.7997 0.75609,-0.7997 1.2103,-0.24205 1.21027,-0.24205 0,-0.90277 0,-0.90277 1.03494,-1.40279 1.03495,-1.40278 0,-0.90277 c 0,-0.49653 -0.11534,-1.47941 -0.2563,-2.1842 l -0.25629,-1.28143 -0.77865,-0.24713 -0.77865,-0.24715 0,-0.96216 0,-0.96217 -0.98552,-0.24734 -0.98547,-0.24734 -0.21767,-0.83248 -0.21771,-0.83248 -0.61484,0 -0.61484,0 -0.23737,-0.94576 -0.23738,-0.94576 -0.94594,-0.069 -0.94598,-0.069 -0.56793,-0.84812 -0.56798,-0.84813 -0.74359,0 c -0.40901,0 -1.03829,-0.11308 -1.39845,-0.25128 l -0.65483,-0.25148 0,-0.5306 0,-0.5306 -1.47286,-0.27632 -1.47289,-0.27631 -0.69875,-0.81608 -0.69875,-0.81608 -1.5692,-0.25092 -1.5692,-0.25093 -0.41351,-0.77264 -0.4135,-0.77264 -1.40646,0 -1.40646,0 -0.23559,-0.74228 -0.23559,-0.74229 -1.86219,-0.49806 -1.8622,-0.49806 0,-0.57826 0,-0.57827 -0.65482,-0.25128 c -0.36016,-0.1382 -1.01059,-0.25128 -1.44542,-0.25128 l -0.79058,0 -0.51707,-0.82795 -0.51707,-0.82796 -0.76713,0 -0.76713,0 -0.2177,-0.83248 -0.2177,-0.83248 -0.97064,-0.24362 -0.97064,-0.24361 -0.21912,-0.68331 -0.21913,-0.6833 -1.85649,-1.24194 -1.8565,-1.24193 -0.009,-0.76322 -0.009,-0.76321 -0.82795,-0.21652 -0.82796,-0.21651 0,-0.75178 0,-0.75177 -0.82795,-0.26279 -0.82796,-0.26278 0,-0.78549 0,-0.78549 -0.73738,-0.39464 -0.73738,-0.39464 -0.58031,-1.47897 -0.5803,-1.47897 -0.7522,-0.23874 -0.7522,-0.23875 0,-2.64238 0,-2.64239 -0.72446,-0.40467 -0.72446,-0.40468 -0.13722,-5.45289 -0.13721,-5.45289 0.86167,-0.80277 0.86168,-0.80277 0,-2.22899 0,-2.22898 1.03494,-1.22996 1.03494,-1.22996 0,-0.65014 0,-0.65013 0.81015,-0.43358 0.81013,-0.43357 0.27088,-1.44389 0.27087,-1.44389 0.78189,0 0.78188,0 0,-0.61143 0,-0.61142 1.1233,-0.734 c 0.61781,-0.40371 1.51657,-1.10659 1.99723,-1.56196 0.48067,-0.45538 0.99266,-1.15062 1.13774,-1.54499 l 0.2638,-0.71704 1.6358,-0.26157 1.6358,-0.26158 0.20419,-0.78079 0.20418,-0.7808 0.86671,0 0.86671,0 0.85008,-0.85007 0.85008,-0.85009 2.04776,-0.24252 2.04777,-0.24253 0,-0.28987 c 0,-0.15942 0.47448,-0.50605 1.05442,-0.77028 l 1.05444,-0.48043 10.43344,0.009 10.43344,0.009 1.03498,0.80954 1.03495,0.80955 1.73593,0.009 1.73589,0.009 0.55117,0.78688 0.55117,0.78688 1.74918,0.47101 c 0.96204,0.25905 1.74922,0.60464 1.74922,0.76797 0,0.16333 0.51229,0.50699 1.13844,0.76369 0.62614,0.25669 1.46444,0.57575 1.86289,0.70902 l 0.72446,0.24232 0,0.63396 0,0.63395 1.07229,0 1.07228,0 1.0898,1.24194 1.08975,1.24193 0.52878,0 0.52881,0 0,0.82795 0,0.82796 1.03495,0 1.03494,0 0,0.81339 0,0.81339 0.79649,0.42627 0.79649,0.42628 0.66949,1.342 0.66948,1.34201 -0.43103,0.14368 -0.43103,0.14368 0,1.00045 0,1.00044 -0.78308,0 -0.78308,0 -0.25977,1.03495 -0.25973,1.03494 -0.60354,0 -0.60354,0 -0.67814,1.03494 -0.67813,1.03495 -0.57336,0 -0.57332,0 0,0.7615 0,0.76151 -1.03494,0.47155 -1.03495,0.47155 0,0.62984 0,0.62985 -0.77968,0 -0.77969,0 -0.22454,0.85867 -0.22454,0.85868 -0.85867,0.22455 -0.85867,0.22455 0,0.75177 0,0.75178 -0.82841,0.26292 -0.82841,0.26292 -0.4281,0.79992 -0.42809,0.79992 -1.44462,0 -1.44457,0 -0.39349,-1.03494 -0.39348,-1.03495 -0.63124,0 -0.63119,0 0,-0.65692 0,-0.65693 -1.21473,-0.4585 -1.21469,-0.45849 -0.19544,-0.74748 -0.19548,-0.74747 -1.0737,0 -1.07369,0 -0.79579,-0.79578 -0.79578,-0.79577 -2.60367,-0.66704 -2.60372,-0.66703 -0.30613,-0.49532 -0.3061,-0.49533 -2.73951,-0.008 -2.73949,-0.008 -0.40611,0.72446 -0.40612,0.72446 -1.11786,0.002 -1.11787,0.002 -1.34543,0.82032 -1.34542,0.82032 0,0.60572 0,0.60573 -1.03495,1.11672 c -0.56922,0.61419 -1.03494,1.2625 -1.03494,1.44068 0,0.17818 0.23286,0.57733 0.51747,0.887 0.28461,0.30968 0.75033,0.97248 1.03494,1.47288 0.28461,0.5004 0.52033,1.3315 0.52381,1.84689 0.003,0.51538 0.18693,1.2165 0.40764,1.55803 l 0.4013,0.62097 0.0189,-0.41398 0.0189,-0.41398 0.42196,0.72446 0.42196,0.72446 0.96609,0 0.96609,0 0.20038,0.76627 0.20039,0.76627 1.71079,0.27357 1.7108,0.27357 0,0.52569 0,0.5257 1.8629,0.55005 1.8629,0.55004 0,0.527 0,0.52699 0.93145,0.24961 c 0.51229,0.13729 1.36803,0.25217 1.90164,0.25528 l 0.9702,0.006 0.21655,0.82795 0.21651,0.82796 0.78747,0 0.78751,0 2.32734,1.24193 c 1.28002,0.68306 2.53913,1.24193 2.79799,1.24193 0.2589,0 0.7897,0.37258 1.17963,0.82796 l 0.70889,0.82795 0.64233,0 0.64233,0 0.88873,0.82796 0.88868,0.82795 0.75878,0 0.75878,0 0.47156,1.03495 0.47152,1.03494 0.68936,0 0.68935,0 0.97227,1.03494 c 0.53478,0.56922 1.1978,1.03495 1.47347,1.03495 l 0.5012,0 0.6781,1.03494 0.67814,1.03495 0.81843,0 0.81839,0 0,0.77967 0,0.77967 0.82796,0.21652 0.82795,0.21651 0,0.61211 0,0.61211 0.99897,0.65455 0.99897,0.65455 0.27662,1.2594 0.27662,1.25941 0.7943,0.4251 0.7943,0.4251 0.007,0.91688 0.007,0.91689 1.02778,0.9749 1.02783,0.9749 0,2.23747 0,2.23748 0.82795,0.70892 0.82796,0.70891 0,6.31009 0,6.31008 -0.82796,0.44311 -0.82795,0.44311 0,2.60412 0,2.60413 -1.03495,0.97228 -1.03494,0.97228 0,1.00153 0,1.00154 -0.79844,0.20879 -0.79844,0.2088 -0.2666,1.57802 -0.2666,1.57802 -0.95538,0.23979 -0.95542,0.23979 -0.21767,0.83248 -0.21771,0.83249 -0.65971,0 -0.65972,0 0,0.98319 0,0.9832 -1.24193,0.24839 -1.24193,0.24838 0,0.56852 0,0.56852 -1.65591,0.65046 -1.65591,0.65046 0,0.65427 0,0.65427 -1.02041,0 -1.02038,0 -0.44308,0.82795 -0.44312,0.82796 -1.12386,0.006 c -0.61815,0.003 -1.54095,0.11743 -2.05068,0.25405 l -0.92682,0.2484 0.1971,0.31887 0.19705,0.31887 -1.13318,0.43122 -1.13314,0.43122 -3.08347,0.27095 -3.08343,0.27095 -0.50525,0.6913 -0.50522,0.6913 -7.17474,0.0668 z m 113.9137,0.0924 -7.24461,-0.0353 -1.62354,-0.38069 c -0.89286,-0.20938 -1.88455,-0.59736 -2.20364,-0.86217 l -0.58015,-0.48148 -3.50192,-0.18381 -3.50192,-0.1838 -0.56065,-0.8004 -0.5606,-0.80041 -2.31401,-0.23882 -2.31401,-0.23883 -0.24471,-0.77105 -0.24474,-0.77106 -1.63823,0 -1.63828,0 -0.39348,-1.03494 -0.39349,-1.03494 -1.49793,0 -1.4979,0 -0.21655,-0.82796 -0.21651,-0.82795 -0.67615,-8.3e-4 -0.67619,-8.3e-4 -1.44888,-1.24027 -1.44892,-1.23999 -0.6966,-8.3e-4 -0.69656,-8.3e-4 -0.26279,-0.82795 -0.2628,-0.82796 -0.60329,0 -0.60333,0 -0.39348,-1.03494 -0.39349,-1.03495 -0.83818,0 -0.83822,0 0,-1.03494 0,-1.03494 -0.82795,0 -0.82796,0 0,-0.63122 0,-0.63121 -1.03494,-0.39348 -1.03495,-0.39349 0,-0.8382 0,-0.8382 -0.60639,0 -0.60639,0 -0.42855,-0.80074 c -0.23572,-0.44069 -0.42851,-1.20329 -0.42851,-1.69495 l 0,-0.89393 -0.82796,-0.21651 -0.82795,-0.21652 0,-0.76511 0,-0.7651 -0.81016,-0.43358 -0.81015,-0.43357 -0.27277,-1.45402 -0.27277,-1.45401 -0.72997,-0.51129 -0.72996,-0.51129 -0.48589,-2.34054 -0.48588,-2.34054 -0.54695,-0.20988 -0.54691,-0.20987 -0.18095,-2.50135 -0.1809,-2.50136 -0.80266,-0.88662 -0.80267,-0.88662 -0.1429,-12.72865 -0.14286,-12.72865 0.89286,-1.82091 0.89287,-1.8209 0.30932,-2.79434 0.30933,-2.79435 0.64982,-0.51747 0.64982,-0.51748 0.2478,-1.65455 0.24781,-1.65455 0.56525,-0.41534 0.5652,-0.41533 0.53411,-1.65591 0.53416,-1.65591 0.77298,-0.74059 0.77302,-0.74058 0,-0.58428 0,-0.58426 0.57642,-0.33106 0.57638,-0.33105 0.6444,-1.55242 0.6444,-1.55241 0.64212,0 0.64208,0 0,-1.03494 0,-1.03495 0.80005,0 0.80005,0 0.25609,-0.80678 0.25604,-0.80678 0.8068,-0.25606 0.80676,-0.25606 0,-0.79217 0,-0.79217 1.03495,-0.25976 1.03494,-0.25975 0,-0.78308 0,-0.78307 0.77969,0 0.77964,0 0.21651,-0.82796 0.21655,-0.82795 0.87693,0 0.87697,0 0.39348,-1.03495 0.39349,-1.03494 0.65003,0 0.65003,0 1.03494,-1.03494 1.03494,-1.03495 0.78126,0 0.78122,0 0.2466,-0.77691 0.24657,-0.77692 1.64423,-0.26292 1.6442,-0.26292 0,-0.57178 0,-0.57179 0.65483,-0.25128 c 0.36016,-0.1382 1.09803,-0.25128 1.63976,-0.25128 l 0.98498,0 0.74056,-0.78158 0.74061,-0.78158 2.48387,-0.282 c 1.36612,-0.1551 2.58139,-0.22254 2.70058,-0.14986 0.11918,0.0727 0.66658,-0.28703 1.21647,-0.79932 l 0.9998,-0.93145 13.29815,0 13.29816,0 0.88869,0.82795 0.88872,0.82796 1.82846,0 c 1.00563,0 2.41063,0.11643 3.12213,0.25873 l 1.29368,0.25874 0,0.56432 0,0.56433 1.71308,0.27394 1.71313,0.27393 0.66551,0.77728 0.66551,0.77728 1.55419,0.24852 1.55416,0.24852 0,0.5621 0,0.56209 1.84952,0.46572 1.84953,0.46572 0.24826,0.78217 0.24827,0.78218 0.80005,0 0.80005,0 0,0.82795 0,0.82796 0.72446,0.0132 c 0.39846,0.007 1.04757,0.25853 1.44251,0.55841 l 0.718,0.54524 -0.23175,0.23175 -0.23174,0.23175 0.92267,0.29285 0.92268,0.29284 1.99015,2.02183 1.99016,2.02183 0.59107,0 0.59112,0 0.27182,1.44892 0.27182,1.44892 0.40917,0 0.40922,0 0.85486,1.44892 0.85491,1.44893 0.58006,0 0.58007,0 0,1.04793 0,1.04794 0.59567,0.22858 0.59567,0.22858 0.28623,1.31084 0.28622,1.31084 0.77261,0.9855 0.7726,0.98549 0.44524,1.70536 0.44519,1.70536 0.66812,0.5159 0.66807,0.51589 0.1807,2.49799 0.1807,2.49799 0.77729,0.416 0.77728,0.41599 0,11.5768 0,11.57681 -42.8128,0 -42.81281,0 -0.65483,0.25128 -0.65483,0.25128 0,1.31252 0,1.31251 0.57088,0.81658 0.57087,0.81657 0.49371,2.38165 0.49367,2.38166 0.79831,0.42726 0.79836,0.42726 0,0.98652 c 0,0.54258 0.11306,1.28119 0.25128,1.64134 l 0.25129,0.65483 0.57667,0 0.57667,0 0,0.8382 0,0.8382 1.03494,0.39348 1.03495,0.39349 0,0.52906 0,0.52906 1.13843,1.06118 c 0.62615,0.58364 1.46445,1.18263 1.8629,1.33109 l 0.72446,0.26991 0,0.58908 0,0.58908 1.01735,0.25535 1.01739,0.25534 1.11298,1.03147 1.11294,1.03147 0.95393,0 0.95393,0 0.38673,0.69107 0.38674,0.69107 3.34581,0.24585 3.34581,0.24585 0.59393,0.81226 0.59398,0.81226 5.11204,-0.0107 5.11208,-0.0107 1.63993,-0.91052 1.63997,-0.91052 2.39631,0 2.39635,0 0.76648,-0.76646 0.76644,-0.76647 2.08525,-0.27661 2.0852,-0.27662 0.2144,-0.81981 0.2144,-0.81982 0.80626,0 0.80626,0 1.11671,-1.03495 1.1167,-1.03494 0.60855,0 0.6085,0 0.47157,-1.03495 0.47152,-1.03494 0.71084,0 0.7108,0 0.52401,-0.63141 0.52405,-0.63141 0.69768,0.63141 0.69772,0.63141 1.66034,0 1.66038,0 0.47152,1.03494 0.47156,1.03495 1.23626,0 1.23622,0 0.42963,0.80275 0.42962,0.80275 1.86182,0.2792 1.86183,0.2792 0,0.73394 0,0.73394 1.78225,0.26727 1.78226,0.26727 0.69755,0.81468 0.69755,0.81468 1.1425,0.006 c 0.62837,0.003 1.56164,0.11799 2.07394,0.25528 l 0.93145,0.24961 0,0.5284 0,0.52839 -0.62097,0.23829 -0.62096,0.23828 0,1.04794 0,1.04794 -0.4016,0 -0.40164,0 -0.94379,1.65272 -0.94383,1.65272 -0.72446,0.003 -0.72446,0.003 0,0.47566 c 0,0.26161 -0.64278,1.09991 -1.42838,1.8629 -0.78565,0.76298 -1.62855,1.38724 -1.87317,1.38724 l -0.44474,0 -0.39348,1.03495 -0.39349,1.03494 -0.95301,0 -0.95298,0 -1.09518,1.13844 c -0.60234,0.62614 -1.45869,1.47235 -1.90301,1.88047 l -0.80784,0.74204 -1.50696,0.24454 -1.50692,0.24455 -0.24594,0.97981 -0.2459,0.97981 -1.58757,0 -1.58756,0 -0.54094,0.76161 -0.54095,0.76161 -2.25489,0.26348 -2.25494,0.26349 -0.33938,0.6065 -0.33942,0.60649 -1.75244,0.21827 c -0.96387,0.12006 -2.94872,0.32604 -4.41081,0.45776 -1.46213,0.13171 -2.8593,0.36893 -3.10483,0.52715 -0.24557,0.15823 -1.09849,0.51925 -1.8954,0.80227 l -1.44892,0.51459 -7.2446,-0.0353 z m -0.31049,-70.08666 28.04698,0.0347 0,-0.71088 0,-0.71088 0.82795,-0.21651 0.82796,-0.21652 0,-0.64516 0,-0.64515 -0.82796,-0.44311 -0.82795,-0.44311 0,-1.41979 0,-1.41979 -0.82796,-0.44311 -0.82795,-0.44311 0,-0.79882 0,-0.79883 -0.82796,-0.4431 -0.82795,-0.44311 0,-0.6064 0,-0.6064 -0.41398,0 -0.41398,0 0,-0.82796 0,-0.82795 -0.77968,0 -0.77965,0 -0.21796,-0.83349 -0.218,-0.83349 -1.50423,-0.62852 -1.50422,-0.62851 -0.23328,-0.60788 -0.23328,-0.60789 -0.79665,0 -0.79666,0 -0.23684,-0.61718 -0.23684,-0.61719 -1.71655,-0.48564 c -0.94412,-0.2671 -1.90285,-0.7041 -2.13054,-0.9711 -0.22769,-0.26701 -0.82087,-0.70219 -1.31823,-0.96707 l -0.90421,-0.48158 -2.43332,0 -2.43331,0 -1.7137,-0.82796 -1.71366,-0.82795 -1.78553,0 -1.78557,0 -1.5448,0.82795 -1.5448,0.82796 -2.79583,0.006 -2.79584,0.006 -1.03495,0.59004 c -0.56921,0.32453 -1.66315,0.88065 -2.43091,1.23583 -0.76781,0.35519 -1.72409,0.64579 -2.12511,0.64579 l -0.7291,0 -0.21647,0.82796 -0.21659,0.82795 -1.03983,0 c -0.57191,0 -1.3345,0.11307 -1.69466,0.25128 l -0.65479,0.25128 0,0.56879 0,0.56879 -1.03494,0.25975 -1.03495,0.25976 0,0.78307 0,0.78308 -0.63123,0 -0.63119,0 -0.35983,0.93145 c -0.19788,0.51229 -0.84526,1.38307 -1.43865,1.93506 l -1.07887,1.00361 0,1.00154 0,1.00154 -0.78358,0.2049 -0.78353,0.2049 -0.25957,1.30876 -0.25956,1.30875 -0.85296,0.64775 -0.85296,0.64775 0.28184,1.50231 0.28183,1.5023 0.88981,0.12682 c 0.48936,0.0697 13.5109,0.14244 28.93673,0.16153 z m -448.30946,66.31122 -12.494662,0.10952 -0.23696,-0.38341 -0.23696,-0.3834 -0.004,-53.51643 -0.004,-53.51643 0.44009,-0.44073 0.44008,-0.44074 11.466472,-0.12274 11.46647,-0.12274 0.93281,0.23412 0.93281,0.23412 0,4.93027 0,4.93027 0.65054,0.65054 0.65054,0.65054 1.00537,0 1.00537,0 0,-0.62985 0,-0.62984 1.02699,-0.46792 1.02699,-0.46793 0.22865,-0.72043 0.22866,-0.72044 0.81424,-0.21293 0.81425,-0.21293 0,-0.65183 0,-0.65184 1.04586,-0.26249 1.04586,-0.2625 0.41763,-0.78033 0.41762,-0.78034 1.2128,0 1.2128,0 0.44311,-0.82795 0.44311,-0.82796 0.75512,0 0.75511,0 2.32733,-1.24193 2.32733,-1.24193 1.5146,0 1.5146,0 0.52918,-0.72446 0.52919,-0.72446 10.69385,-0.12411 10.69384,-0.12412 0.6473,0.79915 0.6473,0.79915 1.70064,0.28732 1.70064,0.28732 0.20636,0.53779 0.20637,0.53778 1.47008,0.27579 1.47007,0.27579 0.52937,0.75204 0.52937,0.75204 0.93145,0.29427 0.93145,0.29428 0.0159,0.48957 0.0159,0.48958 1.32948,0.92645 c 0.7312,0.50955 1.84059,1.25471 2.46529,1.65591 l 1.13582,0.72946 0.002,0.52771 0.002,0.52772 1.01268,0.38502 1.01267,0.38502 0.26819,1.42953 0.26818,1.42953 0.75395,0.19716 0.75396,0.19717 0.13857,0.97937 0.13857,0.97938 1.76058,0.12736 1.76057,0.12735 0.41779,-1.09886 0.41779,-1.09887 0.82297,-0.21521 0.82297,-0.21521 0,-0.81843 0,-0.81843 0.82796,-0.21651 0.82795,-0.21652 0,-0.61144 0,-0.61144 0.81425,-0.21293 0.81424,-0.21293 0.24829,-0.78229 0.24829,-0.7823 0.96824,-0.24301 0.96824,-0.24301 0.20735,-0.79289 0.20734,-0.7929 0.81843,0 0.81843,0 0.20184,-0.77186 0.20185,-0.77186 1.49731,-0.2809 1.49732,-0.2809 0.41361,-0.77283 0.41362,-0.77285 1.62074,-0.27382 1.62075,-0.27382 0.20879,-0.79843 0.20879,-0.79841 2.50806,0 2.50805,0 0.45337,-0.84712 0.45337,-0.84712 10.97947,0.12266 10.97948,0.12266 0.52921,0.72446 0.52922,0.72446 1.82875,0 1.82875,0 0.71877,0.83946 0.71878,0.83947 1.27171,0.25434 1.27171,0.25434 0.22525,0.587 0.22525,0.587 1.60207,0.64102 1.60206,0.64102 0,0.57602 0,0.57601 0.86671,0 0.86671,0 0.22482,0.85972 0.22483,0.85971 0.97835,0.37197 0.97836,0.37197 0,0.83821 0,0.8382 0.8224,0 0.8224,0 0.60539,1.44892 0.6054,1.44892 0.40221,0 0.40221,0 0.27892,1.2699 0.27891,1.26991 0.56003,0.2149 0.56003,0.21491 0.45562,2.19469 0.45562,2.19469 0.80821,0.73142 0.80822,0.73143 0,4.56049 0,4.56049 0.72446,0.80045 0.72446,0.80045 0,38.14603 0,38.14603 -13.24728,0 -13.24728,0 -0.20699,-33.6509 -0.20699,-33.65088 -0.59451,-0.36731 -0.5945,-0.36731 -0.23716,-3.44676 -0.23715,-3.44677 -0.33121,-0.51747 -0.3312,-0.51747 -0.59654,0 -0.59654,0 -0.006,-1.34543 c -0.003,-0.73998 -0.1432,-1.5453 -0.31048,-1.7896 -0.16728,-0.24429 -0.63015,-0.56446 -1.02861,-0.71147 l -0.72446,-0.26729 0,-0.84095 0,-0.84095 -0.59307,0 -0.59306,0 -0.26279,-0.82795 -0.26278,-0.82796 -1.00705,0 -1.00705,0 0,-0.3844 c 0,-0.21143 -0.27011,-0.65452 -0.60024,-0.98466 l -0.60025,-0.60025 -2.32325,-0.29027 -2.32325,-0.29027 -0.22562,-0.58797 -0.22563,-0.58797 -3.42383,0 -3.42383,0 -0.47941,0.57766 -0.47942,0.57766 -1.53767,0.26445 c -0.84571,0.14545 -2.04151,0.36417 -2.65733,0.48605 l -1.11968,0.22161 -0.25365,0.79918 -0.25365,0.79918 -1.45978,0 -1.45978,0 -0.20332,0.77749 -0.20332,0.7775 -0.96393,0.43919 -0.96393,0.4392 -0.53307,1.47417 -0.53306,1.47416 -0.49293,0 -0.49292,0 -0.25975,1.03494 -0.25976,1.03495 -0.82007,0 -0.82007,0 -0.006,0.93145 c -0.003,0.51229 -0.11348,1.33338 -0.24526,1.82462 l -0.23961,0.89318 -0.78968,0.20651 -0.78968,0.2065 0,2.2598 0,2.25981 -0.82796,1.05257 -0.82795,1.05258 0,32.08759 0,32.0876 -0.25128,0.65482 -0.25129,0.65482 -12.89249,-0.006 -12.8925,-0.006 -0.50999,-0.32395 -0.50998,-0.32394 -0.11098,-32.33061 -0.11099,-32.33062 -0.67221,-0.76778 -0.6722,-0.76779 -0.2174,-3.68592 -0.2174,-3.68593 -0.64616,-0.36161 -0.64616,-0.3616 -0.27591,-1.47072 -0.27591,-1.47072 -0.56869,-0.21823 -0.5687,-0.21823 0,-0.57667 0,-0.57668 -0.41398,0 -0.41397,0 0,-0.98666 0,-0.98666 -0.85868,-0.22455 -0.85868,-0.22455 -0.22455,-0.85868 -0.22454,-0.85867 -0.98667,0 -0.98666,0 0,-0.43841 0,-0.43841 -0.4169,0.25766 -0.4169,0.25765 -0.24663,-0.6427 -0.24663,-0.64272 -1.50985,-0.37695 c -0.83042,-0.20733 -2.02977,-0.49425 -2.66522,-0.6376 l -1.15537,-0.26064 0.24835,-0.40184 0.24835,-0.40184 -1.57684,-0.0817 c -0.86727,-0.0449 -2.41516,-0.0309 -3.43975,0.0312 l -1.8629,0.11284 -0.3039,0.54126 -0.3039,0.54126 -2.24868,0.28096 -2.24868,0.28095 -1.17322,1.009 -1.17321,1.00899 -0.91689,4.2e-4 -0.91688,4.1e-4 -0.41762,0.78034 -0.41763,0.78033 -1.01716,0.25529 -1.01716,0.25529 -0.1322,0.93077 -0.13189,0.93095 -0.62097,0 -0.62096,0 -0.12676,0.88925 -0.12676,0.88925 -0.76076,0.19894 -0.76076,0.19895 -0.30452,1.39567 -0.30451,1.39567 -0.98135,1.1702 -0.98135,1.1702 0,1.14683 0,1.14682 -0.77202,0.89015 -0.77202,0.89015 -0.19839,5.15005 -0.1984,5.15005 -0.68257,1.04174 -0.68258,1.04174 -0.10641,27.85901 -0.10642,27.85901 -12.49466,0.10952 z m 292.44698,-159.40157 -3.68688,0.0173 -0.23346,-0.60839 -0.23346,-0.60839 0.6797,-1.42534 c 0.37383,-0.78395 0.67969,-1.68591 0.67969,-2.00437 l 0,-0.57903 -0.82795,-0.26278 -0.82796,-0.26279 0,-0.80005 0,-0.80006 1.008,0 c 0.55439,0 1.48584,-0.18168 2.06988,-0.40373 l 1.0619,-0.40373 0,-0.64421 0,-0.6442 0.72446,-0.27736 c 0.39845,-0.15255 1.03599,-0.659 1.41676,-1.12545 l 0.6923,-0.84808 0.44614,1.16538 c 0.24537,0.64097 0.44613,1.61899 0.44613,2.17339 l 0,1.00799 1.45917,0 1.45917,0 0.39212,1.03135 0.39212,1.03135 -0.23967,0.62456 -0.23967,0.62456 -0.75576,0 -0.75577,0 -0.27185,0.93145 c -0.14951,0.5123 -0.47353,1.41337 -0.72004,2.00239 l -0.4482,1.07094 -3.68687,0.0173 z m -296.90096,-2.36616 c -0.35497,0 -0.6454,-0.0821 -0.6454,-0.18256 0,-0.1004 0.17342,-0.28973 0.38537,-0.42073 l 0.38537,-0.23817 0.26003,0.42073 0.26002,0.42073 -0.64539,0 z m 37.30253,-15.86914 -0.27598,0.27599 0,-0.55197 0,-0.55197 0.27598,0.27598 0.27599,0.27599 -0.27599,0.27598 z m 2.00089,-0.27598 c -0.11384,0 -0.20699,-0.0932 -0.20699,-0.20699 0,-0.11384 0.0931,-0.20699 0.20699,-0.20699 0.11385,0 0.20699,0.0931 0.20699,0.20699 0,0.11384 -0.0931,0.20699 -0.20699,0.20699 z m 390.17379,-98.11266 -0.82796,0 0,-2.849564 0,-2.84956 -0.82795,-0.21652 -0.82796,-0.21651 0,-0.6186 0,-0.6186 1.53988,-0.36416 1.53983,-0.36417 0.35411,-1.49743 0.35412,-1.49744 1.2012,-0.1763 1.20124,-0.1763 0.37572,0.23737 c 0.20662,0.13056 0.44598,0.60782 0.53184,1.06058 l 0.15615,0.8232 0.82319,0.15098 c 0.45277,0.083 1.13745,0.42944 1.52158,0.76977 l 0.69838,0.61878 0.44006,-0.27197 0.44005,-0.27197 0,1.23757 0,1.23757 -0.93144,0.13229 -0.93145,0.13228 -0.12618,1.9664 -0.12618,1.966394 -2.87516,0 -2.87516,0 0,0.82795 0,0.82796 -0.82795,0 z"
       style="fill:none;stroke:#000000;stroke-width:1;stroke-miterlimit:4;stroke-opacity:1;stroke-dasharray:none" />
  </g>
</svg>
