<?xml version="1.0" encoding="UTF-8" standalone="no"?>
<!-- Created with Inkscape (http://www.inkscape.org/) -->

<svg
   xmlns:dc="http://purl.org/dc/elements/1.1/"
   xmlns:cc="http://creativecommons.org/ns#"
   xmlns:rdf="http://www.w3.org/1999/02/22-rdf-syntax-ns#"
   xmlns:svg="http://www.w3.org/2000/svg"
   xmlns="http://www.w3.org/2000/svg"
   xmlns:sodipodi="http://sodipodi.sourceforge.net/DTD/sodipodi-0.dtd"
   xmlns:inkscape="http://www.inkscape.org/namespaces/inkscape"
   width="1052.3622"
   height="744.09448"
   id="svg2"
   sodipodi:version="0.32"
   inkscape:version="0.47 r22583"
   sodipodi:docname="portal.svg"
   inkscape:output_extension="org.inkscape.output.svg.inkscape"
   version="1.0">
  <defs
     id="defs4">
    <inkscape:perspective
       sodipodi:type="inkscape:persp3d"
       inkscape:vp_x="0 : 526.18109 : 1"
       inkscape:vp_y="0 : 1000 : 0"
       inkscape:vp_z="744.09448 : 526.18109 : 1"
       inkscape:persp3d-origin="372.04724 : 350.78739 : 1"
       id="perspective10" />
    <inkscape:perspective
       id="perspective2390"
       inkscape:persp3d-origin="372.04724 : 350.78739 : 1"
       inkscape:vp_z="744.09448 : 526.18109 : 1"
       inkscape:vp_y="0 : 1000 : 0"
       inkscape:vp_x="0 : 526.18109 : 1"
       sodipodi:type="inkscape:persp3d" />
    <inkscape:perspective
       id="perspective2882"
       inkscape:persp3d-origin="124.97965 : 83.319768 : 1"
       inkscape:vp_z="249.9593 : 124.97965 : 1"
       inkscape:vp_y="0 : 1000 : 0"
       inkscape:vp_x="0 : 124.97965 : 1"
       sodipodi:type="inkscape:persp3d" />
    <inkscape:perspective
       id="perspective2598"
       inkscape:persp3d-origin="211 : 38.666667 : 1"
       inkscape:vp_z="422 : 58 : 1"
       inkscape:vp_y="0 : 1000 : 0"
       inkscape:vp_x="0 : 58 : 1"
       sodipodi:type="inkscape:persp3d" />
  </defs>
  <sodipodi:namedview
     id="base"
     pagecolor="#ffffff"
     bordercolor="#666666"
     borderopacity="1.0"
     gridtolerance="10000"
     guidetolerance="10"
     objecttolerance="10"
     inkscape:pageopacity="0.0"
     inkscape:pageshadow="2"
     inkscape:zoom="0.9899495"
     inkscape:cx="435.99114"
     inkscape:cy="325.18866"
     inkscape:document-units="px"
     inkscape:current-layer="layer2"
     showgrid="false"
     inkscape:window-width="1920"
     inkscape:window-height="1004"
     inkscape:window-x="0"
     inkscape:window-y="25"
     inkscape:window-maximized="1" />
  <metadata
     id="metadata7">
    <rdf:RDF>
      <cc:Work
         rdf:about="">
        <dc:format>image/svg+xml</dc:format>
        <dc:type
           rdf:resource="http://purl.org/dc/dcmitype/StillImage" />
      </cc:Work>
    </rdf:RDF>
  </metadata>
  <g
     inkscape:label="Layer 1"
     inkscape:groupmode="layer"
     id="layer1"
     style="opacity:1;display:inline" />
  <g
     inkscape:groupmode="layer"
     id="layer2"
     inkscape:label="blubb"
     style="opacity:1;display:inline">
    <g
       style="opacity:1;fill:#000000;display:inline"
       transform="translate(-202.54519,-377.00053)"
       id="g2885"
       inkscape:label="Layer 1">
      <g
         transform="translate(250,407.362)"
         id="g3281"
         style="fill:#000000">
        <path
           style="opacity:0.69999999999999996;fill:#000000;fill-opacity:1;fill-rule:nonzero;stroke:none;stroke-width:1.20000005000000010;stroke-linecap:butt;stroke-linejoin:bevel;marker:none;stroke-miterlimit:4;stroke-dasharray:none;stroke-dashoffset:0;stroke-opacity:1;visibility:visible;display:inline;overflow:visible"
           d="M 89.78125,5.0625 C 61.838736,13.261359 37.939859,30.942487 21.84375,54.40625 L 139.125,54.40625 L 89.78125,5.0625 z"
           id="path3258" />
        <path
           inkscape:transform-center-y="-95.265625"
           inkscape:transform-center-x="44.515625"
           style="opacity:0.69999999999999996;fill:#000000;fill-opacity:1;fill-rule:nonzero;stroke:none;stroke-width:1.20000005000000010;stroke-linecap:butt;stroke-linejoin:bevel;marker:none;stroke-miterlimit:4;stroke-dasharray:none;stroke-dashoffset:0;stroke-opacity:1;visibility:visible;display:inline;overflow:visible"
           d="M 15.287963,65.094797 C 1.3270911,90.650607 -3.0695213,120.05211 2.1401968,148.02516 L 85.070564,65.094797 L 15.287963,65.094797 z"
           id="path3267" />
        <path
           inkscape:transform-center-y="-18.440022"
           inkscape:transform-center-x="82.454542"
           style="opacity:0.69999999999999996;fill:#000000;fill-opacity:1;fill-rule:nonzero;stroke:none;stroke-width:1.20000005000000010;stroke-linecap:butt;stroke-linejoin:bevel;marker:none;stroke-miterlimit:4;stroke-dasharray:none;stroke-dashoffset:0;stroke-opacity:1;visibility:visible;display:inline;overflow:visible"
           d="M 5.0624994,160.21875 C 13.261359,188.16126 30.942486,212.06014 54.406247,228.15625 L 54.40625,110.875 L 5.0624994,160.21875 z"
           id="path3269" />
        <path
           inkscape:transform-center-y="44.515625"
           inkscape:transform-center-x="95.265625"
           style="opacity:0.69999999999999996;fill:#000000;fill-opacity:1;fill-rule:nonzero;stroke:none;stroke-width:1.20000005000000010;stroke-linecap:butt;stroke-linejoin:bevel;marker:none;stroke-miterlimit:4;stroke-dasharray:none;stroke-dashoffset:0;stroke-opacity:1;visibility:visible;display:inline;overflow:visible"
           d="M 65.094797,234.71204 C 90.650604,248.67291 120.05211,253.06952 148.02516,247.85981 L 65.094797,164.92944 L 65.094797,234.71204 z"
           id="path3271" />
        <path
           inkscape:transform-center-y="82.454546"
           inkscape:transform-center-x="18.440022"
           style="opacity:0.69999999999999996;fill:#000000;fill-opacity:1;fill-rule:nonzero;stroke:none;stroke-width:1.20000005000000010;stroke-linecap:butt;stroke-linejoin:bevel;marker:none;stroke-miterlimit:4;stroke-dasharray:none;stroke-dashoffset:0;stroke-opacity:1;visibility:visible;display:inline;overflow:visible"
           d="M 160.21875,244.9375 C 188.16126,236.73864 212.06014,219.05751 228.15625,195.59376 L 110.875,195.59375 L 160.21875,244.9375 z"
           id="path3273" />
        <path
           inkscape:transform-center-y="95.265625"
           inkscape:transform-center-x="-44.515625"
           style="opacity:0.69999999999999996;fill:#000000;fill-opacity:1;fill-rule:nonzero;stroke:none;stroke-width:1.20000005000000010;stroke-linecap:butt;stroke-linejoin:bevel;marker:none;stroke-miterlimit:4;stroke-dasharray:none;stroke-dashoffset:0;stroke-opacity:1;visibility:visible;display:inline;overflow:visible"
           d="M 234.71204,184.9052 C 248.67291,159.34939 253.06952,129.94789 247.85981,101.97484 L 164.92944,184.9052 L 234.71204,184.9052 z"
           id="path3275" />
        <path
           inkscape:transform-center-y="18.44002"
           inkscape:transform-center-x="-82.454546"
           style="opacity:0.69999999999999996;fill:#000000;fill-opacity:1;fill-rule:nonzero;stroke:none;stroke-width:1.20000005000000010;stroke-linecap:butt;stroke-linejoin:bevel;marker:none;stroke-miterlimit:4;stroke-dasharray:none;stroke-dashoffset:0;stroke-opacity:1;visibility:visible;display:inline;overflow:visible"
           d="M 244.9375,89.781246 C 236.73864,61.838733 219.05751,37.939861 195.59376,21.843748 L 195.59375,139.125 L 244.9375,89.781246 z"
           id="path3277" />
        <path
           id="path3265"
           d="M 184.9052,15.287961 C 159.34939,1.3270897 129.94789,-3.0695178 101.97484,2.1401883 L 184.9052,85.070564 L 184.9052,15.287961 z"
           style="opacity:0.69999999999999996;fill:#000000;fill-opacity:1;fill-rule:nonzero;stroke:none;stroke-width:1.20000005000000010;stroke-linecap:butt;stroke-linejoin:bevel;marker:none;stroke-miterlimit:4;stroke-dasharray:none;stroke-dashoffset:0;stroke-opacity:1;visibility:visible;display:inline;overflow:visible"
           inkscape:transform-center-x="-95.265625"
           inkscape:transform-center-y="-44.515626" />
      </g>
    </g>
    <g
       id="g2601"
       transform="matrix(1.0892602,0,0,1.0892602,558.88788,187.14491)"
       style="fill:#000000">
      <g
         id="bg"
         style="fill:#000000" />
      <g
         id="logo"
         style="fill:#000000">
        <path
           id="path2556"
           d="M 120.752,78.435 L 119.549,70.953 L 104.48,70.953 L 99.554,78.435 L 88.883,78.435 L 113.129,44.793 L 124.417,44.793 L 130.429,78.435 L 120.752,78.435 z M 117.321,53.778 C 117.302,53.528 117.288,53.25 117.278,52.945 C 117.268,52.64 117.268,52.347 117.278,52.066 C 117.289,51.784 117.302,51.53 117.321,51.303 C 117.342,51.076 117.361,50.908 117.381,50.799 L 117.206,50.799 C 117.166,50.94 117.1,51.12 117.001,51.339 C 116.902,51.559 116.79,51.797 116.663,52.054 C 116.536,52.312 116.39,52.582 116.225,52.864 C 116.059,53.146 115.888,53.419 115.711,53.685 L 108.028,65.133 L 118.846,65.133 L 117.321,53.778 z"
           style="fill:#000000" />
        <path
           id="path2558"
           d="M 176.194,54.365 C 176.194,56.023 175.832,57.606 175.109,59.115 C 174.384,60.624 173.261,61.95 171.737,63.092 C 170.213,64.234 168.277,65.146 165.933,65.825 C 163.586,66.505 160.783,66.846 157.518,66.846 L 151.624,66.846 L 148.575,78.434 L 139.016,78.434 L 147.957,44.792 L 162.383,44.792 C 164.767,44.792 166.828,45.038 168.569,45.531 C 170.308,46.024 171.741,46.697 172.865,47.549 C 173.988,48.401 174.825,49.41 175.372,50.575 C 175.919,51.74 176.194,53.004 176.194,54.365 z M 166.166,54.88 C 166.166,53.582 165.619,52.546 164.523,51.772 C 163.428,50.998 161.815,50.61 159.685,50.61 L 155.961,50.61 L 153.176,61.097 L 157.515,61.097 C 159.02,61.097 160.315,60.929 161.4,60.593 C 162.485,60.257 163.379,59.803 164.084,59.232 C 164.788,58.661 165.311,58 165.651,57.25 C 165.993,56.5 166.166,55.709 166.166,54.88 z"
           style="fill:#000000" />
        <path
           id="path2560"
           d="M 213.006,50.963 L 198.318,50.963 L 196.325,58.54 L 210.016,58.54 L 208.345,64.733 L 194.711,64.733 L 192.658,72.287 L 208.345,72.287 L 206.701,78.433 L 181.49,78.433 L 190.43,44.792 L 214.648,44.792 L 213.006,50.963 z"
           style="fill:#000000" />
        <path
           id="path2562"
           d="M 255.938,53.355 C 255.938,54.778 255.618,56.064 254.971,57.214 C 254.325,58.364 253.446,59.361 252.33,60.205 C 251.215,61.05 249.912,61.737 248.416,62.27 C 246.921,62.801 245.324,63.161 243.624,63.348 L 243.624,63.442 C 244.836,63.755 245.871,64.35 246.73,65.225 C 247.59,66.102 248.235,67.266 248.667,68.721 L 251.599,78.432 L 241.456,78.432 L 239.167,69.776 C 238.815,68.385 238.201,67.334 237.32,66.621 C 236.441,65.91 235.24,65.554 233.714,65.554 L 232.104,65.554 L 228.672,78.433 L 219.113,78.433 L 228.056,44.792 L 242.42,44.792 C 244.862,44.792 246.943,45.022 248.665,45.484 C 250.386,45.945 251.782,46.571 252.856,47.36 C 253.931,48.15 254.711,49.061 255.204,50.093 C 255.694,51.127 255.938,52.214 255.938,53.355 z M 245.853,54.599 C 245.853,53.301 245.374,52.288 244.416,51.561 C 243.457,50.833 242.011,50.47 240.077,50.47 L 236.117,50.47 L 233.596,59.83 L 237.436,59.83 C 238.882,59.83 240.133,59.685 241.19,59.396 C 242.247,59.106 243.114,58.724 243.797,58.246 C 244.482,57.769 244.995,57.214 245.337,56.58 C 245.681,55.947 245.853,55.288 245.853,54.599 z"
           style="fill:#000000" />
        <path
           id="path2564"
           d="M 294.853,50.963 L 283.008,50.963 L 275.737,78.435 L 266.211,78.435 L 273.451,50.963 L 261.461,50.963 L 263.132,44.793 L 296.527,44.793 L 294.853,50.963 z"
           style="fill:#000000" />
        <path
           id="path2566"
           d="M 335.338,64.733 C 334.751,66.938 333.996,68.922 333.078,70.692 C 332.16,72.459 330.942,73.96 329.43,75.196 C 327.914,76.43 326.034,77.378 323.784,78.034 C 321.537,78.69 318.789,79.018 315.547,79.018 C 313.201,79.018 311.092,78.76 309.214,78.245 C 307.338,77.727 305.743,76.981 304.436,76.005 C 303.127,75.026 302.12,73.838 301.415,72.439 C 300.714,71.042 300.36,69.449 300.36,67.668 C 300.36,66.855 300.437,65.959 300.593,64.98 C 300.751,64.002 300.946,63.091 301.18,62.248 L 305.868,44.794 L 315.429,44.794 L 310.68,62.295 C 310.465,63.124 310.269,63.952 310.093,64.779 C 309.914,65.609 309.828,66.312 309.828,66.89 C 309.828,67.797 309.997,68.599 310.345,69.294 C 310.684,69.989 311.161,70.573 311.779,71.043 C 312.396,71.511 313.119,71.867 313.949,72.11 C 314.781,72.352 315.678,72.473 316.635,72.473 C 317.748,72.473 318.783,72.339 319.74,72.073 C 320.698,71.809 321.557,71.371 322.32,70.76 C 323.084,70.151 323.758,69.34 324.343,68.331 C 324.928,67.32 325.417,66.075 325.808,64.589 L 331.146,44.789 L 340.703,44.789 L 335.338,64.733 z"
           style="fill:#000000" />
        <path
           id="path2568"
           d="M 382.879,53.355 C 382.879,54.778 382.554,56.064 381.908,57.214 C 381.262,58.363 380.384,59.361 379.269,60.205 C 378.155,61.05 376.849,61.737 375.355,62.27 C 373.859,62.801 372.26,63.161 370.562,63.348 L 370.562,63.442 C 371.772,63.755 372.81,64.35 373.668,65.225 C 374.525,66.102 375.173,67.266 375.604,68.721 L 378.537,78.432 L 368.392,78.432 L 366.104,69.776 C 365.752,68.385 365.137,67.334 364.257,66.621 C 363.377,65.91 362.176,65.554 360.651,65.554 L 359.039,65.554 L 355.608,78.433 L 346.052,78.433 L 354.99,44.792 L 369.357,44.792 C 371.799,44.792 373.881,45.022 375.601,45.484 C 377.32,45.945 378.718,46.571 379.792,47.36 C 380.865,48.15 381.646,49.061 382.139,50.093 C 382.632,51.127 382.879,52.214 382.879,53.355 z M 372.791,54.599 C 372.791,53.301 372.312,52.288 371.354,51.561 C 370.395,50.833 368.951,50.47 367.014,50.47 L 363.056,50.47 L 360.535,59.83 L 364.378,59.83 C 365.822,59.83 367.075,59.685 368.131,59.396 C 369.187,59.106 370.057,58.724 370.739,58.246 C 371.424,57.769 371.935,57.214 372.277,56.58 C 372.619,55.947 372.791,55.288 372.791,54.599 z"
           style="fill:#000000" />
        <path
           id="path2613"
           d="M 418.913,50.963 L 404.225,50.963 L 402.231,58.54 L 415.923,58.54 L 414.251,64.733 L 400.618,64.733 L 398.564,72.287 L 414.252,72.287 L 412.61,78.433 L 387.394,78.433 L 396.336,44.792 L 420.554,44.792 L 418.913,50.963 z"
           style="fill:#000000" />
        <g
           id="g2572"
           style="fill:#000000">
          <path
             id="path2574"
             d="M 73.866,12.072 C 64.465,10.01 55.1,10.746 46.637,13.719 L 86.8,41.508 L 82.316,14.718 C 79.625,13.607 76.806,12.717 73.866,12.072 z"
             style="fill:#000000" />
          <path
             id="path2576"
             d="M 85.777,16.307 L 93.895,63.979 L 109.479,42.062 C 104.998,31.062 96.661,21.813 85.777,16.307 z"
             style="fill:#000000" />
          <path
             id="path2578"
             d="M 43.398,14.985 C 32.301,19.771 23.056,28.508 17.801,39.833 L 66.347,30.815 L 43.398,14.985 z"
             style="fill:#000000" />
          <path
             id="path2580"
             d="M 43.514,38.215 L 16.479,42.966 C 15.59,45.282 14.861,47.696 14.313,50.193 C 12.235,59.663 13.001,69.097 16.031,77.61 L 43.514,38.215 z"
             style="fill:#000000" />
          <path
             id="path2582"
             d="M 32.297,59.159 L 17.41,81.08 C 22.144,91.789 30.58,100.733 41.466,105.965 L 32.297,59.159 z"
             style="fill:#000000" />
          <path
             id="path2584"
             d="M 108.127,82.763 L 60.818,91.939 L 82.57,106.976 C 93.56,102.332 102.761,93.819 108.127,82.763 z"
             style="fill:#000000" />
          <path
             d="M 39.914,81.347 L 44.492,107.297 C 47.028,108.314 49.68,109.14 52.435,109.744 C 61.782,111.795 71.094,111.077 79.519,108.145 L 39.914,81.347 z"
             id="path2236"
             style="fill:#000000" />
        </g>
        <g
           id="g2587"
           style="fill:#000000">
          <g
             id="g2589"
             style="fill:#000000">
            <path
               id="path2591"
               d="M 123.959,85.244 L 121.393,85.244 L 121.393,100.766 L 132.894,100.766 L 132.894,98.92 L 123.959,98.92 L 123.959,85.244 L 123.959,85.244 z M 149.34,85.244 L 142.797,100.766 L 145.567,100.766 L 147.353,96.248 L 154.275,96.248 L 156.263,100.766 L 159.033,100.766 L 152.312,85.244 L 149.34,85.244 z M 147.931,94.427 L 150.927,87.916 L 153.493,94.427 L 147.931,94.427 z M 183.369,93.758 C 182.824,93.228 182.105,92.834 181.218,92.58 C 181.822,92.298 182.351,91.886 182.804,91.34 C 183.256,90.796 183.483,90.148 183.483,89.4 C 183.483,89.289 183.478,89.177 183.47,89.072 C 183.461,88.966 183.441,88.857 183.407,88.743 C 183.305,87.822 182.815,87.034 181.934,86.368 C 181.053,85.704 180.017,85.329 178.827,85.245 L 170.522,85.245 L 170.522,100.766 L 179.229,100.766 C 179.415,100.766 179.599,100.757 179.784,100.735 C 179.969,100.714 180.152,100.682 180.337,100.639 C 181.311,100.43 182.204,99.956 183.019,99.229 C 183.832,98.501 184.231,97.581 184.213,96.461 L 184.213,96.208 C 184.213,96.122 184.204,96.031 184.187,95.932 C 184.186,95.013 183.915,94.289 183.369,93.758 z M 172.888,86.896 L 177.242,86.896 C 178.482,86.896 179.393,87.148 179.972,87.65 C 180.549,88.152 180.866,88.697 180.915,89.296 L 180.915,89.465 C 180.915,90.045 180.686,90.574 180.234,91.057 C 179.781,91.536 179.161,91.778 178.372,91.778 L 178.222,91.778 C 178.188,91.778 178.159,91.774 178.135,91.766 C 178.109,91.757 178.079,91.754 178.045,91.754 L 172.888,91.754 L 172.888,86.896 L 172.888,86.896 z M 181.897,96.313 C 181.879,96.864 181.653,97.379 181.217,97.862 C 180.779,98.342 180.117,98.645 179.229,98.774 L 172.887,98.774 L 172.887,93.747 L 179.028,93.747 C 179.968,93.874 180.675,94.181 181.154,94.669 C 181.633,95.157 181.881,95.677 181.897,96.23 L 181.897,96.313 L 181.897,96.313 z M 211.763,87.438 C 210.305,86.229 208.709,85.491 206.981,85.221 C 206.679,85.163 206.377,85.123 206.076,85.104 C 205.773,85.083 205.472,85.073 205.17,85.073 C 202.703,85.073 200.73,85.686 199.244,86.908 C 197.759,88.131 196.822,89.471 196.437,90.929 C 196.371,91.183 196.319,91.433 196.287,91.681 C 196.253,91.929 196.235,92.172 196.235,92.412 C 196.235,94.999 196.932,97.119 198.325,98.774 C 199.718,100.43 201.798,101.253 204.566,101.253 C 207.736,101.253 210.117,100.438 211.701,98.805 C 213.287,97.17 214.08,95.266 214.08,93.088 C 213.995,90.53 213.223,88.647 211.763,87.438 z M 209.7,97.681 C 208.39,98.876 206.905,99.474 205.244,99.474 C 205.127,99.474 205.015,99.47 204.904,99.463 C 204.794,99.457 204.68,99.444 204.564,99.431 C 202.987,99.32 201.789,98.898 200.963,98.169 C 200.142,97.44 199.555,96.651 199.202,95.804 C 199.016,95.38 198.883,94.962 198.799,94.554 C 198.715,94.142 198.656,93.769 198.623,93.429 C 198.623,91.421 199.168,89.908 200.26,88.89 C 201.351,87.871 202.551,87.25 203.859,87.025 C 204.078,86.982 204.297,86.949 204.514,86.929 C 204.731,86.908 204.951,86.896 205.167,86.896 C 207.046,86.896 208.548,87.433 209.672,88.506 C 210.795,89.582 211.409,90.825 211.51,92.239 C 211.612,94.674 211.008,96.487 209.7,97.681 z M 239.951,99.019 C 239.876,98.488 239.846,97.919 239.861,97.312 L 239.861,96.484 C 239.843,95.835 239.708,95.203 239.445,94.587 C 239.186,93.975 238.594,93.475 237.673,93.092 C 238.361,92.813 238.881,92.483 239.235,92.108 C 239.588,91.733 239.839,91.348 239.989,90.952 C 240.091,90.655 240.156,90.362 240.19,90.071 C 240.224,89.784 240.242,89.509 240.242,89.256 C 240.055,87.998 239.513,87.015 238.604,86.308 C 237.7,85.601 236.6,85.249 235.307,85.249 L 225.971,85.249 L 225.971,100.77 L 228.362,100.77 L 228.362,94.089 L 234.504,94.089 C 235.931,94.259 236.77,94.705 237.021,95.425 C 237.272,96.149 237.416,96.959 237.45,97.863 L 237.45,98.095 C 237.45,98.236 237.454,98.386 237.463,98.54 C 237.471,98.696 237.484,98.845 237.5,98.987 C 237.518,99.298 237.554,99.602 237.612,99.897 C 237.673,100.194 237.758,100.485 237.878,100.766 L 240.851,100.766 L 240.851,100.256 C 240.325,99.962 240.026,99.549 239.951,99.019 z M 236.957,91.458 C 236.43,91.995 235.777,92.265 235.007,92.265 L 234.857,92.265 C 234.806,92.265 234.754,92.258 234.707,92.244 L 228.364,92.244 L 228.364,87.068 L 234.102,87.068 C 235.412,87.138 236.346,87.427 236.91,87.927 C 237.473,88.429 237.76,88.97 237.778,89.55 L 237.778,89.677 C 237.757,90.325 237.484,90.919 236.957,91.458 z M 259.238,85.244 L 252.695,100.766 L 255.464,100.766 L 257.251,96.248 L 264.172,96.248 L 266.159,100.766 L 268.93,100.766 L 262.209,85.244 L 259.238,85.244 z M 257.828,94.427 L 260.822,87.916 L 263.389,94.427 L 257.828,94.427 z M 277.628,86.896 L 283.77,86.896 L 283.77,100.767 L 286.335,100.767 L 286.335,86.896 L 292.1,86.896 L 292.1,85.246 L 277.628,85.246 L 277.628,86.896 z M 318.088,87.438 C 316.628,86.229 315.031,85.491 313.307,85.221 C 313.004,85.163 312.702,85.123 312.401,85.104 C 312.098,85.083 311.797,85.073 311.495,85.073 C 309.03,85.073 307.054,85.686 305.567,86.908 C 304.083,88.131 303.147,89.471 302.762,90.929 C 302.694,91.183 302.645,91.433 302.61,91.681 C 302.577,91.929 302.56,92.172 302.56,92.412 C 302.56,94.999 303.256,97.119 304.649,98.774 C 306.042,100.43 308.123,101.253 310.891,101.253 C 314.061,101.253 316.44,100.438 318.026,98.805 C 319.611,97.17 320.403,95.266 320.403,93.088 C 320.319,90.53 319.547,88.647 318.088,87.438 z M 316.023,97.681 C 314.716,98.876 313.23,99.474 311.57,99.474 C 311.452,99.474 311.34,99.47 311.23,99.463 C 311.121,99.457 311.007,99.444 310.89,99.431 C 309.312,99.32 308.114,98.898 307.288,98.169 C 306.468,97.44 305.88,96.651 305.526,95.804 C 305.341,95.38 305.209,94.962 305.126,94.554 C 305.041,94.142 304.981,93.769 304.946,93.429 C 304.946,91.421 305.493,89.908 306.587,88.89 C 307.677,87.871 308.877,87.25 310.186,87.025 C 310.404,86.982 310.621,86.949 310.839,86.929 C 311.058,86.908 311.277,86.896 311.491,86.896 C 313.37,86.896 314.875,87.433 315.998,88.506 C 317.121,89.582 317.732,90.825 317.835,92.239 C 317.937,94.674 317.331,96.487 316.023,97.681 z M 346.24,99.019 C 346.163,98.488 346.136,97.919 346.151,97.312 L 346.151,96.484 C 346.133,95.835 345.996,95.203 345.735,94.587 C 345.475,93.975 344.885,93.475 343.964,93.092 C 344.652,92.813 345.173,92.483 345.525,92.108 C 345.879,91.733 346.129,91.348 346.281,90.952 C 346.383,90.655 346.447,90.362 346.482,90.071 C 346.514,89.784 346.531,89.509 346.531,89.256 C 346.346,87.998 345.802,87.015 344.896,86.308 C 343.99,85.601 342.89,85.249 341.599,85.249 L 332.262,85.249 L 332.262,100.77 L 334.652,100.77 L 334.652,94.089 L 340.795,94.089 C 342.222,94.259 343.061,94.705 343.313,95.425 C 343.565,96.149 343.709,96.959 343.741,97.863 L 343.741,98.095 C 343.741,98.236 343.745,98.386 343.757,98.54 C 343.765,98.696 343.777,98.845 343.792,98.987 C 343.81,99.298 343.849,99.602 343.905,99.897 C 343.966,100.194 344.051,100.485 344.17,100.766 L 347.14,100.766 L 347.14,100.256 C 346.613,99.962 346.316,99.549 346.24,99.019 z M 343.244,91.458 C 342.719,91.995 342.065,92.265 341.296,92.265 L 341.146,92.265 C 341.095,92.265 341.045,92.258 340.994,92.244 L 334.652,92.244 L 334.652,87.068 L 340.391,87.068 C 341.7,87.138 342.634,87.427 343.195,87.927 C 343.759,88.429 344.049,88.97 344.065,89.55 L 344.065,89.677 C 344.047,90.325 343.775,90.919 343.244,91.458 z M 358.619,100.767 L 361.013,100.767 L 361.013,85.244 L 358.619,85.244 L 358.619,100.767 z M 376.097,93.747 L 386.012,93.747 L 386.012,91.924 L 376.097,91.924 L 376.097,86.898 L 386.39,86.898 L 386.39,85.247 L 373.703,85.247 L 373.703,100.768 L 386.79,100.768 L 386.79,98.924 L 376.097,98.924 L 376.097,93.747 z M 408.957,93.249 C 407.792,92.705 406.527,92.298 405.17,92.028 C 404.951,91.987 404.732,91.944 404.517,91.901 C 404.298,91.858 404.089,91.815 403.887,91.774 C 402.729,91.563 401.71,91.305 400.827,91.002 C 399.948,90.698 399.438,90.172 399.306,89.421 C 399.355,88.502 399.805,87.828 400.65,87.398 C 401.5,86.966 402.434,86.752 403.46,86.752 L 403.61,86.752 C 404.666,86.78 405.634,87.026 406.515,87.494 C 407.397,87.96 407.836,88.632 407.836,89.509 L 407.836,89.739 L 410.2,89.739 C 410.303,88.242 409.725,87.092 408.475,86.282 C 407.225,85.477 405.559,85.076 403.48,85.076 C 401.399,85.076 399.814,85.472 398.722,86.264 C 397.633,87.055 397.034,87.994 396.938,89.083 C 396.786,90.793 397.317,91.937 398.536,92.52 C 399.754,93.1 401.106,93.524 402.599,93.791 C 402.732,93.818 402.868,93.846 403.001,93.863 C 403.135,93.884 403.276,93.911 403.429,93.937 C 404.689,94.15 405.808,94.429 406.789,94.775 C 407.768,95.123 408.262,95.791 408.262,96.779 L 408.262,96.939 C 408.262,96.988 408.253,97.042 408.237,97.097 C 408.102,97.874 407.588,98.472 406.689,98.89 C 405.793,99.306 404.806,99.515 403.732,99.515 L 403.531,99.515 C 402.324,99.472 401.22,99.152 400.222,98.549 C 399.223,97.949 398.722,97.019 398.722,95.761 L 396.33,95.761 C 396.281,97.656 397.022,99.052 398.559,99.949 C 400.094,100.845 401.785,101.296 403.631,101.296 L 403.704,101.296 C 405.584,101.269 407.296,100.817 408.84,99.941 C 410.384,99.065 411.105,97.786 411.004,96.103 C 410.806,94.745 410.123,93.794 408.957,93.249 z"
               style="fill:#000000" />
          </g>
        </g>
      </g>
    </g>
    <g
       id="g3016"
       style="fill:#000000">
      <path
         id="rect2418"
         d="m 75.781811,348.94722 0,38.76161 -2.69178,0 0,4.74265 68.986439,0 0,-4.74265 -2.66614,0 0,-38.71033 -3.94795,0 0,38.71033 -15.99685,0 0,-38.65906 -3.94794,0 0,38.65906 -35.813469,0 0,-38.76161 -3.92231,0 z m 24.251639,49.32363 0,15.89431 -7.306259,-0.0256 13.997259,14.8176 13.76652,-14.74069 -7.30625,-0.0256 0,-15.91995 -13.15127,0 z m -9.972399,26.81524 0,30.96826 3.23014,0 0,-30.96826 -3.23014,0 z m 30.250469,0.0769 0,30.9939 3.2045,0 0,-30.9939 -3.2045,0 z m -14.48433,9.89549 0,18.12463 3.2045,0 0,-18.12463 -3.2045,0 z m -15.458509,23.91837 c -2.58236,-1e-5 -4.66575,2.05774 -4.66575,4.64011 l 0,11.86946 9.89549,0 0,-1.97397 c 1e-5,-2.42098 1.82246,-4.40225 4.17867,-4.64012 0.15708,-0.0159 0.325689,0 0.487079,0 l 1.97398,0 0,-9.89548 -11.869469,0 z m 23.585119,0 0,9.89548 1.94833,0 c 2.58238,0 4.66575,2.05774 4.66575,4.64012 l 0,1.97397 9.89549,0 0,-11.86946 c 1e-5,-2.58239 -2.08337,-4.64011 -4.66575,-4.64011 l -11.84382,0 z m -8.92132,4.07612 0,5.81936 6.10136,0 0,-5.81936 -6.10136,0 z m -2.12779,8.45987 c -2.58238,0 -4.665759,2.08338 -4.665759,4.66575 l 0,4.38375 3.460859,0 c 0.3609,-2.94682 2.66537,-5.28967 5.61429,-5.63991 l 0,-3.40959 -4.40939,0 z m 5.94755,0 0,3.40959 c 2.95185,0.35024 5.30156,2.6931 5.66555,5.63991 l 3.40958,0 0,-4.38375 c 1e-5,-2.58238 -2.08338,-4.66575 -4.66574,-4.66575 l -4.40939,0 z m 11.71564,6.7679 0,6.10136 5.4861,0 0,-6.10136 -5.4861,0 z m -31.660449,0.0256 0,6.10136 6.69099,0 0,-6.10136 -6.69099,0 z m 9.3315,3.81976 0,4.40939 c 1e-5,2.58237 2.083369,4.64011 4.665759,4.64011 l 4.40939,0 0,-3.40959 c -2.95749,-0.34832 -5.26387,-2.68402 -5.61429,-5.63991 l -3.460859,0 z m 16.278859,0 c -0.35343,2.95589 -2.70511,5.2916 -5.66555,5.63991 l 0,3.40959 4.40939,0 c 2.58238,0 4.66574,-2.05775 4.66574,-4.64011 l 0,-4.40939 -3.40958,0 z m -28.814859,5.07592 0,11.84382 c 0,2.58237 2.08338,4.66574 4.66575,4.66575 l 11.843839,0 0,-9.89549 -1.94835,0 c -2.582369,0 -4.665749,-2.05773 -4.665749,-4.64011 l 0,-1.97397 -9.89549,0 z m 34.864949,0 0,1.97397 c 0,2.58236 -2.08338,4.64011 -4.66575,4.64011 l -1.94833,0 0,9.89549 11.84382,0 c 2.58238,-10e-6 4.66575,-2.08336 4.66575,-4.66575 l 0,-11.84382 -9.89549,0 z m -15.5354,6.61408 0,6.30646 6.10136,0 0,-6.30646 -6.10136,0 z"
         style="fill:#000000;fill-opacity:1;stroke:none" />
      <path
         id="rect2764"
         d="m 18.177761,334.46289 0,181.47712 181.477119,0 0,-181.47712 -181.477119,0 z m 4.97338,4.97339 171.555999,0 0,171.53035 -171.555999,0 0,-171.53035 z"
         style="fill:#000000;fill-opacity:1;stroke:none" />
    </g>
    <g
       id="g3012"
       style="fill:#000000">
      <path
         id="path2512"
         d="m 315.55515,346.97325 c -1.6453,0.13847 -3.13947,1.16533 -3.84539,2.79433 l -4.71702,10.89529 9.07513,3.9223 0.76908,-1.82015 c 0.96264,-2.22137 3.43468,-3.30786 5.69119,-2.58924 0.15044,0.0479 0.28772,0.14092 0.43581,0.20509 l 1.82016,0.76908 3.9223,-9.07514 -10.86965,-4.71702 c -0.74045,-0.32087 -1.53374,-0.44747 -2.28161,-0.38454 z m 23.91837,9.76731 -3.94794,9.07514 1.79452,0.76908 c 2.36947,1.0268 3.46222,3.75754 2.43542,6.127 l -0.79472,1.79452 9.10078,3.94794 4.71702,-10.89529 c 1.02681,-2.36947 -0.066,-5.1002 -2.43542,-6.127 l -10.86966,-4.69139 z m -9.81858,0.17945 -2.30724,5.35792 5.58865,2.40979 2.33287,-5.33229 -5.61428,-2.43542 z m -7.1268,6.53718 c -1.81837,-0.0175 -3.53675,1.04287 -4.30684,2.81996 l -1.74325,4.02485 3.15322,1.3587 c 1.50286,-2.56035 4.56376,-3.77369 7.4088,-2.9225 l 1.35871,-3.15322 -4.05049,-1.74325 c -0.59236,-0.2567 -1.21403,-0.37872 -1.82015,-0.38454 z m -13.71525,1.05107 -2.43542,5.61428 6.127,2.64051 2.43542,-5.58864 -6.127,-2.66615 z m 20.99587,1.69198 -1.35871,3.12759 c 2.56923,1.49507 3.78587,4.58585 2.94814,7.43443 l 3.12759,1.35871 1.74325,-4.02485 c 1.02681,-2.36946 -0.0403,-5.1002 -2.40979,-6.127 l -4.05048,-1.76888 z m -27.48177,5.2041 -4.71702,10.86966 c -1.0268,2.36945 0.066,5.10019 2.43541,6.127 l 10.86966,4.71702 3.92231,-9.07514 -1.79452,-0.79471 c -2.36945,-1.02681 -3.46222,-3.7319 -2.43542,-6.10137 l 0.79471,-1.82015 -9.07513,-3.92231 z m 13.51016,0.33327 -1.74325,4.02485 c -1.02679,2.36946 0.066,5.1002 2.43542,6.127 l 4.05049,1.74325 1.3587,-3.12759 c -2.57515,-1.49556 -3.7763,-4.55729 -2.9225,-7.4088 l -3.17886,-1.35871 z m 41.27393,3.53777 -8.48551,4.76829 5.89627,6.20391 -7.04989,6.63972 3.23013,9.51095 -9.53658,-0.20509 -5.38356,6.63972 -8.51114,-7.66516 -6.30645,3.40958 -0.82036,-6.2039 -9.12641,1.84579 7.0499,0.6409 1.23053,7.02426 7.35752,-3.10196 9.53659,9.43404 6.20391,-8.6906 13.99724,0.41018 -5.07592,-11.92073 7.46007,-7.66516 -4.97338,-5.99882 3.30704,-5.07592 z m -19.25262,1.79452 -2.43542,5.61428 5.05029,2.17905 2.40978,-5.61428 -5.02465,-2.17905 z m -7.07553,1.12798 c -1.49961,2.57165 -4.57958,3.78004 -7.43444,2.9225 l -1.35871,3.12759 4.05049,1.76888 c 2.36945,1.02681 5.1002,-0.0403 6.127,-2.40978 l 1.74325,-4.05048 -3.12759,-1.35871 z m -13.35635,6.94735 -2.51233,5.79373 5.61428,2.43542 2.48669,-5.79373 -5.58864,-2.43542 z m 16.89411,0.12818 -0.79471,1.79452 c -1.0268,2.36944 -3.75755,3.43658 -6.127,2.40978 l -1.79452,-0.76908 -3.92231,9.07514 10.86966,4.71702 c 2.36947,1.02679 5.10019,-0.0659 6.127,-2.43542 l 4.71702,-10.86966 -9.07514,-3.9223 z m -24.91817,19.61153 c -1.35179,0.05 -2.7919,0.49606 -4.38376,1.66633 l -17.50937,14.8176 0.0769,0.0769 c -0.95366,0.97985 -1.53815,2.31985 -1.53816,3.79412 0,3.0019 2.43292,5.43484 5.43483,5.43483 1.39756,0 2.67669,-0.51699 3.64031,-1.38434 l 0.0513,0.0513 15.12523,-12.94617 7.35752,6.94735 -13.58707,18.63736 -5.28101,10.86966 -9.71604,17.0992 -20.63696,16.76593 0.10254,0.12818 c -0.6112,0.87939 -0.97416,1.95063 -0.97416,3.10195 0,3.0019 2.43292,5.43482 5.43482,5.43483 0.80051,0 1.57138,-0.17606 2.25597,-0.48708 l 0.0256,0.0256 0.15381,-0.12818 21.07278,-17.07356 12.12582,-20.20116 3.8454,0.10255 14.79196,12.33091 c -0.43529,8.36988 -0.39399,16.81598 -1.25617,25.12326 0,3.00189 2.43293,5.43483 5.43483,5.43483 2.39141,0 4.39941,-1.54508 5.1272,-3.69159 l 1.38434,-31.32717 -15.5354,-13.56143 12.94617,-15.43286 17.43246,14.63815 c 0.95777,1.55335 2.65688,2.58922 4.61448,2.58923 3.0019,0 5.43485,-2.43292 5.43483,-5.43483 0,-2.15552 -1.25657,-3.99114 -3.07632,-4.87083 l -45.45259,-37.37727 c -1.59117,-0.62103 -3.18409,-1.21787 -4.92211,-1.15361 z m 50.55415,3.87103 -14.63814,0.0769 -7.10117,9.84421 c 2.274,1.68713 5.07967,2.69178 8.12661,2.69178 7.18724,0 13.06588,-5.56518 13.6127,-12.6129 z"
         style="fill:#000000;fill-opacity:1;stroke:none" />
      <path
         id="path2626"
         d="m 227.82088,334.62675 0,181.47711 181.47712,0 0,-181.47711 -181.47712,0 z m 4.97338,4.97338 171.55599,0 0,171.53035 -171.55599,0 0,-171.53035 z"
         style="fill:#000000;fill-opacity:1;stroke:none;display:inline" />
    </g>
    <g
       id="g3000"
       style="fill:#000000">
      <path
         id="path2621"
         d="m 562.83984,355.17677 -17.2018,17.20174 13.664,-4.97338 0,11.79255 8.101,3.53777 -3.5378,10.9722 10.357,14.71505 -11.1773,4.76829 -1.8715,12.84363 -5.7937,-1.05108 -3.1019,6.84481 3.7172,-3.53776 8.2804,4.97338 3.5378,-16.97102 16.5608,-6.63972 -15.5354,-15.74049 10.3569,-16.79157 -14.9201,-1.23053 -1.4356,-20.71387 z m -17.0992,26.5076 c -9.4345,0 -17.0992,7.66468 -17.0992,17.0992 0,9.43453 7.6647,17.09921 17.0992,17.0992 9.4345,0 17.0992,-7.66468 17.0992,-17.0992 0,-9.43452 -7.6647,-17.0992 -17.0992,-17.0992 z m -73.75473,0.20509 0,3.74285 57.39893,0 0,-3.74285 -57.39893,0 z m 73.75473,3.33268 c 7.4904,-1e-5 13.5614,6.07099 13.5614,13.56143 0,7.49044 -6.071,13.56144 -13.5614,13.56144 -7.4905,-10e-6 -13.5615,-6.071 -13.5615,-13.56144 0,-7.49044 6.071,-13.56143 13.5615,-13.56143 z m 0.026,7.02426 c -3.6022,0 -6.5628,2.96054 -6.5628,6.56281 0,3.60227 2.9349,6.51154 6.5372,6.51154 3.6022,0 6.5115,-2.90927 6.5115,-6.51154 0,-3.60226 -2.8836,-6.56281 -6.4859,-6.56281 z m 0,1.17925 c 2.9733,0 5.3579,2.41025 5.3579,5.38356 10e-5,2.97331 -2.4102,5.38355 -5.3835,5.38355 -2.9733,10e-6 -5.3836,-2.41025 -5.3836,-5.38355 0,-2.97331 2.4359,-5.38356 5.4092,-5.38356 z m 39.5563,1.10235 c -2.9635,0 -5.7216,0.93116 -7.9984,2.48669 l 13.6896,13.68961 -16.3557,7.38317 c 2.6014,2.95989 6.4172,4.81956 10.6645,4.81956 7.8335,0 14.1768,-6.34318 14.1767,-14.1767 0,-7.83351 -6.3432,-14.20233 -14.1767,-14.20233 z m -134.56322,2.89686 0,3.74286 70.65272,0 0,-3.74286 -70.65272,0 z m 42.78645,15.12523 0,3.74286 33.96767,0 0,-3.74286 -33.96767,0 z m 60.37277,8.30606 -18.2272,0.82035 -10.357,9.3315 -18.0221,28.58412 -0.205,32.53206 c 0.2565,8.05005 9.7028,8.72702 9.7416,0 l -0.2051,-28.40467 11.3824,-12.63854 17.6119,-12.84362 1.6664,-11.17729 6.6141,-6.20391 z m 18.663,2.48669 -1.2562,9.92113 20.3037,18.25282 c 5.1246,4.27275 9.8174,-0.76182 5.1785,-5.81937 l -24.226,-22.35458 z m -77.2925,4.74266 c -3.77435,0.28869 -6.30496,2.12848 -7.87027,5.17847 l -13.66398,18.4579 c -3.49015,5.88016 2.60915,10.19685 6.84481,5.17847 l 13.04871,-18.45791 20.50883,-0.20508 5.7937,-10.15185 -24.6618,0 z"
         style="fill:#000000;fill-opacity:1;stroke:none" />
      <path
         id="path2628"
         d="m 436.19014,334.62675 0,181.47711 181.4771,0 0,-181.47711 -181.4771,0 z m 4.97338,4.97338 171.55602,0 0,171.53035 -171.55602,0 0,-171.53035 z"
         style="fill:#000000;fill-opacity:1;stroke:none;display:inline" />
    </g>
    <g
       id="g2996"
       style="fill:#000000">
      <path
         id="path2798"
         d="m 733.88314,352.69008 0,33.96767 3.5377,0 0,-33.96767 -3.5377,0 z m -11.5362,13.71525 0,26.5076 3.5377,0 0,-26.5076 -3.5377,0 z m 23.1236,0 0,26.5076 3.4865,0 0,-26.5076 -3.4865,0 z m -9.7929,26.76396 c -8.6916,1e-5 -15.7405,7.0746 -15.7405,15.76613 0,8.69153 7.049,15.7405 15.7405,15.74049 8.6915,1e-5 15.7661,-7.04897 15.7661,-15.74049 0,-8.69153 -7.0746,-15.76613 -15.7661,-15.76613 z m 0,3.28141 c 6.9005,-10e-6 12.5103,5.58417 12.5103,12.48472 0,6.90055 -5.6098,12.48472 -12.5103,12.48472 -6.9006,0 -12.4848,-5.58417 -12.4848,-12.48472 0,-6.90055 5.5842,-12.48472 12.4848,-12.48472 z m 0,6.46026 c -3.3186,1e-5 -6.0245,2.73151 -6.0245,6.0501 0,3.31858 2.7059,5.99882 6.0245,5.99882 3.3185,0 5.9988,-2.68024 5.9988,-5.99882 0,-3.31858 -2.6546,-6.0501 -5.9732,-6.0501 l -0.026,0 z m 0,1.07672 0.026,0 c 2.7273,0.0139 4.9477,2.24276 4.9477,4.97338 10e-5,2.73916 -2.2342,4.94774 -4.9733,4.94774 -2.7392,0 -4.9478,-2.20859 -4.9478,-4.94774 0,-2.73062 2.2203,-4.95951 4.9478,-4.97338 z m -5.3836,25.35398 0,12.99744 -5.9475,-0.0256 11.4336,12.10018 11.2286,-12.04891 -5.9476,-0.0256 0,-12.99744 -10.7671,0 z m 23.8671,27.50741 -4.2556,14.20233 -3.3839,0 0.1025,10.3313 c -1.9291,-0.24997 -3.9621,-0.43861 -6.127,-0.56399 l 0,-4.71702 -3.0763,0 0,-10.9722 -2.9481,0 0,10.9722 -3.0763,0 0,4.74266 c -2.1956,0.10738 -4.4154,0.27126 -6.6654,0.51272 l 0.1025,-10.22876 -3.3839,0 -4.2556,-14.20233 -2.0509,0 4.1018,14.20233 -25.3283,0 13.1512,14.74069 c -3.3867,1.50871 -6.7936,3.46229 -10.2287,6.05009 l 78.241,-0.12818 c -3.282,-1.94155 -6.8002,-3.98046 -10.9979,-5.76809 l 13.3564,-14.97142 -25.3284,0 4.1018,-14.20233 -2.0509,0 z m 0.4358,16.40703 18.5861,0 -11.4336,11.84382 c -2.2127,-0.83865 -4.61,-1.63253 -7.255,-2.2816 l 0.1025,-9.56222 z m -56.4248,0.0769 18.5861,0 0.1026,9.28022 c -2.4834,0.5634 -4.9857,1.32707 -7.5114,2.30724 L 698.17214,473.333 z m 32.609,10.99783 9.8186,0 0,5.99882 -9.8186,0 0,-5.99882 z"
         style="fill:#000000;fill-opacity:1;stroke:none;display:inline" />
      <path
         id="path2630"
         d="m 646.20014,334.62675 0,181.47711 181.4771,0 0,-181.47711 -181.4771,0 z m 4.9733,4.97338 171.556,0 0,171.53035 -171.556,0 0,-171.53035 z"
         style="fill:#000000;fill-opacity:1;stroke:none;display:inline" />
    </g>
    <g
       id="g2984"
       style="fill:#000000">
      <path
         id="path2424"
         d="m 1016.1096,344.61474 c -4.6684,2.51953 -10.3855,2.29146 -9.5366,11.12602 0.5968,3.13679 1.9291,6.80482 -6.2808,6.46027 -13.08956,-0.53834 -8.83256,6.2604 -9.38276,9.81858 l 4.2556,-0.15382 c -0.5263,-3.05281 0.2205,-6.23744 6.71656,-6.46027 4.6842,-0.0434 9.7852,0.42011 8.7931,-6.43463 -0.6349,-4.96446 1.3868,-8.1706 8.0754,-10.25439 l -2.6405,-4.10176 z m -141.86946,9.17768 -2.615,4.10176 c 6.6888,2.08379 8.6847,5.28993 8.0498,10.25439 -0.992,6.85474 4.109,6.4169 8.7931,6.46027 6.4961,0.22283 7.2686,3.38183 6.7422,6.43463 l 4.23,0.15382 c -0.5502,-3.55818 3.7325,-10.35692 -9.3572,-9.81858 -8.2098,0.34455 -6.9032,-3.32348 -6.3063,-6.46027 0.8489,-8.83456 -4.8682,-8.60649 -9.5366,-11.12602 z m 92.0588,14.15107 c -3.081,-0.0783 -6.5749,2.64735 -4.8709,7.1268 l 10.562,18.02209 -5.9988,6.409 c 1.9754,2.20981 2.8066,4.4299 7.8702,6.63972 l 7.2551,-8.71624 c 2.5907,-3.36914 0.4282,-6.04571 -0.6153,-8.89568 l -10.7927,-18.63736 c -0.7105,-1.27962 -2.0092,-1.91276 -3.4096,-1.94833 z m -47.7086,0.25636 c -2.0739,0.0944 -4.0977,1.10549 -4.5888,2.9225 l -2.4868,22.99547 c 0.083,2.83131 -0.8705,5.65419 1.2306,8.48551 l 3.1019,4.35812 c 4.0787,0.0777 7.5235,-1.12515 9.9468,-4.35812 l -4.5632,-5.79373 2.2816,-24.226 c 0.4622,-3.10376 -2.2557,-4.50516 -4.9221,-4.38375 z m 27.7382,10.79274 c -6.9543,0 -12.6129,5.63304 -12.6129,12.58727 0,6.95423 5.6586,12.6129 12.6129,12.6129 6.9542,0 12.5872,-5.65867 12.5872,-12.6129 0,-6.95423 -5.633,-12.58727 -12.5872,-12.58727 z m -50.5799,25.48217 c -6.4132,4.98829 -10.4657,12.19217 -26.3025,8.28042 l -0.2051,5.17847 c 13.1629,4.51457 21.2109,0.85714 26.0975,-7.87025 5.872,12.56524 24.6923,14.91573 35.0187,0.6409 11.9351,12.77681 23.3425,13.39122 34.1727,0.20509 9.6708,10.32065 20.1119,14.20996 32.5321,1.43562 6.35056,5.35882 13.17046,13.92253 29.84036,2.48669 l 0.205,-5.38356 c -14.1528,9.70865 -21.7463,2.70551 -30.04536,-2.48669 -10.6232,11.23451 -21.5616,10.03516 -32.7372,-0.82035 -13.971,13.84507 -24.1541,8.30889 -33.7625,-0.20509 -11.3576,10.49063 -22.9051,12.83959 -34.8137,-1.46125 z m 34.4035,10.35694 -4.3581,5.17846 c 6.4551,8.15005 11.5592,15.85658 11.6131,30.66064 l 0.4102,25.07199 -27.3536,9.33149 c -6.122,2.38552 -3.2768,14.11181 2.8968,12.43346 l 31.7118,-10.15185 c 2.5651,-1.30668 5.7214,-1.26217 6.2039,-7.25499 l 1.051,-21.35477 c 1.8379,-2.65077 5.0567,-3.88791 9.1008,-4.33248 l 12.2283,7.46007 -5.3834,27.96886 c -1.5072,9.00268 11.2659,10.18208 12.8436,3.30704 l 6.4089,-28.58412 c 1.5982,-4.74156 0.2779,-8.17209 -3.1019,-11.6131 -7.2928,-5.94281 -23.8177,-13.07561 -20.5088,-37.27472 -13.1393,13.53237 -23.9241,9.82726 -33.7626,-0.84598 z m -28.8918,50.0158 c -1.8406,0.14297 -3.2517,1.71805 -3.6402,5.92191 -0.858,4.51076 -0.7928,9.86718 -9.1008,7.46007 -5.0147,-2.19517 -8.1618,1.0732 -10.9978,5.99882 l 3.3326,2.48669 c 1.5064,-4.35117 4.0163,-6.45834 8.2805,-4.74266 8.0188,2.30256 9.3059,-0.0792 11.3823,-8.30606 0.5899,-3.39062 1.1541,-7.52845 6.2808,-2.48669 l 2.4355,-2.2816 c -2.5187,-2.0537 -5.6062,-4.23432 -7.9729,-4.05048 z m 104.00526,2.51232 c -2.3058,0.0685 -5.1839,2.13652 -7.56256,4.07612 l 2.46106,2.2816 c 5.1266,-5.04176 5.6652,-0.90393 6.2551,2.4867 2.0764,8.22683 3.3636,10.58298 11.3824,8.28042 4.264,-1.71569 6.7996,0.41712 8.3061,4.76829 l 3.307,-2.48669 c -2.8361,-4.92562 -5.9576,-8.19399 -10.9722,-5.99882 -8.308,2.40711 -8.2684,-2.94931 -9.1264,-7.46007 -0.4164,-4.50413 -2.016,-6.00802 -4.0505,-5.94755 z"
         style="fill:#000000;fill-opacity:1;stroke:none" />
      <path
         id="path2632"
         d="m 852.92864,334.62675 0,181.47711 181.47716,0 0,-181.47711 -181.47716,0 z m 4.9734,4.97338 171.55596,0 0,171.53035 -171.55596,0 0,-171.53035 z"
         style="fill:#000000;fill-opacity:1;stroke:none;display:inline" />
    </g>
    <g
       id="g3020"
       style="fill:#000000">
      <path
         id="rect2656"
         d="m 167.58427,545.11375 c -8.40978,0 -15.2534,18.03674 -15.25341,40.27413 0,22.23738 6.84364,40.29979 15.25341,40.29976 8.40977,0 15.22776,-18.06238 15.22777,-40.29976 0,-22.23738 -6.81799,-40.27413 -15.22777,-40.27413 z m 0.12818,3.25577 c 6.70958,0 12.15145,16.48395 12.15145,36.81327 1e-5,20.32933 -5.44186,36.83891 -12.15145,36.83891 -6.7096,10e-6 -12.15146,-16.50958 -12.15146,-36.83891 1e-5,-20.32932 5.44187,-36.81327 12.15146,-36.81327 z m -80.163719,48.58019 c -1.40016,0.0798 -3.00935,0.76866 -3.99922,2.15342 l -16.04812,18.45791 -0.10255,7.56261 -9.12641,9.20332 c -2.35196,2.48881 1.46678,6.73322 4.05049,4.25557 l 10.45948,-10.66457 0.20509,-6.43463 10.35693,8.92132 -5.69118,7.97279 c -1.17179,2.22491 -0.96973,4.2242 0.51272,5.69119 l 12.53599,12.22836 c 3.57573,2.97032 6.90465,-1.18744 3.92231,-4.05048 l -11.8951,-11.27983 8.79314,-12.536 7.46007,7.66516 c 2.263929,2.69785 5.223129,1.52786 6.203919,-0.20509 l 7.15244,-13.35634 c 2.77209,-3.96839 -1.7815,-7.12511 -4.76829,-3.23014 l -6.10138,10.45948 -19.688429,-19.45771 6.43463,-7.04989 8.89569,6.53717 c 3.259289,2.26615 5.781579,-2.29018 3.640309,-4.15303 l -11.100379,-8.17787 c -0.50329,-0.37332 -1.26207,-0.5606 -2.10215,-0.51272 z m -22.02131,0.41017 c -4.17407,0 -7.56263,3.38855 -7.56262,7.56262 0,4.17406 3.38855,7.56262 7.56262,7.56261 4.17406,0 7.56262,-3.38856 7.56261,-7.56261 0,-4.17407 -3.38855,-7.56262 -7.56261,-7.56262 z m 57.655329,27.86631 0,2.71742 c 9.01675,1.30073 15.38159,10.92964 15.38159,17.97082 0,0.84906 -0.0549,1.67227 -0.17945,2.48669 l 3.40958,0 c 0.10281,-0.81564 0.15382,-1.64324 0.15382,-2.48669 0,-8.92699 -7.99598,-19.69351 -18.76554,-20.68824 z m -7.02426,8.3317 0,3.58904 c 6.23342,2.32616 10.69021,8.31477 10.69021,15.35595 0,0.84906 -0.0549,1.67227 -0.17946,2.48669 l 3.40959,0 c 0.10281,-0.81564 0.15381,-1.64324 0.15381,-2.48669 0,-8.92698 -5.94143,-16.48536 -14.07415,-18.94499 z m -54.271379,15.91994 0,15.89431 -7.30626,-0.0256 13.99725,14.8176 13.76652,-14.74069 -7.30625,-0.0256 0,-15.91995 -13.15126,0 z m 67.884089,12.536 0,41.29956 5.28101,0 0,-36.01855 43.65808,0 0,-5.28101 -48.93909,0 z m -62.679989,19.04753 c -22.23738,3e-5 -40.29978,6.84364 -40.29976,15.25341 0,8.4098 18.06238,15.22776 40.29976,15.22777 22.23738,3e-5 40.274139,-6.81799 40.274139,-15.22777 0,-8.40975 -18.036749,-15.2534 -40.274139,-15.25341 z m 0.20509,3.23013 c 20.32933,4e-5 36.813279,5.44187 36.813279,12.15146 0,6.7096 -16.483949,12.15146 -36.813279,12.15146 -20.32932,3e-5 -36.8389,-5.44187 -36.8389,-12.15146 -2e-5,-6.70957 16.50958,-12.15146 36.8389,-12.15146 z"
         style="fill:#000000;fill-opacity:1;stroke:none" />
      <path
         id="path2640"
         d="m 19.085301,535.83079 0,181.47711 181.477119,0 0,-181.47711 -181.477119,0 z m 4.97338,4.97338 171.555999,0 0,171.53035 -171.555999,0 0,-171.53035 z"
         style="fill:#000000;fill-opacity:1;stroke:none;display:inline" />
    </g>
    <g
       id="g3008"
       style="fill:#000000">
      <path
         id="path2661"
         d="m 381.18327,544.95994 c -4.82886,0 -9.14933,5.95368 -11.94637,15.22777 l 3.15322,-0.10254 c 2.22009,-7.2743 5.39425,-11.86946 8.92133,-11.86946 6.70958,0 12.15145,16.48394 12.15145,36.81327 2e-5,20.32933 -5.44187,36.8389 -12.15145,36.8389 -5.62298,2e-5 -10.35587,-11.6067 -11.74128,-27.32796 l -3.2045,0.0769 c 1.6057,17.71457 7.63089,30.91702 14.8176,30.917 8.40978,0 15.22776,-18.06239 15.22777,-40.29977 10e-6,-22.23737 -6.81799,-40.27412 -15.22777,-40.27412 z m -11.30547,18.43227 -14.8176,13.99724 14.74069,13.76652 0.0256,-7.30625 15.91994,0 0,-13.15126 -15.89431,0 0.0256,-7.30625 z m -110.95253,17.76573 c -4.08359,0 -7.40879,3.29957 -7.4088,7.38316 0,4.0836 3.32521,7.4088 7.4088,7.4088 4.0836,0 7.38317,-3.32521 7.38316,-7.4088 0,-4.08359 -3.29956,-7.38317 -7.38316,-7.38316 z m 55.93771,0.46145 0,4.12739 36.65945,0 0,-4.12739 -36.65945,0 z m 10.6133,6.35772 c -0.83306,-0.0219 -1.88998,0.10396 -3.2045,0.48709 l -18.61172,5.87064 3.51213,3.51213 16.99665,-5.28102 c 4.13167,-1.22619 4.91735,-4.49406 1.30744,-4.58884 z m -31.12208,3.74286 -25.91798,0.12818 c -2.20825,2.38544 -4.05291,5.54063 -7.84461,6.87044 l -3.66595,2.64051 -10.9722,-0.282 c -4.23924,0.1246 -4.03009,5.40381 0.15382,5.56301 l 15.22777,0.15381 8.0497,-5.43482 c 5.17891,1.14575 8.6102,2.64183 30.04537,0.58962 l 6.94735,4.07612 c 1.09356,0.52637 2.26186,0.81543 3.74286,0.17946 l 17.71446,-5.87064 c 4.35969,-1.62759 2.54967,-6.37323 -2.05088,-5.1272 l -17.86828,5.56301 -8.56242,-6.35773 c -1.32084,-1.23289 -2.71959,-2.41746 -4.99901,-2.69177 z m -48.40074,0.7178 c -4.91899,0.19621 -5.08151,5.76867 0,5.56301 l 8.35733,-0.43581 -4.10175,-4.99902 -4.25558,-0.12818 z m 89.57212,3.35832 0,4.12739 29.60956,0 0,-4.12739 -29.60956,0 z m -11.12601,11.17729 0,4.15302 36.65945,0 0,-4.15302 -36.65945,0 z m 18.4579,54.60464 0,41.29956 5.28102,0 0,-36.01855 43.65807,0 0,-5.28101 -48.93909,0 z m -61.88526,19.17571 c -22.23738,10e-6 -40.29978,6.84364 -40.29976,15.25341 0,8.40978 18.06238,15.22776 40.29976,15.22777 22.23738,10e-6 40.27413,-6.81799 40.27413,-15.22777 0,-8.40977 -18.03674,-15.2534 -40.27413,-15.25341 z m 0.20509,3.23013 c 20.32933,2e-5 36.81327,5.44187 36.81327,12.15146 0,6.70959 -16.48394,12.15145 -36.81327,12.15145 -20.32932,2e-5 -36.8389,-5.44186 -36.8389,-12.15145 -2e-5,-6.70959 16.50958,-12.15146 36.8389,-12.15146 z"
         style="fill:#000000;fill-opacity:1;stroke:none;display:inline" />
      <path
         id="path2646"
         d="m 228.72842,535.99464 0,181.47712 181.47711,0 0,-181.47712 -181.47711,0 z m 4.97338,4.97338 171.55599,0 0,171.53036 -171.55599,0 0,-171.53036 z"
         style="fill:#000000;fill-opacity:1;stroke:none;display:inline" />
    </g>
    <g
       id="g3004"
       style="fill:#000000">
      <path
         id="path2968"
         d="m 575.11944,559.7519 c -5.8221,0 -10.562,10.32559 -10.562,23.02111 0,12.69552 4.7399,22.99548 10.562,22.99547 1.2999,0 2.5415,-0.52214 3.6916,-1.46125 -3.0877,-0.87033 -3.475,-6.09595 -3.025,-12.66417 l 5.2553,0 c -0.054,1.31106 -0.095,2.64211 -0.077,3.99921 0.3168,4.67555 1.7595,6.55925 5.5887,3.81976 4.3523,-3.21666 7.4328,-20.29791 6.2808,-26.94341 -0.4056,-2.16737 -3.5437,-5.21296 -6.2808,-1.17926 -2.4404,3.88655 -3.9923,8.34079 -4.8196,13.2538 l -5.1528,0 c 1.8067,-10.80641 4.3569,-13.59091 6.9986,-15.50976 -1.9225,-5.64587 -4.9896,-9.3315 -8.4599,-9.3315 z m -12.0233,10.84402 c -4.7357,2.1497 -5.1815,11.25817 -3.9479,21.09841 1.1433,7.74372 4.556,6.26274 5.8706,7.02426 -3.7701,-8.93597 -1.9328,-23.87442 -1.9227,-28.12267 z m 7.4857,9.66476 c 1.4556,-10e-6 2.6406,2.28615 2.6406,5.07593 -10e-5,2.78977 -1.185,5.05029 -2.6406,5.05029 -1.4555,0 -2.6405,-2.26052 -2.6405,-5.05029 10e-5,-2.78978 1.185,-5.07593 2.6405,-5.07593 z m -15.6123,3.61468 -36.2749,26.8665 c -0.2365,-0.73298 -0.5887,-1.4717 -0.9998,-2.20469 l -8.7931,-12.58727 c -2.487,-3.46918 -8.412,0.26612 -5.563,4.38376 l 8.0497,11.15165 -25.78982,11.40801 -13.02308,13.33071 0,8.63933 -18.099,13.40761 0,2.48669 18.099,-13.35634 0,6.40899 c 0.14649,4.9799 7.17441,4.66619 6.58845,-0.43581 l 0.15381,-10.94656 4.4863,-3.30704 4.58884,-2.89687 5.63991,8.97259 -28.25085,20.86769 0,2.25597 29.22504,-21.53423 1.8714,2.97378 -39.37686,28.84048 0,2.35851 40.42796,-29.53265 8.1779,13.07435 -16.68906,21.84185 c -2.44998,4.66696 2.84319,8.14073 6.43466,4.66575 l 16.9966,-22.55966 c 2.5098,-3.95788 1.6219,-6.66631 -0.1282,-9.07514 l -7.0499,-10.40821 4.8452,-1.89706 13.9204,12.15146 0.282,20.97023 c 0.3418,5.17947 7.7115,5.08596 7.6139,-0.15382 l -0.282,-21.09841 c 0.2835,-1.78102 -0.4942,-3.29995 -1.7689,-4.69139 l -15.5098,-14.04851 -0.4614,-0.71781 39.2999,-28.7123 0,-2.53796 -40.3766,29.55828 -1.9227,-2.9994 45.4013,-33.45496 0,-2.43542 -46.4268,34.30094 -5.2041,-8.10097 11.4337,-8.63932 c 1.4406,-1.07634 2.1534,-2.15379 2.3841,-3.23014 l 36.0698,-26.63578 0,-2.71741 z m 21.3035,2.69177 5.1785,0 c -0.131,1.02182 -0.2312,2.04542 -0.3076,3.10196 l -5.2041,0 c 0.065,-0.73917 0.1265,-1.4694 0.2051,-2.23033 0.042,-0.30485 0.085,-0.57746 0.1281,-0.87163 z m 18.4579,5.81937 c -0.7973,2.36681 -1.2663,4.57417 -3.1019,7.46007 4.9388,7.41902 6.8517,12.83482 9.5366,19.04754 -0.4602,-8.99205 -0.1315,-18.04675 -6.4347,-26.50761 z m -104.62039,4.56321 c -5.60353,0 -10.15183,4.54831 -10.15185,10.15185 0,5.60353 4.54832,10.15185 10.15185,10.15184 5.60349,0 10.15179,-4.54831 10.15189,-10.15184 0,-5.60354 -4.5484,-10.15186 -10.15189,-10.15185 z m 72.29349,5.81936 c -1.8627,0.14272 -3.75,1.36899 -4.7427,6.17828 l -0.846,11.40801 c 2.5984,-7.24191 5.5665,-12.71683 8.7163,-17.20175 -0.9064,-0.16372 -2.01,-0.47016 -3.1276,-0.38454 z m 19.6884,4.10176 -5.5886,0.43581 c 0.5468,6.70416 1.1633,13.35066 3.3326,18.43227 1.8836,-7.40812 1.9713,-13.05883 2.256,-18.86808 z"
         style="fill:#000000;fill-opacity:1;stroke:none;display:inline" />
      <path
         id="path2648"
         d="m 437.09768,535.99464 0,181.47712 181.47706,0 0,-181.47712 -181.47706,0 z m 4.97338,4.97338 171.55598,0 0,171.53036 -171.55598,0 0,-171.53036 z"
         style="fill:#000000;fill-opacity:1;stroke:none;display:inline" />
    </g>
    <g
       id="g2992"
       style="fill:#000000">
      <path
         id="path2570"
         d="m 747.03434,556.11159 c -31.3345,0 -56.7837,25.42357 -56.7837,56.75806 0,31.3345 25.4492,56.75807 56.7837,56.75806 31.3345,0 56.758,-25.42355 56.7581,-56.75806 0,-31.33449 -25.4236,-56.75807 -56.7581,-56.75806 z m 0,9.79294 c 25.9167,0 46.9395,21.04846 46.9395,46.96512 0,14.42811 -6.5177,27.32992 -16.7659,35.94165 l -56.835,-74.57507 c 7.5784,-5.24305 16.7592,-8.3317 26.6614,-8.3317 z m -4.717,11.15166 c -5.0602,0 -9.4848,2.70021 -11.9207,6.74226 l 16.3301,20.35497 c 5.525,-1.84429 9.5109,-7.03429 9.5109,-13.1769 0,-7.68201 -6.2383,-13.92033 -13.9203,-13.92033 z m -26.1231,0.43581 56.4505,74.70325 c -7.3662,4.80712 -16.1616,7.61388 -25.6104,7.61388 -25.9167,10e-6 -46.9651,-21.02282 -46.9651,-46.93948 0,-14.11071 6.2573,-26.76475 16.125,-35.37765 z m 6.1527,13.43325 c -6.501,2.82168 -12.8447,5.77591 -17.1761,10.76711 -1.8141,10.65287 -1.1563,19.74452 3.1019,26.53324 l 6.8448,-4.76829 25.2515,23.81583 c 7.3785,5.64776 11.8657,-1.24016 6.2295,-6.61409 l -12.6385,-12.63853 0,-22.38022 -11.6131,-14.71505 z m 39.2486,8.6906 c -0.8086,0 -1.4612,0.6526 -1.4612,1.46125 0,0.80863 0.6526,1.46124 1.4612,1.46125 0.8087,0 1.4613,-0.65263 1.4613,-1.46125 0,-0.80863 -0.6526,-1.46124 -1.4613,-1.46125 z m 5.2811,0 c -0.8087,0 -1.4613,0.6526 -1.4613,1.46125 0,0.80863 0.6526,1.46124 1.4613,1.46125 0.8086,0 1.4612,-0.65263 1.4612,-1.46125 0,-0.80863 -0.6526,-1.46124 -1.4612,-1.46125 z m -9.5366,2.17906 c -0.8087,0 -1.4613,0.67825 -1.4613,1.48688 0,0.80863 0.6527,1.46126 1.4613,1.46126 0.8086,0 1.4868,-0.65263 1.4869,-1.46126 0,-0.80862 -0.6783,-1.48689 -1.4869,-1.48688 z m 13.3307,0.15381 c -0.8086,0 -1.4613,0.65263 -1.4613,1.46125 0,0.80863 0.6527,1.46125 1.4613,1.46125 0.8086,0 1.4868,-0.6526 1.4868,-1.46125 0,-0.80862 -0.6782,-1.46125 -1.4868,-1.46125 z m -6.2808,2.9225 c -0.8087,0 -1.4613,0.67826 -1.4613,1.48689 0,0.80863 0.6526,1.46126 1.4613,1.46125 0.8086,0 1.4612,-0.65262 1.4612,-1.46125 0,-0.80863 -0.6526,-1.48689 -1.4612,-1.48689 z m 9.0751,0 c -0.8086,0 -1.4613,0.67826 -1.4612,1.48689 0,0.80863 0.6526,1.46126 1.4612,1.46125 0.8086,0 1.4613,-0.65262 1.4612,-1.46125 0,-0.80863 -0.6526,-1.48689 -1.4612,-1.48689 z m -18.3041,0.15382 c -0.8086,0 -1.4613,0.65262 -1.4612,1.46125 0,0.80863 0.6526,1.46126 1.4612,1.46125 0.8086,0 1.4613,-0.65261 1.4613,-1.46125 0,-0.80863 -0.6527,-1.46125 -1.4613,-1.46125 z m 4.9734,1.76888 c -0.8086,0 -1.4613,0.65261 -1.4613,1.46125 0,0.80863 0.6527,1.46125 1.4613,1.46126 0.8086,0 1.4613,-0.65264 1.4612,-1.46126 0,-0.80862 -0.6526,-1.46124 -1.4612,-1.46125 z m 7.9215,0.282 c -0.8086,0 -1.4868,0.65263 -1.4869,1.46125 0,0.80863 0.6783,1.46124 1.4869,1.46125 0.8086,0 1.4612,-0.6526 1.4613,-1.46125 0,-0.80863 -0.6527,-1.46125 -1.4613,-1.46125 z m -10.1262,2.9225 c -0.8086,0 -1.4612,0.67825 -1.4613,1.48689 0,0.80863 0.6527,1.46126 1.4613,1.46125 0.8086,0 1.4613,-0.65262 1.4613,-1.46125 0,-0.80863 -0.6527,-1.4869 -1.4613,-1.48689 z m 13.0487,0 c -0.8086,0 -1.4612,0.67825 -1.4612,1.48689 0,0.80863 0.6526,1.46126 1.4612,1.46125 0.8087,0 1.4613,-0.65262 1.4613,-1.46125 0,-0.80863 -0.6526,-1.4869 -1.4613,-1.48689 z m -84.086,7.7677 c -4.8605,4.73789 -4.3134,14.02982 0.5896,26.96906 l 0,47.01639 c 0.073,7.75168 13.8821,7.95079 13.7665,0.28199 l -0.3076,-39.99213 c -8.7276,-11.18868 -11.8858,-22.70044 -14.0485,-34.27531 z m 55.6557,2.64051 c -5.4695,0.30532 -3.4488,6.7649 -1.3074,8.79314 l 21.5342,22.40585 c 1.5718,-0.64449 3.1302,-1.29409 4.6914,-2.05088 l -22.252,-29.14811 -2.6662,0 z m 16.4327,0.0513 18.0733,22.12385 c 1.835,-1.98785 3.6286,-4.41511 5.3579,-7.51134 l -0.1537,-14.50996 -23.2775,-0.10255 z"
         style="fill:#000000;fill-opacity:1;stroke:none" />
      <path
         id="path2650"
         d="m 647.10764,535.99464 0,181.47712 181.4771,0 0,-181.47712 -181.4771,0 z m 4.9734,4.97338 171.556,0 0,171.53036 -171.556,0 0,-171.53036 z"
         style="fill:#000000;fill-opacity:1;stroke:none;display:inline" />
    </g>
    <g
       id="g2988"
       style="fill:#000000">
      <path
         sodipodi:nodetypes="ccccccccccccccccccccccccccccccccccccccccccccccccccccccccccccccccccccc"
         id="path2537"
         d="m 937.40714,555.70141 -4.3582,3.53777 7.4602,9.94676 -9.3315,8.89568 2.0764,2.07652 11.1773,-10.35694 -7.2292,-9.94676 0.205,-4.15303 z m -14.7151,22.71348 c -0.5821,0.0159 -1.1829,0.0996 -1.8458,0.25636 -5.8433,1.19323 -9.2073,5.62478 -9.9723,13.45889 1.0444,5.56614 2.8533,10.7067 10.2544,12.61291 5.7374,0.67941 10.8755,1.09483 14.2792,-0.94854 6.4805,-3.82475 7.1912,-9.92646 4.9221,-16.27884 -2.1794,-4.37788 -6.0374,-5.94391 -9.9724,-5.63992 -1.8095,1.11958 -3.2273,2.74903 -4.2556,4.8452 0.5402,-1.84338 0.421,-3.3167 2.2047,-5.87064 -1.2905,-1.37714 -3.0915,-2.50408 -5.6143,-2.43542 z m 90.11056,2.15342 c -19.02846,3.16618 -46.14396,6.74991 -70.42216,10.17749 l 2.1535,2.30724 6.0501,5.15283 c 0.8616,0.68512 0.7767,1.07642 0.1282,1.61507 l -8.4086,8.1266 12.3821,-6.43463 c 2.7654,-1.85508 2.8673,-3.90691 0.359,-6.15263 l -5.4605,-2.94814 c 17.2307,-2.14915 35.0484,-4.28623 49.0417,-6.43463 l -63.8849,30.17355 c -21.5747,0.69142 -39.7862,-1.14172 -43.9401,-13.61271 1.5479,-0.83966 4.3103,-1.67238 7.9728,-2.51233 l -0.2564,-2.30723 c -6.7927,1.40381 -11.0265,2.6823 -11.4592,3.76849 l 0.4102,75.21596 c 9.0177,13.7235 26.6005,16.98811 47.7341,14.74069 l 0,-0.0769 79.26646,-37.24909 -0.1538,-15.33031 -79.18956,37.04399 0,12.92054 c -18.5234,3.36303 -36.9848,-1.3846 -44.3502,-12.04892 l -0.4102,-68.57625 c 9.5908,11.68222 27.0867,11.99873 45.3757,11.17729 l 77.16426,-36.55691 -0.1025,-2.17906 z m -103.90266,2.92251 -8.5625,6.89608 c -2.0331,2.09168 -1.6233,4.37522 -0.077,6.74226 l 6.9473,7.02426 -3.9736,-8.51115 c -0.7419,-0.94627 -0.8521,-1.82608 -0.2819,-2.84559 l 5.9475,-9.30586 z m 104.95366,4.53757 -78.72806,37.09526 0,15.89431 78.88196,-36.73636 -0.1539,-16.25321 z m -101.72356,14.79196 5.6399,10.56202 c 0.8569,1.60725 3.151,1.381 4.5376,0.3589 l 7.1012,-6.22954 -7.7677,3.15323 c -1.0223,0.45439 -1.3248,-0.0253 -1.7945,-0.30764 l -7.7165,-7.53697 z m 101.95436,10.61329 -78.95886,36.91582 0,16.12503 79.11266,-36.83891 -0.1538,-16.20194 z"
         style="fill:#000000;fill-opacity:1;stroke:none" />
      <path
         id="path2652"
         d="m 853.83614,535.99464 0,181.47712 181.47716,0 0,-181.47712 -181.47716,0 z m 4.9734,4.97338 171.55596,0 0,171.53036 -171.55596,0 0,-171.53036 z"
         style="fill:#000000;fill-opacity:1;stroke:none;display:inline" />
    </g>
  </g>
</svg>
