<?xml version="1.0" encoding="utf-8"?>
<!-- Generator: Adobe Illustrator 18.0.0, SVG Export Plug-In . SVG Version: 6.00 Build 0)  -->
<!DOCTYPE svg PUBLIC "-//W3C//DTD SVG 1.1//EN" "http://www.w3.org/Graphics/SVG/1.1/DTD/svg11.dtd">
<svg version="1.1" id="Layer_1" xmlns="http://www.w3.org/2000/svg" xmlns:xlink="http://www.w3.org/1999/xlink" x="0px" y="0px"
	 width="612px" height="792px" viewBox="0 0 612 792" enable-background="new 0 0 612 792" xml:space="preserve">
<g id="Ultimate_Spider-Man">
	<path d="M585.3,106.6c-2.2-2.8-3.8-7.5-5.5-9.4c-2.9-3.1-3.6-2.3-5.2-6.4c-1.8-4.3-1.7-8.8-1.2-14.9c1.2-0.5,1.8-1.5,3.5-1.4
		c1.6,1,1.6,2.6,1.5,5c-0.1,4.3-1.5,9.8-0.8,10.9c0.9,1.3,5.2,2.9,9.4,2.6c6.9-7.7,10.5-22.5,4-32.5c-9-2-21.3-8-27.1-15.3
		c-5.6-7-4.3-14.9-5-16.7c-1.3-3.6-10.3-10.9-13.4-12c-3.1-1.1-11.8,0.1-13.4,0.7c-17.1,4-42.2,6.1-63.3,4.9
		c-22,1.8-46.3,20.1-48.5,21.6c-2.3,1.5-17.1,22.8-26.7,30.2C384,81.3,372.4,90.5,365,97s-11.2,13.7-15.8,22.6
		c-8.9,0.9-13.9,2.6-19.4,4.6c-58.7-5.4-78.2,42-80.5,83.3c-3.5,2.8-13.1,10.9-18.8,15.6c-20.9-34.7-74.6-87.1-77.4-89.4
		c-2.9-2.2-5.9-4.3-9.5-4.2c-20.5,0.2-35.1,1-40.2,10c-3.7,6.6-11.3,17.3-13,26.4c-7.2-9.6-18.5-22.2-23-24.6
		c-4.6-2.4-27.8,5.1-32.7,9.3s-8,15.9-9.4,19.6c-10,29.4-11,90,10.6,122.1c10.4,17.7,23.9,33,33.2,51.8
		c10.7,17.6,10.6,35.9,30.6,50.8c11.9,8.9,23.4,7.6,34,0.2c6.8-4.7,12.3-12.3,13.2-24.2c1.2-15-5.7-25.4-4.1-41.5
		c0.5-5.1,1.7-16.2,5.5-22.2c0.4,0.9,9.4,17.3,22.2,31.3c-2,6.8-3.7,13.5-4.2,19.8c-1.9,22.1,4.1,40.5,7.6,51.3
		c-3,18.1-4.2,38-4.6,58.8c7.5,27.5,21.1,49,23.9,81.3c3.1,6,5.8,12.2,7.4,19.7c-4.5,48.2,23.5,87.9,29,95.4
		c3.8,5.3,30,40,32.7,49.3c2.5,10.6,5.8,26.7,8.8,37.9c1.3,5,6.1,9.5,10.3,13.8c5.2,5.2,10.4,9.8,14.7,12.2c4.7,1.2,7.9-3.1,14.3-2
		c2.5,1.5,5.3,4.7,8.9,5.1c4.6-2.1,5.1-4.1,9.6-5.8c6.4-2.3,16.4-0.8,23-5.3c3-2.1,3-6.3,7.3-9.4c5.1-3.8,11-10.2,11.8-18.1
		c-7.2-5.9-4-15.1-1.1-23.6c-4.7-7.8-10.5-16.2-12.2-23.5c-4.3-6.4-22.7-2.1-32.7-0.9c-6.5,0.7-9.5-0.2-13.6-2.8
		c-7.1-5.4-11.6-14.5-12.9-21.6c-5.6-41.2-15.4-78.2-31.7-108.7c14.5-27,11.6-85.2,8.5-123.2c3.9-0.5,8.7-0.4,10.4,0.4
		c26.8,14.1,41.9,27,89.9,48.9c-1.5,2.6-7.7,10.8-2.9,23.9c12.4,29.5,44.3,40.3,51.9,74.6c8.8,19.7,30.3,36.3,52.8,41.9
		c8.3,2,19.3-4.8,19.6-18.1c0.4-16.7-10.1-42.2-20.5-57.2c15.8,0.7,35.3,0.2,51.2-0.2c14.3-8.8,21.8-24.7,23.1-27.2
		c2.5-4.7,1.2-9,0.6-11.8c-0.7-2.8-9.1-21.3-15.3-30.4c-18.2-39.5-63.5-92.7-154.2-127.1c-1.8-2.2-4.8-6-5.6-9.1
		c0.5-5.6,2.3-9.9,3.5-14.8c14.6-26.5,22.4-61.6,23.9-99.9c2.1-3.5,3.1-4.1,6-10.9c2.9-6.8,5.7-14.7,6.3-24.3
		c10.9-29.8,35.1-46.3,35.2-86.9c14-4.5,29.3-9.6,38.4-17.9c0.1,1.2-0.3,3.1,0.3,3.5c1.6,1.1,6.9-0.4,8.5-2.2
		c1.1-4.4,1.3-7.1,1.8-11.3c1.4-2.3,4.7-5.1,6.9-6.7c-0.7,2,0,3.8,1.8,4.5c2.6,0.9,5.9,0.7,8.3-0.2c3.5-5.8,5.9-20.1,15.3-14.2
		c-1.1,6.9-4.8,12.5-4.8,14.6s4.5,4.9,8.8,5.3c2.6-1.4,4-4,6.3-5.6c3.5,7,11.7,11.5,16.3,17.8c2.8,3.7,0.7,7.9,3.8,12
		c2.4,3.2,11.4,10.6,21.4,11.8c3.5-1.3,5.8-4.8,6.9-8.5C590.1,110.7,587.5,109.4,585.3,106.6z M584.3,119.5c-4.7-1.4-8.4-3-11.2-4.7
		c5.1-0.8,8.9-3.9,10-7.6c1.2,1.4,4.7,4.3,6.1,6C589.3,114.5,585.9,118.8,584.3,119.5z M529.8,79.8c0-1,1.2-3.3,2.2-5.2
		c1.2,2.9,4.3,5.7,7.5,6.2c-1,1.1-2,2.1-2.8,2.2C535.3,83.4,529.8,81.3,529.8,79.8z M535.2,77.3c-1.3-1.2-2.2-2.8-2.5-4.2
		c0.1-0.3,0.2-0.5,0.3-0.7c0.6-1.6,0.5-5.5,1.3-6c2.8,2.3,3.1,1.6,4,3.8c0.8,2.1,2.2,6.6,3.4,8c-0.2,0.3-0.7,0.9-1.4,1.7
		C538.7,79.8,536.7,78.8,535.2,77.3z M519.2,71.6c-0.7,0.4-1.9,0.7-3.3,0.7c-1.5,0-3.2-0.3-4.4-0.8l-0.8,0.8
		c1.4,0.7,3.4,1.1,5.2,1.1c1,0,1.9-0.1,2.7-0.3c-0.8,1.9-1.6,3.6-2.2,4.3c-1.3,1.4-5.7,1.4-6.7,0.3s-0.3-4.1-0.3-4.1l2.1-2.1L512,71
		c3-3.4,6.7-4,9-3.9C520.5,68.4,519.9,70,519.2,71.6z M496.2,81.8c1.4-8,1-15.4-0.3-22c4.8-3.4,13.6-7.4,22.2-11.1
		c-0.9,2.2-1.6,5.7-1.6,8.9c0,2.2,0.3,4.3,1.2,5.7c0.3-0.2,0.6-0.4,1-0.6c-0.7-1-1.1-2.9-1.1-5.1c0-3.7,1-8,2-9.5c0,0,0,0,0-0.1
		c7.4-3.1,14.5-5.9,19-7.8c-2.3,3.8-4.1,10.4-4.2,15.5c0,0.8,0.1,1.6,0.2,2.4l0,0c-1.3-0.2-3-0.1-4.8,0.3
		C514.3,62,504.6,74.2,496.2,81.8z M491.4,93.3c-0.6-0.7,0.3-3.3,0.3-3.3s4.8-3.8,6.7-5.6c0.2,0.6-1.1,5.9-1.1,7.3
		C497.3,93,492,94,491.4,93.3z M454.1,85.1c-14.4,2.2-31.1,3.8-36.6,13.7c-0.6,0.4-1.2,0.7-1.8,1.1c8.3-1.5,17.3-4.5,28.2-4.7
		c1,0.5,2,1.1,2.8,1.9c-6.8,22.7-17,42-36.3,52.2c-2.1-4.6-4.8-8.6-8.2-12.1c1.3-5,2.5-11.5,2.2-17.6c-5.2,2.2-9.4,5.3-12.3,9.8
		c-6.3-3.6-13.8-6.3-22.9-8.2c-5.1-1.1-9-1.7-15.1-1.5c2.8-5.9,8-14.6,14.5-20.6c0.2-0.2,0.5-0.4,0.8-0.7
		c15.5-4.8,30-10.1,40.6-19.9c6-11,13.4-20.6,22.2-28.9c12.6-8.7,27.3-15.4,47.6-16.5c7.2,6.6,12.1,16,14.2,26.9
		C478,65.4,461.7,71.2,454.1,85.1z M456.5,399.7c39.2,23.5,62.6,63.1,82.8,105.6c-0.9,12.9-0.3,17.1-9.6,21.8
		c-5.3,0.3-9.8-0.3-13.2-2c-1.1-11.9-6.7-22.3-12.5-28.6c0.3,0.4,0.6,0.9,0.9,1.4c0.9,5.6,7.3,14.9,2.7,19.4
		c-43.5-8.7-70.4-35.9-92.6-64.8c21.1,4,40.4,9.8,60.9,14.4c-21.1-30.4-57.5-45.5-106.6-47.9c-6.4-12.5-9-33.8-6.2-51.5
		c1.6-1.4,3.3-2.8,5.1-4.1c1.5-2.1,2.7-4.5,3.9-6.8c39.6,12.7,68,36.4,92.1,64.6C463.1,412.8,458.4,406.2,456.5,399.7z M490.4,619.5
		c0-1.3-0.5-2.7-1-4.2c-1.5-4.6-6.3-12.4-12.3-21.2c-0.4-2.5-0.8-7-0.8-11.9c0-6.4,0.7-13.4,2.9-17.6c1.7,1.8,3.3,3.6,4.5,5.4
		c5.2,11.6,8.3,23.1,9.4,27.9C495.7,608.5,493.7,615.3,490.4,619.5z M473.9,623.5c-0.2-0.1-0.4-0.1-0.6-0.2
		c-12.7-4.3-26.5-14.1-35.6-23.5c-0.5-1.6-1-3.7-1.5-6c0.3-0.5,2.4-1.6,5.5-2.3c3.1-0.8,7.3-1.4,12-1.4c6.8,0,14.8,1.2,22.6,4.9
		c5.9,8.7,10.7,16.3,12.1,20.7c0.5,1.5,0.9,2.9,0.9,3.9c0,0.9-0.3,1.5-1.1,2.2c-0.1,0.1-0.2,0.2-0.2,0.3c-3.2,2.6-6.8,3.3-9.1,2.9
		c-0.8-0.2-1.6-0.4-2.4-0.6c-0.2-0.1-0.5-0.1-0.7-0.2C475.2,623.9,474.6,623.7,473.9,623.5z M282.9,408.2c1.1-3.1,1.9-5.3,1.9-5.3
		s-1.3-0.1-2.5-0.4c-1.9,2.7-4,5.2-6,7.6c0.4-2.3,0.7-5.1,0.7-8.3c0.5-1,2.8-2.1,5.8-2.8c3.2-0.8,7.1-1.2,10.9-1.2
		c4.3,0,8.4,0.6,10.2,1.8c0.1,0.1,0.2,0.1,0.3,0.1c0.1,1.5,0.1,3,0.1,4.5c0,3.3-0.3,6.2-0.9,8.7c-5.3-4-13.7-4.7-18.7-4.7
		C284.1,408.2,283.4,408.2,282.9,408.2z M300.3,684.8c1.2,2.2,2.6,4.1,4.1,5.9l0,0c-1.4,0.8-2.2,2.4-2.7,4c-0.4,1.3-0.6,2.7-0.8,3.8
		c-6.1-8.3-11.3-17.9-15.5-26.8c0-0.4-0.1-0.9-0.1-1.4c0-3.6,1.3-9.7,7.9-13.6c-0.1-0.4-0.1-0.8-0.2-1.2h-0.1
		c-6.6,3.8-8.4,9.7-8.7,13.7c-4.5-9.7-7.7-18.1-9.5-22.6l0,0c8.7-7,12.5-13.5,13.1-15.6c4.5,14.7,7.4,39.3,7.4,39.3l0,0
		C295.2,670.5,295.4,675.9,300.3,684.8z M366.1,719.6c0,0.1-0.1,0.2-0.1,0.3c-2.5-3.8-8.8-7.2-16-10.5c-1.1-1.2-1.7-3.5-1.7-5.9
		c0-2.9,0.9-6,2.9-8.4c2.2,0.2,3.4,0.4,3.4,0.4s0.5,3.9,2,6.4C358.1,704.2,365.5,717.5,366.1,719.6z M350.3,767.1
		c-0.1,0.9-5.8,2-11.8,3.5l0,0c-2.3-0.2-3.5-0.4-4.9-1.2c2.9-3.7,12.3-11.1,25-14l0,0c0.8,0.3,1.5,0.5,2.1,0.7
		c0.4-0.3,0.7-0.6,1.1-1c-1.4,1.3-2.8,2.4-4.1,3.2C353.4,760.9,350.4,766,350.3,767.1z M328,774L328,774
		C328.1,774,328.1,774,328,774L328,774z M318.1,777.8c-0.2,0-0.3,0.1-0.4,0.2c0.1,0,0.2,0.1,0.4,0.1c-0.5,0-1.1-0.3-1.6-0.7
		c-2-1.5-4.4-4.5-10-4.5l0,0c2.7-1.5,10.7-4.4,17.8-4.4c3,0,5.9,0.5,8.1,1.8C324.5,771.3,321.7,777,318.1,777.8z M213.4,507.7
		c-8.6-24.5-23.7-42.7-39.8-59.8c1.1-12.1,2.7-23.8,4.6-35.2c10.2,14,22.2,26.4,37,35.9c-13.5-13.9-31.6-25.7-40.1-49.2
		c14.3,23.5,25.1,36.6,47,44.5c1.9,3.4,3.7,7.5,7.5,8.8c4.3,0.2,7.5-1.2,10.1-3c-0.2,0.2-0.4,0.4-0.6,0.6c2.8-1.3,5.5-2.7,7.9-4.4
		c2.4,28.8,9.5,66.9-2.3,90.2c-4.9-9.6-12.9-19.9-20.1-25c1.4,14.8-3,33.3,0.7,48.2c16.5,25.8,26.4,59.9,36.5,92.1
		c-6,3.1-12.8,5.3-20,6.5c-15.6-34.1-34.2-68.1-29.8-123.2C212.6,527,213.6,508.8,213.4,507.7z M140.1,381.8
		c-3.2,6.1-8.4,10.7-13.8,13.4c-4.6,1.4-10.1,1.8-15.7,1.4c-0.2,0-0.5,0-0.7-0.1c-8.7-3.1-17.7-11.5-22.5-19.2
		c-4.1-6.6-7-23.8-24.4-50.6c-9-13.9-23.7-29.2-34.1-56.7c-4.9-13.1-14.6-73.5,5.7-114.3c3.2-6.5,29.5-12.7,31.6-11.4
		c8.9,5.5,26,26.5,43.2,55.4s10.1,54.8,8.9,82.2c2,12.3,4.1,23.2,8.6,34.3c4,10,15.5,32.7,16.3,50
		C142.9,372.3,141.7,377.5,140.1,381.8z M109.1,138.4c7.1-4.8,20.7-5.9,35.6-6.1c1.3,0.3,2.5,0.8,3.6,1.4c2.6,5.5,0.8,15-2.2,19
		c34.1,17.5,55.3,49.8,75.9,79.8c-8.5,10.4-15.6,22.2-21.2,35.5c-6.6-26.4-15.4-54.2-31.1-69.1c-0.1-0.7-0.3-1.4-0.4-2.2
		c-0.2-3.2-0.4-6.4-1.1-9.2c-1.9,18.5,2.8,23.7,3.7,41.7c-3.1-6.4-8.4-13.3-15.3-19.2c-0.1-12.7-0.7-24.8-6.7-31.6
		c-4.8,5.2-8.4,13.5-12.1,19.9c-2.7-1.2-5.5-2.1-8.4-2.9c1.1-3.4,3.8-7,4.7-10.6c-6.4-1.7-11.9,5.3-15.5,8.7
		c-3.3-0.3-6.8-0.3-10.2,0.1c-0.1-0.2-0.3-0.5-0.4-0.7c1.6-9,3.6-19.1,5.3-26.8c-10.7,5.6-11.9-9-10.6-15.8
		c-1.5,0.9-2.7,2.1-3.8,3.5C101.9,146.7,104.9,141.6,109.1,138.4z M370.9,144.7c1.8-2.3,7.7-8,15.2-10.4c-4.3,33.1,2.9,68.7,6,75.3
		c-1.9,0.4-3.6,1-4.8,1.3c-1,0.3-2.2,0.9-3.1,1.4c0.5-3.8,0.8-7.8,1-11.9c1.1-26.3-6.1-43.2-15.5-54.2
		C369.9,145.9,370.4,145.4,370.9,144.7L370.9,144.7z M366.6,343.6c1.8-1.3,3.8-3.5,5.9-5.8c0.1,0.4,0.1,0.9,0.1,1.6
		c0,2.1-0.5,5.7-1.8,11.7c-3.6,7.2-8.7,11.9-13.8,18c-2,2.4-4.1,5.2-6.3,8c0.2-1.5,0.2-3,0.2-4.5c0-0.1,0-0.3,0-0.4
		c0.3,0,0.7,0,1.1,0c2.9-1.6,6.2-16.7,1.3-25c1.1,0.7,4.9,0.3,4.9,0.3c0.4,1.1,1.4,11.6-0.9,18.7c2.3-3.1,3.9-12.8,2.7-21.8
		c-1.1,0.8-6.2,1.6-7.8,0.7c1.4-0.6,7.6-2.2,8.9-3.7c0.8,1.2,1.6,11.3,0.7,19.1c2.3-5.6,2.7-14.3,1-23.3c-0.4,0-1.3,0.6-1.3,0.6
		s-2.7,2.5-5.8,4.2c1.3-1.9,3.7-4.9,6.1-7.6c2.8-3.2,5.9-6.1,7.3-6.8c0.4,2.3,0.6,4.8,0.8,7.4c-0.2,0.2-0.5,0.5-0.7,0.7
		C364.7,340.6,364,345.5,366.6,343.6z M310.3,419.5c-0.7-1.1-1.7-2-2.5-2.9c11.6-9.9,16.7-20.2,18.8-24.3c0.1-0.1,0.1-0.2,0.2-0.3
		c1.2,1.1,3,4.1,3,12.3c0,0.4,0,0.8,0,1.3c-2.6,3.2-4.9,5.7-7.2,7.8c-0.1,0-0.2,0-0.3,0C318,413.5,312.4,416.9,310.3,419.5z
		 M321.3,414.6c-3.1,2.7-6.2,4.6-10.1,6.4c-0.1-0.2-0.2-0.4-0.3-0.5C312.1,418.7,317.4,415.1,321.3,414.6z M274.6,373.8
		c-0.7-3.5-1.4-8-2.1-12.7c1.3-7.3,10.2-12.6,16.8-12.6c2.3,0,4.2,0.6,5.4,1.9c3.5,15,8.2,33.2,9.4,47.5c-0.1,0.1-0.1,0.3-0.2,0.4
		c-2.4-1.1-6.1-1.6-10.2-1.6c-3.8,0-7.8,0.4-11.1,1.2c-2.3,0.6-4.3,1.3-5.5,2.2c0-0.2,0-0.3,0-0.5
		C277.1,390.9,276,380.4,274.6,373.8z M195.6,333.4c0,2.4-0.1,4.3-0.2,5.2c0,0,0,0,0,0.1c-6.8,9.3-14.3,22.9-19,41.2
		c0.1-1.8,0.1-3.8,0.1-5.8c0-13.5-1.3-30.7-1.8-34.5c5.3-12.9,13.3-23.4,18.3-30.3c-0.1,0.2-0.2,0.3-0.4,0.5
		C195,314.5,195.7,326.4,195.6,333.4z M213.1,269.6c2,0.4,4.5,3.7,6.4,8s3.3,9.6,3.3,14.1c0,2.3-0.4,4.4-1.2,6
		c-3.5,6.2-6.9,12.7-9.7,19.4c-3.1-12.2-2-29.2-2.7-30.6c-3.3,3.8-1.6,24.2,0.3,31.5c0.2,0.9,0.5,1.9,0.8,2.9
		c-0.5,1.2-0.9,2.4-1.3,3.5c-2.4,1.8-7,5.9-12.2,12.7c0-1,0.1-2.2,0.1-3.6c0-7.4-0.6-19.7-3.3-24.6c0,0-0.1,0.1-0.1,0.2
		c1.3-1.8,2.4-3.4,3.2-4.7c0.4-7.4,1.6-14.5,3.3-21.2c-0.3,1-0.5,2-0.7,3C203.4,279.8,208.1,274.2,213.1,269.6z M199.8,283.1
		c5.4-21,16.4-38.5,27.6-51.2c0.1,0.5,0.1,1.2,0.1,2.1c0,5.4-1.9,17.4-14.1,33.8C208.6,272.1,204,277.3,199.8,283.1z M252.5,258.9
		c1.3,5,3.2,10.2,5.6,15.5c0.9,1.9,1.9,3.8,2.9,5.8c0,0,0-0.1-0.1-0.1c-4.7,7.8-11.4,12.4-18.6,28.1c-3.8-7.1-10.4-10.7-18.3-10.7
		c-0.4,0-0.8,0-1.1,0c11.1-20.1,23.9-30,29.8-37.8C252.7,259.4,252.6,259.2,252.5,258.9z M257.3,236.4c0,0.1,0.1,0.2,0.1,0.3l-4,1.3
		v0.1c-0.7-6.9-0.8-14.1-0.7-21.9c0.1-5.4,0.4-10.4,0.9-15.2c1.2-0.5,2.4-1,3.5-1.5C254.4,209.9,254,224.4,257.3,236.4z
		 M374.2,212.6c1.3,0.5,2.8,0.7,4.3,0.7c0.1,0,0.3,0,0.4,0c-2.3,14-5.7,25.6-9.3,35.2l-3-2.3C371.2,236.7,375.2,226.1,374.2,212.6z
		 M355.4,296.8c-1.8-1.8-4-3.2-5.3-3.9c2.4-2.8,4.6-5.6,6.4-8.3c-0.9,4.6-1.1,8.7-1.1,11.1C355.4,296.1,355.4,296.5,355.4,296.8z
		 M344.3,343.9L344.3,343.9c-3,0.9-6.9,3.8-8,5.1c-2.8-4.6-4.1-21-4.2-23c-1,2.3-0.2,21.6,3.5,27.1c0.8-0.7,4.2-5.9,7.7-6.9
		c-2.3,2.1-8.2,9-8.9,9.8c-0.9-0.7-6.8-8.7-7.1-28.5c-2.2,10.1,1.9,26.2,5.6,32.2c0.9,0.3,1.8-0.2,2.7-1.8c0.9-1.6,5.3-7.2,7.8-8.4
		c-0.4,1.5-1.4,5-3.8,8.6c0,0-0.1,0-0.1,0.1c0,0-6.2,5.6-8.2,8.2s-4.3,7.2-5.5,10.2c-2.3-14.1-7.8-25.3-11.8-38.4
		c1.3-1.4,2.7-5,5.6-8.8c2.9-3.9,7.2-7.8,14-9.7c1.6,2.1,3.6,5.9,5.8,10.7C338.5,334.8,339.6,341.5,344.3,343.9z M339.3,265.2
		c-8.8,0.2-13.7-4.6-16-9.2c10.6-24.4,32-31.2,39.6-33.4l-0.2,0.5C364.6,248.9,348.1,265,339.3,265.2z M288.6,315.1
		c0.7,0.4,2.7,0.9,5.1,1.5c-0.5,0.7-1,1.7-1.4,2.8c-3.9-3.1-8.6-4.4-12.5-4.4c-2.7,0-5,0.6-6.8,1.6c1.1-4.4,2.3-8.5,3.8-12.9
		C281.5,309.4,285.8,313.6,288.6,315.1z M295.1,316.9c1.2,0.3,2.4,0.5,3.6,0.8c-2.1,0.5-4.1,1.2-5.3,1.7
		C293.8,318.4,294.4,317.5,295.1,316.9z M298,313.4L298,313.4c-7.3-1.4-10.4-3.5-12.7-6.1c2.4-0.9,5.3-1.3,8.5-1.3
		c5.9,0,12.5,1.2,18,2.8c5.3,1.5,9.6,3.3,10.8,4.3c-5.9,4.1-10.2,2.9-20.3,1.3C301.3,314.2,298.9,313.5,298,313.4z M312.1,307.8
		c-5.6-1.5-12.3-2.8-18.3-2.8c-3,0-5.9,0.3-8.3,1.1c2.4-4.2,5.9-11.8,9.5-19.7c0.4-1,0.9-2,1.3-2.9c2.7-1.6,5.7-2.3,8.5-2.3
		c5.8,0,11.2,2.9,12.9,5.9c2.2,10.4,4.3,20.8,5,24.8C320.8,310.6,317,309.1,312.1,307.8z M306.6,254.4c1.7-0.1,2.9-1.7,3.6-2.7
		c0.5,1.6,1.7,3.1,3,3.8c-0.2,0.4-0.4,0.8-0.6,1.4c-0.3,1-0.5,2.1-0.5,3.1c0,0.1,0,0.2,0,0.3c-1.2-0.5-2.7-0.6-4.2-0.7
		c-0.6,0-1.2,0-1.7,0.1c0.2-1,0.4-2.4,0.4-3.7C306.7,255.4,306.7,254.8,306.6,254.4z M313.7,257.1c0.1-0.4,0.3-0.8,0.4-1.1
		c0.1-0.1,0.1-0.2,0.2-0.2l0,0c0.1,0,0.2-0.1,0.3-0.3c0.1,0,0.1-0.1,0.2-0.1c0.4-0.5,0.7-0.9,1.1-1.4c0.6,1.1,1.2,2.2,1.8,3.2
		c1.6,2.7,5,12.5,15.8,13.8c-6,2-12.4,7.5-15.2,13.8c-2.3-10.7-4.4-21-4.9-23.7c0,0,0,0,0-0.1v-0.1c-0.1-0.2-0.2-0.6-0.2-1.1
		C313.3,259.1,313.5,258,313.7,257.1z M308.1,260.6c1.7,0,3.9,0.4,4.4,0.9c0.5,2.9,2.6,12.8,4.8,23.2c-2.6-2.6-7.3-4.6-12.4-4.6
		c-2.6,0-5.2,0.5-7.8,1.8c4.1-9.1,7.8-17.7,8.9-20.7c0-0.1,0-0.2,0-0.2C306.3,260.8,307.2,260.6,308.1,260.6z M318.8,286.8
		c2.6-8,12.3-15.4,19.1-15.5c0.2,0,0.3-0.1,0.4-0.2c0.3,0,0.6-0.1,0.9-0.1c2.7,0,8.5,5.4,13,12.4l0.4-0.6
		c-7.2,10.9-17.6,18.8-25.9,26.8c-1,1-2,1.9-2.9,2.6C323.3,308.4,321,297.6,318.8,286.8z M327.8,238.5c5.1-6.8,9.6-13.1,13.6-18.9
		c0.6,2.1,1.5,3.6,2.6,4.7C338.5,228.2,333,232.9,327.8,238.5z M316.9,251.1c-0.2-0.1-0.3-0.3-0.5-0.5c-0.9-1.1-1.8-1.9-2.2-1.1
		c-0.2,0.4,0.4,1.8,1.2,3.5c-0.4,0.6-0.9,1.1-1.3,1.7c-1.2-0.5-3.1-2.7-3-4.3c0-0.1,0-0.1,0-0.2c1.7-8.1,4.7-26.8,6.9-47.2
		c3.7,8.3,15.7,15.6,22.1,15.7c0.2,0,0.5,0,0.7-0.1C334.4,228,326.5,238.8,316.9,251.1z M310,250.1c-0.6,0.9-2.2,3.3-3.5,3.2
		c-0.2,0-0.4,0-0.6-0.1c-0.3-0.7-0.6-1.3-0.9-2c0.2-0.6-0.2-1.4-0.7-1.7c-6.4-14.8-11.3-28-15.1-39.6c1.5,0.8,3.7,1.1,6.3,1.1
		c7.1,0,17.1-2.5,21.3-7.9C314.7,223.5,311.7,242.1,310,250.1z M303.4,249.8c-0.7,0.2-1.5,0-2.1-0.8c-4.6-15-10.7-24.9-16.7-32.5
		c2.4-1.8,3.5-3.7,4.1-5.2C292.4,222.6,297.2,235.5,303.4,249.8z M304.2,251.8c0.3,0.6,0.5,1.2,0.8,1.8c0,0.1,0.1,0.2,0.2,0.2
		c0,0.1,0.1,0.2,0.2,0.2c0,0,0,0,0,0.1c0.1,0.3,0.2,1,0.2,1.8c0,1.7-0.4,4-0.6,4.2c-0.1,0.1-0.1,0.3-0.1,0.4l-0.1,0.1
		c-1.1,3-4.9,11.8-9.1,21.1c-0.4-3.1-2.2-7.4-4.7-11.3c-1.3-2-2.7-3.8-4.4-5.4C296.7,264.3,300,253.1,304.2,251.8z M290.3,271.1
		c2.9,4.4,4.7,9.4,4.7,12.1c0,0.1,0,0.1,0,0.2s0,0.2,0.1,0.3c-0.3,0.8-0.7,1.5-1,2.3c-3.7,8.2-7.6,16.2-9.8,20.2
		c-10.9-12.9-18.3-24.6-23.1-36.2l0.4,1c0.3-0.3,0.6-0.6,1-0.9c1.8-1.6,4.4-3.7,6.7-5.4c1.6-1.1,3.1-2.1,4-2.6c5.2,3.1,9.9,3,12,3
		C287.1,266.7,288.9,268.8,290.3,271.1z M261.8,281.4c4.3,7.8,9.4,15.3,14.2,21.3c-0.8,2.6-3.2,9.8-4.2,13.9c-1.2-2.3-3.8-4.3-7-6
		c-4.1-2.1-9.3-3.5-14.2-3.5c-2.4,0-4.7,0.4-6.9,1.2C249.1,295.9,258.2,287.2,261.8,281.4z M250.5,308.2c4.7,0,9.7,1.4,13.7,3.4
		c3.9,2,6.7,4.7,7.1,7c-1.2,5.6-2.4,12.7-2.4,17.2c0,4.1,0.9,14.1,2.2,23.7c-6.9-6.6-17.8-9.6-27.4-9.6c-6.6,0-12.5,1.4-15.9,4.3
		c1.7-6.6,3.7-10.9,5.2-13.9l0.1-0.2c1.2-10,5.3-20.8,9.7-30.3C245.1,308.7,247.7,308.2,250.5,308.2z M270.1,335.8
		c0.6-7.2,1.5-12.7,2.6-17.7v0.1c1.4-1.2,4-2,7.1-2c3.8,0,8.4,1.3,12.1,4.4c-0.6,1.9-1,4.2-1,6.4c0,0.4,0,0.8,0,1.2
		c0,4.8,1.4,12.1,3.4,20.6c-1.4-0.9-3.1-1.3-5-1.3c-6.3,0-14.4,4.3-17.1,11C271,349.2,269.7,339.7,270.1,335.8z M292,328.1
		c0-0.4,0-0.7,0-1.1c0-0.9,0.1-3.8,0.9-6.4c2.1-0.6,4.7-2.1,8.9-2.4c3.2,0.6,6.1,1.1,7.7,1.3c-0.2,1.8-0.1,5.6,1.1,11.6
		c0.4,2.1,1.1,4.1,1.6,6.1h-0.1c-8.1,0.1-14.7,7.3-16.8,11.3C293.5,340.1,292,332.8,292,328.1z M311.7,330.9
		c-0.8-3.6-1.1-8.9-1-11.3c7.9,0,11.5-1,17-5.2c1.3,1.1,3.5,2.6,4.7,4.3c-6.8,2-11.2,6.1-14.1,10c-2.5,3.4-4.1,6.7-5.1,8.2
		c-0.1-0.5-0.3-0.8-0.3-1C312.6,334.2,312.1,332.6,311.7,330.9z M333.3,317.8c-1.4-1.6-3.3-3-4.6-4.1c1.6-1.2,3.3-2.7,5.3-4.5
		c5.4-4.8,10.7-10.1,15.2-15.3c2.2,1.1,4.5,3,6,4.2c0,0,0,0,0.1,0.1C346.5,300.2,337.8,310.2,333.3,317.8z M355.5,278.1
		c-0.8,1.5-1.7,3-2.6,4.4c-3.7-5.7-8-10.2-11.4-11.9c17.1-3.7,24.1-22.1,24.7-23.4c0,0,0,0,0-0.1l3,2.4
		C364.2,262.7,358.7,271.9,355.5,278.1z M355,217.3c-3.2,1.9-6.6,4-10.1,6.4c-1.2-1.1-2.2-2.8-2.7-5.2c8.7-12.8,14.6-23.2,18.7-31.9
		c0.1,7.3,2.2,16,6.8,21.4C365.2,210.4,361.4,213.6,355,217.3z M360.9,183.8c-4,9-10.1,19.9-19.4,33.7h-0.1
		c-0.4,0.1-0.8,0.2-1.4,0.2c-6.2,0.1-19.7-8.5-21.8-16.9c0.4-3.7,0.8-7.4,1.1-11.1c0.6-7.4,2.4-18.8,4.2-30
		c4.8,11.2,24.6,24,35.7,24.1c0.6,0,1.1,0,1.7-0.1C360.9,183.7,360.9,183.8,360.9,183.8z M318.3,189.5c-0.3,3.7-0.7,7.5-1.1,11.2
		c-2.7,6-13.9,9.3-21.6,9.3c-3,0-5.5-0.5-6.5-1.4c-0.1-0.1-0.2-0.1-0.3-0.1c-4.4-13.6-7.2-25-8.9-34.3c2.6,1.6,5.9,2.3,9.6,2.3
		c11.1,0,25.4-6.5,32.9-17C320.7,170.8,318.9,182.1,318.3,189.5z M288.1,209.6c-0.4,1.6-1.3,3.9-4.2,6.1c-6.8-8.4-13.5-14.2-18-21.4
		c7.9-6.2,11.9-13.6,13.3-18.5C281,185,283.8,196.3,288.1,209.6z M266.4,209.3c8.3,5.3,23.8,14.9,29.4,42.5
		c-1.8,3.2-6.2,7.7-17.7,5.6C266.7,255.2,258.6,224,266.4,209.3z M272.3,261.5c-0.4,0.2-0.9,0.5-1.4,0.8c-2.1,1.4-4.8,3.4-7,5.3
		c-1.1,0.9-2,1.7-2.7,2.4c-4.2-10-6.5-20-7.6-30.8l4.1-1.4C261.6,251.2,267.1,258,272.3,261.5z M224.1,298.6
		c7.9,0,14.1,3.6,17.7,10.8c-4.5,9.5-8.5,20.3-9.8,30.5c-1.6,3.2-3.6,7.7-5.4,14.7c-3.3-5.7-14.3-17-26-17.1c-1,0-2,0.1-3,0.3
		c5.2-6.8,9.8-10.9,12.1-12.6l0.2-0.3c0.3-0.8,0.6-1.6,0.9-2.3c2,6.3,4.7,12.5,5.4,12.4c0.9-0.1-1.7-8.2-3.9-16.1
		c2.9-7,6.3-13.8,10-20.2C222.9,298.6,223.5,298.6,224.1,298.6z M223.3,423.9c-3.1-1.8-7.4-7.7-14.3-14.4
		c-7.4-7.3-17.8-15.6-33.3-21.2c4.3-22.5,13.1-38.7,20.8-49.2c1.3-0.4,2.7-0.5,4.1-0.5c11.8-0.1,23.8,13.2,25.6,17.7
		c-2.1,9.1-3.8,22.2-3.8,41.2C222.4,405.3,222.7,414,223.3,423.9z M208.3,410.3c7.3,7.1,11.5,13.2,15.2,14.9
		c0.3,5.2,0.8,10.7,1.3,16.5c0.2,0.1,0.5,0.2,0.7,0.3c0.1,0,0.3-0.1,0.4-0.1c-0.6-6-1-11.7-1.4-17c4.7-5.6,23.3-22.6,50.9-22.6
		c0.2,0,0.3,0,0.5,0c-0.1,3.9-0.5,7.3-1.2,9.5c-19.6,21.5-42.6,28.6-49.3,30.1c-14.5-5.7-32-13.1-49.8-48.9
		c-0.2-0.4-0.4-0.9-0.6-1.3c0.1-0.8,0.3-1.6,0.4-2.4C190.7,395,201,403.1,208.3,410.3z M275.4,401.2c-26.8,0-45.1,15.6-51,22.1
		c-0.6-9.7-0.9-18.2-0.9-25.8c0-19.1,1.7-32.1,3.8-41.1c2.6-3.4,9-5.4,16.5-5.4c9.8,0,21.2,3.3,27.6,10.4c0.7,4.7,1.4,9.2,2.1,12.7
		c1.3,6.5,2.4,16.9,2.4,25.7c0,0.5,0,1,0,1.5C275.8,401.2,275.6,401.2,275.4,401.2z M295.8,350.4L295.8,350.4
		c0.4-2.4,7.9-12.1,16.4-12c0.1,0,0.3,0,0.4,0c4.2,13.8,10,25.3,12.1,40.1c-7,2.3-16.1,11.3-19.6,17.5
		C303.6,381.9,299.1,364.7,295.8,350.4z M305.5,404.3c0-1.9-0.1-4-0.3-6.1c2.3-5.6,12.5-16.1,19.6-18.5c0.4,3,0.6,6.1,0.6,9.4
		c0,0.6,0,1.2,0,1.8c0,0,0,0,0,0.1c-7.7,10.5-14.6,17.8-20.9,22.9c0,0,0-0.1-0.1-0.1C305.2,410.9,305.5,407.8,305.5,404.3z
		 M328.7,392.4c-0.4-0.7-0.9-1.2-1.3-1.5c1.2-2.6,1.5-4.9,0.3-3.3c-0.8,1.1-1.5,2.1-2.3,3.2c0.4-0.5,0.7-1,1.1-1.5
		c0-0.1,0-0.2,0-0.2c0-3.6-0.3-7-0.7-10.2c0.5-1.9,3.7-8.7,6.1-11.8c0.5-0.6,1.3-1.5,2.2-2.4c0,0.7,0.2,1.6,0.7,2.2
		c0.7,1,7,10.3,13.3,10.9c-8-5-11-10.5-11.6-11.9l-0.2-1.9c0,0,3.9-3.5,6.6-9c-0.2,1.5-0.1,3.9-4.2,9.8c-0.3,1.4,5.1,9,10.9,9.7
		c-8.2-4.8-8.2-8-8.3-9.3c-0.1-1.3,2.2-3.9,3.4-12.2c0.1,1.7-1.1,16.9,5.2,19.2c0,0.2,0,0.4,0,0.6c0,2.3-0.2,4.4-0.5,6.4
		c0,0,0,0.1-0.1,0.1c-5,1.2-9.1,6.5-12.3,12.1c-2.5,4.5-4.4,9.2-5.3,12.1c-0.2,0.3-0.5,0.6-0.7,0.8
		C331,397.8,329.8,394.3,328.7,392.4z M340.8,326c-0.6,0.3-1.1,1.2-1.4,2.4c-2-4.3-3.9-7.7-5.4-9.6c4.4-7.7,13.6-18.2,22.1-19.6
		c2.8,3.1,10.5,12.7,12.8,27.2c-1.6,0.7-3.8,2.8-6.3,5.4c0-4.1-8.4-19.1-13.5-21c7.4,6.8,11.1,19.2,10.9,20.4
		c-0.2,1.2-4.5,2-8.7,10.4c-0.1-2.5,2.7-7.7,7.1-10.6c-0.7-2.3-6.5-13.6-12.6-17.2c3.2,3.6,9.9,14.9,9.8,16.4
		c-1.4,1.4-3.9,4.3-5.8,9.9C349.6,332.2,346.6,323.1,340.8,326z M362.1,332.4c-0.4,0.4-0.8,0.8-1.2,1.3c-3.2,3.5-6.1,7.3-7.1,9.1
		c-0.6,0.2-1.3,0.4-1.9,0.5C352.7,341.6,357.1,334.9,362.1,332.4z M369.6,323.9c-3-14.9-9.6-22.4-13-25.9c0-0.5-0.1-1.2-0.1-2.3
		c0-2.8,0.4-8.1,1.8-13.8c1.2-1.9,2.2-3.8,3-5.6c2.2-4.8,4.7-9.8,7.3-15.1c1.6,0.3,3.8,0.8,5.2,1.3c2.3,0.8,9.1,3.4,13.8,7
		c-5.7,4.4-9.6,15.6-12.5,27.2C372.6,307,370.9,317.6,369.6,323.9z M385.1,247.4c0,8.8,1.2,16.1,2.4,20.5c-4.8-3.4-11-5.6-13.5-6.6
		c-1.5-0.6-3.4-1.1-4.8-1.4c6-12.5,12.2-27.1,14.8-46.3c1.2-0.6,2.7-1.3,3.7-1.6c1.7-0.6,0,0,0,0c1.2-0.4,3.2-1,5.2-1.4
		C386.9,223.5,385.1,236.6,385.1,247.4z M394.1,210.5c0,0,0-0.1,0-0.2c1.3-0.2,2.6-0.4,3.6-0.4c0.6,0,1.1,0,1.5,0.1
		c-2.3,5.2-4.2,21.7-5.6,38.8c-0.7,8-1.2,16.1-1.6,23.1c-0.9-1-1.9-2-3.1-2.9c-1.3-4-2.8-11.9-2.8-21.7
		C386.2,236.6,388.1,223.4,394.1,210.5z M371.3,156.3c0.1,0.1,0.2,0.3,0.2,0.4c0.2,0.3,0.3,0.6,0.5,0.9c8.5,15,9.6,32,9,39.2
		c-0.5,5.5-1.1,10.6-1.9,15.5c-0.2,0-0.4,0-0.6,0c-1.6,0-3-0.3-4.4-0.8c-0.1-0.9-0.2-1.9-0.3-2.8c-0.5-3.8-1.1-6.5-1.8-5.4
		c-0.9,0.9-1.9,2.3-3.6,4c-0.9-1.1-1.7-2.3-2.4-3.6c-2.8-5.1-4.1-11.7-4.1-17.5c0-0.7,0-1.4,0.1-2.1c5.6-12.7,7.1-21.8,7.6-30.4
		C370.2,154.6,370.7,155.4,371.3,156.3z M361.5,182.5C361.4,182.5,361.4,182.5,361.5,182.5c-0.7,0.1-1.5,0.2-2.2,0.2
		c-11.1,0.1-32.6-14.4-35.4-25.3c1.8-11.5,3.6-22.6,4-29c20.4,3.7,33,13,40.7,23.8C368.2,160.9,366.9,169.9,361.5,182.5z
		 M326.8,128.3c-0.4,6.2-2.2,17.3-4,28.8l0,0c-6.8,11.2-22,18.4-33.3,18.3c-4,0-7.4-0.9-9.8-2.7c-1.9-10.3-2.4-18-2.4-23.3
		c0-2.9,0.2-5.1,0.4-6.6c15.9-15,35.9-16.7,48.4-14.7C326.3,128.2,326.6,128.3,326.8,128.3z M278.6,173L278.6,173
		c-0.5,4.1-4.2,13.1-13.3,20.3c-1-1.7-1.8-3.4-2.5-5.3c-2.2,2-4,5.6-5.4,10.3c-1.2,0.6-2.4,1.2-3.8,1.7c2.9-27.4,11.8-45,22.8-55.9
		c-0.1,1.4-0.2,3.2-0.2,5.5C276.2,154.9,276.8,162.6,278.6,173z M223.8,293.8c0.1-0.7,0.1-1.4,0.1-2.2c0-4.7-1.4-10.1-3.4-14.5
		c-1.8-4-4-7.2-6.4-8.3c0.1-0.1,0.1-0.2,0.2-0.2c4.8-4.3,9.8-7.6,14.9-9.8c6.7-2.8,14.1-8.5,20.2-15.1c0.1-0.2,0.3-0.3,0.4-0.5
		c0.5,4.9,1.4,9.9,2.7,15C247,265.1,234.6,274.9,223.8,293.8z M248.9,213.3c0,3.1-0.1,6.3-0.1,9.5c-0.8,0.8-2.3,1.5-4.2,2.3
		c-2.2,0.9-8.9,3.1-12.8,3.1c-0.3,0-0.6,0-0.9-0.1C237.4,221.3,243.8,216.3,248.9,213.3z M231.9,229.2c4.1,0,9.1-1.4,13.7-3.1
		c1.3-0.5,2.5-1.2,3.3-1.7c0,5.7,0.1,11.5,0.7,17.4c0,0,0,0,0-0.1c-0.3,0.3-0.6,0.7-1.1,1.2c-2.1,2.5-10,10.6-19.7,14.8
		c-4,1.7-8,4.2-11.8,7.2c10.1-14.7,11.8-25.7,11.8-30.9c0-1.4-0.1-2.4-0.2-3c0-0.1,0-0.2,0-0.2c0.5-0.6,1-1.1,1.6-1.7
		C230.6,229.2,231.2,229.2,231.9,229.2z M155.7,283.1c0-0.8,0.1-1.7,0.1-2.7c0-6-0.8-14.5-6.1-17.7c3.8-9.1,6.1-19,7.4-27.7
		c1.7,0.4,4.7,3.6,6.9,7.7c2.4,4.2,4.3,9.3,4.5,13c0.3-0.9,0.5-1.8,0.8-2.7c-0.7-3.5-2.3-7.4-4.3-10.9c-2.5-4.2-5.2-7.6-7.8-8.2
		c1.1-7.5,1.4-14,1.5-17.9c0-0.7,0-1.3,0-1.8c0.3,0.3,0.6,0.7,1,1v-0.1c4.1,4.7,11.4,12.5,12.7,21.7c0,1.4-0.2,3.8-0.9,7.3
		c-0.3,1.6-0.7,3.4-1.2,5.2c-0.6,2.5-1.4,5.3-2.4,8.5c-1.9,6.3-5.9,14-12.2,25.9C155.7,283.4,155.8,283.1,155.7,283.1z M140.3,303.9
		l-2.9,7.8c-0.5-0.4-1-0.8-1.6-1c1.3-2.1,2.5-4.5,2.6-7c0-1,0.1-5.1,0.1-8.6L140.3,303.9z M138.6,289.4c0.1,0,0.1,0.1,0.2,0.1h-0.1
		L138.6,289.4L138.6,289.4z M143.7,310c-0.2,1.1-0.3,1.7-0.2,2.1c-0.7,2.4-1.3,4.9-1.8,7.5c-0.4-1.8-1.1-3.5-1.9-4.9
		c1-2.9,3.2-9.4,2.8-10.6c-0.4-1.4-2.9-12.1-3.4-14.2c3.7,2.8,4.7,9,4.7,14.5c0,1.9-0.1,3.8-0.3,5.3
		C143.6,309.8,143.6,309.9,143.7,310z M140.2,339.5c-0.3-0.9-0.8-1.9-1.3-3c-1.5-3.1-2.3-4.8-3.2-6.9c-1.2-2.6-2.5-5.5-3.8-8.5
		c0.1-1.6,0.1-3.1,0.2-4.1c0.1-1.1,1.5-3.1,2.9-5.3c0.6,0.2,1.2,0.6,1.7,1.2l-1.9,5c-0.7,1.2,3.6-0.8,4.1-1.7c1,2.1,1.7,4.6,1.7,7.1
		c0,0.1,0,0.3,0,0.4C140.1,328.7,139.8,334.1,140.2,339.5z M118.4,210.6c0.6-0.1,1.2-0.1,1.9-0.1c4.6,0,11.1,1.8,11.9,6.1
		c-0.4,7.7-1.3,16.5-2.5,25.1c-1.3-2.3-3-4.1-5.1-5.5c0,0.5,0,1,0.1,1.4c2.1,1.6,3.6,3.4,4.7,6c-1.6,10.7-3.8,21-6.7,28.8
		c-0.1-0.5-0.1-1-0.2-1.4c1.4-12.9,4.1-29.4,0.4-46.4c-3.7-17.3-13.6-30.1-13.6-30.1c3.2-0.1,13.1,0.4,23.1,3.4
		c0.1,1.8,0.2,3.7,0.2,6.6c0,2.8-0.1,6-0.2,9.5c-2.4-3.6-8-4.7-12.1-4.8c-0.9,0-1.6,0.1-2.3,0.2
		C118.1,209.8,118.2,210.2,118.4,210.6z M122.2,285.4c2,5.7,5.4,19.8,7.9,21c-1.3-4.2-2.5-8.9-3.6-13.6c3.4,2.6,8,9.1,7.9,16
		c0,0.7,0,1.4-0.1,2c-1.4,2.3-3,4.2-3.2,5.9c-0.1,0.5-0.1,1.1-0.1,1.8c-4-9.8-7.9-21.6-8.9-33.3
		C122.1,285.3,122.2,285.4,122.2,285.4z M137.3,303.6c-0.1,1.7-0.8,3.5-1.7,5.1c-0.1-8-5.4-15.3-9.4-17.5c-1.3-6-2.4-11.8-3.1-16.5
		c0.5-1.2,1-2.5,1.4-3.9c3.6,1.4,9.7,5.6,12.5,17c0,0.4,0.1,0.7,0.1,0.7c0,0.1,0.1,0.1,0.1,0.2c0.1,0.3,0.1,0.6,0.2,0.9
		C137.4,290.6,137.3,301.9,137.3,303.6z M137.5,285c-3.1-10-9-13.9-12.6-15.3c2.3-7.3,4.2-16.1,5.6-25.3c0.9-0.2,1.9-0.4,3-0.4
		c6.4,0,15,4.6,15.1,18.6c-1.4,3.2-2.9,6.3-4.7,9.1C139.8,278.2,138.1,282.4,137.5,285z M144.2,247.2c-3.2-3.1-7.3-4.4-10.7-4.4
		c-1,0-1.9,0.1-2.8,0.3c1.3-9,2.2-18.2,2.7-26.3c0.3-0.1,0.7-0.1,1.3-0.1c4.9,0,17.3,3.3,21.5,17.6c-1.2,8-3.2,17.2-6.5,25.7
		C149.1,254.1,147,250,144.2,247.2z M133.5,198.3c3.7,1.2,7.4,2.8,10.8,4.8c5.4,3.2,9.8,6.7,13.3,10c0,0.1,0,0.2,0,0.2
		c0.1,0.6,0.1,1.5,0.1,2.7c0,3.5-0.3,9.2-1.2,15.9c-5-13-16.8-16.2-21.8-16.2c-0.5,0-0.8,0-1.2,0.1c0.2-4,0.3-7.8,0.3-11.1
		C133.7,201.7,133.6,200.1,133.5,198.3z M145,306.7c0-0.8,0.1-1.5,0.1-2.3c0-6.2-1.2-13.8-6.8-16.4c0-0.1-0.1-0.2-0.1-0.4
		c0-1.4,0.7-5.7,6.7-15.3c1.7-2.7,3.1-5.5,4.4-8.5c4.4,2.7,5.5,10.8,5.4,16.6c0,1.3,0,3.8-0.1,5.5c-1.1,2.1-2.3,4.3-3.5,6.7
		c-1.2,2.5-3.1,6.5-5,11.5C145.7,305,145.3,305.9,145,306.7z M173.9,341.9c0.6,6,1.5,20.6,1.5,32.2c0,6.2-0.3,11.6-1,14.4
		c0,0.2,0,0.3,0.1,0.4c-0.1,0.3-0.1,0.7-0.2,1.1C166.6,372.2,168.6,355.8,173.9,341.9z M256.5,657.9L256.5,657.9
		c7.5-3.4,13.4-7.2,17.9-10.9c-0.2,0.1-0.3,0.3-0.5,0.4c1.9,4.8,5.4,14,10.3,24.2c-0.1,0-0.2,0-0.2,0c-2.9,0.1-6.9,3-10.3,6.5
		c-2.9,3-5.4,6.3-6.1,8.7c-7.9-12.2-12.8-22.5-15.1-27.7c-0.4,0.1-0.7,0.2-1.1,0.3c2.2,5.1,7,15.1,14.6,27c-2.1-0.9-4.6-1.3-7.1-1.3
		c-3.3,0-6.6,0.6-9.4,1.6c0.2,0.3,0.4,0.5,0.6,0.8c-6-8.2-12.3-15.8-18.4-25.3C240.9,662.3,249.3,660.5,256.5,657.9z M357.5,753.6
		c-4.8-2.5-11.4-8-18.5-14.9c-1.1-1.1-2.3-2.2-3.4-3.3c-0.3-1.1-0.4-2.4-0.4-3.8c0-6.4,3.4-15.1,14.9-21c7.5,3.5,13.9,7.1,15.5,10.6
		c0.1-0.2,0.2-0.5,0.3-0.7c-1.6,3.9-2.2,7.4-2.4,10.4c-0.2,0-0.4,0.1-0.5,0.2c-3.6,4.8-5.7,13.7-5.7,19.5
		C357.2,751.7,357.3,752.8,357.5,753.6z M335.2,737.2c0.1,0,0.3,0,0.4-0.1c0.9,0.9,1.7,1.7,2.6,2.5c7.2,6.9,13.7,12.5,18.8,15.1
		c-12.4,3.2-21.4,10.4-24.4,14.2c-0.6-0.4-1.2-0.8-1.9-1.4c-1.3-1-7.1-8.7-14.1-18.1c0.1-1.8,2.1-4.9,5.2-7.4
		c3.2-2.7,7.6-4.8,12.2-4.8C334.4,737.1,334.8,737.1,335.2,737.2z M303.4,770.8c-1.2-2-3.2-5.8-7.5-12.6c2-3.2,6.1-8.7,14.9-8.7
		c1.5,0,3.2,0.2,5,0.5c6.6,8.8,12,16.1,13.9,17.9c-1.7-0.5-3.6-0.6-5.5-0.7c-7.7,0-16,3.1-18.7,4.8
		C304.8,771.7,304.1,771.3,303.4,770.8z M304.9,773L304.9,773C304.9,773,304.8,773,304.9,773C304.8,773,304.9,773,304.9,773
		L304.9,773z M295.2,757.2c-5.1-7.8-13.2-19.4-26.7-36.3c1.7-2.1,8.3-6.5,15.2-6.5c1.5,0,2.9,0.2,4.4,0.6
		c6.1,6.6,15.8,19.2,24.2,30.5c0.8,1.1,1.6,2.2,2.4,3.2c-1.4-0.2-2.8-0.3-4-0.3C301.9,748.4,297.3,753.8,295.2,757.2z M333.9,736
		c-4.9,0-9.5,2.3-12.9,5.1c-2.7,2.3-4.7,4.9-5.4,7.1c-0.8-1.1-1.6-2.1-2.4-3.2c-8.4-11.1-17.8-23.6-24-30.3l0,0c0-0.2,0-0.5,0-0.8
		c0-4.9,3-11.9,12.2-12.7h0.1c2.1,2.7,4.2,5.3,6.5,7.6c8.2,8.5,17.7,18.6,26.5,27.3C334.3,736,334.1,736,333.9,736z M288.1,713.3
		c-7.9-8.5-14.4-17.1-19.6-25.1v-0.1V688c-0.1-1.7,2.6-5.8,5.9-9.1c3.3-3.4,7.3-6.2,9.5-6.2c0.3,0,0.6,0.1,0.8,0.2l0,0
		c4.3,9,9.7,18.7,15.9,27.1C291.6,701.1,288.3,708.2,288.1,713.3z M258.9,686.4c3.2,0,6.3,0.6,8.4,2.1c5.2,7.9,11.7,16.5,19.5,25.1
		c-1-0.2-2-0.3-3-0.3c-7.2,0-13.7,4.3-15.9,6.7c-0.2-0.2-0.3-0.4-0.5-0.6c0,0,0,0,0,0.1c-1.5-5-3.4-9.9-6-14.5
		c-3.6-6.4-7.4-11.9-11.2-17.2C252.8,686.9,255.9,686.4,258.9,686.4z M268.2,722.2c11.5,14.4,19,24.9,24,32.5
		c-3.6-2.9-9.3-6.7-19.4-10.7C271.6,738.4,270.4,730.5,268.2,722.2L268.2,722.2z M294.4,758c0.1,0.1,0.1,0.2,0.2,0.3
		c3.5,5.3,5.4,8.8,6.7,11.2c-5.2-3.4-11-7.2-18.5-7.6c-3.2-3.4-5.6-6.7-8.1-11.6c-0.6-1.1-1.1-2.8-1.5-5
		C285.9,750.5,291.1,755.2,294.4,758z M296,774.5c-0.1,0-0.2-0.1-0.3-0.1c0,0-0.1,0-0.1-0.1c-0.1-0.1-0.2-0.1-0.3-0.2
		c0,0-0.1,0-0.1-0.1c-1.5-1.1-4.4-4.2-7.4-7.2c0,0,0,0,0-0.1c-1-1-2-2-3-2.9c-0.3-0.3-0.6-0.5-0.8-0.8c7.3,0.8,13.1,5.1,18.5,8.5
		c0.5,0.7,0.9,1.2,1.3,1.6c0,0,0,0,0.1,0c-0.9,0.2-1.7,0.6-2.6,0.9c-0.3,0.1-0.7,0.3-1.1,0.4c-0.7,0.2-1.5,0.4-2.3,0.4
		C297.3,774.8,296.6,774.7,296,774.5L296,774.5z M358.8,754.3c-0.3-0.8-0.5-2.1-0.5-3.7c0-5.3,2-13.5,5.1-18.1l0,0
		c0.1,5.5,2.2,9.2,3.8,10.3c0.9,4.7-2,9.1-5.3,12.3C361,755.1,360,754.8,358.8,754.3z M349.8,694.9c0.5,0,0.9,0,1.3,0.1
		C350.7,695,350.3,694.9,349.8,694.9z M347.1,703.4c0,1.9,0.3,3.6,1,5.1c-0.2-0.1-0.4-0.2-0.6-0.3c-8.2-3.7-17-7.4-21.6-10.9
		c10.9-2.4,19.1-2.6,23.9-2.4C348,697.5,347.1,700.6,347.1,703.4z M324.5,697.6c4.7,4,13.9,7.8,22.5,11.7c0.5,0.2,1.1,0.5,1.6,0.7
		c-11.3,6.1-14.8,14.9-14.8,21.6c0,0.8,0.1,1.6,0.2,2.4c-8.5-8.4-17.4-18-25.3-26.1c-2.4-2.4-4.6-5.1-6.8-8c0.1-1.3,0.3-3.1,0.8-4.8
		c0.5-1.6,1.3-2.9,2.4-3.5l0,0c4.9,5.3,11.2,8.1,17.6,6.5C323.4,697.9,324,697.7,324.5,697.6z M334,400.3c1-2.5,2.4-5.6,4-8.5
		c2.7-4.9,6.3-9.5,10.2-11.1c-5.6,7.6-10.9,15.4-14,19.5C334.1,400.2,334,400.2,334,400.3z M378.1,489.4c0,0,3.1,0.9,8.2,2.3
		c0.1,0.4,0.1,0.7,0.1,1.2c0,2.6-1.4,6.8-7.2,11.5c0,0,0,0,0,0.1c-1.5,0.6-2.9,1.5-4.3,2.8C372.8,499,376.5,492,378.1,489.4z
		 M387.5,492.1c2.8,0.8,6.2,1.7,9.9,2.8c4.5,1.3,7.6,2.4,10.2,3.8c0.1,0.8,0.2,1.8,0.2,2.8c0,3.4-1,7.5-3.8,8.7
		c-2.6-1.7-5.8-3.5-9.2-4.9c2.1-1.7,4.9-5.8,5-9.3c0-0.1,0-0.2,0-0.3c-0.4-0.1-0.8-0.2-1.2-0.4c0,0.2,0.1,0.4,0.1,0.6
		c0.1,3.3-3.7,8.2-5.1,8.9c-2.6-0.9-5.4-1.6-8.1-1.6c-1.2,0-2.4,0.1-3.6,0.4c4.4-4.2,5.7-8,5.7-10.7
		C387.5,492.7,387.5,492.4,387.5,492.1z M408.8,499.4c1.6,0.9,3.2,2,5,3.2c0.3,1.3,0.5,3.1,0.5,4.8c0,2.7-0.5,5.5-1.3,6.5
		c-1,0.1-1.9,0.2-2.5,0.3c-0.1,0.1-1.3-0.6-2.8-1.6c-0.7-0.5-1.6-1.1-2.5-1.7c2.9-1.8,3.8-6,3.8-9.4
		C409,500.8,408.9,500,408.8,499.4z M415.1,503.5c1,0.7,2.1,1.5,3.4,2.4c-1,0.7-1.6,1.4-1.3,2.9c0.1,0.6,0.7,2.6,1.6,5.3l0,0
		c-1.3-0.2-2.6-0.3-3.8-0.3c-0.2,0-0.4,0-0.7,0c0.8-1.6,1.1-4,1.1-6.4C415.4,506.1,415.3,504.7,415.1,503.5z M478.4,563.8
		c-2.6,4.5-3.2,11.8-3.2,18.4c0,3.7,0.2,7.2,0.5,9.8c-3.5-5.1-7.4-10.4-11.2-15.5c-5.5-7.5-10.9-14.7-14.9-20.2
		c-0.6-0.8-1.1-1.6-1.7-2.3l0,0c0-0.7,0.5-1.9,1.4-2.8c0.8-0.9,2-1.6,2.9-1.5c0.1,0,0.2,0,0.4,0c0.1,0,0.3,0,0.4-0.1
		c1.8,0.3,3.7,0.6,5.7,0.9c-0.4-0.1-0.8-0.2-1.2-0.3c0.8,0.2,1.6,0.3,2.5,0.4c5.4,1.2,10.2,1.5,13.9,1.7c2.2,2.9,4.2,6.2,6,9.5
		c-0.3,0.3-0.5,0.6-0.7,0.9c-4.8-4.7-10.4-8.8-14.4-11.2c-1-0.1-2-0.3-3.1-0.5C465.2,553.1,472.5,558,478.4,563.8z M421.3,533.5
		c0,0.4-0.1,0.8-0.1,1.4c0,2.4,0.4,6.6,1.6,12.6c-6.4-11.7-16.4-17.9-20.8-18.1c0.1-0.7,0.1-1.4,0.1-2.2c0-0.1,0-0.2,0-0.2
		c0.7,0.6,1.1,1.1,1.1,1.2c0.1,0.2,0.2,0.3,0.4,0.3C406.4,529,411.6,527.9,421.3,533.5z M409.8,523.9c4.3,2.6,7.5,5.2,10.4,7.7
		c-4-2.1-7.3-3.1-9.9-3.6C410.2,526.5,410,525.1,409.8,523.9z M445.8,546.2c-6.8-2-11.3-4.7-15.2-7.8c-0.8-0.6-1.5-1.2-2.2-1.8
		c-0.2-1.2-0.6-3.9-1.8-6.7c5.7,8.1,12.6,13.2,19.7,16.5C446.1,546.4,445.9,546.3,445.8,546.2z M450.3,549.1
		c-1.5,0.8-2.7,2.2-3.2,3.7c-1.7-2.4-2.9-4.3-3.7-5.6C445.5,547.9,447.7,548.6,450.3,549.1z M429.6,539.8c3.3,2.6,7.1,5,12.3,6.9
		c0.6,1.3,2.1,3.6,4.2,6.6c-1.6-0.7-3.5-1-5.5-1c-3.3,0-6.8,0.7-9.6,1.8c-2,0.8-3.6,1.8-4.5,3c-3.2-11.4-4-18.8-4-22.2
		c0-0.3,0-0.5,0-0.7c0.7,0.4,1.5,0.9,2.2,1.4C426.3,537,427.8,538.4,429.6,539.8z M404.2,527.4c-0.3-0.5-0.9-1-1.7-1.7
		c-0.1-0.1-0.2-0.2-0.4-0.3c0-0.1,0-0.2,0-0.3c0.1-0.7,0.2-1.4,0.2-2.2c0-4.2-1.8-10.4-6.6-16.1c2,0.9,3.8,1.9,5.5,2.9
		c0.8,0.5,1.6,1,2.3,1.4l0,0c1.8,2,4.3,4.9,5.6,16.6C406.9,527.5,405.2,527.6,404.2,527.4z M401.2,522.9c0,0.6-0.1,1.1-0.1,1.6
		c-3-2.5-7.5-5.8-10.3-7.9c-2.9-4.7-6.3-9.1-9.9-11.6c1.5-0.5,3.1-0.7,4.6-0.7c2.6,0,5.2,0.6,7.8,1.5
		C399.1,511.7,401.2,518.6,401.2,522.9z M397.8,536.4L397.8,536.4c0,0.2,0.1,0.3,0.1,0.4c-0.6,0.6-1.2,1-1.7,1.3
		c-9.5-9.5-18.2-20.4-21-29.7c1.4-1.3,2.9-2.3,4.4-3C388.7,511.1,397.9,532,397.8,536.4z M392.3,519.2c1.9,1.4,4,3,5.9,4.5
		c1,0.8,2,1.6,2.8,2.3c0,0.4,0,0.8,0,1.2c0,0.9-0.1,1.7-0.1,2.5c-0.1,0.1-0.1,0.3-0.1,0.4v0.1c-0.3,2.5-1.1,4.3-2,5.5
		C398.5,532.6,396,525.8,392.3,519.2z M401.9,530.6c3.9,0,15.7,7.1,21.6,20.8c0.1,0.1,0.2,0.2,0.3,0.3c1.2,5,2.9,10.9,5.3,17.8
		c1.2,3.5,2.2,7.2,3.1,10.9c-11.2-25.9-27.2-40-32.6-43.7C400.6,535.3,401.5,533.3,401.9,530.6z M430.2,569
		c-1.3-3.7-2.4-7.1-3.3-10.3l0,0l0,0c0-1,1.8-2.5,4.4-3.6c2.6-1,6.1-1.7,9.2-1.7c2.8,0,5.3,0.6,6.7,1.8c0.1,0.1,0.2,0.1,0.3,0.1
		c0.4,0.5,0.8,1.1,1.2,1.6c6.9,9.6,17.7,23.8,26.4,36.2c-7.4-3.1-14.9-4.2-21.3-4.2c-4.8,0-9.1,0.6-12.3,1.4
		c-2.6,0.7-4.4,1.4-5.5,2.1c-0.2-0.8-0.4-1.7-0.5-2.6C434.1,583.5,432.6,575.9,430.2,569z M426.8,525.3c-3.3-5.5-5.9-11.7-7.9-18.3
		c14.3,9.6,27.5,22.4,47.3,27.9C450.5,537.4,435.1,532.1,426.8,525.3z M419.3,515.4c1,2.8,2.4,6.1,4.2,9.4c-0.6-0.7-1.3-1.4-2.1-2
		c-3.1-2.4-4-4.1-4.7-5.5c-0.4-0.9-0.8-1.8-1.7-2.4C416.4,515,417.9,515.1,419.3,515.4z M415.7,517.9c0.7,1.4,1.8,3.4,5,5.9
		c3,2.4,4.7,5.8,5.6,8.6c0.4,1.2,0.6,2.2,0.8,3.1c-4.7-4.2-9.3-8.9-17.2-13.5c-0.1-0.1-0.3-0.1-0.4-0.1c-0.8-4.3-1.9-6.9-3-8.7
		c0.2,0.1,0.4,0.3,0.6,0.4c1.6,1,2.5,1.7,3.4,1.8h0.1c0.6-0.1,1.4-0.2,2.3-0.3c0,0,0,0,0.1,0.1C414.7,515.8,414.9,516.4,415.7,517.9
		z M397.8,539.8c-0.3-0.2-0.5-0.5-0.8-0.7c0.6-0.4,1.2-0.8,1.8-1.5c5.5,3.7,23.7,19.6,34.8,49.4c0.2,1.1,0.4,2.1,0.6,3.1
		c0.6,3,1.2,5.7,1.7,8c-4.7-5.1-7.9-10-8.7-13.6C420.9,560.8,414.9,556.6,397.8,539.8z M479.8,563.7c0.2-0.2,0.3-0.5,0.5-0.7
		c0.5,0.9,0.9,1.8,1.3,2.7C481.1,565,480.5,564.3,479.8,563.7z M481.9,566c0.6,1.2,1.2,2.5,1.7,3.7C483,568.5,482.5,567.3,481.9,566
		z M373.1,345.5c0.5-2.8,0.7-4.8,0.7-6.2c0-1.2-0.1-2-0.4-2.6c0.7-0.7,1.3-1.5,1.9-2.2C374.8,338.8,374.1,342.4,373.1,345.5z
		 M371,333.9c-0.2-2.5-0.5-4.8-0.8-7c1.3-5.6,3.2-17.9,6.1-29.8c2.9-11.7,7-23,12.3-26.8c1.4,1.1,2.5,2.2,3.3,3.3
		c0,0.1,0.1,0.1,0.2,0.1c-0.4,7.5-0.6,13.7-0.6,17.2C383.7,320.1,375.7,329,371,333.9z M392.7,286.1c0.2-8.5,1-23,2.2-37.1
		c1.4-17,3.4-33.7,5.5-38.5c2.3-1,5.5-5.6,8.6-11.1c1.2-2.2,2.4-4.6,3.4-6.9c-1.8,18-8.4,27.6-12.5,35.8c-1.5,25.5-4,44.2-6.4,54.6
		C393.2,284,392.9,285.1,392.7,286.1z M412.7,188.6c-1.1,3.3-2.8,7-4.7,10.3c-2.7,5-5.9,9.2-7.6,10.4c0,0,0,0-0.1,0
		c-0.7-0.3-1.6-0.4-2.5-0.4c-1.4,0-2.9,0.2-4.5,0.5c-3.3-7.1-9.9-44.3-6-75.4c1.3-0.3,2.6-0.6,4-0.7c-0.5-0.3-1.1-0.6-1.6-1
		c-1.1,0.1-2.1,0.4-3.1,0.7c-6.6-0.8-25.7,0-44.1-8.4c-0.7,0.1-1.4,0.2-2.1,0.3c17.1,8.3,35.1,8.5,43.4,9
		c-6.9,2.7-12.1,7.8-13.9,10.1l-1,1.3l0.1,0.2c-13.1-14.9-30.3-18.4-34.9-19.6c47.6-8.5,73.5,12.4,77.1,36.4
		C412.8,172.6,413.1,181.2,412.7,188.6z M591,63.4c1.1,2,2.2,5.6,1.9,10.8c-0.2,2.5-0.7,4.8-1.4,6.8c-1.2,0.8-3,1.2-4.8,1.2
		s-3.5-0.3-4.8-0.9c-1.2-0.5-1.9-1.2-2-1.8c0.1-1.6,0.2-2.9,0.1-3.1c-0.1-0.7-1-1.9,0.6-1.7c4.5,0.6,4.3,2.7,5.2,1.6
		c0.4-0.4,0.2-0.9-0.1-1.4c1.9-0.4,3.3-1.9,4.1-3.6c1-2,1.4-4.5,1.4-6.5C591.1,64.2,591,63.8,591,63.4z M582.2,90.7
		c-3.1-0.7-3.3-1.1-3.1-2.3c0.1-0.6,0.4-4.1,0.6-7.2l0,0c0.5,0.4,1,0.7,1.6,1c1.5,0.6,3.4,1,5.3,1c1.5,0,2.9-0.2,4.2-0.7
		c-1.2,2.8-2.6,5-3.2,6.5C586.3,91.7,585.3,91.5,582.2,90.7z M588.7,70.7c-0.9,1.8-2.1,3-4,3.1c-0.7-0.5-1.4-1-2-1.3
		c-0.8-0.4-2.2-0.5-3.7-0.6c1.8-1.9,2.7-5.3,2.7-8.4c0-1.5-0.2-3-0.8-4.1c4.4,2,7.2,2.5,8.5,2.5l0,0c0,0.1,0,0.1,0.1,0.2
		c0.2,0.2,0.4,1.3,0.4,2.7C589.9,66.5,589.6,68.9,588.7,70.7z M580.6,63.5c0,3.5-1.5,7.5-3.4,8.4l0,0c-0.6,0-1.2,0.1-1.6,0.1
		c-1.1,0.2-2.3,0.2-3.2,1c-0.5-4.4-1.3-8.5-2.8-12c0.7-1.4,1-3,1-4.6c0-1.2-0.2-2.3-0.5-3.3c3.3,2.3,6.1,3.9,8.6,5.2
		c0,0.1,0.1,0.3,0.2,0.4C580,59.3,580.6,61.3,580.6,63.5z M566.5,50.5c0.7,0.5,1.4,1,2,1.5c0.6,1.2,0.9,2.8,0.9,4.5
		c0,1.1-0.2,2.2-0.5,3.2c-0.4-0.7-0.8-1.5-1.3-2.2c-2.6-3.7-4.3-7-5.6-11.5C563.2,47.6,564.7,49.1,566.5,50.5z M565.8,58.8
		c0.5,0.8,1,1.6,1.5,2.6c-1.7-1.7-3.5-3.1-5.4-4.2c0,0,0,0-0.1-0.1c-0.1,0-0.1-0.1-0.2-0.1c-4.2-2.5-8.5-3.4-12.3-3.4
		c-3.4,0-6.5,0.8-8.7,1.9c-2,1-3.3,2.3-3.6,3.9c0.3,0.3,0.7,0.6,1.1,1c-0.4-0.4-0.8-0.7-1.1-1c-0.1-0.1-0.2-0.2-0.3-0.3
		c-0.2-0.2-0.4-0.4-0.8-0.5c-0.2-0.8-0.2-1.7-0.2-2.7c0-5.6,2.6-13.8,5.1-16.4c4.6-2.1,8.2-3.5,11.2-3.5c2.2,0,4.2,0.8,6.4,2.8
		c0,0.1-0.1,0.3,0,0.4C559.7,48,561.9,53.2,565.8,58.8z M538.1,60.3L538.1,60.3L538.1,60.3c0-0.2-0.1-0.3-0.1-0.5c0-1,1-2.4,3.1-3.4
		c2-1,4.9-1.8,8.2-1.8c3.5,0,7.5,0.9,11.3,3c-4.6,6.4-13,9.2-18,9.2c-0.5,0-1,0-1.4-0.1c-0.1-0.9-0.3-1.7-0.4-2.3
		C540.5,62.6,539.2,61.3,538.1,60.3z M538.5,64c-2.1-0.2-2.7-1.8-4.2-2.5c1.1-1.1,2.3,1.5,2.8-0.7C537.9,61.5,538.2,62.8,538.5,64z
		 M513.8,43.6c0.9,1.9,2.1,3.5,3.4,4.3c-8.3,3.5-16.7,7.4-21.6,10.8l0,0c-1.2-5.2-2.9-9.9-4.7-13.8c-1-2.1-2.2-4.1-3.4-5.9
		c8.5-1.3,16.7-3.5,24.4-5.9c-0.1,0.6-0.2,1.3-0.2,1.9C511.8,37.8,512.6,41,513.8,43.6z M514.9,43.1c-1.2-2.5-2-5.6-2-8.1
		c0-0.9,0.1-1.7,0.3-2.3c8.7-2.7,16.7-5.6,23.7-7.4c-0.7,1.2-1,2.6-1,4.2c0,3.2,1.2,6.8,3.6,9.2c-4.4,1.9-12.4,5-20.7,8.5
		C517.5,47.1,516,45.5,514.9,43.1z M558.3,37.2c-2-1.7-4.1-2.4-6.3-2.4c-3.3,0-6.9,1.5-11.4,3.5c-2.3-2-3.6-5.7-3.6-8.7
		c0-2.1,0.6-3.8,1.7-4.7c3.8-0.9,7.3-1.5,10.4-1.5c1,0,2,0.1,2.9,0.2c6.2,5.2,5.4,7.3,5.9,11.1c0.1,0.9,0.3,1.9,0.6,2.9
		C558.4,37.4,558.4,37.3,558.3,37.2z M550.3,22.3c-0.4,0-0.8,0-1.3,0c-3,0-6.4,0.5-10.1,1.4l-0.1-0.1c-1.8-0.3-3.2-2.1-3.2-3.6
		c0-0.6,0.2-1.1,0.5-1.5c5.2-0.8,7.9-0.7,9.4,0.4C547.5,20.2,549,21.3,550.3,22.3z M534.8,18.8c-0.2,0.4-0.3,0.8-0.3,1.3
		c0,1.6,1,3.2,2.5,4.1c-7.1,1.8-15.2,4.7-23.9,7.4c-0.1-0.1-0.2-0.1-0.3-0.1c-0.3,0-0.5,0-0.8,0c-3.6,0-6.8-1.4-9.1-3.2
		c-2.1-1.5-3.4-3.4-3.6-4.4c9.9-0.6,18.5-2.1,28.7-4C530.7,19.4,532.9,19.1,534.8,18.8z M497.4,24c0.3,0,0.6,0,0.9-0.1
		c0.2,1.6,1.7,3.5,4,5.2c2,1.6,4.8,2.9,7.9,3.3c-7.4,2.3-15.3,4.3-23.3,5.5c-6-8.1-13.9-12.2-17.4-13.5
		C472.8,24.2,477.4,25,497.4,24z M541.2,66.8c0.1,0.4,0.1,0.7,0.2,1.1c0.4,0,0.8,0.1,1.2,0.1c5.4,0,14.1-2.9,19-9.7
		c2.3,1.5,4.6,3.4,6.8,6c0.9,2.9,1.5,6.2,1.8,9.7c-1.3,1.9-4.5,4-12.4,6.2c-2.7,0.7-4.7,1-6.3,1c-4.4,0-5.4-2.2-7.6-4.7
		c-0.1-0.1-0.3-0.2-0.4-0.2C542.3,73.1,541.6,69.4,541.2,66.8z M545.7,80.2c-0.8-1.1-1.5-2.4-2.1-3.9
		C544.2,77.8,544.9,79.1,545.7,80.2z M545.7,80.2c1.3,1.2,3,2.1,5.8,2.1c0,0,0,0,0.1,0c1.7,0,3.8-0.3,6.6-1.1
		c6.8-1.9,10.4-3.8,12.2-5.7c0.1,1.6,0.3,3.3,0.4,5c0,0.2,0.1,0.5,0.3,0.6c0.2,3.7,0.7,8.1,2.1,11.1c-0.1,1.7-1.3,3.3-3,4.5
		c-1.8,1.3-4.1,2-6.1,2c-0.7,0-1.3-0.1-1.8-0.3l0,0c-2.3-5.9-12-13.7-15.7-17.4C546.2,80.8,546,80.5,545.7,80.2z M562.6,99.8
		c0.5,0.1,0.9,0.2,1.4,0.2c3.8,0,8.6-2.5,9.9-6.2c0.3,0.4,0.5,0.7,0.8,0.9c4.8,4.1,6.6,8.7,7.6,11c-0.5,4-4.7,7.8-10.8,8.2
		c-6.8-4.4-8.5-9.4-8.8-13.5C562.7,100.2,562.6,100,562.6,99.8z"/>
</g>
</svg>
