<?xml version="1.0" standalone="no"?>
<!DOCTYPE svg PUBLIC "-//W3C//DTD SVG 20010904//EN"
 "http://www.w3.org/TR/2001/REC-SVG-20010904/DTD/svg10.dtd">
<svg version="1.0" xmlns="http://www.w3.org/2000/svg"
 width="1290.000000pt" height="1499.000000pt" viewBox="0 0 1290.000000 1499.000000"
 preserveAspectRatio="xMidYMid meet">
<metadata>
Created by potrace 1.12, written by Peter Selinger 2001-2015
</metadata>
<g transform="translate(0.000000,1499.000000) scale(0.100000,-0.100000)"
fill="#000000" stroke="none">
<path d="M1816 14838 c-255 -22 -437 -122 -600 -332 -74 -95 -126 -183 -126
-215 0 -12 -7 -38 -16 -59 -31 -74 -46 -196 -34 -284 28 -202 156 -421 313
-533 l56 -40 3 -139 3 -139 28 -21 c39 -29 228 -38 257 -11 20 18 40 94 40
153 0 21 6 44 13 51 10 11 9 13 -3 9 -9 -3 -18 -30 -26 -84 -18 -129 -31 -140
-152 -132 -78 6 -129 29 -142 64 -6 14 -7 68 -4 123 6 79 4 102 -10 129 -9 18
-20 32 -25 32 -17 0 -134 116 -175 174 -154 215 -195 451 -116 671 53 148 83
195 194 302 205 199 357 265 611 265 151 0 266 -31 439 -119 97 -49 143 -78
178 -115 25 -27 49 -44 52 -39 10 15 -77 95 -152 139 -39 23 -74 42 -78 42 -3
0 -32 13 -63 28 -76 39 -191 69 -331 86 -14 2 -74 -1 -134 -6z"/>
<path d="M7335 14835 c-110 -12 -206 -35 -229 -56 -6 -5 -19 -9 -30 -9 -35 0
-173 -100 -252 -182 -84 -88 -194 -250 -194 -285 0 -12 -9 -46 -19 -75 -34
-95 -44 -157 -38 -242 15 -214 139 -436 315 -568 77 -58 76 -39 -2 22 -190
150 -320 453 -287 670 11 71 59 217 93 283 31 62 151 190 240 258 162 122 306
171 508 171 178 1 274 -30 559 -181 35 -18 81 -62 81 -77 0 -14 27 -27 34 -15
8 12 -63 80 -122 118 -125 80 -278 141 -412 163 -110 18 -121 18 -245 5z"/>
<path d="M2660 14417 c0 -4 11 -30 25 -57 57 -113 72 -300 36 -443 -28 -106
-90 -230 -156 -310 -30 -37 -60 -78 -65 -91 -5 -14 -6 -80 -3 -149 7 -163 0
-178 -97 -207 -39 -12 -92 -24 -119 -27 -44 -5 -49 -4 -54 18 -4 13 -7 50 -7
81 0 31 -5 69 -10 83 -9 23 -14 26 -38 20 -45 -11 -49 -21 -54 -120 -2 -52 -8
-99 -13 -104 -15 -15 -144 -33 -206 -29 l-54 3 -2 65 c-5 107 -11 130 -36 130
-20 -1 -20 -2 -4 -11 14 -8 17 -24 17 -93 0 -120 -1 -120 148 -111 168 10 170
13 174 148 l3 102 28 3 27 3 0 -80 c0 -44 5 -92 10 -107 10 -25 13 -26 63 -20
89 12 201 45 222 66 19 19 20 32 17 173 l-2 153 55 69 c193 243 244 563 126
792 -17 32 -30 54 -31 50z"/>
<path d="M9692 14336 c-18 -6 -30 -15 -25 -20 4 -5 1 -6 -7 -4 -32 11 -158
-70 -253 -161 -69 -66 -140 -158 -133 -170 3 -5 -1 -11 -9 -15 -8 -3 -15 -12
-15 -21 0 -25 -17 -17 -24 11 -8 29 -15 28 -21 -4 -2 -13 1 -21 8 -19 7 1 12
-7 11 -18 0 -13 6 -21 16 -21 10 0 16 8 16 21 -1 11 4 19 11 18 8 -2 10 4 6
14 -5 11 -3 14 6 9 9 -6 12 -2 9 10 -3 21 20 58 40 62 6 1 12 -5 12 -14 0 -8
5 -12 10 -9 8 5 7 11 -1 21 -9 11 -9 14 1 14 7 0 10 7 6 16 -8 22 36 66 58 58
15 -6 22 11 14 32 -2 4 7 10 20 15 12 5 22 15 22 22 0 9 9 13 25 12 14 -2 28
1 31 6 3 5 2 8 -3 7 -7 -3 -13 5 -13 17 0 3 9 1 20 -5 14 -7 20 -7 20 0 0 5
-8 10 -17 11 -14 0 -15 2 -3 6 8 3 28 17 43 29 22 18 33 22 47 14 13 -7 19 -6
23 3 3 8 29 25 59 40 54 27 49 35 -10 13z"/>
<path d="M8265 14255 c14 -79 17 -212 5 -278 -20 -119 -76 -247 -150 -344 -97
-127 -92 -112 -87 -253 6 -143 1 -166 -34 -192 -27 -20 -157 -58 -201 -58 -35
0 -38 7 -39 77 -1 32 -5 75 -11 97 -9 36 -11 38 -40 32 -48 -9 -57 -31 -58
-126 0 -47 -4 -91 -8 -97 -9 -14 -122 -33 -203 -33 l-56 0 -9 98 c-9 94 -10
97 -34 99 -14 2 -19 0 -10 -4 26 -10 30 -25 30 -108 0 -44 4 -86 9 -94 7 -10
33 -12 135 -6 169 10 171 12 171 137 1 103 6 118 39 118 23 0 23 -3 25 -92 3
-120 7 -124 98 -109 114 20 184 44 200 68 12 17 15 56 14 171 l-1 148 56 75
c76 99 150 253 170 354 18 89 15 280 -5 325 -11 24 -11 24 -6 -5z"/>
<path d="M1543 14090 c-149 -35 -265 -223 -250 -407 9 -114 85 -190 213 -212
214 -38 384 99 384 308 0 156 -84 269 -226 306 -63 16 -73 17 -121 5z"/>
<path d="M7069 14087 c-85 -24 -153 -90 -203 -197 -39 -83 -49 -224 -21 -281
83 -163 335 -197 483 -64 93 84 127 229 82 349 -54 143 -207 230 -341 193z"/>
<path d="M2243 14029 c-54 -27 -109 -87 -140 -156 -21 -45 -24 -66 -21 -115 4
-56 8 -64 45 -99 45 -42 94 -59 169 -59 108 0 210 54 240 127 39 92 -18 227
-124 294 -56 35 -109 38 -169 8z"/>
<path d="M7779 14030 c-48 -25 -116 -101 -141 -158 -27 -63 -28 -138 -2 -182
59 -103 267 -120 383 -33 34 26 70 92 71 129 0 53 -32 125 -80 177 -79 87
-153 108 -231 67z"/>
<path d="M1956 13651 c-20 -22 -59 -139 -52 -156 3 -8 22 -9 62 -4 33 4 82 8
110 8 47 1 52 3 58 27 4 15 6 27 4 28 -2 1 -31 27 -65 59 -66 61 -89 69 -117
38z"/>
<path d="M7484 13638 c-23 -44 -54 -147 -46 -151 4 -2 57 1 117 7 107 11 110
12 113 37 2 20 -10 37 -57 82 -71 68 -102 74 -127 25z"/>
<path d="M8914 13458 c-4 -5 3 -16 14 -24 11 -8 49 -38 84 -68 90 -77 290
-208 307 -201 33 13 140 99 130 106 -7 4 -5 9 6 13 9 3 20 4 24 1 5 -2 46 26
92 64 65 52 84 73 85 94 1 17 -3 24 -10 19 -6 -3 -20 -6 -31 -5 -16 1 -17 1
-2 -3 10 -3 14 -10 10 -17 -4 -7 1 -6 10 2 26 20 20 8 -10 -25 -15 -16 -31
-28 -36 -26 -5 1 -6 -1 -4 -5 3 -5 -6 -16 -19 -26 -13 -10 -24 -14 -24 -9 0 6
7 13 16 16 8 3 12 11 9 16 -4 6 -15 0 -26 -15 -11 -13 -17 -30 -14 -36 4 -6
-2 -13 -14 -16 -12 -3 -21 -10 -21 -15 0 -6 -7 -5 -15 2 -10 9 -15 9 -15 1 0
-6 -5 -11 -11 -11 -5 0 -8 4 -5 9 4 5 -1 8 -9 7 -21 -3 -31 -16 -12 -16 21 0
18 -21 -7 -39 -17 -13 -66 -23 -109 -22 -15 0 -16 -3 -6 -15 10 -12 14 -12 20
-2 5 7 9 10 9 6 0 -4 15 -3 33 2 l32 10 -25 -20 c-14 -11 -31 -18 -38 -15 -7
3 -11 1 -8 -3 3 -5 -5 -8 -17 -7 -12 2 -21 7 -20 13 2 6 -4 9 -12 5 -9 -3 -23
1 -33 9 -9 8 -25 18 -34 21 -12 4 -15 14 -12 31 2 15 0 26 -6 26 -6 0 -9 -4
-6 -8 3 -5 -5 -7 -17 -6 -12 1 -26 3 -32 3 -5 1 -3 6 5 11 13 9 13 10 0 11 -8
1 -21 1 -29 0 -7 -2 -10 3 -6 9 3 6 1 9 -6 8 -8 -2 -13 9 -14 29 -1 36 -9 50
-20 34 -3 -6 -1 -11 4 -11 6 0 11 -5 11 -11 0 -5 -5 -7 -12 -3 -7 5 -8 3 -3
-6 5 -8 3 -11 -6 -8 -8 3 -13 10 -12 16 2 6 -3 9 -11 6 -7 -3 -24 8 -38 24
-13 16 -31 31 -38 34 -11 3 -11 6 -2 12 7 4 24 -6 43 -26 l32 -33 -22 32 c-12
17 -32 35 -44 39 -21 7 -21 7 -2 14 15 6 13 8 -13 7 -18 0 -35 -4 -38 -9z"/>
<path d="M1250 12710 l0 -140 299 0 300 0 3 140 3 140 -302 0 -303 0 0 -140z"/>
<path d="M2110 12710 l0 -140 285 0 285 0 0 140 0 140 -285 0 -285 0 0 -140z"/>
<path d="M2930 12710 l0 -140 285 0 285 0 0 140 0 140 -285 0 -285 0 0 -140z"/>
<path d="M3750 12710 l0 -140 285 0 285 0 0 140 0 140 -285 0 -285 0 0 -140z"/>
<path d="M4570 12710 l0 -140 290 0 290 0 0 140 0 140 -290 0 -290 0 0 -140z"/>
<path d="M5400 12710 l0 -140 285 0 285 0 0 140 0 140 -285 0 -285 0 0 -140z"/>
<path d="M6220 12710 l0 -140 285 0 285 0 0 140 0 140 -285 0 -285 0 0 -140z"/>
<path d="M7040 12710 l0 -140 290 0 290 0 0 140 0 140 -290 0 -290 0 0 -140z"/>
<path d="M7870 12710 l0 -140 285 0 285 0 0 140 0 140 -285 0 -285 0 0 -140z"/>
<path d="M8690 12710 l0 -140 285 0 285 0 0 140 0 140 -285 0 -285 0 0 -140z"/>
<path d="M9510 12710 l0 -140 285 0 285 0 0 140 0 140 -285 0 -285 0 0 -140z"/>
<path d="M10340 12710 l0 -140 285 0 285 0 0 140 0 140 -285 0 -285 0 0 -140z"/>
<path d="M11160 12710 l0 -140 305 0 305 0 0 140 0 140 -305 0 -305 0 0 -140z"/>
<path d="M1250 12065 l0 -285 140 0 140 0 0 285 0 285 -140 0 -140 0 0 -285z"/>
<path d="M11480 12065 l0 -285 145 0 145 0 0 285 0 285 -145 0 -145 0 0 -285z"/>
<path d="M4664 11671 c-119 -19 -219 -70 -270 -137 -26 -34 -29 -45 -29 -119
0 -75 3 -85 35 -138 47 -78 95 -110 174 -115 52 -3 69 0 116 25 61 32 116 96
125 147 4 21 1 47 -10 72 -15 36 -18 37 -28 20 -60 -97 -108 -137 -174 -143
-64 -7 -97 18 -97 71 0 98 132 171 309 171 79 -1 98 -4 155 -31 36 -17 110
-64 165 -103 180 -130 254 -161 379 -161 87 0 140 26 173 85 59 105 -7 294
-121 346 -55 25 -83 24 -144 -7 -55 -28 -60 -44 -11 -44 64 0 139 -55 139
-101 0 -28 -57 -86 -98 -100 -89 -29 -175 2 -359 132 -151 107 -200 128 -299
134 -44 2 -102 0 -130 -4z"/>
<path d="M8296 11664 c-32 -10 -64 -31 -96 -63 -58 -58 -75 -105 -57 -159 16
-46 31 -50 47 -12 18 44 103 117 142 122 52 8 94 -8 108 -42 35 -86 -67 -173
-233 -200 -129 -20 -213 9 -398 141 -136 96 -212 133 -300 150 -79 14 -146 6
-191 -24 -42 -28 -78 -99 -78 -154 0 -91 69 -211 143 -250 43 -22 124 -13 168
17 l33 25 -42 7 c-63 11 -111 37 -129 71 -14 28 -14 33 1 61 47 86 160 105
276 46 36 -18 115 -68 177 -111 164 -117 183 -124 328 -124 136 0 197 14 285
67 30 18 68 52 84 75 93 133 -37 377 -199 372 -11 0 -42 -7 -69 -15z"/>
<path d="M1250 11243 l0 -288 140 0 140 0 0 288 0 287 -140 0 -140 0 0 -287z"/>
<path d="M11480 11246 l0 -285 141 -3 c89 -2 143 1 145 7 3 6 3 134 2 285 l-3
275 -142 3 -143 3 0 -285z"/>
<path d="M1250 10415 l0 -285 140 0 140 0 0 285 0 285 -140 0 -140 0 0 -285z"/>
<path d="M11480 10415 l0 -285 145 0 145 0 0 285 0 285 -145 0 -145 0 0 -285z"/>
<path d="M3115 10469 c-66 -5 -147 -12 -180 -16 l-60 -8 4 -95 c2 -52 5 -98 7
-101 2 -4 38 -10 80 -14 l77 -7 -6 -331 c-9 -425 -35 -929 -50 -943 -3 -3 -30
-8 -61 -11 -63 -6 -58 0 -76 -113 -16 -105 -22 -98 78 -93 453 19 757 35 760
37 2 2 -2 52 -9 111 l-12 107 -96 -3 -96 -4 -7 209 c-6 155 -5 212 4 217 6 4
36 10 66 14 83 10 286 69 380 109 265 114 399 285 363 465 -18 93 -76 198
-150 271 -99 99 -210 151 -396 186 -97 19 -447 26 -620 13z m517 -250 c165
-35 270 -169 239 -303 -23 -98 -90 -180 -190 -231 -58 -29 -197 -69 -215 -62
-18 7 -29 588 -12 599 17 11 118 9 178 -3z"/>
<path d="M8005 10315 c-340 -64 -466 -157 -535 -395 -16 -55 -23 -113 -27
-216 -12 -332 79 -500 344 -633 182 -91 414 -97 577 -14 126 64 237 222 270
385 26 125 26 125 -41 134 -54 6 -166 1 -266 -12 l-47 -7 0 -59 c0 -77 -26
-189 -53 -230 -32 -48 -81 -70 -140 -64 -58 6 -147 52 -213 110 l-49 43 -9
309 -9 308 43 38 c91 81 257 135 379 124 35 -3 70 -11 77 -17 10 -8 14 -34 14
-82 l0 -70 43 7 c96 16 185 25 236 26 l53 0 -6 68 c-14 140 -53 205 -143 237
-68 24 -386 30 -498 10z"/>
<path d="M6330 10293 c-58 -10 -168 -47 -213 -71 -122 -66 -227 -239 -240
-396 -7 -76 -1 -87 42 -80 20 3 94 9 165 12 l129 7 13 60 c45 223 226 336 404
253 117 -54 227 -176 270 -301 22 -63 47 -203 38 -213 -3 -3 -28 6 -55 19
-191 97 -395 117 -559 56 -213 -80 -410 -349 -365 -500 34 -113 166 -179 425
-210 96 -12 335 -7 400 7 26 6 28 5 21 -12 -4 -10 -10 -29 -12 -41 l-5 -23
195 0 196 0 6 38 c3 20 17 96 31 168 56 305 63 391 39 529 -27 153 -118 315
-255 455 -167 170 -347 252 -551 249 -52 -1 -105 -4 -119 -6z m296 -764 c80
-14 210 -79 258 -127 l39 -40 -13 -65 -12 -64 -93 -46 c-310 -154 -537 -135
-591 50 -33 112 6 204 106 256 89 45 191 57 306 36z"/>
<path d="M5489 10276 c-2 -2 -240 -7 -529 -10 -289 -4 -528 -11 -532 -14 -8
-8 -26 -180 -19 -187 2 -3 22 -5 44 -5 l39 0 -6 -37 c-3 -21 -13 -103 -21
-183 -8 -80 -22 -210 -30 -290 -9 -80 -20 -192 -26 -250 -5 -58 -12 -111 -14
-117 -3 -8 -23 -13 -54 -13 l-50 0 -6 -57 c-3 -32 -8 -80 -12 -107 l-5 -49
467 6 c258 4 558 7 668 7 l199 0 -3 194 c-2 107 -8 198 -12 203 -5 4 -58 9
-119 12 l-110 3 3 -81 4 -81 -27 0 c-54 0 -434 -20 -480 -25 l-48 -6 0 83 c0
46 3 140 7 209 l6 126 144 5 c79 3 146 8 149 11 3 3 8 48 11 101 l6 96 -152 0
-151 0 0 114 0 114 83 6 c45 3 162 8 260 12 l177 6 0 -60 c0 -34 3 -62 8 -65
9 -4 230 8 236 14 2 2 0 36 -5 74 -6 59 -17 185 -19 233 0 11 -70 18 -81 8z"/>
<path d="M9415 10189 c-192 -5 -390 -10 -440 -11 l-90 -3 -11 -93 c-5 -51 -7
-95 -3 -98 4 -2 21 -2 38 1 16 3 32 1 35 -4 3 -5 -15 -207 -41 -450 l-47 -441
-52 0 -52 0 -7 -77 c-4 -43 -8 -89 -9 -103 l-1 -25 143 0 c78 0 376 1 662 3
l520 2 0 199 0 199 -31 6 c-17 3 -72 6 -121 6 l-89 0 2 -77 2 -78 -119 -7
c-65 -4 -190 -11 -277 -15 l-157 -8 0 56 c0 31 3 123 6 206 l7 150 145 7 c80
3 147 8 149 10 2 1 7 46 11 99 l8 97 -151 2 -150 3 -3 111 -3 112 43 5 c24 4
143 9 266 13 l222 7 0 -65 0 -64 68 3 c37 2 91 6 120 9 l54 6 -6 31 c-3 18 -8
70 -11 117 -3 47 -8 104 -11 128 l-5 42 -132 -2 c-73 0 -289 -5 -482 -9z"/>
<path d="M1250 9595 l0 -285 140 0 140 0 0 285 0 285 -140 0 -140 0 0 -285z"/>
<path d="M11480 9595 l0 -285 145 0 145 0 0 285 0 285 -145 0 -145 0 0 -285z"/>
<path d="M1252 8773 l3 -288 138 -3 137 -3 0 290 0 291 -140 0 -140 0 2 -287z"/>
<path d="M11482 8773 l3 -288 140 0 140 0 0 285 0 285 -143 3 -142 3 2 -288z"/>
<path d="M5732 8498 c21 -13 38 -29 38 -35 0 -16 30 -20 80 -9 16 3 40 -16 40
-33 0 -5 13 -18 29 -27 17 -10 27 -23 24 -31 -3 -8 0 -13 8 -11 7 2 15 -5 17
-14 2 -10 -1 -18 -7 -18 -6 0 -9 6 -7 13 1 6 1 8 -2 3 -3 -5 -11 2 -18 15 -10
18 -13 20 -14 7 0 -9 7 -24 15 -32 12 -12 14 -20 5 -36 -6 -11 -7 -20 -2 -20
5 0 14 12 21 26 10 22 14 24 27 13 10 -8 12 -15 5 -17 -6 -2 -11 -8 -11 -14 0
-6 7 -8 14 -5 10 4 13 1 9 -9 -3 -7 0 -14 6 -14 8 0 9 -5 1 -19 -10 -20 0
-105 15 -119 4 -4 4 9 0 28 -6 28 -5 33 6 23 7 -7 12 -26 12 -43 0 -20 4 -27
10 -21 15 15 -9 112 -50 198 -54 118 -156 200 -271 218 l-37 6 37 -23z"/>
<path d="M7955 8479 c5 -16 4 -19 -6 -14 -9 6 -11 4 -6 -8 3 -9 1 -17 -5 -19
-6 -2 -12 -17 -13 -33 -4 -53 -17 -88 -26 -73 -13 20 -45 18 -45 -3 0 -11 4
-19 8 -19 4 0 8 7 8 15 0 8 5 15 11 15 6 0 8 -9 4 -21 -5 -14 -3 -19 3 -15 6
4 8 -2 4 -16 -5 -19 -7 -20 -10 -5 -6 29 -20 19 -31 -20 -13 -46 -14 -63 -2
-63 15 0 -1 -50 -20 -60 -10 -6 -21 -19 -24 -31 -6 -17 -9 -18 -23 -7 -13 11
-14 11 -7 -2 5 -8 9 -24 7 -35 -1 -16 0 -15 8 4 14 32 22 22 14 -17 -5 -27 -9
-30 -24 -22 -17 9 -18 7 -10 -20 6 -20 5 -30 -2 -30 -5 0 -7 -7 -4 -16 3 -9 0
-30 -8 -47 -8 -18 -20 -51 -26 -74 -6 -24 -15 -43 -21 -43 -6 0 -8 -4 -4 -9 3
-5 0 -13 -6 -17 -9 -5 -10 4 -6 32 6 33 5 35 -4 14 -6 -14 -9 -41 -8 -60 3
-55 0 -67 -16 -67 -8 0 -15 5 -15 11 0 6 -5 4 -10 -4 -8 -12 -12 -13 -19 -2
-6 11 -10 10 -15 -3 -9 -25 -7 -43 3 -27 4 8 11 13 15 13 3 -1 7 -1 9 0 23 7
37 5 37 -7 0 -8 -6 -14 -14 -14 -22 0 -30 -19 -15 -36 6 -8 9 -17 5 -21 -3 -3
-6 -1 -6 5 0 7 -6 12 -14 12 -8 0 -16 6 -18 13 -3 6 -5 -3 -5 -21 0 -22 3 -29
9 -20 6 8 7 2 3 -17 -6 -31 -11 -67 -14 -98 0 -10 -5 -16 -9 -13 -4 2 -9 -10
-9 -27 -2 -26 3 -19 24 33 14 36 26 77 27 92 0 14 4 24 7 22 12 -7 20 29 9 40
-5 5 -10 15 -10 21 0 5 4 3 10 -5 5 -8 11 -12 13 -10 4 5 82 217 110 300 8 25
41 115 72 200 129 349 135 370 119 370 -11 0 -13 -6 -9 -21z"/>
<path d="M1860 8229 c-115 -64 -224 -145 -214 -160 3 -5 10 -6 16 -3 7 4 8 2
4 -4 -5 -8 -13 -9 -25 -3 -14 8 -30 -3 -83 -55 -37 -35 -64 -64 -61 -64 2 0
-9 -11 -26 -25 -44 -38 -145 -176 -144 -197 1 -10 -2 -16 -6 -13 -11 6 -71
-107 -71 -135 0 -23 21 -23 28 1 3 11 2 11 -7 -1 -9 -12 -11 -11 -11 8 0 12 5
22 10 22 6 0 10 8 10 18 0 10 7 27 16 38 15 18 15 18 10 0 -5 -14 -3 -16 6 -8
7 6 18 11 23 11 13 1 14 61 1 61 -5 0 5 13 22 28 18 16 32 35 32 42 0 7 10 23
23 34 12 12 29 33 37 46 24 38 74 85 85 82 5 -2 7 -1 3 3 -12 12 19 34 42 30
18 -3 20 -2 10 10 -10 12 -10 18 0 30 7 8 17 12 23 8 6 -4 7 -1 2 7 -6 9 -2
10 16 5 41 -12 43 -11 44 24 0 21 6 36 15 39 8 3 21 12 28 21 8 9 11 11 8 4
-4 -6 -2 -14 4 -18 5 -3 10 -2 10 4 0 6 8 8 18 5 15 -4 16 -4 1 7 -15 11 -13
15 15 34 26 18 54 32 76 40 3 1 13 5 23 10 12 5 24 1 37 -10 18 -16 20 -17 20
-2 0 10 -6 17 -14 17 -8 0 -18 5 -22 12 -5 7 -2 9 8 6 9 -4 15 0 15 8 0 8 -1
14 -1 14 -1 0 -26 -14 -56 -31z"/>
<path d="M6057 8074 c-4 -11 -2 -42 4 -70 6 -27 15 -83 20 -124 5 -41 11 -81
14 -87 2 -7 -1 -13 -7 -13 -7 0 -7 -4 0 -12 14 -19 4 -191 -14 -220 -3 -4 -9
-6 -14 -3 -4 3 -14 -3 -21 -12 -10 -12 -10 -14 -1 -9 14 8 16 -3 4 -22 -6 -9
-12 -6 -20 12 -8 19 -8 26 1 30 9 3 9 5 0 5 -23 2 -25 -21 -5 -49 17 -23 18
-29 7 -34 -8 -3 -16 2 -18 12 -3 12 -5 10 -6 -6 0 -13 -5 -21 -10 -18 -5 4 -7
-2 -4 -12 2 -10 -3 -24 -11 -31 -14 -12 -15 -10 -12 17 3 29 -17 52 -32 37 -3
-3 0 -5 6 -5 6 0 9 -7 6 -15 -4 -8 -2 -15 3 -15 13 0 10 -47 -4 -61 -13 -13
-36 -3 -27 13 4 6 -2 6 -15 -1 -22 -12 -29 -31 -11 -31 6 0 10 5 10 11 0 5 5
7 11 3 8 -4 7 -9 -2 -15 -18 -11 -52 -11 -45 0 3 5 0 11 -7 14 -8 3 -14 -5
-15 -22 -1 -15 1 -21 6 -14 4 7 13 9 21 4 10 -7 8 -11 -10 -17 -13 -4 -31 -9
-39 -10 -8 -2 -16 -8 -18 -13 -2 -6 -10 -11 -18 -11 -9 0 -12 5 -9 10 3 6 -2
10 -11 10 -10 0 -15 -3 -11 -6 7 -8 -17 -34 -32 -34 -6 0 -11 7 -11 15 0 11
-10 15 -37 14 l-38 -1 32 -9 c45 -13 47 -24 5 -27 -19 -1 -40 -7 -47 -12 -6
-5 -65 -11 -131 -13 -86 -3 -78 -3 26 -2 136 2 151 4 235 35 50 18 113 47 140
66 52 34 146 124 130 124 -5 0 0 7 11 15 10 8 15 15 10 15 -6 0 -3 6 6 13 23
19 48 93 55 164 8 88 -36 458 -50 417z"/>
<path d="M2561 7668 c-1 -33 -21 -79 -32 -73 -4 3 -11 -5 -15 -17 -4 -13 -12
-26 -18 -30 -8 -5 -7 -8 2 -8 7 0 15 7 18 15 4 8 10 12 16 9 5 -3 4 -12 -4
-21 -7 -9 -11 -28 -10 -43 2 -15 -4 -32 -13 -40 -9 -8 -13 -20 -9 -33 4 -13 2
-17 -5 -13 -10 7 -15 -11 -12 -40 1 -6 -6 -17 -14 -24 -8 -7 -15 -19 -15 -27
0 -8 -4 -11 -10 -8 -5 3 -18 1 -27 -5 -15 -10 -16 -11 -1 -6 9 2 19 -2 22 -10
3 -7 2 -13 -2 -13 -20 3 -32 -2 -27 -11 9 -15 -4 -49 -18 -46 -7 1 -9 1 -4 -1
10 -7 9 -31 -3 -38 -6 -4 -7 1 -3 11 4 12 3 15 -6 10 -7 -5 -10 -15 -7 -23 7
-18 -12 -46 -25 -37 -5 3 -3 14 3 24 10 16 10 22 -1 32 -11 11 -12 9 -7 -9 4
-12 2 -24 -4 -28 -8 -5 -6 -12 4 -24 15 -16 14 -20 -14 -44 -16 -15 -35 -27
-42 -27 -9 0 -8 -3 2 -10 8 -5 12 -12 8 -15 -3 -3 -13 1 -22 10 -9 9 -16 12
-16 6 0 -5 5 -13 10 -16 6 -3 10 -11 10 -16 0 -6 -4 -7 -10 -4 -5 3 -7 0 -4
-8 7 -18 -35 -50 -50 -38 -14 11 -47 10 -40 -1 3 -5 10 -6 15 -3 5 4 9 1 9 -5
0 -6 5 -8 10 -5 19 12 10 -14 -15 -41 -20 -21 -24 -23 -19 -8 4 14 4 16 -4 5
-6 -8 -8 -20 -5 -28 3 -7 -2 -16 -11 -19 -9 -3 -16 -11 -16 -17 0 -6 16 4 35
23 19 18 32 37 29 42 -3 4 -1 8 4 8 6 0 33 29 61 65 28 36 49 65 46 65 -3 0 6
12 20 28 39 42 107 161 99 174 -4 6 -3 8 3 5 12 -7 72 119 102 213 25 83 45
184 38 202 -3 7 -6 1 -6 -14z"/>
<path d="M9203 7386 c3 -33 7 -70 9 -81 3 -17 -2 -19 -31 -17 -20 2 -31 0 -27
-6 3 -6 15 -8 26 -5 13 3 20 0 20 -8 0 -8 5 -6 12 6 15 25 18 99 8 137 -5 16
-5 28 1 28 5 0 9 -3 9 -7 0 -5 36 -7 80 -6 49 1 78 -2 75 -7 -4 -6 -2 -10 4
-10 5 0 12 6 14 13 3 6 6 -61 6 -150 1 -103 -3 -163 -9 -163 -5 0 -10 -10 -10
-22 0 -17 3 -19 9 -10 7 11 9 11 14 -2 6 -14 -54 -16 -630 -13 -418 1 -637 -1
-640 -8 -2 -7 215 -9 640 -7 l643 2 -4 193 c-2 105 -5 193 -6 193 0 1 -50 4
-110 7 l-108 5 5 -62z"/>
<path d="M10583 7392 c-8 -5 6 -37 48 -105 37 -59 65 -95 71 -91 7 5 9 2 5 -8
-3 -10 9 -36 31 -67 20 -28 55 -76 77 -107 22 -31 50 -66 62 -78 13 -11 23
-25 23 -29 0 -14 170 -217 181 -217 5 0 9 -5 9 -11 0 -7 30 -46 68 -88 159
-179 422 -448 422 -432 0 5 -5 13 -11 17 -8 5 -7 9 1 14 10 6 5 16 -15 36 -18
18 -30 24 -33 16 -2 -7 -8 -12 -14 -12 -6 0 -8 7 -5 14 4 10 1 13 -9 9 -12 -4
-14 0 -9 20 6 21 2 29 -22 44 -24 16 -28 24 -27 62 0 25 -1 40 -4 33 -2 -6
-10 -8 -19 -5 -13 5 -13 2 1 -25 20 -39 20 -42 -1 -42 -9 0 -13 3 -10 7 4 3
-1 12 -11 20 -16 14 -16 14 2 9 16 -6 17 -4 6 9 -14 17 -35 21 -25 5 3 -5 1
-10 -4 -10 -6 0 -11 7 -11 15 0 8 8 15 18 15 14 0 15 2 2 10 -11 7 -18 5 -27
-6 -10 -13 -12 -13 -18 5 -3 12 -9 20 -13 17 -4 -2 -18 10 -32 27 -24 30 -13
30 23 -1 9 -8 17 -10 17 -5 0 16 -50 45 -66 39 -17 -7 -19 10 -1 17 9 4 9 8
-2 15 -11 8 -10 12 5 20 17 10 17 13 4 26 -13 13 -17 13 -29 -1 -12 -13 -11
-14 10 -8 23 7 23 7 8 -11 -9 -11 -14 -25 -12 -31 3 -7 2 -13 -1 -13 -3 0 -15
22 -27 50 -12 27 -25 47 -30 45 -4 -3 -13 3 -18 14 -8 15 -6 22 10 33 21 14
21 14 1 14 -11 0 -18 -4 -16 -8 8 -13 -3 -9 -40 13 -20 12 -36 25 -36 30 0 5
-7 9 -16 9 -8 0 -12 5 -9 10 4 6 11 8 16 5 5 -3 6 1 2 10 -4 12 -8 13 -13 5
-5 -8 -14 -5 -29 11 -11 12 -21 27 -21 31 0 5 -4 7 -9 4 -4 -3 -8 4 -7 17 1
15 -4 21 -16 19 -21 -3 -30 12 -33 52 -4 50 -5 52 -14 38 -6 -10 -15 -6 -40
17 -17 16 -26 31 -20 33 8 3 8 8 -2 18 -8 8 -14 21 -15 28 -2 29 -5 33 -14 27
-5 -3 -10 -11 -10 -16 0 -6 5 -7 10 -4 6 3 10 2 10 -4 0 -22 -19 -20 -34 4
-19 29 -20 39 -4 29 7 -5 8 -3 3 6 -5 9 -2 10 14 5 13 -4 21 -2 21 5 0 6 -10
11 -22 10 -38 -3 -49 -1 -43 10 4 6 1 9 -6 8 -6 -2 -14 3 -17 11 -3 8 0 11 7
7 6 -4 14 0 18 9 3 10 0 21 -8 26 -21 13 -32 11 -26 -6 4 -8 2 -17 -3 -20 -6
-4 -10 3 -10 14 0 12 -6 20 -12 19 -8 -2 -14 10 -16 30 -3 26 -7 32 -19 28
-12 -5 -13 -4 -5 7 7 8 9 17 5 20 -3 4 -1 7 5 7 7 0 12 8 12 17 0 15 -2 14
-15 -3 -14 -19 -14 -19 -15 1 -1 11 -4 14 -7 7 -3 -7 1 -20 8 -30 7 -9 1 -6
-13 8 -18 18 -23 29 -16 37 6 7 14 11 18 8 4 -3 14 3 21 13 13 15 12 16 -3 4
-12 -9 -18 -10 -23 -2 -4 7 -15 10 -25 7 -15 -4 -18 1 -15 32 1 19 0 41 -2 48
-6 14 -31 17 -50 5z"/>
<path d="M12560 7252 c0 -6 6 -13 13 -15 6 -3 1 -6 -12 -6 -20 -1 -22 -3 -11
-16 11 -13 10 -14 -3 -9 -11 4 -16 -2 -19 -23 -3 -28 -19 -35 -27 -12 -2 7 1
9 8 5 7 -5 9 -1 5 9 -6 14 -8 14 -19 -2 -8 -10 -9 -19 -4 -21 5 -2 4 -12 -2
-24 -8 -15 -8 -19 0 -14 6 4 11 2 11 -4 0 -6 -11 -15 -25 -20 -14 -5 -25 -17
-25 -26 0 -11 -6 -15 -20 -11 -11 3 -23 0 -27 -5 -3 -7 -1 -8 5 -4 7 4 12 3
12 -3 0 -5 -5 -13 -10 -16 -6 -4 -8 -10 -5 -15 7 -11 -24 -42 -35 -35 -5 3
-11 1 -15 -5 -4 -6 -11 -8 -16 -5 -14 9 -23 -23 -10 -39 8 -10 8 -16 -2 -25
-8 -6 -17 -8 -21 -4 -4 4 -4 -1 0 -12 7 -17 5 -18 -8 -8 -12 11 -18 9 -33 -7
-10 -11 -13 -20 -7 -20 7 0 12 -5 12 -11 0 -5 -5 -7 -10 -4 -6 4 -9 1 -8 -6 2
-9 -10 -14 -39 -14 -23 -1 -46 -5 -50 -10 -4 -4 -2 -5 5 -1 6 4 12 3 12 -1 0
-5 -6 -15 -12 -23 -7 -8 -1 -4 15 9 23 21 41 18 20 -3 -5 -4 -8 -11 -8 -15 0
-11 -49 -71 -58 -71 -10 0 -4 23 8 33 6 5 4 7 -5 4 -8 -2 -15 -13 -14 -24 0
-13 -6 -19 -19 -19 -11 1 -22 -6 -24 -14 -3 -9 -1 -11 4 -5 9 11 33 18 33 10
0 -3 -9 -14 -20 -25 -12 -12 -20 -15 -20 -7 0 8 -3 7 -9 -3 -6 -8 -8 -17 -5
-21 2 -4 -2 -9 -10 -12 -11 -4 -13 1 -10 20 l5 26 -20 -24 c-16 -19 -20 -20
-21 -7 0 9 5 19 10 21 6 3 5 4 -2 3 -7 -1 -15 -13 -16 -26 -3 -18 0 -21 13
-16 11 4 15 2 12 -6 -2 -7 -10 -12 -17 -10 -10 2 -10 -1 1 -14 13 -16 12 -17
-13 -11 -15 4 -30 3 -33 -3 -4 -6 1 -7 12 -4 17 5 17 5 1 -9 -10 -8 -15 -17
-11 -20 3 -4 1 -8 -5 -8 -27 -3 -31 -4 -39 -13 -5 -5 -3 -6 5 -2 6 4 12 2 12
-3 0 -6 -5 -11 -11 -11 -5 0 -8 -4 -5 -9 8 -12 -18 -32 -35 -29 -9 2 -13 -5
-11 -17 2 -17 0 -16 -12 4 -7 14 -11 32 -8 40 4 12 2 13 -7 5 -10 -9 -10 -17
-2 -33 9 -16 9 -21 0 -21 -9 0 -8 -4 0 -14 10 -12 9 -14 -6 -12 -10 2 -12 1
-6 -1 10 -3 9 -8 -2 -19 -17 -18 -37 -10 -28 11 3 8 0 15 -7 15 -7 0 -10 -8
-7 -19 3 -13 1 -18 -9 -14 -7 2 -10 12 -7 21 4 14 3 14 -5 3 -11 -16 -5 -44 8
-36 4 3 10 -1 13 -9 4 -10 0 -12 -14 -9 -10 3 -19 0 -19 -6 0 -6 5 -11 12 -11
17 0 -7 -23 -27 -26 -18 -3 -20 12 -2 19 6 2 -4 4 -24 4 -27 -1 -35 -5 -36
-20 -2 -19 -1 -19 19 -1 l21 19 -19 -29 c-10 -16 -17 -40 -16 -53 2 -13 -2
-23 -8 -23 -6 0 -9 4 -5 9 3 5 0 13 -6 17 -7 4 -9 3 -5 -4 4 -7 -3 -10 -21 -9
-21 2 -28 -2 -27 -15 1 -10 -4 -18 -12 -18 -17 0 -17 5 -4 31 10 17 8 19 -25
17 -19 -2 -35 -4 -35 -5 0 -6 53 -54 70 -63 11 -6 20 -15 20 -21 0 -6 -5 -7
-12 -3 -7 5 -8 3 -3 -6 5 -9 4 -11 -4 -6 -6 4 -9 11 -6 16 3 5 1 11 -5 15 -5
3 -9 -9 -8 -30 1 -19 4 -35 7 -35 9 1 66 84 63 92 -1 5 1 7 6 6 11 -4 597 596
700 715 73 85 190 239 215 283 4 7 0 17 -8 24 -9 8 -15 8 -15 2z"/>
<path d="M7465 7221 c-3 -2 -5 -18 -6 -35 0 -26 -2 -28 -9 -11 -8 18 -9 18 -9
2 -1 -10 9 -22 22 -27 16 -6 17 -9 5 -9 -18 -1 -33 -34 -23 -51 13 -21 -6 -70
-26 -70 -10 0 -19 -5 -19 -11 0 -7 -11 -8 -29 -4 -16 3 -47 2 -68 -4 -41 -11
-255 -26 -365 -26 -38 0 -68 -3 -68 -7 0 -5 -4 -8 -10 -8 -12 0 -9 22 5 33 6
4 2 7 -8 5 -14 -2 -24 11 -42 52 -13 30 -22 64 -19 75 4 15 3 16 -4 6 -7 -9
-11 -10 -15 -2 -13 28 1 -12 32 -92 l35 -88 40 6 c23 3 111 10 196 15 219 15
350 26 355 32 3 3 23 54 44 114 l38 110 -24 0 c-13 0 -26 -2 -28 -5z"/>
<path d="M2102 6848 c2 -17 -1 -22 -14 -20 -10 2 -18 -2 -18 -8 0 -6 5 -8 10
-5 6 3 10 1 10 -5 0 -7 -7 -9 -16 -6 -9 3 -18 6 -20 6 -3 0 -3 4 0 9 4 7 -20
8 -44 2 -3 0 -6 -17 -7 -37 0 -22 2 -31 7 -24 5 7 6 19 3 27 -3 7 0 13 7 13 6
0 8 5 5 10 -3 6 -2 10 4 10 15 0 23 -18 11 -25 -5 -3 -10 -11 -10 -17 0 -6 9
-3 20 7 11 10 20 14 20 8 0 -5 -11 -16 -25 -23 -13 -7 -22 -16 -20 -20 3 -4
-2 -13 -10 -20 -9 -8 -15 -8 -15 -2 0 6 -13 9 -30 7 -18 -3 -28 0 -25 5 4 6
-2 10 -11 10 -14 0 -15 -3 -6 -12 8 -8 9 -15 1 -25 -13 -15 -4 -47 11 -38 5 3
10 2 10 -3 0 -15 -26 -22 -39 -9 -6 6 -14 8 -18 4 -4 -4 -1 -13 7 -20 10 -10
11 -9 5 2 -6 10 -4 12 4 7 7 -5 10 -11 7 -14 -10 -10 -56 -11 -56 -1 0 5 5 9
10 9 6 0 10 4 10 8 0 5 -7 9 -15 9 -8 0 -12 -4 -9 -8 2 -4 -2 -10 -8 -12 -10
-4 -10 -8 1 -15 9 -7 10 -11 2 -17 -9 -5 -9 -10 -1 -20 8 -9 8 -15 0 -20 -5
-3 -10 -1 -10 4 0 6 -5 11 -11 11 -5 0 -7 -4 -4 -10 9 -14 -8 -13 -23 2 -9 9
-12 9 -12 -1 0 -11 -3 -11 -15 -1 -10 9 -15 9 -15 1 0 -11 13 -15 39 -11 13 1
13 -1 2 -14 -11 -13 -17 -14 -30 -4 -14 12 -14 11 -2 -4 7 -10 17 -15 22 -12
5 3 9 1 9 -4 0 -11 -30 -26 -47 -23 -6 1 -14 -3 -18 -9 -4 -7 -12 -7 -25 0
-13 7 -21 7 -26 -2 -4 -6 -3 -8 4 -4 6 3 14 1 17 -5 4 -5 14 -8 22 -4 13 4 14
3 3 -10 -14 -16 -45 -21 -35 -5 3 6 2 10 -4 10 -6 0 -9 -12 -8 -27 2 -24 -2
-28 -25 -27 -15 0 -25 -3 -22 -7 8 -14 -9 -40 -22 -35 -15 6 -19 -10 -5 -18 5
-4 21 8 35 24 14 17 29 31 33 31 15 0 158 126 306 270 115 111 147 148 142
162 -10 25 -27 21 -23 -5z"/>
<path d="M8780 6525 c-35 -8 -545 -27 -918 -35 -222 -4 -405 -10 -406 -12 -2
-1 -6 -61 -10 -133 l-7 -130 75 3 76 4 0 -581 c0 -320 1 -584 3 -588 1 -5 -31
-11 -70 -14 -40 -3 -75 -8 -78 -11 -3 -3 2 -55 12 -117 l16 -111 394 0 393 0
0 135 0 136 -129 -7 -129 -7 -7 174 c-3 96 -5 235 -3 309 l3 135 152 19 153
19 4 31 c3 17 7 69 9 115 l4 84 -116 -7 c-64 -4 -139 -9 -167 -12 l-51 -6 -7
54 c-3 29 -7 103 -8 163 l-2 110 60 6 c32 4 208 12 389 19 182 6 342 13 356
16 29 6 31 13 45 172 7 75 7 75 -36 67z"/>
<path d="M936 6471 c-4 -5 13 -24 36 -43 93 -73 261 -196 286 -209 15 -7 36
-20 47 -30 37 -30 49 -28 115 23 36 27 86 66 113 86 46 35 58 52 36 52 -5 0
-8 -4 -5 -9 7 -11 -40 -32 -57 -25 -8 3 -20 -2 -27 -11 -15 -18 0 -21 18 -3 9
9 12 9 12 1 0 -7 -9 -14 -20 -18 -11 -3 -19 -11 -17 -17 1 -6 -4 -13 -12 -16
-8 -2 -11 0 -8 5 3 5 2 15 -2 22 -6 9 -10 7 -14 -8 -3 -12 0 -21 6 -21 13 0
-24 -29 -37 -30 -6 0 -5 5 2 12 16 16 15 25 -4 32 -14 5 -15 4 -4 -9 17 -20
-4 -20 -24 1 -9 8 -16 11 -16 5 0 -5 8 -14 18 -20 16 -9 16 -10 0 -16 -10 -4
-15 -11 -12 -17 3 -5 11 -4 20 3 10 8 14 8 14 0 0 -10 -14 -15 -23 -8 -2 1
-11 -4 -20 -12 -14 -11 -17 -11 -17 0 0 11 -2 12 -9 1 -6 -10 -13 -6 -27 15
-10 15 -19 35 -19 43 0 9 -13 15 -39 17 -21 1 -46 8 -55 16 -9 8 -23 17 -31
20 -11 4 -9 6 5 7 19 1 19 1 1 11 -14 9 -20 8 -26 -1 -5 -8 -10 -8 -14 -2 -3
5 1 13 10 16 19 7 57 -11 49 -24 -3 -5 -1 -11 5 -15 6 -4 9 4 8 19 -2 27 -40
41 -69 26 -12 -7 -23 -1 -43 19 -25 27 -26 29 -10 45 9 9 14 20 10 23 -3 3
-14 -5 -25 -18 l-20 -24 -16 23 c-9 12 -20 20 -25 17 -4 -3 -10 4 -13 15 -3
11 -13 20 -22 20 -9 0 -13 5 -10 10 3 6 2 10 -4 10 -5 0 -12 -4 -15 -9z"/>
<path d="M4425 6389 c-157 -14 -145 -4 -138 -107 3 -48 11 -90 17 -94 6 -4 37
-8 69 -8 l57 0 0 -267 c0 -244 -21 -740 -36 -854 l-6 -47 -50 -4 c-28 -3 -54
-11 -58 -18 -4 -7 -11 -38 -15 -69 -3 -31 -9 -67 -12 -80 l-6 -24 199 7 c307
10 575 23 579 28 1 2 -3 46 -9 98 l-11 95 -86 -2 -86 -2 -6 97 c-4 53 -7 141
-7 194 0 109 -8 99 95 118 33 5 83 16 112 24 l51 14 22 -57 c12 -31 68 -171
126 -312 l105 -256 212 -7 c305 -9 327 -10 333 -4 6 6 -35 179 -45 190 -3 4
-54 10 -113 14 l-108 7 -149 241 c-83 133 -152 248 -155 256 -4 10 8 23 41 40
67 36 154 119 188 182 26 46 30 64 30 134 0 73 -3 87 -38 157 -87 175 -229
270 -466 311 -104 18 -453 20 -636 5z m592 -235 c108 -34 173 -119 173 -226 0
-139 -115 -249 -306 -293 -36 -9 -67 -15 -69 -13 -1 2 -5 125 -9 275 l-6 272
23 5 c36 8 138 -3 194 -20z"/>
<path d="M6314 6351 c-62 -10 -174 -46 -224 -71 -124 -63 -240 -264 -240 -416
l0 -67 53 6 c28 4 104 9 167 13 l116 7 11 56 c22 118 88 212 179 257 48 23 63
26 123 22 142 -10 292 -133 362 -295 31 -73 63 -243 44 -243 -2 0 -40 16 -85
36 -131 57 -227 77 -345 72 -66 -4 -120 -12 -159 -26 -136 -49 -284 -181 -350
-312 -31 -62 -36 -83 -36 -139 0 -57 4 -74 29 -113 47 -74 167 -123 365 -149
95 -12 407 -8 440 6 20 9 20 9 -1 -57 -5 -17 9 -18 191 -18 195 0 196 0 201
23 2 12 21 110 40 217 58 314 57 471 -2 619 -103 257 -356 495 -592 556 -77
20 -215 27 -287 16z m316 -772 c66 -15 160 -63 214 -111 l48 -42 -6 -52 c-8
-74 -12 -80 -64 -110 -142 -80 -320 -130 -432 -122 -121 9 -188 67 -211 180
-39 195 173 316 451 257z"/>
<path d="M3500 6194 c-14 -2 -65 -11 -113 -20 -180 -31 -331 -97 -398 -173
-87 -98 -128 -227 -136 -426 -11 -288 57 -452 237 -575 142 -96 260 -135 415
-134 173 0 285 43 392 152 85 87 163 273 163 392 l0 29 -82 3 c-46 2 -128 -1
-184 -5 l-101 -9 -6 -93 c-16 -236 -117 -319 -286 -234 -35 17 -87 54 -116 83
l-54 51 -6 306 -7 307 54 40 c108 81 202 112 339 112 110 0 119 -7 119 -94 0
-34 2 -65 5 -68 4 -3 25 -1 48 4 23 6 94 13 157 17 l115 6 -1 50 c-2 147 -51
228 -154 259 -54 16 -342 31 -400 20z"/>
<path d="M8654 6178 c-8 -13 -44 -203 -44 -235 l0 -23 286 0 285 0 -5 -52 c-3
-29 -13 -216 -23 -414 l-17 -362 -35 -6 c-20 -3 -57 -6 -83 -6 l-48 0 0 -67
c0 -38 -3 -84 -6 -104 l-6 -36 387 -7 c212 -4 388 -6 390 -4 1 1 -7 56 -18
122 l-21 119 -89 -6 c-63 -4 -89 -2 -92 6 -2 7 -9 163 -15 347 -5 184 -13 368
-16 407 l-6 73 228 2 229 3 7 115 c4 63 5 121 3 128 -6 17 -1280 18 -1291 0z"/>
<path d="M1250 5475 l0 -285 140 0 140 0 0 285 0 285 -140 0 -140 0 0 -285z"/>
<path d="M11480 5475 l0 -286 143 3 142 3 3 283 2 282 -145 0 -145 0 0 -285z"/>
<path d="M1250 4655 l0 -285 140 0 140 0 0 285 0 285 -140 0 -140 0 0 -285z"/>
<path d="M11480 4655 l0 -285 145 0 145 0 -2 283 -3 282 -142 3 -143 3 0 -286z"/>
<path d="M1250 3830 l0 -290 140 0 140 0 0 290 0 290 -140 0 -140 0 0 -290z"/>
<path d="M11480 3830 l0 -291 143 3 142 3 0 285 0 285 -142 3 -143 3 0 -291z"/>
<path d="M4655 3846 c-199 -39 -295 -121 -295 -253 1 -139 102 -255 222 -255
100 0 217 89 234 176 10 57 -35 125 -51 75 -10 -29 -72 -97 -106 -115 -61 -31
-140 -11 -153 41 -22 87 104 176 274 191 115 11 179 -15 390 -161 130 -91 193
-121 282 -135 202 -32 308 96 237 286 -55 145 -200 204 -296 119 l-28 -24 35
-1 c72 -1 150 -55 150 -103 0 -30 -70 -94 -118 -106 -81 -22 -153 10 -396 176
-58 40 -122 77 -143 82 -67 18 -166 21 -238 7z"/>
<path d="M8313 3846 c-88 -28 -148 -83 -172 -158 -10 -29 -9 -43 3 -72 17 -42
29 -45 44 -12 16 35 71 95 103 112 15 7 48 14 73 14 36 0 48 -5 65 -26 25 -32
26 -55 6 -94 -38 -73 -152 -122 -290 -123 -113 -1 -146 13 -351 151 -201 136
-311 172 -426 138 -114 -33 -156 -140 -107 -272 38 -101 116 -168 196 -166 39
0 123 36 123 52 0 4 -20 10 -45 13 -25 4 -59 14 -75 22 -27 14 -60 60 -60 84
0 22 63 81 105 97 80 30 159 1 348 -129 67 -46 141 -94 163 -105 61 -31 152
-43 243 -32 152 20 254 70 308 152 73 110 -7 314 -140 353 -59 18 -59 18 -114
1z"/>
<path d="M1250 3005 l0 -285 140 0 140 0 0 285 0 285 -140 0 -140 0 0 -285z"/>
<path d="M11480 3005 l0 -286 143 3 142 3 3 283 2 282 -145 0 -145 0 0 -285z"/>
<path d="M1250 2280 l0 -140 250 0 250 0 0 140 0 140 -250 0 -250 0 0 -140z"/>
<path d="M2000 2280 l0 -140 285 0 285 0 0 140 0 140 -285 0 -285 0 0 -140z"/>
<path d="M2820 2280 l0 -140 285 0 285 0 0 140 0 140 -285 0 -285 0 0 -140z"/>
<path d="M3640 2280 l0 -140 285 0 285 0 0 140 0 140 -285 0 -285 0 0 -140z"/>
<path d="M4470 2280 l0 -140 285 0 285 0 0 140 0 140 -285 0 -285 0 0 -140z"/>
<path d="M5290 2280 l0 -140 285 0 285 0 0 140 0 140 -285 0 -285 0 0 -140z"/>
<path d="M6110 2280 l0 -140 285 0 285 0 0 140 0 140 -285 0 -285 0 0 -140z"/>
<path d="M6930 2280 l0 -140 290 0 290 0 0 140 0 140 -290 0 -290 0 0 -140z"/>
<path d="M7760 2280 l0 -140 285 0 285 0 0 140 0 140 -285 0 -285 0 0 -140z"/>
<path d="M8580 2280 l0 -140 285 0 285 0 0 140 0 140 -285 0 -285 0 0 -140z"/>
<path d="M9400 2280 l0 -140 288 0 287 0 -3 140 -3 140 -285 0 -284 0 0 -140z"/>
<path d="M10230 2280 l0 -140 285 0 285 0 0 140 0 140 -285 0 -285 0 0 -140z"/>
<path d="M11050 2280 l0 -140 360 0 360 0 0 58 c0 31 -3 94 -7 140 l-6 82
-353 0 -354 0 0 -140z"/>
<path d="M1745 1960 c-163 -22 -355 -125 -470 -253 -70 -77 -173 -229 -180
-265 -3 -15 -14 -56 -25 -92 -10 -36 -24 -95 -30 -131 -37 -215 117 -541 319
-679 l51 -35 0 -135 c0 -74 4 -140 8 -147 15 -23 81 -43 164 -49 75 -6 86 -4
110 15 28 22 48 89 48 159 0 21 6 44 13 51 10 11 9 13 -3 9 -9 -3 -18 -31 -26
-86 -6 -45 -19 -93 -28 -107 -15 -23 -22 -25 -94 -25 -92 0 -157 25 -172 65
-6 16 -7 67 -4 124 8 109 -3 143 -56 174 -15 9 -56 48 -93 86 -201 214 -267
498 -174 752 54 148 72 177 181 285 199 200 366 274 616 273 158 0 254 -24
423 -106 64 -31 117 -60 117 -65 0 -4 7 -8 15 -8 19 0 85 -58 85 -75 0 -13 29
-29 38 -21 8 9 -38 60 -90 99 -28 21 -101 62 -162 91 -104 49 -129 59 -231 86
-52 14 -273 21 -350 10z"/>
<path d="M7280 1960 c-175 -26 -334 -112 -461 -248 -82 -88 -189 -245 -189
-278 0 -13 -9 -47 -19 -76 -26 -71 -41 -148 -41 -209 0 -65 26 -191 53 -254
56 -134 166 -277 274 -356 l52 -39 -5 -123 c-3 -89 -1 -129 9 -147 16 -32 70
-50 174 -57 77 -6 82 -5 106 19 25 25 47 100 47 161 0 18 6 39 13 46 10 11 9
13 -3 9 -10 -3 -19 -27 -26 -69 -23 -142 -29 -149 -122 -149 -88 0 -136 14
-163 48 -20 25 -21 34 -14 129 8 123 1 141 -80 203 -188 145 -319 454 -286
670 13 79 68 240 105 303 30 51 211 230 279 276 63 43 178 95 247 112 34 9
112 14 205 14 207 0 276 -20 510 -147 93 -50 124 -74 136 -105 5 -13 15 -23
24 -23 24 0 18 13 -26 58 -74 74 -271 176 -414 213 -89 23 -291 33 -385 19z"/>
<path d="M2694 1467 c97 -219 42 -528 -132 -736 -34 -40 -63 -81 -64 -90 -1
-9 -2 -80 -2 -159 -1 -137 -2 -144 -24 -162 -27 -23 -118 -50 -188 -57 -47 -5
-51 -4 -57 18 -4 13 -7 50 -7 81 0 31 -5 69 -10 83 -9 23 -14 26 -38 20 -46
-11 -52 -23 -52 -95 0 -89 -9 -129 -30 -140 -10 -6 -70 -13 -134 -16 l-116 -7
0 79 c0 110 -5 124 -44 123 -29 -1 -30 -1 -6 -8 24 -7 25 -10 28 -98 2 -65 7
-95 17 -103 11 -9 48 -11 141 -5 164 9 164 9 164 144 0 94 1 99 23 105 12 3
25 6 30 6 4 0 7 -36 7 -79 0 -44 5 -92 10 -107 10 -26 12 -26 67 -20 57 7 143
28 195 48 42 16 50 57 43 205 -7 124 -6 129 16 160 155 209 200 313 224 513 9
72 -16 219 -48 293 -14 31 -28 57 -31 57 -3 0 6 -24 18 -53z"/>
<path d="M8279 1205 c-11 -178 -60 -317 -158 -443 -100 -130 -93 -111 -87
-252 7 -173 1 -188 -87 -218 -37 -12 -95 -25 -127 -29 l-60 -6 -2 44 c0 24 0
54 1 67 1 12 -3 40 -9 63 -10 38 -13 40 -38 34 -49 -11 -62 -38 -62 -129 0
-44 -4 -87 -9 -95 -11 -16 -91 -29 -192 -30 l-67 -1 -8 98 -9 97 -30 3 -30 3
25 -13 c23 -13 25 -20 30 -108 l5 -95 135 3 c133 2 135 3 159 29 22 25 23 33
19 115 -5 78 -3 90 13 98 41 23 46 15 48 -81 3 -123 2 -122 70 -115 91 9 204
43 224 67 18 23 20 43 17 219 l-1 105 60 80 c126 165 185 338 179 517 l-3 83
-6 -110z"/>
<path d="M1553 1219 c-57 -11 -97 -33 -143 -79 -100 -100 -150 -300 -101 -405
42 -91 132 -139 261 -140 77 0 92 3 152 33 112 55 168 148 168 281 0 80 -18
137 -60 194 -63 86 -179 135 -277 116z"/>
<path d="M7080 1216 c-136 -36 -236 -172 -247 -337 -8 -115 0 -143 60 -203 78
-78 186 -103 302 -72 68 18 104 38 147 83 81 84 110 226 68 337 -37 98 -125
176 -215 191 -22 4 -47 8 -55 10 -8 2 -35 -2 -60 -9z"/>
<path d="M2250 1162 c-89 -43 -170 -166 -170 -257 0 -72 26 -114 91 -148 50
-27 61 -29 140 -25 73 3 93 9 139 35 118 66 131 191 34 319 -36 46 -119 94
-164 94 -19 0 -51 -8 -70 -18z"/>
<path d="M7783 1159 c-73 -36 -150 -141 -167 -228 -15 -79 40 -165 121 -189
90 -27 223 -6 284 45 34 29 68 94 69 129 0 48 -35 128 -78 175 -78 87 -148
108 -229 68z"/>
<path d="M4425 921 c6 -11 4 -13 -8 -8 -12 4 -15 1 -11 -17 3 -16 -4 -26 -25
-39 -16 -9 -36 -17 -44 -17 -9 0 -14 -10 -14 -25 0 -13 3 -22 8 -20 4 3 10 1
14 -5 3 -5 -1 -10 -9 -10 -8 0 -16 -8 -18 -17 -2 -12 -13 -18 -38 -18 -33 -1
-35 -3 -35 -35 0 -35 -14 -62 -27 -54 -4 2 -9 -5 -13 -16 -7 -23 -22 -27 -22
-5 0 8 4 12 9 9 4 -3 8 -1 8 4 0 17 -26 20 -28 3 -6 -52 -18 -75 -38 -67 -8 3
-11 0 -7 -10 3 -7 0 -14 -6 -14 -6 0 -11 7 -11 15 0 16 -12 20 -23 8 -4 -3 1
-12 11 -19 15 -11 14 -13 -10 -25 -15 -6 -30 -20 -34 -31 -3 -10 -10 -16 -15
-13 -5 4 -9 1 -9 -4 0 -6 -4 -11 -10 -11 -5 0 -8 6 -6 13 1 6 1 9 -1 5 -3 -4
-15 -3 -28 2 -16 6 -25 5 -28 -4 -4 -9 2 -12 18 -8 12 2 26 -1 29 -7 5 -7 0
-9 -11 -5 -13 4 -15 3 -5 -4 11 -7 11 -10 -2 -15 -9 -4 -16 -2 -16 4 0 6 -5 7
-11 3 -8 -4 -7 -9 2 -15 13 -8 5 -13 -14 -10 -5 1 -6 -3 -2 -9 3 -5 -1 -10
-10 -10 -10 0 -14 5 -10 13 4 6 0 3 -9 -8 -28 -37 -37 -45 -47 -45 -6 0 -8 4
-5 9 3 5 0 11 -7 14 -7 3 -14 -3 -14 -14 -1 -10 1 -18 5 -16 4 1 7 -2 7 -8 0
-5 -3 -9 -7 -7 -5 1 -8 -3 -8 -9 0 -5 -5 -7 -12 -3 -7 4 -8 3 -4 -4 9 -16 -7
-15 -22 0 -8 8 -18 9 -36 1 -17 -8 -27 -8 -35 0 -8 8 -14 8 -22 0 -13 -13 54
-58 75 -50 40 16 346 260 437 348 118 116 186 197 155 186 -16 -6 -17 -5 -6 8
7 8 18 15 24 15 6 0 19 14 29 32 14 24 15 34 6 42 -9 8 -10 7 -4 -3z"/>
<path d="M9846 818 c2 -4 14 -5 25 -3 18 4 19 2 8 -11 -7 -8 -19 -12 -27 -9
-11 4 -13 0 -9 -17 7 -27 -21 -52 -40 -36 -7 6 -14 8 -14 4 -1 -3 -2 -12 -3
-18 -1 -7 -7 -12 -12 -11 -6 1 -11 -5 -11 -13 0 -10 7 -9 24 8 27 25 30 18 7
-17 -9 -14 -20 -22 -26 -19 -5 3 -12 -3 -15 -15 -3 -11 -9 -18 -14 -15 -5 3
-7 9 -5 13 3 4 -1 8 -9 8 -10 0 -11 -5 -5 -17 9 -17 4 -30 -12 -30 -4 0 -7 3
-5 8 1 4 -2 8 -8 10 -13 3 -14 -19 -2 -35 9 -13 -1 -17 -29 -14 -6 1 -17 -6
-24 -14 -7 -8 -17 -15 -22 -15 -7 0 -6 5 1 13 8 10 7 14 -3 14 -8 0 -13 -11
-13 -26 0 -57 -2 -64 -23 -58 -12 3 -17 1 -14 -5 7 -11 -25 -37 -47 -38 -9 0
-24 -11 -35 -24 -10 -14 -21 -23 -26 -20 -4 3 -8 0 -8 -7 0 -7 -8 -5 -20 6
-11 10 -23 16 -26 12 -3 -3 4 -11 16 -17 17 -9 19 -15 10 -23 -9 -9 -15 -7
-26 7 -7 11 -17 16 -21 12 -4 -4 -1 -11 7 -16 8 -5 11 -12 7 -16 -3 -4 -13 -1
-22 6 -12 10 -15 10 -15 -4 0 -9 3 -15 8 -14 4 2 7 -1 7 -7 0 -5 -15 -9 -32
-8 -18 1 -32 -1 -31 -5 1 -4 -2 -15 -7 -25 -4 -10 -5 -21 -1 -24 16 -16 304
205 448 345 101 98 116 117 106 130 -11 13 -11 14 0 8 20 -12 55 23 41 40 -11
14 -61 16 -53 2z"/>
<path d="M1952 775 c-19 -24 -59 -151 -51 -159 2 -2 54 1 116 7 99 10 112 13
117 31 5 16 -9 35 -58 84 -70 68 -94 75 -124 37z"/>
<path d="M7484 768 c-23 -44 -54 -147 -46 -152 4 -2 57 1 119 7 105 10 112 12
116 34 3 18 -9 35 -60 83 -75 71 -104 77 -129 28z"/>
</g>
</svg>
