<?xml version="1.0" standalone="no"?>
<!DOCTYPE svg PUBLIC "-//W3C//DTD SVG 20010904//EN"
 "http://www.w3.org/TR/2001/REC-SVG-20010904/DTD/svg10.dtd">
<svg version="1.0" xmlns="http://www.w3.org/2000/svg"
 width="852.000000pt" height="825.000000pt" viewBox="0 0 852.000000 825.000000"
 preserveAspectRatio="xMidYMid meet">
<metadata>
Created by potrace 1.12, written by Peter Selinger 2001-2015
</metadata>
<g transform="translate(0.000000,825.000000) scale(0.100000,-0.100000)"
fill="#000000" stroke="none">
<path d="M3913 8168 c-17 -18 -48 -59 -68 -91 -20 -32 -45 -67 -55 -77 -40
-40 -83 -246 -84 -400 0 -94 3 -112 28 -167 32 -70 106 -147 177 -183 29 -16
68 -25 116 -28 64 -4 79 -1 127 22 98 48 145 156 132 301 -4 38 -7 80 -7 91 0
12 -21 50 -47 85 -79 107 -160 132 -264 80 -21 -10 -38 -17 -38 -15 0 9 67
126 113 198 72 112 68 145 -25 192 -61 31 -68 30 -105 -8z m127 -553 c30 -15
60 -61 60 -89 0 -29 -24 -67 -46 -72 -33 -9 -92 14 -111 42 -27 42 5 134 48
134 11 0 33 -7 49 -15z"/>
<path d="M5684 7925 c-4 -8 -16 -15 -29 -15 -34 0 -44 -19 -42 -80 l2 -54 65
-38 c54 -32 133 -66 235 -102 16 -6 10 -12 -38 -39 -32 -18 -88 -54 -125 -82
-93 -69 -351 -323 -359 -352 -4 -19 1 -32 25 -55 24 -25 39 -31 82 -33 49 -3
57 1 119 45 36 26 134 85 216 130 179 98 258 153 315 217 26 30 65 59 103 78
52 25 63 35 65 58 3 22 -5 36 -31 60 -38 36 -147 102 -222 134 -135 59 -347
143 -361 143 -8 0 -17 -7 -20 -15z"/>
<path d="M2198 7666 c-79 -33 -127 -62 -203 -126 -42 -36 -65 -62 -65 -77 0
-21 143 -367 162 -390 18 -23 56 -15 75 15 27 43 76 93 102 103 37 15 79 -7
102 -53 26 -51 34 -125 17 -158 -22 -41 -75 -70 -128 -70 -65 0 -82 -15 -86
-81 -2 -30 -6 -64 -9 -76 -17 -75 160 -100 287 -41 72 34 142 103 176 176 23
49 27 70 27 152 0 83 -4 101 -27 146 -74 142 -248 209 -399 155 -33 -13 -63
-20 -66 -18 -3 3 -6 20 -6 38 -2 30 2 34 88 81 94 51 145 96 145 128 0 30 -30
53 -60 46 -24 -4 -27 -2 -22 20 5 28 -13 54 -37 54 -9 0 -42 -11 -73 -24z"/>
<path d="M4314 6819 c-657 -36 -1265 -290 -1780 -746 -61 -54 -149 -127 -195
-163 -121 -93 -328 -303 -453 -460 -153 -193 -248 -339 -352 -545 -219 -436
-324 -860 -324 -1309 1 -773 267 -1453 774 -1975 416 -428 916 -679 1546 -778
92 -14 174 -18 410 -18 315 1 432 13 677 68 64 15 104 20 106 13 2 -5 42 6 90
27 48 21 132 53 188 73 136 47 280 111 424 189 66 35 206 107 310 159 197 98
362 200 525 326 122 94 386 358 480 480 278 360 472 776 559 1195 156 758 2
1552 -425 2187 -114 170 -188 262 -329 407 -583 602 -1389 916 -2231 870z
m-847 -427 c-3 -4 -42 -25 -87 -47 -70 -34 -80 -42 -76 -61 5 -19 0 -23 -42
-33 -388 -96 -827 -331 -1142 -614 -30 -28 -12 -7 40 44 140 138 447 369 490
369 9 0 31 11 50 25 19 14 39 25 46 25 7 0 60 22 118 49 58 28 114 49 123 48
10 0 101 39 202 87 194 94 292 132 278 108z m888 -117 c197 -31 401 -83 415
-105 3 -5 37 -15 76 -24 107 -22 359 -132 371 -161 3 -8 14 -15 24 -15 21 0
89 -31 89 -40 0 -4 29 -22 65 -40 37 -19 68 -37 71 -42 3 -4 -2 -18 -10 -30
-9 -12 -16 -26 -16 -30 0 -5 28 -8 63 -8 l63 0 105 -84 c133 -107 300 -274
401 -401 43 -55 83 -106 89 -112 37 -47 159 -246 204 -334 41 -80 51 -109 43
-117 -9 -9 -8 -12 5 -12 11 0 24 -13 31 -32 12 -27 12 -35 -1 -55 -13 -19 -13
-24 -2 -27 8 -2 21 -6 30 -9 19 -6 105 -250 94 -267 -3 -5 -2 -10 4 -10 10 0
55 -180 67 -267 4 -37 3 -57 -6 -68 -11 -13 -9 -19 8 -36 15 -13 23 -33 24
-62 2 -59 4 -87 13 -209 6 -91 5 -111 -8 -132 -15 -22 -15 -25 -1 -30 9 -4 13
-13 10 -23 -3 -10 -8 -65 -11 -121 -3 -57 -8 -109 -12 -115 -4 -6 -6 -24 -5
-39 3 -39 -42 -257 -82 -396 -93 -320 -276 -668 -493 -937 -88 -108 -245 -272
-287 -300 -26 -18 -26 -17 -127 51 -56 38 -103 73 -106 77 -7 12 36 65 196
235 194 208 223 246 287 379 30 62 59 113 65 113 6 0 8 7 5 15 -3 9 11 48 30
88 244 483 305 1094 164 1648 -87 339 -272 696 -502 964 -208 243 -521 492
-783 623 -237 118 -504 192 -803 223 -168 17 -545 7 -697 -20 -400 -69 -709
-212 -1055 -488 -106 -84 -296 -273 -379 -376 -294 -363 -472 -806 -522 -1291
-16 -163 -7 -465 20 -621 48 -281 144 -560 273 -790 61 -109 201 -316 274
-406 257 -315 714 -605 1156 -734 239 -70 426 -95 706 -95 397 0 632 49 935
194 76 36 142 66 147 66 13 0 280 -171 280 -179 0 -4 -62 -39 -137 -78 -405
-208 -799 -303 -1258 -303 -437 0 -830 93 -1210 285 -670 340 -1160 921 -1381
1637 -127 411 -147 878 -58 1333 59 303 182 616 349 885 202 324 506 635 825
842 369 240 783 383 1245 432 95 10 533 -3 630 -19z m882 -7 l48 -21 -75 -18
c-158 -38 -346 -62 -326 -41 8 8 274 100 293 101 6 1 33 -9 60 -21z m192 -85
c34 -15 61 -30 61 -34 0 -3 -19 -9 -42 -13 -64 -9 -308 -20 -308 -13 0 3 35
17 78 32 42 14 88 32 102 40 34 19 40 19 109 -12z m327 -194 c2 -4 -29 -17
-69 -29 -79 -24 -267 -40 -267 -23 0 12 67 42 168 74 43 14 72 28 72 37 0 8
17 1 46 -20 25 -18 48 -36 50 -39z m118 -92 l48 -43 -171 -17 c-125 -12 -177
-14 -192 -7 -11 6 -17 15 -14 21 17 27 188 86 255 88 16 0 43 -15 74 -42z
m-2114 14 c-8 -5 -82 -29 -165 -54 -144 -44 -156 -46 -297 -49 -80 -2 -141 0
-135 4 19 13 187 65 248 77 118 24 382 41 349 22z m299 -17 c7 -7 3 -8 -140
-52 -118 -36 -149 -42 -227 -42 -50 0 -93 4 -96 8 -2 4 62 29 142 54 140 45
151 47 232 42 47 -3 87 -7 89 -10z m396 -76 l40 -11 -60 -19 c-51 -16 -169
-35 -385 -63 -31 -4 -11 6 65 30 61 20 142 47 180 60 70 24 83 24 160 3z
m-1160 -58 c-4 -6 -4 -17 -1 -25 4 -12 18 -10 77 10 58 20 93 25 171 25 54 0
98 -4 98 -9 0 -5 -20 -14 -45 -20 -27 -7 -45 -17 -45 -26 0 -24 16 -25 76 -5
33 10 51 14 40 7 -10 -7 -42 -30 -70 -52 -38 -30 -47 -40 -33 -43 15 -3 418
50 487 64 73 15 -27 -19 -210 -71 -113 -32 -208 -61 -212 -64 -4 -3 -3 -13 2
-20 7 -12 71 3 377 92 326 94 483 131 483 114 0 -3 -17 -11 -37 -18 -125 -40
-296 -149 -332 -211 -24 -43 -26 -42 69 -28 125 19 136 20 115 11 -11 -5 -111
-33 -222 -62 -112 -30 -203 -56 -203 -59 1 -33 25 -29 446 84 556 148 540 145
408 82 -95 -45 -198 -113 -243 -160 l-35 -36 81 0 c89 0 188 16 363 60 142 35
285 62 308 58 13 -3 -296 -103 -570 -185 -44 -13 -61 -34 -40 -47 4 -3 165 44
358 105 192 60 356 106 364 103 9 -3 -28 -27 -98 -63 -121 -62 -172 -103 -203
-163 l-19 -37 47 -7 c25 -4 103 -4 172 0 69 3 178 8 241 12 l115 5 -92 -49
c-50 -27 -108 -63 -129 -78 l-37 -29 48 -14 c43 -12 59 -11 135 4 137 28 139
28 80 -4 -60 -32 -128 -96 -116 -108 4 -5 68 -9 143 -9 l135 -2 24 -48 c13
-27 24 -66 24 -87 0 -41 -3 -40 58 -22 13 4 40 4 61 0 l38 -6 6 -72 c7 -76 31
-172 46 -182 5 -3 17 -2 26 2 15 5 17 15 11 76 -4 39 -9 82 -11 96 -8 43 84
-155 137 -294 56 -148 108 -339 135 -500 14 -87 18 -164 18 -365 0 -226 -3
-268 -23 -367 -27 -137 -44 -184 -34 -98 12 107 9 130 -14 133 -18 3 -22 -5
-34 -70 -27 -152 -120 -442 -161 -499 -20 -28 -25 -30 -62 -24 -39 7 -40 6
-35 -18 4 -23 -1 -28 -41 -46 -26 -11 -68 -25 -94 -31 -36 -10 -47 -17 -47
-32 0 -18 5 -19 81 -12 100 8 105 -9 12 -43 -52 -19 -312 -76 -383 -85 -14 -2
-26 -11 -28 -21 -3 -13 4 -17 32 -17 47 0 231 36 312 61 36 11 68 19 70 16 16
-16 -63 -42 -266 -87 -272 -61 -269 -60 -261 -81 5 -14 32 -10 221 32 118 26
216 46 217 45 2 -2 -28 -29 -67 -61 -57 -48 -82 -62 -139 -77 -71 -18 -226
-72 -249 -86 -7 -5 -10 -16 -6 -25 5 -13 20 -17 73 -18 56 0 62 -2 39 -11 -30
-10 -36 -25 -14 -34 11 -4 113 18 193 41 21 7 23 9 -94 -68 -40 -27 -73 -52
-73 -56 0 -5 23 -6 50 -3 28 2 50 1 50 -4 0 -8 -64 -64 -73 -64 -2 0 -87 87
-188 193 -100 105 -367 386 -593 622 -603 634 -627 658 -642 643 -11 -11 77
-167 456 -822 258 -445 467 -813 465 -817 -3 -4 -36 -10 -73 -14 -74 -7 -85
-12 -94 -36 -4 -10 -24 -19 -50 -23 -23 -4 -67 -14 -95 -22 -42 -12 -53 -20
-53 -36 0 -19 4 -20 69 -14 38 4 103 15 146 25 42 10 73 15 68 11 -17 -16
-305 -121 -498 -181 -110 -34 -205 -69 -211 -77 -17 -23 -399 -11 -557 17
-367 65 -735 204 -984 372 -195 132 -421 345 -556 524 -39 52 -102 159 -151
255 -389 765 -435 1452 -145 2129 169 392 464 756 814 1002 82 58 323 199 339
199 5 0 0 -10 -12 -23 -46 -49 -13 -69 34 -21 49 48 160 80 287 83 38 1 56 -3
52 -9z m1433 -26 c20 -9 33 -18 27 -20 -44 -15 -489 -133 -492 -130 -14 14
362 164 415 166 7 0 29 -7 50 -16z m1176 -31 l106 -6 -39 -18 c-21 -9 -56 -33
-78 -53 l-39 -35 -65 59 -64 59 36 1 c20 0 84 -3 143 -7z m-1027 -28 c20 -8
34 -18 31 -21 -22 -21 -615 -133 -649 -122 -11 4 533 156 564 157 10 1 34 -6
54 -14z m1282 -29 l43 -44 -58 -8 c-74 -10 -183 -10 -209 0 -18 6 -16 9 14 28
27 18 143 66 161 67 3 1 25 -19 49 -43z m-1075 -70 c34 -20 37 -24 20 -29 -98
-30 -498 -136 -501 -133 -12 12 209 120 327 160 93 32 105 32 154 2z m354
-219 c23 -17 42 -33 42 -37 0 -4 -67 -33 -149 -64 -133 -51 -156 -57 -212 -54
l-63 3 34 33 c18 19 52 45 74 59 60 38 209 102 221 96 5 -4 29 -20 53 -36z
m266 -226 l37 -38 -63 -6 c-35 -3 -103 -15 -151 -27 -49 -12 -96 -19 -105 -17
-14 3 219 127 238 127 3 0 23 -17 44 -39z m135 -165 c26 -39 62 -99 79 -133
l32 -61 -60 1 c-37 1 -60 6 -60 13 0 9 -54 136 -65 151 -1 2 -43 -1 -93 -6
-51 -4 -103 -6 -117 -3 l-26 5 33 22 c18 12 56 34 85 50 29 15 62 38 74 51
l23 24 23 -22 c12 -11 45 -53 72 -92z m912 -242 c11 -26 18 -48 17 -48 -2 -1
-16 -10 -33 -21 -41 -26 -225 -36 -225 -12 0 22 76 73 152 102 35 13 64 24 66
25 1 0 12 -21 23 -46z m88 -270 c7 -26 8 -50 4 -54 -7 -7 -155 -30 -191 -30
-24 0 32 55 102 100 33 22 63 37 66 35 4 -3 13 -26 19 -51z m76 -408 c12 -75
8 -80 -68 -90 -82 -10 -150 1 -155 26 -2 12 13 25 50 44 47 24 142 61 160 63
4 1 10 -19 13 -43z m-55 -814 c0 -32 -25 -124 -36 -133 -17 -14 -144 -25 -144
-13 0 5 26 35 58 65 77 75 122 105 122 81z m-2188 -679 c276 -291 563 -590
636 -667 l134 -138 -31 -32 c-35 -36 -37 -42 -16 -50 10 -3 26 6 43 24 l27 30
120 -81 c66 -44 126 -86 133 -93 10 -10 -20 -36 -152 -134 -91 -67 -168 -122
-172 -122 -11 0 -292 181 -307 199 -9 9 -27 38 -41 65 -14 27 -30 54 -35 60
-5 6 -192 328 -416 716 -225 388 -415 715 -423 728 -8 12 -12 22 -9 22 3 0
232 -237 509 -527z m1908 22 l-85 -85 58 0 c38 0 56 -4 52 -10 -4 -6 -42 -31
-86 -57 -79 -46 -95 -67 -61 -81 16 -6 10 -15 -41 -62 -33 -30 -58 -50 -56
-45 2 6 28 57 58 115 30 58 71 148 92 200 l38 95 53 11 c29 6 55 9 57 7 3 -2
-33 -42 -79 -88z"/>
<path d="M7230 6722 c-65 -32 -95 -130 -71 -233 l8 -36 -96 1 c-195 2 -311
-83 -311 -228 0 -117 72 -231 178 -283 49 -24 69 -28 142 -28 70 0 93 4 129
23 86 46 130 119 131 214 l0 56 37 -10 c91 -25 196 16 256 100 25 34 32 55 35
106 7 108 -56 254 -125 290 -87 44 -251 59 -313 28z m-110 -467 c34 -18 50
-43 50 -80 0 -85 -69 -92 -134 -15 -60 72 -1 139 84 95z"/>
<path d="M688 6289 c-24 -13 -40 -45 -49 -94 -4 -22 -10 -49 -14 -60 -8 -26
53 -125 209 -344 65 -91 132 -191 149 -223 29 -52 56 -76 80 -70 4 1 17 -3 28
-8 37 -21 57 -2 114 108 30 59 65 120 78 136 l24 29 57 -32 c75 -43 92 -38
134 39 40 71 36 92 -19 120 -21 11 -39 23 -39 27 0 4 14 21 31 39 23 24 29 38
24 53 -9 30 -40 44 -65 31 -18 -10 -19 -8 -11 14 11 26 -6 58 -40 76 -27 15
-52 -1 -90 -58 -18 -26 -33 -48 -34 -50 -1 -1 -67 39 -146 90 -254 163 -366
210 -421 177z"/>
<path d="M8070 5021 c-46 -14 -105 -49 -132 -78 -33 -34 -44 -63 -53 -134 -7
-58 8 -114 42 -151 21 -24 12 -23 -45 6 -87 43 -290 116 -308 109 -9 -3 -27
-31 -41 -61 -33 -75 -23 -89 109 -140 503 -197 806 -171 825 69 6 77 -17 185
-52 245 -33 56 -96 109 -153 128 -47 17 -149 20 -192 7z m161 -267 c22 -21 29
-37 29 -66 0 -53 -29 -67 -107 -50 -66 14 -93 35 -93 72 0 77 107 105 171 44z"/>
<path d="M235 4461 c-77 -20 -130 -68 -154 -140 -6 -19 -14 -77 -17 -130 -5
-84 -3 -103 16 -154 25 -65 108 -158 172 -192 36 -19 38 -19 57 0 33 29 27 89
-19 204 -22 54 -40 108 -40 119 0 32 21 82 39 91 45 25 164 -88 121 -114 -5
-3 -10 -19 -10 -35 0 -22 8 -33 36 -50 30 -19 45 -22 100 -17 83 6 98 18 90
73 -5 36 -2 46 21 68 84 84 226 -58 146 -146 -10 -11 -31 -18 -53 -18 -42 0
-60 -14 -60 -50 0 -14 -7 -34 -15 -44 -39 -51 -1 -86 93 -86 73 0 106 14 150
64 105 119 72 352 -65 465 -79 65 -170 75 -245 25 -47 -30 -51 -30 -96 6 -20
16 -54 36 -75 45 -45 19 -149 28 -192 16z"/>
<path d="M7571 3091 c-12 -12 -21 -25 -21 -31 0 -5 -8 -10 -18 -10 -23 0 -42
-19 -42 -43 0 -10 -7 -25 -15 -33 -18 -19 -19 -48 -2 -62 11 -9 147 -57 605
-213 160 -54 207 -67 223 -59 10 6 19 16 19 22 0 7 16 49 35 93 19 45 39 112
44 149 10 66 9 70 -17 102 -19 24 -35 34 -55 34 -51 0 -81 -22 -133 -98 -1 -2
-27 8 -58 22 -67 30 -150 53 -351 100 -82 20 -160 38 -172 42 -14 4 -28 -1
-42 -15z"/>
<path d="M1095 2825 c-45 -20 -69 -67 -61 -121 6 -48 44 -130 84 -181 31 -42
16 -43 -71 -3 -163 74 -328 99 -429 64 -105 -35 -182 -145 -182 -258 1 -103
54 -198 147 -259 85 -57 198 -81 261 -57 34 13 43 62 22 132 -20 69 -45 93
-95 90 -67 -4 -78 40 -26 103 l24 29 58 -12 c32 -8 99 -22 148 -33 50 -11 147
-23 217 -26 90 -4 131 -10 139 -19 15 -18 53 -18 68 -1 6 8 14 28 17 44 5 26
-13 68 -111 260 -64 125 -124 236 -132 246 -19 20 -36 20 -78 2z"/>
<path d="M7317 2570 c-49 -15 -95 -58 -122 -115 -24 -48 -27 -63 -22 -117 17
-191 79 -276 257 -349 41 -17 100 -43 130 -59 260 -134 511 -27 514 220 3 215
-229 383 -569 410 -60 5 -121 12 -135 14 -14 3 -38 1 -53 -4z m337 -248 c84
-42 226 -160 226 -188 0 -7 -12 -21 -26 -31 -22 -14 -35 -15 -88 -6 -117 20
-256 87 -299 144 -23 31 -26 91 -7 114 23 27 98 14 194 -33z"/>
<path d="M2086 1309 c-42 -40 -106 -108 -142 -153 -81 -100 -304 -431 -304
-451 0 -19 95 -90 145 -108 22 -8 68 -27 102 -42 52 -23 65 -26 78 -15 8 7 15
21 15 32 0 11 7 27 16 35 23 24 11 101 -22 130 -13 12 -24 24 -24 27 0 8 289
417 325 459 19 22 35 51 35 63 0 28 -32 48 -62 38 -12 -3 -18 -2 -15 3 10 16
-23 53 -48 53 -15 0 -50 -25 -99 -71z"/>
<path d="M6298 1293 c-14 -13 -22 -14 -41 -6 -50 23 -88 -37 -51 -78 9 -10 18
-32 20 -48 7 -56 280 -500 364 -591 26 -28 43 -53 38 -56 -17 -11 -7 -44 18
-61 25 -16 28 -16 73 7 25 13 83 60 127 105 45 44 90 85 100 91 11 7 19 23 20
40 0 16 4 42 9 57 12 43 -18 70 -67 62 -26 -5 -44 -2 -60 9 -33 23 -44 20 -93
-25 l-45 -42 6 31 c5 27 -7 52 -96 192 -110 173 -179 257 -249 302 -53 33 -52
33 -73 11z"/>
<path d="M5698 1008 c-23 -19 -26 -39 -12 -80 12 -34 4 -53 -11 -28 -10 17
-41 11 -60 -10 -18 -20 -18 -22 12 -93 143 -331 217 -495 247 -550 22 -39 36
-77 36 -99 0 -29 6 -38 41 -61 22 -15 48 -27 56 -27 19 0 162 76 251 132 63
41 75 63 48 90 -8 8 -11 26 -9 44 6 41 -18 60 -76 57 -25 -1 -66 -9 -90 -18
-25 -8 -48 -12 -51 -8 -4 5 -21 55 -39 113 -55 178 -183 417 -275 515 -37 38
-45 41 -68 23z"/>
</g>
</svg>
