<?xml version="1.0" encoding="UTF-8" standalone="no"?>
<!-- Created with Inkscape (http://www.inkscape.org/) -->

<svg
   xmlns:dc="http://purl.org/dc/elements/1.1/"
   xmlns:cc="http://creativecommons.org/ns#"
   xmlns:rdf="http://www.w3.org/1999/02/22-rdf-syntax-ns#"
   xmlns:svg="http://www.w3.org/2000/svg"
   xmlns="http://www.w3.org/2000/svg"
   xmlns:sodipodi="http://sodipodi.sourceforge.net/DTD/sodipodi-0.dtd"
   xmlns:inkscape="http://www.inkscape.org/namespaces/inkscape"
   width="744.09448819"
   height="1052.3622047"
   id="svg2"
   version="1.1"
   inkscape:version="0.48.4 r9939"
   sodipodi:docname="mini-logo.svg">
  <defs
     id="defs4" />
  <sodipodi:namedview
     id="base"
     pagecolor="#ffffff"
     bordercolor="#666666"
     borderopacity="1.0"
     inkscape:pageopacity="0.0"
     inkscape:pageshadow="2"
     inkscape:zoom="0.35"
     inkscape:cx="-127.85714"
     inkscape:cy="748.57143"
     inkscape:document-units="px"
     inkscape:current-layer="layer1"
     showgrid="false"
     inkscape:window-width="1305"
     inkscape:window-height="744"
     inkscape:window-x="61"
     inkscape:window-y="24"
     inkscape:window-maximized="1" />
  <metadata
     id="metadata7">
    <rdf:RDF>
      <cc:Work
         rdf:about="">
        <dc:format>image/svg+xml</dc:format>
        <dc:type
           rdf:resource="http://purl.org/dc/dcmitype/StillImage" />
        <dc:title></dc:title>
      </cc:Work>
    </rdf:RDF>
  </metadata>
  <g
     inkscape:label="Layer 1"
     inkscape:groupmode="layer"
     id="layer1">
    <path
       style="fill:none;stroke:#000000;stroke-width:2.39298415;stroke-opacity:1"
       d="m 75.394754,650.48536 c -2.63228,0.002 -9.09334,-1.96138 -14.3579,-4.36418 l -9.57194,-4.3687 -5.38421,-10.16277 -5.38422,-10.16279 0,-4.65516 c 0,-2.56033 2.12366,-8.81784 4.71921,-13.90556 l 4.7192,-9.25042 6.29199,-4.94927 6.292,-4.94929 8.56724,-1.60722 8.56724,-1.60722 12.72685,4.32599 12.726846,4.32599 0,6.96066 0,6.96066 -8.059766,-8.54582 -8.05973,-8.54583 -11.26821,0 -11.2682,0 -6.99486,6.99489 -6.99489,6.99486 0,12.99161 0,12.9916 5.45826,8.09951 5.45823,8.09949 6.14394,2.1607 6.14391,2.16069 8.99815,-1.68806 8.99815,-1.68805 5.72251,-6.17469 5.722506,-6.17472 0,3.48156 c 0,1.91484 -1.37489,5.36179 -3.05532,7.65991 l -3.055286,4.17837 -9.50788,2.20437 c -5.22931,1.21241 -11.66153,2.2064 -14.29382,2.20889 z m 48.896636,-1.61526 c -0.57032,0.41133 -4.8059,0.0325 -9.4124,-0.84159 -4.60649,-0.87418 -7.02939,-1.73121 -5.38421,-1.90446 l 2.99123,-0.31501 0,-22.25475 0,-22.25476 -2.87158,-2.87158 -2.87158,-2.87158 9.33264,0 9.33263,0 -2.87158,2.87158 -2.87158,2.87158 0,20.57967 0,20.57966 2.83169,2.83169 c 1.55745,1.55745 2.36508,3.16824 1.79474,3.57955 z m 33.66132,-0.28774 c -0.65807,0.56958 -4.96544,0.32033 -9.57194,-0.55385 -4.60649,-0.87418 -7.02939,-1.73121 -5.38421,-1.90446 l 2.99123,-0.31501 0,-22.73335 0,-22.73335 -7.06005,0 -7.06004,0 -2.43912,4.18772 -2.43912,4.18772 -0.0728,-6.5807 -0.0727,-6.58071 30.16833,0 30.16833,0 -1.25751,3.27703 -1.25752,3.27702 4.55579,7.4914 c 2.50569,4.12027 5.37926,7.48459 6.3857,7.47629 1.00647,-0.007 3.80205,-3.47885 6.21243,-7.71228 l 4.38251,-7.69713 -2.58777,-0.8626 c -1.42328,-0.47443 -2.58778,-1.84971 -2.58778,-3.05615 l 0,-2.19358 6.99685,0 6.99687,0 -9.38985,14.06139 -9.38983,14.06142 0,9.72721 0,9.72722 2.39298,1.47894 c 1.31614,0.81342 2.39298,2.27601 2.39298,3.2502 l 0,1.77124 -8.73221,-1.01944 -8.73222,-1.01943 3.94625,-2.20844 3.94625,-2.20844 0,-8.73848 0,-8.73849 -7.68457,-12.67946 c -4.22649,-6.97371 -8.59742,-12.67947 -9.71315,-12.67947 l -2.0286,0 1.47894,2.39298 1.47893,2.39299 -2.53419,0 -2.53422,0 0,-2.39299 0,-2.39298 -8.37545,0 -8.37544,0 0,22.53394 0,22.53392 2.99123,1.0683 c 1.64518,0.58757 2.45281,1.53431 1.79474,2.10386 z m 96.55421,1.95816 c -2.43338,-0.0299 -7.84762,-1.74271 -12.03164,-3.80609 l -7.60734,-3.75162 -3.75933,-7.92222 c -2.06766,-4.35724 -3.75936,-9.75043 -3.75936,-11.9849 0,-2.23447 1.76047,-7.77258 3.91215,-12.30693 l 3.91217,-8.24426 6.73745,-3.48406 6.73742,-3.48407 6.69954,0.01 6.69954,0.01 7.83686,4.77812 7.83683,4.77812 2.33335,6.13715 c 1.28334,3.37542 2.33333,8.81262 2.33333,12.08265 l 0,5.94552 -3.48407,6.73742 -3.48406,6.73745 -8.24426,3.91217 c -4.53435,2.15167 -10.2352,3.88761 -12.66858,3.85765 z m 2.13559,-4.73148 7.48954,0 5.53844,-5.20309 5.53845,-5.20311 0,-10.4355 0,-10.43549 -3.74737,-5.71921 -3.74739,-5.71921 -7.11058,-2.47877 -7.11059,-2.47877 -5.29469,2.02509 c -2.91207,1.11381 -7.32217,4.27597 -9.8002,7.02707 l -4.50556,5.00195 1.2789,11.34634 1.27889,11.34636 6.35133,5.46316 6.35132,5.46318 7.48951,0 z m 34.12082,3.58948 -8.37544,0 0,-1.79474 c 0,-0.98711 1.07684,-1.79474 2.39298,-1.79474 l 2.39299,0 0,-22.73335 0,-22.73335 -2.39299,0 c -1.31614,0 -2.39298,-1.07684 -2.39298,-2.39298 l 0,-2.39299 16.75089,0 16.75089,0 -0.0728,6.58071 -0.0727,6.5807 -2.43912,-4.18772 -2.43912,-4.18772 -8.25654,0 -8.25653,0 0,9.57194 0,9.57193 6.70035,0 6.70036,0 2.87158,-2.87158 2.87158,-2.87158 0,7.65755 0,7.65755 -2.39298,0 c -1.31615,0 -2.39299,-1.07684 -2.39299,-2.39298 l 0,-2.39299 -7.17895,0 -7.17895,0 0,10.76843 0,10.76843 2.39298,0 c 1.31614,0 2.39298,0.80763 2.39298,1.79474 l 0,1.79474 -8.37545,0 z m 116.05974,-0.92585 c -0.65807,0.5092 -7.65755,0.38742 -15.55439,-0.27065 l -14.35791,-1.19649 -12.91029,-13.75966 c -7.10066,-7.56781 -13.56947,-13.75966 -14.37514,-13.75966 l -1.46486,0 0.81773,11.36668 0.81773,11.36667 3.84459,2.99123 3.84462,2.99123 -11.7044,0 -11.7044,0 2.87158,-2.87158 2.87159,-2.87158 0,-26.92181 0,-26.92182 -4.18773,-2.43912 -4.18772,-2.43912 11.96492,-0.0361 11.96492,-0.0361 -2.72922,1.75808 -2.72922,1.7581 -0.86026,12.56482 -0.86025,12.56482 1.53328,-0.5999 c 0.84329,-0.32994 6.49671,-5.19866 12.56317,-10.81937 6.06643,-5.62069 11.02989,-11.18438 11.02989,-12.36374 0,-1.17936 -1.34606,-2.68744 -2.99124,-3.35128 l -2.99123,-1.207 11.96493,-0.10409 11.96492,-0.1041 -5.01917,2.90645 c -2.76052,1.59854 -10.6734,7.89462 -17.58412,13.9913 l -12.56499,11.08488 2.4223,4.52611 c 1.33227,2.48938 8.37303,10.15408 15.64614,17.03269 l 13.22387,12.50657 4.92921,0 4.92922,0 0,-20.75018 0,-20.75019 -3.96037,-4.37615 -3.96036,-4.37615 4.55861,0.17086 4.55861,0.17086 17.94738,20.26623 17.94738,20.26624 0.71993,-16.19256 0.71991,-16.19254 -3.71114,-2.71367 c -2.04114,-1.49243 -3.71116,-3.40251 -3.71116,-4.2445 l 0,-1.53094 6.95124,0 6.95126,0 -1.0918,10.17018 -1.0918,10.17019 3.77316,-6.55063 3.77314,-6.55063 6.99946,-3.61955 6.99945,-3.61956 6.22013,0 6.22013,0 7.24864,3.74842 7.24864,3.74842 3.59469,8.60333 3.59471,8.60335 -1.47161,7.84434 -1.47161,7.84437 -7.28202,6.12741 c -4.00509,3.37009 -9.83392,6.76791 -12.95296,7.55073 l -5.67094,1.42332 -8.68773,-2.86723 -8.68773,-2.8672 -4.59182,-7.53048 -4.59181,-7.53051 -0.01,8.97369 -0.01,8.97369 -1.79473,0.0491 c -0.98711,0.027 -9.55914,-8.31856 -19.04895,-18.54563 l -17.25415,-18.59479 -0.095,17.14973 -0.095,17.1497 2.99123,1.0683 c 1.64518,0.58757 2.45281,1.48494 1.79474,1.99417 z m 62.25662,-2.66363 9.18555,0 4.95965,-6.30518 4.95965,-6.30518 0,-9.21145 0,-9.21149 -6.87947,-7.69945 -6.87945,-7.69945 -9.19085,0.26053 -9.19086,0.26052 -4.27004,5.2733 -4.27006,5.2733 0,10.31972 0,10.31972 6.19517,7.36254 6.1952,7.36257 9.18551,0 z m 31.66801,2.79673 -7.77719,1.16033 0,-1.97852 c 0,-1.08821 0.96459,-1.97854 2.14351,-1.97854 1.17895,0 5.52612,-5.27129 9.66036,-11.71395 l 7.51681,-11.71396 -7.43689,-11.01939 c -4.0903,-6.06068 -8.43745,-11.0194 -9.66036,-11.0194 -1.22288,0 -2.22343,-1.07684 -2.22343,-2.39298 l 0,-2.39299 8.30035,0 8.30032,0 -1.26476,3.29591 -1.26474,3.29588 4.6466,7.64075 4.64663,7.64072 5.07695,-7.12992 5.07693,-7.12992 -1.46077,-3.80671 -1.46077,-3.80671 11.02445,0 11.02446,0 0,4.85807 c 0,2.67196 2.79199,11.55591 6.20441,19.74212 3.41242,8.18623 7.01812,15.7438 8.01266,16.79461 l 1.80826,1.91056 6.43311,-17.6385 6.43311,-17.63847 -1.54039,-4.01421 -1.54039,-4.01418 12.69954,0 12.69955,0 -2.87158,2.87158 -2.87158,2.87158 0,22.25476 0,22.25475 2.39298,0 c 1.31614,0 2.39298,0.86061 2.39298,1.91247 l 0,1.91248 -8.56956,-1.00046 -8.56959,-1.00044 2.58713,-2.58712 2.5871,-2.58711 0,-21.05826 0,-21.05826 -1.79473,0.0335 -1.79474,0.0335 -9.34303,23.29817 c -5.13867,12.814 -10.12428,24.1918 -11.07918,25.28401 l -1.73618,1.98586 -10.45765,-25.26302 -10.45768,-25.26302 -2.39298,-0.002 -2.39299,-0.002 -6.5807,9.30496 c -3.61939,5.1177 -6.58071,9.96359 -6.58071,10.76864 0,0.80502 2.89953,6.01718 6.44342,11.58257 3.54389,5.56539 8.05708,11.46493 10.02931,13.11011 l 3.58589,2.99123 -7.63633,0 -7.63632,0 0.59824,-1.92422 c 0.32904,-1.05835 -1.5311,-5.90414 -4.13364,-10.76843 -2.60256,-4.86432 -5.29467,-8.83591 -5.98246,-8.82578 -0.68781,0.01 -3.65712,4.23323 -6.59844,9.38463 l -5.34789,9.36622 2.95491,1.0055 2.95488,1.00549 -7.7772,1.16033 z m 152.55275,-0.0357 -15.5544,0.82845 0.82498,-23.41145 0.82498,-23.41145 -2.91272,-3.50962 -2.91274,-3.50962 8.66847,0 8.66844,0 0,2.39298 0,2.39299 -2.48279,0 -2.48277,0 0.68803,22.1351 0.68806,22.13511 5.39824,0.76652 5.39823,0.76652 7.16493,-3.57436 7.16493,-3.57432 -0.0366,1.61131 c -0.0191,0.88624 -0.82778,2.8538 -1.79474,4.37237 l -1.7581,2.76102 -15.5544,0.82845 z m -39.17899,-0.55696 -17.05614,-0.18881 2.99123,-1.207 2.99123,-1.207 0,-22.53391 0,-22.53395 -2.39299,0 c -1.31614,0 -2.39298,-1.07684 -2.39298,-2.39298 l 0,-2.39299 8.85404,0 8.85404,0 -2.87158,2.87159 -2.87158,2.87158 0,22.25475 0,22.25475 5.38421,-0.0143 5.38422,-0.0144 6.93673,-3.61755 c 3.81521,-1.98962 7.46841,-3.08587 8.1182,-2.43606 0.64982,0.64979 -0.18067,2.82274 -1.84551,4.82876 l -3.02701,3.6464 -17.05611,-0.1888 z m 73.99691,0 -16.87054,-0.18881 2.99123,-1.207 2.99123,-1.207 0,-22.53391 0,-22.53395 -2.39298,0 c -1.31614,0 -2.39299,-1.07684 -2.39299,-2.39298 l 0,-2.39299 16.75089,0 16.75089,0 -0.0727,6.58071 -0.0727,6.58071 -2.43912,-4.18772 -2.43912,-4.18773 -8.25654,0 -8.25654,0 0,9.57194 0,9.57194 6.70036,0 6.70035,0 2.87158,-2.87158 2.87159,-2.87159 0,7.65755 0,7.65755 -2.39299,0 c -1.31614,0 -2.39298,-1.07684 -2.39298,-2.39298 l 0,-2.39298 -7.17896,0 -7.17895,0 0,10.76842 0,10.76843 4.86283,0 c 2.67455,0 8.59718,-1.56032 13.16142,-3.46736 l 8.29853,-3.46753 0,1.7923 c 0,0.98574 -1.29221,3.08448 -2.87158,4.66385 l -2.87158,2.87158 -16.87054,-0.1888 z m -400.01776,-87.63889 -6.90921,1.2372 -7.51984,-1.81654 -7.5198,-1.81656 -17.00828,-11.30707 -17.00826,-11.30706 0,-2.48832 0,-2.4883 5.38422,1.69481 c 2.96131,0.93214 10.73389,3.2114 17.27239,5.06506 l 11.88818,3.37025 10.31902,0 10.31903,0 14.88405,-6.28637 14.88406,-6.28639 8.4875,-0.24107 8.48751,-0.24104 15.17025,6.80799 15.17023,6.80799 10.48352,-1.43691 10.48352,-1.43692 6.88651,-3.56117 c 3.78759,-1.95863 11.09478,-4.23407 16.23824,-5.05654 l 9.35171,-1.4954 18.00046,6.2129 18.00046,6.21293 14.18561,0 14.18561,0 16.73566,-4.78596 c 9.20462,-2.63229 18.08515,-4.78597 19.73451,-4.78597 l 2.99884,0 0,2.45221 0,2.45221 -6.5701,2.49794 c -3.61355,1.37388 -9.8054,4.95656 -13.75966,7.96155 -3.95424,3.00499 -10.5209,7.17905 -14.59253,9.27569 l -7.40299,3.81209 -11.74089,1.50517 -11.74089,1.50518 -16.20727,-6.15908 -16.20728,-6.15909 -8.91906,0.01 -8.91906,0.01 -16.61918,5.8189 -16.61918,5.8189 -7.31066,-1.44761 c -4.02086,-0.79444 -12.69488,-3.94555 -19.27558,-7.00072 l -11.96492,-5.55483 -7.17896,0 -7.17895,0 -12.23466,5.69678 c -6.72907,3.13326 -15.34382,6.25356 -19.14388,6.93403 z m 3.71171,-42.06057 -8.22794,2.19965 -7.75195,-1.65532 -7.75193,-1.65532 -12.63118,-7.6553 c -6.94714,-4.21041 -15.28796,-9.65931 -18.53512,-12.10867 l -5.90397,-4.45334 1.61361,-1.61362 1.61359,-1.61359 11.47214,4.38125 11.47213,4.38124 17.98732,0.0191 17.9873,0.0191 10.76843,-5.74338 10.76843,-5.74338 10.76843,-0.11414 10.76843,-0.11415 11.36675,5.35976 c 6.25169,2.94787 14.53412,5.99323 18.40537,6.76748 l 7.03863,1.40774 18.10881,-6.25354 18.10881,-6.25356 6.00623,0 6.00622,0 17.12312,5.98246 17.12312,5.98246 13.34249,-0.0309 13.34249,-0.0309 15.16934,-4.7551 c 8.34316,-2.61532 17.22711,-4.7551 19.74212,-4.7551 l 4.57277,0 0,2.45221 0,2.45221 -5.99727,2.28015 c -3.29851,1.25409 -11.58475,6.04301 -18.41387,10.64199 l -12.41659,8.36183 -12.57312,2.81374 -12.57315,2.81374 -18.66741,-6.64575 -18.66743,-6.64572 -8.56107,-0.0168 -8.56107,-0.0168 -13.66379,5.11227 -13.66382,5.11216 -8.88391,-0.0215 -8.88393,-0.0215 -11.96492,-5.88576 -11.96492,-5.88574 -9.60738,-0.0749 -9.60737,-0.0751 -8.48751,4.54904 c -4.66812,2.50196 -12.19008,5.53887 -16.71546,6.74869 z m 80.30262,-43.53399 -20.3305,1.69352 0,-3.4201 0,-3.42013 11.44416,-2.93305 c 6.29431,-1.61319 16.82641,-5.42667 23.40467,-8.47442 l 11.9605,-5.54135 20.26728,-17.00727 c 11.14703,-9.35401 25.1131,-19.65272 31.03574,-22.88605 l 10.76843,-5.87877 18.44474,-3.79018 18.44473,-3.7902 18.04827,0 18.04827,0 0,2.06352 0,2.06352 -13.41739,1.57695 -13.41736,1.57696 -12.30722,5.91806 -12.30718,5.91807 -22.42796,19.0314 -22.42796,19.0314 -11.07382,5.24846 c -6.0906,2.88664 -16.19325,6.61594 -22.45036,8.28732 -6.25707,1.67137 -20.52524,3.80094 -31.70704,4.73238 z m -59.2165,-6.06485 -18.54562,0.0144 0,-3.26422 0,-3.2642 10.51955,-1.44187 10.51954,-1.44187 12.81206,-5.69499 12.81204,-5.69499 26.32282,-19.75126 c 14.47756,-10.86321 30.09178,-21.67816 34.69828,-24.03324 4.60649,-2.35508 14.22433,-6.01601 21.37293,-8.13541 l 12.9975,-3.85344 16.31656,0 16.31656,0 0,2.22332 0,2.22332 -13.00156,2.69912 -13.00156,2.69912 -15.09234,9.75464 c -8.30076,5.36504 -21.50929,15.56167 -29.35224,22.65914 l -14.25994,12.9045 -16.87255,8.07276 c -9.27987,4.44002 -21.1799,9.25178 -26.44446,10.69281 l -9.57194,2.62008 -18.54563,0.0144 z m -0.1096,-19.13052 c -0.87437,0 -8.82458,-6.55646 -17.66709,-14.56992 -8.84253,-8.01344 -20.79774,-17.81761 -26.5671,-21.78705 l -10.48977,-7.21716 -12.90505,-4.53576 c -7.09779,-2.49466 -15.62408,-4.53576 -18.94732,-4.53576 l -6.04223,0 0,-2.39298 0,-2.39299 16.87676,0 16.87673,0 16.47393,3.74691 16.47392,3.74691 16.30377,11.54407 c 8.96704,6.34926 19.88388,15.29658 24.25962,19.88297 l 7.95588,8.33888 -10.50613,5.08595 c -5.77839,2.79726 -11.22154,5.08593 -12.09592,5.08593 z m 41.73985,-27.20469 -8.81901,7.40399 -13.11528,-11.59731 -13.11527,-11.59731 -13.49639,-7.21815 -13.49636,-7.21815 -4.90804,0 -4.90803,0 -1.32117,-2.13772 -1.32119,-2.1377 5.92379,-1.48679 5.92381,-1.48678 10.2123,1.47943 c 5.61679,0.81369 15.25453,2.90346 21.41721,4.64397 l 11.20488,3.16451 13.05926,8.35391 c 7.18259,4.59465 13.62608,9.27104 14.31888,10.39201 l 1.25959,2.0381 -8.81898,7.40399 z m 18.04908,-20.70821 c -0.24913,-0.0292 -3.1451,-2.24407 -6.43545,-4.92182 -3.29035,-2.67773 -10.63361,-6.95485 -16.31836,-9.50472 l -10.33587,-4.63609 1.63103,-5.39822 c 0.89706,-2.96902 4.29426,-8.24538 7.54932,-11.72524 l 5.91825,-6.32702 10.32188,-2.88994 10.32187,-2.88996 7.4782,1.6425 7.47817,1.64247 7.20757,6.06478 c 3.96417,3.33563 8.78417,9.11356 10.71112,12.83987 1.92693,3.72628 3.50352,7.36697 3.50352,8.09039 0,0.72342 -1.34605,1.32059 -2.99123,1.32701 -1.64518,0.007 -10.32527,3.77538 -19.28913,8.37544 -8.96383,4.60008 -16.50173,8.33981 -16.75089,8.31055 z m 53.9756,-22.8291 -5.39598,1.67545 -1.48033,-3.85768 c -0.81419,-2.12172 -1.07809,-4.20242 -0.58647,-4.62377 0.49164,-0.42136 8.43177,-1.4234 17.64476,-2.22677 l 16.75089,-1.46068 -10.76843,4.409 c -5.92263,2.42496 -13.19663,5.16296 -16.16444,6.08445 z m -96.90406,-1.28541 c -1.64518,-0.1309 -9.99071,-2.81315 -18.54563,-5.96071 l -15.5544,-5.72285 16.75089,1.46927 c 9.21299,0.80811 17.55853,1.93873 18.54563,2.51249 0.98711,0.57375 1.79474,2.59491 1.79474,4.49144 l 0,3.44825 -2.99123,-0.23787 z m 127.42641,-9.33405 -3.19064,0 1.59531,-1.59533 1.59533,-1.59531 1.59533,1.59531 1.59531,1.59533 -3.19064,0 z m -116.20427,-9.35169 -2.24845,3.80975 -13.05466,-14.24541 -13.05466,-14.24538 14.2948,9.23916 c 7.86212,5.08155 14.74853,9.77759 15.30308,10.43566 0.55458,0.65807 -0.002,2.91088 -1.24011,5.00622 z m 72.93115,4.47242 c -0.76777,0.0512 -2.11382,-0.6246 -2.99123,-1.50203 -0.87744,-0.87741 -1.59534,-2.39035 -1.59534,-3.36207 0,-0.97174 5.11501,-4.73938 11.36668,-8.37255 6.25167,-3.63317 14.05878,-8.17733 17.34914,-10.09813 l 5.98246,-3.49233 -14.35791,13.36695 c -7.89685,7.35179 -14.98606,13.40889 -15.7538,13.4602 z m -7.78572,-27.99134 -5.36814,16.18549 -3.97058,-3.02408 -3.97058,-3.02411 9.4435,-15.5544 c 5.1939,-8.55492 9.39634,-14.47755 9.33872,-13.16141 -0.0577,1.31614 -2.52043,9.67646 -5.47292,18.57851 z m -51.83948,13.67853 c -0.65807,0.0144 -4.0626,-8.04605 -7.56564,-17.91074 -3.50302,-9.86467 -6.04618,-17.93578 -5.65148,-17.93578 0.39467,0 5.2101,7.16508 10.70092,15.92237 l 9.98329,15.92239 -3.13531,1.98835 c -1.72441,1.0936 -3.67371,1.99963 -4.33178,2.01341 z m 22.28555,-4.73712 -5.23377,-6e-4 1.12047,-7.7772 c 0.61624,-4.27746 1.91845,-13.69984 2.89379,-20.93861 l 1.77332,-13.16142 2.33998,20.93921 2.33998,20.93921 -5.23377,-5.9e-4 z"
       id="path4243"
       inkscape:connector-curvature="0" />
  </g>
</svg>
