<?xml version="1.0" encoding="UTF-8" standalone="no"?>
<!-- Created with Inkscape (http://www.inkscape.org/) -->

<svg
   xmlns:dc="http://purl.org/dc/elements/1.1/"
   xmlns:cc="http://creativecommons.org/ns#"
   xmlns:rdf="http://www.w3.org/1999/02/22-rdf-syntax-ns#"
   xmlns:svg="http://www.w3.org/2000/svg"
   xmlns="http://www.w3.org/2000/svg"
   xmlns:sodipodi="http://sodipodi.sourceforge.net/DTD/sodipodi-0.dtd"
   xmlns:inkscape="http://www.inkscape.org/namespaces/inkscape"
   width="1800.0508"
   height="1799.9901"
   id="svg2"
   version="1.1"
   inkscape:version="0.48.3.1 r9886"
   sodipodi:docname="gallifreyan-knoxmakers.svg">
  <defs
     id="defs4" />
  <sodipodi:namedview
     id="base"
     pagecolor="#ffffff"
     bordercolor="#666666"
     borderopacity="1.0"
     inkscape:pageopacity="0.0"
     inkscape:pageshadow="2"
     inkscape:zoom="0.5"
     inkscape:cx="318.18199"
     inkscape:cy="920.07326"
     inkscape:document-units="px"
     inkscape:current-layer="layer1"
     showgrid="false"
     fit-margin-top="0"
     fit-margin-left="0"
     fit-margin-right="0"
     fit-margin-bottom="0"
     inkscape:window-width="1920"
     inkscape:window-height="1034"
     inkscape:window-x="0"
     inkscape:window-y="24"
     inkscape:window-maximized="1" />
  <metadata
     id="metadata7">
    <rdf:RDF>
      <cc:Work
         rdf:about="">
        <dc:format>image/svg+xml</dc:format>
        <dc:type
           rdf:resource="http://purl.org/dc/dcmitype/StillImage" />
        <dc:title></dc:title>
      </cc:Work>
    </rdf:RDF>
  </metadata>
  <g
     inkscape:label="Layer 1"
     inkscape:groupmode="layer"
     id="layer1"
     transform="translate(-53.786538,1059.282)">
    <path
       style="fill:none;stroke:#00ffff;stroke-width:3.25628543;stroke-miterlimit:4;stroke-opacity:1;stroke-dasharray:none"
       d="m 1366.3504,-579.38514 c 0,230.71679 -187.3113,417.74974 -418.37147,417.74974 -165.84296,0 -309.14815,-96.35227 -376.83245,-236.05256 112.84816,-22.35277 146.73841,-122.39546 146.73841,-187.51577 0,-64.75966 -58.46144,-162.15271 -147.17954,-174.96527 40.47519,-84.06292 108.29984,-152.51402 191.95472,-193.85123 45.39823,116.69859 118.77415,144.24299 185.31886,144.24299 66.17117,0 151.99857,-34.70033 184.37767,-144.70662 138.6051,68.05695 233.9938,210.45476 233.9938,375.09872 z"
       id="path3087"
       inkscape:connector-curvature="0"
       sodipodi:nodetypes="ssccccscs" />
    <path
       sodipodi:type="arc"
       style="fill:none;stroke:#00ffff;stroke-width:0.85498351;stroke-miterlimit:4;stroke-opacity:1;stroke-dasharray:none"
       id="path3090"
       sodipodi:cx="350.53571"
       sodipodi:cy="594.86218"
       sodipodi:rx="105.89286"
       sodipodi:ry="112.85714"
       d="m 456.42857,594.86218 c 0,62.32928 -47.40985,112.85714 -105.89286,112.85714 -58.48302,0 -105.89286,-50.52786 -105.89286,-112.85714 0,-62.32927 47.40984,-112.85714 105.89286,-112.85714 58.48301,0 105.89286,50.52787 105.89286,112.85714 z"
       transform="matrix(3.932041,0,0,3.6890236,-429.76079,-1937.1365)" />
    <path
       sodipodi:type="arc"
       style="fill:none;stroke:#00ffff;stroke-width:1.00949538;stroke-miterlimit:4;stroke-opacity:1;stroke-dasharray:none"
       id="path3092"
       sodipodi:cx="328.92856"
       sodipodi:cy="424.14789"
       sodipodi:rx="36.07143"
       sodipodi:ry="37.5"
       d="m 364.99999,424.14789 c 0,20.71068 -16.14973,37.5 -36.07143,37.5 -19.9217,0 -36.07143,-16.78932 -36.07143,-37.5 0,-20.71068 16.14973,-37.5 36.07143,-37.5 19.9217,0 36.07143,16.78932 36.07143,37.5 z"
       transform="matrix(3.3029319,0,0,3.1501897,-137.86868,-1621.6941)" />
    <path
       sodipodi:type="arc"
       style="fill:none;stroke:#00ffff;stroke-width:1.03390944;stroke-miterlimit:4;stroke-opacity:1;stroke-dasharray:none"
       id="path3094"
       sodipodi:cx="417.67856"
       sodipodi:cy="335.75504"
       sodipodi:rx="38.035713"
       sodipodi:ry="36.964287"
       d="m 455.71427,335.75504 c 0,20.41481 -17.02917,36.96428 -38.03571,36.96428 -21.00655,0 -38.03571,-16.54947 -38.03571,-36.96428 0,-20.41482 17.02916,-36.96429 38.03571,-36.96429 21.00654,0 38.03571,16.54947 38.03571,36.96429 z"
       transform="matrix(3.1028028,0,0,3.1968757,-55.700462,-1652.1703)" />
    <path
       sodipodi:type="arc"
       style="fill:none;stroke:#00ffff;stroke-width:1.00433171;stroke-miterlimit:4;stroke-opacity:1;stroke-dasharray:none"
       id="path3096"
       sodipodi:cx="332.32144"
       sodipodi:cy="484.14789"
       sodipodi:rx="18.75"
       sodipodi:ry="19.642857"
       d="m 351.07144,484.14789 c 0,10.84845 -8.39466,19.64285 -18.75,19.64285 -10.35534,0 -18.75,-8.7944 -18.75,-19.64285 0,-10.84845 8.39466,-19.64286 18.75,-19.64286 10.35534,0 18.75,8.79441 18.75,19.64286 z"
       transform="matrix(3.3475291,0,0,3.1402648,-163.31453,-1617.9609)" />
    <path
       sodipodi:type="arc"
       style="fill:none;stroke:#00ffff;stroke-width:1.03495872;stroke-miterlimit:4;stroke-opacity:1;stroke-dasharray:none"
       id="path3098"
       sodipodi:cx="214.46428"
       sodipodi:cy="516.82648"
       sodipodi:rx="50.17857"
       sodipodi:ry="49.107143"
       d="m 264.64285,516.82648 c 0,27.12112 -22.46571,49.10714 -50.17857,49.10714 -27.71286,0 -50.17857,-21.98602 -50.17857,-49.10714 0,-27.12113 22.46571,-49.10715 50.17857,-49.10715 27.71286,0 50.17857,21.98602 50.17857,49.10715 z"
       transform="matrix(3.1047243,0,0,3.1884226,-76.995414,-1598.2598)" />
    <path
       sodipodi:type="arc"
       style="fill:none;stroke:#00ffff;stroke-width:1.07523906;stroke-miterlimit:4;stroke-opacity:1;stroke-dasharray:none"
       id="path3100"
       sodipodi:cx="417.67856"
       sodipodi:cy="333.43362"
       sodipodi:rx="21.964285"
       sodipodi:ry="19.285715"
       d="m 439.64284,333.43362 c 0,10.65121 -9.83374,19.28572 -21.96428,19.28572 -12.13054,0 -21.96429,-8.63451 -21.96429,-19.28572 0,-10.6512 9.83375,-19.28571 21.96429,-19.28571 12.13054,0 21.96428,8.63451 21.96428,19.28571 z"
       transform="matrix(2.8095976,0,0,3.2643055,67.346307,-1666.6505)" />
    <path
       sodipodi:type="arc"
       style="fill:none;stroke:#00ffff;stroke-width:1.01943326;stroke-miterlimit:4;stroke-opacity:1;stroke-dasharray:none"
       id="path3102"
       sodipodi:cx="396.78571"
       sodipodi:cy="551.11218"
       sodipodi:rx="46.07143"
       sodipodi:ry="46.607143"
       d="m 442.85714,551.11218 c 0,25.74042 -20.62689,46.60715 -46.07143,46.60715 -25.44455,0 -46.07143,-20.86673 -46.07143,-46.60715 0,-25.74041 20.62688,-46.60714 46.07143,-46.60714 25.44454,0 46.07143,20.86673 46.07143,46.60714 z"
       transform="matrix(3.1917858,0,0,3.1966392,-93.589239,-1635.8823)" />
    <path
       sodipodi:type="arc"
       style="fill:none;stroke:#00ffff;stroke-width:1.01746452;stroke-miterlimit:4;stroke-opacity:1;stroke-dasharray:none"
       id="path3104"
       sodipodi:cx="354.28571"
       sodipodi:cy="576.4693"
       sodipodi:rx="25.357143"
       sodipodi:ry="23.392857"
       d="m 379.64285,576.4693 c 0,12.91952 -11.35278,23.39286 -25.35714,23.39286 -14.00437,0 -25.35715,-10.47334 -25.35715,-23.39286 0,-12.91952 11.35278,-23.39286 25.35715,-23.39286 14.00436,0 25.35714,10.47334 25.35714,23.39286 z"
       transform="matrix(3.0719456,0,0,3.3342093,-49.715469,-1718.2762)" />
    <path
       sodipodi:type="arc"
       style="fill:none;stroke:#00ffff;stroke-width:1.0910846;stroke-miterlimit:4;stroke-opacity:1;stroke-dasharray:none"
       id="path3106"
       sodipodi:cx="326.42856"
       sodipodi:cy="670.57648"
       sodipodi:rx="52.857143"
       sodipodi:ry="46.785713"
       d="m 379.2857,670.57648 c 0,25.83903 -23.66495,46.78571 -52.85714,46.78571 -29.1922,0 -52.85715,-20.94668 -52.85715,-46.78571 0,-25.83904 23.66495,-46.78572 52.85715,-46.78572 29.19219,0 52.85714,20.94668 52.85714,46.78572 z"
       transform="matrix(2.8060003,0,0,3.1742449,32.601297,-1612.324)" />
    <path
       sodipodi:type="arc"
       style="fill:none;stroke:#ff0000;stroke-width:1.14663017;stroke-miterlimit:4;stroke-opacity:1;stroke-dasharray:none"
       id="path3108"
       sodipodi:cx="294.28571"
       sodipodi:cy="269.32648"
       sodipodi:rx="9.2857141"
       sodipodi:ry="9.4642859"
       d="m 303.57142,269.32648 c 0,5.22698 -4.15736,9.46428 -9.28571,9.46428 -5.12836,0 -9.28572,-4.2373 -9.28572,-9.46428 0,-5.22698 4.15736,-9.46429 9.28572,-9.46429 5.12835,0 9.28571,4.23731 9.28571,9.46429 z"
       transform="matrix(2.834076,0,0,2.8456844,2.3789928,-1557.5575)" />
    <path
       sodipodi:type="arc"
       style="fill:none;stroke:#ff0000;stroke-width:1.08450341;stroke-miterlimit:4;stroke-opacity:1;stroke-dasharray:none"
       id="path3110"
       sodipodi:cx="328.57144"
       sodipodi:cy="278.96933"
       sodipodi:rx="8.9285717"
       sodipodi:ry="8.75"
       d="m 337.50001,278.96933 c 0,4.83249 -3.99745,8.75 -8.92857,8.75 -4.93111,0 -8.92857,-3.91751 -8.92857,-8.75 0,-4.83249 3.99746,-8.75 8.92857,-8.75 4.93112,0 8.92857,3.91751 8.92857,8.75 z"
       transform="matrix(3.0382725,0,0,2.9672651,-50.72157,-1591.4038)" />
    <path
       sodipodi:type="arc"
       style="fill:none;stroke:#ff0000;stroke-width:1.03011084;stroke-miterlimit:4;stroke-opacity:1;stroke-dasharray:none"
       id="path3112"
       sodipodi:cx="362.5"
       sodipodi:cy="270.57648"
       sodipodi:rx="8.9285717"
       sodipodi:ry="7.5"
       d="m 371.42857,270.57648 c 0,4.14213 -3.99746,7.5 -8.92857,7.5 -4.93111,0 -8.92857,-3.35787 -8.92857,-7.5 0,-4.14214 3.99746,-7.5 8.92857,-7.5 4.93111,0 8.92857,3.35786 8.92857,7.5 z"
       transform="matrix(2.9373578,0,0,3.401889,-5.1710194,-1712.6803)" />
    <path
       sodipodi:type="arc"
       style="fill:none;stroke:#ff0000;stroke-width:0.96980035;stroke-miterlimit:4;stroke-opacity:1;stroke-dasharray:none"
       id="path3114"
       sodipodi:cx="403.75"
       sodipodi:cy="313.07648"
       sodipodi:rx="5.1785712"
       sodipodi:ry="7.1428571"
       d="m 408.92857,313.07648 c 0,3.94489 -2.31852,7.14285 -5.17857,7.14285 -2.86005,0 -5.17857,-3.19796 -5.17857,-7.14285 0,-3.94489 2.31852,-7.14286 5.17857,-7.14286 2.86005,0 5.17857,3.19797 5.17857,7.14286 z"
       transform="matrix(3.9188405,0,0,2.8768862,-391.04656,-1554.4129)" />
    <path
       sodipodi:type="arc"
       style="fill:none;stroke:#ff0000;stroke-width:1.14415848;stroke-miterlimit:4;stroke-opacity:1;stroke-dasharray:none"
       id="path3116"
       sodipodi:cx="402.5"
       sodipodi:cy="358.61218"
       sodipodi:rx="8.2142859"
       sodipodi:ry="5.8928571"
       d="m 410.71429,358.61218 c 0,3.25454 -3.67767,5.89286 -8.21429,5.89286 -4.53662,0 -8.21429,-2.63832 -8.21429,-5.89286 0,-3.25453 3.67767,-5.89285 8.21429,-5.89285 4.53662,0 8.21429,2.63832 8.21429,5.89285 z"
       transform="matrix(2.3594763,0,0,3.4328664,241.7719,-1734.5705)" />
    <path
       sodipodi:type="arc"
       style="fill:none;stroke:#ff0000;stroke-width:1.05238998;stroke-miterlimit:4;stroke-opacity:1;stroke-dasharray:none"
       id="path3118"
       sodipodi:cx="358.09909"
       sodipodi:cy="653.60449"
       sodipodi:rx="7.5761442"
       sodipodi:ry="8.586297"
       d="m 365.67523,653.60449 c 0,4.74208 -3.39195,8.5863 -7.57614,8.5863 -4.18419,0 -7.57614,-3.84422 -7.57614,-8.5863 0,-4.74208 3.39195,-8.58629 7.57614,-8.58629 4.18419,0 7.57614,3.84421 7.57614,8.58629 z"
       transform="matrix(3.3191058,0,0,2.8844995,-146.55616,-1429.2691)" />
    <path
       sodipodi:type="arc"
       style="fill:none;stroke:#ff0000;stroke-width:0.91715848;stroke-miterlimit:4;stroke-opacity:1;stroke-dasharray:none"
       id="path3120"
       sodipodi:cx="300.01532"
       sodipodi:cy="652.97314"
       sodipodi:rx="7.5761442"
       sodipodi:ry="6.9447989"
       d="m 307.59146,652.97314 c 0,3.83551 -3.39195,6.9448 -7.57614,6.9448 -4.18419,0 -7.57614,-3.10929 -7.57614,-6.9448 0,-3.8355 3.39195,-6.94479 7.57614,-6.94479 4.18419,0 7.57614,3.10929 7.57614,6.94479 z"
       transform="matrix(3.3432525,0,0,3.7703964,-148.79652,-2006.7379)" />
    <path
       sodipodi:type="arc"
       style="fill:none;stroke:#00ffff;stroke-width:1.00403774;stroke-miterlimit:4;stroke-opacity:1;stroke-dasharray:none"
       id="path3122"
       sodipodi:cx="331.42856"
       sodipodi:cy="464.50504"
       sodipodi:rx="252.85715"
       sodipodi:ry="261.42856"
       d="m 584.28571,464.50504 c 0,144.383 -113.20801,261.42855 -252.85715,261.42855 -139.64915,0 -252.857149,-117.04555 -252.857149,-261.42855 0,-144.38301 113.207999,-261.42856 252.857149,-261.42856 139.64914,0 252.85715,117.04555 252.85715,261.42856 z"
       transform="matrix(3.3093417,0,0,3.1960829,-141.85828,-1646.209)" />
    <path
       sodipodi:type="arc"
       style="fill:none;stroke:#ff0000;stroke-width:0.99159777;stroke-miterlimit:4;stroke-opacity:1;stroke-dasharray:none"
       id="path3124"
       sodipodi:cx="333.57144"
       sodipodi:cy="465.21933"
       sodipodi:rx="272.85715"
       sodipodi:ry="274.28571"
       d="m 606.42859,465.21933 c 0,151.48381 -122.16231,274.28571 -272.85715,274.28571 -150.69484,0 -272.857146,-122.8019 -272.857146,-274.28571 0,-151.48381 122.162306,-274.28571 272.857146,-274.28571 150.69484,0 272.85715,122.8019 272.85715,274.28571 z"
       transform="matrix(3.2924622,0,0,3.2753147,-144.48142,-1683.0247)" />
    <path
       style="fill:none;stroke:#00ffff;stroke-width:3.25628543;stroke-linecap:butt;stroke-linejoin:miter;stroke-miterlimit:4;stroke-opacity:1;stroke-dasharray:none"
       d="M 638.09588,-732.99281 855.05216,-1052.2659"
       id="path3126"
       inkscape:connector-curvature="0" />
    <path
       style="fill:none;stroke:#00ffff;stroke-width:3.25628543;stroke-linecap:butt;stroke-linejoin:miter;stroke-miterlimit:4;stroke-opacity:1;stroke-dasharray:none"
       d="M 717.86197,-584.03992 1727.8194,-610.80535"
       id="path3896"
       inkscape:connector-curvature="0" />
    <path
       style="fill:none;stroke:#00ffff;stroke-width:3.25628543;stroke-linecap:butt;stroke-linejoin:miter;stroke-miterlimit:4;stroke-opacity:1;stroke-dasharray:none"
       d="m 1004.9269,-182.55924 97.6254,178.047971"
       id="path3898"
       inkscape:connector-curvature="0" />
    <path
       style="fill:none;stroke:#00ffff;stroke-width:3.25628543;stroke-linecap:butt;stroke-linejoin:miter;stroke-miterlimit:4;stroke-opacity:1;stroke-dasharray:none"
       d="M 858.48896,-205.83351 702.7533,-58.042017"
       id="path3900"
       inkscape:connector-curvature="0" />
    <path
       style="fill:none;stroke:#00ffff;stroke-width:3.25628543;stroke-linecap:butt;stroke-linejoin:miter;stroke-miterlimit:4;stroke-opacity:1;stroke-dasharray:none"
       d="M 91.432685,96.731705 430.79699,61.820321"
       id="path3902"
       inkscape:connector-curvature="0" />
  </g>
</svg>
