<?xml version="1.0" encoding="UTF-8" standalone="no"?>
<!-- Created with Inkscape (http://www.inkscape.org/) -->

<svg
   xmlns:dc="http://purl.org/dc/elements/1.1/"
   xmlns:cc="http://creativecommons.org/ns#"
   xmlns:rdf="http://www.w3.org/1999/02/22-rdf-syntax-ns#"
   xmlns:svg="http://www.w3.org/2000/svg"
   xmlns="http://www.w3.org/2000/svg"
   xmlns:sodipodi="http://sodipodi.sourceforge.net/DTD/sodipodi-0.dtd"
   xmlns:inkscape="http://www.inkscape.org/namespaces/inkscape"
   width="744.09448819"
   height="1052.3622047"
   id="svg2"
   version="1.1"
   inkscape:version="0.48.4 r9939"
   sodipodi:docname="New document 1">
  <defs
     id="defs4" />
  <sodipodi:namedview
     id="base"
     pagecolor="#ffffff"
     bordercolor="#666666"
     borderopacity="1.0"
     inkscape:pageopacity="0.0"
     inkscape:pageshadow="2"
     inkscape:zoom="0.35"
     inkscape:cx="-127.85714"
     inkscape:cy="520"
     inkscape:document-units="px"
     inkscape:current-layer="layer1"
     showgrid="false"
     inkscape:window-width="1305"
     inkscape:window-height="744"
     inkscape:window-x="61"
     inkscape:window-y="24"
     inkscape:window-maximized="1" />
  <metadata
     id="metadata7">
    <rdf:RDF>
      <cc:Work
         rdf:about="">
        <dc:format>image/svg+xml</dc:format>
        <dc:type
           rdf:resource="http://purl.org/dc/dcmitype/StillImage" />
        <dc:title></dc:title>
      </cc:Work>
    </rdf:RDF>
  </metadata>
  <g
     inkscape:label="Layer 1"
     inkscape:groupmode="layer"
     id="layer1">
    <path
       style="fill:none;stroke:#000000;stroke-width:0.95971709;stroke-opacity:1"
       d="m 53.257536,346.64139 -15.624943,0.003 0.269469,-11.58677 0.269469,-11.58677 10.07703,-5.82117 c 5.542366,-3.20163 14.611693,-8.28826 20.154059,-11.30361 5.542366,-3.01535 16.447152,-8.80154 24.232857,-12.85819 7.785703,-4.05667 14.155823,-7.06392 14.155823,-6.68278 0,0.38114 -0.93743,1.69083 -2.08317,2.91042 -1.14575,1.21958 -1.86918,2.43141 -1.60764,2.69296 0.26154,0.26154 13.6153,-1.1944 29.67504,-3.23543 16.05973,-2.04103 29.30005,-3.62833 29.42295,-3.52734 0.12289,0.10099 -7.65082,4.85842 -17.27491,10.57208 -9.62409,5.71366 -26.13581,16.10353 -36.69269,23.08859 -10.55689,6.98507 -23.729005,15.99249 -29.271372,20.01651 l -10.077029,7.31638 -15.624943,0.003 z m 93.390454,0.003 -22.69102,0 6.05285,-5.08506 c 3.32907,-2.7971 10.37158,-8.5569 15.65002,-12.79985 5.27845,-4.24297 15.61664,-12.17403 22.97376,-17.62458 7.35712,-5.45054 21.07865,-15.20676 30.49229,-21.68048 l 17.1157,-11.77041 -0.98099,-0.60628 -0.98098,-0.60628 0,-8.58082 0,-8.58081 -0.98429,0 c -0.54136,0 -4.94615,2.01612 -9.78843,4.48027 l -8.80414,4.48028 -6.13777,-3.27936 c -3.37576,-1.80364 -6.30435,-3.54891 -6.50797,-3.87838 l -0.37021,-0.59901 12.69747,-1.63398 c 6.9836,-0.89869 15.07276,-1.98791 17.9759,-2.42049 2.90315,-0.43258 5.60235,-0.59047 5.99823,-0.35086 l 0.71979,0.43565 0,7.6757 0,7.6757 7.43781,3.42158 c 4.09079,1.88187 20.17805,9.24285 35.74946,16.35775 15.57141,7.11489 37.59692,17.16931 48.94557,22.34315 11.34866,5.17383 28.58264,13.06633 38.29776,17.5389 l 17.66384,8.13192 4.88951,-2.16698 c 2.68923,-1.19183 8.3445,-3.78051 12.56725,-5.75264 4.22276,-1.97211 17.39488,-8.01409 29.27137,-13.4266 11.8765,-5.41252 31.74265,-14.48932 44.14699,-20.17066 12.40435,-5.68136 30.32706,-13.87489 39.82826,-18.20785 l 17.27491,-7.87813 0.25442,-27.98162 0.25443,-27.98161 2.38479,0 2.3848,0 0,2.39929 0,2.39929 0.72108,0 c 0.39658,0 8.06232,0.83781 17.03498,1.8618 8.97264,1.02397 27.54259,2.74418 41.26655,3.82266 13.72395,1.0785 35.10165,2.39907 47.50599,2.93462 l 22.55335,0.97373 29.99116,0.002 29.99116,0.002 0,14.87562 0,14.87562 -3.14098,0 c -1.72754,0 -11.12077,-0.63946 -20.87384,-1.42102 -9.75308,-0.78156 -19.89223,-1.64823 -22.53146,-1.92592 -2.63922,-0.27771 -10.70286,-1.15593 -17.91919,-1.95163 -7.21633,-0.79571 -17.79722,-2.07063 -23.51307,-2.83318 -5.71585,-0.76201 -13.84744,-1.85888 -18.0702,-2.43695 -4.22275,-0.57806 -15.23551,-2.30485 -24.47278,-3.83731 -9.23728,-1.53245 -24.7847,-4.34706 -34.54982,-6.25468 -9.76512,-1.90762 -19.15835,-3.71009 -20.87385,-4.00548 l -3.11908,-0.53709 0,7.61439 0,7.61441 6.47809,2.0575 c 3.56295,1.13162 15.97929,4.644 27.59187,7.80528 11.61258,3.16129 28.23968,7.47385 36.94911,9.58346 8.70943,2.10962 22.96123,5.35986 31.67066,7.22273 8.70944,1.86289 24.04092,4.87047 34.06996,6.68351 10.02905,1.81305 25.90037,4.51394 35.26961,6.00199 l 17.03497,2.70554 0,16.108 0,16.10802 -1.3106,0 c -0.72083,0 -6.22721,-1.10386 -12.23639,-2.45301 -6.00918,-1.34916 -18.6995,-4.40738 -28.2007,-6.79605 -9.5012,-2.38867 -23.32113,-6.0712 -30.71095,-8.18342 -7.38982,-2.11221 -23.58505,-7.08419 -35.98939,-11.04885 -12.40434,-3.96466 -31.83861,-10.6021 -43.18727,-14.74987 -11.34865,-4.14775 -24.4128,-9.03251 -29.03144,-10.855 l -8.39753,-3.31363 0,4.75114 0,4.75114 -4.92058,2.27974 -4.92059,2.27974 6.12024,3.14255 c 3.36613,1.72841 13.03019,6.55814 21.4757,10.73274 8.44551,4.1746 23.12918,11.05793 32.63038,15.2963 9.5012,4.23837 27.20798,11.68385 39.3484,16.54551 12.14042,4.86166 28.66988,11.17381 36.73212,14.027 l 14.65863,5.1876 -38.0285,0.25103 -38.0285,0.25103 -7.34108,-3.96636 c -4.03759,-2.1815 -9.2845,-5.05695 -11.6598,-6.38989 -2.37529,-1.33295 -7.7737,-4.38304 -11.99646,-6.77797 -4.22275,-2.39494 -13.50802,-7.87831 -20.63392,-12.18526 -7.1259,-4.30696 -16.19522,-9.90357 -20.15406,-12.43692 -3.95883,-2.53334 -10.68863,-6.92401 -14.95511,-9.75705 l -7.75725,-5.15096 -9.48256,4.43121 -9.48255,4.43123 1.47794,1.0966 c 0.81286,0.60313 4.68392,3.769 8.60234,7.03525 3.91842,3.26626 10.36345,8.61822 14.32229,11.89328 3.95883,3.27504 13.5969,10.75166 21.41794,16.61471 l 14.22007,10.66007 -19.46507,0.26046 -19.46508,0.26046 -12.50976,-12.48633 c -6.88037,-6.86749 -15.31693,-15.70107 -18.74792,-19.63019 -3.43099,-3.92912 -6.67003,-7.17641 -7.19788,-7.2162 -0.52784,-0.0398 -4.52266,1.51104 -8.87738,3.44628 l -7.91767,3.51863 0,0.88637 c 0,0.48751 3.46397,5.70964 7.6977,11.60473 4.23374,5.89509 9.24166,12.76974 11.1287,15.277 l 3.431,4.55865 -14.72764,-0.0158 -14.72764,-0.0158 -5.7583,-11.09836 c -3.16706,-6.1041 -6.03541,-11.27598 -6.37409,-11.49308 -0.33869,-0.21711 -4.65742,1.38114 -9.59717,3.55165 -4.93976,2.17052 -9.30801,4.24279 -9.70723,4.60506 l -0.72583,0.65867 2.34817,6.90392 2.34817,6.90391 -12.50899,0 -12.50901,0 -0.50194,-1.91944 -0.50194,-1.91943 -0.88602,0 c -0.48731,0 -2.64753,0.89866 -4.8005,1.99702 l -3.91449,1.99703 -6.61261,-2.95675 c -3.63694,-1.6263 -6.82475,-2.95683 -7.08403,-2.95683 -0.25928,0 -0.47141,1.29562 -0.47141,2.87915 l 0,2.87915 -12.59629,0 -12.59629,0 0.52642,-2.63922 c 0.28952,-1.45157 0.81072,-5.23046 1.15819,-8.39752 l 0.6318,-5.75831 -9.8001,-4.53841 -9.80008,-4.53841 -0.73143,0.45205 c -0.4023,0.24862 -2.55132,6.0698 -4.77563,12.93594 l -4.04418,12.48388 -13.33461,0 -13.33461,0 0,-0.97038 c 0,-0.53371 3.68092,-8.32259 8.17982,-17.30863 l 8.17982,-16.33824 -8.35363,-3.84114 -8.35362,-3.84112 -1.14633,0.43989 c -0.63049,0.24193 -5.88008,7.27605 -11.66578,15.63138 -5.7857,8.35533 -12.09624,17.67476 -14.02342,20.70987 l -3.50396,5.51837 -16.87232,0 -16.87233,0 1.88184,-2.63922 c 1.035,-1.45157 6.5057,-8.03763 12.15709,-14.63569 5.65139,-6.59805 14.8188,-16.87525 20.37202,-22.83822 5.55322,-5.96297 9.93704,-10.9951 9.74183,-11.18249 -0.19522,-0.1874 -4.19422,-2.1106 -8.88668,-4.27378 -4.69245,-2.16319 -8.95844,-3.93306 -9.47997,-3.93306 -0.52152,0 -4.67188,3.12697 -9.22302,6.94883 -4.55114,3.82186 -12.59353,10.78503 -17.87198,15.47371 -5.27844,4.68868 -16.36179,14.94977 -24.62967,22.8024 l -15.03251,14.27752 -22.691,0 z m 220.54524,-24.02815 c -0.43914,-0.0192 -10.08371,-4.27293 -21.43237,-9.45273 -11.34865,-5.17982 -31.2148,-14.26643 -44.14699,-20.19246 -12.93218,-5.92604 -33.12223,-15.13945 -44.86677,-20.47424 l -21.35371,-9.69962 0,-4.45695 0,-4.45695 9.35724,-1.19242 c 5.14649,-0.65583 17.13096,-2.22181 26.63215,-3.47997 9.5012,-1.25816 55.06377,-7.28871 101.25016,-13.40125 46.18639,-6.11253 92.18083,-12.18335 102.20987,-13.49072 10.02904,-1.30735 19.63821,-2.60814 21.35371,-2.89061 l 3.11908,-0.5136 -0.007,21.87706 -0.007,21.87705 -24.22647,10.99666 c -13.32389,6.04817 -28.11266,12.80314 -32.86326,15.01106 -4.7506,2.20791 -23.39369,10.75544 -41.4291,18.9945 -18.03539,8.23905 -33.15094,14.96439 -33.5901,14.94519 z m -57.97114,-50.79289 1.84991,-0.99005 1.67571,0.64303 1.67572,0.64304 -0.66303,-1.72784 -0.66304,-1.72783 1.09379,-1.31793 1.09379,-1.31793 -1.84501,0 -1.845,0 -1.1202,-1.12021 -1.12019,-1.12019 -0.61401,1.60005 -0.614,1.60006 -1.33689,0 -1.3369,0 0,0.95972 c 0,0.52784 0.43187,0.95972 0.95972,0.95972 l 0.95972,0 0,1.95319 0,1.95321 1.84991,-0.99004 z m 16.84514,-2.26375 3.36983,-0.17275 0.004,-1.12116 c 0.002,-0.61663 0.22041,-1.69631 0.48453,-2.39929 l 0.48023,-1.27814 -2.59925,-1.20354 -2.59927,-1.20356 -0.80781,1.44349 -0.80781,1.44347 -1.63182,0.0305 -1.63181,0.0305 1.77561,1.34519 1.77561,1.3452 -0.59109,0.9564 -0.59109,0.9564 3.36983,-0.17276 z m 42.21352,-0.65261 c 0.32507,0 1.7612,-0.8648 3.1914,-1.92178 l 2.60036,-1.92177 3.29545,0.94564 c 1.8125,0.5201 3.4441,0.79699 3.62579,0.61531 0.18169,-0.1817 -0.12891,-1.5383 -0.69023,-3.01467 l -1.02058,-2.68431 2.61286,-2.72723 2.61285,-2.72723 -4.33611,0 -4.3361,0 -1.28407,-2.3993 c -0.70623,-1.31961 -1.60071,-2.39929 -1.98771,-2.39929 -0.38702,0 -1.13921,1.24939 -1.67153,2.77643 l -0.96788,2.77643 -3.55956,1.17476 -3.55956,1.17476 2.75338,2.19548 2.75339,2.19547 -0.3116,2.97065 -0.3116,2.97065 0.59105,0 z m -27.59371,-1.3853 c 0.76556,-0.29378 2.11239,-0.53444 2.99295,-0.53482 l 1.60101,-6.7e-4 0.1384,-2.39862 0.13841,-2.39861 -1.29037,0 -1.29035,0 -0.94287,-1.67951 -0.94286,-1.6795 -0.64708,1.6795 -0.64708,1.67951 -1.41687,0 -1.41688,0 0.55922,1.19964 c 0.30757,0.65981 0.83219,1.97985 1.16582,2.93344 l 0.6066,1.73378 1.39195,-0.53414 z m 62.6002,-8.21187 c 0.4967,0 1.14494,-0.39133 1.44054,-0.86962 l 0.53745,-0.86962 2.08036,0.54402 2.08035,0.54403 -0.59982,-1.56311 -0.59982,-1.5631 0.9178,-0.56723 c 0.50479,-0.31199 0.91781,-0.97363 0.91781,-1.47032 l 0,-0.90307 -1.72749,0 c -0.95012,0 -2.13777,-0.35419 -2.63923,-0.78708 l -0.91173,-0.78707 -2.31139,2.22665 -2.31138,2.22665 1.11173,0 1.11175,0 0,1.91943 0,1.91944 0.90307,0 z m 16.80564,-2.84093 1.39352,-1.15653 1.95945,0.62191 1.95946,0.62191 -0.5812,-1.51455 -0.58118,-1.51456 1.18459,-1.42735 1.1846,-1.42736 -1.84501,0 -1.84499,0 -1.21144,-1.19964 -1.21143,-1.19965 -0.94763,1.6795 -0.94764,1.67951 -1.54063,0 -1.54063,0 1.58832,1.75507 c 0.87358,0.9653 1.58832,2.31379 1.58832,2.99667 l 0,1.24159 1.39352,-1.15652 z m 17.50839,-2.37302 3.18628,-0.0645 -0.50377,-1.32129 -0.50376,-1.32129 1.09379,-1.31793 1.09379,-1.31793 -2.06707,0 -2.06707,0 -0.5142,-1.33999 -0.5142,-1.33998 -2.0949,2.05977 -2.0949,2.05976 0.89986,1.98394 0.89986,1.98393 3.18629,-0.0645 z m -327.83963,34.95542 c -0.21377,0.006 0.25123,-0.74614 1.03333,-1.66987 0.7821,-0.92373 9.12835,-11.1807 18.54722,-22.79328 9.41886,-11.61258 17.49699,-21.60633 17.95139,-22.20835 l 0.82618,-1.09458 -18.7058,-24.33793 c -10.28817,-13.38585 -18.73759,-24.7698 -18.77646,-25.29764 l -0.0706,-0.95972 13.22779,-1.68522 c 7.27528,-0.92688 21.43336,-2.76449 31.46239,-4.08359 10.02906,-1.3191 18.55853,-2.39621 18.95442,-2.39357 l 0.71978,0.005 0,39.29784 0,39.29785 13.19611,7.24479 c 7.25786,3.98463 13.62799,7.40324 14.15583,7.5969 0.52785,0.19366 0.74378,0.56773 0.47986,0.83127 -0.26392,0.26353 -13.00416,2.05727 -28.31164,3.98609 -15.30749,1.92882 -36.03738,4.57516 -46.06643,5.88076 -10.02904,1.30561 -18.40953,2.37816 -18.6233,2.38346 z m -71.675149,-4.78895 c -0.217155,0 -0.394818,-7.53747 -0.394818,-16.74994 l 0,-16.74994 3.11908,-0.89482 c 1.715495,-0.49215 11.324662,-3.26058 21.353706,-6.15206 10.029044,-2.89149 22.337416,-6.35874 27.351938,-7.70499 5.014523,-1.34627 16.569463,-4.26774 25.677653,-6.49216 l 16.56034,-4.04441 2.15414,2.70806 c 1.18478,1.48943 3.96876,5.10763 6.1866,8.04045 l 4.03248,5.3324 -2.11304,2.12585 -2.11303,2.12585 -20.63392,7.12686 c -11.34865,3.91977 -25.816383,9.08173 -32.150516,11.47104 -6.334133,2.3893 -16.267205,6.28561 -22.073494,8.65846 -5.806288,2.37285 -14.158111,5.86342 -18.559595,7.75682 -4.401493,1.89338 -8.180379,3.44253 -8.397524,3.44253 z m 142.197599,-26.87208 -1.51401,0 0,-48.94557 c 0,-26.92007 0.16603,-48.94557 0.36894,-48.94557 0.20291,0 8.30052,-1.05539 17.99469,-2.34531 9.69417,-1.28993 26.26322,-3.47297 36.82011,-4.85121 10.55689,-1.37825 30.20709,-3.97419 43.66713,-5.76876 13.46003,-1.79458 41.09988,-5.44927 61.42189,-8.12154 20.32201,-2.67228 43.4272,-5.71554 51.34487,-6.76282 7.91766,-1.04728 27.35193,-3.62196 43.18727,-5.72151 15.83533,-2.09955 33.75804,-4.47392 39.82826,-5.27638 6.07021,-0.80245 17.51483,-2.32239 25.4325,-3.37764 7.91767,-1.05524 20.87385,-2.78067 28.79151,-3.83429 7.91767,-1.0536 15.36747,-1.91807 16.55512,-1.92102 l 2.15937,-0.006 0,48.94557 0,48.94557 -1.19965,0.019 c -0.65981,0.0105 -4.22276,0.45649 -7.91767,0.99118 -3.69491,0.5347 -21.40169,2.88997 -39.3484,5.23394 -17.94671,2.34398 -37.81285,4.94125 -44.14699,5.77171 -6.33413,0.83048 -22.96123,2.99219 -36.9491,4.80381 -13.98788,1.81162 -31.9106,4.17666 -39.82826,5.25565 -7.91767,1.07899 -38.58063,5.17437 -68.13992,9.10084 -29.55929,3.92649 -70.22979,9.31495 -90.3789,11.97439 -20.14912,2.65944 -37.31606,4.83534 -38.14876,4.83534 z m 37.8344,-28.20391 8.15759,-0.43334 5.34147,-1.99933 5.34147,-1.99933 2.51514,-2.63646 c 1.38332,-1.45005 2.97449,-3.85221 3.53591,-5.33815 l 1.02078,-2.7017 0,-16.99889 0,-16.99889 -1.48879,-2.12555 c -0.81884,-1.16905 -2.43837,-2.63638 -3.59894,-3.26073 -1.16059,-0.62434 -3.83764,-1.46394 -5.94902,-1.86577 l -3.83887,-0.7306 -6.68977,0.92519 -6.68977,0.92518 -4.92949,2.2568 -4.92949,2.25679 -2.68405,3.51898 -2.68404,3.51896 -0.0924,18.55965 -0.0924,18.55964 1.91943,2.16138 c 1.05569,1.18876 3.21505,2.76396 4.79859,3.50044 l 2.87915,1.33908 8.15759,-0.43335 z m 2.03422,-8.26534 c -1.99856,0 -3.92167,-0.28791 -4.27356,-0.63981 l -0.63982,-0.63981 0,-17.44607 0,-17.44607 1.70458,-1.54263 1.70458,-1.54262 3.88888,-0.62184 3.88887,-0.62186 1.60442,1.60442 1.60443,1.60443 -0.0131,15.52685 c -0.008,8.53976 -0.25975,16.44592 -0.5612,17.56922 l -0.5481,2.04238 -2.36311,1.0767 -2.36311,1.07671 -3.63376,0 z m 37.43345,2.5556 c 2.83755,-0.34072 6.13088,-0.62324 7.31853,-0.62782 l 2.15937,-0.009 0,-10.02039 0,-10.0204 0.95247,-0.58865 c 0.52385,-0.32376 3.65493,-1.01107 6.95795,-1.52734 l 6.00548,-0.93869 5.23556,-2.60809 5.23556,-2.6081 1.96232,-2.70959 1.96231,-2.7096 0,-8.54527 0,-8.54527 -2.54231,-2.54231 -2.54231,-2.54231 -6.575,-0.44745 -6.575,-0.44746 -11.43058,1.52233 c -6.28681,0.83727 -11.61904,1.71078 -11.84938,1.94113 -0.23034,0.23034 -0.64725,12.60802 -0.92647,27.50596 l -0.50767,27.08715 5.15917,-0.61948 z m 14.84636,-30.67185 -5.66829,0.58394 0.62978,-3.14887 c 0.34637,-1.73186 0.62976,-5.84587 0.62976,-9.14223 l 0,-5.99339 4.55866,-0.53207 4.55866,-0.53208 2.15936,1.3891 2.15936,1.38912 0,5.62985 0,5.62986 -1.6795,2.07141 -1.67951,2.07141 -5.66828,0.58395 z m 31.34072,24.30085 c 0.6598,0.0129 9.51319,-1.14172 19.6742,-2.56584 l 18.47455,-2.58931 0,-3.67232 0,-3.67232 -3.11908,0.008 c -1.71549,0.004 -5.92625,0.43549 -9.35724,0.95889 -3.43099,0.5234 -7.65958,1.19087 -9.39688,1.48325 l -3.15872,0.53161 0.27957,-7.96859 0.27957,-7.96859 9.59717,-1.43957 9.59717,-1.43958 0.29948,-4.16813 0.29947,-4.16814 -2.69877,0.55073 c -1.48432,0.3029 -5.50594,0.98765 -8.93693,1.52166 -3.43099,0.53401 -6.79617,0.9742 -7.47817,0.97819 l -1.24002,0.008 0.2803,-7.41397 0.2803,-7.41397 3.83886,-0.60284 c 2.11138,-0.33157 7.61776,-1.14281 12.2364,-1.80275 l 8.39752,-1.1999 0,-3.73947 0,-3.73946 -2.15936,0.0129 c -1.18765,0.007 -9.7128,1.08677 -18.94477,2.39929 -9.23198,1.31168 -17.11366,2.38557 -17.51484,2.38557 l -0.72943,0 0,27.35194 0,27.35193 1.19965,0.0235 z m 52.7786,-7.17153 c 3.29582,-0.37288 6.06083,-0.75256 6.14447,-0.84374 0.0836,-0.0912 0.30219,-8.47857 0.48569,-18.63863 l 0.33363,-18.47284 0.55978,-0.002 c 0.30788,-9.5e-4 4.2986,7.81064 8.86828,17.35908 l 8.30848,17.3608 4.08791,-0.62916 c 2.24835,-0.34603 5.42916,-0.85293 7.06846,-1.12643 l 2.98057,-0.49728 0.69328,-26.8763 0.69329,-26.8763 -0.48754,-0.48754 -0.48752,-0.48753 -6.06547,0.81251 -6.06546,0.81272 -0.47986,15.83533 -0.47986,15.83534 -1.09778,-2.3993 c -0.60379,-1.31961 -3.73304,-7.96155 -6.9539,-14.75986 l -5.85611,-12.36057 -5.04257,0.62517 c -2.77341,0.34385 -6.87803,0.88063 -9.12137,1.19286 l -4.07879,0.5677 0,27.36693 0,27.36693 5.99239,-0.67797 z m 55.4943,-7.65858 c 3.20271,-0.36234 6.44176,-0.8962 7.19788,-1.18635 l 1.37477,-0.52756 0,-27.3255 0,-27.32552 -2.63922,0.51976 c -1.45157,0.28587 -4.69061,0.8011 -7.19788,1.14494 l -4.55865,0.62518 0,27.36693 0,27.36693 5.8231,-0.65881 z m 21.80597,-2.93938 c 1.43111,-0.22454 4.21265,-0.66016 6.18121,-0.96807 l 3.57919,-0.55982 0.25968,-19.27092 0.25967,-19.27092 8.40551,17.6312 8.40551,17.6312 6.47011,-0.25632 c 3.55855,-0.14098 7.00994,-0.45134 7.66975,-0.68967 l 1.19965,-0.43334 0,-27.45832 0,-27.45831 -2.63923,0.49143 c -1.45157,0.27029 -4.25874,0.75605 -6.23816,1.07947 l -3.59894,0.58802 0,15.31198 0,15.31199 -0.95971,0 c -0.52785,0 -0.95972,-0.38537 -0.95972,-0.85638 0,-0.47101 -2.8731,-6.84113 -6.38465,-14.15583 -3.51156,-7.31469 -6.44541,-13.39015 -6.51969,-13.50099 -0.0743,-0.11086 -4.05237,0.29289 -8.84022,0.89724 l -8.70518,1.09879 -0.69364,26.6517 -0.69362,26.65169 0.60023,0.97121 0.60025,0.97121 2.602,-0.40824 z m 68.8225,-9.59231 7.67773,-0.31302 3.47191,-1.05998 c 1.90954,-0.58298 4.92238,-2.03744 6.69517,-3.23213 l 3.22329,-2.17217 2.1822,-3.23817 2.1822,-3.23817 0,-10.41496 0,-10.41496 -0.71979,0.008 c -0.39588,0.004 -3.52696,0.43549 -6.95795,0.95889 -3.43098,0.5234 -7.64174,1.18752 -9.35724,1.47581 l -3.11908,0.52418 0,3.86771 0,3.86771 3.11908,-0.31226 3.11908,-0.31226 0.2877,5.51423 0.2877,5.51422 -2.40344,2.40344 -2.40344,2.40344 -4.38611,0 -4.38609,0 -1.03739,-2.63922 -1.03738,-2.63922 0.63269,-15.35548 0.63271,-15.35547 1.80106,-1.82582 1.80105,-1.82583 4.42034,-0.0936 4.42032,-0.0936 0.91038,1.43957 0.91037,1.43958 0.0147,3.65774 0.0147,3.65775 4.55866,-0.59106 c 2.50726,-0.32508 5.53037,-0.79165 6.71802,-1.03681 l 2.15936,-0.44574 0,-4.56677 0,-4.56675 -1.565,-2.23436 -1.56501,-2.23435 -3.20275,-1.3382 -3.20276,-1.3382 -6.44596,0 -6.44595,0 -5.54414,1.55561 -5.54415,1.5556 -3.85438,3.29921 -3.85437,3.29921 -1.0542,3.54271 -1.05419,3.54271 0.31273,16.49475 0.31272,16.49474 2.77142,2.8901 2.77143,2.8901 2.02716,0.45267 c 1.11494,0.24897 5.48214,0.31182 9.7049,0.13965 z m -463.989592,29.25777 -0.993345,0 0,-14.87562 0,-14.87561 2.159363,-0.003 c 1.18765,-0.002 8.853391,-0.64301 17.034979,-1.42486 8.181588,-0.78183 23.513069,-2.05214 34.069957,-2.82291 10.556888,-0.77076 27.615858,-1.62706 37.908818,-1.90291 l 18.71449,-0.50153 -17.27491,2.33305 c -9.5012,1.28318 -19.30242,2.67271 -21.78047,3.08783 l -4.50556,0.75478 6.12909,8.1576 6.12909,8.15759 -0.66382,0.59362 c -0.36509,0.32606 -7.14189,1.53991 -15.05956,2.69701 -7.917663,1.1571 -24.853532,4.02105 -37.635265,6.36433 -12.781723,2.34328 -23.686509,4.26051 -24.232857,4.26051 z M 558.09973,208.24147 c -4.35391,-0.15215 -7.93597,-0.27664 -7.96013,-0.27664 -0.0242,0 -0.13279,-3.48755 -0.24139,-7.75012 l -0.19746,-7.75012 23.51306,-2.15002 c 12.93219,-1.18252 32.15053,-3.21096 42.70742,-4.50766 10.55688,-1.2967 24.80868,-3.23007 31.67066,-4.29636 6.86198,-1.06631 21.11378,-3.44505 31.67067,-5.28611 10.55688,-1.84105 20.92183,-3.75587 23.03321,-4.25515 2.11137,-0.49928 4.59464,-0.91808 5.51837,-0.93067 l 1.6795,-0.0229 0,14.87562 0,14.87561 -1.79535,0 c -0.98744,0 -8.00537,0.64409 -15.5954,1.4313 -7.59003,0.78721 -23.51719,2.08917 -35.39369,2.89323 l -21.59363,1.46193 -34.54982,0.98235 c -19.0024,0.54028 -38.1121,0.85785 -42.46602,0.70571 z m -5.36612,-28.58829 -2.22945,0 0.44606,-34.8862 0.44607,-34.8862 -0.8823,-1.57657 -0.8823,-1.57659 -12.92166,-9.201122 C 529.60313,92.465881 523.14417,87.9607 522.3568,87.514978 l -1.43158,-0.810394 0.56374,-0.563738 c 0.31005,-0.310056 7.21642,-1.415727 15.34748,-2.457039 8.13106,-1.041322 30.11522,-3.842228 48.8537,-6.224255 18.73847,-2.382018 35.04167,-4.556017 36.22932,-4.831101 l 2.15936,-0.500156 0,0.807112 c 0,0.443908 -2.07646,3.799146 -4.61436,7.45609 -2.53789,3.656935 -10.77423,15.434651 -18.30297,26.172703 l -13.68862,19.52373 0.47185,1.11019 c 0.25952,0.6106 8.49586,10.33398 18.30298,21.6075 9.80712,11.27352 17.83112,20.82253 17.83112,21.22003 l 0,0.72271 -4.55865,0.55406 c -2.50727,0.30474 -18.05832,2.30832 -34.55789,4.4524 -16.49958,2.1441 -31.00248,3.89836 -32.22867,3.89836 z M 174.21143,164.16277 c -0.92373,-0.0742 -9.45322,-0.6849 -18.95442,-1.35707 -9.50119,-0.67217 -33.25419,-1.73723 -52.78443,-2.3668 l -35.509535,-1.14467 -14.635686,0.64453 -14.635686,0.64455 0,-15.01425 0,-15.01423 5.998232,0.55751 c 3.299027,0.30662 14.635686,1.22431 25.192574,2.0393 10.556888,0.81499 28.479601,2.55391 39.828261,3.86428 11.34865,1.31037 28.19168,3.47423 37.42896,4.8086 9.23728,1.33436 26.72668,4.16407 38.86535,6.28826 12.13866,2.12419 22.18907,3.98094 22.33424,4.1261 0.14516,0.14516 -3.74026,0.77791 -8.63426,1.40611 -4.89401,0.62819 -12.02928,1.6138 -15.85615,2.19024 l -6.95795,1.04808 0,3.7072 0,3.70719 -1.6795,-0.13493 z m 459.687,-4.7233 -11.77402,2.67637 -5.9264,-6.82673 c -3.25952,-3.7547 -6.95784,-7.96686 -8.21848,-9.36035 l -2.29208,-2.53362 12.31476,-4.07185 c 6.77313,-2.23951 19.95745,-6.82154 29.29849,-10.18229 9.34104,-3.36074 22.97483,-8.46136 30.2973,-11.3347 7.32248,-2.87336 17.35309,-6.9763 22.29026,-9.11767 4.93717,-2.14136 9.11813,-3.89339 9.29103,-3.89339 0.17289,0 0.31435,7.77371 0.31435,17.27491 0,9.5012 -0.17604,17.27491 -0.3912,17.27491 -0.21515,0 -8.5287,2.34129 -18.47455,5.20289 -9.94585,2.86159 -24.12957,6.78065 -31.51939,8.70902 -7.38983,1.92837 -18.73435,4.7105 -25.21007,6.1825 z m -418.69722,-7.61809 -0.84085,0 -0.28031,-7.3627 -0.28029,-7.3627 -11.51661,-3.20824 c -6.33413,-1.76453 -19.93812,-5.32914 -30.23109,-7.92135 -10.29296,-2.59221 -25.82789,-6.28188 -34.52206,-8.19927 -8.69417,-1.91739 -20.1388,-4.34497 -25.4325,-5.39464 -5.29371,-1.04966 -15.23927,-2.94659 -22.101245,-4.21539 -6.861977,-1.26879 -19.386285,-3.37089 -27.831796,-4.67132 -8.445511,-1.30045 -17.406869,-2.64396 -19.91413,-2.98558 l -4.558656,-0.621147 0,-16.332639 0,-16.332638 3.11908,0.641743 c 1.715495,0.352965 7.005935,1.513225 11.756535,2.578367 4.7506,1.065142 15.547417,3.666177 23.992928,5.780078 8.44551,2.113902 20.537944,5.273089 26.872084,7.020408 6.33413,1.747318 15.21549,4.265155 19.73636,5.595179 4.52087,1.330024 15.96551,4.856975 25.43251,7.837645 9.467,2.98068 27.36174,9.091694 39.76608,13.580044 12.40435,4.48834 23.30913,8.3872 24.23286,8.66413 l 1.67951,0.5035 0,-9.75751 0,-9.75751 -12.2364,-5.793054 c -6.73001,-3.186175 -17.85073,-8.307791 -24.71271,-11.381372 -6.86198,-3.07358 -17.6588,-7.730943 -23.99293,-10.349704 -6.33413,-2.618761 -16.2672,-6.60414 -22.07349,-8.856394 C 125.4578,61.267071 118.11596,58.433343 114.9489,57.222161 111.78183,56.010982 102.49657,52.659093 94.31498,49.773541 86.133394,46.887979 72.529404,42.358987 64.083893,39.709103 55.638383,37.059218 46.245151,34.196334 43.210046,33.347128 l -5.518373,-1.544002 0,-5.731488 0,-5.731498 34.189096,0 34.189101,0 7.79852,3.485453 c 4.28919,1.916996 17.95555,8.548181 30.36969,14.735966 12.41413,6.187786 28.60936,14.608555 35.98939,18.712801 7.38002,4.104259 20.19115,11.506537 28.46917,16.449503 l 15.05094,8.987223 11.0344,-5.01553 11.03439,-5.01552 -1.01014,-1.217142 C 244.25066,70.793463 238.77441,66.437182 232.6368,61.782266 226.49918,57.12735 216.94283,50.076207 211.40047,46.113055 205.8581,42.149894 195.13529,34.729697 187.57199,29.623723 l -13.75146,-9.283583 24.45149,0 24.4515,0 6.57487,5.900686 c 3.61618,3.24538 10.02984,9.139828 14.2526,13.098766 4.22275,3.958949 11.38901,10.836502 15.92501,15.283457 l 8.24727,8.085373 11.41567,-5.315029 11.41566,-5.315024 0.3162,-0.948585 0.31619,-0.948575 -4.12779,-5.563297 c -2.27029,-3.059809 -7.26608,-9.547976 -11.10175,-14.418147 -3.83568,-4.870171 -6.97396,-9.091132 -6.97396,-9.379901 l 0,-0.525051 16.52816,0.262597 16.52817,0.262589 5.49141,9.597171 c 3.02027,5.278444 5.63269,9.948235 5.80538,10.377315 l 0.31397,0.780145 11.01662,-4.94667 c 6.05914,-2.720664 11.36044,-5.27259 11.78064,-5.67094 l 0.76401,-0.72427 -1.94965,-4.946305 -1.94966,-4.946305 20.56675,0 20.56675,0 7.37085,3.35901 c 4.05398,1.847455 7.74883,3.35901 8.21077,3.35901 l 0.8399,0 0,-3.35901 0,-3.35901 14.03856,0 14.03856,0 -0.55146,3.598939 c -0.3033,1.979417 -0.84361,6.275734 -1.2007,9.547371 l -0.64925,5.948423 11.29615,5.328254 c 6.21288,2.930534 11.58567,5.328243 11.93954,5.328243 0.35387,0 2.26854,-5.506377 4.25483,-12.236393 1.98628,-6.730016 3.93614,-13.316075 4.33301,-14.635686 l 0.72159,-2.399292 15.51643,-0.263702 c 8.53404,-0.145042 15.51644,-0.05643 15.51644,0.196876 0,0.253327 -1.68376,4.286807 -3.74169,8.963298 -2.05793,4.676499 -6.18716,13.378859 -9.17608,19.338587 -2.98891,5.959719 -5.27179,10.99846 -5.07305,11.197189 0.19873,0.198738 4.53684,2.312563 9.64025,4.697393 5.10341,2.384839 9.60989,4.322498 10.01439,4.305905 0.40451,-0.0166 1.42395,-0.988298 2.26544,-2.159364 0.84148,-1.171056 5.84256,-8.60729 11.11349,-16.524952 5.27094,-7.917666 11.70377,-17.958706 14.29517,-22.313423 l 4.71164,-7.917666 19.08022,0 19.08021,0 -3.27085,4.078798 c -1.79896,2.243338 -5.61635,7.101906 -8.48307,10.796817 -2.86672,3.694911 -9.09839,11.252683 -13.84813,16.79505 -4.74975,5.542362 -12.06315,13.86189 -16.25199,18.487832 -4.18885,4.625943 -7.44211,8.544362 -7.22948,8.7076 0.21263,0.163229 4.16548,1.974407 8.78412,4.024843 l 8.39752,3.728049 0,2.200037 0,2.200036 0.99817,0 c 0.54898,0 4.85092,2.699204 9.55984,5.998232 l 8.56169,5.998236 -2.12204,1.71214 c -1.16712,0.94169 -3.6336,2.50626 -5.48105,3.47684 l -3.35901,1.76471 -6.47809,0.67834 -6.47809,0.67834 -0.008,-9.91349 -0.008,-9.913489 -18.94686,-8.60207 C 486.2478,78.505845 461.31055,67.130059 441.25246,57.957448 421.19438,48.78485 396.34555,37.433124 386.03286,32.731403 L 367.2825,24.182818 332.76856,39.911785 c -18.98267,8.650929 -41.20797,18.805279 -49.38956,22.56522 -8.18159,3.759951 -25.99634,11.895108 -39.58833,18.078124 l -24.71272,11.241867 0,29.429644 0,29.42966 -1.51807,0.58254 c -0.83493,0.3204 -1.89645,0.58254 -2.35892,0.58254 z m 21.99126,-3.83887 -1.79908,0 0,-23.36828 0,-23.36826 9.35724,-4.3685 c 5.14649,-2.402671 24.68873,-11.366813 43.4272,-19.92032 18.73848,-8.553508 41.84367,-19.136251 51.34487,-23.517212 9.5012,-4.380974 19.65021,-9.008557 22.55335,-10.283522 l 5.27845,-2.31812 31.1908,14.260446 c 17.15494,7.843246 38.74858,17.729666 47.98586,21.969831 9.23727,4.240155 24.89266,11.40738 34.78974,15.927158 l 17.9947,8.217779 0,6.0661 0,6.06611 -3.11908,0.54104 c -1.7155,0.29758 -22.76929,3.13238 -46.78621,6.29957 -24.01692,3.16719 -55.11176,7.27887 -69.09963,9.13706 -13.98788,1.85819 -33.85402,4.4642 -44.14699,5.79116 -10.29297,1.32694 -36.36746,4.76507 -57.94331,7.64029 -21.57587,2.87522 -40.03842,5.22767 -41.02791,5.22767 z m 57.2041,-22.07349 4.29931,0 3.73719,-1.49533 3.73719,-1.49532 1.6347,-3.06333 1.63472,-3.06333 -0.31397,-4.79859 -0.31396,-4.79859 -3.29552,0.33077 c -1.81254,0.18192 -4.32723,0.72302 -5.58821,1.20244 l -2.29268,0.87168 0.34455,1.6767 0.34455,1.67672 1.64472,-0.28201 1.64471,-0.28199 0,3.28357 0,3.28356 -1.38675,1.15091 -1.38675,1.1509 -2.21219,-0.31361 -2.21218,-0.3136 0,-9.56883 0,-9.56882 2.29686,-1.14511 2.29685,-1.145109 1.30209,0.499658 1.30207,0.499661 0,2.35454 0,2.35455 3.59894,-0.29786 3.59894,-0.29787 0.29807,-2.58108 0.29806,-2.581091 -2.0992,-2.099199 -2.0992,-2.099199 -6.11629,0.490953 -6.11629,0.490962 -2.44238,1.6003 -2.44236,1.600299 -0.91688,2.411575 -0.91688,2.41158 0,9.05483 0,9.05484 1.91943,1.91943 1.91944,1.91944 4.2993,0 z m 23.00638,-3.4374 c 1.60897,-0.34413 3.07124,-0.75706 3.24947,-0.91762 0.17823,-0.16056 0.56212,-2.91729 0.85308,-6.12605 l 0.52902,-5.83412 3.22572,0 3.22571,0 0.0147,4.55865 0.0147,4.55866 0.71579,1.12532 0.71579,1.12531 3.26236,-0.66722 3.26235,-0.66723 0.25717,-5.08546 0.25717,-5.08546 -1.88972,-1.88972 -1.8897,-1.8897 1.95843,-2.48973 1.95845,-2.48973 0,-2.749726 0,-2.749723 -2.0468,-2.046799 -2.0468,-2.046798 -7.31044,0.621638 c -4.02075,0.341899 -8.26099,0.875914 -9.42278,1.186709 l -2.11231,0.565081 -0.28698,14.378948 c -0.15782,7.90843 -0.0918,14.5728 0.14664,14.80971 0.23848,0.2369 1.75003,0.14918 3.35901,-0.19494 z m 7.26789,-17.67638 -2.90291,0 0,-4.31872 0,-4.318732 3.29434,0 3.29433,0 0.56898,1.792674 0.56897,1.792675 -0.9604,2.526053 -0.96041,2.52605 -2.9029,0 z m 16.16111,14.38266 c 0.86344,-0.008 2.51695,-0.26707 3.67444,-0.57746 l 2.10455,-0.56436 0.61094,-2.78154 0.61092,-2.78156 1.72322,0 c 0.94776,0 3.03665,-0.26269 4.64196,-0.58375 l 2.91876,-0.58376 0.32029,2.26327 0.32029,2.26325 2.87916,0.25002 2.87915,0.25003 1.1561,-0.75962 1.1561,-0.7596 -3.55539,-13.88618 -3.5554,-13.886165 -3.76822,0.328041 c -2.07253,0.180427 -4.68772,0.677637 -5.81154,1.104913 l -2.04331,0.776872 -1.11083,4.653389 c -0.61096,2.559364 -2.37314,9.29602 -3.91596,14.97035 l -2.80514,10.31696 1.56991,-0.0131 z m 11.64693,-11.29879 -2.87915,0.42256 0,-0.97565 c 0,-0.53661 0.51827,-3.48493 1.15174,-6.55181 0.63345,-3.066873 1.42302,-5.576139 1.7546,-5.576139 0.33157,0 1.10891,2.19231 1.72741,4.871799 0.6185,2.6795 1.12455,5.43764 1.12455,6.12924 l 0,1.25743 -2.87915,0.42257 z m 20.39399,6.59562 3.11908,-0.63499 0.47986,-10.04062 0.47986,-10.040625 1.69596,3.755536 c 0.93278,2.065542 2.82722,6.276299 4.20986,9.357239 l 2.5139,5.60171 2.02829,-0.0132 c 1.11557,-0.007 3.00002,-0.27351 4.18767,-0.59179 l 2.15937,-0.57869 0,-14.763684 0,-14.763683 -1.19965,0.01305 c -0.65981,0.0067 -2.17136,0.27351 -3.35901,0.591791 l -2.15936,0.57869 0,8.20561 0,8.205619 -0.65597,-0.655966 c -0.36078,-0.360777 -2.03963,-3.779769 -3.73079,-7.597764 l -3.07481,-6.941787 -4.18689,0.316879 c -2.30278,0.174285 -4.48986,0.606829 -4.86017,0.961214 l -0.6733,0.644326 -0.0931,13.914401 c -0.0512,7.652924 -0.0722,14.183764 -0.0464,14.512984 l 0.0466,0.59858 3.11908,-0.63498 z m 26.55413,-3.92119 c 0.63246,0 4.25575,-0.47321 8.05178,-1.05159 l 6.90185,-1.0516 2.98611,-1.39394 2.98611,-1.39395 1.09268,-2.39821 1.0927,-2.3982 0,-9.072144 0,-9.072158 -1.91944,-1.919434 -1.91943,-1.919434 -3.11908,0.0077 c -1.71549,0.0038 -5.91532,0.460924 -9.33295,1.0154 -3.41763,0.554486 -6.29597,1.091064 -6.3963,1.192401 -0.10034,0.101336 -0.49553,6.770305 -0.87819,14.819932 l -0.69575,14.635687 1.14991,0 z m 10.22256,-5.7583 -3.22395,0 0.20873,-4.0788 c 0.11481,-2.243335 0.28516,-7.02 0.37857,-10.614822 l 0.16985,-6.536019 3.59893,0.297857 3.59894,0.297868 0.2772,8.390979 0.2772,8.390977 -1.03075,1.92598 -1.03076,1.92598 -3.22396,0 z m 189.23669,16.3984 c -2.50726,0.99452 -4.55866,1.62331 -4.55866,1.39733 0,-0.226 6.95438,-10.37728 15.45417,-22.5584 l 15.45416,-22.147518 2.06068,-1.086735 c 1.13337,-0.597703 8.53876,-5.396451 16.45642,-10.663878 7.91767,-5.267426 17.20293,-11.549625 20.63392,-13.960444 3.43099,-2.410819 11.2047,-8.047564 17.27491,-12.526084 6.07021,-4.478529 14.13387,-10.654894 17.91925,-13.725269 l 6.88251,-5.582502 1.51501,0 1.51502,0 -0.002,22.313423 -0.002,22.313419 -4.07708,2.528106 c -2.24239,1.390467 -11.93758,6.883139 -21.54485,12.205941 -9.60726,5.322802 -23.03822,12.469182 -29.84656,15.880852 -6.80833,3.41166 -20.97335,10.163139 -31.47781,15.003289 -10.50405,4.84014 -21.15,9.61395 -23.65726,10.60847 z M 538.42407,80.325824 c -1.97942,0.274546 -3.59894,0.348857 -3.59894,0.165138 0,-0.183709 5.27597,-5.047382 11.72437,-10.808151 6.44841,-5.760779 20.45855,-19.226892 31.13366,-29.924715 l 19.40929,-19.450596 24.76174,0.256254 24.76174,0.256245 -11.50848,10.217177 c -6.32967,5.619441 -16.47502,14.275168 -22.54523,19.234938 -6.07021,4.95977 -15.62893,12.514976 -21.24161,16.789354 l -10.20484,7.771588 -5.15063,0.646081 c -2.83283,0.355345 -11.62871,1.478905 -19.54637,2.4968 -7.91767,1.017896 -16.01528,2.075341 -17.9947,2.349887 z"
       id="path3808"
       inkscape:connector-curvature="0" />
    <path
       style="fill:none;stroke:#000000;stroke-width:1.35401368;stroke-opacity:1"
       d="m 375.71396,1042.9663 -289.954813,-0.076 -8.32449,-2.6388 -8.32449,-2.6386 -6.569661,-4.515 -6.569662,-4.5149 -5.609814,-6.8606 -5.609827,-6.8607 -3.191261,-7.9124 -3.191276,-7.9124 0,-294.49796 0,-294.49798 3.191276,-7.91242 3.191261,-7.91241 5.609827,-6.86061 5.609814,-6.86062 6.556433,-4.50583 6.556433,-4.50584 8.818841,-2.72386 8.818853,-2.72387 289.473696,0 289.47368,0 8.81886,2.72387 8.81883,2.72386 6.55644,4.50584 6.55643,4.50583 5.60982,6.86062 5.60983,6.86061 3.19126,7.91241 3.19128,7.91242 0,294.49798 0,294.49796 -3.19128,7.9124 -3.19126,7.9124 -5.60983,6.8607 -5.60982,6.8606 -6.55643,4.5059 -6.55644,4.5057 -8.81883,2.7239 -8.81886,2.7239 -289.95482,-0.076 z m 2.51215,-19.2827 291.11296,-0.2744 5.41605,-2.9318 5.41606,-2.9319 4.92836,-5.1923 c 2.71059,-2.8557 6.06178,-7.3248 7.44708,-9.9312 l 2.51871,-4.73911 0,-293.144 0,-293.14397 -2.51871,-4.73905 c -1.3853,-2.60648 -4.73649,-7.07557 -7.44708,-9.93132 l -4.92836,-5.1923 -5.41606,-2.93179 -5.41605,-2.93181 -293.14397,0 -293.143981,0 -4.739048,2.51872 c -2.606476,1.38531 -7.075575,4.73649 -9.931325,7.44707 l -5.19229,4.92837 -2.931793,5.41606 -2.931804,5.41605 -0.357243,187.31148 -0.357244,187.31147 1.2671,-0.45757 c 0.696912,-0.25167 31.394447,-17.82282 68.216768,-39.04698 l 66.94966,-38.58939 0.93218,-12.86313 0.93217,-12.86314 2.64117,-13.11824 2.64118,-13.11822 4.17192,-11.93103 4.17193,-11.93101 6.42751,-12.29378 6.42753,-12.29378 7.85985,-10.72445 7.85982,-10.72445 11.85557,-11.6799 11.85556,-11.67993 13.42894,-8.94 13.42895,-8.94001 10.28849,-4.75358 c 5.65868,-2.61446 15.67376,-6.53571 22.25574,-8.71391 l 11.96724,-3.96032 12.76322,-2.14699 12.76323,-2.147 18.54024,0 18.54022,0 11.78737,2.05553 11.78739,2.05556 14.45474,4.75694 c 7.95011,2.61632 17.04358,6.1208 20.20771,7.78776 l 5.75297,3.03082 -36.21827,20.83471 c -19.92004,11.45909 -36.4691,21.04059 -36.77567,21.29221 -0.30656,0.25164 1.06438,3.43724 3.04653,7.07912 1.98216,3.64186 3.60392,7.5308 3.60392,8.64207 l 0,2.0205 -1.96603,1.63167 -1.96605,1.63168 -2.70067,-0.85717 -2.70066,-0.85715 -3.85178,-6.67153 -3.85177,-6.67152 -27.02438,15.64053 c -14.8634,8.60229 -27.43187,16.05267 -27.92993,16.55641 l -0.90558,0.91587 48.45006,83.88736 48.45006,83.88735 1.45982,0.48661 1.45981,0.4866 14.63434,-8.40664 c 8.0489,-4.62363 20.29799,-11.7214 27.22021,-15.77277 l 12.58587,-7.36617 -3.44628,-5.88064 -3.44628,-5.88064 0,-2.63963 0,-2.63963 1.96604,-1.63166 1.96604,-1.63168 2.57291,0.81662 2.57292,0.8166 3.7099,6.81631 3.70989,6.81631 2.92177,-1.88678 c 1.60697,-1.03774 17.41164,-10.23698 35.12148,-20.44276 17.70985,-10.20579 33.18801,-18.93521 34.39593,-19.39874 l 2.19623,-0.84277 -0.92316,10.18732 -0.92315,10.18732 -3.36229,13.88588 -3.3623,13.88589 -5.23626,12.53187 c -2.87995,6.89252 -7.68767,16.72926 -10.68385,21.8594 -2.99616,5.13015 -8.33033,13.28339 -11.85369,18.11831 l -6.40613,8.79078 -11.70362,11.50913 -11.70365,11.50911 -12.149,8.28892 c -6.68195,4.55891 -16.41414,10.42958 -21.6271,13.04593 -5.21294,2.61635 -14.84706,6.65111 -21.4091,8.96611 l -11.93103,4.2091 -13.79523,2.93393 -13.79526,2.93394 -20.9872,-0.0261 -20.98721,-0.0261 -13.54014,-2.85858 c -7.44708,-1.57222 -17.50063,-4.14436 -22.34123,-5.71584 -4.8406,-1.57147 -15.21008,-5.88322 -23.04331,-9.58166 l -14.24222,-6.72442 -111.68106,64.46692 C 108.93536,961.4022 58.289973,990.82956 57.814646,991.3395 l -0.864212,0.92724 1.877176,6.28228 1.877165,6.28238 6.156402,6.8473 6.156403,6.8474 7.04779,2.7159 7.04779,2.7159 291.11295,-0.2744 z m 179.40683,-322.18821 -2.03103,0.34154 -43.68286,-25.22666 -43.68287,-25.22668 0.35443,-51.41037 0.35443,-51.41038 18.27919,-10.66476 c 10.05354,-5.86564 18.98927,-10.68058 19.85714,-10.69988 l 1.57798,-0.035 8.71669,15.17312 8.71669,15.17312 2.22998,1.40662 2.22995,1.40662 2.36952,-1.49222 2.36954,-1.49222 0.44124,-2.24232 0.44123,-2.24234 -8.90383,-15.50684 c -4.8971,-8.52877 -8.90366,-15.98469 -8.90348,-16.56873 2.1e-4,-0.58405 5.63629,-4.25326 12.52464,-8.15382 6.88836,-3.90055 15.61271,-8.87659 19.38748,-11.05786 l 6.8632,-3.96596 43.91232,25.34682 43.9123,25.3468 0.3545,51.63046 0.35452,51.63047 -17.20567,9.90537 c -9.46313,5.44791 -17.54363,9.90533 -17.95668,9.90533 l -0.75102,0 -0.67701,-29.1113 -0.67701,-29.11129 -3.30917,-0.46709 -3.30916,-0.4671 -1.76839,2.41841 -1.76839,2.41841 0,26.82147 0,26.82149 -0.72023,0 c -0.39614,0 -10.15854,-5.50298 -21.69421,-12.22883 -11.53569,-6.72584 -22.4657,-12.90848 -24.28891,-13.7392 l -3.31496,-1.51038 -2.07112,1.71887 -2.07111,1.71887 0,3.11011 0,3.11013 24.34792,13.98777 c 13.39134,7.69325 24.35364,14.29241 24.36067,14.66476 0.007,0.37235 -7.44604,4.94215 -16.56235,10.15511 -9.11629,5.21295 -17.48904,9.63178 -18.6061,9.81962 z m -349.98069,-246.13437 -4.09391,0.89116 -4.50978,-0.95425 -4.50978,-0.95423 -3.9215,-3.75705 -3.92151,-3.75705 -1.53033,-4.63691 -1.53031,-4.63693 0.81096,-4.05477 0.81094,-4.05479 2.92038,-4.10128 2.92036,-4.10128 4.49429,-1.87784 4.49427,-1.87782 4.17276,0 4.17278,0 3.83351,1.98238 c 2.10845,1.09032 5.42936,3.87895 7.37984,6.19696 l 3.54631,4.21455 -0.006,6.32769 -0.006,6.32768 -2.63051,4.31413 -2.6305,4.31413 -3.08714,1.65218 c -1.69793,0.90869 -4.92938,2.0532 -7.18101,2.54334 z m -3.51518,-8.08473 3.96378,0 2.80629,-3.56764 2.8063,-3.56765 0,-3.94097 0,-3.94098 -3.32349,-3.3235 -3.32348,-3.32348 -2.58698,0 -2.58696,0 -3.56764,2.80629 -3.56764,2.80631 0,5.31778 0,5.31778 2.70803,2.70803 2.70804,2.70803 3.96375,0 z m 296.14096,8.41901 -3.2553,0.6223 -4.43092,-1.47412 -4.43089,-1.47413 -1.45343,-2.33226 -1.45342,-2.33226 1.63008,-1.63008 1.63009,-1.63009 2.6203,2.3713 2.62026,2.37134 3.84329,-0.44 3.84328,-0.44 0.41187,-3.55187 0.41189,-3.55187 -6.10403,-3.57721 -6.10401,-3.57717 -2.09345,-2.98881 -2.09344,-2.98882 0,-2.4683 0,-2.46829 3.3235,-3.3235 3.32348,-3.32348 4.49932,0 4.49932,0 3.00929,2.10779 c 1.65514,1.1593 3.00931,2.61737 3.00931,3.24017 0,0.62281 -0.99119,1.51274 -2.20263,1.97761 l -2.20265,0.84525 -1.78487,-1.48132 -1.78487,-1.48132 -3.12106,0.44244 -3.12105,0.44244 -0.43376,3.05484 -0.43377,3.05484 4.32793,2.3612 c 2.38037,1.29868 6.07909,3.78634 8.21934,5.52812 l 3.89141,3.1669 0,3.75907 0,3.75908 -2.67757,3.40397 -2.67754,3.40395 -3.2553,0.62229 z m 63.31638,-0.26525 -4.25735,0.96018 -5.04247,-1.73353 -5.04249,-1.73351 -3.27187,-3.07378 -3.27187,-3.07375 -1.31995,-4.90192 -1.31994,-4.90191 1.28828,-4.49198 c 0.70856,-2.47061 2.17771,-5.84944 3.26478,-7.50853 l 1.9765,-3.0165 4.70657,-2.23342 4.70658,-2.23342 4.32978,0 4.32979,0 4.58383,2.17517 4.58383,2.17516 2.84221,4.5988 2.84221,4.59878 0,6.0602 0,6.06019 -2.91503,4.09377 c -1.60326,2.25159 -4.22925,4.79714 -5.83554,5.65679 -1.60629,0.85966 -4.83631,1.99509 -7.17785,2.52321 z m -3.65884,-5.44574 4.64546,0 2.605,-1.39414 2.605,-1.39416 2.04504,-3.95466 2.04503,-3.95467 0,-3.58767 0,-3.58768 -4.60364,-4.60365 -4.60366,-4.60364 -3.58767,0 -3.58768,0 -3.80408,1.96717 -3.80407,1.96715 -1.69966,4.10335 -1.69965,4.10332 0.88226,4.70294 0.88229,4.70295 3.51728,2.76669 3.51729,2.7667 4.64546,0 z m 92.35305,5.24275 -4.61377,0.99171 -5.19615,-0.89233 -5.19615,-0.89235 -4.19083,-4.19084 -4.19086,-4.19084 -0.50427,-7.85065 -0.50426,-7.85065 2.62283,-4.17042 2.62283,-4.1704 5.09059,-2.41564 5.0906,-2.41564 5.95631,0.67136 5.95633,0.67136 2.6483,2.39669 2.6483,2.39667 -1.48543,1.78984 -1.48544,1.78983 -3.85859,-1.99536 c -2.12224,-1.09744 -5.13773,-1.99536 -6.70112,-1.99536 -1.56338,0 -4.61676,0.91751 -6.78531,2.03891 l -3.94282,2.03891 -1.66871,5.56963 -1.66871,5.56966 2.6341,4.91607 2.63408,4.91607 4.68671,1.5154 4.68669,1.5154 4.01732,-1.15216 4.01734,-1.15215 1.08997,-1.71726 c 0.59951,-0.94449 1.09932,-2.47889 1.11072,-3.40978 l 0.0207,-1.69251 -4.06205,0 -4.06203,0 0,-2.70803 0,-2.70803 7.62536,0 7.62535,0 -0.75416,5.62265 -0.75415,5.62266 -3.27294,3.27293 -3.27294,3.27295 -4.61377,0.9917 z m -558.066887,-0.0833 -5.077552,0.42024 0,-18.36093 0,-18.36091 5.41606,0 5.416051,0 0,7.76751 0,7.7675 4.826148,-7.16642 c 2.65439,-3.94152 5.64291,-7.47982 6.64117,-7.8629 0.99826,-0.38307 3.73513,-0.50123 6.08192,-0.26259 l 4.26691,0.43392 -6.29407,8.45194 -6.29407,8.45195 6.89511,8.66522 c 3.79231,4.76586 6.89511,9.03579 6.89511,9.48872 l 0,0.82352 -5.75456,-0.0292 -5.75455,-0.0292 -5.41605,-7.57925 -5.41607,-7.57923 -0.676998,7.26993 -0.677011,7.26993 -5.077548,0.42024 z m 45.697967,0.25677 -4.73905,0 0,-18.27919 0,-18.27918 4.74468,0 4.74466,0 8.11847,10.94935 8.11845,10.94937 0,-10.94937 0,-10.94935 4.73904,0 4.73905,0 0,18.27918 0,18.27919 -4.62372,0 -4.62373,0 -4.6926,-6.43156 c -2.58094,-3.53736 -6.28867,-8.8015 -8.2394,-11.69807 l -3.54681,-5.2665 0,11.69806 0,11.69807 -4.73904,0 z m 97.04101,-0.25617 -5.82848,0.42083 1.36785,-2.45185 c 0.75231,-1.34852 3.7857,-5.79592 6.74086,-9.88314 l 5.373,-7.4313 -5.92679,-8.47837 -5.92681,-8.47837 6.01535,0 6.01538,0 2.60282,5.07343 2.60283,5.07343 2.41935,-5.07343 2.41934,-5.07343 5.99802,0 5.998,0 -2.36594,3.72354 c -1.30124,2.04794 -3.80855,5.66314 -5.57177,8.03375 -1.76321,2.3706 -3.20585,4.69864 -3.20585,5.1734 0,0.47478 2.74188,4.70563 6.09307,9.40189 3.35118,4.69627 6.09305,8.91827 6.09305,9.38222 l 0,0.84357 -5.2279,0 -5.2279,0 -3.23235,-6.09306 c -1.77781,-3.35117 -3.64473,-6.09306 -4.14876,-6.09306 -0.504,0 -2.34096,2.58954 -4.08213,5.75456 l -3.16574,5.75455 -5.8285,0.42084 z m 44.03098,0.0147 -2.28558,0.44016 -0.008,-1.79181 c -0.004,-0.98548 1.66913,-9.25579 3.71839,-18.37845 2.04927,-9.12267 4.097,-16.58667 4.5505,-16.58667 0.45352,0 3.38044,5.501 6.50428,12.22444 l 5.67973,12.22445 0.94822,-0.59162 c 0.52152,-0.32538 3.3565,-6.10921 6.29995,-12.85294 2.94347,-6.74373 5.60787,-12.0052 5.92091,-11.69214 0.31307,0.31304 2.31173,8.05987 4.44148,17.21516 2.12975,9.15529 3.88281,17.40761 3.89568,18.33849 l 0.0234,1.69252 -2.47744,0 -2.47744,0 -2.34707,-10.92225 -2.34708,-10.92226 -5.28188,10.92226 c -2.90504,6.00723 -5.64563,10.92225 -6.09023,10.92225 -0.44458,0 -3.16293,-5.00928 -6.04076,-11.13177 l -5.23241,-11.13177 -0.92485,4.02319 c -0.50867,2.21278 -1.65819,7.06867 -2.55448,10.7909 l -1.62961,6.7677 -2.28558,0.44016 z m 52.9782,0.24159 -2.45726,0 0,-1.34223 c 0,-0.73823 3.43601,-8.81154 7.63556,-17.94068 4.19957,-9.12915 8.04616,-17.06338 8.54799,-17.63165 l 0.91243,-1.03322 8.39364,17.95839 c 4.6165,9.8771 8.38623,18.41535 8.37719,18.97389 l -0.0164,1.0155 -2.77712,0 -2.77711,0 -1.98012,-4.73905 -1.98009,-4.73904 -7.45081,0 -7.45081,0 -2.2599,4.73904 -2.25989,4.73905 -2.45724,0 z m 14.46792,-14.89415 4.73905,0 -0.0567,-1.01551 c -0.0311,-0.55853 -1.12554,-3.01973 -2.43184,-5.46931 l -2.37509,-4.45384 -2.30721,4.83827 c -1.26898,2.66105 -2.30723,5.12224 -2.30723,5.46933 0,0.34709 2.13258,0.63106 4.73906,0.63106 z m 31.75746,14.89415 -2.64617,0 0,-18.27918 0,-18.27918 2.70803,0 2.70803,0 0.0587,7.10857 0.0587,7.10858 6.37293,-7.10908 6.37295,-7.10907 3.04652,5e-4 3.04652,5e-4 0,1.07209 c 0,0.58965 -2.74187,3.76305 -6.09306,7.05199 -3.35117,3.28894 -6.09306,6.54728 -6.09306,7.24075 0,0.69347 3.35118,5.40856 7.44708,10.47796 4.09589,5.0694 7.44707,9.55425 7.44707,9.96634 0,0.41207 -1.47078,0.74923 -3.26846,0.74923 l -3.26843,0 -7.22517,-9.09132 -7.22515,-9.09133 -0.40036,9.09133 -0.40038,9.09132 -2.64616,0 z m 46.77534,0 -10.1551,0 0,-18.27918 0,-18.27918 10.1551,0 10.1551,0 0,2.03102 0,2.03101 -7.44707,0 -7.44708,0 0,4.73905 0,4.73904 7.44708,0 7.44707,0 0,2.70804 0,2.70803 -7.44707,0 -7.44708,0 0,6.09306 0,6.09306 7.44708,0 7.44707,0 0,2.70803 0,2.70802 -10.1551,0 z m 27.41877,-0.2511 -2.36952,0.44967 0,-18.37847 0,-18.37846 8.04732,0 8.04729,0 2.10781,3.0093 2.10779,3.0093 0,3.45949 0,3.4595 -2.10779,3.00929 -2.10781,3.00931 -2.03837,0 -2.03838,0 4.48468,6.13045 c 2.46658,3.37175 5.32063,7.33224 6.34235,8.80109 l 1.85765,2.67063 -3.31545,0 -3.31548,0 -5.98928,-8.28737 -5.98927,-8.28736 -0.677,7.93696 -0.67701,7.93696 -2.36953,0.44971 z m 6.3643,-21.41311 3.31774,0 1.24425,-2.22334 1.24424,-2.22334 -0.62515,-2.39053 -0.62513,-2.39052 -2.92134,-0.7837 c -1.60674,-0.43104 -3.37833,-0.79203 -3.93686,-0.8022 l -1.01551,-0.0184 0,5.41606 0,5.41606 3.31776,0 z m 64.87258,21.66421 -1.92866,0 -0.8143,-2.12202 -0.81431,-2.12205 1.47642,-1.47642 1.47642,-1.47641 2.00793,1.66644 2.00792,1.66643 -0.7414,1.93201 -0.74138,1.93202 -1.92864,0 z m 71.20847,0 -2.64343,0 0,-18.27918 0,-18.27918 7.91423,0 7.91422,0 2.24088,2.47612 2.24089,2.47615 0,4.87267 0,4.87266 -3.56864,2.80708 -3.56864,2.8071 3.73164,5.38476 c 2.05241,2.96161 4.57225,6.08239 5.59966,6.93506 1.02739,0.85269 1.86802,2.08503 1.86802,2.73854 l 0,1.18822 -3.11849,0 -3.11848,0 -6.02111,-8.46258 -6.02111,-8.46259 -0.40312,8.46259 -0.4031,8.46258 -2.64342,0 z m 5.99187,-21.66421 3.21924,0 1.63168,-1.96605 1.63168,-1.96603 -0.83372,-2.62682 -0.83373,-2.62682 -3.00168,-0.80471 c -1.65092,-0.44258 -3.45867,-0.81303 -4.0172,-0.8232 l -1.0155,-0.0184 0,5.41606 0,5.41606 3.21923,0 z"
       id="path3821"
       inkscape:connector-curvature="0" />
  </g>
</svg>
