<?xml version="1.0" encoding="UTF-8" standalone="no"?>
<!-- Created with Inkscape (http://www.inkscape.org/) -->

<svg
   xmlns:dc="http://purl.org/dc/elements/1.1/"
   xmlns:cc="http://creativecommons.org/ns#"
   xmlns:rdf="http://www.w3.org/1999/02/22-rdf-syntax-ns#"
   xmlns:svg="http://www.w3.org/2000/svg"
   xmlns="http://www.w3.org/2000/svg"
   xmlns:sodipodi="http://sodipodi.sourceforge.net/DTD/sodipodi-0.dtd"
   xmlns:inkscape="http://www.inkscape.org/namespaces/inkscape"
   id="svg2"
   version="1.1"
   inkscape:version="0.48.4 r9939"
   width="1200"
   height="1200"
   xml:space="preserve"
   sodipodi:docname="km-outline-1200px.png"><metadata
     id="metadata8"><rdf:RDF><cc:Work
         rdf:about=""><dc:format>image/svg+xml</dc:format><dc:type
           rdf:resource="http://purl.org/dc/dcmitype/StillImage" /><dc:title></dc:title></cc:Work></rdf:RDF></metadata><defs
     id="defs6"><clipPath
       clipPathUnits="userSpaceOnUse"
       id="clipPath20"><path
         d="M 0,144 144,144 144,0 0,0 0,144 z"
         id="path22"
         inkscape:connector-curvature="0" /></clipPath></defs><sodipodi:namedview
     pagecolor="#ffffff"
     bordercolor="#666666"
     borderopacity="1"
     objecttolerance="10"
     gridtolerance="10"
     guidetolerance="10"
     inkscape:pageopacity="0"
     inkscape:pageshadow="2"
     inkscape:window-width="1280"
     inkscape:window-height="660"
     id="namedview4"
     showgrid="false"
     inkscape:zoom="0.1767767"
     inkscape:cx="640.5"
     inkscape:cy="253.94612"
     inkscape:window-x="-8"
     inkscape:window-y="-8"
     inkscape:window-maximized="1"
     inkscape:current-layer="g10"
     units="px"
     fit-margin-top="0"
     fit-margin-left="-2.7755576e-017"
     fit-margin-right="0"
     fit-margin-bottom="0"
     inkscape:document-units="in" /><g
     id="g10"
     inkscape:groupmode="layer"
     inkscape:label="km-outline-medium"
     transform="matrix(1.25,0,0,-1.25,-160.16949,1394.4915)"><g
       id="g12"
       transform="matrix(6.6666667,0,0,6.6666667,201.53756,989.23581)"><path
         d="m 0,0 0,7.863 2.122,0 0,-3.571 2.486,3.571 2.498,0 L 4.2,4.028 7.358,0 4.684,0 2.122,3.529 2.122,0 0,0 z"
         style="fill:#373535;fill-opacity:1;fill-rule:nonzero;stroke:none"
         id="path14"
         inkscape:connector-curvature="0" /></g><g
       id="g16"
       transform="matrix(6.6666667,0,0,6.6666667,128.13559,155.59322)"><g
         id="g18"
         clip-path="url(#clipPath20)"><g
           id="g24"
           transform="translate(20.6089,125.0464)"><path
             d="m 0,0 0,7.863 2.068,0 2.97,-4.044 C 5.095,3.736 5.189,3.571 5.32,3.322 5.451,3.073 5.595,2.777 5.752,2.433 5.709,2.759 5.678,3.049 5.658,3.303 5.639,3.558 5.629,3.783 5.629,3.98 l 0,3.883 2.057,0 L 7.686,0 5.629,0 2.659,4.061 C 2.598,4.143 2.502,4.309 2.371,4.557 2.241,4.806 2.098,5.099 1.944,5.436 1.987,5.106 2.019,4.814 2.038,4.56 2.058,4.306 2.068,4.08 2.068,3.883 L 2.068,0 0,0 z"
             style="fill:#373535;fill-opacity:1;fill-rule:nonzero;stroke:none"
             id="path26"
             inkscape:connector-curvature="0" /></g><g
           id="g28"
           transform="translate(35.3633,126.6523)"><path
             d="M 0,0 C 0.594,0 1.086,0.218 1.474,0.655 1.863,1.092 2.057,1.644 2.057,2.31 2.057,2.968 1.86,3.518 1.466,3.958 1.072,4.399 0.583,4.619 0,4.619 -0.594,4.619 -1.086,4.4 -1.474,3.961 -1.863,3.522 -2.057,2.972 -2.057,2.31 -2.057,1.636 -1.866,1.083 -1.482,0.65 -1.099,0.217 -0.605,0 0,0 M 4.2,2.31 C 4.2,1.744 4.096,1.214 3.889,0.72 3.681,0.226 3.378,-0.217 2.981,-0.607 2.58,-0.994 2.122,-1.292 1.606,-1.501 1.09,-1.711 0.555,-1.815 0,-1.815 c -0.562,0 -1.1,0.104 -1.614,0.314 -0.514,0.209 -0.966,0.507 -1.356,0.894 -0.405,0.39 -0.712,0.835 -0.921,1.332 -0.21,0.498 -0.315,1.026 -0.315,1.585 0,0.562 0.105,1.091 0.315,1.586 0.209,0.497 0.516,0.94 0.921,1.33 0.39,0.387 0.842,0.685 1.356,0.894 C -1.1,6.33 -0.562,6.435 0,6.435 0.559,6.435 1.097,6.33 1.614,6.12 2.131,5.911 2.587,5.613 2.981,5.226 3.375,4.839 3.676,4.397 3.886,3.899 4.095,3.402 4.2,2.872 4.2,2.31"
             style="fill:#373535;fill-opacity:1;fill-rule:nonzero;stroke:none"
             id="path30"
             inkscape:connector-curvature="0" /></g><g
           id="g32"
           transform="translate(44.8853,131.0835)"><path
             d="m 0,0 0.011,-0.021 c 0.125,-0.237 0.209,-0.444 0.252,-0.624 0.04,0.165 0.12,0.36 0.242,0.586 C 0.519,-0.034 0.53,-0.014 0.537,0 l 0.945,1.826 2.541,0 -2.627,-3.781 2.906,-4.082 -2.433,0 -1.332,2.331 C 0.476,-3.602 0.422,-3.496 0.376,-3.386 0.33,-3.277 0.292,-3.167 0.263,-3.056 0.231,-3.182 0.193,-3.298 0.15,-3.405 0.107,-3.513 0.057,-3.613 0,-3.706 l -1.343,-2.331 -2.433,0 2.917,4.125 -2.638,3.738 2.552,0 L 0,0 z"
             style="fill:#373535;fill-opacity:1;fill-rule:nonzero;stroke:none"
             id="path34"
             inkscape:connector-curvature="0" /></g><g
           id="g36"
           transform="translate(58.2773,128.9297)"><path
             d="M 0,0 C -0.014,0.061 -0.038,0.229 -0.07,0.505 -0.099,0.734 -0.124,0.924 -0.145,1.074 -0.177,0.895 -0.223,0.716 -0.282,0.537 -0.341,0.358 -0.416,0.175 -0.505,-0.011 L -2.562,-4.2 -4.619,0.075 C -4.705,0.25 -4.779,0.421 -4.842,0.585 -4.905,0.75 -4.959,0.913 -5.006,1.074 -5.009,0.91 -5.023,0.737 -5.046,0.556 -5.069,0.375 -5.104,0.186 -5.151,-0.011 l -0.843,-3.872 -1.176,0 1.858,8.196 2.32,-4.963 c 0.036,-0.079 0.091,-0.209 0.164,-0.392 0.074,-0.183 0.162,-0.408 0.266,-0.677 0.075,0.226 0.193,0.512 0.354,0.86 0.043,0.093 0.076,0.164 0.097,0.214 l 2.267,4.958 1.901,-8.196 -1.187,0 L 0,0 z"
             style="fill:#373535;fill-opacity:1;fill-rule:nonzero;stroke:none"
             id="path38"
             inkscape:connector-curvature="0" /></g><g
           id="g40"
           transform="translate(64.9824,128.1348)"><path
             d="M 0,0 2.191,0 1.386,1.794 C 1.339,1.909 1.291,2.04 1.241,2.188 1.19,2.337 1.141,2.503 1.09,2.686 1.047,2.514 1.001,2.354 0.954,2.205 0.905,2.056 0.856,1.919 0.806,1.794 L 0,0 z m 3.534,-3.088 -0.891,2.025 -3.116,0 -0.913,-2.025 -1.343,0 3.809,8.174 3.802,-8.174 -1.348,0 z"
             style="fill:#373535;fill-opacity:1;fill-rule:nonzero;stroke:none"
             id="path42"
             inkscape:connector-curvature="0" /></g><g
           id="g44"
           transform="translate(72.1772,125.0464)"><path
             d="m 0,0 0,7.863 1.278,0 0,-3.255 2.826,3.255 1.563,0 L 2.551,4.367 6.038,0 4.388,0 1.278,4.018 1.278,0 0,0 z"
             style="fill:#373535;fill-opacity:1;fill-rule:nonzero;stroke:none"
             id="path46"
             inkscape:connector-curvature="0" /></g><g
           id="g48"
           transform="translate(80.5488,125.0464)"><path
             d="m 0,0 0,7.863 4.388,0 0,-1.085 -3.111,0 0,-1.971 3.111,0 0,-1.122 -3.111,0 0,-2.541 3.111,0 L 4.388,0 0,0 z"
             style="fill:#373535;fill-opacity:1;fill-rule:nonzero;stroke:none"
             id="path50"
             inkscape:connector-curvature="0" /></g><g
           id="g52"
           transform="translate(89.2754,129.5581)"><path
             d="M 0,0 0.231,0 C 0.908,0 1.357,0.079 1.58,0.236 1.802,0.394 1.912,0.673 1.912,1.074 1.912,1.507 1.793,1.813 1.555,1.99 1.317,2.167 0.876,2.256 0.231,2.256 L 0,2.256 0,0 z m -0.08,-0.994 0,-3.518 -1.197,0 0,7.864 1.783,0 C 1.028,3.352 1.434,3.317 1.723,3.25 2.01,3.182 2.256,3.069 2.461,2.911 2.704,2.721 2.893,2.476 3.024,2.175 3.156,1.875 3.223,1.545 3.223,1.187 3.223,0.557 3.07,0.063 2.767,-0.292 2.463,-0.649 2.013,-0.863 1.418,-0.935 l 2.707,-3.577 -1.444,0 -2.617,3.518 -0.144,0 z"
             style="fill:#373535;fill-opacity:1;fill-rule:nonzero;stroke:none"
             id="path54"
             inkscape:connector-curvature="0" /></g><g
           id="g56"
           transform="translate(95.1582,126.6201)"><path
             d="m 0,0 1.021,0.473 c 0.096,-0.351 0.274,-0.619 0.532,-0.803 0.258,-0.185 0.588,-0.277 0.988,-0.277 0.379,0 0.682,0.106 0.904,0.317 0.225,0.211 0.336,0.494 0.336,0.849 0,0.462 -0.383,0.873 -1.148,1.235 C 2.525,1.848 2.442,1.887 2.385,1.912 1.519,2.334 0.941,2.717 0.652,3.059 0.365,3.401 0.221,3.819 0.221,4.313 c 0,0.641 0.217,1.16 0.652,1.558 0.436,0.397 1.006,0.596 1.711,0.596 0.58,0 1.065,-0.112 1.455,-0.336 C 4.43,5.907 4.7,5.586 4.851,5.167 L 3.852,4.651 C 3.693,4.898 3.521,5.079 3.334,5.194 3.145,5.309 2.93,5.366 2.686,5.366 2.342,5.366 2.069,5.276 1.867,5.097 1.664,4.918 1.563,4.678 1.563,4.377 1.563,3.905 2.008,3.464 2.896,3.056 2.963,3.024 3.018,2.999 3.057,2.981 3.834,2.623 4.367,2.273 4.657,1.931 4.947,1.589 5.092,1.162 5.092,0.65 5.092,-0.095 4.857,-0.687 4.389,-1.125 3.92,-1.564 3.285,-1.783 2.487,-1.783 1.818,-1.783 1.27,-1.629 0.842,-1.321 0.413,-1.013 0.133,-0.573 0,0"
             style="fill:#373535;fill-opacity:1;fill-rule:nonzero;stroke:none"
             id="path58"
             inkscape:connector-curvature="0" /></g><g
           id="g60"
           transform="translate(103.0488,125.6426)"><path
             d="M 0,0 C 0,0.197 0.068,0.365 0.204,0.505 0.34,0.645 0.507,0.714 0.703,0.714 0.9,0.714 1.066,0.645 1.203,0.505 1.34,0.365 1.407,0.197 1.407,0 1.407,-0.193 1.34,-0.357 1.203,-0.491 1.066,-0.626 0.9,-0.693 0.703,-0.693 0.507,-0.693 0.34,-0.626 0.204,-0.491 0.068,-0.357 0,-0.193 0,0"
             style="fill:#373535;fill-opacity:1;fill-rule:nonzero;stroke:none"
             id="path62"
             inkscape:connector-curvature="0" /></g><g
           id="g64"
           transform="translate(114.0244,128.9619)"><path
             d="M 0,0 C 0,0.397 -0.073,0.775 -0.218,1.133 -0.362,1.491 -0.571,1.81 -0.843,2.089 -1.108,2.365 -1.415,2.577 -1.765,2.726 -2.114,2.875 -2.481,2.949 -2.868,2.949 -3.255,2.949 -3.622,2.875 -3.972,2.729 -4.321,2.582 -4.632,2.369 -4.903,2.089 -5.176,1.813 -5.384,1.497 -5.526,1.139 -5.67,0.781 -5.741,0.401 -5.741,0 c 0,-0.397 0.071,-0.773 0.215,-1.128 0.142,-0.354 0.35,-0.671 0.623,-0.951 0.271,-0.279 0.582,-0.492 0.928,-0.639 0.347,-0.147 0.716,-0.22 1.107,-0.22 0.383,0 0.748,0.073 1.094,0.22 0.344,0.147 0.655,0.36 0.931,0.639 0.272,0.28 0.481,0.598 0.625,0.954 C -0.073,-0.769 0,-0.394 0,0 m 1.332,0 c 0,-0.559 -0.104,-1.087 -0.313,-1.584 -0.211,-0.498 -0.516,-0.942 -0.916,-1.333 -0.406,-0.39 -0.862,-0.689 -1.371,-0.896 -0.508,-0.208 -1.042,-0.312 -1.6,-0.312 -0.567,0 -1.106,0.104 -1.619,0.314 -0.514,0.209 -0.968,0.508 -1.362,0.894 -0.401,0.391 -0.706,0.833 -0.914,1.327 -0.207,0.494 -0.31,1.024 -0.31,1.59 0,0.562 0.103,1.092 0.31,1.59 0.208,0.497 0.513,0.943 0.914,1.337 0.401,0.39 0.856,0.688 1.364,0.892 0.508,0.204 1.047,0.306 1.617,0.306 0.566,0 1.101,-0.102 1.609,-0.306 C -0.753,3.615 -0.299,3.317 0.103,2.927 0.503,2.53 0.808,2.081 1.019,1.582 1.228,1.082 1.332,0.555 1.332,0"
             style="fill:#373535;fill-opacity:1;fill-rule:nonzero;stroke:none"
             id="path66"
             inkscape:connector-curvature="0" /></g><g
           id="g68"
           transform="translate(119.5645,129.5581)"><path
             d="M 0,0 0.23,0 C 0.907,0 1.356,0.079 1.578,0.236 1.801,0.394 1.912,0.673 1.912,1.074 1.912,1.507 1.793,1.813 1.555,1.99 1.316,2.167 0.875,2.256 0.23,2.256 L 0,2.256 0,0 z m -0.081,-0.994 0,-3.518 -1.198,0 0,7.864 1.783,0 C 1.027,3.352 1.433,3.317 1.721,3.25 2.01,3.182 2.256,3.069 2.459,2.911 2.703,2.721 2.891,2.476 3.023,2.175 3.156,1.875 3.223,1.545 3.223,1.187 3.223,0.557 3.07,0.063 2.766,-0.292 2.461,-0.649 2.012,-0.863 1.418,-0.935 l 2.707,-3.577 -1.445,0 -2.616,3.518 -0.145,0 z"
             style="fill:#373535;fill-opacity:1;fill-rule:nonzero;stroke:none"
             id="path70"
             inkscape:connector-curvature="0" /></g><g
           id="g72"
           transform="translate(130.1621,129.0747)"><path
             d="m 0,0 3.115,0 c 0,-0.054 0.002,-0.129 0.005,-0.226 0.011,-0.254 0.017,-0.426 0.017,-0.515 0,-1.107 -0.318,-1.966 -0.951,-2.578 -0.634,-0.613 -1.528,-0.919 -2.68,-0.919 -0.645,0 -1.22,0.095 -1.725,0.285 -0.505,0.19 -0.947,0.476 -1.326,0.859 -0.373,0.38 -0.658,0.825 -0.857,1.338 -0.2,0.512 -0.298,1.06 -0.298,1.643 0,0.594 0.1,1.142 0.304,1.644 0.202,0.501 0.501,0.943 0.899,1.326 0.384,0.376 0.833,0.663 1.349,0.86 0.515,0.197 1.066,0.295 1.654,0.295 0.619,0 1.174,-0.113 1.662,-0.338 C 1.656,3.448 2.092,3.103 2.476,2.637 L 1.541,1.934 C 1.275,2.242 0.977,2.471 0.645,2.621 c -0.334,0.15 -0.707,0.226 -1.118,0.226 -0.852,0 -1.548,-0.273 -2.088,-0.819 -0.538,-0.547 -0.807,-1.257 -0.807,-2.13 0,-0.888 0.269,-1.608 0.807,-2.162 0.54,-0.553 1.239,-0.83 2.098,-0.83 0.731,0 1.306,0.17 1.725,0.511 0.419,0.34 0.629,0.803 0.629,1.391 l 0,0.112 L 0,-1.08 0,0 z"
             style="fill:#373535;fill-opacity:1;fill-rule:nonzero;stroke:none"
             id="path74"
             inkscape:connector-curvature="0" /></g><g
           id="g76"
           transform="translate(105.5215,91.3774)"><path
             d="M 0,0 0.026,-0.047 C 0.022,-0.039 0.019,-0.031 0.014,-0.023 0.009,-0.015 0.004,-0.008 0,0"
             style="fill:#373535;fill-opacity:1;fill-rule:nonzero;stroke:none"
             id="path78"
             inkscape:connector-curvature="0" /></g><g
           id="g80"
           transform="translate(140,12.001)"><path
             d="M 0,0 C 0,-4.41 -3.591,-7.999 -8.002,-8.001 L -128.001,-8 c -4.059,0 -7.414,3.042 -7.924,6.965 l 47.999,27.712 c 11.674,-6.957 26.663,-7.569 39.268,-0.29 11.902,6.87 18.771,19.098 19.345,31.88 l -15.875,-9.165 -1.458,2.527 c -0.325,0.565 -1.043,0.758 -1.606,0.433 -0.564,-0.325 -0.754,-1.044 -0.432,-1.606 l 1.462,-2.528 -11.966,-6.908 -20.927,36.247 11.966,6.909 1.461,-2.534 c 0.325,-0.563 1.043,-0.756 1.606,-0.43 0.562,0.324 0.754,1.043 0.43,1.605 l -1.462,2.533 15.771,9.106 c -11.321,5.796 -25.254,5.921 -37.088,-0.912 -12.606,-7.277 -19.57,-20.564 -19.382,-34.152 L -136,42.541 -136,120 c 0,2.137 0.832,4.146 2.343,5.657 1.511,1.511 3.52,2.343 5.657,2.343 l 120,0 c 4.411,0 8,-3.589 8,-8 L 0,0 z m -8,132 -120,0 c -6.627,0 -12,-5.373 -12,-12 l 0,-120 c 0,-6.628 5.372,-12 11.999,-12 L -8.002,-12.001 C -1.373,-11.998 4,-6.627 4,0 l 0,120 c 0,6.627 -5.373,12 -12,12"
             style="fill:#373535;fill-opacity:1;fill-rule:nonzero;stroke:none"
             id="path82"
             inkscape:connector-curvature="0" /></g><g
           id="g84"
           transform="translate(110.4824,116.0195)"><path
             d="m 0,0 -8.426,-4.865 3.83,-6.634 c 0.325,-0.563 0.133,-1.281 -0.431,-1.605 -0.561,-0.325 -1.28,-0.133 -1.606,0.429 l -3.829,6.635 -8.425,-4.864 0,-21.811 L 0,-43.618 l 7.777,4.491 -10.113,5.839 c -0.559,0.324 -0.752,1.043 -0.428,1.605 0.325,0.563 1.041,0.754 1.606,0.43 l 10,-5.773 0,11.547 c 0,0.65 0.527,1.175 1.176,1.175 0.648,0.002 1.175,-0.526 1.177,-1.175 l -0.002,-11.676 7.694,4.441 0,21.809 L 0,0 z"
             style="fill:#373535;fill-opacity:1;fill-rule:nonzero;stroke:none"
             id="path86"
             inkscape:connector-curvature="0" /></g></g></g><path
       style="fill:#000000"
       d="m 192.33113,158.51103 c -19.52638,3.83377 -41.6127,19.83752 -52.14473,37.78288 -11.71497,19.96171 -11.11123,-3.91222 -11.11123,438.99746 0,438.15833 -0.47641,417.43683 10.07729,438.12373 6.16693,12.0884 22.07948,26.6467 36.69689,33.5741 l 13.22596,6.2685 418.98296,0 418.98313,0 13.2264,-6.2685 c 23.2138,-11.0013 39.3539,-31.1774 44.6115,-55.7657 1.8003,-8.4198 2.238,-112.78947 1.7686,-422.0338 l -0.6235,-410.84719 -4.7484,-11.76554 c -9.4497,-23.41165 -34.0575,-43.4874 -59.0883,-48.20432 -13.6476,-2.57164 -816.73553,-2.43783 -829.85657,0.13426 l 0,-5e-5 z m 837.76097,27.54135 c 11.7652,5.55337 21.885,15.65137 27.2646,27.20535 l 4.2613,9.15245 0,413.89836 0,413.89806 -6.1018,11.0246 c -6.9992,12.6467 -20.2118,23.2709 -32.9348,26.4835 -5.8594,1.4795 -136.37998,2.1529 -417.13267,2.1529 l -408.60478,0 -12.68876,-6.3409 c -8.33926,-4.1666 -14.7324,-9.161 -18.65007,-14.5697 -12.59439,-17.3862 -12.02301,-3.6243 -12.02301,-289.62836 0,-143.54241 0.50402,-260.98633 1.12025,-260.98633 0.61569,0 45.00556,25.34824 98.64397,56.32931 l 97.52398,56.32944 0.0291,12.31444 c 0.0784,26.07642 7.63177,61.66557 18.77366,88.5412 21.98111,53.01586 59.51829,96.35135 108.59173,125.36387 69.66959,41.18987 158.98415,46.37258 232.48025,13.49074 l 12.49325,-5.58941 -35.1728,-20.26824 c -19.34488,-11.14778 -42.76487,-24.72553 -52.04456,-30.17267 l -16.8719,-9.90399 5.17719,-8.83425 c 5.96373,-10.1758 6.59408,-16.28253 1.86806,-18.09609 -4.29917,-1.64985 -8.25014,1.76775 -13.15237,11.37607 -2.17808,4.26983 -4.8647,7.76357 -5.96996,7.76357 -1.4569,0 -77.45844,-42.94043 -80.72298,-45.60795 -0.58287,-0.47628 137.49737,-239.67706 139.55792,-241.76103 1.6798,-1.69896 81.46037,43.20343 81.52462,45.88406 0.0135,0.86103 -2.25066,5.19033 -5.04694,9.62049 -6.13538,9.71908 -6.37677,13.40286 -1.06369,16.24635 3.4618,1.85245 4.87708,0.97045 10.16975,-6.33561 3.38113,-4.66788 6.14828,-9.2649 6.14828,-10.21585 0,-0.9511 1.1675,-1.72877 2.59488,-1.72877 2.12062,0 48.53606,26.08301 95.29641,53.55136 l 9.41655,5.53201 -0.89455,-9.71151 C 857.3789,541.13258 819.29851,472.91935 762.07949,429.976 c -67.2854,-50.49826 -154.9744,-65.12021 -233.31741,-38.90508 -11.54526,3.8636 -28.38814,10.74312 -37.42794,15.28826 l -16.43658,8.26438 -159.188,-91.81639 C 228.15714,272.30866 155.89309,230.43344 155.12394,229.7521 c -2.96058,-2.62442 6.19212,-23.14554 13.85085,-31.05669 8.93989,-9.23399 15.53989,-13.14213 26.63395,-15.77281 4.42904,-1.0496 181.16472,-1.6893 416.50672,-1.50717 l 408.81384,0.31807 9.1522,4.32027 0,0 z"
       id="path3085"
       inkscape:connector-curvature="0" /><path
       style="fill:#000000"
       d="m 800.77025,676.3229 -61.52548,35.66465 0,71.75684 0,71.75693 27.59574,15.68945 c 15.17731,8.6288 27.86649,15.36989 28.19794,14.97947 0.33007,-0.39012 5.00496,-8.48916 10.38654,-17.99762 14.29143,-25.25191 16.82192,-28.47447 22.36144,-28.47447 5.6394,0 9.71357,6.12273 7.68404,11.54777 -0.76239,2.03863 -5.42849,10.57093 -10.36801,18.96074 -4.94004,8.38973 -10.25191,17.70656 -11.80451,20.70376 l -2.82269,5.44967 26.54463,15.3975 c 14.59977,8.46905 27.01367,15.39808 27.58702,15.39808 0.57331,0 28.9012,-16.09993 62.9504,-35.77791 l 61.90795,-35.77834 -0.53418,-72.21557 -0.53354,-72.21584 -23.89836,-13.88669 -23.89822,-13.88663 0,39.36227 c 0,33.07241 -0.51107,39.87337 -3.19645,42.5584 -1.75769,1.75813 -4.43821,3.19649 -5.95643,3.19649 -1.51804,0 -4.19841,-1.43836 -5.95627,-3.19649 -2.68165,-2.68122 -3.19607,-9.42318 -3.19607,-41.86425 0,-21.26743 -0.74367,-38.36324 -1.65196,-37.99028 -0.90814,0.37293 -15.55399,8.74702 -32.54571,18.60939 -34.557,20.05683 -41.57492,21.7594 -42.68717,10.3529 -0.60056,-6.15833 0.12058,-6.71442 34.10679,-26.21247 l 34.72025,-19.92047 -23.93706,-13.91747 c -13.16544,-7.65431 -24.85282,-13.87134 -25.97133,-13.81582 -1.11855,0.052 -29.72035,16.15087 -63.5593,35.76601 z"
       id="path3087"
       inkscape:connector-curvature="0" /><path
       style="fill:#000000"
       d="m 202.29573,1015.6301 0,25.424 6.00425,0 c 5.94581,0 6.01101,-0.1222 6.61054,-12.7122 l 0.60565,-12.7118 8.93899,12.7118 c 7.9912,11.3651 9.67412,12.7122 15.88101,12.7122 l 6.94319,0 -9.39095,-12.2044 c -5.68928,-7.3934 -8.79929,-13.2057 -7.88974,-14.7456 0.82552,-1.3979 4.39871,-6.2026 7.93871,-10.6772 10.1013,-12.76292 10.18683,-13.22029 2.46128,-13.22029 -6.01266,0 -7.89268,1.40936 -14.86577,11.14229 -4.39111,6.1287 -8.66942,11.1625 -9.50855,11.1867 -0.83892,0.016 -1.52513,-4.9901 -1.52513,-11.1428 0,-11.07325 -0.0587,-11.18619 -6.10155,-11.18619 l -6.10193,0 0,25.42349 z"
       id="path3089"
       inkscape:connector-curvature="0" /><path
       style="fill:#000000"
       d="m 267.38044,1015.6301 0,25.424 5.59392,-0.056 c 4.46759,-0.042 7.43386,-2.567 14.74521,-12.5274 5.03397,-6.8571 10.7157,-15.2963 12.62644,-18.7538 l 3.47368,-6.2868 0.0798,18.8138 0.0787,18.8136 6.10166,0 6.10124,0 0,-25.5529 0,-25.55243 -6.5848,0.63711 c -5.57406,0.5394 -8.15039,2.85972 -16.77983,15.11122 -5.60654,7.9607 -11.28448,16.198 -12.61717,18.3052 -1.97955,3.1311 -2.44422,0.3923 -2.54252,-14.9824 -0.1179,-18.67978 -0.15488,-18.81336 -5.20389,-18.81336 l -5.08478,0 0,25.42386 z"
       id="path3091"
       inkscape:connector-curvature="0" /><path
       style="fill:#000000"
       d="m 355.51515,990.40452 c -8.01481,2.32048 -16.3821,12.00438 -18.04897,20.88908 -2.85091,15.1975 10.12124,29.7452 26.52426,29.7452 22.90985,0 34.79635,-25.1444 20.12752,-42.57756 -4.17001,-4.95543 -16.5589,-10.86988 -21.1436,-10.09412 -0.56008,0.0919 -3.91645,1.01155 -7.45921,2.0374 z m 14.42197,10.27098 c 14.01904,6.3872 9.32918,30.2093 -5.94668,30.2093 -18.67903,0 -19.25281,-30.7319 -0.60399,-32.41388 0.78731,-0.0659 3.73452,0.92141 6.55067,2.20458 l 0,0 z"
       id="path3093"
       inkscape:connector-curvature="0" /><path
       style="fill:#000000"
       d="m 405.68589,991.13295 c 0,0.50994 3.66069,6.15328 8.13534,12.54055 4.4745,6.388 8.13582,12.4167 8.13582,13.3976 0,0.981 -3.6901,6.7783 -8.19998,12.8831 l -8.19968,11.0999 7.14119,0 c 6.28436,0 7.63917,-0.9768 11.29208,-8.1356 2.28272,-4.4745 4.57078,-8.1358 5.08461,-8.1358 0.51404,0 2.8022,3.6613 5.08475,8.1358 3.62376,7.1026 5.03606,8.1356 11.12515,8.1356 l 6.97399,0 -8.36947,-12.1294 -8.36984,-12.1293 7.9644,-11.7691 c 10.39173,-15.35606 10.27686,-14.81969 3.16604,-14.81969 -5.25812,0 -6.97748,1.46517 -11.81292,10.06769 l -5.65925,10.067 -5.81267,-10.067 c -4.87181,-8.43892 -6.77218,-10.06769 -11.74604,-10.06769 -3.2634,0 -5.93352,0.41693 -5.93352,0.92634 z"
       id="path3095"
       inkscape:connector-curvature="0" /><path
       style="fill:#000000"
       d=""
       id="path3097"
       inkscape:connector-curvature="0" /><path
       style="fill:#000000"
       d="m 564.83808,1009.9134 c 1.95783,0.5119 5.16103,0.5119 7.1187,0 1.95743,-0.5112 0.3559,-0.9298 -3.5592,-0.9298 -3.9156,0 -5.51709,0.4186 -3.5595,0.9298 z"
       id="path3099"
       inkscape:connector-curvature="0" /><path
       style="fill:#000000"
       d="m 611.10897,1015.6301 c 0,21.2432 0.50221,25.424 3.05108,25.424 2.35786,0 3.05182,-2.657 3.05471,-11.6951 l 0.002,-11.6949 10.74735,12.0095 c 5.91167,6.6053 11.94895,11.6092 13.41649,11.1201 1.75128,-0.5842 -0.6223,-4.5499 -6.90349,-11.5361 l -9.57262,-10.6471 8.65186,-11.2137 c 4.75802,-6.168 9.43345,-11.69749 10.38959,-12.28841 2.81483,-1.73968 1.98969,-4.90178 -1.27858,-4.90178 -1.6587,0 -7.83696,6.14165 -13.72883,13.64849 l -10.71208,13.6484 -0.60193,-13.6484 c -0.45386,-10.30991 -1.32488,-13.64849 -3.55876,-13.64849 -2.43014,0 -2.95822,4.53553 -2.95822,25.42349 z"
       id="path3101"
       inkscape:connector-curvature="0" /><path
       style="fill:#000000"
       d="m 471.38024,994.78268 c 0.57822,2.51696 3.11648,13.72912 5.64079,24.91542 l 4.58976,20.339 9.01903,-19.2351 9.01941,-19.2357 6.75691,14.5884 c 3.71615,8.0238 7.37023,16.5201 8.11944,18.8803 0.74884,2.3602 1.85253,3.8007 2.45253,3.2007 0.59998,-0.6 3.59476,-11.6519 6.65483,-24.56 4.25325,-17.94156 4.93331,-23.46909 2.88677,-23.46909 -2.85322,0 -6.22931,9.75264 -8.27333,23.89829 -0.68723,4.7542 -1.81147,8.6189 -2.49832,8.5875 -0.68697,-0.02 -4.64161,-7.5676 -8.78829,-16.7484 l -7.53978,-16.69246 -7.88212,17.07026 c -4.44012,9.616 -8.34767,15.8195 -8.94821,14.2061 -0.5859,-1.5747 -2.28049,-9.0417 -3.76507,-16.5925 -1.82118,-9.2635 -3.64182,-13.72879 -5.59712,-13.72879 -1.96097,0 -2.55824,1.47972 -1.84723,4.57607 z"
       id="path3105"
       inkscape:connector-curvature="0" /><path
       style="fill:#000000"
       d="m 546.93806,993.76578 c 3.66682,9.67202 20.5794,45.21762 21.52263,45.23462 1.18191,0.014 22.34887,-44.79546 22.32437,-47.26855 -0.004,-0.83908 -1.31661,-1.52524 -2.90788,-1.52524 -1.59093,0 -3.95034,3.20302 -5.24255,7.11871 -2.30192,6.97508 -2.57276,7.11858 -13.4109,7.11858 -10.63957,0 -11.19116,-0.2687 -14.45628,-7.11858 -3.45761,-7.25074 -10.43005,-10.42061 -7.82939,-3.55954 z m 29.59509,16.55772 c 0,0.9966 -1.73615,5.6892 -3.85825,10.4288 l -3.858,8.6166 -4.27743,-9.6701 c -2.35273,-5.3185 -4.27789,-10.0117 -4.27789,-10.4291 0,-0.417 3.6613,-0.7579 8.136,-0.7579 4.47429,0 8.13557,0.8151 8.13557,1.8117 z"
       id="path3107"
       inkscape:connector-curvature="0" /><path
       style="fill:#000000"
       d="m 666.02437,1015.6301 0,25.424 13.22033,0 c 10.39564,0 13.22044,-0.652 13.22044,-3.0508 0,-2.3052 -2.48607,-3.0511 -10.16943,-3.0511 l -10.16954,0 0,-7.1183 0,-7.1191 10.16954,0 c 7.68336,0 10.16943,-0.7456 10.16943,-3.0507 0,-2.3051 -2.48607,-3.0505 -10.16943,-3.0505 l -10.16954,0 0,-9.153 0,-9.1525 10.16954,0 c 7.68336,0 10.16943,-0.74557 10.16943,-3.0505 0,-2.39883 -2.8248,-3.05099 -13.22044,-3.05099 l -13.22033,0 0,25.42349 z"
       id="path3109"
       inkscape:connector-curvature="0" /><path
       style="fill:#000000"
       d="m 714.83806,1015.8823 0,25.6754 11.22338,-0.9307 c 12.36621,-1.0255 17.07443,-4.8619 17.18667,-14.0035 0.0585,-5.112 -4.29167,-10.636 -9.68093,-12.2815 -1.75674,-0.5363 0.0919,-4.4503 5.5934,-11.8191 9.32275,-12.4953 9.24579,-12.31629 5.29887,-12.31629 -1.6063,0 -6.75915,5.47206 -11.45072,12.15999 -4.69132,6.6882 -9.32604,11.6681 -10.29962,11.0666 -0.97294,-0.6016 -1.76943,-6.0737 -1.76943,-12.1605 0,-8.48053 -0.71265,-11.06609 -3.05057,-11.06609 -2.55122,0 -3.05105,4.20881 -3.05105,25.67569 z m 21.14012,7.3753 c 3.07256,4.9066 -0.68631,10.4935 -7.61625,11.3213 -5.06322,0.6047 -5.38792,0.1343 -5.38792,-7.762 0,-7.8986 0.32364,-8.3674 5.38792,-7.7621 2.96308,0.3535 6.39079,2.2448 7.61625,4.2028 z"
       id="path3111"
       inkscape:connector-curvature="0" /><path
       style="fill:#000000"
       d="m 772.42882,990.17705 c -5.63897,2.32745 -10.3061,10.19905 -6.04713,10.19905 1.5806,0 4.01287,-1.37275 5.40547,-3.05078 3.04166,-3.665 10.44928,-3.99158 13.83048,-0.61044 5.21328,5.21312 2.63621,10.84372 -8.23726,17.99442 -11.95239,7.8607 -14.81953,15.453 -8.48118,22.4568 4.32861,4.7829 17.5122,5.2723 21.23411,0.7881 3.74387,-4.5115 0.77935,-6.1621 -5.26156,-2.9293 -6.16088,3.2974 -11.7177,0.8306 -12.68557,-5.6314 -0.45999,-3.0678 1.98751,-5.7302 9.53886,-10.3765 11.93134,-7.3414 15.22594,-12.3169 12.64751,-19.09969 -3.35809,-8.8323 -13.37354,-13.27784 -21.94373,-9.74026 l 0,0 z"
       id="path3113"
       inkscape:connector-curvature="0" /><path
       style="fill:#000000"
       d="m 816.53317,993.2576 c 0,1.67785 1.37287,3.0505 3.05066,3.0505 1.67796,0 3.05067,-1.37265 3.05067,-3.0505 0,-1.67793 -1.37271,-3.05099 -3.05067,-3.05099 -1.67779,0 -3.05066,1.37306 -3.05066,3.05099 z"
       id="path3115"
       inkscape:connector-curvature="0" /><path
       style="fill:#000000"
       d="m 857.8543,992.12556 c -10.02627,4.55198 -14.8806,12.59654 -14.8806,24.65994 0,7.134 1.25009,9.7262 7.89597,16.3722 7.05985,7.0595 8.97077,7.8964 18.03113,7.8964 29.79393,0 36.84946,-38.3213 9.22288,-50.09277 -8.40328,-3.5805 -10.02444,-3.48775 -20.26938,1.16423 l 0,0 z m 25.06308,8.61254 c 5.844,5.3606 7.42772,14.6232 3.93174,22.9904 -3.44775,8.2519 -8.47309,11.2237 -18.9804,11.2237 -9.91298,0 -16.66355,-6.5493 -18.13685,-17.5968 -1.14926,-8.618 4.20544,-17.78247 12.33644,-21.11044 5.88574,-2.40961 15.6084,-0.31425 20.84907,4.49314 z"
       id="path3117"
       inkscape:connector-curvature="0" /><path
       style="fill:#000000"
       d="m 918.22813,1015.6301 0,25.424 8.69975,0 c 11.76113,0 17.74071,-4.4463 17.74071,-13.1905 0,-6.5202 -4.20592,-13.25 -8.28072,-13.25 -3.37336,0 -2.02194,-3.3088 5.22991,-12.8064 7.85303,-10.28464 8.35997,-11.60059 4.46821,-11.60059 -1.45763,0 -6.72074,5.71995 -11.69522,12.71189 l -9.04402,12.7116 -0.60572,-12.7116 c -0.45155,-9.47989 -1.35635,-12.71189 -3.55952,-12.71189 -2.42463,0 -2.95338,4.55211 -2.95338,25.42349 z m 19.99311,9.9489 c 0.73305,6.4224 -2.12956,9.2931 -9.31524,9.3422 -4.00005,0.018 -4.57645,-1.0097 -4.57645,-8.2334 0,-8.0989 0.12955,-8.2516 6.61031,-7.627 5.59634,0.5397 6.71292,1.5393 7.28138,6.5182 l 0,0 z"
       id="path3119"
       inkscape:connector-curvature="0" /><path
       style="fill:#000000"
       d="m 982.1232,990.99547 c -26.5449,11.84593 -18.61347,50.02433 10.39786,50.05063 9.35274,0.01 18.82624,-5.3138 15.45624,-8.6837 -1.4698,-1.4696 -2.9253,-1.4581 -4.748,0.025 -2.7788,2.2793 -7.73112,3.1732 -15.43781,2.787 -7.76385,-0.3889 -14.64836,-9.6658 -14.64836,-19.7396 0,-11.7651 6.21485,-18.99537 17.64506,-20.5284 7.24705,-0.97211 9.25141,-0.37321 13.72561,4.10144 7.1668,7.16636 6.8405,11.52586 -0.8625,11.52586 -3.3556,0 -6.10151,0.9152 -6.10151,2.034 0,1.1184 4.11881,2.0338 9.15271,2.0338 6.865,0 9.1526,-0.779 9.1526,-3.1162 0,-5.5924 -5.67,-16.84865 -9.5265,-18.91272 -7.00766,-3.75017 -17.77809,-4.4575 -24.2054,-1.58896 l 0,0 z"
       id="path3121"
       inkscape:connector-curvature="0" /></g></svg>