<?xml version="1.0" encoding="UTF-8" standalone="no"?>
<!-- Created with Inkscape (http://www.inkscape.org/) -->

<svg
   xmlns:dc="http://purl.org/dc/elements/1.1/"
   xmlns:cc="http://creativecommons.org/ns#"
   xmlns:rdf="http://www.w3.org/1999/02/22-rdf-syntax-ns#"
   xmlns:svg="http://www.w3.org/2000/svg"
   xmlns="http://www.w3.org/2000/svg"
   xmlns:sodipodi="http://sodipodi.sourceforge.net/DTD/sodipodi-0.dtd"
   xmlns:inkscape="http://www.inkscape.org/namespaces/inkscape"
   width="744.09448819"
   height="1052.3622047"
   id="svg2"
   version="1.1"
   inkscape:version="0.48.4 r9939"
   sodipodi:docname="New document 1">
  <defs
     id="defs4" />
  <sodipodi:namedview
     id="base"
     pagecolor="#ffffff"
     bordercolor="#666666"
     borderopacity="1.0"
     inkscape:pageopacity="0.0"
     inkscape:pageshadow="2"
     inkscape:zoom="1.4"
     inkscape:cx="353.77095"
     inkscape:cy="701.5782"
     inkscape:document-units="in"
     inkscape:current-layer="layer1"
     showgrid="false"
     inkscape:window-width="1366"
     inkscape:window-height="706"
     inkscape:window-x="-8"
     inkscape:window-y="-8"
     inkscape:window-maximized="1" />
  <metadata
     id="metadata7">
    <rdf:RDF>
      <cc:Work
         rdf:about="">
        <dc:format>image/svg+xml</dc:format>
        <dc:type
           rdf:resource="http://purl.org/dc/dcmitype/StillImage" />
        <dc:title></dc:title>
      </cc:Work>
    </rdf:RDF>
  </metadata>
  <g
     inkscape:label="Layer 1"
     inkscape:groupmode="layer"
     id="layer1">
    <path
       style="fill:none;stroke:#000000;stroke-opacity:1"
       d="m 720.34771,412.67381 0.46531,18.8212 -1.21067,11.68212 c -0.66588,6.42516 -2.40273,18.39933 -3.85969,26.60927 -1.45695,8.20993 -4.40855,21.93642 -6.55908,30.50331 -2.15054,8.56689 -5.69118,21.41722 -7.86809,28.55629 -2.17691,7.13907 -7.19086,21.74172 -11.14211,32.45033 -3.95124,10.70861 -10.97342,28.23179 -15.60482,38.9404 -4.6314,10.70861 -13.64924,29.91656 -20.03965,42.68432 -6.3904,12.76778 -15.67629,30.4537 -20.63531,39.30208 -4.95901,8.84836 -13.18971,22.93445 -18.29045,31.30243 -5.10073,8.36797 -14.50867,23.09991 -20.90651,32.73766 -6.39784,9.63775 -17.29054,25.11656 -24.20599,34.39735 -6.91544,9.28079 -17.19146,22.42318 -22.83558,29.2053 l -10.26206,12.33112 -20.1708,20.11921 -20.17082,20.1192 -13.61895,10.94053 c -7.49042,6.0173 -18.81426,14.35424 -25.16407,18.52654 -6.34983,4.17231 -15.69553,9.5502 -20.76822,11.95088 -5.0727,2.40067 -13.89593,5.82952 -19.60719,7.61966 l -10.3841,3.2548 -12.33113,1.59045 -12.33113,1.59046 -13.62914,-0.89502 c -7.49602,-0.49227 -20.36631,-1.72164 -28.60063,-2.73194 l -14.97148,-1.83692 -9.51663,-3.23681 -9.51663,-3.23681 -10.75337,-5.72047 -10.75336,-5.72048 -10.18899,-7.53397 -10.18898,-7.53397 -12.8161,-12.4075 C 244.86243,860.2307 233.8823,848.64667 227.51102,841.31254 L 215.92686,827.97776 201.27784,807.5642 c -8.05695,-11.22746 -21.06749,-30.05131 -28.91231,-41.83078 -7.84482,-11.77947 -19.53287,-29.88676 -25.97344,-40.23841 -6.44057,-10.35166 -16.57357,-27.29073 -22.51779,-37.64239 -5.94422,-10.35165 -16.51673,-29.9192 -23.49447,-43.48344 -6.977735,-13.56424 -16.868085,-34.3 -21.978555,-46.07947 l -9.29177,-21.41722 -8.23558,-24.66225 -8.23558,-24.66225 -3.26807,-16.22517 -3.26808,-16.22516 -1.47053,-15.17919 -1.47053,-15.17919 1.39434,-12.7281 1.39433,-12.72809 2.69517,-10.25088 c 1.48234,-5.63799 5.03117,-16.15189 7.88629,-23.36424 2.85511,-7.21235 8.41282,-19.20696 12.35045,-26.65469 3.93764,-7.44773 10.88276,-19.12985 15.43361,-25.96026 4.55085,-6.83042 13.357715,-18.75997 19.570805,-26.51009 l 11.29654,-14.09117 16.36176,-16.44759 16.36177,-16.4476 14.04818,-11.64667 c 7.7265,-6.40568 20.98815,-16.61158 29.47036,-22.67979 8.48221,-6.06822 21.72807,-14.82448 29.43527,-19.45836 7.70719,-4.63389 21.60646,-12.32731 30.88725,-17.0965 9.2808,-4.76917 24.13757,-11.65076 33.01506,-15.29239 8.87749,-3.64163 23.30023,-8.90995 32.05056,-11.70738 l 15.90965,-5.08622 15.97595,-3.28106 c 8.78676,-1.80458 21.23289,-3.87877 27.65806,-4.60932 l 11.68212,-1.32827 21.42517,-0.0104 21.42518,-0.0104 16.21721,1.92197 c 8.91947,1.05709 20.7497,2.80066 26.28941,3.87461 5.53972,1.07395 15.76157,3.39554 22.71524,5.15907 6.95366,1.76355 20.52845,5.90009 30.1662,9.19234 l 17.52318,5.98589 18.17219,8.79186 c 9.9947,4.83552 23.72119,12.16788 30.50331,16.29414 6.78212,4.12625 19.04835,12.52768 27.25828,18.66984 l 14.92715,11.16755 14.36357,14.31243 c 7.89996,7.87184 17.62886,18.44724 21.61979,23.5009 3.99091,5.05366 10.87754,14.69141 15.30361,21.41722 l 8.0474,12.22874 6.8756,14.27815 c 3.78158,7.85298 8.38349,18.52245 10.22647,23.70993 l 3.35087,9.4318 2.71695,13.28344 2.71696,13.2829 0.46531,18.82119 z m -13.05008,0.47016 -0.52797,-15.75501 -1.46277,-9.55625 -1.46277,-9.55625 -3.77304,-11.84568 -3.77305,-11.84568 -9.06756,-18.00862 -9.06755,-18.00863 -8.12174,-11.24672 c -4.46694,-6.18571 -12.21046,-16.05709 -17.20781,-21.93641 l -9.08609,-10.68967 -12.71939,-11.33649 c -6.99566,-6.23507 -18.44179,-15.43134 -25.43585,-20.43617 -6.99404,-5.00482 -18.93742,-12.72864 -26.54085,-17.16404 l -13.82441,-8.06435 -15.90531,-7.1138 -15.90532,-7.1138 -16.91126,-5.59782 -16.91126,-5.59784 -14.89007,-3.30483 c -8.18954,-1.81766 -21.02318,-4.23331 -28.51921,-5.36811 l -13.62914,-2.06327 -24.01324,-0.77177 -24.01325,-0.77177 -14.27814,1.54866 c -7.85298,0.85175 -21.28742,3.00263 -29.85431,4.77972 l -15.57616,3.23108 -20.78389,6.96535 -20.78388,6.96536 -16.90683,7.68624 c -9.29875,4.22742 -23.01819,11.0532 -30.48763,15.16838 -7.46945,4.1152 -21.16468,12.46399 -30.43383,18.55288 -9.26917,6.08891 -21.5354,14.60104 -27.25828,18.91589 -5.72291,4.31483 -16.24633,12.82615 -23.3854,18.91402 -7.13907,6.08789 -18.46525,16.64352 -25.16928,23.45694 -6.70403,6.81343 -16.84303,17.93803 -22.53111,24.72133 l -10.34196,12.33327 -11.455665,17.22945 -11.45566,17.22946 -7.0697,14.57186 -7.0697,14.57188 -4.13174,12.07574 c -2.27247,6.64166 -4.96075,15.98735 -5.97398,20.76821 l -1.84223,8.69247 -0.0225,17.7187 -0.0225,17.71868 2.54258,14.73165 2.54258,14.73163 4.5155,16.38397 c 2.48352,9.01118 7.21815,23.61383 10.52138,32.45033 3.30324,8.83649 8.66704,22.19948 11.91956,29.6955 3.25253,7.49603 11.736555,25.27721 18.853405,39.51375 7.11685,14.23654 17.08147,33.21998 22.14361,42.18543 5.06214,8.96545 14.15382,24.47831 20.20373,34.47301 6.04992,9.9947 18.71095,29.8543 28.13563,44.13245 9.42468,14.27814 23.21267,34.4298 30.63997,44.78146 7.42729,10.35165 19.49221,25.91645 26.81093,34.58844 l 13.30675,15.76725 11.471,10.91615 c 6.30906,6.00388 15.46675,13.90853 20.35042,17.56588 4.88368,3.65735 13.11663,9.07408 18.29544,12.03717 l 9.41604,5.38744 8.83462,3.05229 8.83461,3.05229 10.86969,1.47002 c 5.97833,0.80851 18.24455,1.95702 27.25828,2.55225 l 16.38859,1.08224 11.03311,-1.13692 c 6.06821,-0.62531 14.53775,-2.03857 18.8212,-3.14058 l 7.78808,-2.00365 11.88779,-5.7003 11.8878,-5.7003 11.47643,-7.75913 c 6.31205,-4.26752 17.17677,-12.53938 24.14381,-18.3819 6.96704,-5.84251 19.84354,-17.73471 28.61444,-26.42709 8.77089,-8.69239 20.94986,-21.6454 27.06438,-28.78447 6.11451,-7.13907 16.68776,-20.35095 23.49609,-29.35973 6.80834,-9.00879 18.18319,-25.0717 25.27746,-35.69537 7.09425,-10.62367 18.16347,-28.07735 24.59826,-38.78596 6.43478,-10.70861 17.02909,-29.4 23.54291,-41.53642 6.51381,-12.13643 16.18746,-31.43692 21.49701,-42.88999 5.30953,-11.45309 12.86323,-28.68421 16.786,-38.29139 3.92276,-9.6072 10.3271,-26.81332 14.23186,-38.23584 3.90475,-11.42252 9.19432,-28.9457 11.7546,-38.9404 2.56029,-9.9947 5.86473,-24.96901 7.34321,-33.27623 1.47849,-8.30722 3.21565,-20.57344 3.86037,-27.25828 l 1.17221,-12.15423 -0.52798,-15.75501 z m -105.34728,-76.40393 0.6996,5.19205 -0.97591,3.89404 c -0.53675,2.14172 -1.91995,5.70568 -3.07377,7.91991 l -2.09786,4.02585 -4.52346,3.97165 -4.52345,3.97163 -4.62895,1.67386 -4.62895,1.67385 0,4.2158 c 0,2.3187 -0.90244,11.10897 -2.00541,19.53395 -1.10299,8.42497 -2.90677,19.69893 -4.00842,25.05324 -1.10165,5.3543 -3.76514,15.2841 -5.91885,22.06622 l -3.91585,12.33113 -5.35573,10.3841 -5.35574,10.38411 -9.75973,9.8291 -9.75974,9.8291 -12.04877,7.98987 -12.04877,7.98988 -17.80553,8.89154 c -9.79305,4.89035 -22.91435,10.89035 -29.15847,13.33335 l -11.35292,4.4418 -0.005,4.39245 c -0.003,2.41585 -0.72304,6.79664 -1.60103,9.7351 l -1.59634,5.34265 -5.44653,5.45451 -5.44654,5.45452 -4.31474,1.11806 -4.31474,1.11807 0.0591,5.43404 c 0.0325,2.98873 0.17848,14.42437 0.3245,25.41253 l 0.26594,19.97849 2.99927,0.75277 c 1.64959,0.41402 5.38252,2.47919 8.29538,4.58925 l 5.29612,3.83649 3.54625,7.24827 3.54625,7.24829 -0.58602,7.06664 -0.58602,7.06666 -3.82635,6.18897 -3.82635,6.18897 -6.35223,3.92835 -6.35223,3.92836 -66.95122,0.38556 -66.9512,0.38558 -5.46222,-1.51256 -5.46222,-1.51255 -5.29116,-4.52904 -5.29115,-4.52903 -2.80505,-5.3771 -2.80505,-5.37708 0,-7.13908 0,-7.13907 2.77335,-5.31495 2.77334,-5.31495 4.36549,-3.83295 c 2.40101,-2.10812 6.3122,-4.6393 8.69151,-5.62484 l 4.32603,-1.79191 -0.82696,-11.65033 c -0.45483,-6.40769 -0.82697,-17.64842 -0.82697,-24.97941 l 0,-13.32907 -4.65437,-1.53609 -4.65438,-1.53608 -4.49802,-3.94931 -4.49803,-3.94932 -2.0559,-3.97567 -2.0559,-3.97567 -0.79833,-6.32665 -0.79831,-6.32666 -15.06992,-5.5705 c -8.28846,-3.06377 -21.1762,-8.51582 -28.63944,-12.11567 l -13.56949,-6.54517 -11.599,-7.79367 -11.59898,-7.79366 -6.08807,-6.26452 -6.08807,-6.26454 -4.66655,-7.78808 -4.66655,-7.78808 -3.27205,-10.35778 -3.27205,-10.35778 -2.5599,-14.95348 -2.5599,-14.95348 -0.81733,-24.33467 -0.81733,-24.33468 -5.73655,-3.36184 -5.73656,-3.36186 -3.73907,-5.89589 -3.73906,-5.8959 -0.85808,-5.72204 -0.85807,-5.72205 1.6063,-5.73715 1.60631,-5.73717 4.52903,-5.29115 4.52904,-5.29116 5.37709,-2.87576 5.37709,-2.87576 68.7947,0 68.79471,0 5.37708,2.87576 5.3771,2.87576 4.52903,5.29116 4.52904,5.29115 1.60631,5.73717 1.6063,5.73715 -0.84103,5.60841 -0.84104,5.6084 -2.61502,4.30005 -2.615,4.30004 1.16627,1.49874 c 0.64145,0.82429 8.94107,11.13647 18.44361,22.91594 9.50252,11.77947 17.34931,21.53738 17.43729,21.68424 0.088,0.14687 2.76564,-0.63589 5.95035,-1.73943 l 5.79037,-2.00645 4.78957,0.63194 c 2.63425,0.34757 6.6986,1.58432 9.0319,2.74831 l 4.24234,2.11636 16.04553,-15.93603 c 8.82505,-8.76481 20.15642,-20.46402 25.18083,-25.99825 l 9.13531,-10.06223 -2.08691,-5.21569 -2.08691,-5.21569 0,-6.05399 0,-6.05399 2.71014,-5.59839 2.71013,-5.5984 5.06811,-4.33811 5.06812,-4.33811 5.02797,-1.50642 5.02798,-1.50642 65.39908,0.008 65.39907,0.008 4.95943,1.37716 4.95942,1.37715 5.19418,4.69263 5.19417,4.69263 2.34649,4.6316 2.34648,4.63158 0.6996,5.19205 z m -5.67931,3.2945 c -0.0543,-2.52588 -0.78797,-6.49258 -1.63036,-8.8149 l -1.5316,-4.22238 -3.64654,-3.86351 -3.64653,-3.86351 -4.78271,-1.39424 -4.78272,-1.39422 -68.37609,0.39404 -68.37608,0.39402 -3.58345,2.67623 c -1.9709,1.47192 -4.76971,4.2651 -6.21959,6.20706 l -2.63614,3.53082 -0.41893,8.7201 -0.41892,8.7201 1.25343,1.86355 1.25341,1.86356 2.1729,-1.80334 2.17289,-1.80334 -0.71486,-4.40518 -0.71487,-4.40518 2.0169,-5.0407 2.01689,-5.04072 4.24079,-2.62095 4.24079,-2.62095 4.77879,0 4.77881,0 3.63682,1.88068 3.63683,1.88068 2.04535,3.1216 c 1.12495,1.71689 2.39949,5.10535 2.83232,7.52992 l 0.78695,4.40831 -2.31505,4.51718 -2.31506,4.51716 -4.47922,2.99273 -4.47922,2.99271 -5.33263,-0.27603 -5.33263,-0.27604 -1.54576,0.95534 c -0.85018,0.52542 -1.54577,1.72401 -1.54577,2.6635 l 0,1.70816 4.05629,0.81125 4.05629,0.81126 58.89736,0 58.89735,0 0,-4.40417 0,-4.40417 -1.93959,-0.7443 -1.93959,-0.74429 -2.59861,-4.26213 -2.59859,-4.26213 -0.005,-5.66927 -0.005,-5.66925 5.03935,-5.03936 5.03935,-5.03934 5.40921,0 5.40922,0 3.88698,2.01004 3.88699,2.01004 2.53377,4.15552 2.53377,4.15553 0.005,3.69787 0.005,3.69787 -2.05884,4.3387 -2.05886,4.3387 -3.13319,2.05295 -3.13321,2.05296 0,3.2151 0,3.21512 1.10606,0 c 0.60833,0 3.09078,-1.31895 5.51656,-2.93101 l 4.41049,-2.931 2.92053,-5.78112 2.92053,-5.78112 -0.0988,-4.59251 z m -31.19434,33.37437 0.14077,-3.56953 -58.00316,0 -58.00317,0 -8.01195,-2.00933 -8.01194,-2.00931 -24.52132,24.82327 c -13.48672,13.65282 -24.89288,25.50899 -25.34703,26.34707 l -0.82572,1.52379 30.03102,52.19396 30.03101,52.19396 1.94702,0.0469 c 1.07087,0.0257 10.67496,-3.73891 21.34242,-8.36588 l 19.39541,-8.41269 13.99253,-8.00902 13.99254,-8.00904 10.27479,-8.12466 10.27479,-8.12466 5.98842,-8.39204 5.98844,-8.39202 3.20729,-7.25225 c 1.76401,-3.98875 4.6469,-12.38275 6.40643,-18.65335 1.75952,-6.27061 3.88579,-14.87756 4.72503,-19.12655 0.83924,-4.24901 2.27283,-13.88676 3.18575,-21.41722 0.91292,-7.53047 1.72321,-15.29806 1.80063,-17.2613 z m -120.67694,274.18505 0.10254,-7.15932 -2.40341,-4.5228 -2.40342,-4.52279 -4.2786,-2.92053 c -2.35323,-1.60629 -5.06839,-2.92053 -6.03367,-2.92053 l -1.75514,0 0,2.63568 0,2.63568 4.51152,3.96117 4.51152,3.96116 1.22491,4.43627 1.22492,4.43626 -1.22492,4.43626 -1.22491,4.43627 -4.55669,4.00082 -4.55668,4.00082 -5.31818,0 -5.31818,0 -4.23356,-2.61648 -4.23357,-2.61649 -2.08521,-4.39425 -2.08521,-4.39425 0.005,-3.04887 0.005,-3.04886 2.76826,-4.54305 c 1.52254,-2.49867 3.85678,-5.3063 5.1872,-6.23916 l 2.41893,-1.69612 0,-3.82043 0,-3.82045 -55.16556,0 -55.16557,0 0,3.84838 0,3.84836 2.66549,1.42653 2.66548,1.42652 2.52172,4.1357 2.52171,4.13571 0.005,4.283 0.005,4.283 -2.01003,3.88698 -2.01004,3.88699 -4.15553,2.53376 -4.15552,2.53378 -4.283,0.005 -4.28301,0.005 -3.88698,-2.01004 -3.88699,-2.01004 -2.53376,-4.15552 -2.53377,-4.15553 0,-4.54304 0,-4.54305 2.52171,-4.1357 2.52172,-4.13571 2.66548,-1.42651 2.66549,-1.42653 0,-3.19936 0,-3.19937 -1.84743,0 -1.84743,0 -4.17833,3.51584 -4.17835,3.51584 -2.38281,5.24575 -2.38282,5.24575 -0.0285,4.02485 c -0.0157,2.21366 0.63507,6.01035 1.44611,8.43709 l 1.47464,4.41223 3.39291,3.7294 3.39293,3.7294 4.17685,1.78716 4.17685,1.78716 67.21388,-0.0286 67.21388,-0.0286 5.32047,-2.41626 5.32046,-2.41627 2.60705,-3.72079 c 1.43386,-2.04643 2.93626,-4.59695 3.33865,-5.66781 0.40238,-1.07086 0.77771,-5.16872 0.83407,-9.10635 z m -2.49841,-104.14531 0.005,-4.86755 -0.97351,0.0199 c -0.53543,0.0104 -1.61371,0.44901 -2.39617,0.97351 -0.78246,0.5245 -1.84457,2.67463 -2.36023,4.77806 l -0.93757,3.82444 -4.45434,4.20099 -4.45434,4.201 0,2.03418 0,2.03418 1.36247,0 c 0.74936,0 3.11161,-0.90452 5.24945,-2.01003 l 3.88699,-2.01004 2.53377,-4.15553 2.53377,-4.15552 0.005,-4.86755 z m -5.1872,-17.25396 c 0,-0.38735 -13.27717,-23.71126 -29.50481,-51.83089 l -29.50482,-51.1266 -1.6475,1.36732 -1.6475,1.3673 0,5.74658 0,5.74659 -2.03918,3.94333 -2.03918,3.94333 -5.73386,2.53636 -5.73384,2.53635 -4.96715,-1.33751 -4.96713,-1.33751 -2.67379,-2.93511 c -1.47059,-1.61431 -3.36941,-4.28294 -4.21961,-5.93027 l -1.54582,-2.99515 0.41011,-6.60751 0.41011,-6.60751 -1.29802,-0.40449 -1.29801,-0.4045 -29.64381,51.54359 c -16.30409,28.34896 -29.69698,52.12768 -29.762,52.84158 l -0.11812,1.29802 2.17822,0.41949 2.17824,0.41949 3.42107,-2.69101 3.42107,-2.69102 5.3415,0.005 5.34151,0.005 3.99793,2.43793 3.99792,2.43793 2.16765,4.56796 c 1.19213,2.51169 2.16756,5.75522 2.16756,7.20714 0,1.45192 -0.5322,4.03965 -1.18266,5.75049 l -1.18266,3.11063 -4.00939,3.78423 -4.00939,3.78422 0,2.92474 0,2.92475 55.16556,0 55.16557,0 0,-3.19937 0,-3.19936 -2.66549,-1.42653 -2.66548,-1.42651 -2.52172,-4.13571 -2.52171,-4.1357 -0.005,-4.283 -0.005,-4.28301 2.01004,-3.88697 2.01004,-3.887 4.15553,-2.53376 4.15552,-2.53377 4.54305,0.0412 4.54304,0.0411 3.24504,1.85503 3.24503,1.85503 2.92053,0.046 c 1.60629,0.0253 2.92053,-0.27093 2.92053,-0.65828 z m -22.51797,77.73416 c -0.46545,-7.60708 -0.84626,-18.7051 -0.84626,-24.66225 l 0,-10.8312 -55.35796,0 -55.35794,0 0.83361,10.70861 c 0.45848,5.88974 0.83711,16.98775 0.84139,24.66226 l 0.008,13.95364 55.36282,0 55.36281,0 -0.84625,-13.83106 z m -46.27673,-191.2751 c 0,-0.55011 -0.92393,-1.35475 -2.05318,-1.78808 -1.12925,-0.43334 -4.89146,-0.78788 -8.36048,-0.78788 l -6.30731,0 -0.87211,1.41111 -0.87212,1.41111 1.43359,1.43359 1.43358,1.43358 6.17649,0.18077 6.17651,0.18076 1.62251,-1.23737 c 0.89239,-0.68056 1.62252,-1.68747 1.62252,-2.23759 z m -33.77985,3.22176 c 0.0174,-0.73775 -8.22444,-11.54371 -18.31504,-24.01325 l -18.34655,-22.67189 -2.74617,0.52141 c -1.51039,0.28677 -31.15932,0.74079 -65.88651,1.00894 l -63.14033,0.48753 -0.88741,4.73027 -0.8874,4.73027 0.81514,15.67802 c 0.44833,8.62289 1.38434,20.93495 2.08004,27.36012 l 1.26489,11.68212 2.72409,11.03311 2.72409,11.03311 3.88497,8.23426 3.88495,8.23425 7.33841,7.49964 7.33841,7.49965 9.53988,6.17133 9.53989,6.17131 15.74512,7.48043 15.74514,7.48042 12.84158,4.3627 12.84158,4.3627 0.49647,-1.29801 c 0.27306,-0.71391 14.19375,-24.95431 30.93486,-53.86755 16.74111,-28.91325 30.45257,-53.17315 30.4699,-53.91089 z m -27.30906,-74.30961 0.0823,-5.55825 -1.77053,-4.23746 -1.77052,-4.23745 -4.11084,-3.45905 -4.11085,-3.45905 -4.82723,-1.34065 -4.82725,-1.34067 -63.60265,0 -63.60265,0 -4.82724,1.34067 -4.82725,1.34065 -4.11084,3.45905 -4.11085,3.45905 -1.77052,4.23745 -1.77054,4.23746 0.0285,5.55825 0.0285,5.55825 2.49205,5.48974 2.49205,5.48973 4.29402,2.61799 c 2.36171,1.4399 4.73209,2.62019 5.26752,2.62285 l 0.97351,0.005 0,-2.76321 0,-2.76321 -4.54304,-5.02861 -4.54305,-5.0286 0.005,-5.51282 0.005,-5.51282 2.43793,-3.99793 2.43793,-3.99792 4.56795,-2.16765 4.56796,-2.16763 3.06911,0 3.06912,0 4.4225,2.37182 4.42251,2.37181 2.37181,4.4225 2.37182,4.42252 -0.005,3.91428 -0.005,3.91429 -2.5292,4.14802 -2.52921,4.14801 -3.307,2.16684 -3.30622,2.16683 0,3.09575 0,3.09574 62.7373,0 62.73732,0 0.86818,-0.86817 0.86816,-0.86818 -2.15103,-2.37685 -2.15103,-2.37686 -5.46483,0 -5.46483,0 -3.44602,-2.71064 c -1.89531,-1.49085 -4.31051,-4.38237 -5.3671,-6.42561 l -1.92109,-3.71497 0,-3.65424 0,-3.65424 2.37182,-4.42252 2.37181,-4.4225 4.4225,-2.37181 4.42251,-2.37182 3.06912,0 3.06911,0 4.56796,2.16763 4.56795,2.16765 2.52481,3.99792 2.5248,3.99793 -0.60315,7.41077 -0.60316,7.41076 1.85052,1.5358 c 1.01778,0.84468 2.10117,1.28512 2.40752,0.97878 0.30636,-0.30636 1.13138,-1.99589 1.83338,-3.7545 l 1.27637,-3.1975 0.0823,-5.55825 z m -16.79193,216.95062 -4e-5,-2.41224 -4.51429,-3.60196 -4.5143,-3.60198 -1.07894,-4.1861 -1.07894,-4.18612 -2.84382,-0.41478 -2.8438,-0.41478 0,2.72799 c 0,1.5004 0.80087,4.60758 1.77973,6.90485 l 1.77973,4.17685 3.08782,2.82431 3.08782,2.82431 3.56954,0.88594 3.56953,0.88595 -4e-5,-2.41224 z"
       id="path3777"
       inkscape:connector-curvature="0" />
    <path
       transform="translate(387.89858,-50.507621)"
       sodipodi:type="arc"
       style="fill:none;stroke:#000000;stroke-width:1;stroke-linejoin:miter;stroke-miterlimit:4;stroke-opacity:1;stroke-dasharray:none;stroke-dashoffset:0"
       id="path3779"
       sodipodi:cx="-226.27417"
       sodipodi:cy="391.72241"
       sodipodi:rx="14.142136"
       sodipodi:ry="14.142136"
       d="m -212.13203,391.72241 a 14.142136,14.142136 0 1 1 -28.28428,0 14.142136,14.142136 0 1 1 28.28428,0 z" />
    <path
       transform="translate(511.13719,-46.467011)"
       sodipodi:type="arc"
       style="fill:none;stroke:#000000;stroke-width:1;stroke-linejoin:miter;stroke-miterlimit:4;stroke-opacity:1;stroke-dasharray:none;stroke-dashoffset:0"
       id="path3779-1"
       sodipodi:cx="-226.27417"
       sodipodi:cy="391.72241"
       sodipodi:rx="14.142136"
       sodipodi:ry="14.142136"
       d="m -212.13203,391.72241 a 14.142136,14.142136 0 1 1 -28.28428,0 14.142136,14.142136 0 1 1 28.28428,0 z" />
    <path
       transform="translate(676.8022,-58.588841)"
       sodipodi:type="arc"
       style="fill:none;stroke:#000000;stroke-width:1;stroke-linejoin:miter;stroke-miterlimit:4;stroke-opacity:1;stroke-dasharray:none;stroke-dashoffset:0"
       id="path3779-7"
       sodipodi:cx="-226.27417"
       sodipodi:cy="391.72241"
       sodipodi:rx="14.142136"
       sodipodi:ry="14.142136"
       d="m -212.13203,391.72241 a 14.142136,14.142136 0 1 1 -28.28428,0 14.142136,14.142136 0 1 1 28.28428,0 z" />
    <path
       transform="translate(802.06112,-48.487316)"
       sodipodi:type="arc"
       style="fill:none;stroke:#000000;stroke-width:1;stroke-linejoin:miter;stroke-miterlimit:4;stroke-opacity:1;stroke-dasharray:none;stroke-dashoffset:0"
       id="path3779-4"
       sodipodi:cx="-226.27417"
       sodipodi:cy="391.72241"
       sodipodi:rx="14.142136"
       sodipodi:ry="14.142136"
       d="m -212.13203,391.72241 a 14.142136,14.142136 0 1 1 -28.28428,0 14.142136,14.142136 0 1 1 28.28428,0 z" />
    <path
       transform="translate(581.84787,40.406108)"
       sodipodi:type="arc"
       style="fill:none;stroke:#000000;stroke-width:1;stroke-linejoin:miter;stroke-miterlimit:4;stroke-opacity:1;stroke-dasharray:none;stroke-dashoffset:0"
       id="path3779-0"
       sodipodi:cx="-226.27417"
       sodipodi:cy="391.72241"
       sodipodi:rx="14.142136"
       sodipodi:ry="14.142136"
       d="m -212.13203,391.72241 a 14.142136,14.142136 0 1 1 -28.28428,0 14.142136,14.142136 0 1 1 28.28428,0 z" />
    <path
       transform="translate(523.25902,151.52289)"
       sodipodi:type="arc"
       style="fill:none;stroke:#000000;stroke-width:1;stroke-linejoin:miter;stroke-miterlimit:4;stroke-opacity:1;stroke-dasharray:none;stroke-dashoffset:0"
       id="path3779-9"
       sodipodi:cx="-226.27417"
       sodipodi:cy="391.72241"
       sodipodi:rx="14.142136"
       sodipodi:ry="14.142136"
       d="m -212.13203,391.72241 a 14.142136,14.142136 0 1 1 -28.28428,0 14.142136,14.142136 0 1 1 28.28428,0 z" />
    <path
       transform="translate(646.49763,147.48228)"
       sodipodi:type="arc"
       style="fill:none;stroke:#000000;stroke-width:1;stroke-linejoin:miter;stroke-miterlimit:4;stroke-opacity:1;stroke-dasharray:none;stroke-dashoffset:0"
       id="path3779-48"
       sodipodi:cx="-226.27417"
       sodipodi:cy="391.72241"
       sodipodi:rx="14.142136"
       sodipodi:ry="14.142136"
       d="m -212.13203,391.72241 a 14.142136,14.142136 0 1 1 -28.28428,0 14.142136,14.142136 0 1 1 28.28428,0 z" />
    <path
       transform="translate(646.49763,254.55845)"
       sodipodi:type="arc"
       style="fill:none;stroke:#000000;stroke-width:1;stroke-linejoin:miter;stroke-miterlimit:4;stroke-opacity:1;stroke-dasharray:none;stroke-dashoffset:0"
       id="path3779-8"
       sodipodi:cx="-226.27417"
       sodipodi:cy="391.72241"
       sodipodi:rx="14.142136"
       sodipodi:ry="14.142136"
       d="m -212.13203,391.72241 a 14.142136,14.142136 0 1 1 -28.28428,0 14.142136,14.142136 0 1 1 28.28428,0 z" />
    <path
       transform="translate(521.23871,254.55845)"
       sodipodi:type="arc"
       style="fill:none;stroke:#000000;stroke-width:1;stroke-linejoin:miter;stroke-miterlimit:4;stroke-opacity:1;stroke-dasharray:none;stroke-dashoffset:0"
       id="path3779-2"
       sodipodi:cx="-226.27417"
       sodipodi:cy="391.72241"
       sodipodi:rx="14.142136"
       sodipodi:ry="14.142136"
       d="m -212.13203,391.72241 a 14.142136,14.142136 0 1 1 -28.28428,0 14.142136,14.142136 0 1 1 28.28428,0 z" />
    <path
       transform="translate(650.53824,256.57875)"
       sodipodi:type="arc"
       style="fill:none;stroke:#000000;stroke-width:1;stroke-linejoin:miter;stroke-miterlimit:4;stroke-opacity:1;stroke-dasharray:none;stroke-dashoffset:0"
       id="path3779-45"
       sodipodi:cx="-226.27417"
       sodipodi:cy="391.72241"
       sodipodi:rx="14.142136"
       sodipodi:ry="14.142136"
       d="m -212.13203,391.72241 a 14.142136,14.142136 0 1 1 -28.28428,0 14.142136,14.142136 0 1 1 28.28428,0 z" />
    <path
       transform="translate(523.25902,256.57875)"
       sodipodi:type="arc"
       style="fill:none;stroke:#000000;stroke-width:1;stroke-linejoin:miter;stroke-miterlimit:4;stroke-opacity:1;stroke-dasharray:none;stroke-dashoffset:0"
       id="path3779-5"
       sodipodi:cx="-226.27417"
       sodipodi:cy="391.72241"
       sodipodi:rx="14.142136"
       sodipodi:ry="14.142136"
       d="m -212.13203,391.72241 a 14.142136,14.142136 0 1 1 -28.28428,0 14.142136,14.142136 0 1 1 28.28428,0 z" />
    <path
       transform="translate(525.27932,147.48228)"
       sodipodi:type="arc"
       style="fill:none;stroke:#000000;stroke-width:1;stroke-linejoin:miter;stroke-miterlimit:4;stroke-opacity:1;stroke-dasharray:none;stroke-dashoffset:0"
       id="path3779-17"
       sodipodi:cx="-226.27417"
       sodipodi:cy="391.72241"
       sodipodi:rx="14.142136"
       sodipodi:ry="14.142136"
       d="m -212.13203,391.72241 a 14.142136,14.142136 0 1 1 -28.28428,0 14.142136,14.142136 0 1 1 28.28428,0 z" />
    <path
       transform="matrix(1,0,0,-1,648.51793,934.96771)"
       sodipodi:type="arc"
       style="fill:none;stroke:#000000;stroke-width:1;stroke-linejoin:miter;stroke-miterlimit:4;stroke-opacity:1;stroke-dasharray:none;stroke-dashoffset:0"
       id="path3779-11"
       sodipodi:cx="-226.27417"
       sodipodi:cy="391.72241"
       sodipodi:rx="14.142136"
       sodipodi:ry="14.142136"
       d="m -212.13203,391.72241 a 14.142136,14.142136 0 1 1 -28.28428,0 14.142136,14.142136 0 1 1 28.28428,0 z" />
    <path
       transform="translate(798.02051,-52.527926)"
       sodipodi:type="arc"
       style="fill:none;stroke:#000000;stroke-width:1;stroke-linejoin:miter;stroke-miterlimit:4;stroke-opacity:1;stroke-dasharray:none;stroke-dashoffset:0"
       id="path3779-52"
       sodipodi:cx="-226.27417"
       sodipodi:cy="391.72241"
       sodipodi:rx="14.142136"
       sodipodi:ry="14.142136"
       d="m -212.13203,391.72241 a 14.142136,14.142136 0 1 1 -28.28428,0 14.142136,14.142136 0 1 1 28.28428,0 z" />
    <path
       transform="matrix(1,0,0,-1,670.74129,736.97781)"
       sodipodi:type="arc"
       style="fill:none;stroke:#000000;stroke-width:1;stroke-linejoin:miter;stroke-miterlimit:4;stroke-opacity:1;stroke-dasharray:none;stroke-dashoffset:0"
       id="path3779-76"
       sodipodi:cx="-226.27417"
       sodipodi:cy="391.72241"
       sodipodi:rx="14.142136"
       sodipodi:ry="14.142136"
       d="m -212.13203,391.72241 a 14.142136,14.142136 0 1 1 -28.28428,0 14.142136,14.142136 0 1 1 28.28428,0 z" />
    <path
       transform="matrix(1,0,0,-1,583.86817,821.83063)"
       sodipodi:type="arc"
       style="fill:none;stroke:#000000;stroke-width:1;stroke-linejoin:miter;stroke-miterlimit:4;stroke-opacity:1;stroke-dasharray:none;stroke-dashoffset:0"
       id="path3779-14"
       sodipodi:cx="-226.27417"
       sodipodi:cy="391.72241"
       sodipodi:rx="14.142136"
       sodipodi:ry="14.142136"
       d="m -212.13203,391.72241 a 14.142136,14.142136 0 1 1 -28.28428,0 14.142136,14.142136 0 1 1 28.28428,0 z" />
    <path
       transform="translate(507.09658,-48.487316)"
       sodipodi:type="arc"
       style="fill:none;stroke:#000000;stroke-width:1;stroke-linejoin:miter;stroke-miterlimit:4;stroke-opacity:1;stroke-dasharray:none;stroke-dashoffset:0"
       id="path3779-23"
       sodipodi:cx="-226.27417"
       sodipodi:cy="391.72241"
       sodipodi:rx="14.142136"
       sodipodi:ry="14.142136"
       d="m -212.13203,391.72241 a 14.142136,14.142136 0 1 1 -28.28428,0 14.142136,14.142136 0 1 1 28.28428,0 z" />
    <path
       transform="translate(385.87827,-46.467011)"
       sodipodi:type="arc"
       style="fill:none;stroke:#000000;stroke-width:1;stroke-linejoin:miter;stroke-miterlimit:4;stroke-opacity:1;stroke-dasharray:none;stroke-dashoffset:0"
       id="path3779-22"
       sodipodi:cx="-226.27417"
       sodipodi:cy="391.72241"
       sodipodi:rx="14.142136"
       sodipodi:ry="14.142136"
       d="m -212.13203,391.72241 a 14.142136,14.142136 0 1 1 -28.28428,0 14.142136,14.142136 0 1 1 28.28428,0 z" />
    <path
       sodipodi:type="arc"
       style="fill:none;stroke:#000000;stroke-width:1;stroke-linejoin:miter;stroke-miterlimit:4;stroke-opacity:1;stroke-dasharray:none;stroke-dashoffset:0"
       id="path3918"
       sodipodi:cx="-595.98999"
       sodipodi:cy="298.78839"
       sodipodi:rx="10.101525"
       sodipodi:ry="12.121831"
       d="m -585.88846,298.78839 a 10.101525,12.121831 0 1 1 -20.20306,0 10.101525,12.121831 0 1 1 20.20306,0 z"
       transform="matrix(0.99451023,0,0,0.82875849,756.36285,97.631985)" />
    <path
       sodipodi:type="arc"
       style="fill:none;stroke:#000000;stroke-width:1;stroke-linejoin:miter;stroke-miterlimit:4;stroke-opacity:1;stroke-dasharray:none;stroke-dashoffset:0"
       id="path3918-1"
       sodipodi:cx="-595.98999"
       sodipodi:cy="298.78839"
       sodipodi:rx="10.101525"
       sodipodi:ry="12.121831"
       d="m -585.88846,298.78839 a 10.101525,12.121831 0 1 1 -20.20306,0 10.101525,12.121831 0 1 1 20.20306,0 z"
       transform="matrix(0.99451023,0,0,0.82875849,879.60146,97.631985)" />
    <path
       sodipodi:type="arc"
       style="fill:none;stroke:#000000;stroke-width:1;stroke-linejoin:miter;stroke-miterlimit:4;stroke-opacity:1;stroke-dasharray:none;stroke-dashoffset:0"
       id="path3918-6"
       sodipodi:cx="-595.98999"
       sodipodi:cy="298.78839"
       sodipodi:rx="10.101525"
       sodipodi:ry="12.121831"
       d="m -585.88846,298.78839 a 10.101525,12.121831 0 1 1 -20.20306,0 10.101525,12.121831 0 1 1 20.20306,0 z"
       transform="matrix(0.99451023,0,0,0.82875849,1041.2259,95.61168)" />
    <path
       sodipodi:type="arc"
       style="fill:none;stroke:#000000;stroke-width:1;stroke-linejoin:miter;stroke-miterlimit:4;stroke-opacity:1;stroke-dasharray:none;stroke-dashoffset:0"
       id="path3918-8"
       sodipodi:cx="-595.98999"
       sodipodi:cy="298.78839"
       sodipodi:rx="10.101525"
       sodipodi:ry="12.121831"
       d="m -585.88846,298.78839 a 10.101525,12.121831 0 1 1 -20.20306,0 10.101525,12.121831 0 1 1 20.20306,0 z"
       transform="matrix(0.99451023,0,0,0.82875849,1170.5254,93.591375)" />
    <path
       sodipodi:type="arc"
       style="fill:none;stroke:#000000;stroke-width:1;stroke-linejoin:miter;stroke-miterlimit:4;stroke-opacity:1;stroke-dasharray:none;stroke-dashoffset:0"
       id="path3918-5"
       sodipodi:cx="-595.98999"
       sodipodi:cy="298.78839"
       sodipodi:rx="10.101525"
       sodipodi:ry="12.121831"
       d="m -585.88846,298.78839 a 10.101525,12.121831 0 1 1 -20.20306,0 10.101525,12.121831 0 1 1 20.20306,0 z"
       transform="matrix(0.99451023,0,0,0.82875849,1014.9619,295.62188)" />
    <path
       sodipodi:type="arc"
       style="fill:none;stroke:#000000;stroke-width:1;stroke-linejoin:miter;stroke-miterlimit:4;stroke-opacity:1;stroke-dasharray:none;stroke-dashoffset:0"
       id="path3918-7"
       sodipodi:cx="-595.98999"
       sodipodi:cy="298.78839"
       sodipodi:rx="10.101525"
       sodipodi:ry="12.121831"
       d="m -585.88846,298.78839 a 10.101525,12.121831 0 1 1 -20.20306,0 10.101525,12.121831 0 1 1 20.20306,0 z"
       transform="matrix(0.99451023,0,0,0.82875849,950.31214,184.5051)" />
    <path
       sodipodi:type="arc"
       style="fill:none;stroke:#000000;stroke-width:1;stroke-linejoin:miter;stroke-miterlimit:4;stroke-opacity:1;stroke-dasharray:none;stroke-dashoffset:0"
       id="path3918-61"
       sodipodi:cx="-595.98999"
       sodipodi:cy="298.78839"
       sodipodi:rx="10.101525"
       sodipodi:ry="12.121831"
       d="m -585.88846,298.78839 a 10.101525,12.121831 0 1 1 -20.20306,0 10.101525,12.121831 0 1 1 20.20306,0 z"
       transform="matrix(0.99451023,0,0,0.82875849,891.7233,295.62188)" />
    <path
       sodipodi:type="arc"
       style="fill:none;stroke:#000000;stroke-width:1;stroke-linejoin:miter;stroke-miterlimit:4;stroke-opacity:1;stroke-dasharray:none;stroke-dashoffset:0"
       id="path3918-89"
       sodipodi:cx="-595.98999"
       sodipodi:cy="298.78839"
       sodipodi:rx="10.101525"
       sodipodi:ry="12.121831"
       d="m -585.88846,298.78839 a 10.101525,12.121831 0 1 1 -20.20306,0 10.101525,12.121831 0 1 1 20.20306,0 z"
       transform="matrix(0.99451023,0,0,0.82875849,891.7233,402.69805)" />
    <path
       sodipodi:type="arc"
       style="fill:none;stroke:#000000;stroke-width:1;stroke-linejoin:miter;stroke-miterlimit:4;stroke-opacity:1;stroke-dasharray:none;stroke-dashoffset:0"
       id="path3918-2"
       sodipodi:cx="-595.98999"
       sodipodi:cy="298.78839"
       sodipodi:rx="10.101525"
       sodipodi:ry="12.121831"
       d="m -585.88846,298.78839 a 10.101525,12.121831 0 1 1 -20.20306,0 10.101525,12.121831 0 1 1 20.20306,0 z"
       transform="matrix(0.99451023,0,0,-0.82875849,1016.9822,899.96519)" />
    <path
       sodipodi:type="arc"
       style="fill:none;stroke:#000000;stroke-width:1;stroke-linejoin:miter;stroke-miterlimit:4;stroke-opacity:1;stroke-dasharray:none;stroke-dashoffset:0"
       id="path3918-79"
       sodipodi:cx="-595.98999"
       sodipodi:cy="298.78839"
       sodipodi:rx="10.101525"
       sodipodi:ry="12.121831"
       d="m -585.88846,298.78839 a 10.101525,12.121831 0 1 1 -20.20306,0 10.101525,12.121831 0 1 1 20.20306,0 z"
       transform="matrix(0.99451023,0,0,0.82875849,891.7233,398.65744)" />
    <path
       sodipodi:type="arc"
       style="fill:none;stroke:#000000;stroke-width:1;stroke-linejoin:miter;stroke-miterlimit:4;stroke-opacity:1;stroke-dasharray:none;stroke-dashoffset:0"
       id="path3918-54"
       sodipodi:cx="-595.98999"
       sodipodi:cy="298.78839"
       sodipodi:rx="10.101525"
       sodipodi:ry="12.121831"
       d="m -585.88846,298.78839 a 10.101525,12.121831 0 1 1 -20.20306,0 10.101525,12.121831 0 1 1 20.20306,0 z"
       transform="matrix(0.99451023,0,0,0.82875849,1016.9822,400.67775)" />
    <path
       sodipodi:type="arc"
       style="fill:none;stroke:#000000;stroke-width:1;stroke-linejoin:miter;stroke-miterlimit:4;stroke-opacity:1;stroke-dasharray:none;stroke-dashoffset:0"
       id="path3918-3"
       sodipodi:cx="-595.98999"
       sodipodi:cy="298.78839"
       sodipodi:rx="10.101525"
       sodipodi:ry="12.121831"
       d="m -585.88846,298.78839 a 10.101525,12.121831 0 1 1 -20.20306,0 10.101525,12.121831 0 1 1 20.20306,0 z"
       transform="matrix(0.99451023,0,0,0.82875849,1014.9619,297.64219)" />
    <path
       sodipodi:type="arc"
       style="fill:none;stroke:#000000;stroke-width:1;stroke-linejoin:miter;stroke-miterlimit:4;stroke-opacity:1;stroke-dasharray:none;stroke-dashoffset:0"
       id="path3918-12"
       sodipodi:cx="-595.98999"
       sodipodi:cy="298.78839"
       sodipodi:rx="10.101525"
       sodipodi:ry="12.121831"
       d="m -585.88846,298.78839 a 10.101525,12.121831 0 1 1 -20.20306,0 10.101525,12.121831 0 1 1 20.20306,0 z"
       transform="matrix(0.99451023,0,0,0.82875849,887.68269,291.58127)" />
    <path
       sodipodi:type="arc"
       style="fill:none;stroke:#000000;stroke-width:1;stroke-linejoin:miter;stroke-miterlimit:4;stroke-opacity:1;stroke-dasharray:none;stroke-dashoffset:0"
       id="path3918-33"
       sodipodi:cx="-595.98999"
       sodipodi:cy="298.78839"
       sodipodi:rx="10.101525"
       sodipodi:ry="12.121831"
       d="m -585.88846,298.78839 a 10.101525,12.121831 0 1 1 -20.20306,0 10.101525,12.121831 0 1 1 20.20306,0 z"
       transform="matrix(0.99451023,0,0,0.82875849,950.31214,182.4848)" />
    <path
       sodipodi:type="arc"
       style="fill:none;stroke:#000000;stroke-width:1;stroke-linejoin:miter;stroke-miterlimit:4;stroke-opacity:1;stroke-dasharray:none;stroke-dashoffset:0"
       id="path3918-4"
       sodipodi:cx="-595.98999"
       sodipodi:cy="298.78839"
       sodipodi:rx="10.101525"
       sodipodi:ry="12.121831"
       d="m -585.88846,298.78839 a 10.101525,12.121831 0 1 1 -20.20306,0 10.101525,12.121831 0 1 1 20.20306,0 z"
       transform="matrix(0.99451023,0,0,0.82875849,875.56085,93.591375)" />
    <path
       sodipodi:type="arc"
       style="fill:none;stroke:#000000;stroke-width:1;stroke-linejoin:miter;stroke-miterlimit:4;stroke-opacity:1;stroke-dasharray:none;stroke-dashoffset:0"
       id="path3918-11"
       sodipodi:cx="-595.98999"
       sodipodi:cy="298.78839"
       sodipodi:rx="10.101525"
       sodipodi:ry="12.121831"
       d="m -585.88846,298.78839 a 10.101525,12.121831 0 1 1 -20.20306,0 10.101525,12.121831 0 1 1 20.20306,0 z"
       transform="matrix(0.99451023,0,0,0.82875849,754.34255,91.57107)" />
    <path
       sodipodi:type="arc"
       style="fill:none;stroke:#000000;stroke-width:1;stroke-linejoin:miter;stroke-miterlimit:4;stroke-opacity:1;stroke-dasharray:none;stroke-dashoffset:0"
       id="path3918-38"
       sodipodi:cx="-595.98999"
       sodipodi:cy="298.78839"
       sodipodi:rx="10.101525"
       sodipodi:ry="12.121831"
       d="m -585.88846,298.78839 a 10.101525,12.121831 0 1 1 -20.20306,0 10.101525,12.121831 0 1 1 20.20306,0 z"
       transform="matrix(0.99451023,0,0,0.82875849,1041.2259,89.550765)" />
    <path
       sodipodi:type="arc"
       style="fill:none;stroke:#000000;stroke-width:1;stroke-linejoin:miter;stroke-miterlimit:4;stroke-opacity:1;stroke-dasharray:none;stroke-dashoffset:0"
       id="path3918-74"
       sodipodi:cx="-595.98999"
       sodipodi:cy="298.78839"
       sodipodi:rx="10.101525"
       sodipodi:ry="12.121831"
       d="m -585.88846,298.78839 a 10.101525,12.121831 0 1 1 -20.20306,0 10.101525,12.121831 0 1 1 20.20306,0 z"
       transform="matrix(0.99451023,0,0,0.82875849,1166.4848,93.591375)" />
    <path
       sodipodi:type="arc"
       style="fill:none;stroke:#000000;stroke-width:1;stroke-linejoin:miter;stroke-miterlimit:4;stroke-opacity:1;stroke-dasharray:none;stroke-dashoffset:0"
       id="path4057"
       sodipodi:cx="-606.09155"
       sodipodi:cy="310.91022"
       sodipodi:rx="8.0812206"
       sodipodi:ry="8.0812206"
       d="m -598.01033,310.91022 a 8.0812206,8.0812206 0 1 1 -16.16244,0 8.0812206,8.0812206 0 1 1 16.16244,0 z"
       transform="matrix(0.81573477,0,0,0.81573477,654.01406,89.614822)" />
    <path
       sodipodi:type="arc"
       style="fill:none;stroke:#000000;stroke-width:1;stroke-linejoin:miter;stroke-miterlimit:4;stroke-opacity:1;stroke-dasharray:none;stroke-dashoffset:0"
       id="path4057-2"
       sodipodi:cx="-606.09155"
       sodipodi:cy="310.91022"
       sodipodi:rx="8.0812206"
       sodipodi:ry="8.0812206"
       d="m -598.01033,310.91022 a 8.0812206,8.0812206 0 1 1 -16.16244,0 8.0812206,8.0812206 0 1 1 16.16244,0 z"
       transform="matrix(0.81573477,0,0,0.81573477,779.27297,91.635127)" />
    <path
       sodipodi:type="arc"
       style="fill:none;stroke:#000000;stroke-width:1;stroke-linejoin:miter;stroke-miterlimit:4;stroke-opacity:1;stroke-dasharray:none;stroke-dashoffset:0"
       id="path4057-7"
       sodipodi:cx="-606.09155"
       sodipodi:cy="310.91022"
       sodipodi:rx="8.0812206"
       sodipodi:ry="8.0812206"
       d="m -598.01033,310.91022 a 8.0812206,8.0812206 0 1 1 -16.16244,0 8.0812206,8.0812206 0 1 1 16.16244,0 z"
       transform="matrix(0.81573477,0,0,0.81573477,942.91768,87.594516)" />
    <path
       sodipodi:type="arc"
       style="fill:none;stroke:#000000;stroke-width:1;stroke-linejoin:miter;stroke-miterlimit:4;stroke-opacity:1;stroke-dasharray:none;stroke-dashoffset:0"
       id="path4057-79"
       sodipodi:cx="-606.09155"
       sodipodi:cy="310.91022"
       sodipodi:rx="8.0812206"
       sodipodi:ry="8.0812206"
       d="m -598.01033,310.91022 a 8.0812206,8.0812206 0 1 1 -16.16244,0 8.0812206,8.0812206 0 1 1 16.16244,0 z"
       transform="matrix(0.81573477,0,0,0.81573477,1072.2172,87.594516)" />
    <path
       sodipodi:type="arc"
       style="fill:none;stroke:#000000;stroke-width:1;stroke-linejoin:miter;stroke-miterlimit:4;stroke-opacity:1;stroke-dasharray:none;stroke-dashoffset:0"
       id="path4057-3"
       sodipodi:cx="-606.09155"
       sodipodi:cy="310.91022"
       sodipodi:rx="8.0812206"
       sodipodi:ry="8.0812206"
       d="m -598.01033,310.91022 a 8.0812206,8.0812206 0 1 1 -16.16244,0 8.0812206,8.0812206 0 1 1 16.16244,0 z"
       transform="matrix(0.81573477,0,0,0.81573477,852.00395,178.50825)" />
    <path
       sodipodi:type="arc"
       style="fill:none;stroke:#000000;stroke-width:1;stroke-linejoin:miter;stroke-miterlimit:4;stroke-opacity:1;stroke-dasharray:none;stroke-dashoffset:0"
       id="path4057-1"
       sodipodi:cx="-606.09155"
       sodipodi:cy="310.91022"
       sodipodi:rx="8.0812206"
       sodipodi:ry="8.0812206"
       d="m -598.01033,310.91022 a 8.0812206,8.0812206 0 1 1 -16.16244,0 8.0812206,8.0812206 0 1 1 16.16244,0 z"
       transform="matrix(0.81573477,0,0,0.81573477,791.3948,289.62503)" />
    <path
       sodipodi:type="arc"
       style="fill:none;stroke:#000000;stroke-width:1;stroke-linejoin:miter;stroke-miterlimit:4;stroke-opacity:1;stroke-dasharray:none;stroke-dashoffset:0"
       id="path4057-9"
       sodipodi:cx="-606.09155"
       sodipodi:cy="310.91022"
       sodipodi:rx="8.0812206"
       sodipodi:ry="8.0812206"
       d="m -598.01033,310.91022 a 8.0812206,8.0812206 0 1 1 -16.16244,0 8.0812206,8.0812206 0 1 1 16.16244,0 z"
       transform="matrix(0.81573477,0,0,0.81573477,918.67402,291.64533)" />
    <path
       sodipodi:type="arc"
       style="fill:none;stroke:#000000;stroke-width:1;stroke-linejoin:miter;stroke-miterlimit:4;stroke-opacity:1;stroke-dasharray:none;stroke-dashoffset:0"
       id="path4057-8"
       sodipodi:cx="-606.09155"
       sodipodi:cy="310.91022"
       sodipodi:rx="8.0812206"
       sodipodi:ry="8.0812206"
       d="m -598.01033,310.91022 a 8.0812206,8.0812206 0 1 1 -16.16244,0 8.0812206,8.0812206 0 1 1 16.16244,0 z"
       transform="matrix(0.81573477,0,0,0.81573477,920.69433,396.7012)" />
    <path
       sodipodi:type="arc"
       style="fill:none;stroke:#000000;stroke-width:1;stroke-linejoin:miter;stroke-miterlimit:4;stroke-opacity:1;stroke-dasharray:none;stroke-dashoffset:0"
       id="path4057-6"
       sodipodi:cx="-606.09155"
       sodipodi:cy="310.91022"
       sodipodi:rx="8.0812206"
       sodipodi:ry="8.0812206"
       d="m -598.01033,310.91022 a 8.0812206,8.0812206 0 1 1 -16.16244,0 8.0812206,8.0812206 0 1 1 16.16244,0 z"
       transform="matrix(0.81573477,0,0,0.81573477,797.45572,392.66059)" />
    <path
       sodipodi:type="arc"
       style="fill:none;stroke:#000000;stroke-width:1;stroke-linejoin:miter;stroke-miterlimit:4;stroke-opacity:1;stroke-dasharray:none;stroke-dashoffset:0"
       id="path4057-5"
       sodipodi:cx="-606.09155"
       sodipodi:cy="310.91022"
       sodipodi:rx="8.0812206"
       sodipodi:ry="8.0812206"
       d="m -598.01033,310.91022 a 8.0812206,8.0812206 0 1 1 -16.16244,0 8.0812206,8.0812206 0 1 1 16.16244,0 z"
       transform="matrix(0.81573477,0,0,0.81573477,918.67402,394.68089)" />
    <path
       sodipodi:type="arc"
       style="fill:none;stroke:#000000;stroke-width:1;stroke-linejoin:miter;stroke-miterlimit:4;stroke-opacity:1;stroke-dasharray:none;stroke-dashoffset:0"
       id="path4057-0"
       sodipodi:cx="-606.09155"
       sodipodi:cy="310.91022"
       sodipodi:rx="8.0812206"
       sodipodi:ry="8.0812206"
       d="m -598.01033,310.91022 a 8.0812206,8.0812206 0 1 1 -16.16244,0 8.0812206,8.0812206 0 1 1 16.16244,0 z"
       transform="matrix(0.81573477,0,0,0.81573477,791.3948,394.68089)" />
    <path
       sodipodi:type="arc"
       style="fill:none;stroke:#000000;stroke-width:1;stroke-linejoin:miter;stroke-miterlimit:4;stroke-opacity:1;stroke-dasharray:none;stroke-dashoffset:0"
       id="path4057-28"
       sodipodi:cx="-606.09155"
       sodipodi:cy="310.91022"
       sodipodi:rx="8.0812206"
       sodipodi:ry="8.0812206"
       d="m -598.01033,310.91022 a 8.0812206,8.0812206 0 1 1 -16.16244,0 8.0812206,8.0812206 0 1 1 16.16244,0 z"
       transform="matrix(0.81573477,0,0,0.81573477,795.43541,289.62503)" />
    <path
       sodipodi:type="arc"
       style="fill:none;stroke:#000000;stroke-width:1;stroke-linejoin:miter;stroke-miterlimit:4;stroke-opacity:1;stroke-dasharray:none;stroke-dashoffset:0"
       id="path4057-60"
       sodipodi:cx="-606.09155"
       sodipodi:cy="310.91022"
       sodipodi:rx="8.0812206"
       sodipodi:ry="8.0812206"
       d="m -598.01033,310.91022 a 8.0812206,8.0812206 0 1 1 -16.16244,0 8.0812206,8.0812206 0 1 1 16.16244,0 z"
       transform="matrix(0.81573477,0,0,0.81573477,922.71463,285.58442)" />
    <path
       sodipodi:type="arc"
       style="fill:none;stroke:#000000;stroke-width:1;stroke-linejoin:miter;stroke-miterlimit:4;stroke-opacity:1;stroke-dasharray:none;stroke-dashoffset:0"
       id="path4057-24"
       sodipodi:cx="-606.09155"
       sodipodi:cy="310.91022"
       sodipodi:rx="8.0812206"
       sodipodi:ry="8.0812206"
       d="m -598.01033,310.91022 a 8.0812206,8.0812206 0 1 1 -16.16244,0 8.0812206,8.0812206 0 1 1 16.16244,0 z"
       transform="matrix(0.81573477,0,0,0.81573477,856.04456,178.50825)" />
    <path
       sodipodi:type="arc"
       style="fill:none;stroke:#000000;stroke-width:1;stroke-linejoin:miter;stroke-miterlimit:4;stroke-opacity:1;stroke-dasharray:none;stroke-dashoffset:0"
       id="path4057-86"
       sodipodi:cx="-606.09155"
       sodipodi:cy="310.91022"
       sodipodi:rx="8.0812206"
       sodipodi:ry="8.0812206"
       d="m -598.01033,310.91022 a 8.0812206,8.0812206 0 1 1 -16.16244,0 8.0812206,8.0812206 0 1 1 16.16244,0 z"
       transform="matrix(0.81573477,0,0,0.81573477,779.27297,85.574211)" />
    <path
       sodipodi:type="arc"
       style="fill:none;stroke:#000000;stroke-width:1;stroke-linejoin:miter;stroke-miterlimit:4;stroke-opacity:1;stroke-dasharray:none;stroke-dashoffset:0"
       id="path4057-50"
       sodipodi:cx="-606.09155"
       sodipodi:cy="310.91022"
       sodipodi:rx="8.0812206"
       sodipodi:ry="8.0812206"
       d="m -598.01033,310.91022 a 8.0812206,8.0812206 0 1 1 -16.16244,0 8.0812206,8.0812206 0 1 1 16.16244,0 z"
       transform="matrix(0.81573477,0,0,-0.81573477,656.03436,594.83507)" />
    <path
       sodipodi:type="arc"
       style="fill:none;stroke:#000000;stroke-width:1;stroke-linejoin:miter;stroke-miterlimit:4;stroke-opacity:1;stroke-dasharray:none;stroke-dashoffset:0"
       id="path4057-90"
       sodipodi:cx="-606.09155"
       sodipodi:cy="310.91022"
       sodipodi:rx="8.0812206"
       sodipodi:ry="8.0812206"
       d="m -598.01033,310.91022 a 8.0812206,8.0812206 0 1 1 -16.16244,0 8.0812206,8.0812206 0 1 1 16.16244,0 z"
       transform="matrix(0.81573477,0,0,0.81573477,948.9786,87.594516)" />
    <path
       sodipodi:type="arc"
       style="fill:none;stroke:#000000;stroke-width:1;stroke-linejoin:miter;stroke-miterlimit:4;stroke-opacity:1;stroke-dasharray:none;stroke-dashoffset:0"
       id="path4057-06"
       sodipodi:cx="-606.09155"
       sodipodi:cy="310.91022"
       sodipodi:rx="8.0812206"
       sodipodi:ry="8.0812206"
       d="m -598.01033,310.91022 a 8.0812206,8.0812206 0 1 1 -16.16244,0 8.0812206,8.0812206 0 1 1 16.16244,0 z"
       transform="matrix(0.81573477,0,0,0.81573477,1072.2172,89.614822)" />
    <path
       style="fill:none;stroke:#000000;stroke-width:1px;stroke-linecap:butt;stroke-linejoin:miter;stroke-opacity:1"
       d="m 296.98485,561.42805 c 0,16.16244 0,32.32488 0,48.48732 0,3.36717 0,6.73435 0,10.10152 0,0.67344 0,1.34687 0,2.02031 0,0.67343 0.30117,1.41797 0,2.0203 -0.42592,0.85184 -1.59439,1.16847 -2.02031,2.02031 -0.40051,0.80103 0.41303,5.64789 0,6.06091 -0.47619,0.47619 -1.54411,-0.47619 -2.0203,0 -0.065,0.065 0,5.57094 0,6.06092 0,0.67343 -0.47619,1.54411 0,2.0203 0.47619,0.47619 1.54411,-0.47619 2.0203,0 0.47619,0.47619 0,1.34687 0,2.02031"
       id="path4196"
       inkscape:connector-curvature="0" />
    <path
       style="fill:none;stroke:#000000;stroke-width:1px;stroke-linecap:butt;stroke-linejoin:miter;stroke-opacity:1"
       d="m 422.24376,551.32652 c -2.31125,4.48519 0.9245,9.51963 0,14.14214 -0.41764,2.08823 -1.60265,3.97268 -2.0203,6.06091 -0.26414,1.32072 0,2.69374 0,4.04061 0,4.04061 0,8.08122 0,12.12183 0,11.4484 0,22.89679 0,34.34519 0,4.71404 0,9.42809 0,14.14213 0,0.67344 -0.47619,1.54412 0,2.02031 2.69374,2.69374 2.0203,-3.36718 2.0203,2.0203"
       id="path4198"
       inkscape:connector-curvature="0" />
    <path
       style="fill:none;stroke:#000000;stroke-width:1px;stroke-linecap:butt;stroke-linejoin:miter;stroke-opacity:1"
       d="m 294.96454,543.2453 c 0,28.95771 0,57.91541 0,86.87312 0,4.04061 0,8.08122 0,12.12183 0,0.67343 -0.47619,1.54411 0,2.0203 0.47619,0.47619 1.34687,0 2.02031,0"
       id="path4200"
       inkscape:connector-curvature="0" />
    <path
       style="fill:none;stroke:#000000;stroke-width:1px;stroke-linecap:butt;stroke-linejoin:miter;stroke-opacity:1"
       d="m 418.20315,553.34683 c -1.34687,3.36717 -2.89379,6.66107 -4.04061,10.10152 -0.21296,0.63888 0,1.34687 0,2.02031 0,3.36717 0,6.73435 0,10.10152 0,8.08122 0,16.16244 0,24.24366 0,0.0396 0,10.08104 0,12.12183 0,2.02031 -0.63887,4.14429 0,6.06092 0.30117,0.90351 1.34687,1.34687 2.02031,2.0203 2.31153,2.31154 2.8175,2.39158 4.04061,6.06092 0.46321,1.38963 -0.59601,4.86889 0,6.06091 0.42592,0.85184 1.59439,1.16847 2.0203,2.02031 0.32191,0.64382 0,8.29593 0,10.10152 0,0.48009 -0.2264,7.62841 0,8.08122 2.88975,5.7795 4.04061,-3.49069 4.04061,6.06092 0,1.34687 0,2.69374 0,4.04061 0,0.67344 0.67344,2.02031 0,2.02031 -0.67343,0 0.67344,-2.02031 0,-2.02031 -0.95238,0 -1.06792,2.02031 -2.0203,2.02031 -0.67344,0 0.47619,-1.54412 0,-2.02031 -0.47619,-0.47619 -1.54412,0.47619 -2.02031,0 -0.47619,-0.47619 0,-1.34687 0,-2.0203 0,-4.04061 0,-8.08123 0,-12.12184"
       id="path4202"
       inkscape:connector-curvature="0" />
    <path
       style="fill:none;stroke:#000000;stroke-width:1px;stroke-linecap:butt;stroke-linejoin:miter;stroke-opacity:1"
       d="m 571.74634,345.2554 c 0,10.10153 0,20.20305 0,30.30458 0,1.05646 0.26561,7.55 0,8.08122 -0.42592,0.85183 -1.59439,1.16847 -2.0203,2.0203 -0.26118,0.52235 0,10.68984 0,12.12183 0,0.67344 0.47619,1.54412 0,2.02031 -0.4762,0.47619 -1.54412,-0.47619 -2.02031,0 -0.47619,0.47619 0,1.34687 0,2.0203 0,0.67344 0,1.34687 0,2.02031 0,1.95741 0.40155,10.91718 0,12.12183 -0.47619,1.42857 -1.54411,2.61204 -2.0203,4.04061 -0.37996,1.13985 0,4.73336 0,6.06091 0,4.71405 0,9.4281 0,14.14214 0,0.67344 0,1.34687 0,2.02031 0,0.67343 0.47619,1.54411 0,2.0203 -0.95239,0.95238 -3.08823,-0.95238 -4.04062,0 -0.47619,0.47619 0.4762,1.54412 0,2.02031 -0.47619,0.47619 -1.54411,-0.47619 -2.0203,0 -0.47619,0.47619 0.47619,1.54411 0,2.0203 -4.18008,4.18008 0.1634,-6.38772 -4.04061,2.02031 -0.60234,1.20467 0.95238,3.08823 0,4.04061 -0.47619,0.47619 -1.54411,-0.47619 -2.02031,0 -0.95238,0.95238 0.95239,3.08823 0,4.04061 -0.47619,0.47619 -1.54411,-0.47619 -2.0203,0 -0.47619,0.47619 0.47619,1.54411 0,2.0203 -0.47619,0.47619 -2.02031,0.67344 -2.02031,0 0,-0.95238 2.97269,-2.0203 2.02031,-2.0203 -2.77664,0 -5.3585,1.47576 -8.08122,2.0203 -0.66036,0.13207 -1.41797,-0.30117 -2.02031,0 -0.85183,0.42592 -1.59438,1.16847 -2.0203,2.02031 -0.30117,0.60234 0.30117,1.41796 0,2.0203 -0.42592,0.85184 -1.59439,1.16847 -2.02031,2.02031 -0.30117,0.60234 0.47619,1.54411 0,2.0203 -4.18008,4.18008 0.16341,-6.38772 -4.04061,2.02031 -0.60233,1.20467 0.95238,3.08823 0,4.04061 -0.47619,0.47619 -1.54411,-0.47619 -2.0203,0 -0.47619,0.47619 0.30117,1.41796 0,2.0203 -0.42592,0.85184 -1.59439,1.16847 -2.02031,2.02031 -0.40051,0.80103 0.41303,5.64789 0,6.06091 -0.47619,0.47619 -1.54411,-0.47619 -2.0203,0 -0.47619,0.47619 0.47619,1.54412 0,2.02031 -0.47619,0.47619 -1.54412,-0.47619 -2.02031,0 -0.47619,0.47619 0.47619,1.54411 0,2.0203 -0.47619,0.47619 -1.54411,-0.47619 -2.0203,0 -0.47619,0.47619 0.47619,1.54412 0,2.02031 -4.18008,4.18008 0.1634,-6.38772 -4.04061,2.0203 -0.30117,0.60234 0.47619,1.54412 0,2.02031 -0.47619,0.47619 -1.41797,-0.30117 -2.02031,0 -1.70367,0.85183 -2.33694,3.18877 -4.04061,4.04061 -0.60234,0.30117 -1.54411,-0.47619 -2.0203,0 -0.47619,0.47619 0.47619,1.54411 0,2.0203 -0.47619,0.47619 -1.54412,-0.47619 -2.02031,0 -0.47619,0.47619 0.47619,1.54412 0,2.02031 -1.01015,1.01015 -5.05076,-1.01015 -6.06091,0 -0.47619,0.47619 0.47619,1.54411 0,2.0203 -0.47619,0.47619 -1.54412,-0.47619 -2.02031,0 -0.47619,0.47619 0.47619,1.54412 0,2.02031 -0.95238,0.95238 -2.83593,-0.60234 -4.04061,0 -1.70367,0.85183 -2.33694,3.18877 -4.04061,4.04061 -0.80103,0.40052 -5.64789,-0.41303 -6.06091,0 -0.47619,0.47619 0.47619,1.54411 0,2.0203 -0.95238,0.95238 -3.08823,-0.95238 -4.04061,0 -0.47619,0.47619 0.47619,1.54412 0,2.02031 -0.62559,0.62558 -9.47595,-0.62558 -10.10153,0 -0.47619,0.47619 0.47619,1.54411 0,2.0203 -1.01015,1.01016 -5.05076,-1.01015 -6.06091,0 -0.47619,0.47619 0,1.34687 0,2.02031 -1.34687,0 -2.83594,-0.60234 -4.04061,0 -0.60234,0.30117 0.47619,1.54411 0,2.0203 -0.47619,0.47619 -1.34687,0 -2.02031,0 -1.34687,0 -2.83593,-0.60233 -4.04061,0 -0.60234,0.30117 0.47619,1.54412 0,2.02031 -0.95238,0.95238 -2.83593,-0.60234 -4.04061,0 -0.85184,0.42592 -1.16847,1.59439 -2.02031,2.0203 -1.20467,0.60234 -2.83593,-0.60233 -4.04061,0 -8.40802,4.20402 2.15978,-0.13947 -2.0203,4.04061 -1.01015,1.01016 -5.05076,-1.01015 -6.06092,0 -0.47619,0.47619 0.47619,1.54412 0,2.02031 -0.47619,0.47619 -1.54411,-0.47619 -2.0203,0 -0.47619,0.47619 0.47619,1.54411 0,2.0203 -0.47619,0.4762 -1.41797,-0.30116 -2.02031,0 -0.85183,0.42592 -1.16847,1.59439 -2.0203,2.02031 -0.60234,0.30117 -1.54412,-0.47619 -2.02031,0 -0.47619,0.47619 0.47619,1.54411 0,2.0203 -0.41302,0.41303 -5.25988,-0.40051 -6.06091,0 -0.85184,0.42592 -1.34687,1.34687 -2.02031,2.02031"
       id="path4204"
       inkscape:connector-curvature="0" />
    <path
       style="fill:none;stroke:#000000;stroke-width:1px;stroke-linecap:butt;stroke-linejoin:miter;stroke-opacity:1"
       d="m 155.56349,351.31632 c 0,14.14213 0,28.28427 0,42.4264 0,0.95257 -0.0916,10.00997 0,10.10153 0.47619,0.47619 1.54412,-0.47619 2.02031,0 0.47619,0.47619 -0.47619,1.54411 0,2.0203 0.47619,0.47619 1.54411,-0.47619 2.0203,0 0.95238,0.95238 -0.60234,2.83594 0,4.04061 0.42592,0.85184 1.59439,1.16847 2.02031,2.02031 0.60234,1.20468 -0.60234,2.83593 0,4.04061 0.42591,0.85183 1.59438,1.16847 2.0203,2.0203 0.30117,0.60234 -0.47619,1.54412 0,2.02031 0.47619,0.47619 1.54412,-0.47619 2.02031,0 0.0916,0.0916 0,9.14896 0,10.10153 0,0.67343 -0.47619,1.54411 0,2.0203 0.47619,0.47619 1.54411,-0.47619 2.0203,0 0.47619,0.47619 0.67344,2.02031 0,2.02031 -0.67343,0 0,-2.69374 0,-2.02031 0,8.08122 0,16.16244 0,24.24366 0,3.36718 0,6.73435 0,10.10153 0,0.67343 -0.47619,1.54411 0,2.0203 0.95238,0.95238 3.08823,-0.95238 4.04061,0 0.47619,0.47619 -0.47619,1.54412 0,2.02031 0.47619,0.47619 1.54412,-0.47619 2.02031,0 0.47619,0.47619 -0.47619,1.54411 0,2.0203 0.47619,0.47619 1.54411,-0.47619 2.0203,0 0.47619,0.47619 -0.30117,1.41797 0,2.02031 0.42592,0.85183 1.59439,1.16847 2.02031,2.0203 0.30117,0.60234 -0.60234,1.71914 0,2.02031 1.20468,0.60234 2.76285,-0.42592 4.04061,0 6.30602,2.102 -0.67344,1.34687 2.0203,4.04061 0.47619,0.47619 1.54412,-0.47619 2.02031,0 0.47619,0.47619 -0.47619,1.54411 0,2.0203 0.95238,0.95238 3.08823,-0.95238 4.04061,0 0.47619,0.47619 -0.47619,1.54412 0,2.02031 0.47619,0.47619 1.54411,-0.47619 2.0203,0 0.47619,0.47619 -0.47619,1.54411 0,2.0203 0.47619,0.47619 1.54412,-0.47619 2.02031,0 0.47619,0.47619 -0.47619,1.54412 0,2.02031 0.47619,0.47619 1.41797,-0.30117 2.0203,0 0.85184,0.42592 1.16847,1.59439 2.02031,2.0203 0.60234,0.30117 1.54411,-0.47619 2.0203,0 4.18009,4.18009 -6.38772,-0.1634 2.02031,4.04061 1.20468,0.60234 2.83593,-0.60234 4.04061,0 1.54329,0.77165 4.69286,5.6049 6.06091,6.06092 1.27776,0.42592 2.83594,-0.60234 4.04061,0 0.60234,0.30117 0,1.34687 0,2.0203 1.34687,0.67344 2.61204,1.54412 4.04061,2.02031 1.27776,0.42592 3.08823,-0.95238 4.04061,0 0.4762,0.47619 -0.30116,1.41796 0,2.0203 2.23351,4.46701 1.25389,0.62695 4.04062,2.02031 0.85183,0.42592 1.16846,1.59439 2.0203,2.0203 1.20468,0.60234 2.83593,-0.60233 4.04061,0 0.85184,0.42592 1.16847,1.59439 2.02031,2.02031 0.80103,0.40052 5.64789,-0.41303 6.06091,0 0.47619,0.47619 -0.47619,1.54411 0,2.0203 0.47619,0.47619 1.54412,-0.47619 2.02031,0 0.47619,0.47619 -0.47619,1.54412 0,2.02031 0.41302,0.41302 5.25988,-0.40052 6.06091,0 9.24614,4.62307 -8.57299,-0.83736 6.06092,4.04061 1.90336,0.63445 10.81197,-0.65493 12.12183,0 0.85183,0.42592 1.16847,1.59439 2.0203,2.0203 1.09599,0.548 7.52842,-0.5528 8.08122,0 0.95238,0.95239 -0.95238,3.08823 0,4.04061 0.47619,0.47619 1.34687,0 2.02031,0 0.67343,0 1.34687,0 2.0203,0 4.04061,0 8.08122,0 12.12183,0 0.67344,0 1.54412,-0.47619 2.02031,0 0.95238,0.95239 -0.95238,3.08823 0,4.04061 0.95238,0.95239 3.08823,-0.95238 4.04061,0 0.17826,0.17827 0,7.80393 0,2.02031"
       id="path4206"
       inkscape:connector-curvature="0" />
    <path
       style="fill:none;stroke:#000000;stroke-width:1px;stroke-linecap:butt;stroke-linejoin:miter;stroke-opacity:1"
       d="m 363.65492,426.0676 c 28.43835,-16.58903 16.45928,-8.95255 36.36549,-22.22335 4.04061,-2.69374 8.51224,-4.83259 12.12183,-8.08122 16.89903,-15.20913 0.37214,-5.14645 14.14213,-16.16244 1.17587,-0.9407 2.78767,-1.18501 4.04061,-2.02031 0.79243,-0.52828 1.34687,-1.34687 2.02031,-2.0203 0.67343,-0.67344 1.59439,-1.16847 2.0203,-2.02031 1.39337,-2.78672 -2.4467,-1.8071 2.02031,-4.04061 0.60234,-0.30117 1.54411,0.47619 2.0203,0 0.47619,-0.47619 -0.47619,-1.54411 0,-2.0203 0.47619,-0.47619 1.54412,0.47619 2.02031,0 0.47619,-0.47619 -0.47619,-1.54412 0,-2.02031 0.47619,-0.47619 1.54411,0.47619 2.0203,0 0.4762,-0.47619 -0.47619,-1.54411 0,-2.0203 0.4762,-0.47619 1.54412,0.47619 2.02031,0 0.47619,-0.47619 -0.47619,-1.54412 0,-2.02031 0.47619,-0.47619 1.54411,0.47619 2.0203,0 0.95239,-0.95238 -0.95238,-3.08823 0,-4.04061 0.4762,-0.47619 1.54412,0.47619 2.02031,0 1.01015,-1.01015 -1.01015,-5.05076 0,-6.06091 0.47619,-0.47619 1.54411,0.47619 2.0203,0 0.95239,-0.95238 -0.95238,-3.08823 0,-4.04061 0.4762,-0.47619 1.54412,0.47619 2.02031,0 0.47619,-0.47619 0,-1.34687 0,-2.02031 0,-0.67343 0,-1.34687 0,-2.0203"
       id="path4208"
       inkscape:connector-curvature="0" />
    <path
       style="fill:none;stroke:#000000;stroke-width:1px;stroke-linecap:butt;stroke-linejoin:miter;stroke-opacity:1"
       d="m 278.8021,345.2554 c 2.98717,9.56205 10.41915,13.02393 16.16244,20.20305 0.9407,1.17587 0.95551,2.97582 2.02031,4.04061 0.47619,0.47619 1.54411,-0.47619 2.0203,0 1.0648,1.0648 0.95551,2.97582 2.02031,4.04061 1.06479,1.0648 2.97581,0.95551 4.04061,2.02031 1.06479,1.06479 0.95551,2.97581 2.0203,4.04061 0.47619,0.47619 1.41797,-0.30117 2.02031,0 0.85183,0.42592 1.16847,1.59439 2.0203,2.0203 0.60234,0.30117 1.54412,-0.47619 2.02031,0 0.47619,0.47619 -0.47619,1.54412 0,2.02031 0.47619,0.47619 1.54411,-0.47619 2.0203,0 0.47619,0.47619 -0.47619,1.54411 0,2.0203 0.47619,0.47619 1.41797,-0.30117 2.02031,0 0.85183,0.42592 1.34687,1.34687 2.0203,2.02031 0.67344,0.67343 1.59439,1.16847 2.02031,2.0203 0.30117,0.60234 -0.47619,1.54412 0,2.02031 1.06479,1.06479 2.83593,1.1168 4.04061,2.0203 9.37301,-1.72875 2.32368,4.34399 4.04061,6.06092 2.4607,2.4607 4.51379,0.94635 6.06091,4.04061 1.39337,2.78672 -2.4467,1.80711 2.02031,4.04061 0.60234,0.30117 1.34687,0 2.02031,0 0.67343,0.67343 1.16846,1.59439 2.0203,2.0203 0.60234,0.30117 1.54411,-0.47619 2.02031,0 0.47619,0.47619 -0.4762,1.54412 0,2.02031 0.47619,0.47619 1.54411,-0.47619 2.0203,0 0.47619,0.47619 -0.47619,1.54411 0,2.0203 0.47619,0.47619 1.41797,-0.30117 2.02031,0 8.40802,4.20402 -2.15978,-0.13947 2.0203,4.04061 0.47619,0.47619 1.34687,0 2.02031,0 0,0.67344 -0.30117,1.41797 0,2.02031 4.20401,8.40803 -0.13948,-2.15978 4.04061,2.0203 0.47619,0.4762 -0.47619,1.54412 0,2.02031 2.69374,2.69374 2.0203,-3.36718 2.0203,2.0203"
       id="path4210"
       inkscape:connector-curvature="0" />
    <path
       style="fill:none;stroke:#000000;stroke-width:1px;stroke-linecap:butt;stroke-linejoin:miter;stroke-opacity:1"
       d="m 440.42651,351.31632 c -7.33589,3.11888 -10.36317,9.50272 -16.16244,14.14213 -1.17587,0.9407 -2.97582,0.95551 -4.04061,2.02031 -4.90692,4.90692 0.60077,2.96666 -4.04061,6.06091 -1.25294,0.8353 -2.97582,0.95551 -4.04061,2.02031 -1.0648,1.06479 -0.81563,3.1371 -2.02031,4.04061 -1.70367,1.27775 -4.55507,0.51446 -6.06091,2.0203 -0.95238,0.95238 0.74711,2.91995 0,4.04061 -0.8353,1.25294 -2.97582,0.95551 -4.04061,2.02031 -0.47619,0.47619 0.30117,1.41796 0,2.0203 -4.20402,8.40803 0.13947,-2.15977 -4.04061,2.02031 -0.47619,0.47619 0.47619,1.54411 0,2.0203 -0.47619,0.47619 -1.41797,-0.30117 -2.02031,0 -1.70367,0.85184 -2.33694,3.18878 -4.04061,4.04061 -0.60234,0.30117 -1.41796,-0.30117 -2.0203,0 -8.40803,4.20402 2.15978,-0.13947 -2.02031,4.04061 -0.47619,0.47619 -1.54411,-0.47619 -2.0203,0 -0.47619,0.47619 0.47619,1.54412 0,2.02031 -0.95238,0.95238 -3.08823,-0.95238 -4.04061,0 -0.47619,0.47619 0.30117,1.41797 0,2.0203 -0.89534,1.79068 -4.83484,4.22181 -6.06092,6.06092 -0.83529,1.25294 -0.95551,2.97582 -2.0203,4.04061 -0.47619,0.47619 -1.41797,-0.30117 -2.02031,0 -0.85183,0.42592 -1.34687,2.69374 -2.0203,2.0203 -0.67344,-0.67343 2.0203,-2.97268 2.0203,-2.0203 0,4.64295 -1.55265,4.04061 -4.04061,4.04061"
       id="path4212"
       inkscape:connector-curvature="0" />
    <path
       style="fill:none;stroke:#000000;stroke-width:1px;stroke-linecap:butt;stroke-linejoin:miter;stroke-opacity:1"
       d="m 286.88332,337.17418 c 1.95999,3.79933 -0.97999,8.20186 0,12.12183 0.36522,1.46089 1.2732,2.73317 2.02031,4.04061 1.94822,3.40939 4.11269,6.69214 6.06091,10.10153 0.74711,1.30744 0.95551,2.97581 2.02031,4.04061 1.71693,1.71693 4.16488,2.52378 6.06091,4.04061 1.44909,1.15927 11.23931,10.79804 12.12183,12.12183 0.37356,0.56033 0,1.34687 0,2.0203 0.67344,1.34687 0.95551,2.97582 2.02031,4.04061 0.47619,0.47619 1.71913,-0.60234 2.0203,0 0.60234,1.20468 0,2.69374 0,4.04061 0,0.67344 -0.47619,1.54412 0,2.02031 0.47619,0.47619 1.54412,-0.47619 2.02031,0 0.95238,0.95238 -0.60234,2.83593 0,4.04061 4.20401,8.40802 -0.13947,-2.15978 4.04061,2.0203 0.47619,0.47619 -0.47619,1.54412 0,2.02031 0.47619,0.47619 1.54411,-0.47619 2.0203,0 0.47619,0.47619 -0.47619,1.54411 0,2.0203 0.47619,0.47619 1.54412,-0.47619 2.02031,0 0.95238,0.95238 -0.95238,3.08823 0,4.04061 0.95238,0.95239 3.08823,-0.95238 4.04061,0 0.47619,0.47619 -0.47619,1.54412 0,2.02031 0.95238,0.95238 2.83593,-0.60234 4.04061,0 8.40803,4.20401 -2.15978,-0.13947 2.02031,4.04061 0.47619,0.47619 1.54411,-0.47619 2.0203,0 0.47619,0.47619 -0.47619,1.54411 0,2.0203 4.18008,4.18009 -0.1634,-6.38772 4.04061,2.02031 0.30117,0.60234 -0.47619,1.54411 0,2.0203 0.95238,0.95239 3.08823,-0.95238 4.04061,0 0.47619,0.4762 -0.47619,1.54412 0,2.02031 1.99299,1.99298 4.04061,-4.13976 4.04061,2.0203"
       id="path4214"
       inkscape:connector-curvature="0" />
    <path
       style="fill:none;stroke:#000000;stroke-width:1px;stroke-linecap:butt;stroke-linejoin:miter;stroke-opacity:1"
       d="m 448.50773,345.2554 c -2.69374,3.36718 -4.80724,7.29526 -8.08122,10.10153 -1.6169,1.38591 -4.08364,1.22939 -6.06092,2.0203 -1.39814,0.55926 -2.83593,1.1168 -4.04061,2.02031 -1.52381,1.14285 -2.69374,2.69374 -4.04061,4.04061 -1.34687,1.34687 -2.69374,2.69374 -4.04061,4.04061 -0.67343,0.67343 -1.22787,1.49202 -2.0203,2.0203 -1.25294,0.8353 -2.78767,1.18501 -4.04061,2.02031 -0.79243,0.52828 -1.34687,1.34687 -2.02031,2.0203 -2.15291,2.15292 -5.50182,6.14668 -8.08122,8.08122 -1.94248,1.45687 -4.34398,2.32368 -6.06091,4.04061 -1.0648,1.0648 -0.95551,2.97582 -2.02031,4.04061 -0.47619,0.47619 -1.54411,-0.47619 -2.0203,0 -1.0648,1.0648 -0.95551,2.97582 -2.02031,4.04061 -0.47619,0.47619 -1.54411,-0.47619 -2.0203,0 -0.47619,0.47619 0.47619,1.54412 0,2.02031 -4.18009,4.18008 0.1634,-6.38772 -4.04061,2.0203 -0.30117,0.60234 0.30117,1.41797 0,2.02031 -0.42592,0.85183 -1.49202,1.22787 -2.02031,2.0203 -0.83529,1.25294 -0.95551,2.97582 -2.0203,4.04061 -0.47619,0.47619 -1.41797,-0.30117 -2.02031,0 -0.85183,0.42592 -1.16847,1.59439 -2.0203,2.02031 -1.20468,0.60234 -3.08823,-0.95238 -4.04061,0 -0.47619,0.47619 0.47619,1.54411 0,2.0203 -0.47619,0.47619 -1.54412,-0.47619 -2.02031,0 -0.47619,0.47619 0.47619,1.54412 0,2.02031 -0.47619,0.47619 -1.41796,-0.30117 -2.0203,0 -0.85184,0.42592 -1.16847,1.59439 -2.02031,2.0203 -1.20468,0.60234 -3.08823,-0.95238 -4.04061,0 -0.47619,0.47619 0.47619,1.54412 0,2.02031 -0.47619,0.47619 -1.34687,0 -2.0203,0 -0.67344,0 -1.34687,0 -2.02031,0"
       id="path4216"
       inkscape:connector-curvature="0" />
    <path
       style="fill:none;stroke:#000000;stroke-width:1px;stroke-linecap:butt;stroke-linejoin:miter;stroke-opacity:1"
       d="m 280.82241,337.17418 c 2.85831,4.36217 -1.14333,9.56884 0,14.14214 0.36522,1.46088 1.34687,2.69374 2.0203,4.04061 0.67344,1.34687 1.18501,2.78767 2.02031,4.04061 0.52828,0.79243 1.59439,1.16847 2.0203,2.0203 0.30117,0.60234 -0.30117,1.41797 0,2.02031 4.20402,8.40802 -0.13947,-2.15978 4.04061,2.0203 1.0648,1.0648 0.95551,2.97582 2.02031,4.04061 0.47619,0.47619 1.54411,-0.47619 2.0203,0 0.47619,0.47619 -0.47619,1.54412 0,2.02031 0.47619,0.47619 1.54412,-0.47619 2.02031,0 1.06479,1.06479 1.18501,2.78767 2.0203,4.04061 3.08205,4.62307 1.59922,-1.26328 4.04061,6.06091 0.21296,0.63888 -0.47619,1.54412 0,2.02031 0.12946,0.12946 7.7049,3.78972 8.08122,4.04061 0.79243,0.52828 1.34687,1.34687 2.02031,2.0203 1.34687,1.34687 2.98404,2.45576 4.04061,4.04061 0.37355,0.56034 0,1.34687 0,2.02031 0.67343,1.34687 0.95551,2.97581 2.0203,4.04061 0.47619,0.47619 1.54412,-0.47619 2.02031,0 1.06479,1.06479 1.34687,2.69374 2.0203,4.04061 1.34687,0.67343 2.97582,0.95551 4.04061,2.0203 0.47619,0.47619 -0.47619,1.54412 0,2.02031 0.47619,0.47619 1.34687,0 2.02031,0 1.34687,0.67343 2.97582,0.95551 4.04061,2.0203 0.47619,0.47619 -0.47619,1.54412 0,2.02031 0.47619,0.47619 1.54411,-0.47619 2.0203,0 0.4762,0.47619 -0.47619,1.54411 0,2.0203 0.4762,0.47619 1.54412,-0.47619 2.02031,0 0.47619,0.47619 -0.47619,1.54412 0,2.02031 0.47619,0.47619 1.54411,-0.47619 2.02031,0 0.47619,0.47619 -0.4762,1.54411 0,2.0203 0.065,0.065 5.57093,0 6.06091,0"
       id="path4218"
       inkscape:connector-curvature="0" />
    <path
       style="fill:none;stroke:#000000;stroke-width:1px;stroke-linecap:butt;stroke-linejoin:miter;stroke-opacity:1"
       d="m 157.5838,355.35693 c 0,18.18274 0,36.36549 0,54.54823 0,3.36718 0,6.73435 0,10.10153 0,0.67343 0,1.34687 0,2.0203 0,0.67344 -0.30117,1.41797 0,2.02031 2.49649,4.99299 2.0203,-0.69737 2.0203,4.04061 0,0.67343 0,1.34687 0,2.02031 0,0.67343 -0.47619,1.54411 0,2.0203 0.47619,0.47619 1.54412,-0.47619 2.02031,0 0.95238,0.95238 -0.60234,2.83593 0,4.04061 0.42591,0.85184 1.59438,1.16847 2.0203,2.02031 0.63491,1.2698 -0.6349,6.81141 0,8.08122 1.24825,2.49649 1.95057,2.0203 4.04061,2.0203 0.67344,0 2.69374,0 2.02031,0 -0.75899,0 -10.05111,-0.0504 -10.10153,0 -0.47619,0.47619 0,1.34687 0,2.02031 0,4.04061 0,8.08122 0,12.12183 0,0.67343 -0.47619,1.54411 0,2.0203 0.47619,0.47619 1.54412,-0.47619 2.02031,0 0.47619,0.47619 -0.47619,1.54412 0,2.02031 0.47619,0.47619 1.54411,-0.47619 2.0203,0 0.47619,0.47619 -0.47619,1.54411 0,2.0203 0.47619,0.47619 1.54412,-0.47619 2.02031,0 0.95238,0.95238 -0.60234,2.83593 0,4.04061 4.20401,8.40803 -0.13948,-2.15978 4.04061,2.02031 0.47619,0.47619 -0.30117,1.41796 0,2.0203 0.2682,0.53641 5.5245,5.79271 6.06091,6.06092 0.60234,0.30117 1.41797,-0.30117 2.02031,0 1.70367,0.85183 2.33694,3.18877 4.04061,4.04061 0.60234,0.30117 1.54411,-0.47619 2.0203,0 0.47619,0.47619 -0.47619,1.54411 0,2.0203 0.47619,0.47619 1.54412,-0.47619 2.02031,0 0.47619,0.47619 -0.47619,1.54412 0,2.02031 0.47619,0.47619 1.54411,-0.47619 2.0203,0 0.47619,0.47619 -0.60234,1.71913 0,2.0203 1.20468,0.60234 3.08823,-0.95238 4.04061,0 0.95238,0.95238 -0.95238,3.08823 0,4.04061 0.48615,0.48615 7.59508,-0.48615 8.08122,0 0.47619,0.47619 -0.47619,1.54412 0,2.02031 0.95238,0.95238 2.83594,-0.60234 4.04061,0 0.85184,0.42592 1.16847,1.59439 2.02031,2.0203 0.60234,0.30117 1.54411,-0.47619 2.0203,0 0.47619,0.47619 -0.47619,1.54412 0,2.02031 0.47619,0.47619 1.54412,-0.47619 2.02031,0 0.47619,0.47619 -0.47619,1.54411 0,2.0203 0.58379,0.58379 7.15088,-0.62022 8.08122,0 9.37301,-1.72875 2.32368,4.34399 4.04061,6.06092 1.06479,1.06479 2.97582,0.95551 4.04061,2.0203 1.06479,1.0648 1.18501,2.78767 2.02031,4.04061 0.52828,0.79243 1.34687,1.34687 2.0203,2.02031 0.67344,0.67343 1.16847,1.59439 2.02031,2.0203 0.60233,0.30117 1.41796,-0.30117 2.0203,0 0.85184,0.42592 1.16847,1.59439 2.02031,2.02031 1.20467,0.60234 2.83593,-0.60234 4.04061,0 1.70367,0.85183 2.33694,3.18877 4.04061,4.04061 1.61624,0.80812 4.44467,-0.80812 6.06091,0 0.85184,0.42592 1.16847,1.59439 2.02031,2.0203 1.20467,0.60234 3.08823,-0.95238 4.04061,0 0.47619,0.47619 -0.47619,1.54412 0,2.02031 0.47619,0.47619 1.54411,-0.47619 2.0203,0 0.47619,0.47619 -0.60234,1.71914 0,2.0203 1.71668,0.85834 8.09321,-0.66943 10.10153,0 0.9035,0.30117 1.16847,1.59439 2.0203,2.02031 0.64382,0.32191 8.29594,0 10.10153,0 1.05646,0 7.55,-0.26561 8.08122,0 1.70367,0.85184 2.33694,3.18877 4.04061,4.04061 0.60234,0.30117 1.54411,-0.47619 2.0203,0 0.47619,0.47619 -0.47619,1.54411 0,2.0203 0.48615,0.48615 7.59508,-0.48614 8.08122,0 2.69374,2.69375 -3.36717,2.02031 2.02031,2.02031"
       id="path4220"
       inkscape:connector-curvature="0" />
    <path
       style="fill:none;stroke:#000000;stroke-width:1px;stroke-linecap:butt;stroke-linejoin:miter;stroke-opacity:1"
       d="m 412.14224,539.20469 c 8.75465,0 17.50931,0 26.26396,0 1.34687,0 2.69374,0 4.04061,0 0.67344,0 1.41797,0.30117 2.02031,0 0.85184,-0.42592 1.16847,-1.59439 2.0203,-2.02031 1.26981,-0.6349 6.81142,0.63491 8.08123,0 0.85183,-0.42591 1.16846,-1.59438 2.0203,-2.0203 2.16271,-1.08136 4.31149,1.74942 8.08122,-2.02031 0.47619,-0.47619 -0.47619,-1.54411 0,-2.0203 1.01015,-1.01015 5.05076,1.01015 6.06092,0 0.47619,-0.47619 -0.47619,-1.54412 0,-2.02031 0.95238,-0.95238 3.08823,0.95239 4.04061,0 4.18008,-4.18008 -6.38772,0.16341 2.0203,-4.04061 5.38748,0 -0.67343,0.67344 2.02031,-2.0203 0.47619,-0.47619 1.54411,0.47619 2.0203,0 0.47619,-0.47619 -0.47619,-1.54412 0,-2.02031 0.95238,-0.95238 3.08823,0.95238 4.04061,0 0.47619,-0.47619 -0.30117,-1.41796 0,-2.0203 4.20401,-8.40803 -0.13947,2.15978 4.04061,-2.02031 0.47619,-0.47619 -0.30117,-1.41796 0,-2.0203 4.20401,-8.40803 -0.13947,2.15978 4.04061,-2.02031 0.47619,-0.47619 -0.47619,-1.54411 0,-2.0203 0.95238,-0.95238 2.83593,0.60234 4.04061,0 0.85184,-0.42592 1.16847,-1.59439 2.02031,-2.02031 1.2698,-0.6349 6.81141,0.63491 8.08122,0 0.85183,-0.42591 1.16847,-1.59438 2.0203,-2.0203 1.20468,-0.60234 2.83594,0.60234 4.04061,0 0.85184,-0.42592 1.16847,-1.59439 2.02031,-2.02031 0.60234,-0.30117 1.41796,0.30117 2.0203,0 0.85184,-0.42591 1.16847,-1.59438 2.02031,-2.0203 0.60234,-0.30117 1.41796,0.30117 2.0203,0 0.85184,-0.42592 1.59439,-1.16847 2.02031,-2.02031 0.30117,-0.60234 -0.60234,-1.71913 0,-2.0203 1.20468,-0.60234 2.76286,0.42592 4.04061,0 6.30602,-2.10201 -0.67344,-1.34687 2.0203,-4.04061 1.0648,-1.0648 2.78767,-1.18501 4.04061,-2.02031 0.79243,-0.52828 1.16847,-1.59438 2.02031,-2.0203 0.60234,-0.30117 1.54411,0.47619 2.0203,0 0.47619,-0.47619 -0.30117,-1.41797 0,-2.02031 0.85184,-1.70367 3.18878,-2.33694 4.04061,-4.04061 0.60234,-1.20467 -0.95238,-3.08823 0,-4.04061 0.47619,-0.47619 1.54412,0.47619 2.02031,0 0.95238,-0.95238 -0.95238,-3.08823 0,-4.04061 0.47619,-0.47619 1.54411,0.47619 2.0203,0 1.01016,-1.01015 -1.01015,-5.05076 0,-6.06091 0.47619,-0.47619 1.54412,0.47619 2.02031,0 0.95238,-0.95238 -0.95238,-3.08823 0,-4.04061 0.47619,-0.47619 1.54411,0.47619 2.0203,0 0.47619,-0.47619 -0.47619,-1.54412 0,-2.02031 1.0648,-1.06479 2.97582,-0.95551 4.04061,-2.0203 0.5528,-0.5528 -0.54799,-6.98523 0,-8.08122 0.42592,-0.85184 1.59439,-1.16847 2.02031,-2.02031 0.60234,-1.20468 -0.60234,-2.83593 0,-4.04061 0.42592,-0.85183 1.59439,-1.16847 2.0203,-2.0203 0.60234,-1.20468 -0.95238,-3.08823 0,-4.04061 2.69374,-2.69374 2.02031,3.36717 2.02031,-2.02031 0,-0.67343 0,-1.34687 0,-2.0203 0,-0.67344 -0.30117,-1.41797 0,-2.02031 0.42592,-0.85184 1.59439,-1.16847 2.0203,-2.0203 0.30117,-0.60234 -0.30116,-1.41797 0,-2.02031 0.85184,-1.70367 3.18878,-2.33694 4.04062,-4.04061 0.30116,-0.60234 0,-1.34687 0,-2.02031 0,-1.34687 -0.42592,-2.76285 0,-4.04061 0.30116,-0.9035 1.59438,-1.16847 2.0203,-2.0203 0.30117,-0.60234 -0.47619,-1.54412 0,-2.02031 0.47619,-0.47619 1.54411,0.47619 2.02031,0 0.41302,-0.41302 -0.40052,-5.25988 0,-6.06091 6.7005,-6.70051 -0.95239,1.90476 2.0203,-4.04061 0.42592,-0.85184 1.71914,-1.1168 2.02031,-2.02031 0.38309,-1.14927 0,-8.19872 0,-10.10152 0,-0.67344 -0.4762,-1.54412 0,-2.02031 0.47619,-0.47619 1.71913,0.60234 2.0203,0 0.23754,-0.47507 0,-6.75403 0,-8.08122 0,-2.4155 -0.43953,-10.80325 0,-12.12183 0.47619,-1.42857 1.65508,-2.57972 2.02031,-4.04061 0.44509,-1.78036 -0.59761,-10.92661 0,-12.12183 2.49649,-4.99299 2.0203,0.69737 2.0203,-4.04061 0,-4.04061 0,-8.08122 0,-12.12183 0,-0.67343 -0.67343,-2.0203 0,-2.0203 0.67344,0 0,1.34687 0,2.0203"
       id="path4222"
       inkscape:connector-curvature="0" />
    <path
       style="fill:none;stroke:#000000;stroke-width:1px;stroke-linecap:butt;stroke-linejoin:miter;stroke-opacity:1"
       d="m 153.54319,355.35693 c -0.67344,2.69374 -1.74402,5.31835 -2.02031,8.08122 -0.40205,4.02055 0,8.08122 0,12.12183 0,10.10152 0,20.20305 0,30.30457 0,5.38748 0,10.77496 0,16.16244 0,2.02031 -0.90351,4.2539 0,6.06092 0.30117,0.60234 1.54412,-0.47619 2.02031,0 0.47619,0.47619 -0.47619,1.54411 0,2.02031 0.47619,0.47619 1.54411,-0.4762 2.0203,0 0.47619,0.47619 -0.47619,1.54411 0,2.0203 0.47619,0.47619 1.54412,-0.47619 2.02031,0 1.01015,1.01015 -1.01016,5.05076 0,6.06092 0.47619,0.47619 1.54411,-0.4762 2.0203,0 0.47619,0.47619 -0.30117,1.41796 0,2.0203 0.42592,0.85184 1.59439,1.16847 2.02031,2.02031 0.30117,0.60233 -0.30117,1.41796 0,2.0203 0.42591,0.85184 1.59438,1.16847 2.0203,2.02031 0.30117,0.60233 -0.47619,1.54411 0,2.0203 0.47619,0.47619 1.54412,-0.47619 2.02031,0 0.47619,0.47619 0,1.34687 0,2.02031 0,2.0203 0,4.04061 0,6.06091 0,4.04061 0,8.08122 0,12.12183 0,0.67344 0,1.34687 0,2.02031 0,0.67343 -0.47619,1.54411 0,2.0203 4.18008,4.18009 -0.16341,-6.38772 4.04061,2.02031 0.60234,1.20467 -0.60234,2.83593 0,4.04061 0.42592,0.85183 1.59438,1.16847 2.0203,2.0203 0.30117,0.60234 -0.47619,1.54412 0,2.02031 4.18009,4.18008 -0.1634,-6.38772 4.04061,2.0203 0.30117,0.60234 -0.47619,1.54412 0,2.02031 0.41303,0.41302 5.25988,-0.40052 6.06092,0 0.85183,0.42592 1.16847,1.59438 2.0203,2.0203 0.60234,0.30117 1.54412,-0.47619 2.02031,0 0.47619,0.47619 -0.47619,1.54412 0,2.02031 1.06479,1.06479 2.61204,1.54411 4.04061,2.0203 0.63887,0.21296 1.54411,-0.47619 2.0203,0 0.47619,0.47619 -0.47619,1.54412 0,2.02031 4.18009,4.18008 -0.1634,-6.38772 4.04061,2.0203 0.30117,0.60234 -0.47619,1.54412 0,2.02031 1.01016,1.01015 5.05077,-1.01015 6.06092,0 0.47619,0.47619 -0.47619,1.54411 0,2.0203 0.48615,0.48615 7.59507,-0.48614 8.08122,0 0.47619,0.47619 -0.47619,1.54412 0,2.02031 0.47619,0.47619 1.41797,-0.30117 2.0203,0 0.85184,0.42592 1.16847,1.59439 2.02031,2.0203 1.20468,0.60234 3.08823,-0.95238 4.04061,0 0.47619,0.47619 -0.47619,1.54412 0,2.02031 0.95238,0.95238 2.83593,-0.60234 4.04061,0 0.85184,0.42592 1.16847,1.59439 2.0203,2.0203 1.61625,0.80813 4.44468,-0.80812 6.06092,0 0.85184,0.42592 1.59439,1.16847 2.02031,2.02031 0.30116,0.60234 -0.60234,1.71913 0,2.0203 1.20467,0.60234 2.83593,-0.60233 4.04061,0 0.60233,0.30117 -0.47619,1.54412 0,2.02031 0.47619,0.47619 1.41796,-0.30117 2.0203,0 0.85184,0.42592 1.22788,1.49202 2.02031,2.0203 1.25294,0.8353 2.78767,1.18502 4.04061,2.02031 0.79242,0.52828 1.16847,1.59439 2.0203,2.0203 0.60234,0.30117 1.41797,-0.30117 2.02031,0 4.5985,4.59851 -0.41842,0.53397 4.04061,2.02031 14.63391,4.87797 -3.18523,-0.58246 6.06091,4.04061 0.60234,0.30117 1.34687,0 2.02031,0 1.34687,0.67343 2.78767,1.18501 4.04061,2.0203 1.58485,1.05658 2.23359,3.43828 4.04061,4.04061 1.27775,0.42592 2.83593,-0.60233 4.04061,0 0.60234,0.30117 -0.60234,1.71914 0,2.02031 1.61624,0.80812 4.44467,-0.80812 6.06091,0 1.70367,0.85184 2.33694,3.18877 4.04061,4.04061 0.60234,0.30117 1.41797,-0.30117 2.02031,0 0.85183,0.42592 1.16847,1.59439 2.0203,2.0203 1.20468,0.60234 2.83594,-0.60233 4.04061,0 0.85184,0.42592 1.16847,1.59439 2.02031,2.02031 0.53122,0.26561 7.02476,0 8.08122,0"
       id="path4224"
       inkscape:connector-curvature="0" />
    <path
       style="fill:none;stroke:#000000;stroke-width:1px;stroke-linecap:butt;stroke-linejoin:miter;stroke-opacity:1"
       d="m 416.18285,543.2453 c 4.71404,-2.02031 9.42809,-4.04061 14.14213,-6.06092 2.69374,0 5.50109,0.77405 8.08122,0 4.32702,-1.2981 8.02009,-4.1678 12.12183,-6.06091 4.65668,-2.14924 9.38024,-4.15615 14.14214,-6.06092 2.91032,-1.16412 7.39411,-2.01005 10.10153,-4.04061 1.52381,-1.14285 2.33694,-3.18877 4.04061,-4.04061 1.2698,-0.6349 6.81141,0.63491 8.08122,0 0.85183,-0.42591 1.11679,-1.71913 2.0203,-2.0203 2.47266,-0.82422 5.60857,0.82422 8.08122,0 0.90351,-0.30117 1.16847,-1.59439 2.02031,-2.02031 1.09599,-0.54799 7.52842,0.5528 8.08122,0 0.47619,-0.47619 -0.47619,-1.54411 0,-2.0203 0.47619,-0.47619 1.54411,0.47619 2.0203,0 1.0648,-1.0648 1.18501,-2.78767 2.02031,-4.04061 0.52828,-0.79243 1.59439,-1.16847 2.0203,-2.02031 0.30117,-0.60234 -0.47619,-1.54411 0,-2.0203 4.18009,-4.18008 -0.1634,6.38772 4.04061,-2.02031 0.30117,-0.60234 -0.30117,-1.41796 0,-2.0203 0.42592,-0.85184 1.34687,-1.34687 2.02031,-2.02031 0.67343,-0.67343 1.16847,-1.59438 2.0203,-2.0203 0.60234,-0.30117 1.71914,0.60234 2.02031,0 0.60234,-1.20468 -0.60234,-2.83594 0,-4.04061 0.30117,-0.60234 1.54411,0.47619 2.0203,0 0.47619,-0.47619 -0.47619,-1.54412 0,-2.02031 0.47619,-0.47619 1.41797,0.30117 2.02031,0 4.467,-2.2335 0.62694,-1.25389 2.0203,-4.04061 1.21219,-2.42436 4.84874,-3.63655 6.06092,-6.06091 0.30117,-0.60234 -0.30117,-1.41797 0,-2.02031 0.42592,-0.85183 1.59439,-1.16847 2.0203,-2.0203 0.548,-1.09599 -0.5528,-7.52842 0,-8.08122 0.95238,-0.95238 3.08823,0.95238 4.04061,0 0.0725,-0.0725 3.83069,-7.73135 4.04061,-8.08122 1.72896,-2.8816 4.90638,-6.63792 6.06092,-10.10153 0.21296,-0.63888 -0.30117,-1.41797 0,-2.0203 0.85183,-1.70368 3.18877,-2.33694 4.04061,-4.04061 0.60234,-1.20468 -0.60234,-2.83594 0,-4.04061 0.42592,-0.85184 1.59439,-1.16847 2.0203,-2.02031 0.69775,-1.39549 -0.70916,-9.39236 0,-10.10153 4.18009,-4.18008 -0.1634,6.38773 4.04061,-2.0203 0.40052,-0.80103 -0.41302,-5.64789 0,-6.06092 0.4762,-0.47619 1.54412,0.47619 2.02031,0 0.12578,-0.12578 -0.0915,-9.73572 0,-10.10152 0.36522,-1.46089 1.54411,-2.61204 2.02031,-4.04061 0.7156,-2.1468 -0.7156,-5.93442 0,-8.08122 0.30116,-0.90351 1.59438,-1.16847 2.0203,-2.02031 0.30117,-0.60234 0,-1.34687 0,-2.0203 0,-0.67344 0,-1.34687 0,-2.02031 0,-4.71404 0,-9.42809 0,-14.14213 0,-13.21999 0,-31.19094 0,-38.3858"
       id="path4226"
       inkscape:connector-curvature="0" />
    <path
       style="fill:none;stroke:#000000;stroke-width:1px;stroke-linecap:butt;stroke-linejoin:miter;stroke-opacity:1"
       d="m 418.20315,640.21994 c 0,-3.36717 -0.33504,-6.75106 0,-10.10152 3.20965,-32.09642 0.66609,8.81343 4.04061,-18.18275 0.33412,-2.67294 0,-5.38748 0,-8.08122 0,-1.34687 -0.32666,-2.73395 0,-4.04061 0.36523,-1.46088 1.54412,-2.61204 2.02031,-4.04061 0.43551,-1.30654 0,-7.89555 0,-10.10152 0,-8.75466 0,-17.50931 0,-26.26397 0,-5.38748 0,-10.77496 0,-16.16244 0,-0.67344 0.47619,-1.54411 0,-2.02031 -0.47619,-0.47619 -1.34687,0 -2.02031,0"
       id="path4228"
       inkscape:connector-curvature="0" />
    <path
       style="fill:none;stroke:#000000;stroke-width:1px;stroke-linecap:butt;stroke-linejoin:miter;stroke-opacity:1"
       d="m 286.88332,543.2453 c 0,12.79527 0,25.59053 0,38.3858 0,2.01931 -0.43211,8.37308 0,10.10152 0.5165,2.06601 1.50381,3.99491 2.02031,6.06092 0.46522,1.86087 -0.60505,4.24577 0,6.06091 0.47619,1.42857 1.54411,2.61204 2.0203,4.04061 0.37995,1.13986 0,4.73336 0,6.06092 0,6.73435 0,13.4687 0,20.20305 0,0.67343 0,1.34687 0,2.0203 0,0.67344 -0.47619,1.54412 0,2.02031 0.47619,0.47619 1.54412,-0.47619 2.02031,0 0.95238,0.95238 -0.60234,2.83593 0,4.04061 0.42592,0.85183 1.59439,1.16847 2.0203,2.0203 0.30117,0.60234 0,1.34687 0,2.02031 0,0.67343 0,1.34687 0,2.0203"
       id="path4230"
       inkscape:connector-curvature="0" />
  </g>
</svg>
