<?xml version="1.0" encoding="UTF-8" standalone="no"?>
<!-- Created with Inkscape (http://www.inkscape.org/) -->
<svg xmlns:dc="http://purl.org/dc/elements/1.1/" xmlns:cc="http://creativecommons.org/ns#" xmlns:rdf="http://www.w3.org/1999/02/22-rdf-syntax-ns#" xmlns:svg="http://www.w3.org/2000/svg" xmlns="http://www.w3.org/2000/svg" xmlns:sodipodi="http://sodipodi.sourceforge.net/DTD/sodipodi-0.dtd" xmlns:inkscape="http://www.inkscape.org/namespaces/inkscape" width="280mm" height="297mm" viewBox="0 0 992.12598 1052.3622" id="svg2" version="1.1" inkscape:version="0.91 r13725" sodipodi:docname="pablo-lightning-talk.svg">
  <defs id="defs4"/>
  <sodipodi:namedview id="base" pagecolor="#ffffff" bordercolor="#666666" borderopacity="1.0" inkscape:pageopacity="0.0" inkscape:pageshadow="2" inkscape:zoom="0.49497475" inkscape:cx="87.157544" inkscape:cy="524.29642" inkscape:document-units="px" inkscape:current-layer="layer1" showgrid="false" inkscape:window-width="1440" inkscape:window-height="803" inkscape:window-x="0" inkscape:window-y="1" inkscape:window-maximized="1" borderlayer="true"/>
  <metadata id="metadata7">
    <rdf:RDF>
      <cc:Work rdf:about="">
        <dc:format>image/svg+xml</dc:format>
        <dc:type rdf:resource="http://purl.org/dc/dcmitype/StillImage"/>
        <dc:title/>
      </cc:Work>
    </rdf:RDF>
  </metadata>
  <g inkscape:label="Layer 1" inkscape:groupmode="layer" id="layer1">
    <g id="layer1-6" inkscape:label="Layer 1" transform="matrix(0.59211874,0,0,0.59211874,121.31609,583.61738)" style="fill:none;stroke:#000000;stroke-opacity:1">
      <path inkscape:connector-curvature="0" id="path3000" d="m 341.24397,318.69448 -169.5712,310.32336 c 0,0 -17.0179,38.13296 24.91906,30.90086 l 334.28018,3.28731 c 0,0 24.91907,-13.14929 10.94009,-36.16056 L 374.672,323.29673 c 0,0 -15.80234,-19.0665 -33.42803,-4.60225 z" style="fill:none;stroke:#000000;stroke-width:1.76997948px;stroke-linecap:butt;stroke-linejoin:miter;stroke-opacity:1"/>
      <path inkscape:connector-curvature="0" id="path2996" d="M 356.43853,343.02068 199.63075,629.6753 513.8541,629.01784 Z" style="fill:none;fill-opacity:1;stroke:#000000;stroke-width:1.76997948px;stroke-linecap:butt;stroke-linejoin:miter;stroke-opacity:1"/>
      <path inkscape:connector-curvature="0" id="path2998" d="m 340.02842,400.22011 34.64358,1.31492 -38.29027,97.96226 60.77822,-34.18817 -27.95799,118.34365 15.80234,-3.28731 -29.17355,43.39267 -18.23346,-49.96733 19.44903,11.17691 4.25448,-78.89577 -62.60158,41.42028 z" style="fill:none;stroke:#000000;stroke-width:1.76997948px;stroke-linecap:butt;stroke-linejoin:miter;stroke-opacity:1"/>
    </g>
    <path style="fill:none;stroke:#000000;stroke-width:2.18832827;stroke-opacity:1" d="m 328.93951,524.46756 -188.19623,-0.0768 -6.56499,-2.28859 -6.56498,-2.28858 -6.28742,-5.74489 -6.28742,-5.74477 -3.01297,-7.04178 -3.01298,-7.04178 0,-192.89232 0,-192.89231 4.84038,-8.612295 4.84039,-8.612319 7.7425,-4.815613 7.7425,-4.815613 190.38456,-0.659059 190.38456,-0.659081 7.90993,2.299386 7.90994,2.299386 6.04204,4.752677 6.04204,4.752655 4.05368,8.925316 4.05368,8.92532 0,190.38457 0,190.38456 -4.01955,8.75331 -4.01954,8.75331 -4.54085,4.03765 c -2.49747,2.22071 -8.29886,5.3779 -12.89194,7.01602 l -8.3511,2.97835 -188.19623,-0.0766 z m 2.18447,-13.37324 194.03087,-0.58208 6.38499,-7.14659 6.38502,-7.14658 0,-193.85138 0,-193.85136 -7.44032,-7.44032 -7.44031,-7.440315 -191.5946,0 -191.59457,0 -5.5431,2.525616 -5.54311,2.525593 -3.86027,5.680636 -3.86026,5.68062 -0.61724,121.99931 -0.61724,121.9993 2.3616,0 c 1.29889,0 21.47201,-11.033 44.82917,-24.51779 l 42.46758,-24.51781 1.31555,-12.13669 c 0.72356,-6.67519 3.37925,-18.86015 5.90153,-27.07769 l 4.586,-14.94097 8.03985,-12.41314 8.03983,-12.41311 12.6026,-11.49418 12.60259,-11.49419 15.68307,-7.48502 15.68305,-7.48505 13.79141,-2.6642 13.79139,-2.66418 15.75104,1.21295 15.75102,1.21296 14.77122,4.87295 c 8.12416,2.68013 14.74198,5.47297 14.70622,6.20632 -0.0357,0.73335 -10.37559,7.16227 -22.97745,14.28648 l -22.91245,12.95313 0,2.47458 c 0,1.36103 1.18169,3.65631 2.62599,5.1006 l 2.62599,2.626 -2.74414,2.73541 -2.74414,2.73541 -3.98028,-5.26768 -3.98027,-5.26768 -13.95527,7.85249 c -7.67541,4.31886 -15.73682,9.18054 -17.91423,10.80371 l -3.9589,2.95124 30.883,53.54881 c 16.98563,29.45186 31.57928,54.24857 32.4303,55.10379 l 1.54733,1.55497 17.84535,-10.06476 17.84536,-10.06474 -2.38142,-5.22662 -2.38141,-5.22663 2.3639,-2.36389 2.36392,-2.36392 2.46804,4.61159 2.46806,4.6116 2.44338,0 c 1.34385,0 10.41813,-4.58543 20.16505,-10.18982 9.7469,-5.60442 20.05601,-11.70393 22.90913,-13.55446 l 5.18745,-3.36462 -1.62363,11.91319 -1.62365,11.91321 -5.30414,14.35443 -5.30411,14.35445 -11.38968,15.08887 -11.38966,15.08888 -15.31035,10.39261 -15.31036,10.39263 -15.32624,5.0248 -15.32624,5.02479 -22.97745,-0.11707 -22.97744,-0.11708 -12.03581,-4.61805 c -6.61969,-2.5399 -15.11141,-5.85642 -18.87048,-7.37 l -6.83467,-2.75198 -71.94515,41.68131 -71.94514,41.68131 -0.71696,3.60343 -0.71696,3.60343 7.64518,7.64519 7.64521,7.64521 194.03086,-0.5821 z m 123.6444,-214.01474 -7.65914,3.96336 -28.99564,-16.71758 -28.99561,-16.71756 0.54734,-33.56784 0.54737,-33.56784 12.53938,-7.38015 12.53937,-7.38016 5.90378,10.3114 c 3.24708,5.67127 6.17844,10.67924 6.51413,11.12883 0.33568,0.44959 2.20369,0.20592 4.1511,-0.5413 l 3.54078,-1.35874 -6.75994,-11.81515 -6.75994,-11.81516 12.0337,-6.79141 c 6.61853,-3.73529 12.72141,-6.79142 13.56195,-6.79142 0.84051,0 14.1206,7.13943 29.51131,15.86539 l 27.98307,15.86538 0.0643,34.27907 0.0643,34.27909 -10.1231,5.65792 c -5.56785,3.11185 -10.45176,5.6579 -10.85328,5.6579 -0.40151,0 -1.01604,-8.11327 -1.36562,-18.02951 l -0.63558,-18.0295 -3.82958,-0.73176 -3.82957,-0.73173 0,18.94361 0,18.94362 -1.64125,-0.72946 c -0.90268,-0.40118 -8.33919,-4.53546 -16.52557,-9.18726 l -14.88436,-8.45784 -1.25137,1.25139 -1.2514,1.25138 1.22475,3.19161 1.22474,3.19161 14.66464,8.20093 14.66467,8.20096 -4.13034,3.09725 c -2.27168,1.70351 -7.57693,4.88081 -11.78947,7.06067 z m -309.64845,-157.48899 -3.28249,0 0,-12.0358 0,-12.03581 3.28249,0 3.2825,0 0.0729,4.92374 0.0729,4.92374 4.10753,-4.92374 4.10756,-4.92374 3.63761,0 3.63764,0 -4.49883,5.71935 -4.49883,5.71933 4.49703,5.71705 4.49702,5.71703 -2.73642,0.91214 -2.73642,0.91214 -5.07976,-5.90556 -5.07974,-5.90557 0,5.59286 0,5.59284 -3.2825,0 z m 30.92292,0 -3.56882,0 0,-12.0358 0,-12.03581 2.73541,-0.0197 2.73541,-0.0197 5.95904,7.13179 5.95904,7.13174 0.0589,-7.11207 0.0589,-7.11207 2.18833,0 2.18833,0 0,12.03581 0,12.0358 -3.2825,0 c -1.80537,0 -3.3179,-0.73856 -3.36118,-1.64124 -0.0433,-0.90269 -2.48089,-4.5812 -5.41688,-8.1745 l -5.33816,-6.53326 1.32654,8.1745 1.32652,8.1745 -3.56881,0 z m 40.72884,0 -4.59512,0 -3.43881,-3.4388 -3.4388,-3.43881 0,-5.971 0,-5.97101 2.62599,-2.626 2.626,-2.62599 6.78382,0 6.78381,0 2.626,2.62599 2.62599,2.626 0,5.78815 0,5.78817 -4.00188,3.62164 -4.00189,3.62166 -4.59511,0 z m -1.72723,-4.37665 c 0.46099,0 2.39585,-0.59772 4.29965,-1.3283 l 3.46148,-1.32829 0,-5.30536 0,-5.30539 -3.59895,-1.38103 -3.59895,-1.38105 -2.88124,3.94035 -2.88126,3.94034 2.18054,4.07437 c 1.19929,2.24089 2.55772,4.07436 3.01873,4.07436 z m 23.84492,4.37665 -3.45718,0 3.53417,-5.39383 c 1.9438,-2.96661 3.53417,-6.58186 3.53417,-8.03392 0,-1.45205 -1.62973,-4.44094 -3.62166,-6.64198 l -3.62166,-4.00188 4.48169,0 4.4817,0 1.47546,3.82957 1.47546,3.82958 2.1499,-3.82958 2.1499,-3.82957 3.42543,0 3.42544,0 -3.75428,5.72974 -3.75427,5.72975 4.66228,6.30606 4.66225,6.30606 -4.10775,0 -4.10776,0 -2.17699,-4.87883 -2.17699,-4.87881 -2.61107,4.87881 -2.61107,4.87883 -3.45717,0 z m 28.52202,0 -1.22396,0 1.51174,-9.30039 c 0.83146,-5.11522 2.25298,-10.09376 3.15892,-11.06341 l 1.6472,-1.76298 2.76972,6.68673 c 1.52337,3.6777 3.52971,6.68674 4.45855,6.68674 0.92881,0 3.11915,-3.58623 4.86741,-7.96941 l 3.17863,-7.96944 2.52623,10.03264 c 1.38944,5.51794 2.52625,11.27061 2.52625,12.78373 l 0,2.75112 -2.00302,-2.07891 c -1.10167,-1.1434 -2.39033,-4.54078 -2.86369,-7.54973 l -0.86065,-5.47082 -2.9584,6.0179 c -1.62711,3.30985 -3.62702,6.0179 -4.44421,6.0179 -0.81719,0 -2.7688,-2.70805 -4.33691,-6.0179 l -2.85109,-6.0179 -1.93938,7.11207 c -1.06668,3.91163 -2.49017,7.11206 -3.16334,7.11206 z m 34.26646,0 -2.23323,0 5.92965,-12.09031 5.92964,-12.0903 5.86892,11.54321 c 3.22792,6.34878 5.39211,12.03406 4.80932,12.63397 -0.5828,0.59988 -2.31863,-0.63105 -3.85737,-2.73541 l -2.79776,-3.82614 -4.44834,0 -4.44837,0 -1.25962,3.28249 c -0.69279,1.80537 -2.26455,3.28249 -3.49284,3.28249 z m 9.75502,-8.75331 3.64722,0 -0.78416,-2.35245 c -0.43128,-1.29385 -1.71966,-2.35246 -2.86306,-2.35246 -1.1434,0 -2.43178,1.05861 -2.86305,2.35246 l -0.78417,2.35245 3.64722,0 z m 20.78912,8.75331 -2.18833,0 0,-12.0358 0,-12.03581 2.18833,0 2.18833,0 0.0486,4.92374 0.0486,4.92374 4.17833,-5.43813 4.17833,-5.43813 1.59514,1.59514 1.59513,1.59514 -3.87647,4.28345 -3.87649,4.28348 4.64998,5.91151 4.65,5.91151 -1.32096,1.30715 -1.32096,1.30718 -5.26381,-6.56499 -5.2638,-6.56498 -0.0109,6.0179 -0.0109,6.0179 -2.18833,0 z m 30.6366,0 -6.56499,0 0,-12.0358 0,-12.03581 7.11207,0.21817 7.11207,0.21818 -5.30858,1.48347 -5.30858,1.48349 -0.89168,2.67503 -0.8917,2.67506 5.6532,0 5.65317,0 0,2.18833 0,2.18833 -5.47082,0 -5.47082,0 0,3.28249 0,3.28249 5.47082,0 5.47082,0 0,2.18833 0,2.18833 -6.56498,0 z m 17.50662,0 -2.18833,0 0,-12.0358 0,-12.03581 5.53949,0 5.53952,0 1.37085,3.57238 1.37084,3.57236 -2.4357,3.90017 -2.43567,3.90015 3.18447,2.64291 c 1.75148,1.45357 3.15338,3.75324 3.11535,5.11034 l -0.0691,2.46747 -5.40167,-6.13993 -5.40167,-6.13994 0,5.59286 0,5.59284 -2.18833,0 z m 5.5633,-14.56242 3.375,-1.2951 -0.77636,-2.32904 c -0.42698,-1.28096 -1.94573,-2.71883 -3.37497,-3.19522 l -2.59864,-0.86623 0,4.49034 0,4.49034 3.37497,-1.29509 z m 22.33789,14.16069 -6.0179,0.69243 0,-3.22297 0,-3.22297 4.12968,1.07994 4.12968,1.07994 1.46454,-2.36967 1.46454,-2.36966 -5.59422,-2.5489 -5.59422,-2.5489 0,-5.11957 0,-5.11955 5.34166,0 5.34169,0 1.49734,2.42276 1.49736,2.42279 -4.46653,-1.41762 -4.46655,-1.41765 -1.25954,2.03799 -1.25953,2.03797 5.58612,3.66016 5.5861,3.66018 -0.68116,4.78543 -0.68116,4.78544 -6.0179,0.69243 z m 17.92455,0.40173 -2.31746,0 1.35245,-2.18833 c 0.74386,-1.20358 1.78673,-2.18832 2.31749,-2.18832 0.53075,0 0.96501,0.98474 0.96501,2.18832 l 0,2.18833 -2.31749,0 z m 22.49547,0 -4.18135,0 -3.62166,-4.00188 -3.62166,-4.00188 0,-4.59512 0,-4.59512 3.4388,-3.43881 3.43881,-3.4388 5.971,0 5.97101,0 2.626,2.62599 2.62599,2.626 0,7.1445 0,7.14447 -4.2328,2.26534 c -2.32803,1.24592 -6.1144,2.26531 -8.41414,2.26531 z m 4.26232,-4.57397 c 2.07031,-1.108 4.37499,-3.00281 5.12149,-4.2107 l 1.35731,-2.19614 -1.34735,-4.24514 -1.34735,-4.24512 -4.36974,-1.38692 -4.36975,-1.38689 -3.17747,2.63709 -3.17748,2.63707 0,5.09412 0,5.09414 3.77308,2.11152 3.77305,2.11152 3.76421,-2.01455 z m 21.29678,-0.89685 -1.4527,6.56499 -0.25892,-12.72824 -0.2589,-12.72826 5.99919,0.69245 5.9992,0.69243 0.7811,4.11443 0.78112,4.11443 -2.77771,1.71673 -2.77769,1.7167 3.70699,5.65759 3.707,5.65757 -1.98711,0 c -1.09289,0 -3.792,-2.70805 -5.99799,-6.0179 l -4.0109,-6.0179 -1.45268,6.56498 z m 5.08846,-9.46611 2.18833,-2.18833 -1.58816,-2.5697 -1.58816,-2.56968 -2.18833,2.18832 -2.18832,2.18833 1.58815,2.5697 1.58816,2.56968 2.18833,-2.18832 z m 26.86011,14.93693 -5.1582,0 -3.4388,-3.4388 -3.43881,-3.43881 0,-5.971 0,-5.97101 2.626,-2.626 2.62599,-2.62599 7.09233,0 7.09235,0 1.36989,2.21653 1.3699,2.21654 -6.92201,-0.57529 -6.92199,-0.57529 -3.23247,4.76334 -3.23247,4.76333 4.58722,4.58722 4.58722,4.58722 4.87358,-2.68985 4.87358,-2.68983 -3.82957,-0.80327 -3.82958,-0.80327 0,-2.02786 0,-2.02788 5.47082,0 5.47082,0 0,3.12618 c 0,1.71942 -1.54745,4.67366 -3.4388,6.56499 l -3.4388,3.4388 -5.1582,0 z" id="path4297" inkscape:connector-curvature="0"/>
    <path style="fill:none;stroke:#000000;stroke-width:1.96758187;stroke-opacity:1" d="m 136.2458,980.94141 -4.68373,-0.0506 -5.44617,-3.15325 -5.44617,-3.15325 -2.19147,-4.48882 -2.19148,-4.48885 0.008,-135.34288 0.008,-135.34291 3.97573,-6.08533 3.97573,-6.08533 6.09904,-2.94349 6.09903,-2.94349 25.76133,0 25.76132,0 7.01682,3.10753 7.01682,3.10751 2.96534,5.35171 2.96534,5.35171 0,30.55108 0,30.5511 -4.87001,-2.97803 -4.86998,-2.97803 -12.74868,-17.05484 c -7.01177,-9.38015 -13.03899,-16.78388 -13.39385,-16.45272 -0.35483,0.33116 3.51499,10.89308 8.59959,23.47089 l 9.24474,22.86878 21.47948,16.95181 c 11.81371,9.32349 23.20445,18.99172 25.31275,21.48495 l 3.83324,4.53315 0,5.18973 0,5.18973 -4.22124,5.00835 -4.22123,5.00835 -7.96427,0 -7.96427,0 -27.40748,-21.97548 -27.40749,-21.97549 -9.20275,-22.21822 c -5.06149,-12.22003 -10.18324,-24.6891 -11.38161,-27.70906 -1.19838,-3.01996 -2.49525,-5.15836 -2.88194,-4.75201 -0.38669,0.40636 0.96711,13.78131 3.00846,29.72213 l 3.7115,28.98331 1.63112,2.65366 c 0.8971,1.45953 12.18414,11.08413 25.08227,21.38802 12.89812,10.3039 26.46308,21.06777 30.14435,23.91971 l 6.69321,5.18534 -0.15316,64.88178 -0.15316,64.88177 -2.04687,3.56939 -2.04685,3.56938 -6.29716,3.03911 -6.29718,3.0391 -6.55529,-1.14773 -6.55532,-1.14772 -4.90832,-4.87378 -4.90834,-4.87377 -1.01834,-76.35653 -1.01836,-76.35653 -4.07341,0.002 -4.07341,0.002 -0.49139,75.07966 -0.4914,75.07968 -2.49165,4.43897 -2.49164,4.43898 -5.57181,2.68903 -5.57182,2.68949 -4.68372,-0.0506 z m 340.42831,-0.87284 -7.01899,0.85947 -4.46386,-1.76658 -4.46386,-1.76659 -3.1231,-4.44842 -3.12311,-4.44844 -0.15336,-65.00056 -0.15357,-65.00056 30.14417,-24.01669 c 16.57931,-13.20918 30.8782,-25.20072 31.77531,-26.64786 l 1.63111,-2.63117 3.71151,-28.98332 c 2.04135,-15.94081 3.39515,-29.31577 3.00846,-29.72212 -0.38667,-0.40636 -1.68356,1.73205 -2.88193,4.75201 -1.19839,3.01997 -6.30809,15.46018 -11.3549,27.64494 l -9.17603,22.15411 -27.46739,22.03961 -27.46741,22.0396 -7.72386,0 -7.72388,0 -4.56523,-4.53521 -4.56524,-4.53523 0.64599,-7.28032 0.64596,-7.28035 24.44046,-19.64033 24.44046,-19.64035 9.63614,-23.0695 c 5.29988,-12.68823 9.33308,-23.35234 8.96266,-23.69804 -0.3704,-0.34569 -6.41036,7.04615 -13.42213,16.4263 l -12.74867,17.05484 -4.87001,2.97803 -4.86998,2.97803 0,-30.5511 0,-30.55109 2.96534,-5.35169 2.96533,-5.35172 7.01682,-3.10751 7.01682,-3.10753 25.76133,0 25.76132,0 6.09903,2.94349 6.09906,2.94349 3.97571,6.08533 3.97573,6.08533 0.008,135.34291 0.008,135.34288 -2.31891,4.74987 -2.31889,4.74984 -6.64492,2.94281 c -3.65574,1.61853 -8.15686,2.9428 -10.00352,2.9428 -1.84666,0 -5.86489,-1.21007 -8.92938,-2.68904 l -5.57182,-2.68903 -2.49164,-4.43899 -2.49164,-4.43897 -0.4914,-75.07968 -0.4914,-75.07965 -4.07341,-0.002 -4.07341,-0.002 -1.01835,76.46632 -1.01835,76.46631 -5.20123,4.85205 -5.20124,4.85207 -7.019,0.85945 z M 373.18693,728.1229 l -13.51389,-0.062 -10.22611,-3.30005 c -5.62436,-1.81504 -13.12101,-5.22386 -16.65923,-7.57518 l -6.43311,-4.27514 -4.04601,-6.14358 -4.04597,-6.14362 -1.33842,-6.74188 -1.3384,-6.74192 3.41486,-7.96513 3.41489,-7.96515 7.27875,-5.9644 c 4.00331,-3.28041 10.40486,-7.18341 14.22565,-8.67331 3.8208,-1.48991 12.00133,-3.58095 18.17896,-4.64673 l 11.23204,-1.93782 16.04496,3.03419 16.04496,3.03419 10.42506,-4.93029 c 5.73379,-2.71164 10.83413,-4.5485 11.33408,-4.08192 0.49996,0.46659 -1.08331,4.67555 -3.51837,9.35322 l -4.42741,8.50484 5.35258,8.52403 5.35256,8.52405 0,8.0058 0,8.00581 -3.00165,5.41724 -3.00164,5.41723 -8.20851,6.55737 -8.20849,6.55733 -10.40915,3.13745 -10.40913,3.13747 -13.51386,-0.0621 z M 162.11265,663.35054 c -1.12019,-0.10226 -5.55288,-1.05527 -9.85042,-2.11789 l -7.81372,-1.93204 -6.86999,-6.41157 -6.86997,-6.41158 -2.28496,-7.91944 -2.28494,-7.91942 1.35518,-6.82537 1.35521,-6.82535 4.00506,-6.0818 4.00505,-6.08181 6.51664,-3.69237 c 3.58414,-2.0308 9.4186,-4.26457 12.96549,-4.96391 l 6.44886,-1.27155 8.22464,2.06688 8.22465,2.0669 6.27588,4.92844 c 3.45172,2.71064 7.61772,7.35015 9.25778,10.31004 l 2.9819,5.3816 0,9.69281 0,9.69281 -2.9819,5.3816 c -1.64006,2.95989 -5.79284,7.58903 -9.22844,10.287 l -6.24651,4.90537 -7.5744,1.96324 c -4.1659,1.0798 -8.4909,1.87963 -9.61109,1.77741 z m 341.1481,-0.92218 -7.12847,1.08643 -7.83075,-2.66776 -7.83074,-2.66778 -5.09219,-4.43885 c -2.80069,-2.44136 -6.37986,-6.7486 -7.9537,-9.57166 l -2.86155,-5.13282 0,-10.26773 0,-10.26771 4.63106,-6.41348 4.63104,-6.41349 6.52212,-4.10196 6.5221,-4.10197 7.147,-1.25132 7.14702,-1.25134 8.19151,2.05858 8.19152,2.05856 7.03155,6.56234 7.03151,6.56236 2.28496,7.91944 2.28495,7.91944 -1.32114,6.82535 -1.32112,6.82535 -4.77306,6.83094 -4.77306,6.83096 -6.80105,2.99085 c -3.74057,1.64495 -10.00885,3.47972 -13.92951,4.07727 z m -262.70155,-27.38284 -2.13872,0 5.10581,-9.40352 5.10582,-9.40353 -2.22852,-1.2854 c -1.22569,-0.70697 -3.946,-4.81518 -6.04515,-9.12932 l -3.8166,-7.84392 -0.0448,-6.48581 -0.0448,-6.48581 4.97292,-7.91944 4.9729,-7.91942 8.29834,-5.12516 8.29833,-5.12514 12.66545,-3.02822 12.66547,-3.02823 12.25152,1.17376 12.25151,1.17377 12.44323,5.69084 12.44321,5.69082 5.55179,7.47668 5.5518,7.47668 1.09391,7.61159 1.09392,7.61157 -4.52422,8.72219 -4.52421,8.72219 -8.5118,5.4655 -8.51178,5.46549 -11.00517,3.05012 -11.00517,3.05012 -9.44421,0 -9.4442,0 -10.4977,-2.90947 -10.49771,-2.90947 -10.17128,4.81027 c -5.59423,2.64565 -11.13374,4.81027 -12.31003,4.81027 z" id="path4299" inkscape:connector-curvature="0"/>
    <text xml:space="preserve" style="font-style:normal;font-variant:normal;font-weight:500;font-stretch:normal;font-size:40px;line-height:125%;font-family:Futura;-inkscape-font-specification:'Futura Medium';letter-spacing:0px;word-spacing:0px;fill:#000000;fill-opacity:1;stroke:none;stroke-width:1px;stroke-linecap:butt;stroke-linejoin:miter;stroke-opacity:1" x="-745.49255" y="349.29602" id="text4382" sodipodi:linespacing="125%"><tspan sodipodi:role="line" x="-745.49255" y="349.29602" id="tspan4400"/></text>
    <path style="fill:none;stroke:#000000;stroke-opacity:1" d="m 828.65144,984.5248 c -4.39968,0.61799 -8.89937,0.80311 -9.99929,0.41139 -1.09992,-0.39168 -4.40532,-1.24061 -7.34533,-1.88645 l -5.34548,-1.17429 -6.22554,-5.23843 c -3.42405,-2.88115 -7.41682,-7.60608 -8.87283,-10.49985 -1.45601,-2.89376 -3.20379,-7.58912 -3.88395,-10.43412 l -1.23665,-5.17274 8.73697,-1.9993 8.73698,-1.99931 2.27691,7.59965 2.27689,7.59966 4.38611,3.07213 4.3861,3.07215 7.28475,0 7.28475,0 5.19499,-4.08638 5.19498,-4.08637 1.25129,-6.66991 1.25127,-6.6699 -3.06459,-5.92626 -3.0646,-5.92626 -18.97091,-9.35314 -18.97093,-9.35316 -4.13964,-6.69806 -4.13963,-6.69807 0,-8.96752 0,-8.96753 4.49969,-6.59209 4.49968,-6.59208 6.9683,-3.70295 6.96831,-3.70295 10.40026,0 10.40027,0 4.67512,1.77747 c 2.57131,0.97761 7.57954,4.74819 11.12942,8.37909 3.54985,3.63088 6.45428,7.34525 6.45428,8.25416 0,0.9089 -3.00923,3.08756 -6.68714,4.84144 l -6.68716,3.18888 -5.2211,-5.22109 -5.22109,-5.22109 -6.82072,0 -6.8207,0 -5.26935,4.14486 -5.26934,4.14488 0,5.54445 0,5.54447 3.49975,3.10465 c 1.92487,1.70754 9.79612,5.94086 17.49169,9.40736 l 13.99194,6.30276 5.753,5.40156 5.75297,5.40154 2.75348,6.43531 2.75349,6.4353 0,6.12805 0,6.12804 -3.09524,7.40793 c -1.70238,4.07438 -5.07714,9.53058 -7.49947,12.12494 -2.42232,2.59433 -6.65407,5.87496 -9.40388,7.29029 -2.7498,1.41529 -8.59939,3.0789 -12.99908,3.69689 z m -102.39111,-1.10859 -11.60081,0.81192 -6.99951,-4.67957 -6.9995,-4.67956 -4.72322,-9.52 -4.72321,-9.52002 1.40913,-9.39672 1.40911,-9.39674 7.38631,-7.38629 7.38631,-7.38631 8.35197,-2.24896 8.35197,-2.24894 5.57455,1.29104 c 3.06599,0.71008 8.49317,3.21049 12.06041,5.5565 l 6.48587,4.26549 0.0128,2.09985 c 0.008,1.15491 -0.97734,3.09086 -2.18856,4.30207 l -2.20223,2.20222 -7.0762,-4.80204 -7.07616,-4.80203 -5.9119,0 -5.9119,0 -5.77586,3.41187 -5.77585,3.41191 -3.251,6.85095 -3.251,6.85097 1.13963,7.02272 1.13963,7.0227 4.27645,4.55208 c 2.35206,2.50365 6.8699,5.62632 10.03967,6.93927 l 5.76321,2.38722 5.2107,-1.30781 5.2107,-1.3078 4.82741,-4.82741 c 2.65507,-2.6551 4.82741,-5.76827 4.82741,-6.91819 l 0,-2.09074 -7.99943,0 -7.99943,0 0,-4.99965 0,-4.99965 13.25917,0 13.25916,0 -1.04242,9.24841 -1.04244,9.24841 -7.11545,7.11547 -7.11546,7.11544 -11.60083,0.81192 z m 24.73242,-101.53483 c -0.36527,0 -10.66915,-10.57426 -22.89748,-23.49833 l -22.23334,-23.49834 -0.10095,21.49848 -0.10095,21.49847 -4.99965,0 -4.99964,0 0.0483,-33.49762 0.0485,-33.49763 22.85864,23.9983 22.85865,23.9983 0.0914,-21.49848 0.0914,-21.49847 4.99964,0 4.99965,0 0,32.99766 c 0,18.14871 -0.29886,32.99766 -0.66415,32.99766 z m 49.66068,-93.99334 -8.99937,0 0,-58.99582 0,-58.99582 8.99937,0 8.99936,0 0.0894,23.49833 0.0894,23.49834 22.7101,-23.49834 22.7101,-23.49833 11.67023,0 11.67023,0 -26.55079,26.60555 -26.55079,26.60556 26.07862,31.38214 c 14.34325,17.26019 26.07861,31.8807 26.07861,32.49007 l 0,1.10792 -11.45322,-0.59978 -11.45322,-0.59975 -20.68588,-25.52886 -20.68586,-25.52885 -1.85851,1.14862 -1.85849,1.14859 0,24.88022 0,24.88021 -8.99936,0 z m -100.49288,-14.3599 -4.49969,0.63906 0,-32.13682 0,-32.13682 5.05043,0 5.05043,0 -0.55075,31.49777 -0.55074,31.49777 -4.49968,0.63904 z M 750.937,671.89625 c -0.39594,0 -10.70424,-10.57425 -22.90731,-23.49833 l -22.18743,-23.49834 -0.091,21.49848 -0.091,21.49848 -4.99965,0 -4.99964,0 0.0483,-33.49763 0.0485,-33.49763 22.85864,23.9983 22.85865,23.9983 0.0914,-21.49847 0.0914,-21.49848 4.99964,0 4.99965,0 0,32.99766 c 0,18.14872 -0.32395,32.99766 -0.7199,32.99766 z m 66.71522,-79.99433 -25.99816,0 0,-57.99589 0,-57.99589 8.99937,0 8.99936,0 0,49.99646 0,49.99645 16.9988,0 16.99879,0 0,7.99944 0,7.99943 -25.99816,0 z m -109.49224,-28.3589 -4.49968,0.63906 0,-27.01644 0,-27.01647 -7.49947,-0.62068 -7.49947,-0.62069 0,-3.99972 0,-3.99971 19.64744,-0.57419 19.64744,-0.57418 -0.64879,4.5739 -0.64878,4.5739 -6.44235,0.6224 -6.44234,0.62241 -0.55716,26.37568 -0.55716,26.37569 -4.49968,0.63904 z m -7.49947,-105.63161 -4.99965,0 0,-30.9978 0,-30.99781 4.99965,0 4.99965,0 0,11.99915 0,11.99915 12.99908,0 12.99907,0 0,-11.99915 0,-11.99915 4.99965,0 4.99965,0 0,30.99781 0,30.9978 -4.99965,0 -4.99965,0 0,-14.99894 0,-14.99893 -12.99907,0 -12.99908,0 0,14.99893 0,14.99894 -4.99965,0 z m 87.69771,-59.99575 -8.70331,0 0,-1.88495 c 0,-1.03673 12.25451,-28.25979 27.23225,-60.49572 14.97774,-32.23591 27.88643,-59.32532 28.68597,-60.19865 l 1.45372,-1.58788 27.31007,60.87532 c 15.02053,33.48143 27.31006,61.41905 27.31006,62.0836 l 0,1.20828 -9.11346,0 -9.11349,0 -6.18324,-13.99901 -6.18323,-13.99901 -25.54345,0 -25.54345,0 -6.45257,13.99901 -6.45257,13.99901 -8.7033,0 z m 47.24724,-45.99674 17.69485,0 -8.17986,-19.04353 -8.17983,-19.04353 -1.47367,1.54477 c -0.81052,0.84962 -5.09227,9.4192 -9.51499,19.04353 l -8.04132,17.49876 17.69482,0 z m -109.34513,1.54191 -11.60081,0.81192 -6.99951,-4.67957 -6.9995,-4.67956 -4.72322,-9.51999 -4.72321,-9.52003 1.35395,-9.02874 1.35393,-9.02874 7.369,-7.7387 7.36898,-7.73871 7.99944,-2.12972 7.99943,-2.12974 7.81441,1.78239 7.8144,1.78237 5.02466,5.02466 5.02466,5.02466 -2.46446,2.9695 -2.46445,2.96948 -7.15393,-4.85477 -7.15394,-4.8548 -5.9119,0 -5.9119,0 -5.77586,3.41187 -5.77585,3.41191 -3.251,6.85095 -3.251,6.85097 1.13963,7.02272 1.13963,7.0227 4.27645,4.55208 c 2.35206,2.50365 6.8699,5.62632 10.03967,6.93927 l 5.76321,2.38722 5.2107,-1.30781 5.2107,-1.30779 4.82741,-4.82742 c 2.65507,-2.65509 4.82741,-5.76827 4.82741,-6.91818 l 0,-2.09075 -7.99943,0 -7.99943,0 0,-4.99965 0,-4.99964 13.25917,0 13.25916,0 -1.04242,9.2484 -1.04244,9.24841 -7.11545,7.11547 -7.11546,7.11545 -11.60083,0.81191 z m -25.59982,-105.53454 -4.99965,0 0,-30.99781 0,-30.9978 4.99965,0 4.99965,0 0,30.9978 0,30.99781 -4.99965,0 z m 113.99193,-45.99675 -8.99937,0 0,-49.99645 0,-49.99646 -12.99908,0 -12.99908,0 0,-9.04551 0,-9.045521 35.49749,0.546122 35.49749,0.546105 0.61496,8.499394 0.61495,8.49941 -14.11401,0 -14.11399,0 0,49.99646 0,49.99645 -8.99936,0 z m -104.99257,-57.99589 -13.99901,0 0,-31.99773 0,-31.99774 4.99965,0 4.99965,0 0,26.99809 0,26.99809 8.99936,0 8.99936,0 0,4.99965 0,4.99964 -13.99901,0 z" id="path4642" inkscape:connector-curvature="0"/>
  </g>
</svg>