<svg xmlns="http://www.w3.org/2000/svg" version="1.1" width="400.000000" height="400.000000">
  <circle cx="200.000000" cy="200.000000" r="200.000000" stroke="black" stroke-width="1" fill="none"/>  <path d="M214.525182 399.254517 M230.161372 396.936389 L246.631768 392.944125 M263.637929 387.206236 L280.866094 379.683165 M297.993840 370.368536 L314.696947 359.289699 M330.656296 346.507563 L345.564681 332.115702 M359.133362 316.238772 L371.098238 299.030269 M381.225489 280.669655 L389.316580 261.358945 M395.212506 241.318802 L398.797197 220.784237 M400.000000 200.000000 M186.835142 0.698229 M175.247202 2.686937 L165.415524 5.792242 M157.478495 9.823691 L151.530729 14.578677 M147.621201 19.847107 L145.752384 25.416206 M145.880390 31.075360 L147.916124 36.620896 M151.727422 41.860679 L157.142123 46.618453 M163.952009 50.737803 L171.917538 54.085671 M180.773246 56.555339 L190.233720 58.068830 M200.000000 58.578644 "  style="fill:none;stroke:black;stroke-width:1;stroke-linecap:round;stroke-linejoin:round" />
  <path d="M243.017352 395.247028 M259.163659 390.715442 L275.725882 384.422656 M292.387953 376.339979 L308.827454 366.472159 M324.722501 354.857692 L339.758635 341.568410 M353.635551 326.708359 L366.073546 310.411988 M376.819518 292.841691 L385.652407 274.184749 M172.410062 1.921472 L161.011345 4.330405 M151.445640 7.792336 L143.837858 12.112194 M138.268343 17.084292 L134.771334 22.497049 M133.334434 28.137825 L133.899089 33.797751 M136.362071 39.276459 L140.577935 44.386609 M146.362386 48.958106 L153.496493 52.841932 M161.731657 55.913486 L170.795215 58.075380 M180.396572 59.259626 L190.233720 59.429154 M200.000000 58.578644 "  style="fill:none;stroke:black;stroke-width:1;stroke-linecap:round;stroke-linejoin:round" />
  <path d="M285.892320 380.613172 L301.909893 372.051401 M317.587560 361.716457 L332.606636 349.657738 M346.658146 335.957675 M145.880390 7.612047 L136.685860 11.455174 M129.509995 16.083055 L124.418472 21.287342 M121.430504 26.855416 L120.518641 32.575225 M121.609588 38.240095 L124.586014 43.653406 M129.289322 48.633025 L135.523302 53.015407 M143.058612 56.659264 L151.637967 59.448742 M160.981936 61.296015 L170.795215 62.143253 M180.773246 61.963913 L190.609033 60.763340 M200.000000 58.578644 "  style="fill:none;stroke:black;stroke-width:1;stroke-linecap:round;stroke-linejoin:round" />
  <path d="M130.143611 12.613944 M121.430504 16.853039 L114.793502 21.798737 M110.283241 27.240485 L107.903642 32.965091 M107.612047 38.761567 L109.320372 44.425906 M112.897241 49.765691 L118.171057 54.604423 M124.933944 58.785491 L132.946473 62.175690 M141.943065 64.668200 L151.637967 66.184987 M161.731657 66.678545 L171.917538 66.132962 M181.888794 64.564276 L191.345235 62.020116 M200.000000 58.578644 "  style="fill:none;stroke:black;stroke-width:1;stroke-linecap:round;stroke-linejoin:round" />
  <path d="M105.989116 24.026306 M100.000000 29.289322 L96.175582 34.963594 M94.504252 40.835853 L94.928023 46.696670 M97.344007 52.345195 L101.606869 57.593678 M107.532204 62.271692 L114.900740 66.229960 M123.463314 69.343704 L132.946473 71.515433 M143.058612 72.677136 L153.496493 72.791797 M163.952009 71.854228 L174.119055 69.891187 M183.700345 66.960784 L192.414035 63.151185 M200.000000 58.578644 "  style="fill:none;stroke:black;stroke-width:1;stroke-linecap:round;stroke-linejoin:round" />
  <path d="M90.679813 32.982196 L85.447407 38.551489 M82.412440 44.442977 L81.547575 50.443829 M82.779406 56.346696 L85.990262 61.954384 M91.020979 67.084292 L97.674560 71.572510 M105.720653 75.277499 L114.900740 78.083256 M124.933944 79.901916 L135.523302 80.675716 M146.362386 80.378293 L157.142123 79.015276 M167.557665 76.624164 L177.315162 73.273499 M186.138283 69.061340 L193.774359 64.113079 M200.000000 58.578644 "  style="fill:none;stroke:black;stroke-width:1;stroke-linecap:round;stroke-linejoin:round" />
  <path d="M75.822436 43.694220 M71.453060 49.548200 L69.307889 55.631296 M69.343704 61.731657 L71.471630 67.644545 M75.559281 73.176942 L81.433830 78.151886 M88.885953 82.412440 L97.674560 85.825203 M107.532204 88.283305 L118.171057 89.708793 M129.289322 90.054382 L140.577935 89.304514 M151.727422 87.475721 L162.434756 84.616259 M172.410062 80.805048 L181.383034 76.149919 M189.108919 70.785223 L195.373932 64.868835 M200.000000 58.578644 "  style="fill:none;stroke:black;stroke-width:1;stroke-linecap:round;stroke-linejoin:round" />
  <path d="M61.731657 56.102356 L58.326840 62.209112 M57.166293 68.448217 L58.190796 74.609361 M61.296015 80.490968 L66.334957 85.904727 M73.121343 90.679813 L81.433830 94.666717 M91.020979 97.740588 L101.606869 99.804035 M112.897241 100.789306 L124.586014 100.659810 M136.362071 99.410948 L147.916124 97.070227 M158.947547 93.696668 L169.171001 89.379503 M178.322725 84.236210 L186.166347 78.409908 M192.498093 72.066183 L197.151281 65.389409 M200.000000 58.578644 "  style="fill:none;stroke:black;stroke-width:1;stroke-linecap:round;stroke-linejoin:round" />
  <path d="M48.710180 70.113930 M46.364449 76.431693 L46.275663 82.781757 M48.368545 88.955931 L52.523351 94.756367 M58.578644 100.000000 L66.334957 104.522647 M75.559281 108.182685 L85.990262 110.864219 M97.344007 112.479684 L109.320372 112.971807 M121.609588 112.314903 L133.899089 110.515465 M145.880390 107.612047 L157.255868 103.674423 M167.745295 98.802067 L177.091987 93.121960 M185.068433 86.785794 L191.481278 79.966616 M196.175561 72.854994 L199.038105 65.654795 M200.000000 58.578644 "  style="fill:none;stroke:black;stroke-width:1;stroke-linecap:round;stroke-linejoin:round" />
  <path d="M40.550524 79.269621 M37.042199 85.605199 L35.840979 92.083029 M36.901369 98.490309 L40.132026 104.621561 M45.397909 110.283241 L52.523351 115.298077 M61.296015 119.509032 L71.471630 122.782829 M82.779406 125.012930 L94.928023 126.121933 M107.612047 126.063313 L120.518641 124.822489 M133.334434 122.417172 L145.752384 118.897011 M157.478495 114.342515 L168.238244 108.863307 M177.782573 102.595721 L185.893315 95.699810 M192.387953 88.355820 L197.123580 80.760218 M200.000000 73.121343 L200.961895 65.654795 M200.000000 58.578644 "  style="fill:none;stroke:black;stroke-width:1;stroke-linecap:round;stroke-linejoin:round" />
  <path d="M29.289322 95.880390 L26.987236 102.423601 M27.004921 109.002281 L29.280318 115.405301 M33.706078 121.430504 L40.132026 126.889232 M48.368545 131.610552 L58.190796 135.445083 M69.343704 138.268343 L81.547575 139.983545 M94.504252 140.523774 L107.903642 139.853512 M121.430504 137.969463 L134.771334 134.900665 M147.621201 130.707891 L159.690385 125.482349 M170.710678 119.343704 L180.441208 112.437472 M188.673654 104.931841 L195.236756 97.013986 M200.000000 88.885953 L202.876420 80.760218 M203.824439 72.854994 L202.848719 65.389409 M200.000000 58.578644 "  style="fill:none;stroke:black;stroke-width:1;stroke-linecap:round;stroke-linejoin:round" />
  <path d="M19.799701 113.703887 M18.774511 120.390611 L20.072732 127.003735 M23.615747 133.334434 L29.280318 139.184484 M36.901369 144.370699 L46.275663 148.729036 M57.166293 152.118266 L69.307889 154.423148 M82.412440 155.557023 L96.175582 155.463780 M110.283241 154.119142 L124.418472 151.531261 M138.268343 147.740588 L151.530729 142.819037 M163.920856 136.868451 L175.177462 130.018409 M185.068433 122.423420 L193.395804 114.259565 M200.000000 105.720653 L204.763244 97.013986 M207.612047 88.355820 L208.518722 79.966616 M207.501907 72.066183 L204.626068 64.868835 M200.000000 58.578644 "  style="fill:none;stroke:black;stroke-width:1;stroke-linecap:round;stroke-linejoin:round" />
  <path d="M12.289401 132.545623 L12.597945 139.305163 M15.224093 145.880390 L20.072732 152.065423 M27.004921 157.666587 L35.840979 162.506756 M46.364449 166.429315 L58.326840 169.301681 M71.453060 171.018283 L85.447407 171.502955 M100.000000 170.710678 L114.793502 168.628637 M129.509995 165.276572 L143.837858 160.706409 M157.478495 155.001189 L170.152770 148.273307 M181.607012 140.662104 L191.618454 132.330872 M200.000000 123.463314 L206.604196 114.259565 M211.326346 104.931841 L214.106685 95.699810 M214.931567 86.785794 L213.833653 78.409908 M210.891081 70.785223 L206.225641 64.113079 M200.000000 58.578644 "  style="fill:none;stroke:black;stroke-width:1;stroke-linecap:round;stroke-linejoin:round" />
  <path d="M7.612047 145.350257 L6.927942 152.191115 M8.611933 158.947547 L12.597945 165.407997 M18.774511 171.370169 L26.987236 176.645557 M37.042199 181.063669 L48.710180 184.475856 M61.731657 186.758652 L75.822436 187.816573 M90.679813 187.584287 L105.989116 186.028137 M121.430504 183.146961 L136.685860 178.972200 M151.445640 173.567290 L165.415524 167.026361 M178.322725 159.472245 L189.921824 151.053869 M200.000000 141.943065 L208.381546 132.330872 M214.931567 122.423420 L219.558792 112.437472 M222.217427 102.595721 L222.908013 93.121960 M221.677275 84.236210 L218.616966 76.149919 M213.861717 69.061340 L207.585965 63.151185 M200.000000 58.578644 "  style="fill:none;stroke:black;stroke-width:1;stroke-linecap:round;stroke-linejoin:round" />
  <path d="M3.117329 165.537493 M3.842944 172.410062 L6.927942 179.083712 M12.289401 185.349472 L19.799701 191.009273 M29.289322 195.880390 L40.550524 199.799537 M53.341854 202.626543 L67.393364 204.247523 M82.412440 204.577465 L98.090107 203.562194 M114.107680 201.179655 L130.143611 197.440500 M145.880390 192.387953 L161.011345 186.096969 M175.247202 178.672690 L188.322252 170.248244 M200.000000 160.981936 L210.078176 151.053869 M218.392988 140.662104 L224.822538 130.018409 M229.289322 119.343704 L231.761756 108.863307 M232.254705 98.802067 L230.828999 89.379503 M227.589938 80.805048 L222.684838 73.273499 M216.299655 66.960784 L208.654765 62.020116 M200.000000 58.578644 "  style="fill:none;stroke:black;stroke-width:1;stroke-linecap:round;stroke-linejoin:round" />
  <path d="M0.963055 186.138283 L3.117329 192.960862 M7.612047 199.469867 L14.347593 205.459576 M23.180482 210.736785 L33.926454 215.125148 M46.364449 218.469139 L60.241365 220.637568 M75.277499 221.526561 L91.172546 221.061944 M107.612047 219.200987 L124.274118 215.933449 M140.836341 211.281924 L156.982648 205.301471 M172.410062 198.078528 L186.835142 189.729145 M200.000000 180.396572 L211.677748 170.248244 M221.677275 159.472245 L229.847230 148.273307 M236.079144 136.868451 L240.309615 125.482349 M242.521505 114.342515 L242.744132 103.674423 M241.052453 93.696668 L237.565244 84.616259 M232.442335 76.624164 L225.880945 69.891187 M218.111206 64.564276 L209.390967 60.763340 M200.000000 58.578644 "  style="fill:none;stroke:black;stroke-width:1;stroke-linecap:round;stroke-linejoin:round" />
  <path d="M1.202803 206.905803 M4.787494 213.595368 L10.683420 219.857299 M18.774511 225.489779 L28.901762 230.305096 M40.866638 234.133867 L54.435319 236.828862 M69.343704 238.268343 L85.303053 238.358857 M102.006160 237.037404 L119.133906 234.272950 M136.362071 230.067244 L153.368232 224.454918 M169.838628 217.502871 L185.474818 209.308960 M200.000000 200.000000 L213.164858 189.729145 M224.752798 178.672690 L234.584476 167.026361 M242.521505 155.001189 L248.469271 142.819037 M252.378799 130.707891 L254.247616 118.897011 M254.119610 107.612047 L252.083876 97.070227 M248.272578 87.475721 L242.857877 79.015276 M236.047991 71.854228 L228.082462 66.132962 M219.226754 61.963913 L209.766280 59.429154 M200.000000 58.578644 "  style="fill:none;stroke:black;stroke-width:1;stroke-linecap:round;stroke-linejoin:round" />
  <path d="M1.202803 220.784237 M3.842944 227.589938 L8.842468 234.063786 M16.113840 239.997292 L25.524840 245.193189 M36.901369 249.469867 L50.031140 252.665473 M64.668200 254.641581 L80.538154 255.286353 M97.344007 254.517130 L114.772479 252.282385 M132.500669 248.563000 L150.202905 243.372849 M167.557665 236.758652 L184.254379 228.799125 M200.000000 219.603428 L214.525182 209.308960 M227.589938 198.078528 L238.988655 186.096969 M248.554360 173.567290 L256.162142 160.706409 M261.731657 147.740588 L265.228666 134.900665 M266.665566 122.417172 L266.100911 110.515465 M263.637929 99.410948 L259.422065 89.304514 M253.637614 80.378293 L246.503507 72.791797 M238.268343 66.678545 L229.204785 62.143253 M219.603428 59.259626 L209.766280 58.068830 M200.000000 58.578644 "  style="fill:none;stroke:black;stroke-width:1;stroke-linecap:round;stroke-linejoin:round" />
  <path d="M4.787494 241.318802 L8.842468 247.942220 M15.224093 254.119610 L23.828210 259.646047 M34.506828 264.329445 L47.071244 267.994887 M61.296015 270.488590 L76.923738 271.681411 M93.670487 271.471827 L111.231840 269.788311 M129.289322 266.591068 L147.517152 261.873077 M165.589139 255.660428 L183.185579 248.011938 M200.000000 239.018064 L215.745621 228.799125 M230.161372 217.502871 L243.017352 205.301471 M254.119610 192.387953 L263.314140 178.972200 M270.490005 165.276572 L275.581528 151.531261 M278.569496 137.969463 L279.481359 124.822489 M278.390412 112.314903 L275.413986 100.659810 M270.710678 90.054382 L264.476698 80.675716 M256.941388 72.677136 L248.362033 66.184987 M239.018064 61.296015 L229.204785 58.075380 M219.226754 56.555339 L209.390967 56.734644 M200.000000 58.578644 "  style="fill:none;stroke:black;stroke-width:1;stroke-linecap:round;stroke-linejoin:round" />
  <path d="M10.683420 261.358945 M16.113840 267.720726 L23.828210 273.524481 M33.706078 278.569496 L45.584134 282.669474 M59.259626 285.656756 L74.494613 287.386138 M91.020979 287.738210 L108.546087 286.622138 M126.758958 283.977827 L145.336837 279.777433 M163.952009 274.026162 L182.278711 266.762370 M200.000000 258.056935 L216.814421 248.011938 M232.442335 236.758652 L246.631768 224.454918 M259.163659 211.281924 L269.856389 197.440500 M278.569496 183.146961 L285.206498 168.628637 M289.716759 154.119142 L292.096358 139.853512 M292.387953 126.063313 L290.679628 112.971807 M287.102759 100.789306 L281.828943 89.708793 M275.066056 79.901916 L267.053527 71.515433 M258.056935 64.668200 L248.362033 59.448742 M238.268343 55.913486 L228.082462 54.085671 M218.111206 53.954977 L208.654765 55.477868 M200.000000 58.578644 "  style="fill:none;stroke:black;stroke-width:1;stroke-linecap:round;stroke-linejoin:round" />
  <path d="M14.347593 274.184749 M18.774511 280.669655 L25.524840 286.694834 M34.506828 292.052879 L45.584134 296.547908 M58.578644 300.000000 L73.274174 302.249289 M89.420998 303.159627 L106.741084 302.621746 M124.933944 300.555834 L143.682958 296.913489 M162.662040 291.678985 L181.542509 284.869844 M200.000000 276.536686 L217.721289 266.762370 M234.410861 255.660428 L249.797095 243.372849 M263.637929 230.067244 L275.725882 215.933449 M285.892320 201.179655 L294.010884 186.028137 M300.000000 170.710678 L303.824418 155.463780 M305.495748 140.523774 L305.071977 126.121933 M302.655993 112.479684 L298.393131 99.804035 M292.467796 88.283305 L285.099260 78.083256 M276.536686 69.343704 L267.053527 62.175690 M256.941388 56.659264 L246.503507 52.841932 M236.047991 50.737803 L225.880945 50.327446 M216.299655 51.558469 L207.585965 54.346799 M200.000000 58.578644 "  style="fill:none;stroke:black;stroke-width:1;stroke-linecap:round;stroke-linejoin:round" />
  <path d="M23.180482 292.841691 L28.901762 299.030269 M36.901369 304.649743 L47.071244 309.496533 M59.259626 313.380190 L73.274174 316.127723 M88.885953 317.587560 L105.834216 317.633051 M123.831859 316.165434 L142.571443 313.116215 M161.731657 308.448888 L180.984062 302.159975 M200.000000 294.279347 L218.457491 284.869844 M236.047991 274.026162 L252.482848 261.873077 M267.499331 248.563000 L280.866094 234.272950 M292.387953 219.200987 L301.909893 203.562194 M309.320187 187.584287 L314.552593 171.502955 M317.587560 155.557023 L318.452425 139.983545 M317.220594 125.012930 L314.009738 110.864219 M308.979021 97.740588 L302.325440 85.825203 M294.279347 75.277499 L285.099260 66.229960 M275.066056 58.785491 L264.476698 53.015407 M253.637614 48.958106 L242.857877 46.618453 M232.442335 45.967867 L222.684838 46.945134 M213.861717 49.457912 L206.225641 53.384905 M200.000000 58.578644 "  style="fill:none;stroke:black;stroke-width:1;stroke-linecap:round;stroke-linejoin:round" />
  <path d="M33.926454 310.411988 M40.866638 316.238772 L50.031140 321.390646 M61.296015 325.668466 L74.494613 328.887783 M89.420998 330.883061 L105.834216 331.511485 M123.463314 330.656296 L142.012997 328.229570 M161.169818 324.174370 L180.608749 318.466249 M200.000000 311.114047 L219.015938 302.159975 M237.337960 291.678985 L254.663163 279.777433 M270.710678 266.591068 L285.227521 252.282385 M297.993840 237.037404 L308.827454 221.061944 M317.587560 204.577465 L324.177564 187.816573 M328.546940 171.018283 L330.692111 154.423148 M330.656296 138.268343 L328.528370 122.782829 M324.440719 108.182685 L318.566170 94.666717 M311.114047 82.412440 L302.325440 71.572510 M292.467796 62.271692 L281.828943 54.604423 M270.710678 48.633025 L259.422065 44.386609 M248.272578 41.860679 L237.565244 41.017470 M227.589938 41.786983 L218.616966 44.068714 M210.891081 47.734030 L204.626068 52.629149 M200.000000 58.578644 "  style="fill:none;stroke:black;stroke-width:1;stroke-linecap:round;stroke-linejoin:round" />
  <path d="M46.364449 326.708359 L54.435319 332.115702 M64.668200 336.746486 L76.923738 340.406584 M91.020979 342.918086 L106.741084 344.123391 M123.831859 343.888868 L142.012997 342.108004 M160.981936 338.703985 L180.420185 333.631629 M200.000000 326.878657 L219.391251 318.466249 M238.268343 308.448888 L256.317042 296.913489 M273.241042 283.977827 L288.768160 269.788311 M302.655993 254.517130 L314.696947 238.358857 M324.722501 221.526561 L332.606636 204.247523 M338.268343 186.758652 L341.673160 169.301681 M342.833707 152.118266 L341.809204 135.445083 M338.703985 119.509032 L333.665043 104.522647 M326.878657 90.679813 L318.566170 78.151886 M308.979021 67.084292 L298.393131 57.593678 M287.102759 49.765691 L275.413986 43.653406 M263.637929 39.276459 L252.083876 36.620896 M241.052453 35.639732 L230.828999 36.254226 M221.677275 38.355820 L213.833653 41.808725 M207.501907 46.453070 L202.848719 52.108575 M200.000000 58.578644 "  style="fill:none;stroke:black;stroke-width:1;stroke-linecap:round;stroke-linejoin:round" />
  <path d="M53.341854 335.957675 L60.241365 341.568410 M69.343704 346.507563 L80.538154 350.573193 M93.670487 353.576732 L108.546087 355.347311 M124.933944 355.735710 L142.571443 354.617860 M161.169818 351.897804 L180.420185 347.510063 M200.000000 341.421356 L219.579815 333.631629 M238.830182 324.174370 L257.428557 313.116215 M275.066056 300.555834 L291.453913 286.622138 M306.329513 271.471827 L319.461846 255.286353 M330.656296 238.268343 L339.758635 220.637568 M346.658146 202.626543 L351.289820 184.475856 M353.635551 166.429315 L353.724337 148.729036 M351.631455 131.610552 L347.476649 115.298077 M341.421356 100.000000 L333.665043 85.904727 M324.440719 73.176942 L314.009738 61.954384 M302.655993 52.345195 L290.679628 44.425906 M278.390412 38.240095 L266.100911 33.797751 M254.119610 31.075360 L242.744132 30.016700 M232.254705 30.534333 L222.908013 32.511769 M214.931567 35.806237 L208.518722 40.252017 M203.824439 45.664258 L200.961895 51.843189 M200.000000 58.578644 "  style="fill:none;stroke:black;stroke-width:1;stroke-linecap:round;stroke-linejoin:round" />
  <path d="M67.393364 349.657738 M75.277499 354.857692 L85.303053 359.289699 M97.344007 362.756350 L111.231840 365.075151 M126.758958 366.082733 L143.682958 365.638662 M161.731657 363.628764 L180.608749 359.967894 M200.000000 354.602091 L219.579815 347.510063 M239.018064 338.703985 L257.987003 328.229570 M276.168141 316.165434 L293.258916 302.621746 M308.979021 287.738210 L323.076262 271.681411 M335.331800 254.641581 L345.564681 236.828862 M353.635551 218.469139 L359.449476 199.799537 M362.957801 181.063669 L364.159021 162.506756 M363.098631 144.370699 L359.867974 126.889232 M354.602091 110.283241 L347.476649 94.756367 M338.703985 80.490968 L328.528370 67.644545 M317.220594 56.346696 L305.071977 46.696670 M292.387953 38.761567 L279.481359 32.575225 M266.665566 28.137825 L254.247616 25.416206 M242.521505 24.344892 L231.761756 24.827816 M222.217427 26.740679 L214.106685 29.933919 M207.612047 34.236210 L202.876420 39.458415 M200.000000 45.397909 L199.038105 51.843189 M200.000000 58.578644 "  style="fill:none;stroke:black;stroke-width:1;stroke-linecap:round;stroke-linejoin:round" />
  <path d="M82.412440 361.716457 L91.172546 366.472159 M102.006160 370.368536 L114.772479 373.213227 M129.289322 374.830288 L145.336837 375.064273 M162.662040 373.783890 L180.984062 370.885148 M200.000000 366.293922 L219.391251 359.967894 M238.830182 351.897804 L257.987003 342.108004 M276.536686 330.656296 L294.165784 317.633051 M310.579002 303.159627 L325.505387 287.386138 M338.703985 270.488590 L349.968860 252.665473 M359.133362 234.133867 L366.073546 215.125148 M370.710678 195.880390 L373.012764 176.645557 M372.995079 157.666587 L370.719682 139.184484 M366.293922 121.430504 L359.867974 104.621561 M351.631455 88.955931 L341.809204 74.609361 M330.656296 61.731657 L318.452425 50.443829 M305.495748 40.835853 L292.096358 32.965091 M278.569496 26.855416 L265.228666 22.497049 M252.378799 19.847107 L240.309615 18.830867 M229.289322 19.343704 L219.558792 21.253651 M211.326346 24.404558 L204.763244 28.619743 M200.000000 33.706078 L197.123580 39.458415 M196.175561 45.664258 L197.151281 52.108575 M200.000000 58.578644 "  style="fill:none;stroke:black;stroke-width:1;stroke-linecap:round;stroke-linejoin:round" />
  <path d="M98.090107 372.051401 M107.612047 376.339979 L119.133906 379.683165 M132.500669 381.894132 L147.517152 382.803920 M163.952009 382.265382 L181.542509 380.156684 M200.000000 376.384253 L219.015938 370.885148 M238.268343 363.628764 L257.428557 354.617860 M276.168141 343.888868 L294.165784 331.511485 M311.114047 317.587560 L326.725826 302.249289 M340.740374 285.656756 L352.928756 267.994887 M363.098631 249.469867 L371.098238 230.305096 M376.819518 210.736785 L380.200299 191.009273 M381.225489 171.370169 L379.927268 152.065423 M376.384253 133.334434 L370.719682 115.405301 M363.098631 98.490309 L353.724337 82.781757 M342.833707 68.448217 L330.692111 55.631296 M317.587560 44.442977 L303.824418 34.963594 M289.716759 27.240485 L275.581528 21.287342 M261.731657 17.084292 L248.469271 14.578677 M236.079144 13.686547 L224.822538 14.294808 M214.931567 16.263987 L206.604196 19.431557 M200.000000 23.615747 L195.236756 28.619743 M192.387953 34.236210 L191.481278 40.252017 M192.498093 46.453070 L195.373932 52.629149 M200.000000 58.578644 "  style="fill:none;stroke:black;stroke-width:1;stroke-linecap:round;stroke-linejoin:round" />
  <path d="M114.107680 380.613172 L124.274118 384.422656 M136.362071 387.206236 L150.202905 388.783064 M165.589139 388.991559 L182.278711 387.693212 M200.000000 384.775907 L218.457491 380.156684 M237.337960 373.783890 L256.317042 365.638662 M275.066056 355.735710 L293.258916 344.123391 M310.579002 330.883061 L326.725826 316.127723 M341.421356 300.000000 L354.415866 282.669474 M365.493172 264.329445 L374.475160 245.193189 M381.225489 225.489779 L385.652407 205.459576 M387.710599 185.349472 L387.402055 165.407997 M384.775907 145.880390 L379.927268 127.003735 M372.995079 109.002281 L364.159021 92.083029 M353.635551 76.431693 L341.673160 62.209112 M328.546940 49.548200 L314.552593 38.551489 M300.000000 29.289322 L285.206498 21.798737 M270.490005 16.083055 L256.162142 12.112194 M242.521505 9.823691 L229.847230 9.124407 M218.392988 9.892893 L208.381546 11.982344 M200.000000 15.224093 L193.395804 19.431557 M188.673654 24.404558 L185.893315 29.933919 M185.068433 35.806237 L186.166347 41.808725 M189.108919 47.734030 L193.774359 53.384905 M200.000000 58.578644 "  style="fill:none;stroke:black;stroke-width:1;stroke-linecap:round;stroke-linejoin:round" />
  <path d="M140.836341 390.715442 L153.368232 392.944125 M167.557665 393.897644 L183.185579 393.422152 M200.000000 391.388067 L217.721289 387.693212 M236.047991 382.265382 L254.663163 375.064273 M273.241042 366.082733 L291.453913 355.347311 M308.979021 342.918086 L325.505387 328.887783 M340.740374 313.380190 L354.415866 296.547908 M366.293922 278.569496 L376.171790 259.646047 M383.886160 239.997292 L389.316580 219.857299 M392.387953 199.469867 L393.072058 179.083712 M391.388067 158.947547 L387.402055 139.305163 M381.225489 120.390611 L373.012764 102.423601 M362.957801 85.605199 L351.289820 70.113930 M338.268343 56.102356 L324.177564 43.694220 M309.320187 32.982196 L294.010884 24.026306 M278.569496 16.853039 L263.314140 11.455174 M248.554360 7.792336 L234.584476 5.792242 M221.677275 5.352635 L210.078176 6.343844 M200.000000 8.611933 L191.618454 11.982344 M185.068433 16.263987 L180.441208 21.253651 M177.782573 26.740679 L177.091987 32.511769 M178.322725 38.355820 L181.383034 44.068714 M186.138283 49.457912 L192.414035 54.346799 M200.000000 58.578644 "  style="fill:none;stroke:black;stroke-width:1;stroke-linecap:round;stroke-linejoin:round" />
  <path d="M156.982648 395.247028 M169.838628 396.936389 L184.254379 397.288332 M200.000000 396.157056 L216.814421 393.422152 M234.410861 388.991559 L252.482848 382.803920 M270.710678 374.830288 L288.768160 365.075151 M306.329513 353.576732 L323.076262 340.406584 M338.703985 325.668466 L352.928756 309.496533 M365.493172 292.052879 L376.171790 273.524481 M384.775907 254.119610 L391.157532 234.063786 M395.212506 213.595368 L396.882671 192.960862 M396.157056 172.410062 L393.072058 152.191115 M387.710599 132.545623 L380.200299 113.703887 M370.710678 95.880390 L359.449476 79.269621 M269.856389 12.613944 M254.119610 7.612047 L238.988655 4.330405 M224.752798 2.686937 L211.677748 2.570359 M200.000000 3.842944 L189.921824 6.343844 M181.607012 9.892893 L175.177462 14.294808 M170.710678 19.343704 L168.238244 24.827816 M167.745295 30.534333 L169.171001 36.254226 M172.410062 41.786983 L177.315162 46.945134 M183.700345 51.558469 L191.345235 55.477868 M200.000000 58.578644 "  style="fill:none;stroke:black;stroke-width:1;stroke-linecap:round;stroke-linejoin:round" />
  <path d="M185.474818 399.254517 M200.000000 399.036945 L215.745621 397.288332 M232.442335 393.897644 L249.797095 388.783064 M267.499331 381.894132 L285.227521 373.213227 M302.655993 362.756350 L319.461846 350.573193 M335.331800 336.746486 L349.968860 321.390646 M363.098631 304.649743 L374.475160 286.694834 M383.886160 267.720726 L391.157532 247.942220 M396.157056 227.589938 L398.797197 206.905803 M399.036945 186.138283 L396.882671 165.537493 M392.387953 145.350257 M227.589938 1.921472 L213.164858 0.698229 M200.000000 0.963055 L188.322252 2.570359 M178.322725 5.352635 L170.152770 9.124407 M163.920856 13.686547 L159.690385 18.830867 M157.478495 24.344892 L157.255868 30.016700 M158.947547 35.639732 L162.434756 41.017470 M167.557665 45.967867 L174.119055 50.327446 M181.888794 53.954977 L190.609033 56.734644 M200.000000 58.578644 "  style="fill:none;stroke:black;stroke-width:1;stroke-linecap:round;stroke-linejoin:round" />
  <path d="M185.474818 399.254517 M169.838628 396.936389 L153.368232 392.944125 M136.362071 387.206236 L119.133906 379.683165 M102.006160 370.368536 L85.303053 359.289699 M69.343704 346.507563 L54.435319 332.115702 M40.866638 316.238772 L28.901762 299.030269 M18.774511 280.669655 L10.683420 261.358945 M4.787494 241.318802 L1.202803 220.784237 M0.000000 200.000000 M213.164858 0.698229 M224.752798 2.686937 L234.584476 5.792242 M242.521505 9.823691 L248.469271 14.578677 M252.378799 19.847107 L254.247616 25.416206 M254.119610 31.075360 L252.083876 36.620896 M248.272578 41.860679 L242.857877 46.618453 M236.047991 50.737803 L228.082462 54.085671 M219.226754 56.555339 L209.766280 58.068830 M200.000000 58.578644 "  style="fill:none;stroke:black;stroke-width:1;stroke-linecap:round;stroke-linejoin:round" />
  <path d="M156.982648 395.247028 M140.836341 390.715442 L124.274118 384.422656 M107.612047 376.339979 L91.172546 366.472159 M75.277499 354.857692 L60.241365 341.568410 M46.364449 326.708359 L33.926454 310.411988 M23.180482 292.841691 L14.347593 274.184749 M227.589938 1.921472 L238.988655 4.330405 M248.554360 7.792336 L256.162142 12.112194 M261.731657 17.084292 L265.228666 22.497049 M266.665566 28.137825 L266.100911 33.797751 M263.637929 39.276459 L259.422065 44.386609 M253.637614 48.958106 L246.503507 52.841932 M238.268343 55.913486 L229.204785 58.075380 M219.603428 59.259626 L209.766280 59.429154 M200.000000 58.578644 "  style="fill:none;stroke:black;stroke-width:1;stroke-linecap:round;stroke-linejoin:round" />
  <path d="M114.107680 380.613172 L98.090107 372.051401 M82.412440 361.716457 L67.393364 349.657738 M53.341854 335.957675 M254.119610 7.612047 L263.314140 11.455174 M270.490005 16.083055 L275.581528 21.287342 M278.569496 26.855416 L279.481359 32.575225 M278.390412 38.240095 L275.413986 43.653406 M270.710678 48.633025 L264.476698 53.015407 M256.941388 56.659264 L248.362033 59.448742 M239.018064 61.296015 L229.204785 62.143253 M219.226754 61.963913 L209.390967 60.763340 M200.000000 58.578644 "  style="fill:none;stroke:black;stroke-width:1;stroke-linecap:round;stroke-linejoin:round" />
  <path d="M269.856389 12.613944 M278.569496 16.853039 L285.206498 21.798737 M289.716759 27.240485 L292.096358 32.965091 M292.387953 38.761567 L290.679628 44.425906 M287.102759 49.765691 L281.828943 54.604423 M275.066056 58.785491 L267.053527 62.175690 M258.056935 64.668200 L248.362033 66.184987 M238.268343 66.678545 L228.082462 66.132962 M218.111206 64.564276 L208.654765 62.020116 M200.000000 58.578644 "  style="fill:none;stroke:black;stroke-width:1;stroke-linecap:round;stroke-linejoin:round" />
  <path d="M294.010884 24.026306 M300.000000 29.289322 L303.824418 34.963594 M305.495748 40.835853 L305.071977 46.696670 M302.655993 52.345195 L298.393131 57.593678 M292.467796 62.271692 L285.099260 66.229960 M276.536686 69.343704 L267.053527 71.515433 M256.941388 72.677136 L246.503507 72.791797 M236.047991 71.854228 L225.880945 69.891187 M216.299655 66.960784 L207.585965 63.151185 M200.000000 58.578644 "  style="fill:none;stroke:black;stroke-width:1;stroke-linecap:round;stroke-linejoin:round" />
  <path d="M309.320187 32.982196 L314.552593 38.551489 M317.587560 44.442977 L318.452425 50.443829 M317.220594 56.346696 L314.009738 61.954384 M308.979021 67.084292 L302.325440 71.572510 M294.279347 75.277499 L285.099260 78.083256 M275.066056 79.901916 L264.476698 80.675716 M253.637614 80.378293 L242.857877 79.015276 M232.442335 76.624164 L222.684838 73.273499 M213.861717 69.061340 L206.225641 64.113079 M200.000000 58.578644 "  style="fill:none;stroke:black;stroke-width:1;stroke-linecap:round;stroke-linejoin:round" />
  <path d="M324.177564 43.694220 M328.546940 49.548200 L330.692111 55.631296 M330.656296 61.731657 L328.528370 67.644545 M324.440719 73.176942 L318.566170 78.151886 M311.114047 82.412440 L302.325440 85.825203 M292.467796 88.283305 L281.828943 89.708793 M270.710678 90.054382 L259.422065 89.304514 M248.272578 87.475721 L237.565244 84.616259 M227.589938 80.805048 L218.616966 76.149919 M210.891081 70.785223 L204.626068 64.868835 M200.000000 58.578644 "  style="fill:none;stroke:black;stroke-width:1;stroke-linecap:round;stroke-linejoin:round" />
  <path d="M338.268343 56.102356 L341.673160 62.209112 M342.833707 68.448217 L341.809204 74.609361 M338.703985 80.490968 L333.665043 85.904727 M326.878657 90.679813 L318.566170 94.666717 M308.979021 97.740588 L298.393131 99.804035 M287.102759 100.789306 L275.413986 100.659810 M263.637929 99.410948 L252.083876 97.070227 M241.052453 93.696668 L230.828999 89.379503 M221.677275 84.236210 L213.833653 78.409908 M207.501907 72.066183 L202.848719 65.389409 M200.000000 58.578644 "  style="fill:none;stroke:black;stroke-width:1;stroke-linecap:round;stroke-linejoin:round" />
  <path d="M351.289820 70.113930 M353.635551 76.431693 L353.724337 82.781757 M351.631455 88.955931 L347.476649 94.756367 M341.421356 100.000000 L333.665043 104.522647 M324.440719 108.182685 L314.009738 110.864219 M302.655993 112.479684 L290.679628 112.971807 M278.390412 112.314903 L266.100911 110.515465 M254.119610 107.612047 L242.744132 103.674423 M232.254705 98.802067 L222.908013 93.121960 M214.931567 86.785794 L208.518722 79.966616 M203.824439 72.854994 L200.961895 65.654795 M200.000000 58.578644 "  style="fill:none;stroke:black;stroke-width:1;stroke-linecap:round;stroke-linejoin:round" />
  <path d="M359.449476 79.269621 M362.957801 85.605199 L364.159021 92.083029 M363.098631 98.490309 L359.867974 104.621561 M354.602091 110.283241 L347.476649 115.298077 M338.703985 119.509032 L328.528370 122.782829 M317.220594 125.012930 L305.071977 126.121933 M292.387953 126.063313 L279.481359 124.822489 M266.665566 122.417172 L254.247616 118.897011 M242.521505 114.342515 L231.761756 108.863307 M222.217427 102.595721 L214.106685 95.699810 M207.612047 88.355820 L202.876420 80.760218 M200.000000 73.121343 L199.038105 65.654795 M200.000000 58.578644 "  style="fill:none;stroke:black;stroke-width:1;stroke-linecap:round;stroke-linejoin:round" />
  <path d="M370.710678 95.880390 L373.012764 102.423601 M372.995079 109.002281 L370.719682 115.405301 M366.293922 121.430504 L359.867974 126.889232 M351.631455 131.610552 L341.809204 135.445083 M330.656296 138.268343 L318.452425 139.983545 M305.495748 140.523774 L292.096358 139.853512 M278.569496 137.969463 L265.228666 134.900665 M252.378799 130.707891 L240.309615 125.482349 M229.289322 119.343704 L219.558792 112.437472 M211.326346 104.931841 L204.763244 97.013986 M200.000000 88.885953 L197.123580 80.760218 M196.175561 72.854994 L197.151281 65.389409 M200.000000 58.578644 "  style="fill:none;stroke:black;stroke-width:1;stroke-linecap:round;stroke-linejoin:round" />
  <path d="M380.200299 113.703887 M381.225489 120.390611 L379.927268 127.003735 M376.384253 133.334434 L370.719682 139.184484 M363.098631 144.370699 L353.724337 148.729036 M342.833707 152.118266 L330.692111 154.423148 M317.587560 155.557023 L303.824418 155.463780 M289.716759 154.119142 L275.581528 151.531261 M261.731657 147.740588 L248.469271 142.819037 M236.079144 136.868451 L224.822538 130.018409 M214.931567 122.423420 L206.604196 114.259565 M200.000000 105.720653 L195.236756 97.013986 M192.387953 88.355820 L191.481278 79.966616 M192.498093 72.066183 L195.373932 64.868835 M200.000000 58.578644 "  style="fill:none;stroke:black;stroke-width:1;stroke-linecap:round;stroke-linejoin:round" />
  <path d="M387.710599 132.545623 L387.402055 139.305163 M384.775907 145.880390 L379.927268 152.065423 M372.995079 157.666587 L364.159021 162.506756 M353.635551 166.429315 L341.673160 169.301681 M328.546940 171.018283 L314.552593 171.502955 M300.000000 170.710678 L285.206498 168.628637 M270.490005 165.276572 L256.162142 160.706409 M242.521505 155.001189 L229.847230 148.273307 M218.392988 140.662104 L208.381546 132.330872 M200.000000 123.463314 L193.395804 114.259565 M188.673654 104.931841 L185.893315 95.699810 M185.068433 86.785794 L186.166347 78.409908 M189.108919 70.785223 L193.774359 64.113079 M200.000000 58.578644 "  style="fill:none;stroke:black;stroke-width:1;stroke-linecap:round;stroke-linejoin:round" />
  <path d="M392.387953 145.350257 L393.072058 152.191115 M391.388067 158.947547 L387.402055 165.407997 M381.225489 171.370169 L373.012764 176.645557 M362.957801 181.063669 L351.289820 184.475856 M338.268343 186.758652 L324.177564 187.816573 M309.320187 187.584287 L294.010884 186.028137 M278.569496 183.146961 L263.314140 178.972200 M248.554360 173.567290 L234.584476 167.026361 M221.677275 159.472245 L210.078176 151.053869 M200.000000 141.943065 L191.618454 132.330872 M185.068433 122.423420 L180.441208 112.437472 M177.782573 102.595721 L177.091987 93.121960 M178.322725 84.236210 L181.383034 76.149919 M186.138283 69.061340 L192.414035 63.151185 M200.000000 58.578644 "  style="fill:none;stroke:black;stroke-width:1;stroke-linecap:round;stroke-linejoin:round" />
  <path d="M396.882671 165.537493 M396.157056 172.410062 L393.072058 179.083712 M387.710599 185.349472 L380.200299 191.009273 M370.710678 195.880390 L359.449476 199.799537 M346.658146 202.626543 L332.606636 204.247523 M317.587560 204.577465 L301.909893 203.562194 M285.892320 201.179655 L269.856389 197.440500 M254.119610 192.387953 L238.988655 186.096969 M224.752798 178.672690 L211.677748 170.248244 M200.000000 160.981936 L189.921824 151.053869 M181.607012 140.662104 L175.177462 130.018409 M170.710678 119.343704 L168.238244 108.863307 M167.745295 98.802067 L169.171001 89.379503 M172.410062 80.805048 L177.315162 73.273499 M183.700345 66.960784 L191.345235 62.020116 M200.000000 58.578644 "  style="fill:none;stroke:black;stroke-width:1;stroke-linecap:round;stroke-linejoin:round" />
  <path d="M399.036945 186.138283 L396.882671 192.960862 M392.387953 199.469867 L385.652407 205.459576 M376.819518 210.736785 L366.073546 215.125148 M353.635551 218.469139 L339.758635 220.637568 M324.722501 221.526561 L308.827454 221.061944 M292.387953 219.200987 L275.725882 215.933449 M259.163659 211.281924 L243.017352 205.301471 M227.589938 198.078528 L213.164858 189.729145 M200.000000 180.396572 L188.322252 170.248244 M178.322725 159.472245 L170.152770 148.273307 M163.920856 136.868451 L159.690385 125.482349 M157.478495 114.342515 L157.255868 103.674423 M158.947547 93.696668 L162.434756 84.616259 M167.557665 76.624164 L174.119055 69.891187 M181.888794 64.564276 L190.609033 60.763340 M200.000000 58.578644 "  style="fill:none;stroke:black;stroke-width:1;stroke-linecap:round;stroke-linejoin:round" />
  <path d="M398.797197 206.905803 M395.212506 213.595368 L389.316580 219.857299 M381.225489 225.489779 L371.098238 230.305096 M359.133362 234.133867 L345.564681 236.828862 M330.656296 238.268343 L314.696947 238.358857 M297.993840 237.037404 L280.866094 234.272950 M263.637929 230.067244 L246.631768 224.454918 M230.161372 217.502871 L214.525182 209.308960 M200.000000 200.000000 L186.835142 189.729145 M175.247202 178.672690 L165.415524 167.026361 M157.478495 155.001189 L151.530729 142.819037 M147.621201 130.707891 L145.752384 118.897011 M145.880390 107.612047 L147.916124 97.070227 M151.727422 87.475721 L157.142123 79.015276 M163.952009 71.854228 L171.917538 66.132962 M180.773246 61.963913 L190.233720 59.429154 M200.000000 58.578644 "  style="fill:none;stroke:black;stroke-width:1;stroke-linecap:round;stroke-linejoin:round" />
  <path d="M398.797197 220.784237 M396.157056 227.589938 L391.157532 234.063786 M383.886160 239.997292 L374.475160 245.193189 M363.098631 249.469867 L349.968860 252.665473 M335.331800 254.641581 L319.461846 255.286353 M302.655993 254.517130 L285.227521 252.282385 M267.499331 248.563000 L249.797095 243.372849 M232.442335 236.758652 L215.745621 228.799125 M200.000000 219.603428 L185.474818 209.308960 M172.410062 198.078528 L161.011345 186.096969 M151.445640 173.567290 L143.837858 160.706409 M138.268343 147.740588 L134.771334 134.900665 M133.334434 122.417172 L133.899089 110.515465 M136.362071 99.410948 L140.577935 89.304514 M146.362386 80.378293 L153.496493 72.791797 M161.731657 66.678545 L170.795215 62.143253 M180.396572 59.259626 L190.233720 58.068830 M200.000000 58.578644 "  style="fill:none;stroke:black;stroke-width:1;stroke-linecap:round;stroke-linejoin:round" />
  <path d="M395.212506 241.318802 L391.157532 247.942220 M384.775907 254.119610 L376.171790 259.646047 M365.493172 264.329445 L352.928756 267.994887 M338.703985 270.488590 L323.076262 271.681411 M306.329513 271.471827 L288.768160 269.788311 M270.710678 266.591068 L252.482848 261.873077 M234.410861 255.660428 L216.814421 248.011938 M200.000000 239.018064 L184.254379 228.799125 M169.838628 217.502871 L156.982648 205.301471 M145.880390 192.387953 L136.685860 178.972200 M129.509995 165.276572 L124.418472 151.531261 M121.430504 137.969463 L120.518641 124.822489 M121.609588 112.314903 L124.586014 100.659810 M129.289322 90.054382 L135.523302 80.675716 M143.058612 72.677136 L151.637967 66.184987 M160.981936 61.296015 L170.795215 58.075380 M180.773246 56.555339 L190.609033 56.734644 M200.000000 58.578644 "  style="fill:none;stroke:black;stroke-width:1;stroke-linecap:round;stroke-linejoin:round" />
  <path d="M389.316580 261.358945 M383.886160 267.720726 L376.171790 273.524481 M366.293922 278.569496 L354.415866 282.669474 M340.740374 285.656756 L325.505387 287.386138 M308.979021 287.738210 L291.453913 286.622138 M273.241042 283.977827 L254.663163 279.777433 M236.047991 274.026162 L217.721289 266.762370 M200.000000 258.056935 L183.185579 248.011938 M167.557665 236.758652 L153.368232 224.454918 M140.836341 211.281924 L130.143611 197.440500 M121.430504 183.146961 L114.793502 168.628637 M110.283241 154.119142 L107.903642 139.853512 M107.612047 126.063313 L109.320372 112.971807 M112.897241 100.789306 L118.171057 89.708793 M124.933944 79.901916 L132.946473 71.515433 M141.943065 64.668200 L151.637967 59.448742 M161.731657 55.913486 L171.917538 54.085671 M181.888794 53.954977 L191.345235 55.477868 M200.000000 58.578644 "  style="fill:none;stroke:black;stroke-width:1;stroke-linecap:round;stroke-linejoin:round" />
  <path d="M385.652407 274.184749 M381.225489 280.669655 L374.475160 286.694834 M365.493172 292.052879 L354.415866 296.547908 M341.421356 300.000000 L326.725826 302.249289 M310.579002 303.159627 L293.258916 302.621746 M275.066056 300.555834 L256.317042 296.913489 M237.337960 291.678985 L218.457491 284.869844 M200.000000 276.536686 L182.278711 266.762370 M165.589139 255.660428 L150.202905 243.372849 M136.362071 230.067244 L124.274118 215.933449 M114.107680 201.179655 L105.989116 186.028137 M100.000000 170.710678 L96.175582 155.463780 M94.504252 140.523774 L94.928023 126.121933 M97.344007 112.479684 L101.606869 99.804035 M107.532204 88.283305 L114.900740 78.083256 M123.463314 69.343704 L132.946473 62.175690 M143.058612 56.659264 L153.496493 52.841932 M163.952009 50.737803 L174.119055 50.327446 M183.700345 51.558469 L192.414035 54.346799 M200.000000 58.578644 "  style="fill:none;stroke:black;stroke-width:1;stroke-linecap:round;stroke-linejoin:round" />
  <path d="M376.819518 292.841691 L371.098238 299.030269 M363.098631 304.649743 L352.928756 309.496533 M340.740374 313.380190 L326.725826 316.127723 M311.114047 317.587560 L294.165784 317.633051 M276.168141 316.165434 L257.428557 313.116215 M238.268343 308.448888 L219.015938 302.159975 M200.000000 294.279347 L181.542509 284.869844 M163.952009 274.026162 L147.517152 261.873077 M132.500669 248.563000 L119.133906 234.272950 M107.612047 219.200987 L98.090107 203.562194 M90.679813 187.584287 L85.447407 171.502955 M82.412440 155.557023 L81.547575 139.983545 M82.779406 125.012930 L85.990262 110.864219 M91.020979 97.740588 L97.674560 85.825203 M105.720653 75.277499 L114.900740 66.229960 M124.933944 58.785491 L135.523302 53.015407 M146.362386 48.958106 L157.142123 46.618453 M167.557665 45.967867 L177.315162 46.945134 M186.138283 49.457912 L193.774359 53.384905 M200.000000 58.578644 "  style="fill:none;stroke:black;stroke-width:1;stroke-linecap:round;stroke-linejoin:round" />
  <path d="M366.073546 310.411988 M359.133362 316.238772 L349.968860 321.390646 M338.703985 325.668466 L325.505387 328.887783 M310.579002 330.883061 L294.165784 331.511485 M276.536686 330.656296 L257.987003 328.229570 M238.830182 324.174370 L219.391251 318.466249 M200.000000 311.114047 L180.984062 302.159975 M162.662040 291.678985 L145.336837 279.777433 M129.289322 266.591068 L114.772479 252.282385 M102.006160 237.037404 L91.172546 221.061944 M82.412440 204.577465 L75.822436 187.816573 M71.453060 171.018283 L69.307889 154.423148 M69.343704 138.268343 L71.471630 122.782829 M75.559281 108.182685 L81.433830 94.666717 M88.885953 82.412440 L97.674560 71.572510 M107.532204 62.271692 L118.171057 54.604423 M129.289322 48.633025 L140.577935 44.386609 M151.727422 41.860679 L162.434756 41.017470 M172.410062 41.786983 L181.383034 44.068714 M189.108919 47.734030 L195.373932 52.629149 M200.000000 58.578644 "  style="fill:none;stroke:black;stroke-width:1;stroke-linecap:round;stroke-linejoin:round" />
  <path d="M353.635551 326.708359 L345.564681 332.115702 M335.331800 336.746486 L323.076262 340.406584 M308.979021 342.918086 L293.258916 344.123391 M276.168141 343.888868 L257.987003 342.108004 M239.018064 338.703985 L219.579815 333.631629 M200.000000 326.878657 L180.608749 318.466249 M161.731657 308.448888 L143.682958 296.913489 M126.758958 283.977827 L111.231840 269.788311 M97.344007 254.517130 L85.303053 238.358857 M75.277499 221.526561 L67.393364 204.247523 M61.731657 186.758652 L58.326840 169.301681 M57.166293 152.118266 L58.190796 135.445083 M61.296015 119.509032 L66.334957 104.522647 M73.121343 90.679813 L81.433830 78.151886 M91.020979 67.084292 L101.606869 57.593678 M112.897241 49.765691 L124.586014 43.653406 M136.362071 39.276459 L147.916124 36.620896 M158.947547 35.639732 L169.171001 36.254226 M178.322725 38.355820 L186.166347 41.808725 M192.498093 46.453070 L197.151281 52.108575 M200.000000 58.578644 "  style="fill:none;stroke:black;stroke-width:1;stroke-linecap:round;stroke-linejoin:round" />
  <path d="M346.658146 335.957675 L339.758635 341.568410 M330.656296 346.507563 L319.461846 350.573193 M306.329513 353.576732 L291.453913 355.347311 M275.066056 355.735710 L257.428557 354.617860 M238.830182 351.897804 L219.579815 347.510063 M200.000000 341.421356 L180.420185 333.631629 M161.169818 324.174370 L142.571443 313.116215 M124.933944 300.555834 L108.546087 286.622138 M93.670487 271.471827 L80.538154 255.286353 M69.343704 238.268343 L60.241365 220.637568 M53.341854 202.626543 L48.710180 184.475856 M46.364449 166.429315 L46.275663 148.729036 M48.368545 131.610552 L52.523351 115.298077 M58.578644 100.000000 L66.334957 85.904727 M75.559281 73.176942 L85.990262 61.954384 M97.344007 52.345195 L109.320372 44.425906 M121.609588 38.240095 L133.899089 33.797751 M145.880390 31.075360 L157.255868 30.016700 M167.745295 30.534333 L177.091987 32.511769 M185.068433 35.806237 L191.481278 40.252017 M196.175561 45.664258 L199.038105 51.843189 M200.000000 58.578644 "  style="fill:none;stroke:black;stroke-width:1;stroke-linecap:round;stroke-linejoin:round" />
  <path d="M332.606636 349.657738 M324.722501 354.857692 L314.696947 359.289699 M302.655993 362.756350 L288.768160 365.075151 M273.241042 366.082733 L256.317042 365.638662 M238.268343 363.628764 L219.391251 359.967894 M200.000000 354.602091 L180.420185 347.510063 M160.981936 338.703985 L142.012997 328.229570 M123.831859 316.165434 L106.741084 302.621746 M91.020979 287.738210 L76.923738 271.681411 M64.668200 254.641581 L54.435319 236.828862 M46.364449 218.469139 L40.550524 199.799537 M37.042199 181.063669 L35.840979 162.506756 M36.901369 144.370699 L40.132026 126.889232 M45.397909 110.283241 L52.523351 94.756367 M61.296015 80.490968 L71.471630 67.644545 M82.779406 56.346696 L94.928023 46.696670 M107.612047 38.761567 L120.518641 32.575225 M133.334434 28.137825 L145.752384 25.416206 M157.478495 24.344892 L168.238244 24.827816 M177.782573 26.740679 L185.893315 29.933919 M192.387953 34.236210 L197.123580 39.458415 M200.000000 45.397909 L200.961895 51.843189 M200.000000 58.578644 "  style="fill:none;stroke:black;stroke-width:1;stroke-linecap:round;stroke-linejoin:round" />
  <path d="M317.587560 361.716457 L308.827454 366.472159 M297.993840 370.368536 L285.227521 373.213227 M270.710678 374.830288 L254.663163 375.064273 M237.337960 373.783890 L219.015938 370.885148 M200.000000 366.293922 L180.608749 359.967894 M161.169818 351.897804 L142.012997 342.108004 M123.463314 330.656296 L105.834216 317.633051 M89.420998 303.159627 L74.494613 287.386138 M61.296015 270.488590 L50.031140 252.665473 M40.866638 234.133867 L33.926454 215.125148 M29.289322 195.880390 L26.987236 176.645557 M27.004921 157.666587 L29.280318 139.184484 M33.706078 121.430504 L40.132026 104.621561 M48.368545 88.955931 L58.190796 74.609361 M69.343704 61.731657 L81.547575 50.443829 M94.504252 40.835853 L107.903642 32.965091 M121.430504 26.855416 L134.771334 22.497049 M147.621201 19.847107 L159.690385 18.830867 M170.710678 19.343704 L180.441208 21.253651 M188.673654 24.404558 L195.236756 28.619743 M200.000000 33.706078 L202.876420 39.458415 M203.824439 45.664258 L202.848719 52.108575 M200.000000 58.578644 "  style="fill:none;stroke:black;stroke-width:1;stroke-linecap:round;stroke-linejoin:round" />
  <path d="M301.909893 372.051401 M292.387953 376.339979 L280.866094 379.683165 M267.499331 381.894132 L252.482848 382.803920 M236.047991 382.265382 L218.457491 380.156684 M200.000000 376.384253 L180.984062 370.885148 M161.731657 363.628764 L142.571443 354.617860 M123.831859 343.888868 L105.834216 331.511485 M88.885953 317.587560 L73.274174 302.249289 M59.259626 285.656756 L47.071244 267.994887 M36.901369 249.469867 L28.901762 230.305096 M23.180482 210.736785 L19.799701 191.009273 M18.774511 171.370169 L20.072732 152.065423 M23.615747 133.334434 L29.280318 115.405301 M36.901369 98.490309 L46.275663 82.781757 M57.166293 68.448217 L69.307889 55.631296 M82.412440 44.442977 L96.175582 34.963594 M110.283241 27.240485 L124.418472 21.287342 M138.268343 17.084292 L151.530729 14.578677 M163.920856 13.686547 L175.177462 14.294808 M185.068433 16.263987 L193.395804 19.431557 M200.000000 23.615747 L204.763244 28.619743 M207.612047 34.236210 L208.518722 40.252017 M207.501907 46.453070 L204.626068 52.629149 M200.000000 58.578644 "  style="fill:none;stroke:black;stroke-width:1;stroke-linecap:round;stroke-linejoin:round" />
  <path d="M285.892320 380.613172 L275.725882 384.422656 M263.637929 387.206236 L249.797095 388.783064 M234.410861 388.991559 L217.721289 387.693212 M200.000000 384.775907 L181.542509 380.156684 M162.662040 373.783890 L143.682958 365.638662 M124.933944 355.735710 L106.741084 344.123391 M89.420998 330.883061 L73.274174 316.127723 M58.578644 300.000000 L45.584134 282.669474 M34.506828 264.329445 L25.524840 245.193189 M18.774511 225.489779 L14.347593 205.459576 M12.289401 185.349472 L12.597945 165.407997 M15.224093 145.880390 L20.072732 127.003735 M27.004921 109.002281 L35.840979 92.083029 M46.364449 76.431693 L58.326840 62.209112 M71.453060 49.548200 L85.447407 38.551489 M100.000000 29.289322 L114.793502 21.798737 M129.509995 16.083055 L143.837858 12.112194 M157.478495 9.823691 L170.152770 9.124407 M181.607012 9.892893 L191.618454 11.982344 M200.000000 15.224093 L206.604196 19.431557 M211.326346 24.404558 L214.106685 29.933919 M214.931567 35.806237 L213.833653 41.808725 M210.891081 47.734030 L206.225641 53.384905 M200.000000 58.578644 "  style="fill:none;stroke:black;stroke-width:1;stroke-linecap:round;stroke-linejoin:round" />
  <path d="M259.163659 390.715442 L246.631768 392.944125 M232.442335 393.897644 L216.814421 393.422152 M200.000000 391.388067 L182.278711 387.693212 M163.952009 382.265382 L145.336837 375.064273 M126.758958 366.082733 L108.546087 355.347311 M91.020979 342.918086 L74.494613 328.887783 M59.259626 313.380190 L45.584134 296.547908 M33.706078 278.569496 L23.828210 259.646047 M16.113840 239.997292 L10.683420 219.857299 M7.612047 199.469867 L6.927942 179.083712 M8.611933 158.947547 L12.597945 139.305163 M18.774511 120.390611 L26.987236 102.423601 M37.042199 85.605199 L48.710180 70.113930 M61.731657 56.102356 L75.822436 43.694220 M90.679813 32.982196 L105.989116 24.026306 M121.430504 16.853039 L136.685860 11.455174 M151.445640 7.792336 L165.415524 5.792242 M178.322725 5.352635 L189.921824 6.343844 M200.000000 8.611933 L208.381546 11.982344 M214.931567 16.263987 L219.558792 21.253651 M222.217427 26.740679 L222.908013 32.511769 M221.677275 38.355820 L218.616966 44.068714 M213.861717 49.457912 L207.585965 54.346799 M200.000000 58.578644 "  style="fill:none;stroke:black;stroke-width:1;stroke-linecap:round;stroke-linejoin:round" />
  <path d="M243.017352 395.247028 M230.161372 396.936389 L215.745621 397.288332 M200.000000 396.157056 L183.185579 393.422152 M165.589139 388.991559 L147.517152 382.803920 M129.289322 374.830288 L111.231840 365.075151 M93.670487 353.576732 L76.923738 340.406584 M61.296015 325.668466 L47.071244 309.496533 M34.506828 292.052879 L23.828210 273.524481 M15.224093 254.119610 L8.842468 234.063786 M4.787494 213.595368 L3.117329 192.960862 M3.842944 172.410062 L6.927942 152.191115 M12.289401 132.545623 L19.799701 113.703887 M29.289322 95.880390 L40.550524 79.269621 M130.143611 12.613944 M145.880390 7.612047 L161.011345 4.330405 M175.247202 2.686937 L188.322252 2.570359 M200.000000 3.842944 L210.078176 6.343844 M218.392988 9.892893 L224.822538 14.294808 M229.289322 19.343704 L231.761756 24.827816 M232.254705 30.534333 L230.828999 36.254226 M227.589938 41.786983 L222.684838 46.945134 M216.299655 51.558469 L208.654765 55.477868 M200.000000 58.578644 "  style="fill:none;stroke:black;stroke-width:1;stroke-linecap:round;stroke-linejoin:round" />
  <path d="M214.525182 399.254517 M200.000000 399.036945 L184.254379 397.288332 M167.557665 393.897644 L150.202905 388.783064 M132.500669 381.894132 L114.772479 373.213227 M97.344007 362.756350 L80.538154 350.573193 M64.668200 336.746486 L50.031140 321.390646 M36.901369 304.649743 L25.524840 286.694834 M16.113840 267.720726 L8.842468 247.942220 M3.842944 227.589938 L1.202803 206.905803 M0.963055 186.138283 L3.117329 165.537493 M7.612047 145.350257 M172.410062 1.921472 L186.835142 0.698229 M200.000000 0.963055 L211.677748 2.570359 M221.677275 5.352635 L229.847230 9.124407 M236.079144 13.686547 L240.309615 18.830867 M242.521505 24.344892 L242.744132 30.016700 M241.052453 35.639732 L237.565244 41.017470 M232.442335 45.967867 L225.880945 50.327446 M218.111206 53.954977 L209.390967 56.734644 M200.000000 58.578644 "  style="fill:none;stroke:black;stroke-width:1;stroke-linecap:round;stroke-linejoin:round" />
</svg>
