<?xml version="1.0" encoding="UTF-8" standalone="no"?>
<!-- Created with Inkscape (http://www.inkscape.org/) -->

<svg
   xmlns:dc="http://purl.org/dc/elements/1.1/"
   xmlns:cc="http://creativecommons.org/ns#"
   xmlns:rdf="http://www.w3.org/1999/02/22-rdf-syntax-ns#"
   xmlns:svg="http://www.w3.org/2000/svg"
   xmlns="http://www.w3.org/2000/svg"
   xmlns:sodipodi="http://sodipodi.sourceforge.net/DTD/sodipodi-0.dtd"
   xmlns:inkscape="http://www.inkscape.org/namespaces/inkscape"
   width="998.00031"
   height="859.73169"
   id="svg2"
   version="1.1"
   inkscape:version="0.48.4 r9939"
   sodipodi:docname="ghostb-shade.svg">
  <sodipodi:namedview
     id="base"
     pagecolor="#ffffff"
     bordercolor="#666666"
     borderopacity="1.0"
     inkscape:pageopacity="0.0"
     inkscape:pageshadow="2"
     inkscape:zoom="1"
     inkscape:cx="591.29782"
     inkscape:cy="337.37337"
     inkscape:document-units="px"
     inkscape:current-layer="g4463"
     showgrid="false"
     inkscape:window-width="1855"
     inkscape:window-height="1056"
     inkscape:window-x="65"
     inkscape:window-y="24"
     inkscape:window-maximized="1"
     fit-margin-top="0"
     fit-margin-left="0"
     fit-margin-right="0"
     fit-margin-bottom="0">
    <inkscape:grid
       type="xygrid"
       id="grid4347"
       empspacing="5"
       visible="true"
       enabled="true"
       snapvisiblegridlinesonly="true"
       originx="9.094947e-13px"
       originy="8.7900464e-06px" />
  </sodipodi:namedview>
  <title
     id="title4349">Ghostbusters</title>
  <defs
     id="defs4" />
  <metadata
     id="metadata7">
    <rdf:RDF>
      <cc:Work
         rdf:about="">
        <dc:format>image/svg+xml</dc:format>
        <dc:type
           rdf:resource="http://purl.org/dc/dcmitype/StillImage" />
        <dc:title>Ghostbusters</dc:title>
        <cc:license
           rdf:resource="http://creativecommons.org/licenses/publicdomain/" />
        <dc:date>2013-12-28</dc:date>
        <dc:creator>
          <cc:Agent>
            <dc:title>Sven Arvidsson</dc:title>
          </cc:Agent>
        </dc:creator>
        <dc:description>Ghostbusters logo</dc:description>
      </cc:Work>
      <cc:License
         rdf:about="http://creativecommons.org/licenses/publicdomain/">
        <cc:permits
           rdf:resource="http://creativecommons.org/ns#Reproduction" />
        <cc:permits
           rdf:resource="http://creativecommons.org/ns#Distribution" />
        <cc:permits
           rdf:resource="http://creativecommons.org/ns#DerivativeWorks" />
      </cc:License>
    </rdf:RDF>
  </metadata>
  <g
     inkscape:groupmode="layer"
     id="layer6"
     inkscape:label="Background"
     style="display:inline" />
  <g
     inkscape:groupmode="layer"
     id="layer5"
     inkscape:label="Shadow"
     style="display:inline"
     transform="translate(2674.0261,279.85253)" />
  <g
     inkscape:groupmode="layer"
     id="layer4"
     inkscape:label="Sign"
     style="display:inline"
     transform="translate(2674.0261,279.85253)" />
  <g
     inkscape:groupmode="layer"
     id="layer3"
     inkscape:label="Ghost"
     style="display:inline"
     transform="translate(2674.0261,279.85253)">
    <g
       id="g4631"
       style="fill:none;stroke:#000000;stroke-opacity:1;stroke-width:2;stroke-miterlimit:4;stroke-dasharray:none">
      <g
         id="g4463"
         style="fill:none;stroke:#000000;stroke-opacity:1;stroke-width:2;stroke-miterlimit:4;stroke-dasharray:none">
        <g
           style="display:inline;fill:none;stroke:#ff0000;stroke-opacity:1;stroke-width:2;stroke-miterlimit:4;stroke-dasharray:none"
           id="g4323"
           transform="translate(576,-732)">
          <g
             id="g3826">
            <path
               inkscape:connector-curvature="0"
               id="path4219"
               d="m -2534.5312,744.1875 0.4687,0.375 18.9687,-11.9375 c -5.3386,-5.36335 -10.9104,-10.48586 -16.6874,-15.375 -5.7772,-4.88914 -11.7473,-9.55447 -17.9376,-13.9375 -6.19,-4.38303 -12.5784,-8.49871 -19.1562,-12.34375 -3.2889,-1.92252 -6.6503,-3.78046 -10.0312,-5.5625 -3.3812,-1.78204 -6.8113,-3.48742 -10.2813,-5.125 -3.47,-1.63758 -6.9753,-3.19838 -10.5313,-4.6875 -3.5558,-1.48912 -7.1427,-2.91331 -10.7812,-4.25 -3.6385,-1.33669 -7.3133,-2.60099 -11.0312,-3.78125 -3.7181,-1.18026 -7.4871,-2.2614 -11.2813,-3.28125 -3.7942,-1.01985 -7.6327,-1.95705 -11.5,-2.8125 -3.8673,-0.85545 -7.7502,-1.62543 -11.6875,-2.3125 -3.9373,-0.68707 -7.9335,-1.2978 -11.9375,-1.8125 -4.004,-0.5147 -8.0262,-0.94291 -12.0937,-1.28125 0.4404,0.67787 0.8751,1.3845 1.3124,2.0625 2.0721,3.21188 4.1133,6.44428 6,9.84375 1.8868,3.39947 3.6141,6.95143 5.125,10.84375 0.5214,1.26725 1.9931,5.99078 3.3438,10.8125 0.6754,2.41086 1.336,4.8413 1.8125,6.875 0.4765,2.0337 0.7744,3.68732 0.7813,4.5 0.086,1.79894 -0.1175,2.76761 0.1562,3.25 0.1368,0.2412 0.4047,0.367 0.875,0.40625 0.4703,0.0393 1.1614,-0.0159 2.1562,-0.0937 3.8907,-0.37868 7.6731,-0.64171 11.4063,-0.8125 3.7332,-0.17079 7.3946,-0.25982 11,-0.21875 3.6054,0.0411 7.18,0.21184 10.6875,0.46875 3.5075,0.25691 6.9668,0.61703 10.4062,1.09375 3.4395,0.47672 6.849,1.0495 10.25,1.75 3.4011,0.7005 6.795,1.54049 10.1876,2.46875 3.3925,0.92826 6.7736,1.96501 10.1874,3.125 3.4139,1.15999 6.8476,2.41681 10.3126,3.8125 2.072,0.86292 5.6668,2.49922 9.9062,4.53125 4.2394,2.03203 9.126,4.48639 13.8125,7.03125 4.6865,2.54486 9.1806,5.16108 12.5937,7.5625 1.7066,1.20071 3.1219,2.36445 4.1876,3.40625 1.0656,1.0418 1.759,1.9804 1.9687,2.78125 0,0.30482 -0.4761,0.87078 -1.1875,1.46875 -0.4952,0.41619 -1.1514,0.7855 -1.7812,1.15625 z"
               style="fill:none;stroke:#ff0000;display:inline;stroke-opacity:1;stroke-width:2;stroke-miterlimit:4;stroke-dasharray:none" />
            <path
               id="path3829"
               style="stroke:#000000;stroke-width:1.000000;fill:none"
               d="M -2679.463264,656.122669 l -0.323684,0.323684 M -2678.687886,658.175718 l 1.782101,-1.782101 M -2674.348307,656.664566 l -3.268459,3.268459 M -2676.545645,661.690332 l 4.754817,-4.754817 M -2669.233349,657.206463 l -6.241176,6.241176 M -2674.403405,665.204945 l 7.677271,-7.677271 M -2664.270545,657.900513 l -9.061739,9.061739 M -2672.307368,668.765763 l 10.492412,-10.492412 M -2659.359367,658.646189 l -11.985023,11.985023 M -2670.381411,672.496660 l 13.477633,-13.477633 M -2654.507818,659.451495 l -14.978703,14.978703 M -2668.633389,676.405493 l 16.486803,-16.486803 M -2649.785355,660.385886 l -17.994902,17.994902 M -2667.071724,680.500682 l 19.647601,-19.647601 M -2645.062892,661.320277 l -21.340742,21.340742 M -2665.735543,684.821355 l 22.973433,-22.973433 M -2640.489487,662.403726 l -24.577965,24.577965 M -2664.399361,689.142027 l 26.182497,-26.182497 M -2635.944242,663.515335 l -27.847581,27.847581 M -2663.201719,693.601239 l 29.530100,-29.530100 M -2631.449687,664.677634 l -31.161928,31.161928 M -2662.142532,698.198907 l 32.883968,-32.883968 M -2627.067441,665.952243 l -34.656662,34.656662 M -2661.620292,703.333521 l 36.743974,-36.743974 M -2622.685196,667.226852 l -37.406210,37.406210 M -2657.094577,704.464661 l 36.560403,-36.560403 M -2618.427775,668.626285 l -35.621447,35.621447 M -2651.003866,704.030804 l 34.682491,-34.682491 M -2614.214975,670.070339 l -33.743536,33.743536 M -2645.025755,703.709547 l 32.917180,-32.917180 M -2610.020538,671.532756 l -32.119402,32.119402 M -2639.254124,703.594770 l 31.262289,-31.262289 M -2605.963132,673.132205 l -30.405177,30.405177 M -2633.640048,703.637548 l 29.705619,-29.705619 M -2601.905726,674.731653 l -29.024736,29.024736 M -2628.220876,703.875231 l 28.343853,-28.343853 M -2597.914199,676.396981 l -27.597091,27.597091 M -2622.944319,704.255528 l 26.987371,-26.987371 M -2593.999697,678.139333 l -26.385205,26.385205 M -2617.825484,704.793547 l 25.783038,-25.783038 M -2590.085195,679.881685 l -25.180871,25.180871 M -2612.833454,705.458371 l 24.667769,-24.667769 M -2586.278151,681.731496 l -24.139354,24.139354 M -2608.001558,706.283329 l 23.610940,-23.610940 M -2582.503084,683.613283 l -23.082525,23.082525 M -2603.258940,707.197566 l 22.643390,-22.643390 M -2578.734441,685.501494 l -22.247786,22.247786 M -2598.705513,708.300993 l 21.790558,-21.790558 M -2575.095469,687.519376 l -21.333331,21.333331 M -2594.170776,709.423110 l 20.894793,-20.894793 M -2571.456497,689.537258 l -20.549807,20.549807 M -2589.841832,710.751021 l 20.204821,-20.204821 M -2567.856488,691.594104 l -19.820872,19.820872 M -2585.512888,712.078931 l 19.408846,-19.408846 M -2564.351596,693.746066 l -19.042561,19.042561 M -2581.329149,713.552046 l 18.729999,-18.729999 M -2560.846704,695.898028 l -18.417438,18.417438 M -2577.199134,715.078886 l 18.102769,-18.102769 M -2557.408453,698.116632 l -17.725674,17.725674 M -2573.127027,716.663633 l 17.406486,-17.406486 M -2554.032630,700.397662 l -17.153683,17.153683 M -2569.245599,718.439058 l 16.900881,-16.900881 M -2550.656806,702.678693 l -16.648078,16.648078 M -2565.364170,720.214484 l 16.366317,-16.366317 M -2547.375122,705.053863 l -16.072338,16.072338 M -2561.573150,722.080319 l 15.820759,-15.820759 M -2544.129660,707.465256 l -15.569180,15.569180 M -2557.824530,723.988553 l 15.317601,-15.317601 M -2540.884198,709.876648 l -15.066022,15.066022 M -2554.075910,725.896787 l 14.763529,-14.763529 M -2537.751602,712.400906 l -14.449998,14.449998 M -2550.327290,727.805021 l 14.136467,-14.136467 M -2534.630043,714.936201 l -13.890687,13.890687 M -2546.714709,729.849295 l 13.645446,-13.645446 M -2531.518691,717.481703 l -13.389997,13.389997 M -2543.122422,731.913861 l 13.106096,-13.106096 M -2528.513961,720.133827 l -12.884369,12.884369 M -2539.674237,734.122531 l 12.662642,-12.662642 M -2525.509231,722.785951 l -12.440915,12.440915 M -2536.368364,736.473512 l 12.361499,-12.361499 M -2522.535440,725.469015 l -12.273199,12.273199 M -2533.291386,739.053388 l 12.197834,-12.197834 M -2519.651665,728.242094 l -12.387051,12.387051 M -2531.583618,743.002475 l 13.373842,-13.373842 M -2516.767889,731.015173 l -7.185227,7.185227 M -2516.322614,733.398325 l 0.996613,-0.996613" />
          </g>
          <g
             id="g3831">
            <path
               sodipodi:nodetypes="ccccccscscsccccccccccc"
               inkscape:connector-curvature="0"
               id="path4238"
               d="m -2807.5625,1064.0625 -78.0937,49.3125 c 3.0425,3.0273 6.1411,5.9859 9.3124,8.875 3.1717,2.8891 6.4237,5.6933 9.7188,8.4375 0.7488,0.656 4.8427,3.9374 7.8438,6.3125 1.3381,-1.3769 2.6998,-2.7867 3.8437,-3.9688 1.6262,-1.682 3.3963,-3.3045 5.2187,-4.8124 1.8226,-1.5081 3.698,-2.9051 5.5,-4.0626 3.0559,-2.1076 6.8203,-4.442 10.2813,-6.6562 3.461,-2.2142 6.6134,-4.2994 8.4687,-5.875 2.5231,-2.2274 4.7609,-4.5468 6.75,-6.9062 1.9894,-2.3597 3.7168,-4.7717 5.2813,-7.1876 1.5645,-2.4157 2.97,-4.8222 4.2187,-7.2187 1.2488,-2.3965 2.3643,-4.7611 3.4063,-7.0625 0.557,-1.3795 1.1755,-2.5281 1.5937,-3.5 0.2092,-0.486 0.3774,-0.9428 0.4376,-1.3438 0.06,-0.4007 0.041,-0.7668 -0.125,-1.0937 -1.8077,-1.0449 -3.5098,-1.5602 -4.6563,-2.25 -0.4995,-0.1887 -2.1029,-1.3709 -3.5937,-2.5625 -1.4909,-1.1916 -2.875,-2.3989 -2.875,-2.6875 2.9389,-2.0023 5.1538,-3.4806 8.25,-5.3125 z"
               style="fill:none;stroke:#ff0000;stroke-opacity:1;stroke-width:2;stroke-miterlimit:4;stroke-dasharray:none" />
            <path
               id="path3834"
               style="stroke:#000000;stroke-width:1.000000;fill:none"
               d="M -2883.836570,1112.225989 l -1.476256,1.476256 M -2883.864601,1115.082448 l 7.702567,-7.702567 M -2868.487499,1102.533773 l -13.928877,13.928877 M -2880.968152,1117.842852 l 20.155188,-20.155188 M -2853.138428,1092.841556 l -26.381499,26.381499 M -2878.071702,1120.603257 l 32.607809,-32.607809 M -2837.789357,1083.149339 l -38.834120,38.834120 M -2875.122167,1123.310576 l 45.007345,-45.007345 M -2822.440287,1073.457123 l -51.167865,51.167865 M -2872.094136,1125.939400 l 57.328385,-57.328385 M -2807.451157,1064.124848 l -2.265244,2.265244 M -2870.580121,1127.253811 l 56.432138,-56.432138 M -2812.612984,1072.115102 l -56.453121,56.453121 M -2867.552090,1129.882635 l 56.555658,-56.555658 M -2809.345329,1074.504301 l -56.672132,56.672132 M -2864.450271,1132.437669 l 56.890591,-56.890591 M -2805.652725,1076.468551 l -57.230355,57.230355 M -2861.315890,1134.960143 l 57.434096,-57.434096 M -2805.005894,1081.478574 l -54.742806,54.742806 M -2846.653480,1125.954588 l 39.104750,-39.104750 M -2810.675425,1092.804960 l -27.326169,27.326169 M -2829.870563,1114.828525 l 14.541237,-14.541237" />
          </g>
          <g
             id="g3836">
            <path
               inkscape:connector-curvature="0"
               id="path4231"
               d="m -2903.75,976.625 c -0.2131,0.0943 -0.4157,0.23747 -0.625,0.28125 -0.4313,0.0902 -0.8489,0.0661 -1.2188,-0.0313 -0.3698,-0.0973 -0.6905,-0.25177 -0.9374,-0.5 -0.247,-0.24823 -0.4376,-0.57493 -0.5,-0.9375 -0.015,-0.62771 -0.5672,-2.1856 -1.4063,-4.21875 -0.8391,-2.03315 -1.956,-4.53523 -3.125,-7.03125 -2.338,-4.99204 -4.8373,-9.9681 -5.5313,-11.15625 -0.451,-0.36448 -0.8232,-0.72116 -1.3437,-1 -0.5205,-0.27884 -1.2031,-0.48678 -2.3437,-0.625 -3.0595,0.40007 -6.2425,1.01858 -9.4688,1.8125 -3.2263,0.79392 -6.4783,1.77251 -9.6875,2.90625 -3.2092,1.13374 -6.3669,2.42423 -9.375,3.84375 -3.0081,1.41952 -5.877,2.97374 -8.5,4.625 -1.538,0.90142 -4.1428,2.71672 -7,4.84375 1.4079,6.61899 3.0596,13.1915 4.9375,19.6875 1.8779,6.496 3.9819,12.91535 6.3438,19.25005 l 49.9374,-31.4063 -0.1562,-0.34375 z"
               style="fill:none;stroke:#ff0000;stroke-opacity:1;stroke-width:2;stroke-miterlimit:4;stroke-dasharray:none" />
            <path
               id="path3839"
               style="stroke:#000000;stroke-width:1.000000;fill:none"
               d="M -2963.777794,968.721471 l -0.974727,0.974727 M -2964.220263,971.992367 l 8.581358,-8.581358 M -2949.434614,960.035144 l -14.253391,14.253391 M -2963.155746,976.584704 l 18.542836,-18.542836 M -2939.837593,956.094978 l -22.785895,22.785895 M -2962.035648,981.121460 l 26.238665,-26.238665 M -2931.756373,953.670612 l -29.678021,29.678021 M -2960.833139,985.575805 l 32.777062,-32.777062 M -2924.558068,952.129161 l -35.673816,35.673816 M -2959.603803,990.003323 l 38.543744,-38.543744 M -2918.726251,951.954198 l -40.210292,40.210292 M -2958.269283,994.325657 l 41.214918,-41.214918 M -2916.116846,955.001648 l -41.485176,41.485176 M -2956.934763,998.647992 l 41.755435,-41.755435 M -2914.241810,958.783466 l -41.963749,41.963749 M -2955.471321,1002.841404 l 42.167029,-42.167029 M -2912.366774,962.565285 l -42.370308,42.370308 M -2954.002844,1007.029781 l 42.564032,-42.564032 M -2910.568526,966.423891 l -40.236721,40.236721 M -2943.183234,1001.867025 l 33.484993,-33.484993 M -2908.827956,970.340175 l -26.733264,26.733264 M -2927.939206,992.279852 l 19.891578,-19.891578 M -2907.340502,974.509576 l -12.976690,12.976690 M -2912.695179,982.692679 l 6.264247,-6.264247 M -2903.839223,976.665150 l -1.233942,1.233942" />
          </g>
        </g>
        <g
           id="g3791">
          <path
             style="fill:none;fill-opacity:1;display:inline;stroke:#000000;stroke-opacity:1;stroke-width:2;stroke-miterlimit:4;stroke-dasharray:none"
             d="m -2280.588,406.6427 -2.1247,-1.7055 3.7718,-3.9016 c 3.2523,-3.3642 7.1142,-6.5564 10.7184,-8.8711 6.1117,-4.2153 15.0444,-9.3887 18.7554,-12.5398 10.0921,-8.9096 15.4782,-19.1792 19.6461,-28.3848 1.1139,-2.759 2.5615,-4.6134 1.8995,-5.9211 -1.8076,-1.0449 -3.4947,-1.5668 -4.6412,-2.2566 -0.999,-0.3773 -6.4631,-4.6664 -6.4631,-5.2437 3.074,-2.0943 5.2915,-3.6048 8.6239,-5.5577 l 15.6118,7.7637 c 36.5351,18.1687 70.2853,28.4539 98.7643,30.0978 14.043,0.8107 17.3394,1.4765 16.7126,3.3756 -1.1279,3.4174 -33.8572,2.2603 -54.6566,-1.9323 -15.0599,-3.0357 -34.5435,-9.3874 -50.131,-16.3429 -6.2837,-2.8039 -12.359,-5.098 -13.5006,-5.098 -2.725,0 -5.683,3.3456 -8.3182,9.4077 -3.2587,7.4968 -10.2756,17.5683 -15.8875,22.8035 -2.7775,2.5912 -9.7005,7.7036 -15.3844,11.3609 -5.6839,3.6574 -12.8863,8.8498 -16.0053,11.5388 -3.1191,2.689 -4.7566,3.1816 -4.9375,3.1571 -0.181,-0.025 -1.2851,-0.812 -2.4537,-1.75 z m -195.8488,-91.5674 c -7.4618,-3.1051 -9.7378,-4.9631 -28.089,-22.9305 -9.35,-9.1545 -18.719,-18.0929 -20.82,-19.8631 l -3.8199,-3.2187 -2.9504,3.1584 c -4.9422,5.2907 -7.3526,4.4037 -42.651,-15.69414 -10.0486,-5.7214 -18.7047,-10.40254 -19.2358,-10.40254 -0.5312,0 -1.342,1.4625 -1.802,3.25 -0.5067,1.9694 -1.831,3.73236 -3.3609,4.47418 -4.8902,2.37127 -26.0597,7.27582 -31.4045,7.27582 -4.76,0 -5.6197,-0.32091 -7.161,-2.67325 -3.8778,-5.91831 -0.7698,-14.764 9.3731,-26.67697 7.915,-9.29629 11.4566,-14.7598 11.1168,-17.14978 -0.1908,-1.34193 -1.6668,-2.47788 -4.4856,-3.45236 -3.5547,-1.22883 -6.7082,-1.27645 -20.4901,-0.3094 -18.7066,1.3126 -21.6097,0.66936 -27.5587,-6.10624 -4.3587,-4.96439 -4.3479,-9.03197 0.039,-14.80426 4.1281,-5.4313 19.9616,-18.74517 32.0214,-26.92573 5.0541,-3.42835 9.4143,-6.4277 9.6893,-6.66523 2.1996,-1.89992 -21.6346,-14.88523 -32.301,-17.59811 -3.1905,-0.81148 -6.9406,-2.22215 -8.3335,-3.13482 -3.264,-2.13867 -5.3655,-7.238 -5.3655,-13.01948 0,-5.61466 2.5705,-8.37307 10.8649,-11.65919 4.7441,-1.87956 7.6116,-2.23885 18.1351,-2.27229 14.5221,-0.0461 16.6362,0.55119 39.3525,11.1189 12.2241,5.68666 85.3694,41.81796 94.0752,46.4699 1.6898,0.90293 4.8901,1.9056 7.1118,2.22816 l 4.0396,0.58647 21.0819,-19.22816 c 11.595,-10.57549 24.3819,-21.92816 28.4154,-25.22816 9.8097,-8.02592 18.5603,-18.33798 34.2687,-40.38334 17.2898,-24.26478 26.1036,-33.55051 43.3718,-45.69444 1.3118,-0.92253 0.8507,-2.00285 -3.2009,-7.5 -16.2288,-22.01891 -22.0435,-50.86431 -15.4531,-76.66014 5.3274,-20.85288 15.2305,-35.85977 43.7261,-66.26208 4.9688,-5.30135 14.4381,-18.50969 17.1189,-23.87858 1.5438,-3.09178 3.0984,-7.51523 3.4547,-9.82988 1.1413,-7.41497 7.5195,-25.48247 12.6812,-35.92228 17.2101,-34.80802 44.8228,-56.0144 78.7299,-60.46397 11.7661,-1.54404 11.5375,-1.45533 10.1983,-3.95751 -1.848,-3.45302 0.8925,-6.04972 13.1616,-12.47096 27.9087,-14.60654 47.566,-21.42323 61.8664,-21.45388 11.9897,-0.0257 15.6778,2.52908 26.7004,18.49557 3.4103,4.93982 9.0519,12.09305 12.5369,15.89607 l 6.3364,6.91457 9.3404,-2.30793 c 5.1372,-1.26936 11.9651,-2.35592 15.173,-2.41458 7.562,-0.13826 9.1378,1.35425 9.7047,9.19163 0.4997,6.90887 -1.7512,12.29439 -6.998,16.74287 -5.2093,4.41681 -18.2808,10.04766 -30.9483,13.33176 -6.41,1.6618 -13.385,3.83379 -15.5,4.82663 -3.6104,1.69482 -3.8646,2.10698 -4.1581,6.74276 -0.1779,2.8115 0.8114,9.99108 2.2976,16.67371 2.4265,10.91029 2.5427,12.53294 1.6515,23.06006 -1.7679,20.88256 1.3763,39.35676 9.9616,58.53006 7.4836,15.00972 17.2961,25.41526 23.34,40.98452 1.0427,2.53451 5.9107,18.92875 5.9379,22.17949 0.1731,3.59787 -0.8083,3.8843 3.171,3.57271 31.1254,-3.02944 56.7334,0.53002 84.453,11.69556 8.288,3.45168 40.797,18.88132 42.4748,25.28814 0,0.60965 -1.934,2.2619 -3.7576,3.13153 -3.2857,1.56683 -3.3739,1.54324 -9.75,-2.60757 -15.6897,-10.21394 -41.8133,-21.86076 -61.4672,-25.88109 -13.9211,-2.84766 -35.0706,-4.48936 -46.6504,-3.62118 l -9.6228,0.72144 -1.1366,5.77725 c -5.1048,25.94749 -19.3452,51.96226 -35.9076,65.59739 -3.0081,2.47637 -5.6789,4.29272 -5.9353,4.03633 -0.2564,-0.25638 2.2165,-4.2044 5.4954,-8.77338 13.5375,-18.86411 21.6474,-35.00671 25.7885,-51.33143 6.343,-25.00498 3.7172,-40.74539 -10.7889,-64.67298 -13.743,-22.66902 -21.132,-39.40794 -23.737,-53.77334 -1.4417,-7.95097 -1.3967,-23.55151 0.09,-31.10744 2.7307,-13.87971 -1.3041,-28.1673 -13.05,-46.21195 -8.0869,-12.42339 -7.3146,-13.79862 2.5799,-4.59378 6.5515,6.09482 6.5788,6.108 7.7533,3.75 1.9868,-3.98887 12.8088,-8.63986 26.6217,-11.44132 20.3338,-4.124 27.6978,-8.64829 31.4677,-19.33324 2.8694,-8.1328 -1.1036,-10.57754 -10.6794,-6.57141 -3.4585,1.44694 -7.0758,2.87427 -8.0383,3.17186 -2.2041,0.68146 -2.2461,3.10216 -0.095,5.47906 1.5749,1.74025 1.4765,1.82874 -2.0332,1.82874 -4.7395,0 -12.0758,-3.73369 -17.3021,-8.80571 -6.2024,-6.01912 -12.3197,-14.12968 -12.3197,-16.33375 0,-2.34197 -2.3881,-7.16546 -5.7138,-11.54087 -4.9763,-6.54703 -22.8203,-9.42902 -35.3472,-5.70893 -8.044,2.38884 -21.9647,9.72218 -45.9321,24.19679 -1.2689,0.76633 -1.2881,1.14878 -0.1276,2.5471 0.9529,1.14813 2.966,1.64537 6.6614,1.64537 2.9126,0 6.0075,0.27314 6.8775,0.60699 3.0895,1.18554 1.5132,2.39351 -3.1682,2.4279 -2.6125,0.0192 -8.35,0.68947 -12.75,1.48952 -4.4,0.80005 -13.4,2.38812 -20,3.52906 -19.5447,3.37868 -29.8888,8.54005 -42.9816,21.44653 -13.7939,13.59751 -25.7104,34.31992 -34.5033,60 -6.5661,19.17657 -12.098,27.96906 -33.0311,52.5 -15.8242,18.54389 -22.5818,28.17831 -28.7194,40.94558 -7.8231,16.27379 -9.3777,21.21915 -9.9962,31.80086 -1.1593,19.83194 6.8798,38.05827 31.2559,70.86327 9.1055,12.25403 9.8822,13.5292 10.8974,17.89029 0.6055,2.60122 -0.6057,1.70758 -9.1117,-6.72276 l -9.81,-9.72276 -8.4626,4.72276 c -10.0784,5.62448 -15.4831,10.83887 -23.5267,22.6985 -10.7657,15.87287 -24.8756,30.89125 -57.0107,60.68142 -10.45,9.68744 -23.725,22.4509 -29.5,28.36324 l -10.5,10.74972 4,1.36685 c 5.0965,1.74154 8.5,3.50527 8.5,4.40478 0,0.38709 -2.3393,0.92857 -5.1984,1.20329 -11.9899,1.15208 -40.4644,-10.72396 -85.935,-35.84145 -23.3113,-12.8769 -46.5923,-24.39689 -49.3542,-24.42158 -1.1068,-0.01 -6.7374,-1.1268 -12.5124,-2.48201 -14.346,-3.36655 -22.0615,-3.3002 -29.0707,0.25 -4.2005,2.12759 -5.4971,3.33342 -5.7291,5.32772 -0.4986,4.28738 2.6345,6.49572 18.1276,12.77707 21.5954,8.75541 31.3036,15.71075 36.1297,25.8845 0.9811,2.06839 2.6296,5.42486 3.6632,7.45883 3.9874,7.84645 1.7337,7.77649 -4.4117,-0.13696 -6.8619,-8.83621 -7.281,-8.92514 -15.5915,-3.30845 -3.8633,2.61101 -13.5701,10.27956 -21.5708,17.04122 -12.2964,10.39212 -14.5467,12.72425 -14.5467,15.07568 0,1.65794 0.9883,3.71019 2.4462,5.07988 l 2.4463,2.29811 15.8037,-1.76115 c 18.0153,-2.00759 22.4777,-1.52886 33.254,3.56751 6.552,3.09863 18.4341,11.89903 19.3745,14.34967 1.0742,2.7994 -0.7021,2.4026 -8.7684,-1.95879 -9.18,-4.96352 -11.5563,-5.45604 -11.5563,-2.39518 0,3.55316 -3.0609,8.20992 -10.4841,15.95034 -3.956,4.125 -7.9404,8.61263 -8.8543,9.97251 -2.2062,3.2829 -2.2595,11.58406 -0.08,12.4205 3.2274,1.23847 8.1444,0.4991 16.4182,-2.4688 4.675,-1.67696 10.075,-3.51773 12,-4.09059 4.8139,-1.43255 6,-2.60829 6,-5.94747 l 0,-2.86896 6.75,2.53895 c 3.7125,1.39642 11.7,5.41101 17.75,8.9213 14.4822,8.40274 21.7503,11.92087 28.8149,13.94779 7.0666,2.02752 9.9387,1.43326 9.106,-1.88415 -0.922,-3.67356 1.2413,-3.94417 7.3827,-0.92354 4.4171,2.17255 9.9635,7.09701 24.6964,21.92691 16.6325,16.7421 19.9201,19.5819 26.3844,22.7904 4.0614,2.0158 7.9522,3.6652 8.6464,3.6652 2.4109,0 7.4692,-6.9095 7.4692,-10.2028 0,-1.7232 -2.25,-7.975 -5,-13.8928 -2.75,-5.9178 -5,-11.8474 -5,-13.1769 0,-3.0786 5.9558,-14.79863 8.202,-16.14024 2.7149,-1.62151 2.8907,-0.33683 0.7313,5.34602 -1.1105,2.92277 -1.7601,5.57322 -1.4434,5.88992 1.1835,1.1835 11.4511,-1.7861 23.0392,-6.66333 9.8472,-4.14455 13.8247,-6.51027 22.4209,-13.33545 29.8436,-23.69528 52.84,-34.17562 79.9507,-36.43656 5.8386,-0.48693 8.4684,-0.32648 9.5649,0.58357 2.3248,1.92938 0.8641,3.02852 -4.0246,3.02852 -3.0751,0 -4.441,0.4178 -4.441,1.35834 0,0.74709 2.4527,6.48459 5.4504,12.75 4.9242,10.29196 5.9794,12.94983 4.4963,14.07916 -1.7254,1.25717 -3.6967,0.57529 -3.9467,-0.875 -0.061,-2.51085 -8.6886,-20.03545 -10.0764,-22.41174 -0.902,-0.72895 -1.3923,-1.34161 -3.6736,-1.61805 -12.238,1.60028 -26.5465,6.56751 -37.0384,13.17256 -3.2389,1.89828 -10.799,7.55964 -16.8003,12.58081 -6.0012,5.02116 -13.9978,11.18432 -17.7703,13.6959 -9.459,6.29755 -25.6078,14.29507 -34.8879,17.27797 -4.2608,1.3695 -7.7483,2.9907 -7.75,3.6025 0,0.6119 1.3751,4.4369 3.0595,8.5 4.4491,10.7319 4.8635,15.8897 1.665,20.7231 -4.6694,7.0559 -13.8102,9.5807 -22.1386,6.115 z m 722.5233,-51.53113 c -8.0825,-2.17366 -15.7265,-6.64655 -27.8412,-16.29126 -13.654,-10.87016 -19.5693,-14.68144 -26.6477,-17.16929 -8.2149,-2.88732 -14.7,-2.51263 -27.7919,1.6057 -27.1606,8.54401 -40.2884,10.17497 -54.9881,6.83158 l -7.0515,-1.60381 -12.6459,5.99938 c -23.5075,11.15218 -40.0643,15.05685 -49.9385,11.77718 -10.2791,-3.41419 -14.1485,-9.19269 -14.1855,-21.18457 -0.019,-6.15828 0.4453,-8.04189 3.4513,-14 1.9103,-3.7864 7.3427,-11.71245 12.072,-17.61344 4.7292,-5.90099 8.332,-11.16036 8.0063,-11.68748 -0.3258,-0.52712 -4.0707,-3.05448 -8.322,-5.61637 -4.2513,-2.56188 -9.1867,-6.04806 -10.9676,-7.74705 -3.0365,-2.89681 -3.1357,-3.20207 -1.595,-4.90455 3.1593,-3.49102 6.722,-2.05705 18.719,7.5344 2.0258,1.61959 4.9296,2.91468 6.7266,3 2.8747,0.13649 3.266,-0.21321 4.3067,-3.84987 1.58,-5.52069 4.1422,-5.42715 3.902,0.14245 -0.247,5.72778 -3.9426,12.52477 -12.7785,23.50209 -4.1418,5.1455 -8.9925,12.05546 -10.7794,15.35546 -2.9127,5.379 -3.2497,6.85126 -3.2562,14.22474 -0.01,7.63362 0.1895,8.42163 2.7296,10.96413 2.5403,2.54259 3.442,2.7677 12.5527,3.13364 13.9248,0.55929 19.2133,-1.06144 43.9744,-13.47631 20.1681,-10.11205 21.5952,-10.6662 27.695,-10.75382 11.5492,-0.1659 10.9948,4.64507 -0.8404,7.29369 -9.7912,2.19117 -6.6948,4.23621 6.355,4.19721 9.6856,-0.0289 18.814,-2.14386 33.0754,-7.66309 8.781,-3.39829 10.0183,-3.62216 17.4511,-3.15748 13.088,0.81823 23.1686,5.83789 46.4668,23.13821 15.3345,11.3868 23.5945,15.59908 30.5889,15.59908 6.7152,0 9.9777,-1.45934 11.5049,-5.14624 2.7036,-6.52706 -1.0232,-13.82884 -10.8267,-21.21262 -12.3957,-9.33618 -15.7898,-12.41696 -19.3726,-17.5841 -2.0668,-2.9808 -4.4938,-5.83149 -5.3932,-6.33485 -1.4686,-0.82184 -1.4128,-1.15214 0.5466,-3.23788 6.7837,-7.2209 22.2813,-9.13625 45.2511,-5.59259 32.186,4.96551 46.2771,0.67376 41.2247,-12.55586 -3.9037,-10.2216 -13.75,-14.38045 -56.4905,-23.86016 -9.075,-2.01281 -19.875,-4.73752 -24,-6.05491 -4.125,-1.31739 -7.8171,-2.401 -8.2047,-2.40802 -0.3876,-0.007 -1.0038,1.58177 -1.3694,3.53066 -0.5142,2.74066 -0.085,4.66132 1.8952,8.47772 3.624,6.98501 0.6269,7.84846 -5.2894,1.52387 l -1.7612,-2.72701 0.9862,-8.11481 c 2.4718,-20.33938 17.8137,-37.89617 50.9787,-66.48468 11.453,-9.87254 13.1658,-12.63141 10.6381,-17.13476 -2.1181,-3.77371 -5.535,-5.05255 -13.5438,-5.06902 -12.2378,-0.0252 -32.3977,8.30307 -62.8297,25.95543 -32.604,18.91225 -36.154,20.64297 -48.0703,23.43553 -6.0886,1.42686 -13.2886,2.57628 -16,2.55426 -4.6988,-0.0382 -4.8126,-0.10243 -2.4297,-1.3721 1.375,-0.73264 4.6181,-1.63929 7.2069,-2.01478 2.5888,-0.37548 5.7388,-1.52007 7,-2.54353 l 2.2931,-1.86083 -2.8209,-0.71056 c -3.6675,-0.92381 -9.5971,-0.10338 -23.4735,3.24788 -11.6944,2.82425 -14.2983,2.64779 -15.0202,-1.01789 -0.214,-1.08659 0.7455,-1.87033 3,-2.45061 2.5779,-0.66349 3.3844,-1.44656 3.6289,-3.523 0.1825,-1.55062 1.5066,-3.51893 3.1585,-4.69521 l 2.8444,-2.02533 2.6073,3.09863 c 2.2691,2.69675 3.5333,3.21489 9.7471,3.99513 19.1461,2.40407 36.8444,-3.04822 66.8284,-20.58776 30.9045,-18.07799 50.9492,-25.10398 70.1733,-24.59689 5.3033,0.13989 9.5412,4.01046 10.3586,9.46072 1.2765,8.51291 -1.9072,14.05461 -12.5319,21.8133 -1.925,1.40573 -8,6.58759 -13.5,11.51523 -5.5,4.92765 -10.7182,9.22202 -11.5961,9.54305 -4.1477,1.51683 -24.8206,31.47224 -23.3556,33.8427 1.9563,3.16541 15.6013,6.9455 30.6191,8.48245 4.6838,0.47935 42.0309,10.9876 50.0512,14.08279 8.2538,3.18526 14.7814,12.08691 14.7814,20.15719 0,4.94226 -2.3697,7.44579 -9.613,10.15586 -11.1839,4.18443 -20.2665,4.40326 -45.387,1.09351 -9.9096,-1.30564 -25.6382,-1.31389 -28.0657,-0.0147 -1.0639,0.56935 -1.9161,2.03185 -1.8938,3.25 0.06,3.28983 7.8276,12.75465 13.4969,16.44634 9.373,6.10347 11.4085,7.77718 14.319,11.77411 8.1962,11.25555 5.7221,23.60044 -5.2853,26.37214 -5.682,1.43076 -8.7755,1.33905 -15.4588,-0.45832 z M -2246.0258,63.10041 c -3.4124,-1.21119 -6.8041,-3.35647 -8.9358,-5.65199 -4.0512,-4.36247 -2.5674,-5.76634 2.0173,-1.90861 4.809,4.04654 11.3847,3.61961 21.7958,-1.41509 4.5493,-2.2 8.4316,-4 8.6273,-4 0.1957,0 -0.02,1.31036 -0.4793,2.9119 -1.9401,6.76462 -8.4745,12.13056 -14.6764,12.05202 -1.5669,-0.0198 -5.3239,-0.91454 -8.3489,-1.98823 z m -0.5,-43.89043 c -5.7218,-2.47911 -10.7988,-12.51477 -10.9199,-21.58526 -0.064,-4.76888 0.527,-7.1982 2.8787,-11.83957 3.5583,-7.02254 5.6665,-8.66043 11.1473,-8.66043 3.5752,0 4.6624,0.55485 7.721,3.94026 5.7643,6.38045 7.0576,9.6738 7.0921,18.05974 0.024,5.74928 -0.5142,8.71816 -2.3038,12.71851 -1.284,2.87019 -2.8478,5.64057 -3.475,6.15642 -1.6945,1.39357 -9.8426,2.2059 -12.1404,1.21033 z m 7.5,-79.20369 c -3.1302,-1.24162 -9,-6.83604 -9,-8.57774 0,-1.74808 3.1537,-1.65484 5.5589,0.16437 3.2579,2.46418 8.6069,1.98224 13.7697,-1.43744 2.5692,-1.70183 4.6783,-3.73933 4.6867,-4.375 0.01,-0.72704 0.333,-0.65441 0.8718,0.1958 0.9471,1.49457 0.065,6.49988 -1.7385,9.87068 -2.5721,4.80616 -8.2844,6.48543 -14.1486,4.15933 z m 30.8724,-64.53458 c -2.3064,-2.77792 -1.1407,-19.77255 1.7501,-25.5137 1.9244,-3.82196 7.1556,-5.37068 11.7112,-3.4672 4.0907,1.70917 5.2059,3.48337 6.0559,9.63391 l 0.6219,4.5 -1.6872,-3.25 c -0.9279,-1.7875 -2.0397,-3.25 -2.4705,-3.25 -1.3483,0 -2.6315,3.30622 -3.2991,8.5 -1.2696,9.87723 -1.6554,11.45784 -3.1654,12.96785 -2.0355,2.03548 -7.7872,1.96243 -9.5169,-0.12086 z m -57.8292,-6.61973 c -2.9582,-1.497 -3.8117,-4.20442 -3.9435,-12.50938 -0.1743,-10.98035 4.2372,-17.12766 11.3356,-15.79599 3.9361,0.73842 8.5737,5.56966 8.5478,8.90484 -0.015,1.89291 -0.2853,1.75402 -2.0982,-1.07673 -2.252,-3.5166 -2.632,-3.69552 -4.8582,-2.28769 -1.2895,0.81551 -1.2583,1.73803 0.25,7.39882 2.132,8.0011 2.1731,11.55173 0.1666,14.41636 -1.7555,2.50635 -5.5638,2.89113 -9.4001,0.94977 z m -9.0432,-43.03092 c 0,-3.49998 4.8259,-12.4362 7.897,-14.62303 2.9454,-2.09728 8.103,-3.73668 8.103,-2.57562 0,0.39297 -1.2839,2.35426 -2.853,4.35841 -1.5692,2.00414 -4.5579,6.2314 -6.6416,9.3939 -3.962,6.01317 -6.5054,7.3606 -6.5054,3.44634 z m 89.9458,-2.51658 c -7.2488,-4.59837 -17.2765,-14.35375 -15.7497,-15.3221 3.2937,-2.08912 7.3634,-0.88291 11.4453,3.39234 6.5798,6.8913 11.6535,14.75 9.523,14.75 -0.4251,0 -2.7734,-1.26911 -5.2186,-2.82024 z"
             id="path3167-7"
             inkscape:connector-curvature="0"
             sodipodi:nodetypes="scscccccccssssssccsccscsscsssccsssscsscsssssssssscsssssssscsscsssscssscsscssccccccsssscsccsssccssssssssscsssscssssssssssssscsssscsssscsscscsssssccssssssscssscssscssssssscccssscssscccccssscsccccsssscssssscssssscsssccssssssssssssccsssscccscsscssssssscsscccccsssscsscssssssccsssccsssssccssccsccscssssccccssscsccssssssscccccsssscssscsss" />
          <path
             d="M -2668.489942,113.454740 l -4.645150,4.645150 M -2673.856199,124.477851 l 14.820023,-14.820023 M -2652.572838,108.851344 l -8.635052,8.635052 M -2672.937266,129.215772 l 5.111748,-5.111748 M -2646.769924,108.705285 l -6.630879,6.630879 M -2671.124998,133.060359 l 5.196813,-5.196813 M -2641.183481,108.775696 l -6.575916,6.575916 M -2668.232929,135.825144 l 5.737006,-5.737006 M -2635.692547,108.941616 l -6.825520,6.825520 M -2664.268909,137.517978 l 5.446992,-5.446992 M -2630.801815,109.707738 l -6.985253,6.985253 M -2659.971563,138.877487 l 5.109947,-5.109947 M -2626.370315,110.933093 l -6.685753,6.685753 M -2655.695078,140.257855 l 4.793761,-4.793761 M -2622.226197,112.445829 l -6.184931,6.184931 M -2651.678015,141.897647 l 4.744088,-4.744088 M -2278.764311,-225.359203 l -24.676867,24.676867 M -2623.708049,119.584535 l 5.476974,-5.476974 M -2642.963443,138.839929 l -4.856332,4.856332 M -2312.788169,-185.678490 l 47.796617,-47.796617 M -2614.337939,115.871280 l -4.647795,4.647795 M -2644.029765,145.563105 l 4.929235,-4.929235 M -2255.363000,-237.446805 l -62.575289,62.575289 M -2614.927064,122.117258 l 4.482260,-4.482260 M -2635.282120,142.472314 l -4.957636,4.957636 M -2261.539298,-225.613653 l 14.219538,-14.219538 M -2297.075181,-190.077770 l -24.581768,24.581768 M -2611.085382,123.932431 l 4.533714,-4.533714 M -2631.625308,144.472357 l -4.975538,4.975538 M -2252.144204,-229.351893 l 11.976251,-11.976251 M -2304.255766,-177.240331 l -20.370107,20.370107 M -2607.244232,125.748135 l 4.513834,-4.513834 M -2628.097855,146.601758 l -4.984431,4.984431 M -2244.363125,-231.476118 l 10.869223,-10.869223 M -2309.057249,-166.781994 l -17.792929,17.792929 M -2603.406645,127.567402 l 4.476588,-4.476588 M -2624.723873,148.884630 l -5.053728,5.053728 M -2672.974881,197.135638 l 31.076559,-31.076559 M -2210.643263,-259.539126 l -14.870022,14.870022 M -2237.325193,-232.857195 l 10.635427,-10.635427 M -2312.815867,-157.366521 l -16.023536,16.023536 M -2599.663727,129.481339 l 4.534012,-4.534012 M -2621.575558,151.393169 l -50.327522,50.327522 M -2230.456302,-234.069232 l 31.037791,-31.037791 M -2316.066741,-148.458793 l -18.598625,18.598625 M -2595.920810,131.395276 l 4.591435,-4.591435 M -2618.745818,154.220284 l -13.174699,13.174699 M -2669.536714,205.011180 l 4.263688,-4.263688 M -2189.095248,-269.773432 l -22.944515,22.944515 M -2223.587412,-235.281268 l 8.009088,-8.009088 M -2319.755514,-139.113166 l -40.708613,40.708613 M -2592.177892,133.309212 l 4.648859,-4.648859 M -2616.239518,157.370838 l -4.921968,4.921968 M -2666.693484,207.824804 l 3.957736,-3.957736 M -2179.682529,-273.529296 l -18.575960,18.575960 M -2216.746150,-236.465675 l 4.727440,-4.727440 M -2261.880406,-191.331420 l -11.195533,11.195533 M -2379.929322,-73.282504 l 53.667208,-53.667208 M -2583.728692,130.516867 l -4.706282,4.706282 M -2617.974143,164.762317 l 3.865475,-3.865475 M -2658.264464,205.052638 l -4.996146,4.996146 M -2185.639315,-261.915657 l 14.467863,-14.467863 M -2206.753168,-240.801803 l -3.386365,3.386365 M -2274.810258,-172.744714 l 9.690631,-9.690631 M -2345.050475,-102.504496 l -41.667330,41.667330 M -2584.756763,137.201792 l 4.828412,-4.828412 M -2612.201739,164.646768 l -3.212212,3.212212 M -2658.693092,211.138120 l 6.794938,-6.794938 M -2163.535949,-278.362168 l -11.293358,11.293358 M -2203.996828,-237.901289 l 2.370033,-2.370033 M -2366.706021,-75.192096 l -23.447210,23.447210 M -2581.080658,139.182541 l 4.952647,-4.952647 M -2610.338573,168.440456 l -2.482676,2.482676 M -2653.300011,211.401894 l 7.768167,-7.768167 M -2156.734659,-279.506604 l -9.639269,9.639269 M -2392.283128,-43.958135 l 17.260908,-17.260908 M -2572.327669,136.086407 l -5.076883,5.076883 M -2610.160909,173.919646 l 1.543770,-1.543770 M -2639.316065,203.074802 l -8.037953,8.037953 M -2159.802107,-270.782302 l 9.060916,-9.060916 M -2380.281302,-50.303106 l -13.357329,13.357329 M -2573.728448,143.144039 l 5.201119,-5.201119 M -2633.170887,202.586478 l -8.238100,8.238100 M -2154.105063,-270.822492 l 8.688989,-8.688989 M -2384.110165,-40.817389 l -10.135289,10.135289 M -2570.054105,145.126550 l 5.327117,-5.327117 M -2627.567020,202.639465 l -7.903038,7.903038 M -2148.968349,-270.302351 l 8.120519,-8.120519 M -2259.746992,-159.523708 l -9.654789,9.654789 M -2394.569674,-24.701027 l 8.530673,-8.530673 M -2560.926646,141.655946 l -5.457205,5.457205 M -2629.531128,210.260428 l 6.972692,-6.972692 M -2137.148693,-276.465152 l -7.140339,7.140339 M -2269.924916,-143.688930 l 14.442488,-14.442488 M -2386.675623,-26.938223 l -7.696755,7.696755 M -2562.713599,149.099753 l 5.585869,-5.585869 M -2618.237155,204.623309 l -5.928762,5.928762 M -2140.061326,-267.895666 l 5.955969,-5.955969 M -2252.470399,-155.486593 l -1.461733,1.461733 M -2269.651181,-138.305810 l 12.078343,-12.078343 M -2386.750589,-21.206403 l -7.228273,7.228273 M -2559.043346,151.086354 l 5.687523,-5.687523 M -2614.238643,206.281651 l -5.747329,5.747329 M -2136.362292,-265.937845 l 4.963451,-4.963451 M -2250.299799,-152.000339 l -1.214665,1.214665 M -2268.479660,-133.820477 l 11.911365,-11.911365 M -2386.384297,-15.915841 l -6.873483,6.873483 M -2555.373093,153.072955 l 5.789176,-5.789176 M -2610.417742,208.117604 l -6.841463,6.841463 M -2133.473146,-263.170137 l 4.482088,-4.482088 M -2255.523014,-141.120269 l -10.101300,10.101300 M -2392.380026,-4.263257 l 6.682030,-6.682030 M -2545.812010,149.168727 l -5.836160,5.836160 M -2612.005782,215.362499 l 5.199654,-5.199654 M -2612.915310,216.272027 l -15.175437,15.175437 M -2131.194250,-259.792179 l 4.610974,-4.610974 M -2198.034105,-192.952324 l -2.411312,2.411312 M -2260.999412,-129.987017 l 5.683425,-5.683425 M -2384.533445,-6.452984 l -6.686179,6.686179 M -2547.915226,156.928797 l 5.875122,-5.875122 M -2603.425076,212.438647 l -4.094932,4.094932 M -2638.268391,247.281962 l 19.884654,-19.884654 M -2124.175015,-261.154559 l -5.068758,5.068758 M -2197.852907,-187.476667 l 4.317008,-4.317008 M -2383.217787,-2.111788 l -6.771597,6.771597 M -2544.182282,158.852707 l 5.914085,-5.914085 M -2600.085813,214.756239 l -3.654323,3.654323 M -2639.247419,253.917845 l 5.386382,-5.386382 M -2121.759566,-257.913155 l -6.192103,6.192103 M -2195.032448,-184.640273 l 4.755021,-4.755021 M -2381.649441,1.976720 l -6.793337,6.793337 M -2540.449338,160.776617 l 5.953048,-5.953048 M -2596.952492,217.279771 l -3.047695,3.047695 M -2637.858368,258.185647 l 4.286889,-4.286889 M -2119.344116,-254.671750 l -6.684802,6.684802 M -2192.036477,-181.979389 l 4.516502,-4.516502 M -2379.960314,5.944448 l -6.935857,6.935857 M -2536.640011,162.624144 l 5.915627,-5.915627 M -2593.945726,219.929860 l -2.297268,2.297268 M -2634.796086,260.780220 l 4.776317,-4.776317 M -2116.851011,-251.508001 l -6.840537,6.840537 M -2188.880792,-179.478220 l 4.001597,-4.001597 M -2378.088514,9.729502 l -6.952730,6.952730 M -2532.826033,164.467021 l 5.873556,-5.873556 M -2623.674729,255.315717 l -5.655066,5.655066 M -2121.144616,-241.557542 l 6.871233,-6.871233 M -2182.487023,-180.215135 l -3.127945,3.127945 M -2383.140990,20.438832 l 6.947150,-6.947150 M -2523.180570,160.478413 l -5.831486,5.831486 M -2622.743518,260.041360 l 7.134616,-7.134616 M -2111.691156,-245.354147 l -6.771310,6.771310 M -2150.457542,-206.587762 l 1.740887,-1.740887 M -2180.325186,-176.720118 l -1.782811,1.782811 M -2381.088231,24.042927 l 6.988861,-6.988861 M -2519.408664,162.363360 l -5.733894,5.733894 M -2598.026100,240.980797 l 0.609572,-0.609572 M -2607.026435,249.981132 l -8.583805,8.583805 M -2115.706828,-235.681621 l 6.720688,-6.720688 M -2145.674769,-205.713680 l -2.663025,2.663025 M -2208.346601,-143.041848 l 11.132077,-11.132077 M -2372.004900,20.616450 l -6.847319,6.847319 M -2521.219990,169.831540 l 5.583232,-5.583232 M -2593.305863,241.917414 l -14.755772,14.755772 M -2112.613716,-233.117879 l 6.332592,-6.332592 M -2142.655330,-203.076265 l -3.546590,3.546590 M -2209.178704,-136.552891 l 16.097226,-16.097226 M -2369.839884,24.108289 l -6.776322,6.776322 M -2517.297422,171.565827 l 5.432571,-5.432571 M -2589.312815,243.581220 l -3.263953,3.263953 M -2599.797662,254.066068 l 3.346013,-3.346013 M -2100.240894,-239.833847 l -9.011924,9.011924 M -2144.053242,-196.021498 l 4.350893,-4.350893 M -2190.234977,-149.839764 l -19.015924,19.015924 M -2374.268756,34.194016 l 6.683669,-6.683669 M -2507.782538,167.707798 l -5.504226,5.504226 M -2588.818507,248.743766 l 3.384014,-3.384014 M -2092.927116,-241.490770 l -12.645602,12.645602 M -2141.905962,-192.511925 l 12.329562,-12.329562 M -2188.939268,-145.478618 l -1.562035,1.562035 M -2208.671597,-125.746289 l 13.528387,-13.528387 M -2365.330292,30.912405 l -45.629952,45.629952 M -2509.211419,174.793533 l 6.099401,-6.099401 M -2581.645826,247.227940 l -3.510960,3.510960 M -2093.471309,-235.289723 l 7.417523,-7.417523 M -2097.711835,-231.049197 l -3.675720,3.675720 M -2139.945382,-188.815650 l 19.679410,-19.679410 M -2188.180821,-140.580211 l -0.302148,0.302148 M -2205.525028,-123.236004 l 9.303833,-9.303833 M -2363.034503,34.273471 l -63.698998,63.698998 M -2505.104520,176.343488 l 33.266546,-33.266546 M -2577.969486,249.208454 l -3.554418,3.554418 M -2084.446811,-238.657367 l 4.549212,-4.549212 M -2095.521394,-227.582784 l -0.603020,0.603020 M -2123.519433,-199.584744 l 10.998273,-10.998273 M -2128.644261,-194.459917 l -9.415388,9.415388 M -2198.852118,-124.252060 l 0.394396,-0.394396 M -2360.666337,37.562159 l -16.710528,16.710528 M -2500.798837,177.694659 l 108.474745,-108.474745 M -2574.293146,251.188968 l -3.597875,3.597875 M -2078.676256,-238.771067 l 3.779624,-3.779624 M -2105.122363,-212.324961 l -10.019145,10.019145 M -2136.336662,-181.110662 l 7.768799,-7.768799 M -2358.298170,40.850846 l -5.455492,5.455492 M -2437.806123,120.358799 l 23.461051,-23.461051 M -2491.271006,173.823683 l -5.148383,5.148383 M -2574.258967,256.811643 l 3.592406,-3.592406 M -2072.213771,-239.576699 l -4.498370,4.498370 M -2107.187294,-204.603176 l 9.700880,-9.700880 M -2127.996325,-183.794145 l -6.852823,6.852823 M -2246.132023,-65.658447 l 3.074484,-3.074484 M -2355.930003,44.139534 l -4.805389,4.805389 M -2491.727524,179.937055 l 4.602699,-4.602699 M -2567.053094,255.262624 l -3.578902,3.578902 M -2079.297153,-226.836462 l 7.958505,-7.958505 M -2087.902273,-218.231342 l -11.100520,11.100520 M -2133.585503,-172.548112 l 6.456609,-6.456609 M -2239.057118,-67.076497 l -4.198061,4.198061 M -2357.894332,51.760717 l 4.355177,-4.355177 M -2483.109204,176.975589 l -3.352164,3.352164 M -2567.005025,260.871410 l 3.579866,-3.579866 M -2071.406978,-229.069783 l -18.187697,18.187697 M -2132.643640,-167.833121 l 6.418052,-6.418052 M -2232.671094,-67.805667 l -7.269035,7.269035 M -2355.053272,54.576511 l 3.909976,-3.909976 M -2559.699968,259.223207 l -3.678086,3.678086 M -2132.175611,-162.644296 l 6.928738,-6.928738 M -2222.782018,-72.037889 l -12.903789,12.903789 M -2352.172990,57.353083 l 3.361865,-3.361865 M -2555.955493,261.135587 l -3.795589,3.795589 M -2132.419956,-156.743096 l 7.877124,-7.877124 M -2224.779739,-64.383313 l -4.347580,4.347580 M -2349.257823,60.094770 l 2.649126,-2.649126 M -2552.032007,262.868955 l -4.092104,4.092104 M -2133.260549,-150.245649 l 8.819975,-8.819975 M -2344.949333,61.443135 l -1.393323,1.393323 M -2552.454694,268.948496 l 4.501472,-4.501472 M -2124.869831,-152.979513 l -8.976265,8.976265 M -2548.718477,270.869133 l 5.076224,-5.076224 M -2125.209034,-146.983456 l -8.844028,8.844028 M -2535.616505,263.424015 l 2.495336,-2.495336 M -2538.786259,266.593769 l -6.080663,6.080663 M -2133.929496,-132.606139 l 8.625627,-8.625627 M -2243.687958,-22.847678 l -12.601984,12.601984 M -2540.781606,274.245971 l 11.818474,-11.818474 M -2125.167281,-135.711500 l -8.460536,8.460536 M -2257.414448,-3.464333 l 18.434649,-18.434649 M -2525.379171,264.500389 l -10.151917,10.151917 M -2133.056678,-122.165249 l 8.253585,-8.253585 M -2235.989169,-19.232758 l -21.037411,21.037411 M -2526.516869,271.294942 l 4.335369,-4.335369 M -2124.147756,-125.417317 l -7.921544,7.921544 M -2255.903859,6.338786 l 22.482099,-22.482099 M -2519.113493,269.548420 l -4.441643,4.441643 M -2130.862328,-113.045891 l 7.526219,-7.526219 M -2231.152956,-12.755263 l -23.149853,23.149853 M -2520.660182,276.751964 l 4.468089,-4.468089 M -2122.374066,-115.877298 l -7.125647,7.125647 M -2252.233153,13.981789 l 22.713069,-22.713069 M -2513.270694,275.019330 l -4.494534,4.494534 M -2128.017834,-104.576676 l 6.849056,-6.849056 M -2228.774826,-3.819683 l -20.839792,20.839792 M -2514.870274,282.275764 l 4.447584,-4.447584 M -2119.871741,-107.065915 l -6.492780,6.492780 M -2246.200477,19.262821 l 17.527301,-17.527301 M -2507.582822,280.645166 l -4.392498,4.392498 M -2124.630260,-96.650542 l 6.209656,-6.209656 M -2229.635596,8.354794 l -11.167224,11.167224 M -2509.080366,287.799565 l 4.337413,-4.337413 M -2116.838895,-98.785052 l -5.927823,5.927823 M -2506.185412,290.561465 l 4.280342,-4.280342 M -2115.182697,-94.784396 l -5.720480,5.720480 M -2503.299184,293.332091 l 4.230509,-4.230509 M -2113.260514,-91.049724 l -5.779121,5.779121 M -2465.551188,261.240949 l 4.096413,-4.096413 M -2496.232280,291.922041 l -4.192399,4.192399 M -2117.043738,-81.609646 l 5.806985,-5.806985 M -2253.683668,55.030283 l -1.770425,1.770425 M -2470.490227,271.836843 l 8.217600,-8.217600 M -2493.395884,294.742500 l -4.154289,4.154289 M -2114.982579,-78.013952 l 5.859200,-5.859200 M -2250.205497,57.208967 l -2.345576,2.345576 M -2470.057856,277.061325 l 7.894987,-7.894987 M -2490.467509,297.470979 l -4.208160,4.208160 M -2112.921419,-74.418257 l 6.003919,-6.003919 M -2245.555228,58.215552 l -3.524269,3.524269 M -2468.514246,281.174570 l 13.624343,-13.624343 M -2487.535767,300.196091 l -4.202884,4.202884 M -2110.860259,-70.822563 l 6.155678,-6.155678 M -2238.883568,57.200746 l -6.182180,6.182180 M -2466.827148,285.144326 l 20.618870,-20.618870 M -2484.433992,302.751170 l -4.320795,4.320795 M -2108.802507,-67.223460 l 6.303333,-6.303333 M -2229.288143,53.262176 l -11.339340,11.339340 M -2452.707244,276.681276 l 16.152586,-16.152586 M -2458.263339,282.237372 l -6.892174,6.892174 M -2485.700552,309.674585 l 4.511946,-4.511946 M -2100.359665,-70.009448 l -6.396177,6.396177 M -2235.195746,64.826633 l 12.275090,-12.275090 M -2423.305130,252.936017 l -20.246528,20.246528 M -2463.497860,293.128747 l 6.793058,-6.793058 M -2477.579962,307.210849 l -4.801753,4.801753 M -2104.709177,-60.003082 l 6.489020,-6.489020 M -2401.497078,236.784819 l -31.456892,31.456892 M -2461.947209,297.234950 l 6.789796,-6.789796 M -2473.745616,309.033357 l -4.959166,4.959166 M -2102.858339,-56.197066 l 6.713370,-6.713370 M -2386.502750,227.447345 l -33.765497,33.765497 M -2461.226526,302.171121 l 7.582004,-7.582004 M -2469.741718,310.686314 l -4.953720,4.953720 M -2101.042983,-52.355567 l 6.826337,-6.826337 M -2375.417466,222.018915 l -22.932495,22.932495 M -2469.970281,316.571730 l 17.378876,-17.378876 M -2092.485061,-55.256635 l -6.983265,6.983265 M -2378.541079,230.799383 l 12.429836,-12.429836 M -2452.516003,304.774307 l -11.017330,11.017330 M -2097.974576,-44.110266 l 7.021925,-7.021925 M -2357.936494,215.851652 l -9.830683,9.830683 M -2096.865405,-39.562583 l 7.249938,-7.249938 M -2350.741175,214.313187 l -8.347838,8.347838 M -2095.937728,-34.833406 l 7.659443,-7.659443 M -2344.016336,213.245202 l -7.433245,7.433245 M -2095.414344,-29.699935 l 8.312085,-8.312085 M -2337.608660,212.494381 l -6.967407,6.967407 M -2095.392340,-24.065085 l 9.321029,-9.321029 M -2331.744359,212.286934 l -4.158914,4.158914 M -2340.897017,221.439592 l 3.894115,-3.894115 M -2085.556662,-28.243908 l -10.258581,10.258581 M -2329.734654,215.934083 l 1.917419,-1.917419 M -2335.469560,221.668989 l -3.551318,3.551318 M -2096.757743,-11.385973 l 16.184050,-16.184050 M -2333.705225,225.561508 l -3.439514,3.439514 M -2083.536645,-18.950218 l 9.060057,-9.060057 M -2087.538488,-14.948374 l -10.791709,10.791709 M -2335.289443,232.802581 l 3.355461,-3.355461 M -2068.527509,-28.302498 l -8.893803,8.893803 M -2100.602373,3.772365 l 11.393198,-11.393198 M -2330.136661,233.306653 l -3.407796,3.407796 M -2071.637176,-19.535978 l 8.868910,-8.868910 M -2091.375645,0.202492 l -12.618258,12.618258 M -2331.920283,240.747130 l 3.563591,-3.563591 M -2057.183029,-28.333270 l -8.756855,8.756855 M -2109.043091,23.526792 l 14.628603,-14.628603 M -2326.811030,241.294730 l -3.307767,3.307767 M -2060.555142,-19.304303 l 8.801847,-8.801847 M -2098.847882,18.988437 l -18.335433,18.335433 M -2055.170400,-19.032191 l 8.670100,-8.670100 M -2105.928306,31.725715 l -22.658948,22.658948 M -2050.024115,-18.521621 l 8.640432,-8.640432 M -2036.420815,-26.468067 l -8.478293,8.478293 M -2039.891995,-17.340034 l 8.297336,-8.297336 M -2026.875180,-24.699993 l -8.156152,8.156152 M -2030.192993,-15.725327 l 7.880436,-7.880436 M -2017.790454,-22.471012 l -7.847152,7.847152 M -2021.169780,-13.434831 l 7.707675,-7.707675 M -2009.133758,-19.813999 l -7.701814,7.701814 M -2012.592641,-10.698262 l 7.620480,-7.620480 M -2000.848192,-16.785856 l -7.579643,7.579643 M -2004.341078,-7.636116 l 7.542046,-7.542046 M -1992.912035,-13.408305 l -7.404687,7.404687 M -1996.355135,-4.308351 l 7.330097,-7.330097 M -1985.243802,-9.762829 l -7.212429,7.212429 M -1988.608844,-0.740933 l 7.114587,-7.114587 M -1977.744712,-5.948211 l -7.086019,7.086019 M -1981.101453,3.065384 l 7.094331,-7.094331 M -1970.400019,-1.979195 l -7.049195,7.049195 M -1973.859666,7.137306 l 7.032595,-7.032595 M -1963.384304,2.318798 l -6.966077,6.966077 M -1966.871202,11.462550 l 6.770627,-6.770627 M -1957.050322,7.298524 l -6.144883,6.144883 M -2237.892472,339.052362 l 5.524560,-5.524560 M -2227.090703,333.907448 l -7.630392,7.630392 M -2231.234423,343.708022 l 7.921764,-7.921764 M -2219.534614,337.665068 l -8.303823,8.303823 M -2232.028692,355.816000 l 16.272122,-16.272122 M -2268.808654,392.595962 l -13.037120,13.037120 M -2241.158261,370.602423 l 29.222416,-29.222416 M -2252.225138,381.669300 l -26.384433,26.384433 M -2215.634523,350.735539 l 7.534074,-7.534074 M -2227.482425,362.583441 l -34.154330,34.154330 M -2211.425889,352.183760 l 7.160837,-7.160837 M -2200.404079,346.818804 l -7.023658,7.023658 M -2203.428110,355.499689 l 6.982789,-6.982789 M -2192.486563,350.214996 l -6.934603,6.934603 M -2195.414221,358.799508 l 6.886416,-6.886416 M -2184.451931,353.494072 l -6.937898,6.937898 M -2187.209131,361.908127 l 6.853098,-6.853098 M -2176.260136,356.615986 l -6.768299,6.768299 M -2178.847738,364.860442 l 6.790243,-6.790243 M -2167.807099,359.476658 l -6.685321,6.685321 M -2170.136672,367.463085 l 6.579969,-6.579969 M -1967.484600,170.467867 l -4.827100,4.827100 M -2165.771957,368.755224 l 6.593719,-6.593719 M -1963.583019,172.223140 l -5.742182,5.742182 M -2161.203065,369.843187 l 6.451923,-6.451923 M -1960.203883,174.500859 l -5.936831,5.936831 M -2156.634173,370.931149 l 6.310128,-6.310128 M -1956.985590,176.939420 l -5.736578,5.736578 M -2151.958619,371.912449 l 6.259540,-6.259540 M -1953.767298,179.377982 l -5.530061,5.530061 M -2147.133846,372.744530 l 6.067477,-6.067477 M -1950.247953,181.515492 l -5.587387,5.587387 M -2142.171146,373.438685 l 5.837652,-5.837652 M -1868.831241,105.755634 l -13.067788,13.067788 M -1943.049626,179.974019 l 4.083638,-4.083638 M -1945.524199,182.448592 l -6.977826,6.977826 M -2137.149884,374.074276 l 5.693217,-5.693217 M -1866.139523,108.720770 l -10.824463,10.824463 M -1959.950553,202.531800 l 20.790990,-20.790990 M -2126.557453,369.138700 l -5.411681,5.411681 M -1870.079891,118.317992 l 7.836810,-7.836810 M -1944.532904,192.771006 l -27.271243,27.271243 M -2126.741646,374.979748 l 5.357855,-5.357855 M -1857.354289,111.249244 l -5.435892,5.435892 M -1974.754499,228.649454 l 15.159584,-15.159584 M -2116.210129,370.105085 l -5.165842,5.165842 M -1855.662781,115.214591 l 3.577830,-3.577830 M -1965.063543,224.615353 l -9.893158,9.893158 M -2115.881592,375.433402 l 4.954920,-4.954920 M -1846.370441,111.579105 l -2.773875,2.773875 M -1857.751156,122.959820 l 2.112710,-2.112710 M -1965.493040,230.701704 l -8.996164,8.996164 M -2110.225366,375.434030 l 4.493255,-4.493255 M -1840.095053,110.960571 l -3.748937,3.748937 M -1851.806145,122.671663 l 3.662218,-3.662218 M -1965.455013,236.320531 l -7.876277,7.876277 M -2104.171513,375.037031 l 3.207585,-3.207585 M -1833.044154,109.566526 l -12.042565,12.042565 M -1971.318111,247.840483 l 6.940641,-6.940641 M -1824.957304,107.136531 l -12.923694,12.923694 M -1968.519059,250.698285 l 6.886964,-6.886964 M -1815.561795,103.397876 l -14.264239,14.264239 M -1965.071936,252.908017 l 7.511718,-7.511718 M -1804.630837,98.123772 l -14.495428,14.495428 M -1961.092832,254.585768 l 8.749342,-8.749342 M -1792.053065,91.202855 l -14.546943,14.546943 M -1956.453250,255.603040 l 9.592944,-9.592944 M -1779.147489,83.954132 l -14.168736,14.168736 M -1950.889261,255.695905 l 9.870302,-9.870302 M -1767.682034,78.145532 l -12.601319,12.601319 M -1944.414332,254.877830 l 10.358487,-10.358487 M -1757.581058,73.701411 l -10.801274,10.801274 M -1937.004811,253.125163 l 11.647270,-11.647270 M -1748.694062,70.471269 l -8.936795,8.936795 M -1928.638430,250.415637 l 13.800586,-13.800586 M -1740.833483,68.267544 l -7.232099,7.232099 M -1919.287711,246.721771 l 15.453595,-15.453595 M -1733.805760,66.896675 l -5.898915,5.898915 M -1908.873957,241.964872 l 16.108383,-16.108383 M -1727.433863,66.181632 l -5.267614,5.267614 M -1898.181287,236.929056 l 14.653812,-14.653812 M -1721.641648,66.046272 l -5.189470,5.189470 M -1893.572636,237.977259 l 16.209905,-16.209905 M -1716.864088,66.925566 l -4.879825,4.879825 M -1878.774252,228.835729 l 6.453918,-6.453918 M -1882.549444,232.610922 l -6.336860,6.336860 M -1717.713444,73.431776 l 4.173748,-4.173748 M -1877.310568,233.028900 l -6.674495,6.674495 M -1715.052605,76.427791 l 3.743151,-3.743151 M -1871.755262,233.130448 l -6.939235,6.939235 M -1714.767665,81.799706 l 4.435308,-4.435308 M -1730.170637,97.202677 l -32.975658,32.975658 M -1872.916543,239.948583 l 7.187121,-7.187121 M -1710.995607,83.684502 l -22.825699,22.825699 M -1772.595479,145.284374 l 11.754657,-11.754657 M -1858.857270,231.546165 l -7.732685,7.732685 M -1775.646537,153.992286 l 5.326693,-5.326693 M -1851.080912,229.426661 l -8.630464,8.630464 M -1776.899667,160.902270 l 7.202643,-7.202643 M -1842.417262,226.419866 l -9.871518,9.871518 M -1768.329465,157.988923 l 2.568779,-2.568779 M -1772.781616,162.441073 l -4.900642,4.900642 M -1844.366675,234.026133 l 10.730591,-10.730591 M -1761.564762,156.881074 l -2.391386,2.391386 M -1775.655206,170.971518 l 3.948191,-3.948191 M -1826.900425,222.216736 l -9.544146,9.544146 M -1759.526709,160.499875 l 2.531317,-2.531317 M -1769.915190,170.888356 l -2.747732,2.747732 M -1828.639459,229.612625 l 7.116606,-7.116606 M -1752.375644,159.005664 l -2.706461,2.706461 M -1821.830238,228.460258 l 5.297473,-5.297473 M -1747.466891,159.753765 l -3.106328,3.106328 M -1816.078435,228.365309 l 4.103911,-4.103911 M -1742.508901,160.452630 l -3.492423,3.492423 M -1811.370679,229.314408 l 3.606932,-3.606932 M -1737.782738,161.383321 l -3.646691,3.646691 M -1807.052032,230.652615 l 3.201690,-3.201690 M -1733.172262,162.429699 l -3.670417,3.670417 M -1803.081963,232.339401 l 2.938250,-2.938250 M -1728.687393,163.601684 l -3.552067,3.552067 M -1799.490886,234.405177 l 2.953785,-2.953785 M -1724.236539,164.807685 l -3.399702,3.399702 M -1769.982394,210.553540 l 7.023543,-7.023543 M -1793.058875,233.630020 l -2.962468,2.962468 M -1723.059491,169.287491 l 3.273806,-3.273806 M -1755.007074,201.235074 l -12.100388,12.100388 M -1792.695645,238.923645 l 3.032272,-3.032272 M -1715.362466,167.247321 l -3.177585,3.177585 M -1753.492985,205.377839 l 4.887966,-4.887966 M -1760.087646,211.972500 l -4.567721,4.567721 M -1789.424659,241.309513 l 3.072924,-3.072924 M -1710.981932,168.523641 l -3.038679,3.038679 M -1747.654804,205.196513 l 4.842888,-4.842888 M -1757.839962,215.381671 l -4.351429,4.351429 M -1786.237507,243.779215 l 3.197409,-3.197409 M -1706.601398,169.799961 l -3.002561,3.002561 M -1742.156469,205.355032 l 4.809457,-4.809457 M -1755.351724,218.550287 l -4.139054,4.139054 M -1783.050354,246.248917 l 3.321894,-3.321894 M -1702.220865,171.076282 l -3.008111,3.008111 M -1736.802405,205.657822 l 4.719299,-4.719299 M -1752.632322,221.487739 l -3.939256,3.939256 M -1779.844863,248.700280 l 3.428040,-3.428040 M -1697.932326,172.444597 l -3.058402,3.058402 M -1731.610085,206.122356 l 4.536432,-4.536432 M -1749.611810,224.124081 l -3.883942,3.883942 M -1776.626809,251.139080 l 3.526411,-3.526411 M -1693.666530,173.835655 l -3.184297,3.184297 M -1726.513363,206.682488 l 4.449990,-4.449990 M -1746.407386,226.576512 l -3.927965,3.927965 M -1773.407388,253.576513 l 3.623993,-3.623993 M -1689.549055,175.375035 l -3.468367,3.468367 M -1721.428762,207.254742 l 4.383241,-4.383241 M -1743.012456,228.838436 l -4.124627,4.124627 M -1769.984316,255.810295 l 3.517925,-3.517925 M -1685.981828,177.464662 l -3.478930,3.478930 M -1716.344161,207.826995 l 4.349400,-4.349400 M -1739.709652,231.192486 l -4.250945,4.250945 M -1766.561244,258.044078 l 3.600330,-3.600330 M -1682.908451,180.048140 l -3.453403,3.453403 M -1711.088807,208.228495 l 4.433889,-4.433889 M -1736.609625,233.749313 l -4.279612,4.279612 M -1762.836896,259.976584 l 3.429395,-3.429395 M -1680.281283,183.077826 l -3.635143,3.635143 M -1705.617876,208.414419 l 4.476275,-4.476275 M -1733.911655,236.708198 l -4.174822,4.174822 M -1758.984184,261.780727 l 3.289091,-3.289091 M -1678.170834,186.624231 l -4.007832,4.007832 M -1699.777762,208.231159 l 4.516262,-4.516262 M -1731.662401,240.115797 l -3.998137,3.998137 M -1754.786996,263.240392 l 3.156890,-3.156890 M -1676.636627,190.746878 l -5.055372,5.055372 M -1693.195676,207.305927 l 5.187957,-5.187957 M -1729.816688,243.926939 l -3.978632,3.978632 M -1750.278794,264.389045 l 3.372676,-3.372676 M -1676.175215,195.942320 l -8.876777,8.876777 M -1733.229666,252.996771 l 4.604813,-4.604813 M -1741.073212,260.840317 l -4.108161,4.108161 M -1738.610037,264.033997 l 9.980050,-9.980050"
             style="stroke:#000000;stroke-width:1.000000;fill:none"
             id="path3794" />
        </g>
      </g>
    </g>
  </g>
</svg>
