<?xml version="1.0" encoding="UTF-8" standalone="no"?>
<!-- Created with Inkscape (http://www.inkscape.org/) -->

<svg
   xmlns:dc="http://purl.org/dc/elements/1.1/"
   xmlns:cc="http://creativecommons.org/ns#"
   xmlns:rdf="http://www.w3.org/1999/02/22-rdf-syntax-ns#"
   xmlns:svg="http://www.w3.org/2000/svg"
   xmlns="http://www.w3.org/2000/svg"
   xmlns:sodipodi="http://sodipodi.sourceforge.net/DTD/sodipodi-0.dtd"
   xmlns:inkscape="http://www.inkscape.org/namespaces/inkscape"
   width="998.00031"
   height="859.73169"
   id="svg2"
   version="1.1"
   inkscape:version="0.48.4 r9939"
   sodipodi:docname="red.svg">
  <title
     id="title4349">Ghostbusters</title>
  <defs
     id="defs4" />
  <sodipodi:namedview
     id="base"
     pagecolor="#ffffff"
     bordercolor="#666666"
     borderopacity="1.0"
     inkscape:pageopacity="0.0"
     inkscape:pageshadow="2"
     inkscape:zoom="0.70710678"
     inkscape:cx="559.34641"
     inkscape:cy="554.78325"
     inkscape:document-units="px"
     inkscape:current-layer="g4463"
     showgrid="false"
     inkscape:window-width="1855"
     inkscape:window-height="1056"
     inkscape:window-x="65"
     inkscape:window-y="24"
     inkscape:window-maximized="1"
     fit-margin-top="0"
     fit-margin-left="0"
     fit-margin-right="0"
     fit-margin-bottom="0">
    <inkscape:grid
       type="xygrid"
       id="grid4347"
       empspacing="5"
       visible="true"
       enabled="true"
       snapvisiblegridlinesonly="true"
       originx="9.094947e-13px"
       originy="8.7900464e-06px" />
  </sodipodi:namedview>
  <metadata
     id="metadata7">
    <rdf:RDF>
      <cc:Work
         rdf:about="">
        <dc:format>image/svg+xml</dc:format>
        <dc:type
           rdf:resource="http://purl.org/dc/dcmitype/StillImage" />
        <dc:title>Ghostbusters</dc:title>
        <cc:license
           rdf:resource="http://creativecommons.org/licenses/publicdomain/" />
        <dc:date>2013-12-28</dc:date>
        <dc:creator>
          <cc:Agent>
            <dc:title>Sven Arvidsson</dc:title>
          </cc:Agent>
        </dc:creator>
        <dc:description>Ghostbusters logo</dc:description>
      </cc:Work>
      <cc:License
         rdf:about="http://creativecommons.org/licenses/publicdomain/">
        <cc:permits
           rdf:resource="http://creativecommons.org/ns#Reproduction" />
        <cc:permits
           rdf:resource="http://creativecommons.org/ns#Distribution" />
        <cc:permits
           rdf:resource="http://creativecommons.org/ns#DerivativeWorks" />
      </cc:License>
    </rdf:RDF>
  </metadata>
  <g
     inkscape:groupmode="layer"
     id="layer6"
     inkscape:label="Background"
     style="display:inline" />
  <g
     inkscape:groupmode="layer"
     id="layer5"
     inkscape:label="Shadow"
     style="display:inline"
     transform="translate(2674.0261,279.85253)" />
  <g
     inkscape:groupmode="layer"
     id="layer4"
     inkscape:label="Sign"
     style="display:inline"
     transform="translate(2674.0261,279.85253)" />
  <g
     inkscape:groupmode="layer"
     id="layer3"
     inkscape:label="Ghost"
     style="display:inline"
     transform="translate(2674.0261,279.85253)">
    <g
       id="g4631">
      <g
         id="g4463"
         style="fill:none;stroke-width:2;stroke-miterlimit:4;stroke-dasharray:none;stroke:#ff0000;stroke-opacity:1">
        <g
           style="display:inline;fill:none;stroke-width:2;stroke-miterlimit:4;stroke-dasharray:none;stroke:#ff0000;stroke-opacity:1"
           id="g4323"
           transform="translate(576,-732)" />
        <path
           inkscape:connector-curvature="0"
           style="fill:none;fill-opacity:1;stroke:#ff0000;display:inline;stroke-opacity:1;stroke-width:2;stroke-miterlimit:4;stroke-dasharray:none"
           d="m -1736.5312,205.6875 c -0.9364,-0.0721 -1.7574,-0.19572 -2.7188,-0.25 -2.906,-0.16408 -5.8879,-0.24857 -8.625,-0.25 -2.7371,-0.001 -5.2167,0.0885 -7.1875,0.25 -1.9708,0.16152 -3.4244,0.39395 -4.0313,0.71875 -0.5319,0.28467 -1.0005,0.78594 -1.3437,1.375 -0.3432,0.58906 -0.5736,1.26592 -0.5625,1.875 0.015,0.82246 0.5185,2.02986 1.3438,3.4375 0.8252,1.40764 1.9834,3.00555 3.3124,4.625 1.3291,1.61945 2.8487,3.26088 4.375,4.71875 1.5264,1.45787 3.0515,2.73333 4.4688,3.65625 4.5336,2.95219 7.2516,4.82512 9.2812,6.46875 0.8776,-8.79102 1.3879,-17.67291 1.6876,-26.625 z"
           id="path4112" />
        <path
           style="fill:none;fill-opacity:1;stroke:#ff0000;display:inline;stroke-opacity:1;stroke-width:2;stroke-miterlimit:4;stroke-dasharray:none"
           d="m -1743.75,114.78125 c -1.3458,1.07021 -4.0443,3.47281 -4.375,3.59375 -0.5185,0.1896 -1.2906,0.81236 -2.25,1.78125 -0.9594,0.96889 -2.0945,2.28317 -3.3438,3.8125 -2.4984,3.05866 -5.4357,7.01262 -8.1874,11 -2.7518,3.98738 -5.3282,7.99088 -7.125,11.15625 -0.8985,1.58268 -1.5981,2.95108 -2.0313,4 -0.4332,1.04892 -0.5894,1.76619 -0.4063,2.0625 0.2446,0.39568 0.6604,0.80945 1.25,1.21875 0.5897,0.4093 1.3556,0.83823 2.25,1.25 1.789,0.82353 4.1398,1.63984 6.9063,2.40625 2.7665,0.76641 5.9221,1.47377 9.3437,2.09375 3.4217,0.61998 7.1206,1.14701 10.875,1.53125 0.4561,0.0467 2.357,0.52929 3.375,0.75 -1.2107,-15.81058 -3.263,-31.40281 -6.2812,-46.65625 z"
           id="path4110"
           inkscape:connector-curvature="0" />
        <path
           style="fill:none;fill-opacity:1;stroke:#ff0000;display:inline;stroke-opacity:1;stroke-width:2;stroke-miterlimit:4;stroke-dasharray:none"
           d="m -2499.8438,296.6875 c 44.7298,163.0891 193.6836,282.3715 375.7813,283.1875 194.6903,0.8723 348.1535,-135.4736 381.1875,-315.0625 -0.9861,0.11157 -1.9644,0.1851 -2.9375,0.15625 -1.1595,-0.0344 -2.3376,-0.16725 -3.6563,-0.40625 -1.3186,-0.239 -2.7666,-0.58191 -4.4374,-1.03125 -2.0207,-0.54341 -4.02,-1.21805 -6.0626,-2.09375 -2.0425,-0.8757 -4.1259,-1.95224 -6.3437,-3.25 -2.2178,-1.29776 -4.5785,-2.81542 -7.125,-4.625 -2.5465,-1.80958 -5.2838,-3.90132 -8.3125,-6.3125 -6.827,-5.43508 -11.7109,-9.09618 -15.7812,-11.71875 -2.0352,-1.31129 -3.893,-2.37299 -5.6563,-3.25 -1.7633,-0.87701 -3.4491,-1.56554 -5.2187,-2.1875 -2.0538,-0.72183 -4.001,-1.25595 -5.9688,-1.5625 -1.9678,-0.30655 -3.9514,-0.40502 -6.0938,-0.28125 -2.1423,0.12377 -4.4226,0.4621 -7,1.03125 -2.5773,0.56915 -5.4457,1.37667 -8.7187,2.40625 -6.7902,2.136 -12.7201,3.85409 -18,5.15625 -3.257,0.80328 -5.9177,1.18289 -8.75,1.6875 C -1884.9368,358.8021 -1995.5073,461 -2124.0625,461 c -71.3874,0 -136.9115,-31.1884 -185.5937,-79.625 l 435.8124,-275.15625 c 0.062,0.18339 0.095,0.37893 0.1563,0.5625 0.2231,-0.20002 0.3856,-0.45456 0.625,-0.625 l 2.8437,-2.03125 2.625,3.09375 c 0.5673,0.67419 1.0591,1.21625 1.5938,1.65625 0.5347,0.44 1.093,0.78042 1.7812,1.0625 1.3765,0.56416 3.2682,0.89113 6.375,1.28125 2.3933,0.30051 4.7502,0.48452 7.125,0.53125 2.3749,0.0467 4.7462,-0.0577 7.1563,-0.28125 2.4101,-0.22357 4.8761,-0.58335 7.375,-1.09375 2.4989,-0.5104 5.046,-1.155 7.6875,-1.96875 2.6415,-0.81375 5.3499,-1.80387 8.1875,-2.9375 2.8376,-1.13363 5.7876,-2.40496 8.875,-3.875 6.1749,-2.94009 12.9102,-6.58387 20.4063,-10.96875 7.7261,-4.5195 14.7869,-8.33827 21.3124,-11.53125 3.2628,-1.59649 6.3849,-3.05827 9.4063,-4.34375 1.9645,-0.83579 3.8114,-1.50964 5.6875,-2.21875 -49.6012,-156.68373 -194.3331,-271.43791 -370.1562,-270.15625 -0.8599,0.006 -1.704,0.0823 -2.5626,0.0937 -0.2214,0.20361 -0.5054,0.3805 -0.6562,0.625 -0.2758,0.44718 -0.441,0.97047 -0.5625,1.6875 -0.1215,0.71703 -0.2079,1.6223 -0.2813,2.78125 -0.089,1.40575 0.1204,3.89334 0.5313,6.875 0.4109,2.98166 1.0382,6.47118 1.7813,9.8125 1.2132,5.45515 1.8415,8.57091 2.0624,11.65625 0.1105,1.54267 0.1078,3.07203 0.031,4.875 -0.077,1.80297 -0.2147,3.89947 -0.4375,6.53125 -0.442,5.22064 -0.5866,10.28185 -0.4062,15.25 0.1803,4.96815 0.6808,9.84348 1.5,14.65625 0.8191,4.81277 1.963,9.55801 3.4374,14.3125 1.4745,4.75449 3.26,9.51918 5.4063,14.3125 1.8709,3.75243 3.902,7.20172 5.9687,10.53125 1.6305,2.6267 3.2913,5.15408 4.9376,7.6875 65.0822,5.41342 122.2271,33.65573 164.9374,76.5625 L -2377.5315,276.375 c -4.7236,-12.66914 -8.4656,-25.69957 -11.2813,-38.93755 -0.1513,0.1126 -0.2219,0.13536 -0.375,0.25 -3.0451,2.28027 -6.4369,4.95817 -9.4375,7.46875 -6.0012,5.02116 -13.9775,11.17592 -17.75,13.6875 -2.3647,1.57439 -5.1671,3.25553 -8.1562,4.9375 -2.9892,1.68197 -6.1853,3.38903 -9.375,4.9688 -3.1898,1.5797 -6.377,3.0448 -9.3438,4.3125 -2.9668,1.2676 -5.7112,2.3167 -8.0312,3.0625 -2.1305,0.6847 -4.0641,1.4407 -5.4688,2.0937 -1.4047,0.653 -2.2804,1.2253 -2.2812,1.5313 0,0.6118 1.3781,4.4368 3.0624,8.5 1.1123,2.6829 1.9793,4.9942 2.5938,7.0625 0.6145,2.0682 0.995,3.8824 1.125,5.5 0.13,1.6175 0,3.044 -0.3438,4.375 -0.3414,1.3309 -0.9191,2.5729 -1.7187,3.7812 -0.5837,0.882 -1.2244,1.7 -1.9375,2.4375 -0.7131,0.7375 -1.4906,1.3814 -2.3125,1.9688 -0.8219,0.5874 -1.6838,1.0997 -2.5937,1.5312 -0.91,0.4316 -1.8663,0.7925 -2.8438,1.0625 -0.9775,0.27 -1.9757,0.4597 -3,0.5625 -1.0243,0.1028 -2.0745,0.1015 -3.125,0.031 -1.0505,-0.07 -2.1001,-0.2199 -3.1562,-0.4687 -1.0562,-0.2489 -2.1153,-0.5981 -3.1563,-1.0313 -1.8655,-0.7763 -3.4193,-1.4522 -4.9687,-2.3437 -1.5495,-0.8916 -3.1022,-1.982 -5,-3.5313 -1.8979,-1.5493 -4.1207,-3.5631 -7.0313,-6.3125 -1.6805,-1.5874 -4.2135,-4.0575 -6.4063,-6.1875 z"
           id="path4094"
           inkscape:connector-curvature="0" />
        <path
           style="fill:none;fill-opacity:1;stroke:#ff0000;display:inline;stroke-opacity:1;stroke-width:2;stroke-miterlimit:4;stroke-dasharray:none"
           d="m -2328.9062,-141.09375 c -103.7408,62.44613 -174.974,172.21807 -183.7813,306.84375 0.118,0.0622 0.9929,0.47736 1.0937,0.53125 0.845,0.45146 2.0548,0.90865 3.3438,1.3125 1.289,0.40385 2.6391,0.74497 3.75,0.90625 l 4.0625,0.59375 21.0625,-19.25 c 11.595,-10.57549 24.404,-21.91875 28.4375,-25.21875 2.4524,-2.00648 4.8359,-4.15389 7.2813,-6.59375 2.4453,-2.43986 4.9362,-5.17529 7.625,-8.34375 2.6887,-3.16846 5.5673,-6.77646 8.75,-10.96875 3.1826,-4.19229 6.6666,-8.95741 10.5937,-14.46875 4.3225,-6.06619 8.1288,-11.21498 11.6563,-15.6875 3.5274,-4.47252 6.7696,-8.28249 10.0312,-11.71875 3.2616,-3.43626 6.5377,-6.48009 10.0625,-9.4375 3.5248,-2.95741 7.3079,-5.80777 11.625,-8.84375 0.3279,-0.23063 0.5471,-0.4956 0.625,-0.8125 0.078,-0.3169 0.01,-0.71373 -0.2187,-1.25 -0.4578,-1.07254 -1.568,-2.68893 -3.5938,-5.4375 -2.0286,-2.75236 -3.8945,-5.6161 -5.5938,-8.5625 -1.6992,-2.9464 -3.2315,-5.99189 -4.5937,-9.09375 -1.3622,-3.10186 -2.5765,-6.28126 -3.5937,-9.5 -1.0173,-3.21874 -1.8354,-6.4842 -2.5,-9.78125 -0.6647,-3.29705 -1.1646,-6.60073 -1.4688,-9.9375 -0.3042,-3.33677 -0.439,-6.69333 -0.375,-10.03125 0.064,-3.33792 0.3412,-6.66826 0.7812,-9.96875 0.4401,-3.30049 1.0512,-6.58802 1.875,-9.8125 0.666,-2.60661 1.4138,-5.09709 2.25,-7.5625 0.8363,-2.46541 1.7511,-4.90532 2.8126,-7.3125 1.0614,-2.40718 2.2524,-4.78682 3.5937,-7.21875 1.3413,-2.43193 2.8553,-4.89784 4.5313,-7.4375 1.6759,-2.53966 3.5284,-5.1759 5.5937,-7.90625 2.0653,-2.73035 4.3343,-5.55848 6.8437,-8.5625 5.0189,-6.00805 10.9699,-12.64942 18.0938,-20.25 2.4844,-2.65067 6.114,-7.27039 9.4375,-11.90625 3.3235,-4.63586 6.3471,-9.28431 7.6875,-11.96875 0.7719,-1.54589 1.5613,-3.43708 2.1875,-5.21875 0.017,-0.0478 0.015,-0.0773 0.031,-0.125 z"
           id="path4090"
           inkscape:connector-curvature="0" />
      </g>
    </g>
  </g>
</svg>
