<?xml version="1.0" encoding="UTF-8" standalone="no"?>
<!-- Created with Inkscape (http://www.inkscape.org/) -->

<svg
   xmlns:dc="http://purl.org/dc/elements/1.1/"
   xmlns:cc="http://creativecommons.org/ns#"
   xmlns:rdf="http://www.w3.org/1999/02/22-rdf-syntax-ns#"
   xmlns:svg="http://www.w3.org/2000/svg"
   xmlns="http://www.w3.org/2000/svg"
   xmlns:sodipodi="http://sodipodi.sourceforge.net/DTD/sodipodi-0.dtd"
   xmlns:inkscape="http://www.inkscape.org/namespaces/inkscape"
   sodipodi:docname="red.svg"
   inkscape:version="0.48.4 r9939"
   version="1.1"
   id="svg2"
   height="859.73169"
   width="998.00031">
  <sodipodi:namedview
     id="base"
     pagecolor="#ffffff"
     bordercolor="#666666"
     borderopacity="1.0"
     inkscape:pageopacity="0.0"
     inkscape:pageshadow="2"
     inkscape:zoom="0.70710678"
     inkscape:cx="559.34641"
     inkscape:cy="554.78325"
     inkscape:document-units="px"
     inkscape:current-layer="svg2"
     showgrid="false"
     inkscape:window-width="1855"
     inkscape:window-height="1056"
     inkscape:window-x="65"
     inkscape:window-y="24"
     inkscape:window-maximized="1"
     fit-margin-top="0"
     fit-margin-left="0"
     fit-margin-right="0"
     fit-margin-bottom="0">
    <inkscape:grid
       originy="8.7900464e-06px"
       originx="9.094947e-13px"
       snapvisiblegridlinesonly="true"
       enabled="true"
       visible="true"
       empspacing="5"
       id="grid4347"
       type="xygrid" />
  </sodipodi:namedview>
  <title
     id="title4349">Ghostbusters</title>
  <defs
     id="defs4" />
  <metadata
     id="metadata7">
    <rdf:RDF>
      <cc:Work
         rdf:about="">
        <dc:format>image/svg+xml</dc:format>
        <dc:type
           rdf:resource="http://purl.org/dc/dcmitype/StillImage" />
        <dc:title>Ghostbusters</dc:title>
        <cc:license
           rdf:resource="http://creativecommons.org/licenses/publicdomain/" />
        <dc:date>2013-12-28</dc:date>
        <dc:creator>
          <cc:Agent>
            <dc:title>Sven Arvidsson</dc:title>
          </cc:Agent>
        </dc:creator>
        <dc:description>Ghostbusters logo</dc:description>
      </cc:Work>
      <cc:License
         rdf:about="http://creativecommons.org/licenses/publicdomain/">
        <cc:permits
           rdf:resource="http://creativecommons.org/ns#Reproduction" />
        <cc:permits
           rdf:resource="http://creativecommons.org/ns#Distribution" />
        <cc:permits
           rdf:resource="http://creativecommons.org/ns#DerivativeWorks" />
      </cc:License>
    </rdf:RDF>
  </metadata>
  <g
     style="display:inline"
     inkscape:label="Background"
     id="layer6"
     inkscape:groupmode="layer" />
  <g
     transform="translate(2674.0261,279.85253)"
     style="display:inline"
     inkscape:label="Shadow"
     id="layer5"
     inkscape:groupmode="layer" />
  <g
     transform="translate(2674.0261,279.85253)"
     style="display:inline"
     inkscape:label="Sign"
     id="layer4"
     inkscape:groupmode="layer" />
  <g
     transform="translate(2674.0261,279.85253)"
     style="display:inline"
     inkscape:label="Ghost"
     id="layer3"
     inkscape:groupmode="layer">
    <g
       id="g4631">
      <g
         style="fill:none;stroke-width:2;stroke-miterlimit:4;stroke-dasharray:none;stroke:#ff0000;stroke-opacity:1"
         id="g4463">
        <g
           transform="translate(576,-732)"
           id="g4323"
           style="display:inline;fill:none;stroke-width:2;stroke-miterlimit:4;stroke-dasharray:none;stroke:#ff0000;stroke-opacity:1" />
        <g
           id="g4027">
          <path
             inkscape:connector-curvature="0"
             id="path4090"
             d="m -2328.9062,-141.09375 c -103.7408,62.44613 -174.974,172.21807 -183.7813,306.84375 0.118,0.0622 0.9929,0.47736 1.0937,0.53125 0.845,0.45146 2.0548,0.90865 3.3438,1.3125 1.289,0.40385 2.6391,0.74497 3.75,0.90625 l 4.0625,0.59375 21.0625,-19.25 c 11.595,-10.57549 24.404,-21.91875 28.4375,-25.21875 2.4524,-2.00648 4.8359,-4.15389 7.2813,-6.59375 2.4453,-2.43986 4.9362,-5.17529 7.625,-8.34375 2.6887,-3.16846 5.5673,-6.77646 8.75,-10.96875 3.1826,-4.19229 6.6666,-8.95741 10.5937,-14.46875 4.3225,-6.06619 8.1288,-11.21498 11.6563,-15.6875 3.5274,-4.47252 6.7696,-8.28249 10.0312,-11.71875 3.2616,-3.43626 6.5377,-6.48009 10.0625,-9.4375 3.5248,-2.95741 7.3079,-5.80777 11.625,-8.84375 0.3279,-0.23063 0.5471,-0.4956 0.625,-0.8125 0.078,-0.3169 0.01,-0.71373 -0.2187,-1.25 -0.4578,-1.07254 -1.568,-2.68893 -3.5938,-5.4375 -2.0286,-2.75236 -3.8945,-5.6161 -5.5938,-8.5625 -1.6992,-2.9464 -3.2315,-5.99189 -4.5937,-9.09375 -1.3622,-3.10186 -2.5765,-6.28126 -3.5937,-9.5 -1.0173,-3.21874 -1.8354,-6.4842 -2.5,-9.78125 -0.6647,-3.29705 -1.1646,-6.60073 -1.4688,-9.9375 -0.3042,-3.33677 -0.439,-6.69333 -0.375,-10.03125 0.064,-3.33792 0.3412,-6.66826 0.7812,-9.96875 0.4401,-3.30049 1.0512,-6.58802 1.875,-9.8125 0.666,-2.60661 1.4138,-5.09709 2.25,-7.5625 0.8363,-2.46541 1.7511,-4.90532 2.8126,-7.3125 1.0614,-2.40718 2.2524,-4.78682 3.5937,-7.21875 1.3413,-2.43193 2.8553,-4.89784 4.5313,-7.4375 1.6759,-2.53966 3.5284,-5.1759 5.5937,-7.90625 2.0653,-2.73035 4.3343,-5.55848 6.8437,-8.5625 5.0189,-6.00805 10.9699,-12.64942 18.0938,-20.25 2.4844,-2.65067 6.114,-7.27039 9.4375,-11.90625 3.3235,-4.63586 6.3471,-9.28431 7.6875,-11.96875 0.7719,-1.54589 1.5613,-3.43708 2.1875,-5.21875 0.017,-0.0478 0.015,-0.0773 0.031,-0.125 z"
             style="fill:none;fill-opacity:1;stroke:#ff0000;display:inline;stroke-opacity:1;stroke-width:2;stroke-miterlimit:4;stroke-dasharray:none" />
          <path
             id="path4030"
             style="stroke:#000000;stroke-width:1.000000;fill:none"
             d="M -2364.124205,-117.085988 l -70.097505,70.097505 M -2453.654699,-19.070213 l 117.534236,-117.534236 M -2335.265653,-128.973978 l -130.484129,130.484129 M -2474.683970,18.929621 l 100.297568,-100.297568 M -2386.991912,-60.277155 l -94.750927,94.750927 M -2487.498160,48.714374 l 96.033354,-96.033354 M -2393.720727,-36.577778 l -98.509594,98.509594 M -2496.227661,74.414437 l 101.716979,-101.716979 M -2394.367674,-18.960269 l -105.245110,105.245110 M -2502.482063,97.639402 l 108.904226,-108.904226 M -2392.313247,-4.044133 l -112.599178,112.599178 M -2506.966131,119.094032 l 116.380168,-116.380168 M -2388.363235,8.976418 l -120.330977,120.330977 M -2510.083612,139.182077 l 124.194778,-124.194778 M -2383.041055,20.624801 l -128.150292,128.150292 M -2512.076838,158.145865 l 132.220679,-132.220679 M -2376.503237,31.057545 l -135.180176,135.180176 M -2382.133876,45.173466 l 9.024597,-9.024597 M -2402.810632,65.850222 l -102.462853,102.462853 M -2468.882677,140.407549 l 41.257112,-41.257112" />
        </g>
        <g
           id="g4032">
          <path
             inkscape:connector-curvature="0"
             id="path4110"
             d="m -1743.75,114.78125 c -1.3458,1.07021 -4.0443,3.47281 -4.375,3.59375 -0.5185,0.1896 -1.2906,0.81236 -2.25,1.78125 -0.9594,0.96889 -2.0945,2.28317 -3.3438,3.8125 -2.4984,3.05866 -5.4357,7.01262 -8.1874,11 -2.7518,3.98738 -5.3282,7.99088 -7.125,11.15625 -0.8985,1.58268 -1.5981,2.95108 -2.0313,4 -0.4332,1.04892 -0.5894,1.76619 -0.4063,2.0625 0.2446,0.39568 0.6604,0.80945 1.25,1.21875 0.5897,0.4093 1.3556,0.83823 2.25,1.25 1.789,0.82353 4.1398,1.63984 6.9063,2.40625 2.7665,0.76641 5.9221,1.47377 9.3437,2.09375 3.4217,0.61998 7.1206,1.14701 10.875,1.53125 0.4561,0.0467 2.357,0.52929 3.375,0.75 -1.2107,-15.81058 -3.263,-31.40281 -6.2812,-46.65625 z"
             style="fill:none;fill-opacity:1;stroke:#ff0000;display:inline;stroke-opacity:1;stroke-width:2;stroke-miterlimit:4;stroke-dasharray:none" />
          <path
             id="path4035"
             style="stroke:#000000;stroke-width:1.000000;fill:none"
             d="M -1743.017852,118.821077 l -23.732332,23.732332 M -1769.510978,153.799485 l 27.794994,-27.794994 M -1740.606264,133.380052 l -22.848834,22.848834 M -1756.766161,158.025230 l 17.184495,-17.184495 M -1738.679236,148.423587 l -11.017394,11.017394 M -1742.258650,160.488283 l 4.314181,-4.314181" />
        </g>
        <g
           id="g4037">
          <path
             id="path4112"
             d="m -1736.5312,205.6875 c -0.9364,-0.0721 -1.7574,-0.19572 -2.7188,-0.25 -2.906,-0.16408 -5.8879,-0.24857 -8.625,-0.25 -2.7371,-0.001 -5.2167,0.0885 -7.1875,0.25 -1.9708,0.16152 -3.4244,0.39395 -4.0313,0.71875 -0.5319,0.28467 -1.0005,0.78594 -1.3437,1.375 -0.3432,0.58906 -0.5736,1.26592 -0.5625,1.875 0.015,0.82246 0.5185,2.02986 1.3438,3.4375 0.8252,1.40764 1.9834,3.00555 3.3124,4.625 1.3291,1.61945 2.8487,3.26088 4.375,4.71875 1.5264,1.45787 3.0515,2.73333 4.4688,3.65625 4.5336,2.95219 7.2516,4.82512 9.2812,6.46875 0.8776,-8.79102 1.3879,-17.67291 1.6876,-26.625 z"
             style="fill:none;fill-opacity:1;stroke:#ff0000;display:inline;stroke-opacity:1;stroke-width:2;stroke-miterlimit:4;stroke-dasharray:none"
             inkscape:connector-curvature="0" />
          <path
             id="path4040"
             style="stroke:#000000;stroke-width:1.000000;fill:none"
             d="M -1753.202030,205.372788 l -6.794651,6.794651 M -1756.539484,217.195523 l 11.913839,-11.913839 M -1736.544918,205.686239 l -15.942209,15.942209 M -1747.894433,225.521035 l 10.946499,-10.946499 M -1737.524484,223.636367 l -5.397876,5.397876" />
        </g>
        <g
           id="g4042">
          <path
             inkscape:connector-curvature="0"
             id="path4094"
             d="m -2499.8438,296.6875 c 44.7298,163.0891 193.6836,282.3715 375.7813,283.1875 194.6903,0.8723 348.1535,-135.4736 381.1875,-315.0625 -0.9861,0.11157 -1.9644,0.1851 -2.9375,0.15625 -1.1595,-0.0344 -2.3376,-0.16725 -3.6563,-0.40625 -1.3186,-0.239 -2.7666,-0.58191 -4.4374,-1.03125 -2.0207,-0.54341 -4.02,-1.21805 -6.0626,-2.09375 -2.0425,-0.8757 -4.1259,-1.95224 -6.3437,-3.25 -2.2178,-1.29776 -4.5785,-2.81542 -7.125,-4.625 -2.5465,-1.80958 -5.2838,-3.90132 -8.3125,-6.3125 -6.827,-5.43508 -11.7109,-9.09618 -15.7812,-11.71875 -2.0352,-1.31129 -3.893,-2.37299 -5.6563,-3.25 -1.7633,-0.87701 -3.4491,-1.56554 -5.2187,-2.1875 -2.0538,-0.72183 -4.001,-1.25595 -5.9688,-1.5625 -1.9678,-0.30655 -3.9514,-0.40502 -6.0938,-0.28125 -2.1423,0.12377 -4.4226,0.4621 -7,1.03125 -2.5773,0.56915 -5.4457,1.37667 -8.7187,2.40625 -6.7902,2.136 -12.7201,3.85409 -18,5.15625 -3.257,0.80328 -5.9177,1.18289 -8.75,1.6875 C -1884.9368,358.8021 -1995.5073,461 -2124.0625,461 c -71.3874,0 -136.9115,-31.1884 -185.5937,-79.625 l 435.8124,-275.15625 c 0.062,0.18339 0.095,0.37893 0.1563,0.5625 0.2231,-0.20002 0.3856,-0.45456 0.625,-0.625 l 2.8437,-2.03125 2.625,3.09375 c 0.5673,0.67419 1.0591,1.21625 1.5938,1.65625 0.5347,0.44 1.093,0.78042 1.7812,1.0625 1.3765,0.56416 3.2682,0.89113 6.375,1.28125 2.3933,0.30051 4.7502,0.48452 7.125,0.53125 2.3749,0.0467 4.7462,-0.0577 7.1563,-0.28125 2.4101,-0.22357 4.8761,-0.58335 7.375,-1.09375 2.4989,-0.5104 5.046,-1.155 7.6875,-1.96875 2.6415,-0.81375 5.3499,-1.80387 8.1875,-2.9375 2.8376,-1.13363 5.7876,-2.40496 8.875,-3.875 6.1749,-2.94009 12.9102,-6.58387 20.4063,-10.96875 7.7261,-4.5195 14.7869,-8.33827 21.3124,-11.53125 3.2628,-1.59649 6.3849,-3.05827 9.4063,-4.34375 1.9645,-0.83579 3.8114,-1.50964 5.6875,-2.21875 -49.6012,-156.68373 -194.3331,-271.43791 -370.1562,-270.15625 -0.8599,0.006 -1.704,0.0823 -2.5626,0.0937 -0.2214,0.20361 -0.5054,0.3805 -0.6562,0.625 -0.2758,0.44718 -0.441,0.97047 -0.5625,1.6875 -0.1215,0.71703 -0.2079,1.6223 -0.2813,2.78125 -0.089,1.40575 0.1204,3.89334 0.5313,6.875 0.4109,2.98166 1.0382,6.47118 1.7813,9.8125 1.2132,5.45515 1.8415,8.57091 2.0624,11.65625 0.1105,1.54267 0.1078,3.07203 0.031,4.875 -0.077,1.80297 -0.2147,3.89947 -0.4375,6.53125 -0.442,5.22064 -0.5866,10.28185 -0.4062,15.25 0.1803,4.96815 0.6808,9.84348 1.5,14.65625 0.8191,4.81277 1.963,9.55801 3.4374,14.3125 1.4745,4.75449 3.26,9.51918 5.4063,14.3125 1.8709,3.75243 3.902,7.20172 5.9687,10.53125 1.6305,2.6267 3.2913,5.15408 4.9376,7.6875 65.0822,5.41342 122.2271,33.65573 164.9374,76.5625 L -2377.5315,276.375 c -4.7236,-12.66914 -8.4656,-25.69957 -11.2813,-38.93755 -0.1513,0.1126 -0.2219,0.13536 -0.375,0.25 -3.0451,2.28027 -6.4369,4.95817 -9.4375,7.46875 -6.0012,5.02116 -13.9775,11.17592 -17.75,13.6875 -2.3647,1.57439 -5.1671,3.25553 -8.1562,4.9375 -2.9892,1.68197 -6.1853,3.38903 -9.375,4.9688 -3.1898,1.5797 -6.377,3.0448 -9.3438,4.3125 -2.9668,1.2676 -5.7112,2.3167 -8.0312,3.0625 -2.1305,0.6847 -4.0641,1.4407 -5.4688,2.0937 -1.4047,0.653 -2.2804,1.2253 -2.2812,1.5313 0,0.6118 1.3781,4.4368 3.0624,8.5 1.1123,2.6829 1.9793,4.9942 2.5938,7.0625 0.6145,2.0682 0.995,3.8824 1.125,5.5 0.13,1.6175 0,3.044 -0.3438,4.375 -0.3414,1.3309 -0.9191,2.5729 -1.7187,3.7812 -0.5837,0.882 -1.2244,1.7 -1.9375,2.4375 -0.7131,0.7375 -1.4906,1.3814 -2.3125,1.9688 -0.8219,0.5874 -1.6838,1.0997 -2.5937,1.5312 -0.91,0.4316 -1.8663,0.7925 -2.8438,1.0625 -0.9775,0.27 -1.9757,0.4597 -3,0.5625 -1.0243,0.1028 -2.0745,0.1015 -3.125,0.031 -1.0505,-0.07 -2.1001,-0.2199 -3.1562,-0.4687 -1.0562,-0.2489 -2.1153,-0.5981 -3.1563,-1.0313 -1.8655,-0.7763 -3.4193,-1.4522 -4.9687,-2.3437 -1.5495,-0.8916 -3.1022,-1.982 -5,-3.5313 -1.8979,-1.5493 -4.1207,-3.5631 -7.0313,-6.3125 -1.6805,-1.5874 -4.2135,-4.0575 -6.4063,-6.1875 z"
             style="fill:none;fill-opacity:1;stroke:#ff0000;display:inline;stroke-opacity:1;stroke-width:2;stroke-miterlimit:4;stroke-dasharray:none" />
          <path
             id="path4045"
             style="stroke:#000000;stroke-width:1.000000;fill:none"
             d="M -2122.396497,-197.593350 l -6.354656,6.354656 M -2127.948293,-183.556273 l 13.925937,-13.925937 M -2105.755622,-197.263662 l -20.888971,20.888971 M -2125.192327,-169.341677 l 27.482896,-27.482896 M -2089.759123,-196.289598 l -34.693792,34.693792 M -2124.875258,-152.688183 l 42.857518,-42.857518 M -2074.347226,-194.730933 l -50.959759,50.959759 M -2125.144074,-135.448804 l 58.253546,-58.253546 M -2059.469517,-192.638080 l -64.976321,64.976321 M -2123.280842,-120.341473 l 71.000896,-71.000896 M -2045.090376,-190.046657 l -76.619104,76.619104 M -2119.791874,-106.859879 l 81.646469,-81.646469 M -2031.207604,-186.958866 l -86.377819,86.377819 M -2115.109132,-94.572057 l 90.656857,-90.656857 M -2017.752787,-183.443121 l -94.426685,94.426685 M -2499.395322,298.199414 l 0.548753,-0.548753 M -2011.170874,-181.539753 l -97.841848,97.841848 M -2497.454150,304.743524 l 2.923932,-2.923932 M -2004.697890,-179.527455 l -100.998221,100.998221 M -2495.512978,311.287633 l 5.414756,-5.414756 M -1998.275637,-177.464427 l -101.931349,101.931349 M -2458.205152,282.465088 l 5.978081,-5.978081 M -2485.539554,309.799490 l -7.829219,7.829219 M -2092.533262,-74.721521 l 100.514457,-100.514457 M -2437.803293,270.548510 l -18.041086,18.041086 M -2491.205609,323.950826 l 10.772965,-10.772965 M -1985.761973,-173.007528 l -99.377595,99.377595 M -2453.565129,294.795627 l 34.052981,-34.052981 M -2474.473517,315.704016 l -14.450003,14.450003 M -2077.856685,-72.427535 l 98.161963,-98.161963 M -2388.607873,238.323653 l -63.639531,63.639531 M -2486.547837,336.263617 l 19.775082,-19.775082 M -1973.644969,-168.153970 l -97.127152,97.127152 M -2484.137597,342.338658 l 97.123356,-97.123356 M -1967.707629,-165.606028 l -96.154635,96.154635 M -2481.557621,348.243964 l 96.280816,-96.280816 M -1961.857025,-162.971350 l -95.188864,95.188864 M -2478.977646,354.149271 l 95.548257,-95.548257 M -1956.041909,-160.301186 l -94.432417,94.432417 M -2476.250493,359.907399 l 94.825617,-94.825617 M -1950.383549,-157.474264 l -93.587801,93.587801 M -2473.473344,365.615531 l 94.200244,-94.200244 M -1944.725188,-154.647343 l -92.924285,92.924285 M -2470.639913,371.267382 l 97.916153,-97.916153 M -1939.211905,-151.675346 l -92.231216,92.231216 M -2467.671704,376.784454 l 117.815516,-117.815516 M -1933.739812,-148.662157 l -91.611268,91.611268 M -2464.703495,382.301526 l 137.714879,-137.714879 M -1928.331162,-145.585526 l -91.088888,91.088888 M -2461.583495,387.666808 l 157.462451,-157.462451 M -1923.040209,-142.391197 l -90.508028,90.508028 M -2458.429430,392.998024 l 177.175959,-177.175959 M -1917.749256,-139.196869 l -90.125550,90.125550 M -2455.218014,398.271889 l 196.832114,-196.832114 M -1912.617719,-135.843124 l -89.621822,89.621822 M -2451.882460,403.421616 l 216.364132,-216.364132 M -1907.503559,-132.472003 l -89.280839,89.280839 M -2448.546905,408.571343 l 235.896150,-235.896150 M -1902.464947,-129.025333 l -88.921148,88.921148 M -2445.069816,413.579535 l 255.286632,-255.286632 M -1897.523959,-125.481040 l -88.605648,88.605648 M -2441.556362,418.551362 l 274.640750,-274.640750 M -1892.582971,-121.936747 l -88.374547,88.374547 M -2437.997640,423.477922 l 293.949601,-293.949601 M -1887.804877,-118.229560 l -88.089673,88.089673 M -2434.309148,428.274711 l 313.128681,-313.128681 M -1883.034123,-114.515032 l -87.905880,87.905880 M -2430.620656,433.071500 l 332.307761,-332.307761 M -1878.341721,-110.722153 l -87.724590,87.724590 M -2426.809736,437.745862 l 351.364413,-351.364413 M -1873.738913,-106.839680 l -87.583586,87.583586 M -2422.948377,442.369784 l 370.370626,-370.370626 M -1869.136105,-102.957206 l -87.498572,87.498572 M -2419.061733,446.968422 l 389.351554,-389.351554 M -1864.694286,-98.913743 l -87.402194,87.402194 M -2415.029018,451.420989 l 408.186412,-408.186412 M -1860.257756,-94.864993 l -87.334157,87.334157 M -2410.996304,455.873555 l 427.021269,-427.021269 M -1855.898028,-90.739439 l -87.357748,87.357748 M -2406.864746,460.227279 l 445.757283,-445.757283 M -1851.626711,-86.525474 l -551.034833,551.034833 M -2398.456981,468.790077 l 551.101587,-551.101587 M -1843.242151,-77.939471 l -447.155005,447.155005 M -2394.083533,472.901910 l 88.064168,-88.064168 M -1839.135576,-73.560765 l -428.243533,428.243533 M -2389.710085,477.013744 l 88.037397,-88.037397 M -1835.104036,-69.107024 l -409.257026,409.257026 M -2385.262345,481.051285 l 88.066426,-88.066426 M -1831.162320,-64.563459 l -390.180695,390.180695 M -2380.718265,484.992487 l 88.057038,-88.057038 M -1827.220603,-60.019894 l -371.104364,371.104364 M -2376.174186,488.933689 l 88.153172,-88.153172 M -1823.436958,-55.318258 l -351.869963,351.869963 M -2371.481615,492.726400 l 88.186254,-88.186254 M -1819.660809,-50.609125 l -332.628064,332.628064 M -2366.765890,496.495956 l 88.278708,-88.278708 M -1815.961627,-45.823026 l -313.309199,313.309199 M -2361.998130,500.213477 l 88.431711,-88.431711 M -1812.352357,-40.947014 l -293.900421,293.900421 M -2357.109106,503.809734 l 88.525096,-88.525096 M -1808.743088,-36.071003 l -274.491644,274.491644 M -2352.220082,507.405991 l 88.757383,-88.757383 M -1805.298849,-31.029960 l -254.917836,254.917836 M -2347.200398,510.871589 l 88.902587,-88.902587 M -1801.858389,-25.985139 l -235.340248,235.340248 M -2342.135761,514.292234 l 89.166635,-89.166635 M -1798.504805,-20.853441 l -215.675785,215.675785 M -2337.035487,517.677241 l 89.424280,-89.424280 M -1795.235732,-15.637233 l -195.926811,195.926811 M -2331.792237,520.919273 l 89.725451,-89.725451 M -1791.975750,-10.411933 l -176.168746,176.168746 M -2326.548987,524.161304 l 90.046450,-90.046450 M -1788.881318,-5.021084 l -156.245130,156.245130 M -2321.183588,527.281185 l 90.451282,-90.451282 M -1785.786887,0.369766 l -136.321515,136.321515 M -2315.758000,530.340879 l 90.812896,-90.812896 M -1782.802498,5.870659 l -116.287856,116.287856 M -2310.302830,533.370990 l 91.365793,-91.365793 M -1779.886688,11.440130 l -96.185619,96.185619 M -2304.690408,536.243850 l 91.784235,-91.784235 M -1777.007904,17.046627 l -90.382985,90.382985 M -2299.077986,539.116709 l 92.431981,-92.431981 M -1774.275471,22.799476 l -87.748356,87.748356 M -2293.337212,541.861217 l 92.991546,-92.991546 M -1771.543038,28.552324 l -82.918604,82.918604 M -2287.532629,544.541915 l 93.716110,-93.716110 M -1768.964164,34.458731 l -77.108678,77.108678 M -2281.687998,547.182565 l 94.473558,-94.473558 M -1766.420710,40.400558 l -70.010600,70.010600 M -2275.685023,549.664872 l 95.288677,-95.288677 M -1763.965432,46.430563 l -60.543933,60.543933 M -2269.682048,552.147179 l 96.230060,-96.230060 M -1761.617484,52.567895 l -48.202118,48.202118 M -2263.522139,554.472551 l 97.200850,-97.200850 M -1759.293951,58.729644 l -32.099271,32.099271 M -2257.313553,556.749246 l 98.330183,-98.330183 M -1757.149059,65.070033 l -15.574977,15.574977 M -2251.028965,558.949939 l 99.517032,-99.517032 M -1755.004166,71.410421 l -2.080284,2.080284 M -2244.606450,561.012705 l 100.891440,-100.891440 M -2135.789530,460.681067 l -102.394404,102.394404 M -2231.542189,564.919007 l 104.013281,-104.013281 M -2119.012962,460.875062 l -105.883242,105.883242 M -2218.099343,568.446725 l 107.880382,-107.880382 M -2101.054579,459.887241 l -110.164392,110.164392 M -2204.253078,571.571022 l 112.828246,-112.828246 M -1862.677973,238.481198 l -0.314126,0.314126 M -2197.125836,572.929062 l 115.776961,-115.776961 M -1851.955754,236.244261 l -13.247988,13.247988 M -2189.974483,574.262990 l 119.242500,-119.242500 M -1840.094285,232.868073 l -27.991905,27.991905 M -2182.586104,575.359892 l 123.135495,-123.135495 M -1828.233124,229.492194 l -43.629248,43.629248 M -2175.197724,576.456794 l 127.858213,-127.858213 M -1818.492476,228.236827 l -58.263884,58.263884 M -2167.563901,577.308252 l 133.392638,-133.392638 M -1811.044618,229.274250 l -72.070156,72.070156 M -2159.898054,578.127686 l 140.458935,-140.458935 M -1804.863722,231.578635 l -87.097857,87.097857 M -2152.017077,578.731991 l 149.702613,-149.702613 M -1799.309359,234.509554 l -106.292067,106.292067 M -2144.055038,579.255233 l 163.655426,-163.655426 M -1794.188236,237.873712 l -341.707560,341.707560 M -2127.616036,579.786794 l 338.355506,-338.355506 M -1784.479391,245.135430 l -334.653270,334.653270 M -2110.496192,579.637513 l 330.815832,-330.815832 M -1774.857530,252.484132 l -326.809961,326.809961 M -2092.623483,578.735366 l 322.816327,-322.816327 M -1764.512507,259.109671 l -318.842949,318.842949 M -2073.859315,576.941761 l 315.090010,-315.090010 M -1752.329863,263.897590 l -311.708574,311.708574 M -2054.036347,574.089356 l 309.170986,-309.170986 M -1744.591133,273.129423 l -298.922583,298.922583 M -2032.743216,569.766788 l 285.806218,-285.806218 M -1749.792471,295.301324 l -271.723608,271.723608 M -2009.673929,563.668064 l 256.451849,-256.451849 M -1757.205067,319.684482 l -240.088469,240.088469 M -1984.207555,555.172251 l 222.300576,-222.300576 M -1767.567126,347.017104 l -202.606049,202.606049 M -1954.821510,542.756769 l 180.274039,-180.274039 M -1783.426311,379.846852 l -154.133615,154.133615 M -1917.366871,522.272694 l 122.173597,-122.173597 M -1813.491545,426.882649 l -77.190526,77.190526" />
        </g>
      </g>
    </g>
  </g>
</svg>
