<?xml version="1.0" encoding="UTF-8" standalone="no"?>
<!-- Created with Inkscape (http://www.inkscape.org/) -->

<svg
   xmlns:dc="http://purl.org/dc/elements/1.1/"
   xmlns:cc="http://creativecommons.org/ns#"
   xmlns:rdf="http://www.w3.org/1999/02/22-rdf-syntax-ns#"
   xmlns:svg="http://www.w3.org/2000/svg"
   xmlns="http://www.w3.org/2000/svg"
   xmlns:sodipodi="http://sodipodi.sourceforge.net/DTD/sodipodi-0.dtd"
   xmlns:inkscape="http://www.inkscape.org/namespaces/inkscape"
   width="717.75433"
   height="1059.8572"
   id="svg2"
   version="1.1"
   inkscape:version="0.48.5 r10040"
   sodipodi:docname="New document 1">
  <defs
     id="defs4" />
  <sodipodi:namedview
     id="base"
     pagecolor="#ffffff"
     bordercolor="#666666"
     borderopacity="1.0"
     inkscape:pageopacity="0.0"
     inkscape:pageshadow="2"
     inkscape:zoom="0.7"
     inkscape:cx="138.24423"
     inkscape:cy="500.17556"
     inkscape:document-units="px"
     inkscape:current-layer="layer1"
     showgrid="false"
     fit-margin-top="10"
     fit-margin-left="10"
     fit-margin-right="10"
     fit-margin-bottom="10"
     inkscape:window-width="1676"
     inkscape:window-height="1011"
     inkscape:window-x="0"
     inkscape:window-y="18"
     inkscape:window-maximized="0" />
  <metadata
     id="metadata7">
    <rdf:RDF>
      <cc:Work
         rdf:about="">
        <dc:format>image/svg+xml</dc:format>
        <dc:type
           rdf:resource="http://purl.org/dc/dcmitype/StillImage" />
        <dc:title></dc:title>
      </cc:Work>
    </rdf:RDF>
  </metadata>
  <g
     inkscape:label="Layer 1"
     inkscape:groupmode="layer"
     id="layer1"
     transform="translate(-19.387147,6.8520949)">
    <path
       style="fill:#000000;fill-opacity:1;stroke:none;stroke-opacity:1"
       d="m 29.387147,523.07651 0,-519.9286049 348.877163,0 348.87715,0 0,519.9286049 0,519.92859 -348.87715,0 -348.877163,0 0,-519.92859 z m 690.980003,0 0,-509.767134 -342.10284,0 -342.102849,0 0,509.767134 0,509.76709 342.102849,0 342.10284,0 0,-509.76709 z M 45.21039,1027.2149 c -1.251038,-1.2511 -2.274616,-228.36735 -2.274616,-504.70293 l 0,-502.42828 335.339636,0 335.33965,0 -0.8579,503.8396 -0.8579,503.83961 -332.20713,0.8633 c -182.71392,0.4748 -333.230701,-0.1603 -334.48174,-1.4113 z m 643.87833,-118.86703 0.89956,-95.7049 -310.82441,0.8645 -310.824419,0.86454 -0.903612,91.40273 c -0.496988,50.27151 -0.160687,93.33877 0.747329,95.70506 1.321421,3.4435 63.361092,4.1297 310.828482,3.4376 l 309.17751,-0.8646 0.89956,-95.70493 z m -468.32721,69.94726 c -12.35806,-7.06964 -15.24221,-14.04712 -15.24221,-36.87469 0,-12.89457 -1.72327,-24.10857 -4.06458,-26.44987 -3.16135,-3.16133 -0.7527,-4.06459 10.8389,-4.06459 11.5916,0 14.00025,0.90326 10.8389,4.06459 -2.35767,2.35766 -4.06459,13.65648 -4.06459,26.9052 0,19.76308 1.01431,23.55104 7.52798,28.11341 10.13194,7.09667 18.20556,6.63649 26.34359,-1.50153 5.37401,-5.37399 6.77431,-11.29051 6.77431,-28.62253 0,-17.23449 -1.25172,-22.57726 -5.92752,-25.30067 -4.53705,-2.64259 -1.42922,-3.47665 13.24855,-3.55546 l 19.17608,-0.10301 20.17414,22.01652 c 11.09578,12.10909 21.33217,22.01652 22.74754,22.01652 1.41537,0 1.81652,-7.87697 0.89145,-17.50438 -1.11297,-11.58286 -3.76943,-19.03081 -7.85265,-22.01652 -5.28191,-3.86224 -0.99234,-4.51214 29.78196,-4.51214 33.73698,0 36.5949,0.54042 46.37399,8.76898 8.42003,7.08498 10.42137,11.35585 10.42137,22.23922 0,16.99313 -4.34898,25.14531 -16.86798,31.61915 -12.27587,6.34811 -50.98387,7.25678 -44.77828,1.0512 2.40629,-2.4063 4.06459,-13.98337 4.06459,-28.37611 0,-17.153 -1.45232,-25.51681 -4.93236,-28.405 -2.7128,-2.25141 -6.52335,-3.11019 -8.46789,-1.90839 -2.03628,1.25846 -3.55144,15.38639 -3.57304,33.31638 l -0.0375,31.13129 -22.2596,-24.55689 c -12.24279,-13.50629 -23.65756,-24.55689 -25.36618,-24.55689 -1.70861,0 -3.10657,7.62111 -3.10657,16.93579 0,12.41959 1.80649,18.74226 6.77432,23.7101 6.77431,6.77431 6.77431,6.77431 -5.75817,6.77431 -9.74749,0 -11.62924,-0.90325 -8.46789,-4.06459 2.31,-2.31 4.06459,-13.37229 4.06459,-25.62635 0,-20.87874 -3.94138,-34.66504 -9.91043,-34.66504 -1.59377,0 -3.47437,11.41827 -4.17909,25.3739 -1.00516,19.9049 -2.77122,26.86382 -8.19381,32.28638 -8.35182,8.35185 -27.68458,11.66615 -36.99192,6.34171 z M 391.22594,967.0372 c 2.47157,-2.41551 5.32979,-10.62483 6.35159,-18.24299 1.6398,-12.2255 0.61806,-15.09087 -8.70563,-24.41456 -6.92233,-6.92236 -13.19796,-10.18938 -18.20661,-9.47821 -7.0969,1.00771 -7.71461,3.00102 -8.64241,27.88843 -0.71294,19.12402 0.25749,27.6249 3.38716,29.67132 5.39199,3.52573 19.74381,0.51038 25.8159,-5.42399 z m -304.934558,7.54733 c 2.462091,-2.46209 4.064589,-14.41445 4.064589,-30.3161 0,-21.42811 -1.089114,-26.88587 -5.927525,-29.70398 -4.400364,-2.56299 0.835618,-3.47902 20.322944,-3.55546 25.02648,-0.0982 26.24544,0.25234 26.14274,7.5181 -0.0935,6.61532 -0.65227,6.92714 -4.23394,2.36264 -2.26943,-2.89216 -8.69889,-5.17849 -14.2877,-5.08074 -8.94417,0.15649 -10.28862,1.49648 -11.22286,11.18599 -0.92694,9.61373 -0.0473,11.00826 6.94367,11.00826 4.40278,0 9.83413,-1.82907 12.06965,-4.06459 3.16135,-3.16134 4.06459,-1.64958 4.06459,6.803 0,9.76277 -0.64309,10.46601 -6.32563,6.91719 -14.64001,-9.14282 -23.257121,7.54994 -12.11167,23.46229 5.20138,7.426 5.07749,7.52799 -9.145322,7.52799 -11.214097,0 -13.514881,-0.90325 -10.353536,-4.06459 z m 54.155568,-5.75024 c -8.86074,-7.91707 -10.98471,-12.3894 -10.98471,-23.12977 0,-18.24621 8.74912,-30.3554 25.1168,-34.76274 19.04427,-5.12808 35.86235,2.25111 42.76109,18.76214 4.0828,9.77151 4.35268,14.60952 1.32648,23.77903 -5.16072,15.63712 -18.10906,25.16617 -34.19654,25.16617 -9.59942,0 -15.9357,-2.58873 -24.02312,-9.81483 z m 39.82264,-1.88627 c 9.08135,-9.08134 10.334,-18.75198 4.5705,-35.28517 -4.17249,-11.96919 -11.8666,-17.36971 -24.74664,-17.36971 -20.5032,0 -25.49374,37.51706 -7.09564,53.34244 4.87642,4.19452 11.13683,7.62639 13.91203,7.62639 2.7752,0 8.78709,-3.74129 13.35975,-8.31395 z m 221.70481,9.96156 c 0,-0.95674 1.51173,-4.38623 3.35935,-7.6211 1.84766,-3.23487 8.67099,-17.80629 15.16295,-32.38092 6.49196,-14.57467 13.03957,-25.73548 14.55024,-24.80185 1.51067,0.93367 7.87849,13.62047 14.15076,28.19297 6.27227,14.57246 13.33697,28.60908 15.69934,31.1925 2.36237,2.58342 6.69973,3.77444 9.6386,2.64669 4.25264,-1.6319 5.34337,-7.60339 5.34337,-29.25403 0,-19.2907 -1.23154,-27.32027 -4.23394,-27.60485 -8.6487,-0.8198 -14.22142,1.17097 -18.58154,6.63791 -3.99471,5.00882 -4.37824,4.69965 -3.53457,-2.84945 l 0.94637,-8.46789 42.33947,-0.94949 42.33946,-0.94949 -1.11539,29.58936 c -0.95044,25.21363 -0.22864,30.23783 4.88133,33.97427 5.25812,3.84483 4.24821,4.38491 -8.19929,4.38491 -13.49498,0 -18.30091,-3.83755 -10.69383,-8.53899 4.35663,-2.69252 1.36089,-48.92162 -3.4842,-53.76671 -2.2821,-2.2821 -3.40514,-0.73396 -3.40514,4.69399 0,7.49466 -0.33025,7.64759 -4.42373,2.04933 -2.71925,-3.71879 -7.61331,-5.59958 -12.70184,-4.88133 -7.92036,1.11796 -8.27811,2.24162 -8.27811,26.00066 0,20.6727 1.10133,25.63716 6.57491,29.63762 5.85023,4.27578 3.09793,4.80543 -24.97164,4.80543 -24.79873,0 -30.81673,-0.90562 -28.13471,-4.23394 2.05438,-2.54942 2.26282,-7.2661 0.52389,-11.85505 -2.23254,-5.89162 -5.56483,-7.62111 -14.68383,-7.62111 -14.6776,0 -21.16309,8.82849 -13.06166,17.78044 5.00371,5.52906 4.6443,5.92966 -5.32017,5.92966 -5.87756,0 -10.68645,-0.7828 -10.68645,-1.73954 z m 37.13869,-31.28524 c -0.0661,-1.3972 -2.23749,-6.35092 -4.82552,-11.00826 l -4.7055,-8.46789 -3.64235,9.53518 c -2.0033,5.24434 -3.64238,10.19806 -3.64238,11.00826 0,0.81018 3.81056,1.47308 8.4679,1.47308 4.65734,0 8.41386,-1.14317 8.34785,-2.54037 z m 111.63568,23.12385 c -7.76506,-7.76502 -9.90093,-12.93609 -9.90093,-23.97064 0,-11.03454 2.13587,-16.20561 9.90093,-23.97064 8.29653,-8.29653 12.63866,-9.90093 26.79613,-9.90093 14.70795,0 18.03052,1.34917 25.66425,10.42137 20.06569,23.84674 3.86532,57.08318 -27.9035,57.24644 -11.73978,0.0603 -16.62603,-1.89474 -24.55688,-9.8256 z m 37.27738,3.25608 c 8.13477,-4.35362 15.04037,-21.78579 12.55423,-31.69136 -3.38932,-13.50416 -15.41122,-26.01977 -24.99332,-26.01977 -14.36554,0 -21.1906,8.94612 -21.1906,27.77618 0,13.0711 1.7535,18.31828 8.31395,24.8787 8.90937,8.90941 15.61394,10.24849 25.31574,5.05625 z m 23.27455,2.58026 c 2.38395,-2.38395 4.06459,-13.82806 4.06459,-27.67734 0,-17.21861 -1.51799,-25.2901 -5.60571,-29.80698 -5.30209,-5.85876 -5.09923,-6.19423 3.74578,-6.19423 7.16235,0 14.38726,5.35222 30.86303,22.86331 l 21.51157,22.86331 0.14632,-19.30784 c 0.11313,-14.91863 -1.20115,-20.09269 -5.7812,-22.76031 -4.87832,-2.84138 -3.90563,-3.47072 5.49546,-3.55546 9.69696,-0.0874 10.79548,0.65311 7.27009,4.90097 -2.6685,3.21533 -3.86518,14.41453 -3.34793,31.33121 0.44277,14.47996 0.60074,27.50076 0.35104,28.93509 -0.24963,1.43433 -9.7736,-7.711 -21.16424,-20.32294 -11.39067,-12.61195 -22.06021,-23.43889 -23.7101,-24.05986 -1.64992,-0.621 -2.99983,8.06753 -2.99983,19.30785 0,15.89037 1.31868,21.20495 5.92752,23.88934 4.7554,2.76978 3.28188,3.47286 -7.45174,3.55547 -10.4061,0.0803 -12.47602,-0.80025 -9.31469,-3.96159 z M 97.257191,901.60956 c -12.341909,-0.84649 -16.908701,-2.25399 -13.715804,-4.22731 6.541647,-4.04298 7.456758,-56.24412 1.078782,-61.53736 -2.434116,-2.02017 -4.425669,-4.76478 -4.425669,-6.09919 0,-1.3344 11.31996,-2.32677 25.15547,-2.20524 23.39261,0.2056 25.25862,0.76059 26.62755,7.92168 1.66421,8.70574 -2.56456,10.49815 -5.67073,2.40363 -1.39994,-3.64821 -5.4666,-4.96615 -13.06422,-4.23395 -10.07663,0.9711 -11.12255,2.16263 -12.08281,13.76497 -0.94243,11.38708 -0.22368,12.70184 6.94368,12.70184 4.39721,0 9.63411,-1.63918 11.63757,-3.64265 2.59877,-2.59877 4.08079,-0.65742 5.17154,6.77431 0.84089,5.72934 0.26865,10.41696 -1.27164,10.41696 -1.54029,0 -2.80053,-1.52422 -2.80053,-3.38715 0,-1.86294 -4.6603,-3.38716 -10.35622,-3.38716 -10.08907,0 -10.32936,0.37137 -9.31468,14.39542 0.94303,13.03388 1.95919,14.50032 10.7438,15.50457 6.78551,0.77573 12.38598,-1.46135 18.62936,-7.44141 4.90991,-4.70283 14.53871,-10.89469 21.39733,-13.75968 6.85862,-2.865 13.56942,-6.98764 14.91289,-9.16142 1.3605,-2.20134 -0.32429,-5.97558 -3.80293,-8.5192 -8.04788,-5.88478 -11.72514,-5.78632 -11.72514,0.31392 0,6.50954 -6.53759,10.25939 -10.67434,6.12262 -4.81537,-4.81535 5.97691,-14.3906 16.2197,-14.3906 4.64674,0 11.39686,1.57784 15.00026,3.50631 5.25042,2.80995 6.55164,7.18267 6.55164,22.01652 0,11.2747 1.46567,18.51021 3.74954,18.51021 2.06225,0 2.8722,-2.28633 1.79989,-5.08074 -2.8097,-7.32195 0.88726,-6.24815 7.77548,2.25842 3.76033,4.64383 8.00255,6.54877 11.55119,5.18703 8.99254,-3.45074 6.49752,-10.91227 -5.39995,-16.14885 -7.0376,-3.09756 -11.40748,-7.66138 -12.11506,-12.65276 -1.72504,-12.16867 5.62086,-18.42403 19.54787,-16.64588 8.88917,1.13494 14.03932,-0.27334 19.66445,-5.37748 6.39254,-5.80037 7.6211,-6.03717 7.6211,-1.46894 0,3.37652 3.53982,5.92695 9.31468,6.71128 l 9.31468,1.2651 -9.5008,4.02757 c -8.7498,3.70917 -9.41915,5.28958 -8.46789,19.9933 0.89152,13.78034 2.192,16.26831 9.5008,18.17619 7.00329,1.82812 7.48527,2.63034 2.7867,4.63811 -3.12465,1.33521 -9.22154,1.9261 -13.54863,1.31303 -7.06372,-1.00077 -7.9721,-3.13434 -8.89203,-20.88494 -0.84802,-16.36312 -1.94373,-19.41762 -6.35788,-17.72374 -3.03978,1.16647 -7.12248,-0.40029 -9.49386,-3.64336 -2.4728,-3.38177 -6.42029,-4.82277 -9.73111,-3.55228 -8.52618,3.27179 -6.71017,7.32638 5.99505,13.38509 14.20813,6.77537 18.38739,17.45416 10.31974,26.36882 -5.02345,5.55084 -10.41104,6.38025 -39.2576,6.04377 -27.58629,-0.32181 -33.43509,-1.29674 -33.43509,-5.5734 0,-4.02472 -1.75236,-3.5371 -7.8394,2.1814 -4.31168,4.0506 -10.02751,7.08278 -12.70184,6.73817 -2.67434,-0.34461 -13.18854,-1.19763 -23.364889,-1.89555 z M 167.6849,884.38441 c 0.93019,-6.56706 -0.20726,-7.7045 -6.77432,-6.77432 -5.26147,0.74528 -8.26484,3.74864 -9.0101,9.01011 -0.9302,6.56706 0.20726,7.7045 6.77431,6.77432 5.26147,-0.74528 8.26484,-3.74864 9.01011,-9.01011 z m 106.77337,12.06217 c 4.93106,-3.60566 5.71726,-8.92475 4.88133,-33.02478 -0.98073,-28.27453 -1.13793,-28.74324 -9.98359,-29.76701 -6.27965,-0.72682 -10.67951,1.31404 -14.60462,6.77431 l -5.61745,7.81448 1.05599,-10.16147 1.05599,-10.16147 33.87157,0 c 33.61921,0 33.87862,0.063 34.81793,8.46789 0.88741,7.94027 0.64157,8.0828 -3.94543,2.28755 -3.1818,-4.01991 -8.24873,-5.79597 -14.49499,-5.08074 l -9.6032,1.09961 0.60533,28.65972 c 0.48575,22.99866 1.78447,29.52192 6.57491,33.02478 5.1431,3.76072 3.44558,4.36506 -12.26097,4.36506 -15.5592,0 -17.36928,-0.62977 -12.3528,-4.29793 z m 33.4294,-0.97486 c -5.50637,-3.85682 -7.52797,-8.68812 -7.52797,-17.99068 0,-15.71614 10.01269,-27.54388 23.31708,-27.54388 9.49432,0 20.71596,8.85971 20.71596,16.3557 0,3.47935 -9.72162,5.75864 -18.13334,4.25142 -1.59013,-0.28486 -5.62517,0.34972 -8.96677,1.41031 -8.37707,2.65878 -4.79289,14.74474 5.8046,19.57326 6.16322,2.80816 9.89815,2.72839 14.77216,-0.31534 3.69719,-2.30906 6.52335,-2.64578 6.52335,-0.77735 0,4.62777 -11.59544,10.30935 -21.04018,10.30935 -4.3653,0 -11.3245,-2.37277 -15.46489,-5.27279 z m 22.95644,-33.7858 c 0,-7.09197 -9.13459,-10.04333 -15.28534,-4.93865 -7.82637,6.49532 -5.98931,10.12567 5.12387,10.12567 6.86687,0 10.16147,-1.68176 10.16147,-5.18702 z m 19.79624,20.31979 c 0.66241,-10.64282 -0.4752,-20.72659 -2.6314,-23.32468 -2.99122,-3.60417 -1.86801,-5.06109 5.28614,-6.85669 5.5779,-1.39994 10.02557,-0.75719 11.52268,1.66516 1.75973,2.84728 3.08305,2.90195 4.75516,0.19646 3.60573,-5.83418 17.20096,-4.41391 23.40861,2.44546 3.51058,3.87914 5.60571,12.03311 5.60571,21.81661 0,16.05915 5.25229,23.87597 10.48829,15.60937 4.32212,-6.8238 3.70674,-28.07031 -0.94779,-32.72484 -4.65721,-4.65721 -3.80774,-5.82591 6.54849,-9.00927 4.71174,-1.44831 7.6211,-0.91693 7.6211,1.39199 0,2.64266 1.91558,2.70939 6.55165,0.22829 8.8988,-4.76247 18.9653,-4.41102 23.30133,0.8136 1.97187,2.37592 4.48202,11.79096 5.57814,20.92227 1.09612,9.13133 3.6666,18.61903 5.71217,21.08379 2.96285,3.57 1.33945,4.48138 -7.98244,4.48138 l -11.70168,0 1.48571,-17.91565 c 1.15752,-13.95817 0.22118,-18.96517 -4.2392,-22.66689 -8.82283,-7.32232 -16.81981,-0.24726 -18.03329,15.95425 -0.68587,9.15718 0.78382,15.43917 4.47589,19.13121 5.07132,5.07135 3.49538,5.49708 -20.34845,5.49708 -17.83632,0 -25.13636,-1.14743 -23.5571,-3.70274 3.99366,-6.46188 2.09425,-31.0248 -2.7757,-35.89471 -2.57648,-2.57648 -7.24144,-3.70332 -10.3666,-2.5041 -4.20109,1.61212 -5.68209,6.32359 -5.68209,18.07641 0,8.74276 1.82906,17.72503 4.06459,19.96055 3.16133,3.16134 1.46775,4.06561 -7.62111,4.0692 l -11.68569,0.003 1.16688,-18.74805 z m 119.83087,13.46601 c -5.61506,-3.93296 -7.52799,-8.66682 -7.52799,-18.62936 0,-8.84038 2.29056,-15.64714 6.77431,-20.13089 9.38022,-9.38022 25.25471,-8.79773 32.79865,1.20346 l 6.01766,7.9778 3.53304,-7.13101 c 2.46087,-4.96696 7.36399,-7.45002 16.15698,-8.18226 11.09128,-0.92361 12.62397,-0.14023 12.62397,6.4525 0,7.24174 -0.23203,7.29367 -6.64815,1.48727 -3.81346,-3.45114 -9.031,-5.10214 -12.23654,-3.87206 -4.53249,1.73927 -4.79794,3.09684 -1.40499,7.18511 2.30086,2.77235 6.2072,5.04066 8.68077,5.04066 2.47357,0 10.23084,6.85899 17.23833,15.24221 7.00748,8.38321 14.75228,15.2422 17.21068,15.2422 7.0607,0 8.83662,-9.45304 2.89257,-15.3971 -2.97535,-2.97534 -5.40973,-4.4851 -5.40973,-3.35501 0,1.13006 -3.13746,0.37557 -6.97213,-1.67671 -5.22641,-2.79708 -6.7106,-6.43133 -5.92752,-14.51458 0.98244,-10.14145 1.8482,-10.78322 14.54682,-10.78322 10.81519,0 13.75836,1.34816 14.78911,6.77432 1.23296,6.49074 1.01106,6.52617 -5.30107,0.84679 -7.44047,-6.69465 -19.1709,-8.01808 -17.14291,-1.93407 0.73213,2.1964 6.95603,7.55336 13.83091,11.90437 12.17002,7.70222 12.49973,7.73091 12.49973,1.08727 0,-9.93375 12.02281,-20.37225 23.46426,-20.37225 6.41243,0 12.1587,2.85161 16.26451,8.07129 l 6.34886,8.07129 7.1893,-8.07129 c 8.70588,-9.77395 24.60506,-10.68994 32.58059,-1.87706 9.28098,10.25536 6.79393,14.12871 -9.07196,14.12871 -8.07274,0 -15.59186,0.91419 -16.70921,2.03151 -3.40674,3.40674 4.92387,18.03624 11.45001,20.10756 3.3728,1.07047 9.23837,0.28418 13.03463,-1.74764 4.39693,-2.3532 6.90224,-2.46456 6.90224,-0.30684 0,4.85132 -11.62743,10.39982 -21.79384,10.39982 -11.06615,0 -22.2392,-11.0612 -22.2392,-22.01652 0,-7.86444 -1.16667,-8.46789 -16.37124,-8.46789 -9.00422,0 -17.28544,0.91419 -18.4028,2.03151 -3.40673,3.40674 4.92388,18.03624 11.45001,20.10756 3.3728,1.07047 9.23837,0.28418 13.03463,-1.74764 4.39694,-2.3532 6.90225,-2.46456 6.90225,-0.30684 0,4.85132 -11.62744,10.39982 -21.79385,10.39982 -4.77982,0 -11.87869,-3.18813 -15.77531,-7.08475 l -7.08478,-7.08478 -4.96236,7.08478 c -3.40111,4.85576 -8.63173,7.08475 -16.62531,7.08475 -8.10899,0 -11.663,-1.54823 -11.663,-5.08073 0,-2.79441 -1.36116,-5.08074 -3.02477,-5.08074 -1.66363,0 -3.9021,2.28633 -4.97444,5.08074 -1.28689,3.35359 -6.59148,5.08073 -15.6046,5.08073 -10.10067,0 -13.65492,-1.37248 -13.65492,-5.27279 0,-4.7723 -0.71455,-4.7723 -7.52799,0 -4.14036,2.90002 -11.42234,5.27279 -16.18211,5.27279 -4.75976,0 -12.04174,-2.37277 -16.1821,-5.27279 z m 62.39397,-3.23822 c 1.94666,-5.07291 -5.03572,-16.85839 -8.14547,-13.74867 -0.88778,0.8878 -3.8279,-0.5996 -6.53359,-3.30529 -4.91703,-4.91704 -29.58773,-6.75301 -39.52131,-2.94114 -4.1386,1.58814 -4.42587,3.57951 -1.45658,10.09637 4.94433,10.85164 13.71063,13.10671 26.08178,6.70935 9.60385,-4.96632 10.41382,-4.87741 13.83708,1.51907 4.29143,8.01859 12.94941,8.93749 15.73809,1.67031 z m -38.33788,-27.58927 c 3.02053,-3.02054 -4.21081,-11.31992 -9.86313,-11.31992 -2.50077,0 -6.17831,3.04844 -8.17233,6.77432 -3.23385,6.04252 -2.57589,6.77431 6.09062,6.77431 5.34385,0 10.71903,-1.00294 11.94484,-2.22871 z m 118.9072,-0.77465 c 1.02092,-1.65185 -0.54114,-4.99297 -3.47116,-7.42468 -3.7631,-3.12309 -6.92532,-3.41337 -10.76937,-0.98861 -9.70156,6.11958 -8.70841,11.41665 2.14052,11.41665 5.63409,0 11.07912,-1.35151 12.10001,-3.00336 z m 47.42019,0 c 1.02092,-1.65185 -0.54113,-4.99297 -3.47116,-7.42468 -3.76309,-3.12309 -6.92531,-3.41337 -10.76936,-0.98861 -9.70156,6.11958 -8.70841,11.41665 2.14051,11.41665 5.6341,0 11.07912,-1.35151 12.10001,-3.00336 z m 29.02804,-447.48852 0,-375.974428 -311.61843,0 -311.618438,0 0,375.974428 0,375.97443 311.618438,0 311.61843,0 0,-375.97443 z"
       id="path3140"
       inkscape:connector-curvature="0" />
  </g>
</svg>
